<svg width="1200" height="598" viewBox="0 0 1200 598" fill="none" xmlns="http://www.w3.org/2000/svg">
<g clip-path="url(#clip0_4804_13043)">
<path fill-rule="evenodd" clip-rule="evenodd" d="M280.853 451.365C281.171 452.281 281.537 453.174 281.963 454.045C283.637 457.47 288.364 466.914 292.802 473.688C298.42 481.999 306.685 486.625 319.198 487.703C328.7 488.521 327.186 496.061 325.413 504.895C325.177 506.072 324.936 507.271 324.716 508.481C324.142 511.636 325.351 514.803 327.681 517.024C328.774 518.066 330.238 518.75 331.692 519.43C333.679 520.359 335.649 521.279 336.629 523.095C337.64 524.967 338.166 527.835 338.771 531.126C339.119 533.025 339.494 535.063 340.001 537.132C341.25 542.218 339.88 546.402 338.464 550.722C337.315 554.229 336.137 557.827 336.306 562.071C336.324 562.526 336.302 562.967 336.235 563.39C336.206 563.581 336.176 563.774 336.145 563.97C335.171 570.238 333.884 578.52 337.128 585.646C339.54 590.946 343.318 593.164 345.235 593.989C346.019 594.326 346.864 594.468 347.711 594.566C353.606 595.253 359.491 593.45 364.267 589.956C367.55 587.553 371.595 584.786 375.658 582.492C381.505 579.194 379.377 569.166 376.916 562.023C375.36 557.504 376.637 552.325 380.528 549.566C381.132 549.138 381.677 548.65 382.169 548.099C385.706 544.141 401.364 526.752 414.149 514.699C428.655 501.023 430.598 496.492 430.989 489.782C431.38 483.054 434.408 476.891 437.443 470.716C440.254 464.995 443.07 459.263 443.799 453.063C443.863 452.521 443.948 452.006 444.058 451.526C444.99 447.445 450.402 447.046 455.923 446.64C460.619 446.295 465.394 445.944 467.558 443.316C470.428 439.845 468.182 430.871 466.122 422.641C464.786 417.301 463.528 412.274 463.797 409.267C464.186 404.866 467.417 403.164 471.145 401.201C473.909 399.745 476.947 398.145 479.303 395.194C485.439 387.506 474.113 374.653 464.384 372.972C461.422 372.46 457.724 372.631 453.127 373.99C443.685 376.78 441.913 374.16 438.066 368.473C434.363 362.999 428.737 354.682 412.498 345.612C389.724 332.892 382.325 340.98 379.925 347.27C378.744 350.365 376.714 353.378 373.605 354.538C370.717 355.615 367.434 354.961 365.189 352.837C362.967 350.735 359.75 350.057 356.907 351.164C353.076 352.656 347.817 354.819 344.897 356.519C341.612 358.431 336.344 359.826 331.178 361.194C328.546 361.892 325.941 362.581 323.639 363.329C321.906 363.885 320.242 364.354 318.52 364.839C313.461 366.265 307.904 367.831 298.621 372.164C288.263 377 289.796 386.242 290.601 389.202C290.734 389.693 290.901 390.171 291.068 390.65C291.117 390.791 291.166 390.932 291.214 391.074L293.063 396.485C294.844 401.698 295.103 407.304 293.809 412.646C293.482 413.993 293.06 415.314 292.543 416.6L292.201 417.452C290.478 421.743 288.039 425.711 284.987 429.186L282.275 432.274C281.232 433.462 280.383 434.807 279.76 436.26C278.281 439.708 278.146 443.588 279.383 447.14L280.853 451.365ZM291.632 463.288C292.402 464.364 293.171 465.44 293.912 466.531C294.937 468.039 296.218 470.046 297.748 472.666C301.893 479.564 313.863 481.192 323.195 482.462C324.127 482.589 325.033 482.712 325.902 482.836C332.748 483.817 331.125 492.386 329.478 501.081C329.257 502.248 329.036 503.418 328.834 504.572C328.123 508.648 329.819 512.664 332.902 515.446C333.663 516.132 334.498 516.794 335.336 517.458C338.266 519.78 341.237 522.135 341.241 525.705L341.241 525.947C341.242 528.446 341.244 531.547 342.038 534.78C343.26 539.759 342.264 544.963 341.282 550.093C340.988 551.628 340.696 553.157 340.464 554.671C340.297 555.763 340.154 556.848 340.054 557.87C339.9 559.482 339.483 561.387 339.034 563.441C337.921 568.528 336.608 574.53 338.599 579.27C339.405 581.19 340.521 583.108 341.701 584.866C345.043 589.846 351.529 591.144 357.103 588.964C357.911 588.648 358.688 588.263 359.428 587.81C361.883 586.306 367.991 582.553 373.418 579.119C377.077 576.808 375.824 569.475 373.792 562.996C371.66 556.195 372.949 548.554 378.139 543.692C378.25 543.587 378.357 543.485 378.465 543.377C379.953 541.897 391.602 530.276 401.499 519.342C405.459 514.968 409.75 511.079 413.575 507.612C419.982 501.805 425.081 497.183 425.126 493.449C425.14 492.319 425.347 490.969 425.673 489.523C427.018 483.567 429.223 477.864 431.428 472.158C432.827 468.537 434.227 464.916 435.408 461.227C437.233 455.529 438.992 449.623 439.458 446.692C440.038 443.044 445.562 442.295 451.004 441.557C455.511 440.945 459.962 440.342 461.5 438.105C463.566 435.114 461.499 426.949 459.604 419.467C458.369 414.589 457.207 410.002 457.311 407.325C457.46 403.421 461.579 401.021 465.816 398.551C468.963 396.717 472.175 394.846 473.872 392.292C475.61 389.678 474.198 385.378 471.938 383.181C468.601 379.938 462.929 376.595 454.843 379.071C446.467 381.636 442.308 377.535 434.709 370.041C429.667 365.068 423.109 358.602 412.799 351.597C397.634 341.294 390.153 343.344 386.56 346.799C385.309 348.001 384.229 349.403 383.149 350.804C381.64 352.763 380.132 354.721 378.16 356.132L376.451 357.356C372.529 360.163 367.354 360.537 363.048 358.326C360.083 356.803 356.649 356.474 353.482 357.486C348.503 359.077 341.233 361.542 338.891 363.074C336.599 364.573 332.568 365.497 328.616 366.403C326.222 366.952 323.857 367.494 321.925 368.153C320.461 368.646 318.705 369.111 316.727 369.635C311.773 370.948 305.425 372.63 298.79 376.034C294.488 378.24 294.371 383.554 295.485 388.622C297.165 396.266 298.529 404.23 296.4 411.747L296.227 412.36C295.889 413.554 295.65 414.774 295.512 416.008C295.101 419.704 293.783 423.237 291.675 426.297L289.297 429.749L286.022 433.624C282.962 437.244 281.641 442.022 282.403 446.709C282.758 448.889 283.552 450.976 284.739 452.844L288.25 458.373C289.315 460.05 290.474 461.669 291.632 463.288Z" fill="#1E1F21"/>
<path fill-rule="evenodd" clip-rule="evenodd" d="M254.153 397.891C250.334 397.027 247.572 393.871 246.223 390.195C243.293 382.21 234.065 378.558 226.462 382.373L221.097 385.066C219.773 385.73 218.382 386.246 216.976 386.715C214.425 387.566 209.463 389.405 201.463 393.088C194.764 396.172 186.747 393.977 182.841 387.724C181.908 386.23 181.267 384.572 180.718 382.899C179.564 379.387 176.76 372.736 170.587 365.902C167.206 362.165 162.579 360.863 158.109 360.697C157.307 360.668 156.502 360.641 155.694 360.615C147.089 360.333 138.184 360.042 130.894 355.601L130.069 355.098C128.367 354.061 126.812 352.799 125.448 351.347C118.274 343.71 117.565 332.156 122.699 323.015C125.184 318.59 127.405 314.057 128.257 310.723C130.608 301.526 111.16 296.618 91.2203 291.83C83.4771 289.966 77.8661 294.252 73.8999 300.186C64.9957 313.51 58.1844 328.824 53.9392 344.276C52.7909 348.435 47.5869 351.785 42.2581 354.2C34.6109 357.667 27.9856 363.779 26.6934 372.076C26.4157 373.86 26.1681 375.677 25.9841 377.429C25.3848 383.135 22.9939 389.075 18.3603 392.459L16.8382 393.57C14.0018 395.641 10.3255 396.175 7.01902 394.996C3.41048 393.71 0.776686 390.577 0.128592 386.8L-0.046726 385.778C-0.385031 383.807 -0.240822 381.782 0.373563 379.878L12.6731 341.758L22.1399 316.723L30.5666 299.717C35.9606 287.719 43.3959 276.746 52.5412 267.29L70.1585 249.073L102.334 217.58L123.663 194.195L140.918 177.904C148.561 170.688 157.095 164.482 166.313 159.435L176.654 153.774C180.001 151.942 183.592 150.593 187.318 149.769C199.3 147.118 209.428 139.158 214.839 128.14L216.246 125.274C221.065 115.46 229.154 107.631 239.12 103.137L256.95 95.0952L286.889 78.3281L332.434 57.9233L343.711 51.0396C352.82 45.479 363.017 41.9417 373.61 40.6674C382.954 39.5433 392.002 36.6568 400.273 32.1609L403.977 30.1473C410.98 26.3407 418.427 23.4166 426.148 21.4418L436.789 18.72L455.463 13.7917L473.028 9.20759L501.714 3.81792C502.095 3.7462 502.483 3.71323 502.871 3.7195L508.373 3.80829C510.507 3.84274 511.769 6.21194 510.607 8.00386C510.501 8.16763 510.378 8.3195 510.239 8.45684L503.582 15.0516C502.383 16.2397 500.961 17.1786 499.397 17.8141L494.016 20.0015C489.006 22.0379 487.259 28.2527 490.475 32.5986C493.731 36.9984 491.997 43.7376 488.05 47.5331C487.184 48.3657 486.296 49.2972 485.407 50.3362C482.888 53.2801 477.315 52.9985 471.815 51.7374C462.434 49.5864 452.529 48.7555 443.552 52.2332L437.927 55.146C430.513 58.9851 427.083 67.7186 429.902 75.575L431.25 79.3312C433.421 85.3823 430.58 92.0892 424.723 94.741C421.602 96.1537 419.217 98.8003 418.04 102.018C415.941 107.753 412.481 116.553 410.373 118.446C409.326 119.39 408.391 120.589 407.455 121.788C405.548 124.233 403.638 126.68 400.78 126.981C400.292 127.033 399.797 127.081 399.296 127.128C396.903 127.348 394.919 126.204 394.305 123.881C393.535 120.971 392.888 116.869 393.957 113.947C394.376 112.787 394.406 111.272 394.206 109.636C393.223 101.594 386.687 95.6594 379.595 91.749L378.178 90.956C372.591 87.8281 365.915 87.2957 359.9 89.4981C355.052 91.2732 349.735 91.2842 344.881 89.5291L337.525 86.8692C326.665 82.9425 314.522 85.3531 305.979 93.1315L301.378 97.3205C294.896 103.222 292.582 112.435 295.506 120.696C297.83 127.261 296.873 134.543 292.932 140.288L290.347 144.054C289.201 145.725 288.223 147.504 287.427 149.367L286.036 152.621C281.467 163.309 274.178 172.613 264.894 179.605L257.192 185.407L244.432 192.973C242.491 194.124 241.107 196.021 240.603 198.221C239.463 203.203 243.087 208.007 248.188 208.277L248.938 208.317C249.992 208.373 251.048 208.24 252.056 207.924L261.377 205.003C264.134 204.14 267.011 203.728 269.899 203.783L275.337 203.887C282.862 204.031 289.738 199.633 292.765 192.739L299.62 179.107C303.755 171.792 309.396 165.438 316.17 160.467L320.364 157.39C321.45 156.593 322.594 155.877 323.785 155.249L327.514 153.285C334.741 149.477 343.527 150.266 349.956 155.3C357.551 161.246 360.04 171.649 355.96 180.396L353.075 186.58L346.056 200.959C345.048 203.023 343.813 204.968 342.372 206.757L336.411 214.157C333.541 217.721 332.687 222.503 334.146 226.838L334.255 227.162C334.664 228.376 334.865 229.65 334.849 230.931C334.781 236.542 330.637 241.268 325.084 242.067L317.267 243.191C307.917 244.536 300.672 251.387 300.055 260.816C299.575 268.14 296.752 276.645 291.517 281.79L283.96 289.218C281.906 291.237 280.848 294.062 281.072 296.934C281.403 301.19 284.676 304.505 288.159 306.972C290.675 308.755 292.654 311.463 291.281 315.364C288.346 323.765 291.618 329.358 298.782 327.223C298.876 327.195 298.971 327.167 299.066 327.137C299.109 327.124 299.151 327.111 299.194 327.097C308.815 324.065 322.953 330.154 317.707 338.773C315.887 341.763 307.167 342.578 301.457 342.787C298.116 342.909 294.8 343.555 291.752 344.93L286.907 347.115C282.497 349.104 277.356 348.537 273.487 345.635C271.592 344.213 270.112 342.31 269.201 340.122L267.017 334.88C266.075 332.619 265.651 330.184 265.75 327.736C265.758 327.532 265.767 327.322 265.775 327.106C266.186 316.643 256.647 311.162 247.367 316.011L229.171 326.036C221.911 330.035 216.697 336.954 215.041 345.076C214.325 348.584 213.573 352.411 212.924 356.002C211.837 362.017 215.646 367.467 221.466 365.602C222.872 365.151 224.414 364.531 226.085 363.692C228.053 362.703 229.099 360.55 228.903 358.356C228.536 354.257 232.432 351.087 236.369 352.28L242.918 354.265C243.835 354.543 244.786 354.693 245.744 354.711L248.573 354.764C255.62 354.897 262.408 357.44 267.806 361.971L268.054 362.179C269.311 363.235 270.584 364.4 270.919 366.007C271.432 368.472 270.938 372.914 264.648 379.072C255.845 387.702 260.301 390.246 261.568 390.751C261.665 390.79 261.763 390.825 261.86 390.86C261.962 390.896 262.063 390.933 262.163 390.973L263.16 391.373C264.774 392.021 265.717 393.708 265.423 395.423C265.284 396.234 264.876 396.981 264.141 397.348C262.622 398.105 259.423 399.083 254.153 397.891ZM260.373 396.031C258.047 396.608 254.659 396.08 250.637 391.384L248.853 388.938C242.975 380.878 232.586 377.507 223.092 380.578C221.986 380.935 220.911 381.375 219.854 381.859C217.08 383.128 210.606 385.939 200.138 389.628C196.763 390.817 193.009 389.847 190.588 387.214C188.491 384.933 186.751 381.127 185.026 377.355C183.435 373.875 181.857 370.424 180.026 368.23C179.703 367.844 179.356 367.444 178.983 367.031C175.319 362.984 171.455 359.841 168.293 357.598C164.078 354.608 158.739 354.1 153.73 355.376C140.968 358.629 128.253 349.778 126.716 336.696C126.395 333.955 126.591 331.16 127.297 328.491C128.74 323.043 131.297 313.352 132.777 307.569C134.637 300.305 109.297 292.424 102.528 290.458C101.43 290.139 100.364 289.762 99.3182 289.3C89.0463 284.764 76.9906 288.46 71.2304 298.107C64.3995 309.546 56.4272 323.453 55.1516 328.09L55.0951 328.294C53.0184 335.807 50.3892 345.319 43.6933 349.232C38.1718 352.459 32.1249 356.318 28.3491 359.703C25.3545 362.388 24.3168 366.486 23.3114 370.458C23.1382 371.142 22.966 371.822 22.7849 372.491L19.7887 383.553C19.0985 386.101 17.1313 388.107 14.5972 388.845C8.10826 390.735 2.58861 383.818 5.86861 377.907L7.51537 374.939C7.79023 374.444 8.01757 373.923 8.19432 373.385L21.2449 333.644L23.6657 327.59C28.5347 315.414 34.7381 303.814 42.1622 293.005C49.7802 281.284 58.6566 270.432 68.6332 260.642L83.0018 246.541L110.721 218.109L130.678 196.4L144.951 183.661C154.006 175.579 164.006 168.622 174.732 162.942L182.128 159.026C184.638 157.697 187.256 156.58 189.953 155.689C201.794 151.773 211.783 143.639 218.018 132.834L219.84 129.677C226.488 118.157 236.752 109.153 249.038 104.064L257.037 100.751L285.766 84.1094L326.287 66.4496L336.91 60.3052C347.228 54.3374 358.537 50.2804 370.294 48.3291C379.421 46.8143 388.291 44.0282 396.646 40.052L401.937 37.5341C413.054 32.0317 424.552 27.337 436.343 23.4866L436.818 23.3315L455.979 19.0496L485.981 11.8921L502.653 7.92982C504.846 7.40882 506.453 9.95915 505.039 11.7139C504.77 12.0475 504.415 12.3018 504.013 12.4496L497.24 14.9397C490.218 17.521 486.018 24.7278 487.233 32.1094L487.915 36.25C487.998 36.7536 488.236 37.2187 488.596 37.5807C490.292 39.2885 488.815 44.3141 486.931 45.8142C486.057 46.5103 485.14 47.3832 484.204 48.4769C481.012 52.2035 471.97 50.7747 465.298 49.0546C460.166 47.7316 454.795 47.2551 449.611 48.3624L444.062 49.5476C432.552 52.0064 425.035 63.1221 427.04 74.7211L428.315 82.0931C428.81 84.9559 427.794 87.8725 425.628 89.8096C420.964 94.7038 417.129 100.317 414.072 106.347C410.912 112.579 406.978 119.954 405.356 121.409C402.888 123.635 401.402 124.255 401.026 124.387C400.962 124.409 400.794 124.45 400.728 124.465C398.059 125.071 395.831 122.353 395.939 119.618C395.97 118.854 396.138 117.959 396.519 116.918C397.27 114.842 397.466 112.321 397.459 110.215C397.45 107.345 396.533 104.587 395.272 102.01C392.22 95.7703 386.945 90.899 380.483 88.353L379.77 88.072C374.633 86.048 369.035 85.4913 363.598 86.4642L360.645 86.9927C354.837 88.0321 348.872 87.7864 343.17 86.273L333.661 83.7487C321.476 80.5145 308.5 84.308 299.969 93.5984L298.571 95.1208C292.264 101.989 289.537 111.414 291.201 120.587C292.297 126.623 291.501 132.851 288.923 138.419L283.632 149.848C277.706 161.495 269.325 171.718 259.067 179.812L255.191 182.87L243.119 190.936C239.175 193.571 237.425 198.48 238.814 203.014C240.134 207.325 244.007 210.35 248.508 210.587L249.793 210.655C251.288 210.733 252.785 210.545 254.214 210.097L260.207 208.22C263.867 207.073 267.689 206.525 271.524 206.598L278.398 206.728C283.268 206.821 287.983 205.007 291.538 201.675C293.465 199.868 294.987 197.674 296.005 195.237L300.053 185.546C303.524 178.626 308.454 172.54 314.504 167.709L321.358 162.237L323.756 160.013C331.324 152.994 343.217 153.72 349.869 161.605C354.367 166.936 355.397 174.38 352.516 180.736L347.913 190.893L338.537 206.778L331.473 217.326C329.761 219.881 329.515 223.147 330.824 225.929C331.881 228.174 331.935 230.763 330.973 233.052L330.682 233.744C329.319 236.985 326.418 239.324 322.963 239.967L312.98 241.824C304.245 243.449 297.504 249.82 296.592 258.66C295.913 265.245 293.668 272.769 289.412 277.84L279.605 289.525C275.312 295.919 279.456 304.169 285.821 308.497C288.211 310.122 289.655 312.119 288.818 314.493C286.141 322.146 290.642 332.552 297.173 330.607C304.447 328.467 319.117 330.228 315.172 336.705C313.254 339.852 299.628 341.322 293.283 341.841C291.193 342.012 289.222 342.885 287.728 344.358C283.451 348.578 276.278 347.222 273.84 341.732L270.968 335.266C270.536 334.292 270.22 333.27 270.028 332.222L268.301 322.8C268.296 322.774 268.294 322.765 268.293 322.757C268.291 322.748 268.29 322.743 268.284 322.707C266.998 315.128 259.707 310.286 252.191 311.894L247.118 312.979C245.974 313.223 244.854 313.572 243.773 314.019L237.728 316.518C225.141 321.723 215.45 332.273 211.943 345.436C211.151 348.411 210.39 351.383 209.747 354.107C208.04 361.332 211.892 368.103 219.312 368.179C224.413 368.231 229.672 366.353 231.372 359.089C231.791 357.3 233.098 355.772 234.904 355.437C235.476 355.331 236.064 355.348 236.629 355.489L244.292 357.395L253.123 358.671C258.968 359.516 264.414 362.132 268.727 366.167C268.752 366.191 268.778 366.215 268.803 366.239C269.088 366.503 269.38 366.774 269.509 367.138C269.912 368.275 269.855 371.385 262.982 378.11C255.83 385.117 256.643 388.679 257.355 389.914C257.504 390.172 257.7 390.399 257.896 390.625C257.985 390.728 258.074 390.832 258.158 390.938L258.799 391.74C259.118 392.14 259.54 392.445 260.019 392.623C261.847 393.304 262.267 395.562 260.373 396.031Z" fill="#1E1F21"/>
<path fill-rule="evenodd" clip-rule="evenodd" d="M658.025 147.648C654.3 147.871 650.776 145.951 648.947 142.703C648.305 141.563 647.899 140.304 647.754 139.003L646.886 131.221C646.622 128.853 646.335 126.426 645.26 124.299C642.92 119.669 639.178 119.818 634.047 120.022C633.668 120.037 633.282 120.053 632.889 120.066C625.733 120.316 619.035 117.34 612.85 113.743L606.527 110.065C605.419 109.421 604.392 108.645 603.469 107.755C597.873 102.362 589.205 101.77 582.916 106.351L576.706 110.876C571.813 114.441 565.8 116.125 559.77 115.621L551.166 114.901C549.298 114.745 547.543 113.942 546.204 112.631C541.86 108.375 543.631 101.022 549.439 99.1978L555.329 97.3482C557.973 96.5178 560.239 94.7811 561.728 92.4444L565.302 86.836C566.926 84.2868 567.946 81.4008 568.284 78.3986C568.626 75.3524 568.258 72.269 567.206 69.3909L564.863 62.9793C564.005 60.6314 563.836 58.0867 564.376 55.6445C565.775 49.317 571.58 44.9491 578.049 45.3576L578.968 45.4156C582.624 45.6464 586.048 47.279 588.526 49.9727L595.092 57.1115C599.815 62.2463 606.465 65.1836 613.448 65.2194L618.043 65.2429C621.474 65.2604 624.784 63.9727 627.302 61.6412C633.656 55.7586 632.917 45.512 625.788 40.6141L618.604 35.6789C617.128 34.6648 615.88 33.3543 614.94 31.8308C610.938 25.348 613.412 16.8234 620.267 13.4768L626.5 10.4334C627.43 9.97938 628.395 9.6013 629.386 9.30281L639.963 6.1161C659.065 0.3611 679.094 -1.71212 698.933 0.309672C715.041 1.95114 732.605 3.90436 737.695 5.08455C740.725 5.78687 746.763 6.92764 754.123 8.31802C771.2 11.544 795.389 16.1136 805.605 19.6679C816.665 23.516 834.467 30.4422 842.479 33.5861C845.246 34.6721 847.96 35.8636 850.638 37.1542C859.69 41.5176 869.24 44.7673 879.078 46.8323L888.275 48.7628C911.67 53.6736 934 62.7049 954.221 75.4349L958.578 78.1777L1018.93 119.229L1054.97 140.876C1070.82 148.461 1085.74 157.84 1099.44 168.828L1100.8 169.918L1125.81 192.349C1126.48 192.947 1127.13 193.562 1127.76 194.192C1128.69 195.112 1130.21 196.612 1131.93 198.284C1138.41 204.589 1145.06 211.929 1149.93 219.545C1152.82 224.061 1156.68 227.872 1161.23 230.699L1165.53 233.365C1168.03 234.918 1170.41 236.659 1172.65 238.573L1183.59 247.921C1186.14 250.107 1188.41 252.613 1190.32 255.378L1193.77 260.357C1195.22 262.449 1196.13 264.869 1196.4 267.399L1196.64 269.593C1196.83 271.333 1196.47 273.089 1195.62 274.616C1193.59 278.227 1189.24 279.828 1185.36 278.391L1174.98 274.55C1173.74 274.089 1172.44 273.759 1171.13 273.568C1165.77 272.79 1160.33 274.342 1156.18 277.834L1154.48 279.267C1153.8 279.839 1153.19 280.485 1152.65 281.193C1149.35 285.564 1143.49 287.111 1138.47 284.936L1134.85 283.369C1130.96 281.686 1127.85 278.601 1126.14 274.728L1117.79 255.856L1117.61 255.467C1111.99 243.285 1102.84 233.066 1091.36 226.118L1080.3 220.815C1078.8 220.098 1077.17 219.713 1075.51 219.686L1074.18 219.664C1069.47 219.588 1065.35 222.847 1064.35 227.451C1063.57 231.004 1064.81 234.693 1067.58 237.054L1078.25 246.182C1080.23 247.869 1081.86 249.913 1083.08 252.207L1088.29 262.061C1089.12 263.627 1088.9 265.541 1087.74 266.883C1086.8 267.968 1085.39 268.516 1083.96 268.345L1073.53 267.093C1070.84 266.77 1068.11 266.904 1065.46 267.49L1056.98 269.369L1049.84 270.667C1046.7 271.237 1043.78 272.649 1041.38 274.751L1040.42 275.595C1037.57 278.1 1033.85 279.382 1030.06 279.163L1026.83 278.872C1024.41 278.655 1022.02 279.507 1020.28 281.204C1018.92 282.536 1018.06 284.296 1017.84 286.187L1017.6 288.333C1017.37 290.362 1017.57 292.417 1018.2 294.361L1019.53 298.499C1019.55 298.572 1019.57 298.634 1019.6 298.707C1020.05 300.141 1025.32 316.837 1026.91 320.799C1028.59 324.946 1032.01 329.184 1036.04 331.67C1038.07 332.924 1042.75 334.899 1046.89 336.547C1050.51 337.99 1051.63 342.618 1049 345.5L1049 345.501C1049 345.507 1048.99 345.512 1048.99 345.517C1048.82 345.691 1045.97 348.483 1037.61 345.649C1033.81 344.373 1030.82 342.009 1027.74 339.577C1023.8 336.467 1019.72 333.246 1013.64 332.043C1007.82 330.878 1001.96 334.33 996.615 337.482C991.986 340.211 987.739 342.715 984.229 341.801C980.994 340.959 979.001 337.746 977.146 334.756C974.664 330.754 972.429 327.152 967.796 330.159C963.51 332.941 969.799 342.055 976.578 351.881C982.604 360.615 989.018 369.911 988.738 375.822C988.556 379.673 986.367 381.303 983.419 381.712C983.131 381.752 982.842 381.792 982.552 381.832C972.881 383.166 962.308 384.625 957.749 393.187L953.751 400.697C951.8 404.361 947.471 406.061 943.549 404.704C939.476 403.294 937.129 399.042 938.139 394.852C940.354 385.662 944.026 370.846 945.265 368.288C947.103 364.563 945.554 351 941.106 338.823C937.864 329.977 933.753 329.635 929.994 329.322C928.589 329.206 927.233 329.093 925.99 328.542C923.202 327.303 923.27 324.253 923.38 319.344C923.449 316.253 923.535 312.426 922.934 307.85C922.035 301.001 916.633 300.492 912.238 301.28C912.002 301.323 911.766 301.365 911.529 301.408C907.799 302.082 904.006 302.767 900.267 302.211C896.193 301.604 892.03 302.253 888.331 304.069L884.631 305.887C880.862 307.738 877.707 310.636 875.546 314.235L873.907 316.963C872.431 319.419 870.166 321.305 867.481 322.311C862.373 324.227 856.615 322.663 853.184 318.43L851.775 316.69C848.618 312.794 847.504 307.628 848.774 302.774L849.035 301.777C850.233 297.201 849.563 292.341 847.171 288.264L837.706 272.132L830.555 259.943C826.774 253.498 821.463 248.084 815.091 244.176C812.811 242.778 810.411 241.583 807.921 240.605L793.685 235.018C788.5 232.983 783.659 230.163 779.332 226.658C776.002 223.96 773.026 220.865 770.261 217.591C765.891 212.417 758.992 204.906 754.707 203.521C737.001 197.799 750.821 236.026 767.672 243.912C774.027 246.886 779.922 249.755 783.626 251.81C795.081 258.164 785.867 265.291 780.842 266.907C777.558 267.973 769.927 269.259 765.078 270.016C762.249 270.458 759.547 271.515 757.197 273.151C752.645 276.32 749.777 281.382 749.401 286.911L749.248 289.167C749.063 291.888 748.395 294.556 747.274 297.044L745.773 300.376C743.378 305.693 739.819 310.406 735.358 314.166C732.542 316.54 729.401 318.493 726.08 320.086C718.314 323.812 703.957 331.182 700.679 336.218C696.185 343.122 695.537 350.974 694.895 358.76C694.2 367.172 693.512 375.506 687.988 382.485C686.049 384.935 684.531 386.916 683.883 387.903C682.777 389.587 682.564 389.911 682.319 390.207C681.957 390.644 681.524 391.022 678.044 395.625C674.071 400.881 665.617 407.847 660.621 411.762C658.032 413.791 655.617 416.031 653.487 418.537L653.206 418.867C645.414 428.035 636.563 433.498 624.538 433.131C615.475 432.855 604.837 428.153 598.827 421.374L595.434 417.545C588.117 406.796 587.841 392.737 594.73 381.694L595.024 381.222C597.236 377.676 598.77 373.749 599.547 369.644L602.697 352.996C604.04 337.805 597.727 323.024 586.329 312.9C578.807 306.219 571.439 299.257 569.57 296.072C566.1 290.158 569.732 283.634 573.448 276.959C575.587 273.118 577.753 269.228 578.61 265.374L579.214 262.66C582.642 247.246 579.087 231.113 569.499 218.578L557.194 202.491L541.182 183.355C536.471 177.724 535.349 169.914 538.284 163.179C541.155 156.588 547.437 152.12 554.606 151.568L566.397 150.661C567.274 150.594 568.15 150.555 569.03 150.576C574.856 150.712 598.568 151.99 610.579 163.666C618.969 171.823 631.658 171.101 644.447 170.373C651.881 169.95 659.349 169.525 666.026 170.84L671.289 171.877L680.712 174.331C685.407 175.553 689.95 171.883 689.74 167.038C689.676 165.547 689.149 164.113 688.233 162.934L684.782 158.493L679.208 152.951C675.242 149.008 669.78 146.945 664.193 147.279L658.025 147.648ZM661.26 145.035C658.154 145.13 655.237 143.556 653.613 140.91C653.06 140.007 652.676 139.01 652.482 137.969L650.221 125.824C648.195 118.191 645.222 118.308 640.073 118.509C637.26 118.62 633.797 118.755 629.483 117.667L620.285 114.812C616.656 113.686 613.309 111.801 610.466 109.281C602.165 101.923 590.177 100.449 580.325 105.576L569.605 111.155C565.069 113.515 559.757 113.883 554.943 112.17L553.435 111.633C553.095 111.512 552.77 111.352 552.467 111.156C549.368 109.151 549.724 104.511 553.093 102.995L561.617 99.158C563.428 98.3431 564.947 96.9957 565.972 95.2959L569.25 89.8608C570.326 88.0757 571.161 86.1559 571.732 84.1517C573.061 79.4859 572.915 74.5253 571.315 69.9487L569.158 63.7836C568.698 62.4683 568.54 61.0662 568.696 59.681L568.784 58.9002C569.39 53.511 574.754 49.9987 579.937 51.5971C581.183 51.9814 582.325 52.6424 583.279 53.5306L592.779 62.3798C598.979 68.1551 607.289 71.1191 615.752 70.5738L622.313 70.1511C626.595 69.8752 630.575 67.847 633.315 64.5447C638.242 58.6085 638.085 49.9684 632.946 44.2258L621.197 31.0951C619.93 29.6793 619.188 27.8718 619.093 25.9739C618.917 22.4521 620.983 19.2 624.248 17.8601L636.019 13.0303C637.218 12.5383 638.452 12.1356 639.71 11.8254L649.805 9.33628C667.775 4.90554 686.357 3.45183 704.764 5.32523C719.578 6.83293 735.72 8.6308 740.531 9.74642C742.472 10.1964 745.858 10.9402 750.136 11.8801C766.88 15.5587 797.302 22.2423 808.343 26.083C813.714 27.9512 820.57 30.8671 826.954 33.7385C839.716 39.4779 852.687 44.7738 866.064 48.8857L884.716 53.1119C909.385 58.7013 932.898 68.5072 954.218 82.0973L1010.96 118.809L1044.21 140.63L1066.14 153.69L1071.3 156.169C1085.52 163.004 1098.41 172.312 1109.37 183.659L1112.36 186.757C1113.65 188.093 1115.01 189.356 1116.44 190.542C1116.99 191.003 1117.64 191.534 1118.33 192.109C1126.65 198.967 1134.9 207.202 1141.11 216.016C1142.44 217.903 1143.91 219.685 1145.51 221.349L1148.54 224.507C1153.29 229.448 1158.52 233.903 1164.15 237.808L1167.86 240.381C1173.12 244.026 1178 248.196 1182.41 252.826L1187.56 258.229C1188.42 259.135 1189.2 260.124 1189.87 261.182L1193.02 266.174C1194.16 267.97 1194.41 270.189 1193.69 272.19C1192.42 275.733 1188.55 277.615 1184.99 276.424L1174.4 272.893C1170.1 271.458 1165.41 271.671 1161.26 273.49L1159.41 274.298C1157.19 275.269 1155.28 276.824 1153.87 278.796L1153.75 278.965C1150.88 282.984 1145.99 285.046 1141.12 284.295C1137.4 283.722 1134.11 281.573 1132.09 278.399L1130.44 275.796C1129.68 274.602 1129.05 273.33 1128.56 272.002L1122.94 256.685C1120.63 250.402 1117.07 244.652 1112.48 239.78C1110.15 237.31 1107.58 235.085 1104.8 233.141L1087.92 221.348C1086.06 220.048 1083.97 219.113 1081.76 218.595L1080.26 218.243C1074.5 216.892 1068.48 218.945 1064.74 223.53C1060.89 228.377 1061.41 235.364 1065.93 239.579L1077.92 250.747C1078.36 251.155 1078.75 251.612 1079.08 252.11L1084.28 259.913C1086.09 262.628 1083.76 266.189 1080.54 265.618C1080.35 265.583 1080.15 265.564 1079.96 265.561L1071.22 265.415C1064.96 265.31 1058.7 265.891 1052.57 267.146L1046.27 269.098C1044.03 269.791 1041.97 270.98 1040.26 272.577L1039.74 273.059C1036.74 275.847 1032.68 277.191 1028.61 276.737L1028.25 276.696C1026.99 276.555 1025.72 276.618 1024.48 276.883L1023.93 277.001C1022 277.414 1020.23 278.394 1018.86 279.815C1018.23 280.468 1017.7 281.203 1017.27 282.001L1016.81 282.846C1015.59 285.124 1014.9 287.671 1014.81 290.254C1014.73 292.628 1015.15 295.008 1016.03 297.211C1017.58 301.057 1020.05 307.178 1021.09 309.775C1021.47 310.702 1021.98 312.225 1022.58 314.041C1024.54 319.921 1027.53 328.879 1030.45 330.679C1032.79 332.122 1035.71 334.374 1037.61 335.902C1038.96 336.976 1040.45 337.843 1042.07 338.424C1047.72 340.449 1049.94 347.45 1044.17 345.801C1043.93 345.73 1043.67 345.65 1043.41 345.561C1039.91 344.386 1035.83 341.744 1031.51 338.943C1025.7 335.178 1019.45 331.126 1013.56 329.96C1008.03 328.854 1002.61 332.288 997.651 335.421C993.37 338.128 989.443 340.611 986.118 339.746C983.564 339.08 982.033 336.722 980.45 334.283C977.589 329.874 974.556 325.202 964.996 329.793C961.818 331.618 967.188 340.248 973.169 349.859C978.962 359.169 985.328 369.399 985.052 375.257C984.876 378.981 982.942 380.681 980.368 381.259C979.096 381.544 977.795 381.803 976.488 382.063C969.297 383.495 961.923 384.964 958.165 391.072L952.422 400.41C950.805 403.038 947.368 403.866 944.736 402.261C942.674 401.005 941.651 398.579 942.212 396.23C944.065 388.467 948.155 371.667 949.473 368.946C951.216 365.416 948.46 348.945 944.241 337.404C941.115 328.882 936.342 328.26 932.316 327.735C930.901 327.551 929.578 327.378 928.451 326.879C925.983 325.782 926.265 322.662 926.679 318.086C926.988 314.674 927.37 310.453 926.74 305.66C925.71 297.831 916.125 297.535 910.423 298.072C910.015 298.11 909.607 298.15 909.199 298.19C906.784 298.425 904.368 298.66 901.944 298.617C892.69 298.451 883.73 301.883 876.953 308.191L875.751 309.31L867.967 317.867C867.373 318.52 866.67 319.066 865.891 319.48C861.738 321.688 856.596 319.677 855.052 315.24L853.917 311.98C853.395 310.481 853.217 308.883 853.394 307.305L853.75 304.141C854.274 299.485 853.464 294.784 851.39 290.585C847.614 282.942 841.551 270.779 839.505 267.294C837.676 264.177 832.917 257.356 829.372 252.355C826.578 248.413 823.062 245.043 819.037 242.37C816.058 240.392 812.829 238.819 809.435 237.692L804.167 235.943C793.646 232.451 784.402 225.917 777.603 217.169C772.682 210.837 766.511 205.509 759.169 202.275C756.93 201.289 754.7 200.383 752.865 199.789C729.439 192.22 749.46 243.227 772.81 251.026C776.21 252.162 779.037 253.279 780.923 254.325C791.785 260.348 784.39 264.331 779.626 265.862C776.485 266.88 771.275 267.135 768.116 267.191C766.33 267.223 764.548 267.395 762.804 267.787C754.817 269.584 748.479 275.656 746.345 283.556L744.349 290.946C743.707 293.324 742.813 295.627 741.683 297.817L740.415 300.273C738.413 304.151 735.863 307.722 732.844 310.875C728.842 315.054 724.066 318.395 718.926 321.055C711.994 324.642 702.596 330.026 699.967 334.065C696.229 339.806 693.704 345.566 693.269 352.399C692.736 360.746 691.767 371.515 690.224 373.864C689.314 375.248 688.853 376.101 688.399 376.94C687.557 378.495 686.742 380.001 683.146 384.755C677.785 391.844 668.993 400.644 668.446 401.191L668.392 401.244L653.835 415.744C646.169 423.379 636.342 428.857 625.531 429.208C624.621 429.238 623.72 429.251 622.84 429.245C618.783 429.216 614.958 427.695 611.458 425.649L608.366 423.843C601.137 419.617 596.123 412.44 594.644 404.2C593.585 398.303 594.404 392.22 596.986 386.809L601.685 376.959C605.56 368.836 607.637 359.975 607.775 350.98L607.843 346.554C607.153 335.978 602.391 326.107 594.791 318.722C587.605 311.741 579.466 303.476 577.383 299.928C572.44 291.509 576.251 281.852 580.161 271.945C583.172 264.312 586.243 256.531 585.414 249.054C584.289 238.907 580.666 229.057 574.893 220.639L561.562 201.2L545.606 182.552C540.766 176.895 540.671 168.584 545.38 162.808C547.996 159.6 551.79 157.577 555.911 157.193L574.835 155.428C578.813 155.057 582.834 155.034 586.696 156.054C592.794 157.665 602.57 161.322 610.799 169.317C615.709 174.088 621.936 175.662 627.793 175.77C632.22 175.852 636.686 175.566 641.152 175.281C649.073 174.774 656.994 174.268 664.693 175.811L681.414 179.163C684.173 179.716 687.04 179.289 689.52 177.956L689.898 177.753C692.391 176.414 694.273 174.167 695.156 171.48C696.383 167.744 695.525 163.641 692.905 160.712L692.577 160.345L682.998 150.768C679.039 146.808 673.617 144.66 668.015 144.83L661.26 145.035Z" fill="#1E1F21"/>
<path fill-rule="evenodd" clip-rule="evenodd" d="M1077.93 329.791C1079.16 330.256 1080.36 330.81 1081.51 331.448C1087.34 334.671 1091.79 339.915 1094.02 346.19L1096.17 352.212C1098.6 359.039 1102.67 365.165 1108.02 370.049L1114.22 375.71C1117.18 378.406 1119.77 381.477 1121.93 384.846C1126.73 392.341 1133.61 398.276 1141.72 401.923L1146.09 403.887C1151.94 406.52 1157.35 410.05 1162.13 414.35L1171.72 422.993C1174.47 425.469 1177.88 427.092 1181.53 427.664L1184.57 428.141C1187.67 428.627 1190.84 427.844 1193.35 425.966C1199.86 421.099 1199.56 410.806 1195.06 404.008C1194.66 403.412 1194.28 402.797 1193.91 402.162C1190.8 396.816 1187.54 390.281 1185.49 386.049C1184.11 383.196 1181.97 380.774 1179.28 379.107C1173.86 375.753 1166.93 376.174 1160.67 377.284C1155.99 378.115 1150.06 377.889 1143.92 374.366C1137.48 370.678 1134.77 362.896 1133.7 355.648C1132.27 345.962 1128.44 336.257 1120.47 330.566C1119.16 329.629 1117.76 328.812 1116.3 328.126L1104.35 322.509C1101.18 321.022 1098.44 318.773 1096.35 315.963L1091.8 309.831C1089.77 307.097 1086.36 305.756 1083.02 306.376L1065 307.745L1062.35 307.95C1058.97 308.211 1056.15 310.618 1055.35 313.916C1054.42 317.771 1056.52 321.721 1060.23 323.12L1077.93 329.791ZM1076.96 326.622C1078.86 327.264 1080.66 328.146 1082.34 329.247L1086.15 331.76C1092.37 335.854 1096.65 342.327 1097.97 349.658C1099 355.354 1101.82 360.576 1106.01 364.562L1113.72 371.875C1115.91 373.957 1117.94 376.203 1119.79 378.593L1122.7 382.343C1125.18 385.548 1127.97 388.506 1131.02 391.177L1131.31 391.434C1136.2 395.713 1141.74 399.179 1147.72 401.699L1151.95 403.48C1155.74 405.076 1159.22 407.331 1162.22 410.14L1175.47 422.51C1179.63 426.395 1185.91 426.884 1190.6 423.689C1194.87 420.777 1196.86 415.447 1194.93 410.631C1193.85 407.933 1192.47 404.903 1190.82 402.089C1187.77 396.882 1184.03 390.571 1181.99 387.124C1180.99 385.438 1179.68 383.957 1178.13 382.756L1177.9 382.575C1173.4 379.081 1166.7 379.468 1159.98 379.856C1153.86 380.21 1147.72 380.565 1143.22 377.991C1136.86 374.36 1133.02 364.086 1130.79 355.15C1128.46 345.755 1123.42 336.99 1115.36 331.642L1099.93 323.843C1097.35 322.538 1095.17 320.549 1093.64 318.091L1090.54 313.116C1088.99 310.616 1086.06 309.32 1083.18 309.849L1067.36 311.019L1064.62 311.225C1061.98 311.424 1059.85 313.481 1059.56 316.123C1059.27 318.71 1060.83 321.152 1063.29 321.987L1076.96 326.622Z" fill="#1E1F21"/>
<path fill-rule="evenodd" clip-rule="evenodd" d="M843.932 468.762C847.388 466.922 850.893 465.055 854.689 464.346L873.995 460.739C888.916 456.055 905.003 456.726 919.477 462.636L919.833 462.781C926.095 465.338 931.941 468.812 937.179 473.09L947.067 481.166C947.477 481.501 947.881 481.834 948.269 482.194C950.117 483.908 955.907 489.758 959.621 498.908C960.128 500.157 960.566 501.267 960.955 502.255C963.999 509.974 964.114 510.264 971.483 511.426C979.796 512.737 984.028 516.412 979.396 520.89C974.763 525.369 974.532 536.188 977.926 543.071C979.362 545.983 982.947 547.183 986.437 548.352C990.358 549.664 994.158 550.936 994.653 554.551L994.698 554.874C994.805 555.657 994.78 556.449 994.726 557.238C994.414 561.78 996.152 567.492 997.655 572.431C999.02 576.915 1000.19 580.763 999.457 582.52C997.844 586.383 983.984 596.063 973.947 596.432C967.841 596.656 957.355 590.358 947.753 584.59C946.193 583.653 944.656 582.729 943.165 581.851C936.066 577.666 929.622 571.832 926.631 564.154C925.662 561.665 924.724 559.067 923.997 556.667C922.911 553.087 920.915 549.724 917.838 547.596C913.64 544.694 912.078 539.365 910.581 534.255C910.207 532.982 909.838 531.723 909.433 530.518C909.305 530.138 909.157 529.757 908.985 529.378C907.072 525.197 897.299 530.486 890.002 534.436C887.111 536.001 884.608 537.355 883.138 537.826C881.533 538.341 878.109 538.072 873.955 537.406C858.206 534.881 848.129 519.873 846.26 504.037C845.196 495.015 840.905 493.328 835.117 492.328C829.539 491.365 826.301 486.074 827.732 480.598C828.732 476.772 831.807 473.865 835.541 472.563C837.311 471.946 839.26 471.171 841.102 470.243C842.045 469.767 842.987 469.266 843.932 468.762ZM849.85 471.778C853.123 470.047 856.411 468.308 859.938 467.395L876.469 463.116L877.347 462.916C891.219 459.757 905.733 461.08 918.799 466.696C925.034 469.375 930.826 472.983 935.979 477.398L943.147 483.54C943.454 483.803 943.761 484.063 944.069 484.323C945.247 485.32 946.424 486.316 947.506 487.414C949.901 489.845 953.8 494.491 956.536 501.199C960.594 511.148 960.852 511.188 967.872 512.286C968.132 512.327 968.402 512.369 968.682 512.413C976.497 513.648 980.48 517.095 976.128 521.289C971.777 525.483 972.987 539.286 976.183 545.74C976.735 546.856 977.441 547.573 978.231 547.996C979.477 548.664 980.932 549.18 982.389 549.696C985.834 550.917 989.292 552.143 990.045 555.401C990.231 556.207 990.242 557.039 990.194 557.865C989.945 562.098 991.551 567.392 992.943 571.978C994.221 576.19 995.317 579.805 994.629 581.452C993.116 585.072 980.501 591.748 971.066 592.085C965.458 592.286 956.447 586.368 948.022 580.834C946.267 579.682 944.537 578.545 942.869 577.485C936.81 573.633 931.454 568.145 929.497 561.238C929.069 559.727 928.648 558.171 928.267 556.653C927.139 552.155 924.361 548.105 920.26 545.938C914.178 542.723 912.184 535.32 910.626 528.62C910.464 527.926 910.245 527.253 909.955 526.618C908.04 522.451 896.457 527.688 888.889 531.11C886.517 532.183 884.539 533.077 883.377 533.448C865.265 539.222 850.883 518.359 848.655 499.488C848.627 499.248 848.599 499.009 848.571 498.773C847.544 490.162 843.297 489.495 837.649 489.098C833.035 488.773 831.006 483.932 833.485 480.025C834.484 478.451 836.069 477.348 837.861 476.83C839.773 476.278 842.409 475.415 844.954 474.25C846.601 473.496 848.224 472.638 849.85 471.778Z" fill="#1E1F21"/>
<path fill-rule="evenodd" clip-rule="evenodd" d="M736.244 369.661C737.555 361.895 743.339 355.122 750.978 353.273C751.895 353.051 752.829 352.81 753.768 352.568C758.134 351.443 762.606 350.292 765.93 350.862C771.421 351.768 767.797 356.967 763.522 363.1C760.22 367.837 756.529 373.132 756.355 377.433C756.217 380.831 756.16 384.085 756.288 386.338C756.362 387.646 756.062 388.848 755.521 389.939C751.918 397.207 744.784 404.52 736.735 405.488C730.216 406.272 732.08 394.749 733.503 388.33C734.624 383.275 735.735 377.554 735.764 374.621C735.78 372.953 735.967 371.302 736.244 369.661ZM738.005 369.929C738.589 363.463 743.111 357.817 749.406 356.287C750.161 356.103 750.931 355.904 751.704 355.704C755.301 354.775 758.984 353.822 761.722 354.291C766.253 355.038 763.262 359.33 759.736 364.391C757.013 368.3 753.97 372.666 753.825 376.213C753.71 379.019 753.661 381.706 753.766 383.567C753.827 384.646 753.579 385.637 753.133 386.537C750.166 392.532 744.291 398.572 737.653 399.376C733.045 399.933 734.629 392.452 735.748 387.172C735.889 386.506 736.022 385.876 736.135 385.3C736.948 381.155 737.766 376.402 737.792 373.948C737.805 372.6 737.884 371.26 738.005 369.929Z" fill="#1E1F21"/>
<path fill-rule="evenodd" clip-rule="evenodd" d="M979.449 436.593C979.486 437.348 979.599 438.21 979.806 438.94C984.478 455.344 1018.34 483.323 1035.09 483.652C1036.49 483.679 1037.48 483.565 1037.88 483.409C1040.2 482.496 1043.43 467.947 1041.2 462.248C1039.28 457.35 1034.8 454.378 1030.48 451.509C1025.31 448.076 1020.36 444.793 1020.3 438.538C1020.26 434.573 1020.68 430.379 1021.06 426.632C1021.65 420.812 1022.13 416.068 1020.6 414.929C1018.05 413.048 1014.91 416.992 1011.76 420.937C1009.69 423.518 1007.63 426.1 1005.74 427.05C1002.68 428.589 998.193 426.604 993.428 424.494C990.758 423.312 988 422.091 985.353 421.428C979.101 419.886 979.256 432.661 979.449 436.593ZM985.002 438.759C985.031 439.385 985.124 440.105 985.293 440.712C989.128 454.399 1017.15 477.792 1031.11 478.038C1032.27 478.058 1033.1 477.96 1033.43 477.828C1035.36 477.059 1038.07 464.87 1036.23 460.103C1034.64 455.987 1030.87 453.52 1027.22 451.128C1022.93 448.317 1018.8 445.611 1018.55 440.458C1018.39 437.074 1018.63 433.479 1018.84 430.277C1019.16 425.428 1019.42 421.48 1018.15 420.533C1016.09 419 1013.91 422.114 1011.66 425.339C1010.09 427.581 1008.48 429.876 1006.85 430.704C1004.3 431.999 1000.58 430.346 996.631 428.59C994.416 427.605 992.129 426.589 989.932 426.039C984.739 424.76 984.849 435.478 985.002 438.759Z" fill="#1E1F21"/>
<path fill-rule="evenodd" clip-rule="evenodd" d="M1039.34 378.772C1038.39 377.87 1037.12 377.391 1035.81 377.444C1032.18 377.59 1029.96 381.518 1031.75 384.656L1035.64 391.511C1036.42 392.895 1036.85 394.456 1036.88 396.052L1036.93 399.415C1037.09 408.715 1043.97 416.488 1053.21 417.805L1069.51 420.144C1075.04 420.938 1079.94 416.44 1079.59 410.882C1079.5 409.433 1079.78 407.982 1080.39 406.659L1081.22 404.858C1083.82 399.254 1083.1 392.702 1079.34 387.848L1073.27 380.02C1069.17 374.726 1061.16 374.648 1056.87 379.861C1052.98 384.592 1045.89 385.043 1041.5 380.839L1039.34 378.772ZM1039.33 382.151C1038.77 381.73 1038.1 381.496 1037.4 381.483C1034.82 381.437 1033.17 384.223 1034.47 386.431L1038.49 393.277C1039.14 394.395 1039.51 395.661 1039.54 396.959L1039.6 399.563C1039.8 407.746 1045.87 414.562 1053.99 415.746L1068.56 417.882C1073.25 418.571 1077.41 414.731 1077.07 410.015C1076.98 408.76 1077.22 407.501 1077.76 406.357L1078.47 404.834C1080.7 400.086 1080.06 394.513 1076.81 390.436L1071.56 383.855C1067.79 379.119 1060.57 379.06 1056.64 383.731C1053.31 387.685 1047.47 388.351 1043.39 385.242L1039.33 382.151Z" fill="#1E1F21"/>
<path fill-rule="evenodd" clip-rule="evenodd" d="M119.5 247C119.5 247 157 222.182 157 193.227C157 183.354 153.049 173.885 146.017 166.904C138.984 159.922 129.446 156 119.5 156C109.554 156 100.016 159.922 92.9835 166.904C85.9509 173.885 82 183.354 82 193.227C82 222.182 119.5 247 119.5 247ZM131.219 193.229C131.219 200.083 125.71 205.638 118.914 205.638C112.118 205.638 106.609 200.083 106.609 193.229C106.609 186.376 112.118 180.82 118.914 180.82C125.71 180.82 131.219 186.376 131.219 193.229Z" fill="#12E2B0"/>
<path fill-rule="evenodd" clip-rule="evenodd" d="M391.5 414C391.5 414 429 389.182 429 360.227C429 350.354 425.049 340.885 418.017 333.904C410.984 326.922 401.446 323 391.5 323C381.554 323 372.016 326.922 364.983 333.904C357.951 340.885 354 350.354 354 360.227C354 389.182 391.5 414 391.5 414ZM403.219 360.229C403.219 367.083 397.71 372.638 390.914 372.638C384.118 372.638 378.609 367.083 378.609 360.229C378.609 353.376 384.118 347.82 390.914 347.82C397.71 347.82 403.219 353.376 403.219 360.229Z" fill="#12E2B0"/>
<path fill-rule="evenodd" clip-rule="evenodd" d="M657.5 299C657.5 299 695 274.182 695 245.227C695 235.354 691.049 225.885 684.017 218.904C676.984 211.922 667.446 208 657.5 208C647.554 208 638.016 211.922 630.983 218.904C623.951 225.885 620 235.354 620 245.227C620 274.182 657.5 299 657.5 299ZM669.219 245.229C669.219 252.083 663.71 257.638 656.914 257.638C650.118 257.638 644.609 252.083 644.609 245.229C644.609 238.376 650.118 232.82 656.914 232.82C663.71 232.82 669.219 238.376 669.219 245.229Z" fill="#12E2B0"/>
<path fill-rule="evenodd" clip-rule="evenodd" d="M876.5 292C876.5 292 914 267.182 914 238.227C914 228.354 910.049 218.885 903.017 211.904C895.984 204.922 886.446 201 876.5 201C866.554 201 857.016 204.922 849.983 211.904C842.951 218.885 839 228.354 839 238.227C839 267.182 876.5 292 876.5 292ZM888.219 238.229C888.219 245.083 882.71 250.638 875.914 250.638C869.118 250.638 863.609 245.083 863.609 238.229C863.609 231.376 869.118 225.82 875.914 225.82C882.71 225.82 888.219 231.376 888.219 238.229Z" fill="#12E2B0"/>
<path fill-rule="evenodd" clip-rule="evenodd" d="M876.5 497C876.5 497 914 472.182 914 443.227C914 433.354 910.049 423.885 903.017 416.904C895.984 409.922 886.446 406 876.5 406C866.554 406 857.016 409.922 849.983 416.904C842.951 423.885 839 433.354 839 443.227C839 472.182 876.5 497 876.5 497ZM888.219 443.229C888.219 450.083 882.71 455.638 875.914 455.638C869.118 455.638 863.609 450.083 863.609 443.229C863.609 436.376 869.118 430.82 875.914 430.82C882.71 430.82 888.219 436.376 888.219 443.229Z" fill="#12E2B0"/>
</g>
<defs>
<clipPath id="clip0_4804_13043">
<rect width="1200" height="598" fill="white"/>
</clipPath>
</defs>
</svg>
