<svg width="322" height="1044" viewBox="0 0 322 1044" fill="none" xmlns="http://www.w3.org/2000/svg">
<rect y="4" width="214" height="24" fill="#12E2B0"/>
<rect x="83" y="38" width="234" height="24" fill="#12E2B0"/>
<path d="M9.576 24V12.216H13.848V7.992H0.432V12.216H4.728V24H9.576ZM31.2414 24V7.992H26.3934V13.656H20.6574V7.992H15.8094V24H20.6574V17.88H26.3934V24H31.2414ZM46.2169 24V19.968H38.9209V17.928H46.0489V13.896H38.9209V12.024H46.2169V7.992H34.0729V24H46.2169ZM65.0229 24C68.2389 24 69.7509 21.888 69.7509 19.656C69.7509 17.592 68.4309 16.008 66.7029 15.744C68.2629 15.408 69.4389 14.064 69.4389 12.072C69.4389 10.2 67.9989 7.992 64.6869 7.992H54.9669V24H65.0229ZM59.8149 11.928H63.5589C64.0629 11.928 64.5189 12.36 64.5189 12.912C64.5189 13.488 64.0629 13.944 63.5589 13.944H59.8149V11.928ZM59.8149 17.88H63.7029C64.3989 17.88 64.8309 18.408 64.8309 18.984C64.8309 19.584 64.3989 20.064 63.7029 20.064H59.8149V17.88ZM84.0853 24V19.968H76.7893V17.928H83.9173V13.896H76.7893V12.024H84.0853V7.992H71.9413V24H84.0853ZM85.2542 21.744C86.9582 23.28 89.2862 24.288 92.6942 24.288C96.9902 24.288 99.6062 22.248 99.6062 18.72C99.6062 15.024 95.6942 14.256 93.0542 13.8C91.3502 13.512 90.7022 13.296 90.7022 12.672C90.7022 12.264 90.9662 11.832 92.1662 11.832C93.4382 11.832 95.2382 12.36 96.6302 13.416L99.2222 9.984C97.3982 8.496 95.0462 7.752 92.4302 7.752C88.0382 7.752 85.7822 10.224 85.7822 12.936C85.7822 16.944 89.8142 17.568 92.4542 18.048C94.0382 18.336 94.7102 18.648 94.7102 19.272C94.7102 19.896 93.8462 20.208 92.9342 20.208C90.7742 20.208 88.9742 19.296 87.7742 18.144L85.2542 21.744ZM109.717 24V12.216H113.989V7.992H100.573V12.216H104.869V24H109.717ZM130.588 24V12.216H134.86V7.992H121.444V12.216H125.74V24H130.588ZM151.567 24L145.663 7.992H139.567L133.663 24H138.919L139.543 21.936H145.687L146.311 24H151.567ZM144.439 17.904H140.791L142.615 12.264L144.439 17.904ZM163.59 24V19.776H157.518V7.992H152.67V24H163.59ZM177.922 24V19.968H170.626V17.928H177.754V13.896H170.626V12.024H177.922V7.992H165.778V24H177.922ZM195.722 24V7.992H190.874V16.056L185.306 7.992H180.314V24H185.162V15.408L191.066 24H195.722ZM206.834 24V12.216H211.106V7.992H197.69V12.216H201.986V24H206.834ZM98.3644 58V53.968H91.0684V51.928H98.1964V47.896H91.0684V46.024H98.3644V41.992H86.2204V58H98.3644ZM116.309 58L110.957 49.768L115.949 41.992H110.213L107.669 46.552L105.077 41.992H99.3893L104.381 49.792L99.0293 58H104.741L107.669 53.104L110.597 58H116.309ZM122.251 58V52.864H125.947C129.691 52.864 131.707 50.464 131.707 47.488C131.707 44.488 129.691 41.992 125.947 41.992H117.403V58H122.251ZM126.787 47.44C126.787 48.28 126.139 48.832 125.323 48.832H122.251V46.024H125.323C126.139 46.024 126.787 46.576 126.787 47.44ZM145.678 58V53.968H138.382V51.928H145.51V47.896H138.382V46.024H145.678V41.992H133.534V58H145.678ZM162.399 58L159.495 52.336C160.767 51.712 162.375 50.248 162.375 47.488C162.375 44.488 160.359 41.992 156.615 41.992H148.071V58H152.919V52.864H154.671L156.879 58H162.399ZM157.455 47.416C157.455 48.304 156.687 48.832 155.871 48.832H152.919V46.024H155.871C156.687 46.024 157.455 46.552 157.455 47.416ZM169.425 58V41.992H164.577V58H169.425ZM184.39 58V53.968H177.094V51.928H184.222V47.896H177.094V46.024H184.39V41.992H172.246V58H184.39ZM202.191 58V41.992H197.343V50.056L191.775 41.992H186.783V58H191.631V49.408L197.535 58H202.191ZM212.847 58.288C217.167 58.288 219.303 55.744 220.239 53.608L216.063 51.688C215.655 52.936 214.407 54.016 212.847 54.016C210.639 54.016 209.079 52.24 209.079 50.008C209.079 47.776 210.639 46 212.847 46C214.407 46 215.655 47.08 216.063 48.328L220.239 46.384C219.279 44.176 217.167 41.728 212.847 41.728C207.951 41.728 204.159 45.064 204.159 50.008C204.159 54.928 207.951 58.288 212.847 58.288ZM234.142 58V53.968H226.846V51.928H233.974V47.896H226.846V46.024H234.142V41.992H221.998V58H234.142ZM253.812 58V53.776H247.74V41.992H242.892V58H253.812ZM268.143 58V53.968H260.847V51.928H267.975V47.896H260.847V46.024H268.143V41.992H255.999V58H268.143ZM280.808 58L286.712 41.992H281.216L277.76 52.768L274.304 41.992H268.808L274.712 58H280.808ZM299.959 58V53.968H292.663V51.928H299.791V47.896H292.663V46.024H299.959V41.992H287.815V58H299.959ZM313.272 58V53.776H307.2V41.992H302.352V58H313.272Z" fill="#1E1F21"/>
<path d="M235.601 24L229.697 7.992H223.601L217.697 24H222.953L223.577 21.936H229.721L230.345 24H235.601ZM228.473 17.904H224.825L226.649 12.264L228.473 17.904ZM243.554 24V12.216H247.826V7.992H234.41V12.216H238.706V24H243.554ZM13.44 58V53.968H6.144V51.928H13.272V47.896H6.144V46.024H13.44V41.992H1.296V58H13.44ZM26.1049 58L32.0089 41.992H26.5129L23.0569 52.768L19.6009 41.992H14.1049L20.0089 58H26.1049ZM45.2559 58V53.968H37.9599V51.928H45.0879V47.896H37.9599V46.024H45.2559V41.992H33.1119V58H45.2559ZM61.9768 58L59.0728 52.336C60.3448 51.712 61.9528 50.248 61.9528 47.488C61.9528 44.488 59.9368 41.992 56.1928 41.992H47.6488V58H52.4968V52.864H54.2488L56.4568 58H61.9768ZM57.0328 47.416C57.0328 48.304 56.2648 48.832 55.4488 48.832H52.4968V46.024H55.4488C56.2648 46.024 57.0328 46.552 57.0328 47.416ZM72.8057 58V51.64L78.7577 41.992H73.3097L70.3817 47.392L67.4057 41.992H61.9577L67.9577 51.64V58H72.8057Z" fill="white"/>
<path d="M165 296C152.656 296 140.432 293.569 129.028 288.845C117.623 284.121 107.261 277.197 98.5321 268.468C89.8034 259.739 82.8794 249.377 78.1554 237.972C73.4315 226.568 71.0001 214.344 71.0001 202C71.0001 189.656 73.4315 177.432 78.1554 166.028C82.8794 154.623 89.8034 144.261 98.5321 135.532C107.261 126.803 117.623 119.879 129.028 115.155C140.432 110.431 152.656 108 165 108L165 108.94C152.779 108.94 140.678 111.347 129.388 116.024C118.097 120.7 107.838 127.555 99.1968 136.197C90.5553 144.838 83.7006 155.097 79.0239 166.387C74.3472 177.678 71.9401 189.779 71.9401 202C71.9401 214.221 74.3472 226.322 79.0239 237.613C83.7006 248.903 90.5553 259.162 99.1968 267.803C107.838 276.445 118.097 283.3 129.388 287.976C140.678 292.653 152.779 295.06 165 295.06L165 296Z" fill="white"/>
<path opacity="0.2" d="M213.237 121.32C232.296 132.715 246.705 150.489 253.912 171.493C261.119 192.496 260.657 215.373 252.609 236.069C244.561 256.764 229.446 273.943 209.943 284.56C190.44 295.177 167.809 298.546 146.059 294.072C124.309 289.597 104.845 277.567 91.1167 260.114C77.3885 242.661 70.2823 220.911 71.0574 198.719C71.8325 176.527 80.4389 155.326 95.3514 138.873C110.264 122.42 130.519 111.777 152.529 108.831L152.653 109.763C130.864 112.679 110.811 123.216 96.0479 139.504C81.2845 155.793 72.7642 176.782 71.9968 198.752C71.2295 220.722 78.2646 242.254 91.8555 259.533C105.446 276.812 124.715 288.721 146.248 293.151C167.78 297.581 190.186 294.245 209.494 283.734C228.802 273.223 243.765 256.217 251.733 235.728C259.7 215.239 260.157 192.591 253.023 171.798C245.888 151.004 231.623 133.408 212.754 122.127L213.237 121.32Z" fill="white"/>
<path d="M213.237 121.32C227.109 129.614 238.609 141.345 246.625 155.38C254.641 169.416 258.903 185.28 258.998 201.443L258.058 201.449C257.964 185.448 253.745 169.741 245.809 155.847C237.873 141.952 226.488 130.338 212.754 122.127L213.237 121.32Z" fill="white"/>
<path d="M141.268 194.032C142.828 195.448 145.108 196.288 147.964 196.288C152.452 196.288 155.092 194.056 155.092 190.528C155.092 187.336 152.668 185.344 149.932 185.344C148.588 185.344 147.364 185.824 146.356 186.568V184.024H153.988V179.992H141.748V189.616L145.084 190.384C145.9 189.616 146.836 189.28 148.06 189.28C149.548 189.28 150.172 189.904 150.172 190.72C150.172 191.488 149.524 192.232 147.916 192.232C146.524 192.232 144.892 191.752 143.788 190.84L141.268 194.032ZM156.532 194.032C158.092 195.448 160.372 196.288 163.228 196.288C167.716 196.288 170.356 194.056 170.356 190.528C170.356 187.336 167.932 185.344 165.196 185.344C163.852 185.344 162.628 185.824 161.62 186.568V184.024H169.252V179.992H157.012V189.616L160.348 190.384C161.164 189.616 162.1 189.28 163.324 189.28C164.812 189.28 165.436 189.904 165.436 190.72C165.436 191.488 164.788 192.232 163.18 192.232C161.788 192.232 160.156 191.752 159.052 190.84L156.532 194.032ZM171.507 183.808C171.507 186.04 173.163 187.816 175.779 187.816C178.419 187.816 180.099 186.04 180.099 183.808C180.099 181.552 178.419 179.752 175.779 179.752C173.163 179.752 171.507 181.552 171.507 183.808ZM176.499 196L186.747 179.992H184.395L174.171 196H176.499ZM177.171 183.808C177.171 184.84 176.547 185.272 175.779 185.272C175.035 185.272 174.435 184.84 174.435 183.808C174.435 182.728 175.035 182.296 175.779 182.296C176.547 182.296 177.171 182.728 177.171 183.808ZM180.795 192.28C180.795 194.512 182.451 196.288 185.067 196.288C187.683 196.288 189.363 194.512 189.363 192.28C189.363 190.024 187.683 188.224 185.067 188.224C182.451 188.224 180.795 190.024 180.795 192.28ZM186.459 192.28C186.459 193.336 185.835 193.744 185.067 193.744C184.299 193.744 183.699 193.336 183.699 192.28C183.699 191.2 184.299 190.768 185.067 190.768C185.835 190.768 186.459 191.2 186.459 192.28Z" fill="white"/>
<path d="M126.693 225V215.662H125.027L122.115 222.774L119.217 215.662H117.551V225H118.713V217.23L121.877 225H122.353L125.531 217.23V225H126.693ZM134.107 225V220.352C134.107 218.714 132.917 218.07 131.489 218.07C130.383 218.07 129.515 218.434 128.787 219.19L129.277 219.918C129.879 219.274 130.537 218.98 131.349 218.98C132.329 218.98 133.057 219.498 133.057 220.408V221.626C132.511 220.996 131.741 220.702 130.817 220.702C129.669 220.702 128.451 221.416 128.451 222.928C128.451 224.398 129.669 225.168 130.817 225.168C131.727 225.168 132.497 224.846 133.057 224.23V225H134.107ZM133.057 223.572C132.651 224.132 131.937 224.412 131.195 224.412C130.215 224.412 129.529 223.796 129.529 222.942C129.529 222.074 130.215 221.458 131.195 221.458C131.937 221.458 132.651 221.738 133.057 222.298V223.572ZM135.624 224.104C136.31 224.832 137.248 225.168 138.354 225.168C140.104 225.168 141.014 224.258 141.014 223.124C141.014 221.626 139.656 221.29 138.48 221.024C137.598 220.814 136.828 220.604 136.828 219.946C136.828 219.344 137.402 218.924 138.326 218.924C139.194 218.924 139.936 219.288 140.342 219.778L140.832 219.05C140.286 218.504 139.474 218.07 138.326 218.07C136.716 218.07 135.806 218.966 135.806 220.016C135.806 221.416 137.108 221.724 138.256 221.99C139.166 222.214 139.992 222.452 139.992 223.194C139.992 223.852 139.432 224.314 138.396 224.314C137.472 224.314 136.618 223.866 136.17 223.348L135.624 224.104ZM144.428 225.168C145.044 225.168 145.422 224.986 145.688 224.734L145.38 223.95C145.24 224.104 144.96 224.23 144.666 224.23C144.204 224.23 143.98 223.866 143.98 223.362V219.162H145.352V218.238H143.98V216.39H142.93V218.238H141.81V219.162H142.93V223.586C142.93 224.594 143.434 225.168 144.428 225.168ZM146.443 221.612C146.443 223.726 147.885 225.168 149.887 225.168C150.993 225.168 151.903 224.804 152.575 224.132L152.071 223.446C151.539 223.992 150.755 224.3 149.985 224.3C148.529 224.3 147.633 223.236 147.549 221.962H153.023V221.696C153.023 219.666 151.819 218.07 149.775 218.07C147.843 218.07 146.443 219.652 146.443 221.612ZM149.761 218.938C151.301 218.938 151.973 220.184 151.987 221.192H147.549C147.605 220.156 148.319 218.938 149.761 218.938ZM155.774 225V220.212C156.082 219.666 156.964 219.134 157.608 219.134C157.776 219.134 157.902 219.148 158.028 219.176V218.098C157.104 218.098 156.32 218.616 155.774 219.33V218.238H154.724V225H155.774ZM158.757 224.104C159.443 224.832 160.381 225.168 161.487 225.168C163.237 225.168 164.147 224.258 164.147 223.124C164.147 221.626 162.789 221.29 161.613 221.024C160.731 220.814 159.961 220.604 159.961 219.946C159.961 219.344 160.535 218.924 161.459 218.924C162.327 218.924 163.069 219.288 163.475 219.778L163.965 219.05C163.419 218.504 162.607 218.07 161.459 218.07C159.849 218.07 158.939 218.966 158.939 220.016C158.939 221.416 160.241 221.724 161.389 221.99C162.299 222.214 163.125 222.452 163.125 223.194C163.125 223.852 162.565 224.314 161.529 224.314C160.605 224.314 159.751 223.866 159.303 223.348L158.757 224.104ZM172.696 225C175.594 225 177.484 222.998 177.484 220.338C177.484 217.692 175.594 215.662 172.696 215.662H169.504V225H172.696ZM170.666 216.698H172.696C175.006 216.698 176.28 218.322 176.28 220.338C176.28 222.34 174.964 223.964 172.696 223.964H170.666V216.698ZM178.873 221.612C178.873 223.726 180.315 225.168 182.317 225.168C183.423 225.168 184.333 224.804 185.005 224.132L184.501 223.446C183.969 223.992 183.185 224.3 182.415 224.3C180.959 224.3 180.063 223.236 179.979 221.962H185.453V221.696C185.453 219.666 184.249 218.07 182.205 218.07C180.273 218.07 178.873 219.652 178.873 221.612ZM182.191 218.938C183.731 218.938 184.403 220.184 184.417 221.192H179.979C180.035 220.156 180.749 218.938 182.191 218.938ZM187.14 226.736C187.938 227.52 188.722 227.744 189.87 227.744C191.522 227.744 193.09 227.044 193.09 224.804V218.238H192.04V219.26C191.494 218.518 190.682 218.07 189.772 218.07C187.994 218.07 186.762 219.414 186.762 221.584C186.762 223.768 188.008 225.084 189.772 225.084C190.724 225.084 191.55 224.566 192.04 223.88V224.846C192.04 226.33 190.99 226.876 189.87 226.876C188.904 226.876 188.232 226.624 187.672 225.952L187.14 226.736ZM192.04 223.054C191.676 223.642 190.864 224.16 190.024 224.16C188.666 224.16 187.854 223.068 187.854 221.584C187.854 220.086 188.666 219.008 190.024 219.008C190.864 219.008 191.676 219.512 192.04 220.1V223.054ZM196.243 225V220.212C196.551 219.666 197.433 219.134 198.077 219.134C198.245 219.134 198.371 219.148 198.497 219.176V218.098C197.573 218.098 196.789 218.616 196.243 219.33V218.238H195.193V225H196.243ZM199.422 221.612C199.422 223.726 200.864 225.168 202.866 225.168C203.972 225.168 204.882 224.804 205.554 224.132L205.05 223.446C204.518 223.992 203.734 224.3 202.964 224.3C201.508 224.3 200.612 223.236 200.528 221.962H206.002V221.696C206.002 219.666 204.798 218.07 202.754 218.07C200.822 218.07 199.422 219.652 199.422 221.612ZM202.74 218.938C204.28 218.938 204.952 220.184 204.966 221.192H200.528C200.584 220.156 201.298 218.938 202.74 218.938ZM207.31 221.612C207.31 223.726 208.752 225.168 210.754 225.168C211.86 225.168 212.77 224.804 213.442 224.132L212.938 223.446C212.406 223.992 211.622 224.3 210.852 224.3C209.396 224.3 208.5 223.236 208.416 221.962H213.89V221.696C213.89 219.666 212.686 218.07 210.642 218.07C208.71 218.07 207.31 219.652 207.31 221.612ZM210.628 218.938C212.168 218.938 212.84 220.184 212.854 221.192H208.416C208.472 220.156 209.186 218.938 210.628 218.938Z" fill="white"/>
<path opacity="0.2" d="M258.864 383.936C260.066 406.227 253.297 428.218 239.767 445.973C226.237 463.729 206.829 476.09 185.018 480.844C163.207 485.598 140.416 482.434 120.724 471.919C101.032 461.405 85.7253 444.225 77.5427 423.456C69.3601 402.686 68.8361 379.683 76.0645 358.562C83.2929 337.442 97.8018 319.583 116.994 308.183C136.187 296.782 158.81 292.584 180.815 296.34C202.82 300.096 222.77 311.56 237.095 328.681L236.374 329.285C222.193 312.335 202.442 300.985 180.657 297.267C158.872 293.548 136.475 297.704 117.474 308.991C98.4738 320.277 84.11 337.957 76.9539 358.867C69.7978 379.776 70.3165 402.549 78.4173 423.111C86.518 443.673 101.672 460.681 121.167 471.09C140.662 481.5 163.225 484.632 184.818 479.925C206.411 475.219 225.624 462.982 239.019 445.404C252.414 427.826 259.116 406.054 257.925 383.986L258.864 383.936Z" fill="white"/>
<path d="M165 295C179.321 295 193.453 298.272 206.317 304.567C219.18 310.862 230.436 320.012 239.223 331.32L238.481 331.897C229.781 320.702 218.638 311.643 205.904 305.411C193.169 299.18 179.178 295.94 165 295.94L165 295Z" fill="white"/>
<path d="M258.841 383.535C259.585 396.311 257.712 409.105 253.338 421.132C248.963 433.159 242.178 444.167 233.399 453.479C224.621 462.792 214.033 470.213 202.284 475.29C190.536 480.366 177.875 482.99 165.077 483L165.076 482.06C177.746 482.05 190.281 479.452 201.911 474.427C213.542 469.401 224.024 462.054 232.715 452.834C241.406 443.615 248.123 432.718 252.454 420.811C256.785 408.904 258.639 396.238 257.903 383.59L258.841 383.535Z" fill="white"/>
<path d="M144.796 383V366.992H140.62L134.5 372.992L137.236 375.848L139.948 373.16V383H144.796ZM146.774 375.008C146.774 379.352 149.102 383.288 153.878 383.288C158.654 383.288 160.982 379.352 160.982 375.008C160.982 370.664 158.654 366.752 153.878 366.752C149.102 366.752 146.774 370.664 146.774 375.008ZM156.11 375.008C156.11 377.72 155.414 379.016 153.878 379.016C152.342 379.016 151.646 377.72 151.646 375.008C151.646 372.296 152.342 371.024 153.878 371.024C155.414 371.024 156.11 372.296 156.11 375.008ZM162.084 375.008C162.084 379.352 164.412 383.288 169.188 383.288C173.964 383.288 176.292 379.352 176.292 375.008C176.292 370.664 173.964 366.752 169.188 366.752C164.412 366.752 162.084 370.664 162.084 375.008ZM171.42 375.008C171.42 377.72 170.724 379.016 169.188 379.016C167.652 379.016 166.956 377.72 166.956 375.008C166.956 372.296 167.652 371.024 169.188 371.024C170.724 371.024 171.42 372.296 171.42 375.008ZM177.442 370.808C177.442 373.04 179.098 374.816 181.714 374.816C184.354 374.816 186.034 373.04 186.034 370.808C186.034 368.552 184.354 366.752 181.714 366.752C179.098 366.752 177.442 368.552 177.442 370.808ZM182.434 383L192.682 366.992H190.33L180.106 383H182.434ZM183.106 370.808C183.106 371.84 182.482 372.272 181.714 372.272C180.97 372.272 180.37 371.84 180.37 370.808C180.37 369.728 180.97 369.296 181.714 369.296C182.482 369.296 183.106 369.728 183.106 370.808ZM186.73 379.28C186.73 381.512 188.386 383.288 191.002 383.288C193.618 383.288 195.298 381.512 195.298 379.28C195.298 377.024 193.618 375.224 191.002 375.224C188.386 375.224 186.73 377.024 186.73 379.28ZM192.394 379.28C192.394 380.336 191.77 380.744 191.002 380.744C190.234 380.744 189.634 380.336 189.634 379.28C189.634 378.2 190.234 377.768 191.002 377.768C191.77 377.768 192.394 378.2 192.394 379.28Z" fill="white"/>
<path d="M120.087 412V410.964H115.131V407.744H119.989V406.708H115.131V403.698H120.087V402.662H113.969V412H120.087ZM127.512 412V407.254C127.512 405.784 126.77 405.07 125.356 405.07C124.348 405.07 123.424 405.658 122.948 406.218V405.238H121.898V412H122.948V407.058C123.34 406.512 124.124 406.008 124.95 406.008C125.86 406.008 126.462 406.386 126.462 407.576V412H127.512ZM129.595 413.736C130.393 414.52 131.177 414.744 132.325 414.744C133.977 414.744 135.545 414.044 135.545 411.804V405.238H134.495V406.26C133.949 405.518 133.137 405.07 132.227 405.07C130.449 405.07 129.217 406.414 129.217 408.584C129.217 410.768 130.463 412.084 132.227 412.084C133.179 412.084 134.005 411.566 134.495 410.88V411.846C134.495 413.33 133.445 413.876 132.325 413.876C131.359 413.876 130.687 413.624 130.127 412.952L129.595 413.736ZM134.495 410.054C134.131 410.642 133.319 411.16 132.479 411.16C131.121 411.16 130.309 410.068 130.309 408.584C130.309 407.086 131.121 406.008 132.479 406.008C133.319 406.008 134.131 406.512 134.495 407.1V410.054ZM138.698 412V402.662H137.648V412H138.698ZM141.31 404.104C141.702 404.104 142.024 403.782 142.024 403.39C142.024 402.998 141.702 402.69 141.31 402.69C140.932 402.69 140.61 402.998 140.61 403.39C140.61 403.782 140.932 404.104 141.31 404.104ZM141.842 412V405.238H140.792V412H141.842ZM143.349 411.104C144.035 411.832 144.973 412.168 146.079 412.168C147.829 412.168 148.739 411.258 148.739 410.124C148.739 408.626 147.381 408.29 146.205 408.024C145.323 407.814 144.553 407.604 144.553 406.946C144.553 406.344 145.127 405.924 146.051 405.924C146.919 405.924 147.661 406.288 148.067 406.778L148.557 406.05C148.011 405.504 147.199 405.07 146.051 405.07C144.441 405.07 143.531 405.966 143.531 407.016C143.531 408.416 144.833 408.724 145.981 408.99C146.891 409.214 147.717 409.452 147.717 410.194C147.717 410.852 147.157 411.314 146.121 411.314C145.197 411.314 144.343 410.866 143.895 410.348L143.349 411.104ZM156.073 412V407.226C156.073 405.756 155.331 405.07 153.917 405.07C152.895 405.07 151.971 405.658 151.495 406.218V402.662H150.445V412H151.495V407.058C151.901 406.512 152.685 406.008 153.497 406.008C154.407 406.008 155.023 406.358 155.023 407.548V412H156.073ZM161.261 410.684C162.031 411.552 163.221 412.168 164.845 412.168C167.365 412.168 168.289 410.782 168.289 409.424C168.289 407.464 166.553 406.988 165.027 406.582C163.837 406.26 162.759 405.98 162.759 405.042C162.759 404.16 163.557 403.558 164.677 403.558C165.699 403.558 166.679 403.908 167.379 404.678L168.079 403.824C167.295 402.998 166.189 402.522 164.761 402.522C162.927 402.522 161.555 403.572 161.555 405.112C161.555 406.946 163.221 407.366 164.719 407.758C165.951 408.094 167.085 408.402 167.085 409.522C167.085 410.236 166.553 411.132 164.887 411.132C163.571 411.132 162.563 410.488 161.947 409.802L161.261 410.684ZM171.032 410.978C171.578 411.734 172.39 412.168 173.314 412.168C175.092 412.168 176.324 410.796 176.324 408.612C176.324 406.414 175.092 405.07 173.314 405.07C172.362 405.07 171.522 405.56 171.032 406.246V405.238H169.982V414.576H171.032V410.978ZM175.218 408.612C175.218 410.11 174.406 411.23 173.048 411.23C172.222 411.23 171.396 410.726 171.032 410.138V407.086C171.396 406.498 172.222 406.008 173.048 406.008C174.406 406.008 175.218 407.114 175.218 408.612ZM177.629 408.612C177.629 410.726 179.071 412.168 181.073 412.168C182.179 412.168 183.089 411.804 183.761 411.132L183.257 410.446C182.725 410.992 181.941 411.3 181.171 411.3C179.715 411.3 178.819 410.236 178.735 408.962H184.209V408.696C184.209 406.666 183.005 405.07 180.961 405.07C179.029 405.07 177.629 406.652 177.629 408.612ZM180.947 405.938C182.487 405.938 183.159 407.184 183.173 408.192H178.735C178.791 407.156 179.505 405.938 180.947 405.938ZM191.187 412V407.352C191.187 405.714 189.997 405.07 188.569 405.07C187.463 405.07 186.595 405.434 185.867 406.19L186.357 406.918C186.959 406.274 187.617 405.98 188.429 405.98C189.409 405.98 190.137 406.498 190.137 407.408V408.626C189.591 407.996 188.821 407.702 187.897 407.702C186.749 407.702 185.531 408.416 185.531 409.928C185.531 411.398 186.749 412.168 187.897 412.168C188.807 412.168 189.577 411.846 190.137 411.23V412H191.187ZM190.137 410.572C189.731 411.132 189.017 411.412 188.275 411.412C187.295 411.412 186.609 410.796 186.609 409.942C186.609 409.074 187.295 408.458 188.275 408.458C189.017 408.458 189.731 408.738 190.137 409.298V410.572ZM199.242 412L196.232 408.304L199.228 405.238H197.898L194.342 408.836V402.662H193.292V412H194.342V410.068L195.462 408.962L197.898 412H199.242ZM199.764 408.612C199.764 410.726 201.206 412.168 203.208 412.168C204.314 412.168 205.224 411.804 205.896 411.132L205.392 410.446C204.86 410.992 204.076 411.3 203.306 411.3C201.85 411.3 200.954 410.236 200.87 408.962H206.344V408.696C206.344 406.666 205.14 405.07 203.096 405.07C201.164 405.07 199.764 406.652 199.764 408.612ZM203.082 405.938C204.622 405.938 205.294 407.184 205.308 408.192H200.87C200.926 407.156 201.64 405.938 203.082 405.938ZM209.094 412V407.212C209.402 406.666 210.284 406.134 210.928 406.134C211.096 406.134 211.222 406.148 211.348 406.176V405.098C210.424 405.098 209.64 405.616 209.094 406.33V405.238H208.044V412H209.094ZM212.077 411.104C212.763 411.832 213.701 412.168 214.807 412.168C216.557 412.168 217.467 411.258 217.467 410.124C217.467 408.626 216.109 408.29 214.933 408.024C214.051 407.814 213.281 407.604 213.281 406.946C213.281 406.344 213.855 405.924 214.779 405.924C215.647 405.924 216.389 406.288 216.795 406.778L217.285 406.05C216.739 405.504 215.927 405.07 214.779 405.07C213.169 405.07 212.259 405.966 212.259 407.016C212.259 408.416 213.561 408.724 214.709 408.99C215.619 409.214 216.445 409.452 216.445 410.194C216.445 410.852 215.885 411.314 214.849 411.314C213.925 411.314 213.071 410.866 212.623 410.348L212.077 411.104Z" fill="white"/>
<path opacity="0.2" d="M165 670C185.724 670 205.868 663.151 222.297 650.519C238.726 637.887 250.52 620.179 255.845 600.151C261.169 580.122 259.726 558.896 251.739 539.772C243.752 520.649 229.669 504.702 211.68 494.41C193.692 484.118 172.807 480.06 152.274 482.865C131.741 485.671 112.71 495.184 98.1422 509.924C83.5745 524.664 74.2863 543.805 71.7223 564.37C69.1583 584.935 73.4624 605.771 83.9649 623.637L84.7752 623.161C74.3777 605.474 70.1167 584.846 72.6551 564.487C75.1934 544.127 84.3887 525.178 98.8108 510.585C113.233 495.992 132.073 486.574 152.401 483.797C172.729 481.019 193.405 485.037 211.214 495.226C229.022 505.415 242.964 521.203 250.871 540.135C258.778 559.067 260.208 580.081 254.936 599.909C249.665 619.738 237.989 637.268 221.724 649.774C205.459 662.28 185.517 669.06 165 669.06L165 670Z" fill="white"/>
<path d="M98.5321 642.468C85.359 629.295 76.3972 612.505 72.7845 594.229C69.1718 575.953 71.0712 557.015 78.2414 539.821C85.4116 522.627 97.5293 507.95 113.056 497.656C128.583 487.361 146.819 481.912 165.448 482.001L165.443 482.941C147 482.853 128.947 488.248 113.576 498.439C98.204 508.631 86.2075 523.16 79.109 540.183C72.0104 557.205 70.1301 575.953 73.7067 594.046C77.2832 612.14 86.1554 628.762 99.1968 641.803L98.5321 642.468Z" fill="white"/>
<path d="M247.632 531.189C256.513 547.565 260.327 566.211 258.591 584.76C256.855 603.308 249.647 620.923 237.881 635.367C226.115 649.811 210.323 660.433 192.509 665.885C174.695 671.337 155.663 671.372 137.828 665.987L138.1 665.087C155.756 670.419 174.598 670.383 192.234 664.986C209.87 659.589 225.504 649.073 237.152 634.773C248.8 620.473 255.936 603.035 257.655 584.672C259.374 566.309 255.597 547.85 246.805 531.637L247.632 531.189Z" fill="white"/>
<path d="M141.268 569.032C142.828 570.448 145.108 571.288 147.964 571.288C152.452 571.288 155.092 569.056 155.092 565.528C155.092 562.336 152.668 560.344 149.932 560.344C148.588 560.344 147.364 560.824 146.356 561.568V559.024H153.988V554.992H141.748V564.616L145.084 565.384C145.9 564.616 146.836 564.28 148.06 564.28C149.548 564.28 150.172 564.904 150.172 565.72C150.172 566.488 149.524 567.232 147.916 567.232C146.524 567.232 144.892 566.752 143.788 565.84L141.268 569.032ZM156.196 563.008C156.196 567.352 158.524 571.288 163.3 571.288C168.076 571.288 170.404 567.352 170.404 563.008C170.404 558.664 168.076 554.752 163.3 554.752C158.524 554.752 156.196 558.664 156.196 563.008ZM165.532 563.008C165.532 565.72 164.836 567.016 163.3 567.016C161.764 567.016 161.068 565.72 161.068 563.008C161.068 560.296 161.764 559.024 163.3 559.024C164.836 559.024 165.532 560.296 165.532 563.008ZM171.554 558.808C171.554 561.04 173.21 562.816 175.826 562.816C178.466 562.816 180.146 561.04 180.146 558.808C180.146 556.552 178.466 554.752 175.826 554.752C173.21 554.752 171.554 556.552 171.554 558.808ZM176.546 571L186.794 554.992H184.442L174.218 571H176.546ZM177.218 558.808C177.218 559.84 176.594 560.272 175.826 560.272C175.082 560.272 174.482 559.84 174.482 558.808C174.482 557.728 175.082 557.296 175.826 557.296C176.594 557.296 177.218 557.728 177.218 558.808ZM180.842 567.28C180.842 569.512 182.498 571.288 185.114 571.288C187.73 571.288 189.41 569.512 189.41 567.28C189.41 565.024 187.73 563.224 185.114 563.224C182.498 563.224 180.842 565.024 180.842 567.28ZM186.506 567.28C186.506 568.336 185.882 568.744 185.114 568.744C184.346 568.744 183.746 568.336 183.746 567.28C183.746 566.2 184.346 565.768 185.114 565.768C185.882 565.768 186.506 566.2 186.506 567.28Z" fill="white"/>
<path d="M109.109 598.684C109.879 599.552 111.069 600.168 112.693 600.168C115.213 600.168 116.137 598.782 116.137 597.424C116.137 595.464 114.401 594.988 112.875 594.582C111.685 594.26 110.607 593.98 110.607 593.042C110.607 592.16 111.405 591.558 112.525 591.558C113.547 591.558 114.527 591.908 115.227 592.678L115.927 591.824C115.143 590.998 114.037 590.522 112.609 590.522C110.775 590.522 109.403 591.572 109.403 593.112C109.403 594.946 111.069 595.366 112.567 595.758C113.799 596.094 114.933 596.402 114.933 597.522C114.933 598.236 114.401 599.132 112.735 599.132C111.419 599.132 110.411 598.488 109.795 597.802L109.109 598.684ZM117.438 596.612C117.438 598.726 118.88 600.168 120.882 600.168C121.988 600.168 122.898 599.804 123.57 599.132L123.066 598.446C122.534 598.992 121.75 599.3 120.98 599.3C119.524 599.3 118.628 598.236 118.544 596.962H124.018V596.696C124.018 594.666 122.814 593.07 120.77 593.07C118.838 593.07 117.438 594.652 117.438 596.612ZM120.756 593.938C122.296 593.938 122.968 595.184 122.982 596.192H118.544C118.6 595.156 119.314 593.938 120.756 593.938ZM131.333 600V595.254C131.333 593.784 130.591 593.07 129.177 593.07C128.169 593.07 127.245 593.658 126.769 594.218V593.238H125.719V600H126.769V595.058C127.161 594.512 127.945 594.008 128.771 594.008C129.681 594.008 130.283 594.386 130.283 595.576V600H131.333ZM133.948 592.104C134.34 592.104 134.662 591.782 134.662 591.39C134.662 590.998 134.34 590.69 133.948 590.69C133.57 590.69 133.248 590.998 133.248 591.39C133.248 591.782 133.57 592.104 133.948 592.104ZM134.48 600V593.238H133.43V600H134.48ZM139.529 600.168C141.587 600.168 142.875 598.572 142.875 596.612C142.875 594.652 141.587 593.07 139.529 593.07C137.471 593.07 136.183 594.652 136.183 596.612C136.183 598.572 137.471 600.168 139.529 600.168ZM139.529 599.23C138.087 599.23 137.275 597.998 137.275 596.612C137.275 595.24 138.087 594.008 139.529 594.008C140.971 594.008 141.769 595.24 141.769 596.612C141.769 597.998 140.971 599.23 139.529 599.23ZM145.636 600V595.212C145.944 594.666 146.826 594.134 147.47 594.134C147.638 594.134 147.764 594.148 147.89 594.176V593.098C146.966 593.098 146.182 593.616 145.636 594.33V593.238H144.586V600H145.636ZM156.051 600C158.949 600 160.839 597.998 160.839 595.338C160.839 592.692 158.949 590.662 156.051 590.662H152.859V600H156.051ZM154.021 591.698H156.051C158.361 591.698 159.635 593.322 159.635 595.338C159.635 597.34 158.319 598.964 156.051 598.964H154.021V591.698ZM162.227 596.612C162.227 598.726 163.669 600.168 165.671 600.168C166.777 600.168 167.687 599.804 168.359 599.132L167.855 598.446C167.323 598.992 166.539 599.3 165.769 599.3C164.313 599.3 163.417 598.236 163.333 596.962H168.807V596.696C168.807 594.666 167.603 593.07 165.559 593.07C163.627 593.07 162.227 594.652 162.227 596.612ZM165.545 593.938C167.085 593.938 167.757 595.184 167.771 596.192H163.333C163.389 595.156 164.103 593.938 165.545 593.938ZM173.462 600L176.276 593.238H175.128L172.888 598.782L170.634 593.238H169.5L172.314 600H173.462ZM176.979 596.612C176.979 598.726 178.421 600.168 180.423 600.168C181.529 600.168 182.439 599.804 183.111 599.132L182.607 598.446C182.075 598.992 181.291 599.3 180.521 599.3C179.065 599.3 178.169 598.236 178.085 596.962H183.559V596.696C183.559 594.666 182.355 593.07 180.311 593.07C178.379 593.07 176.979 594.652 176.979 596.612ZM180.297 593.938C181.837 593.938 182.509 595.184 182.523 596.192H178.085C178.141 595.156 178.855 593.938 180.297 593.938ZM186.31 600V590.662H185.26V600H186.31ZM191.359 600.168C193.417 600.168 194.705 598.572 194.705 596.612C194.705 594.652 193.417 593.07 191.359 593.07C189.301 593.07 188.013 594.652 188.013 596.612C188.013 598.572 189.301 600.168 191.359 600.168ZM191.359 599.23C189.917 599.23 189.105 597.998 189.105 596.612C189.105 595.24 189.917 594.008 191.359 594.008C192.801 594.008 193.599 595.24 193.599 596.612C193.599 597.998 192.801 599.23 191.359 599.23ZM197.466 598.978C198.012 599.734 198.824 600.168 199.748 600.168C201.526 600.168 202.758 598.796 202.758 596.612C202.758 594.414 201.526 593.07 199.748 593.07C198.796 593.07 197.956 593.56 197.466 594.246V593.238H196.416V602.576H197.466V598.978ZM201.652 596.612C201.652 598.11 200.84 599.23 199.482 599.23C198.656 599.23 197.83 598.726 197.466 598.138V595.086C197.83 594.498 198.656 594.008 199.482 594.008C200.84 594.008 201.652 595.114 201.652 596.612ZM204.063 596.612C204.063 598.726 205.505 600.168 207.507 600.168C208.613 600.168 209.523 599.804 210.195 599.132L209.691 598.446C209.159 598.992 208.375 599.3 207.605 599.3C206.149 599.3 205.253 598.236 205.169 596.962H210.643V596.696C210.643 594.666 209.439 593.07 207.395 593.07C205.463 593.07 204.063 594.652 204.063 596.612ZM207.381 593.938C208.921 593.938 209.593 595.184 209.607 596.192H205.169C205.225 595.156 205.939 593.938 207.381 593.938ZM213.394 600V595.212C213.702 594.666 214.584 594.134 215.228 594.134C215.396 594.134 215.522 594.148 215.648 594.176V593.098C214.724 593.098 213.94 593.616 213.394 594.33V593.238H212.344V600H213.394ZM216.377 599.104C217.063 599.832 218.001 600.168 219.107 600.168C220.857 600.168 221.767 599.258 221.767 598.124C221.767 596.626 220.409 596.29 219.233 596.024C218.351 595.814 217.581 595.604 217.581 594.946C217.581 594.344 218.155 593.924 219.079 593.924C219.947 593.924 220.689 594.288 221.095 594.778L221.585 594.05C221.039 593.504 220.227 593.07 219.079 593.07C217.469 593.07 216.559 593.966 216.559 595.016C216.559 596.416 217.861 596.724 219.009 596.99C219.919 597.214 220.745 597.452 220.745 598.194C220.745 598.852 220.185 599.314 219.149 599.314C218.225 599.314 217.371 598.866 216.923 598.348L216.377 599.104Z" fill="white"/>
<g clip-path="url(#clip0_4804_24027)">
<path d="M106 658.18L112.708 653.822V662.537L106 658.18Z" fill="white"/>
<path d="M115.504 657.896L127.243 648.455V667.336L115.504 657.896Z" fill="#12E2B0"/>
</g>
<rect x="249.43" y="346.43" width="12.4286" height="12.4286" transform="rotate(45 249.43 346.43)" fill="white"/>
<rect x="256.715" y="362.719" width="6" height="6" fill="#12E2B0"/>
<path d="M200 117.397L192.8 112.72V122.073L200 117.397Z" fill="#12E2B0"/>
<path d="M176 111.7L188.6 121.832V101.568L176 111.7Z" fill="white"/>
<path opacity="0.2" d="M220.143 840.536C201.162 853.545 178.068 859.141 155.238 856.261C132.407 853.382 111.426 842.228 96.2694 824.913C81.113 807.598 72.8345 785.324 73.0025 762.314C73.1705 739.303 81.7735 717.153 97.1812 700.061C112.589 682.969 133.731 672.123 156.601 669.577C179.471 667.031 202.481 672.963 221.27 686.249C240.059 699.534 253.322 719.25 258.546 741.661C263.77 764.071 260.592 787.62 249.614 807.844L248.788 807.395C259.656 787.374 262.802 764.061 257.63 741.874C252.459 719.687 239.328 700.169 220.727 687.016C202.126 673.864 179.347 667.991 156.705 670.511C134.064 673.031 113.133 683.769 97.8793 700.69C82.6257 717.611 74.1089 739.54 73.9425 762.32C73.7761 785.101 81.9718 807.152 96.9767 824.294C111.982 841.435 132.753 852.478 155.355 855.329C177.958 858.179 200.82 852.64 219.612 839.76L220.143 840.536Z" fill="white"/>
<path d="M167 669C183.307 669 199.333 673.242 213.505 681.31C227.676 689.377 239.505 700.993 247.83 715.015C256.154 729.037 260.687 744.984 260.984 761.288C261.281 777.592 257.332 793.693 249.524 808.009L248.699 807.559C256.429 793.386 260.339 777.446 260.045 761.305C259.751 745.164 255.262 729.377 247.021 715.495C238.78 701.613 227.07 690.114 213.04 682.127C199.01 674.14 183.144 669.94 167 669.94L167 669Z" fill="white"/>
<path d="M219.299 841.108C202.351 852.456 182.171 857.983 161.806 856.856L161.858 855.918C182.02 857.034 201.997 851.561 218.776 840.327L219.299 841.108Z" fill="white"/>
<path d="M142.788 754.792C144.132 756.232 146.532 757.288 149.7 757.288C153.852 757.288 156.66 755.344 156.66 752.488C156.66 750.28 154.644 748.936 152.868 748.744C154.908 748.408 156.396 746.896 156.396 745.192C156.396 742.552 154.14 740.752 149.724 740.752C146.604 740.752 144.42 741.832 143.004 743.392L145.212 746.32C146.316 745.408 147.828 744.832 149.196 744.832C150.588 744.832 151.572 745.24 151.572 745.984C151.572 746.56 150.9 746.944 149.364 746.944C148.788 746.944 147.348 746.944 147.036 746.92V751.024C147.276 751 148.668 750.976 149.364 750.976C151.5 750.976 151.836 751.432 151.836 752.008C151.836 752.656 151.092 753.232 149.508 753.232C148.284 753.232 146.412 752.728 145.164 751.648L142.788 754.792ZM157.984 749.008C157.984 753.352 160.312 757.288 165.089 757.288C169.865 757.288 172.193 753.352 172.193 749.008C172.193 744.664 169.865 740.752 165.089 740.752C160.312 740.752 157.984 744.664 157.984 749.008ZM167.32 749.008C167.32 751.72 166.625 753.016 165.089 753.016C163.552 753.016 162.857 751.72 162.857 749.008C162.857 746.296 163.552 745.024 165.089 745.024C166.625 745.024 167.32 746.296 167.32 749.008ZM173.343 744.808C173.343 747.04 174.999 748.816 177.615 748.816C180.255 748.816 181.935 747.04 181.935 744.808C181.935 742.552 180.255 740.752 177.615 740.752C174.999 740.752 173.343 742.552 173.343 744.808ZM178.335 757L188.583 740.992H186.231L176.007 757H178.335ZM179.007 744.808C179.007 745.84 178.383 746.272 177.615 746.272C176.871 746.272 176.271 745.84 176.271 744.808C176.271 743.728 176.871 743.296 177.615 743.296C178.383 743.296 179.007 743.728 179.007 744.808ZM182.631 753.28C182.631 755.512 184.287 757.288 186.903 757.288C189.519 757.288 191.199 755.512 191.199 753.28C191.199 751.024 189.519 749.224 186.903 749.224C184.287 749.224 182.631 751.024 182.631 753.28ZM188.295 753.28C188.295 754.336 187.671 754.744 186.903 754.744C186.135 754.744 185.535 754.336 185.535 753.28C185.535 752.2 186.135 751.768 186.903 751.768C187.671 751.768 188.295 752.2 188.295 753.28Z" fill="white"/>
<path d="M106.312 786V776.662H104.646L101.734 783.774L98.8361 776.662H97.1701V786H98.3321V778.23L101.496 786H101.972L105.15 778.23V786H106.312ZM108.966 778.104C109.358 778.104 109.68 777.782 109.68 777.39C109.68 776.998 109.358 776.69 108.966 776.69C108.588 776.69 108.266 776.998 108.266 777.39C108.266 777.782 108.588 778.104 108.966 778.104ZM109.498 786V779.238H108.448V786H109.498ZM117.543 786V776.662H116.493V780.26C115.947 779.518 115.121 779.07 114.211 779.07C112.433 779.07 111.201 780.47 111.201 782.626C111.201 784.824 112.447 786.168 114.211 786.168C115.163 786.168 115.989 785.678 116.493 784.992V786H117.543ZM116.493 784.166C116.115 784.754 115.303 785.23 114.463 785.23C113.105 785.23 112.293 784.124 112.293 782.626C112.293 781.128 113.105 780.008 114.463 780.008C115.303 780.008 116.115 780.512 116.493 781.1V784.166ZM122.376 783.074V782.15H119.016V783.074H122.376ZM128.267 786.168C129.961 786.168 131.081 785.384 131.865 784.32L130.871 783.774C130.339 784.572 129.373 785.132 128.267 785.132C126.265 785.132 124.711 783.55 124.711 781.338C124.711 779.112 126.265 777.544 128.267 777.544C129.373 777.544 130.339 778.118 130.871 778.902L131.851 778.356C131.109 777.306 129.961 776.508 128.267 776.508C125.621 776.508 123.507 778.468 123.507 781.338C123.507 784.208 125.621 786.168 128.267 786.168ZM138.582 786V781.352C138.582 779.714 137.392 779.07 135.964 779.07C134.858 779.07 133.99 779.434 133.262 780.19L133.752 780.918C134.354 780.274 135.012 779.98 135.824 779.98C136.804 779.98 137.532 780.498 137.532 781.408V782.626C136.986 781.996 136.216 781.702 135.292 781.702C134.144 781.702 132.926 782.416 132.926 783.928C132.926 785.398 134.144 786.168 135.292 786.168C136.202 786.168 136.972 785.846 137.532 785.23V786H138.582ZM137.532 784.572C137.126 785.132 136.412 785.412 135.67 785.412C134.69 785.412 134.004 784.796 134.004 783.942C134.004 783.074 134.69 782.458 135.67 782.458C136.412 782.458 137.126 782.738 137.532 783.298V784.572ZM141.737 786V781.212C142.045 780.666 142.927 780.134 143.571 780.134C143.739 780.134 143.865 780.148 143.991 780.176V779.098C143.067 779.098 142.283 779.616 141.737 780.33V779.238H140.687V786H141.737ZM144.916 782.612C144.916 784.726 146.358 786.168 148.36 786.168C149.466 786.168 150.376 785.804 151.048 785.132L150.544 784.446C150.012 784.992 149.228 785.3 148.458 785.3C147.002 785.3 146.106 784.236 146.022 782.962H151.496V782.696C151.496 780.666 150.292 779.07 148.248 779.07C146.316 779.07 144.916 780.652 144.916 782.612ZM148.234 779.938C149.774 779.938 150.446 781.184 150.46 782.192H146.022C146.078 781.156 146.792 779.938 148.234 779.938ZM152.804 782.612C152.804 784.726 154.246 786.168 156.248 786.168C157.354 786.168 158.264 785.804 158.936 785.132L158.432 784.446C157.9 784.992 157.116 785.3 156.346 785.3C154.89 785.3 153.994 784.236 153.91 782.962H159.384V782.696C159.384 780.666 158.18 779.07 156.136 779.07C154.204 779.07 152.804 780.652 152.804 782.612ZM156.122 779.938C157.662 779.938 158.334 781.184 158.348 782.192H153.91C153.966 781.156 154.68 779.938 156.122 779.938ZM162.135 786V781.212C162.443 780.666 163.325 780.134 163.969 780.134C164.137 780.134 164.263 780.148 164.389 780.176V779.098C163.465 779.098 162.681 779.616 162.135 780.33V779.238H161.085V786H162.135ZM172.55 786C175.448 786 177.338 783.998 177.338 781.338C177.338 778.692 175.448 776.662 172.55 776.662H169.358V786H172.55ZM170.52 777.698H172.55C174.86 777.698 176.134 779.322 176.134 781.338C176.134 783.34 174.818 784.964 172.55 784.964H170.52V777.698ZM178.726 782.612C178.726 784.726 180.168 786.168 182.17 786.168C183.276 786.168 184.186 785.804 184.858 785.132L184.354 784.446C183.822 784.992 183.038 785.3 182.268 785.3C180.812 785.3 179.916 784.236 179.832 782.962H185.306V782.696C185.306 780.666 184.102 779.07 182.058 779.07C180.126 779.07 178.726 780.652 178.726 782.612ZM182.044 779.938C183.584 779.938 184.256 781.184 184.27 782.192H179.832C179.888 781.156 180.602 779.938 182.044 779.938ZM189.961 786L192.775 779.238H191.627L189.387 784.782L187.133 779.238H185.999L188.813 786H189.961ZM193.478 782.612C193.478 784.726 194.92 786.168 196.922 786.168C198.028 786.168 198.938 785.804 199.61 785.132L199.106 784.446C198.574 784.992 197.79 785.3 197.02 785.3C195.564 785.3 194.668 784.236 194.584 782.962H200.058V782.696C200.058 780.666 198.854 779.07 196.81 779.07C194.878 779.07 193.478 780.652 193.478 782.612ZM196.796 779.938C198.336 779.938 199.008 781.184 199.022 782.192H194.584C194.64 781.156 195.354 779.938 196.796 779.938ZM202.809 786V776.662H201.759V786H202.809ZM207.858 786.168C209.916 786.168 211.204 784.572 211.204 782.612C211.204 780.652 209.916 779.07 207.858 779.07C205.8 779.07 204.512 780.652 204.512 782.612C204.512 784.572 205.8 786.168 207.858 786.168ZM207.858 785.23C206.416 785.23 205.604 783.998 205.604 782.612C205.604 781.24 206.416 780.008 207.858 780.008C209.3 780.008 210.098 781.24 210.098 782.612C210.098 783.998 209.3 785.23 207.858 785.23ZM213.965 784.978C214.511 785.734 215.323 786.168 216.247 786.168C218.025 786.168 219.257 784.796 219.257 782.612C219.257 780.414 218.025 779.07 216.247 779.07C215.295 779.07 214.455 779.56 213.965 780.246V779.238H212.915V788.576H213.965V784.978ZM218.151 782.612C218.151 784.11 217.339 785.23 215.981 785.23C215.155 785.23 214.329 784.726 213.965 784.138V781.086C214.329 780.498 215.155 780.008 215.981 780.008C217.339 780.008 218.151 781.114 218.151 782.612ZM220.562 782.612C220.562 784.726 222.004 786.168 224.006 786.168C225.112 786.168 226.022 785.804 226.694 785.132L226.19 784.446C225.658 784.992 224.874 785.3 224.104 785.3C222.648 785.3 221.752 784.236 221.668 782.962H227.142V782.696C227.142 780.666 225.938 779.07 223.894 779.07C221.962 779.07 220.562 780.652 220.562 782.612ZM223.88 779.938C225.42 779.938 226.092 781.184 226.106 782.192H221.668C221.724 781.156 222.438 779.938 223.88 779.938ZM229.893 786V781.212C230.201 780.666 231.083 780.134 231.727 780.134C231.895 780.134 232.021 780.148 232.147 780.176V779.098C231.223 779.098 230.439 779.616 229.893 780.33V779.238H228.843V786H229.893ZM232.876 785.104C233.562 785.832 234.5 786.168 235.606 786.168C237.356 786.168 238.266 785.258 238.266 784.124C238.266 782.626 236.908 782.29 235.732 782.024C234.85 781.814 234.08 781.604 234.08 780.946C234.08 780.344 234.654 779.924 235.578 779.924C236.446 779.924 237.188 780.288 237.594 780.778L238.084 780.05C237.538 779.504 236.726 779.07 235.578 779.07C233.968 779.07 233.058 779.966 233.058 781.016C233.058 782.416 234.36 782.724 235.508 782.99C236.418 783.214 237.244 783.452 237.244 784.194C237.244 784.852 236.684 785.314 235.648 785.314C234.724 785.314 233.87 784.866 233.422 784.348L232.876 785.104Z" fill="white"/>
<path opacity="0.2" d="M169 1044C189.724 1044 209.867 1037.15 226.297 1024.52C242.726 1011.89 254.52 994.179 259.845 974.151C265.169 954.122 263.726 932.896 255.738 913.772C247.751 894.649 233.669 878.702 215.68 868.41C197.692 858.118 176.807 854.06 156.274 856.865C135.74 859.671 116.71 869.184 102.142 883.924C87.5743 898.664 78.2861 917.805 75.7222 938.37C73.1582 958.935 77.4622 979.771 87.9648 997.637L88.7751 997.161C78.3776 979.474 74.1166 958.846 76.6549 938.487C79.1933 918.127 88.3886 899.178 102.811 884.585C117.233 869.992 136.073 860.574 156.401 857.797C176.729 855.019 197.405 859.037 215.214 869.226C233.022 879.415 246.964 895.203 254.871 914.135C262.778 933.067 264.207 954.081 258.936 973.909C253.665 993.738 241.989 1011.27 225.724 1023.77C209.459 1036.28 189.517 1043.06 169 1043.06L169 1044Z" fill="white"/>
<path d="M102.532 1016.47C89.3588 1003.29 80.3971 986.505 76.7844 968.229C73.1717 949.953 75.071 931.015 82.2413 913.821C89.4115 896.627 101.529 881.95 117.056 871.656C132.583 861.361 150.818 855.912 169.448 856.001L169.443 856.941C151 856.853 132.947 862.248 117.575 872.439C102.204 882.631 90.2073 897.16 83.1088 914.183C76.0103 931.205 74.13 949.953 77.7066 968.046C81.2831 986.14 90.1553 1002.76 103.197 1015.8L102.532 1016.47Z" fill="white"/>
<path d="M201.677 1038.14C184.883 1044.36 166.659 1045.66 149.151 1041.88L149.349 1040.96C166.682 1044.71 184.724 1043.42 201.35 1037.26L201.677 1038.14Z" fill="white"/>
<path d="M158.564 944V939.776H152.876C157.172 937.256 158.42 935.456 158.42 933.272C158.42 930.056 155.708 927.752 151.556 927.752C149.324 927.752 146.636 928.496 144.788 930.464L147.428 933.68C148.652 932.648 149.948 932.024 151.556 932.024C152.684 932.024 153.5 932.504 153.5 933.272C153.5 934.472 152.804 935.072 145.484 940.232V944H158.564ZM159.891 936.008C159.891 940.352 162.219 944.288 166.995 944.288C171.771 944.288 174.099 940.352 174.099 936.008C174.099 931.664 171.771 927.752 166.995 927.752C162.219 927.752 159.891 931.664 159.891 936.008ZM169.227 936.008C169.227 938.72 168.531 940.016 166.995 940.016C165.459 940.016 164.763 938.72 164.763 936.008C164.763 933.296 165.459 932.024 166.995 932.024C168.531 932.024 169.227 933.296 169.227 936.008ZM175.249 931.808C175.249 934.04 176.905 935.816 179.521 935.816C182.161 935.816 183.841 934.04 183.841 931.808C183.841 929.552 182.161 927.752 179.521 927.752C176.905 927.752 175.249 929.552 175.249 931.808ZM180.241 944L190.489 927.992H188.137L177.913 944H180.241ZM180.913 931.808C180.913 932.84 180.289 933.272 179.521 933.272C178.777 933.272 178.177 932.84 178.177 931.808C178.177 930.728 178.777 930.296 179.521 930.296C180.289 930.296 180.913 930.728 180.913 931.808ZM184.537 940.28C184.537 942.512 186.193 944.288 188.809 944.288C191.425 944.288 193.105 942.512 193.105 940.28C193.105 938.024 191.425 936.224 188.809 936.224C186.193 936.224 184.537 938.024 184.537 940.28ZM190.201 940.28C190.201 941.336 189.577 941.744 188.809 941.744C188.041 941.744 187.441 941.336 187.441 940.28C187.441 939.2 188.041 938.768 188.809 938.768C189.577 938.768 190.201 939.2 190.201 940.28Z" fill="white"/>
<path d="M113.599 972.09C114.243 972.846 115.041 973.168 116.035 973.168C117.701 973.168 119.003 972.216 119.003 970.186V963.662H117.841V970.172C117.841 971.334 117.113 972.132 115.965 972.132C115.153 972.132 114.607 971.698 114.201 971.208L113.599 972.09ZM126.754 973V966.238H125.704V971.208C125.312 971.754 124.528 972.23 123.702 972.23C122.792 972.23 122.19 971.88 122.19 970.69V966.238H121.14V971.012C121.14 972.482 121.882 973.168 123.296 973.168C124.304 973.168 125.186 972.636 125.704 972.048V973H126.754ZM134.465 973V968.254C134.465 966.784 133.723 966.07 132.309 966.07C131.301 966.07 130.377 966.658 129.901 967.218V966.238H128.851V973H129.901V968.058C130.293 967.512 131.077 967.008 131.903 967.008C132.813 967.008 133.415 967.386 133.415 968.576V973H134.465ZM137.08 965.104C137.472 965.104 137.794 964.782 137.794 964.39C137.794 963.998 137.472 963.69 137.08 963.69C136.702 963.69 136.38 963.998 136.38 964.39C136.38 964.782 136.702 965.104 137.08 965.104ZM137.612 973V966.238H136.562V973H137.612ZM142.66 973.168C144.718 973.168 146.006 971.572 146.006 969.612C146.006 967.652 144.718 966.07 142.66 966.07C140.602 966.07 139.314 967.652 139.314 969.612C139.314 971.572 140.602 973.168 142.66 973.168ZM142.66 972.23C141.218 972.23 140.406 970.998 140.406 969.612C140.406 968.24 141.218 967.008 142.66 967.008C144.102 967.008 144.9 968.24 144.9 969.612C144.9 970.998 144.102 972.23 142.66 972.23ZM148.768 973V968.212C149.076 967.666 149.958 967.134 150.602 967.134C150.77 967.134 150.896 967.148 151.022 967.176V966.098C150.098 966.098 149.314 966.616 148.768 967.33V966.238H147.718V973H148.768ZM159.182 973C162.08 973 163.97 970.998 163.97 968.338C163.97 965.692 162.08 963.662 159.182 963.662H155.99V973H159.182ZM157.152 964.698H159.182C161.492 964.698 162.766 966.322 162.766 968.338C162.766 970.34 161.45 971.964 159.182 971.964H157.152V964.698ZM165.359 969.612C165.359 971.726 166.801 973.168 168.803 973.168C169.909 973.168 170.819 972.804 171.491 972.132L170.987 971.446C170.455 971.992 169.671 972.3 168.901 972.3C167.445 972.3 166.549 971.236 166.465 969.962H171.939V969.696C171.939 967.666 170.735 966.07 168.691 966.07C166.759 966.07 165.359 967.652 165.359 969.612ZM168.677 966.938C170.217 966.938 170.889 968.184 170.903 969.192H166.465C166.521 968.156 167.235 966.938 168.677 966.938ZM176.594 973L179.408 966.238H178.26L176.02 971.782L173.766 966.238H172.632L175.446 973H176.594ZM180.111 969.612C180.111 971.726 181.553 973.168 183.555 973.168C184.661 973.168 185.571 972.804 186.243 972.132L185.739 971.446C185.207 971.992 184.423 972.3 183.653 972.3C182.197 972.3 181.301 971.236 181.217 969.962H186.691V969.696C186.691 967.666 185.487 966.07 183.443 966.07C181.511 966.07 180.111 967.652 180.111 969.612ZM183.429 966.938C184.969 966.938 185.641 968.184 185.655 969.192H181.217C181.273 968.156 181.987 966.938 183.429 966.938ZM189.442 973V963.662H188.392V973H189.442ZM194.49 973.168C196.548 973.168 197.836 971.572 197.836 969.612C197.836 967.652 196.548 966.07 194.49 966.07C192.432 966.07 191.144 967.652 191.144 969.612C191.144 971.572 192.432 973.168 194.49 973.168ZM194.49 972.23C193.048 972.23 192.236 970.998 192.236 969.612C192.236 968.24 193.048 967.008 194.49 967.008C195.932 967.008 196.73 968.24 196.73 969.612C196.73 970.998 195.932 972.23 194.49 972.23ZM200.598 971.978C201.144 972.734 201.956 973.168 202.88 973.168C204.658 973.168 205.89 971.796 205.89 969.612C205.89 967.414 204.658 966.07 202.88 966.07C201.928 966.07 201.088 966.56 200.598 967.246V966.238H199.548V975.576H200.598V971.978ZM204.784 969.612C204.784 971.11 203.972 972.23 202.614 972.23C201.788 972.23 200.962 971.726 200.598 971.138V968.086C200.962 967.498 201.788 967.008 202.614 967.008C203.972 967.008 204.784 968.114 204.784 969.612ZM207.195 969.612C207.195 971.726 208.637 973.168 210.639 973.168C211.745 973.168 212.655 972.804 213.327 972.132L212.823 971.446C212.291 971.992 211.507 972.3 210.737 972.3C209.281 972.3 208.385 971.236 208.301 969.962H213.775V969.696C213.775 967.666 212.571 966.07 210.527 966.07C208.595 966.07 207.195 967.652 207.195 969.612ZM210.513 966.938C212.053 966.938 212.725 968.184 212.739 969.192H208.301C208.357 968.156 209.071 966.938 210.513 966.938ZM216.526 973V968.212C216.834 967.666 217.716 967.134 218.36 967.134C218.528 967.134 218.654 967.148 218.78 967.176V966.098C217.856 966.098 217.072 966.616 216.526 967.33V966.238H215.476V973H216.526ZM219.509 972.104C220.195 972.832 221.133 973.168 222.239 973.168C223.989 973.168 224.899 972.258 224.899 971.124C224.899 969.626 223.541 969.29 222.365 969.024C221.483 968.814 220.713 968.604 220.713 967.946C220.713 967.344 221.287 966.924 222.211 966.924C223.079 966.924 223.821 967.288 224.227 967.778L224.717 967.05C224.171 966.504 223.359 966.07 222.211 966.07C220.601 966.07 219.691 966.966 219.691 968.016C219.691 969.416 220.993 969.724 222.141 969.99C223.051 970.214 223.877 970.452 223.877 971.194C223.877 971.852 223.317 972.314 222.281 972.314C221.357 972.314 220.503 971.866 220.055 971.348L219.509 972.104Z" fill="white"/>
<defs>
<clipPath id="clip0_4804_24027">
<rect width="23" height="23" fill="white" transform="translate(106 647)"/>
</clipPath>
</defs>
</svg>
