<svg width="36" height="36" viewBox="0 0 36 36" fill="none" xmlns="http://www.w3.org/2000/svg">
<rect width="36" height="36" rx="18" fill="#1E1F21"/>
<path d="M8 16.1413C8.34793 16.4678 8.95511 16.6782 9.54181 16.6782C10.4901 16.6782 11.0427 16.1848 11.0427 15.5174C11.0427 14.5888 10.2104 14.4437 9.65097 14.3421C9.30304 14.2768 9.12566 14.2188 9.12566 14.0592C9.12566 13.9068 9.29622 13.8198 9.54181 13.8198C9.9375 13.8198 10.3127 14.0012 10.5106 14.2043L10.9131 13.4643C10.5583 13.1886 10.0876 13 9.53499 13C8.62082 13 8.1228 13.5369 8.1228 14.1535C8.1228 15.0458 8.91417 15.1692 9.47359 15.2707C9.8147 15.3288 10.0398 15.3941 10.0398 15.5754C10.0398 15.7278 9.91021 15.8366 9.59639 15.8366C9.20753 15.8366 8.68222 15.6045 8.43662 15.3723L8 16.1413Z" fill="white"/>
<path d="M11.3659 14.8355C11.3659 15.9382 12.1368 16.6782 13.167 16.6782C13.8765 16.6782 14.3199 16.3372 14.5177 16.0325L13.8355 15.3505C13.7059 15.5464 13.4944 15.6915 13.2147 15.6915C12.7781 15.6915 12.4438 15.3651 12.4438 14.8355C12.4438 14.3059 12.7781 13.9866 13.2147 13.9866C13.4944 13.9866 13.7059 14.1172 13.8355 14.3204L14.5177 13.6457C14.3199 13.3337 13.8765 13 13.167 13C12.1368 13 11.3659 13.74 11.3659 14.8355Z" fill="white"/>
<path d="M14.9953 16.5911H16.0459V14.3711C16.1824 14.168 16.5439 14.0447 16.8168 14.0447C16.926 14.0447 17.0147 14.0592 17.0761 14.081V13C16.6804 13 16.2642 13.2467 16.0459 13.5296V13.0871H14.9953V16.5911Z" fill="white"/>
<path d="M19.7777 16.5911H20.8283V13.0871H19.7777V15.3505C19.6549 15.5174 19.4502 15.6915 19.15 15.6915C18.8089 15.6915 18.6042 15.5464 18.6042 15.1256V13.0871H17.5536V15.5827C17.5536 16.2284 17.8879 16.6782 18.6383 16.6782C19.1909 16.6782 19.573 16.417 19.7777 16.1703V16.5911Z" fill="white"/>
<path d="M25.7457 16.5911H26.7895V14.0519C26.7895 13.3337 26.4074 13 25.8003 13C25.2818 13 24.852 13.3192 24.661 13.6239C24.5245 13.2104 24.197 13 23.7263 13C23.2078 13 22.7849 13.312 22.6416 13.5151V13.0871H21.591V16.5911H22.6416V14.3276C22.7507 14.1825 22.9486 13.9866 23.2283 13.9866C23.5489 13.9866 23.6649 14.1898 23.6649 14.4582V16.5911H24.7155V14.3276C24.8179 14.1825 25.0225 13.9866 25.3091 13.9866C25.6229 13.9866 25.7457 14.1898 25.7457 14.4582V16.5911Z" fill="white"/>
<path d="M8.68164 22.9141H9.73156V18.1719H8.68164V22.9141Z" fill="white"/>
<path d="M12.4356 22.9141H13.4855V20.767C13.4855 19.7005 12.7424 19.3948 11.9515 19.3948C11.447 19.3948 10.8812 19.5512 10.4585 19.928L10.8335 20.6177C11.0993 20.383 11.4402 20.2551 11.7675 20.2551C12.1902 20.2551 12.4356 20.4541 12.4356 20.7527V21.1865C12.2379 20.9305 11.8493 20.7883 11.413 20.7883C10.9085 20.7883 10.2812 21.0371 10.2812 21.869C10.2812 22.644 10.9085 22.9995 11.413 22.9995C11.8356 22.9995 12.2311 22.8288 12.4356 22.5729V22.9141ZM12.4356 22.0325C12.3265 22.196 12.0811 22.2814 11.8493 22.2814C11.5698 22.2814 11.3243 22.1534 11.3243 21.8832C11.3243 21.613 11.5698 21.4851 11.8493 21.4851C12.0811 21.4851 12.3265 21.5704 12.4356 21.7268V22.0325Z" fill="white"/>
<path d="M16.4701 22.9141H17.5201V19.4801H16.4701V21.6984C16.3474 21.8619 16.1429 22.0325 15.8429 22.0325C15.502 22.0325 15.2975 21.8903 15.2975 21.478V19.4801H14.2476V21.9259C14.2476 22.5587 14.5817 22.9995 15.3316 22.9995C15.8838 22.9995 16.2656 22.7435 16.4701 22.5018V22.9141Z" fill="white"/>
<path d="M20.5116 22.9141H21.5615V20.4826C21.5615 19.8498 21.2207 19.3948 20.4707 19.3948C19.9185 19.3948 19.5299 19.6578 19.3322 19.8996V19.4801H18.2823V22.9141H19.3322V20.6959C19.4549 20.5395 19.6594 20.3617 19.973 20.3617C20.3003 20.3617 20.5116 20.511 20.5116 20.9305V22.9141Z" fill="white"/>
<path d="M22.1054 21.1936C22.1054 22.2743 22.8758 22.9995 23.9053 22.9995C24.6143 22.9995 25.0574 22.6653 25.2551 22.3667L24.5734 21.6984C24.4439 21.8903 24.2325 22.0325 23.953 22.0325C23.5167 22.0325 23.1826 21.7126 23.1826 21.1936C23.1826 20.6745 23.5167 20.3617 23.953 20.3617C24.2325 20.3617 24.4439 20.4897 24.5734 20.6888L25.2551 20.0275C25.0574 19.7218 24.6143 19.3948 23.9053 19.3948C22.8758 19.3948 22.1054 20.12 22.1054 21.1936Z" fill="white"/>
<path d="M27.9686 22.9141H29.0185V20.4684C29.0185 19.8356 28.6776 19.3948 27.9277 19.3948C27.3754 19.3948 26.9868 19.6578 26.7891 19.8996V18.1719H25.7454L25.7392 22.9141H26.7891V20.6959C26.9118 20.5395 27.1164 20.3617 27.4232 20.3617C27.7572 20.3617 27.9686 20.4968 27.9686 20.9163V22.9141Z" fill="white"/>
<path d="M25.7461 16.3301H26.7896V18.399H25.7461V16.3301Z" fill="white"/>
</svg>
