<svg width="1200" height="598" viewBox="0 0 1200 598" fill="none" xmlns="http://www.w3.org/2000/svg">
<g clip-path="url(#clip0_4421_23575)">
<path fill-rule="evenodd" clip-rule="evenodd" d="M280.852 451.365C281.171 452.281 281.537 453.174 281.963 454.045C283.637 457.47 288.364 466.914 292.802 473.688C298.42 481.999 306.685 486.625 319.198 487.703C328.7 488.521 327.186 496.061 325.413 504.895C325.176 506.072 324.936 507.271 324.716 508.481C324.142 511.636 325.351 514.803 327.681 517.024C328.774 518.066 330.238 518.75 331.691 519.43C333.679 520.359 335.649 521.279 336.629 523.095C337.639 524.967 338.166 527.835 338.77 531.126C339.119 533.025 339.493 535.063 340.001 537.132C341.25 542.218 339.879 546.402 338.464 550.722C337.315 554.229 336.137 557.827 336.306 562.071C336.324 562.526 336.302 562.967 336.235 563.39C336.205 563.581 336.175 563.774 336.145 563.97C335.171 570.238 333.884 578.52 337.128 585.646C339.54 590.946 343.317 593.164 345.235 593.989C346.019 594.326 346.864 594.468 347.711 594.566C353.606 595.253 359.491 593.45 364.266 589.956C367.55 587.553 371.595 584.786 375.658 582.492C381.505 579.194 379.377 569.166 376.916 562.023C375.359 557.504 376.636 552.325 380.528 549.566C381.131 549.138 381.676 548.65 382.169 548.099C385.706 544.141 401.364 526.752 414.149 514.699C428.655 501.023 430.598 496.492 430.988 489.782C431.38 483.054 434.408 476.891 437.443 470.716C440.254 464.995 443.07 459.263 443.799 453.063C443.863 452.521 443.948 452.006 444.058 451.526C444.989 447.445 450.402 447.047 455.923 446.64C460.619 446.295 465.394 445.944 467.558 443.316C470.428 439.845 468.182 430.871 466.122 422.641C464.786 417.301 463.527 412.274 463.797 409.267C464.186 404.866 467.417 403.164 471.145 401.201C473.909 399.745 476.947 398.145 479.302 395.194C485.439 387.506 474.113 374.653 464.384 372.972C461.422 372.46 457.724 372.631 453.127 373.99C443.685 376.78 441.913 374.16 438.066 368.473C434.363 362.999 428.737 354.682 412.498 345.612C389.724 332.892 382.325 340.98 379.925 347.27C378.744 350.365 376.713 353.378 373.604 354.538C370.717 355.615 367.434 354.961 365.189 352.837C362.967 350.735 359.75 350.057 356.907 351.164C353.075 352.656 347.816 354.819 344.897 356.519C341.612 358.431 336.343 359.826 331.178 361.194C328.546 361.892 325.941 362.581 323.639 363.329C321.906 363.885 320.242 364.354 318.52 364.839C313.461 366.265 307.904 367.831 298.621 372.164C288.263 377 289.796 386.242 290.601 389.202C290.734 389.693 290.9 390.171 291.067 390.65C291.117 390.791 291.166 390.932 291.214 391.074L293.063 396.485C294.844 401.698 295.103 407.304 293.809 412.646C293.482 413.993 293.059 415.314 292.543 416.6L292.201 417.452C290.478 421.743 288.039 425.711 284.987 429.186L282.275 432.274C281.232 433.462 280.383 434.807 279.76 436.26C278.281 439.708 278.146 443.588 279.382 447.14L280.852 451.365ZM291.632 463.296C292.401 464.372 293.171 465.447 293.912 466.539C294.936 468.047 296.218 470.054 297.747 472.674C301.893 479.571 313.863 481.2 323.195 482.47C324.127 482.596 325.033 482.72 325.902 482.844C332.747 483.825 331.125 492.394 329.478 501.089C329.257 502.256 329.036 503.426 328.834 504.58C328.123 508.656 329.819 512.672 332.902 515.454C333.663 516.14 334.498 516.802 335.336 517.466C338.265 519.788 341.237 522.143 341.241 525.713L341.241 525.955C341.242 528.454 341.244 531.554 342.038 534.788C343.26 539.767 342.264 544.971 341.282 550.101C340.988 551.636 340.696 553.165 340.464 554.679C340.297 555.771 340.154 556.856 340.053 557.877C339.9 559.49 339.483 561.395 339.034 563.449C337.921 568.536 336.608 574.538 338.599 579.278C339.405 581.198 340.521 583.116 341.701 584.874C345.043 589.854 351.529 591.151 357.103 588.972C357.911 588.656 358.688 588.271 359.427 587.818C361.883 586.314 367.991 582.561 373.418 579.127C377.077 576.816 375.824 569.483 373.792 563.004C371.659 556.203 372.949 548.562 378.139 543.699C378.25 543.595 378.357 543.492 378.465 543.385C379.953 541.905 391.602 530.284 401.499 519.35C405.459 514.975 409.75 511.087 413.575 507.62C419.982 501.813 425.081 497.191 425.126 493.457C425.14 492.327 425.347 490.977 425.673 489.531C427.018 483.575 429.222 477.872 431.428 472.166C432.827 468.545 434.227 464.923 435.408 461.235C437.233 455.536 438.992 449.631 439.458 446.7C440.037 443.052 445.562 442.303 451.004 441.565C455.511 440.953 459.962 440.35 461.5 438.113C463.566 435.121 461.499 426.957 459.604 419.475C458.368 414.597 457.207 410.009 457.311 407.333C457.46 403.429 461.579 401.028 465.816 398.559C468.963 396.725 472.175 394.853 473.872 392.3C475.61 389.685 474.198 385.386 471.937 383.189C468.601 379.946 462.929 376.603 454.843 379.079C446.467 381.644 442.308 377.543 434.709 370.049C429.667 365.076 423.109 358.609 412.799 351.605C397.634 341.302 390.153 343.352 386.56 346.806C385.309 348.008 384.229 349.411 383.149 350.812C381.64 352.771 380.131 354.729 378.16 356.14L376.45 357.364C372.529 360.171 367.354 360.545 363.048 358.334C360.083 356.811 356.649 356.482 353.482 357.494C348.503 359.085 341.233 361.55 338.891 363.082C336.598 364.581 332.568 365.505 328.616 366.411C326.222 366.96 323.857 367.502 321.925 368.161C320.461 368.654 318.705 369.119 316.727 369.643C311.772 370.956 305.425 372.638 298.79 376.042C294.488 378.248 294.371 383.562 295.485 388.629C297.165 396.274 298.529 404.238 296.4 411.755L296.227 412.367C295.888 413.562 295.65 414.782 295.512 416.016C295.101 419.711 293.783 423.245 291.675 426.305L289.297 429.756L286.022 433.631C282.962 437.252 281.64 442.03 282.403 446.717C282.758 448.897 283.552 450.984 284.739 452.852L288.25 458.381C289.315 460.058 290.474 461.677 291.632 463.296Z" fill="white"/>
<path fill-rule="evenodd" clip-rule="evenodd" d="M254.153 397.889C250.334 397.025 247.572 393.87 246.223 390.193C243.293 382.208 234.065 378.556 226.462 382.372L221.098 385.064C219.773 385.728 218.382 386.245 216.976 386.713C214.425 387.564 209.463 389.403 201.463 393.086C194.764 396.17 186.748 393.975 182.842 387.722C181.909 386.228 181.268 384.57 180.718 382.897C179.564 379.385 176.76 372.734 170.587 365.9C167.206 362.163 162.579 360.861 158.109 360.696C157.307 360.666 156.502 360.639 155.694 360.613C147.089 360.331 138.184 360.04 130.894 355.599L130.069 355.096C128.367 354.059 126.812 352.797 125.448 351.345C118.274 343.708 117.565 332.154 122.699 323.013C125.184 318.588 127.405 314.055 128.257 310.721C130.608 301.524 111.16 296.616 91.2204 291.828C83.4772 289.964 77.8662 294.25 73.9 300.184C64.9957 313.508 58.1845 328.822 53.9393 344.274C52.791 348.433 47.587 351.783 42.2582 354.198C34.6109 357.665 27.9856 363.777 26.6935 372.074C26.4158 373.858 26.1682 375.675 25.9841 377.427C25.3849 383.133 22.994 389.073 18.3604 392.457L16.8382 393.568C14.0019 395.639 10.3256 396.173 7.01908 394.994C3.41054 393.708 0.776746 390.575 0.128652 386.798L-0.0466657 385.776C-0.384971 383.805 -0.240761 381.78 0.373623 379.876L12.6732 341.756L22.1399 316.721L30.5666 299.716C35.9607 287.717 43.3959 276.744 52.5412 267.288L70.1585 249.071L102.334 217.578L123.663 194.193L140.919 177.902C148.561 170.686 157.095 164.48 166.313 159.433L176.654 153.772C180.001 151.94 183.592 150.591 187.318 149.767C199.3 147.116 209.428 139.156 214.839 128.138L216.246 125.272C221.065 115.458 229.154 107.629 239.12 103.135L256.95 95.0933L286.889 78.3262L332.434 57.9214L343.711 51.0376C352.82 45.4771 363.017 41.9398 373.61 40.6655C382.955 39.5414 392.002 36.6549 400.273 32.159L403.977 30.1453C410.98 26.3388 418.427 23.4147 426.148 21.4398L436.789 18.718L455.463 13.7898L473.028 9.20564L501.714 3.81597C502.095 3.74425 502.483 3.71128 502.872 3.71755L508.373 3.80634C510.507 3.84079 511.769 6.20999 510.607 8.00191C510.501 8.16568 510.378 8.31755 510.239 8.45489L503.582 15.0497C502.383 16.2377 500.961 17.1766 499.397 17.8122L494.016 19.9996C489.006 22.0359 487.259 28.2508 490.475 32.5966C493.731 36.9965 491.997 43.7357 488.05 47.5311C487.184 48.3637 486.296 49.2952 485.407 50.3342C482.888 53.2782 477.315 52.9965 471.815 51.7354C462.434 49.5844 452.529 48.7535 443.552 52.2312L437.927 55.1441C430.514 58.9831 427.083 67.7166 429.902 75.573L431.25 79.3293C433.421 85.3803 430.581 92.0872 424.723 94.739C421.602 96.1517 419.217 98.7984 418.04 102.016C415.941 107.751 412.481 116.551 410.373 118.444C409.326 119.389 408.391 120.587 407.455 121.786C405.548 124.231 403.638 126.678 400.78 126.979C400.292 127.031 399.798 127.079 399.296 127.126C396.903 127.347 394.919 126.203 394.305 123.879C393.535 120.969 392.888 116.867 393.957 113.945C394.377 112.785 394.406 111.271 394.206 109.634C393.223 101.592 386.687 95.6574 379.595 91.747L378.178 90.954C372.591 87.8262 365.915 87.2937 359.9 89.4961C355.052 91.2712 349.735 91.2822 344.881 89.5272L337.525 86.8672C326.665 82.9405 314.522 85.3512 305.979 93.1296L301.378 97.3186C294.896 103.221 292.582 112.433 295.506 120.694C297.83 127.259 296.873 134.541 292.932 140.286L290.348 144.052C289.202 145.723 288.223 147.502 287.427 149.365L286.036 152.619C281.467 163.307 274.178 172.611 264.894 179.603L257.192 185.405L244.432 192.971C242.491 194.122 241.107 196.019 240.604 198.219C239.463 203.201 243.087 208.005 248.188 208.275L248.938 208.315C249.992 208.371 251.048 208.238 252.056 207.922L261.377 205.002C264.134 204.138 267.012 203.726 269.899 203.781L275.337 203.885C282.862 204.029 289.738 199.631 292.766 192.737L299.62 179.105C303.755 171.79 309.396 165.436 316.17 160.465L320.364 157.388C321.45 156.591 322.594 155.875 323.785 155.247L327.514 153.283C334.741 149.475 343.527 150.264 349.957 155.298C357.551 161.245 360.04 171.647 355.96 180.394L353.075 186.578L346.056 200.957C345.049 203.021 343.813 204.966 342.372 206.755L336.411 214.155C333.541 217.719 332.687 222.501 334.146 226.836L334.255 227.16C334.664 228.374 334.865 229.648 334.849 230.929C334.781 236.54 330.637 241.266 325.084 242.065L317.267 243.189C307.917 244.534 300.672 251.385 300.055 260.814C299.575 268.138 296.752 276.643 291.517 281.788L283.96 289.216C281.906 291.235 280.848 294.06 281.072 296.932C281.403 301.188 284.676 304.503 288.159 306.97C290.675 308.753 292.654 311.461 291.281 315.362C288.346 323.763 291.618 329.356 298.782 327.221C298.918 327.181 299.055 327.139 299.194 327.095C308.815 324.063 322.953 330.152 317.707 338.771C315.887 341.761 307.167 342.576 301.457 342.785C298.117 342.907 294.8 343.553 291.752 344.928L286.907 347.113C282.497 349.102 277.356 348.535 273.487 345.633C271.592 344.211 270.112 342.308 269.201 340.12L267.017 334.879C266.075 332.617 265.651 330.182 265.75 327.734C265.758 327.53 265.767 327.32 265.775 327.104C266.186 316.641 256.647 311.161 247.367 316.009L229.171 326.034C221.911 330.033 216.697 336.952 215.041 345.074C214.325 348.582 213.573 352.409 212.924 356C211.837 362.015 215.646 367.466 221.466 365.6C222.872 365.149 224.414 364.529 226.085 363.69C228.054 362.701 229.099 360.548 228.903 358.354C228.536 354.255 232.432 351.085 236.369 352.278L242.918 354.263C243.835 354.541 244.786 354.691 245.744 354.709L248.573 354.762C255.62 354.895 262.408 357.438 267.806 361.969L268.054 362.177C269.311 363.233 270.584 364.398 270.919 366.005C271.432 368.47 270.938 372.912 264.648 379.07C255.845 387.7 260.301 390.244 261.569 390.749C261.665 390.788 261.763 390.823 261.861 390.858C261.962 390.894 262.063 390.931 262.163 390.971L263.16 391.371C264.774 392.019 265.717 393.706 265.423 395.421C265.284 396.232 264.876 396.979 264.141 397.346C262.622 398.103 259.423 399.081 254.153 397.889ZM260.374 396.029C258.047 396.606 254.659 396.078 250.637 391.383L248.853 388.936C242.975 380.876 232.586 377.505 223.092 380.576C221.986 380.933 220.911 381.373 219.854 381.857C217.08 383.126 210.606 385.937 200.138 389.626C196.763 390.815 193.009 389.845 190.588 387.212C188.491 384.931 186.751 381.125 185.026 377.353C183.435 373.873 181.857 370.422 180.026 368.228C179.703 367.842 179.356 367.442 178.983 367.029C175.319 362.982 171.455 359.839 168.293 357.596C164.079 354.606 158.739 354.098 153.73 355.374C140.968 358.627 128.253 349.776 126.717 336.694C126.395 333.953 126.591 331.158 127.297 328.489C128.74 323.041 131.297 313.35 132.778 307.567C134.637 300.303 109.297 292.422 102.528 290.456C101.43 290.137 100.364 289.76 99.3182 289.298C89.0464 284.762 76.9906 288.458 71.2305 298.105C64.3996 309.544 56.4273 323.451 55.1516 328.088L55.0952 328.292C53.0185 335.805 50.3892 345.317 43.6933 349.23C38.1719 352.457 32.125 356.316 28.3492 359.701C25.3546 362.386 24.3169 366.485 23.3115 370.456C23.1383 371.14 22.9661 371.82 22.785 372.489L19.7888 383.551C19.0986 386.1 17.1313 388.105 14.5972 388.843C8.10832 390.733 2.58867 383.816 5.86867 377.905L7.51543 374.937C7.79029 374.442 8.01763 373.921 8.19438 373.383L21.245 333.642L23.6658 327.588C28.5348 315.412 34.7381 303.812 42.1622 293.003C49.7802 281.282 58.6567 270.43 68.6333 260.64L83.0019 246.539L110.721 218.107L130.678 196.398L144.951 183.659C154.006 175.577 164.006 168.62 174.732 162.94L182.128 159.024C184.639 157.695 187.256 156.578 189.953 155.687C201.794 151.771 211.783 143.637 218.018 132.832L219.84 129.675C226.488 118.155 236.752 109.151 249.038 104.062L257.037 100.749L285.766 84.1075L326.287 66.4477L336.91 60.3033C347.228 54.3355 358.538 50.2785 370.294 48.3272C379.421 46.8124 388.291 44.0262 396.646 40.05L401.937 37.5322C413.054 32.0297 424.553 27.3351 436.343 23.4847L436.818 23.3296L455.979 19.0476L485.981 11.8902L502.654 7.92787C504.846 7.40687 506.453 9.9572 505.039 11.712C504.77 12.0456 504.415 12.2999 504.013 12.4477L497.24 14.9377C490.218 17.519 486.018 24.7259 487.234 32.1074L487.915 36.2481C487.998 36.7516 488.236 37.2167 488.596 37.5787C490.292 39.2866 488.815 44.3121 486.931 45.8123C486.057 46.5083 485.14 47.3813 484.204 48.475C481.012 52.2016 471.97 50.7727 465.298 49.0526C460.166 47.7296 454.795 47.2531 449.611 48.3604L444.062 49.5457C432.552 52.0044 425.035 63.1202 427.04 74.7191L428.315 82.0911C428.81 84.954 427.794 87.8705 425.628 89.8076C420.964 94.7019 417.129 100.315 414.072 106.345C410.912 112.577 406.978 119.952 405.356 121.407C402.888 123.633 401.402 124.253 401.026 124.385C400.962 124.407 400.794 124.449 400.728 124.463C398.059 125.069 395.831 122.351 395.939 119.616C395.97 118.852 396.138 117.957 396.519 116.916C397.27 114.84 397.466 112.319 397.459 110.213C397.45 107.344 396.533 104.585 395.272 102.008C392.22 95.7683 386.945 90.897 380.483 88.351L379.77 88.07C374.633 86.046 369.035 85.4894 363.598 86.4622L360.645 86.9908C354.837 88.0302 348.872 87.7845 343.17 86.271L333.661 83.7468C321.476 80.5125 308.5 84.306 299.969 93.5964L298.571 95.1188C292.264 101.987 289.537 111.412 291.201 120.585C292.297 126.621 291.501 132.849 288.923 138.417L283.632 149.846C277.706 161.493 269.325 171.716 259.067 179.81L255.191 182.868L243.119 190.934C239.175 193.569 237.426 198.478 238.814 203.012C240.134 207.323 244.007 210.348 248.508 210.585L249.793 210.653C251.288 210.732 252.785 210.543 254.214 210.095L260.207 208.218C263.867 207.071 267.689 206.524 271.524 206.596L278.398 206.726C283.268 206.819 287.983 205.005 291.538 201.673C293.465 199.866 294.987 197.672 296.005 195.235L300.053 185.545C303.524 178.624 308.455 172.538 314.504 167.707L321.358 162.235L323.756 160.011C331.324 152.993 343.217 153.718 349.869 161.603C354.367 166.934 355.397 174.378 352.516 180.734L347.913 190.892L338.537 206.776L331.473 217.324C329.761 219.879 329.515 223.145 330.824 225.927C331.881 228.172 331.935 230.761 330.973 233.05L330.682 233.742C329.319 236.983 326.418 239.322 322.963 239.965L312.98 241.822C304.245 243.447 297.504 249.818 296.592 258.658C295.913 265.243 293.668 272.767 289.412 277.838L279.605 289.523C275.312 295.917 279.456 304.167 285.821 308.495C288.211 310.12 289.655 312.117 288.818 314.491C286.141 322.144 290.642 332.551 297.174 330.605C304.447 328.465 319.117 330.226 315.172 336.703C313.254 339.85 299.628 341.32 293.283 341.839C291.193 342.01 289.222 342.883 287.728 344.356C283.451 348.576 276.278 347.22 273.84 341.73L270.968 335.264C270.536 334.29 270.22 333.268 270.028 332.22L268.301 322.798C268.296 322.773 268.294 322.763 268.293 322.756C268.291 322.746 268.29 322.741 268.284 322.705C266.998 315.126 259.707 310.284 252.191 311.892L247.118 312.977C245.974 313.221 244.854 313.57 243.773 314.017L237.728 316.516C225.141 321.721 215.45 332.271 211.943 345.434C211.151 348.409 210.39 351.381 209.747 354.105C208.04 361.33 211.892 368.102 219.312 368.177C224.413 368.229 229.673 366.351 231.372 359.087C231.791 357.298 233.098 355.77 234.904 355.435C235.476 355.329 236.064 355.346 236.629 355.487L244.292 357.393L253.123 358.669C258.968 359.514 264.414 362.13 268.727 366.165C268.752 366.189 268.778 366.213 268.803 366.237C269.088 366.501 269.38 366.772 269.509 367.136C269.912 368.273 269.855 371.383 262.982 378.108C255.83 385.115 256.644 388.677 257.355 389.912C257.504 390.17 257.7 390.397 257.896 390.623C257.985 390.726 258.074 390.83 258.159 390.936L258.799 391.738C259.118 392.138 259.54 392.443 260.019 392.621C261.847 393.302 262.267 395.56 260.374 396.029Z" fill="white"/>
<path fill-rule="evenodd" clip-rule="evenodd" d="M658.025 147.652C654.3 147.875 650.776 145.955 648.947 142.707C648.305 141.567 647.899 140.308 647.754 139.007L646.886 131.225C646.622 128.857 646.335 126.43 645.26 124.303C642.92 119.673 639.178 119.822 634.047 120.026C633.668 120.041 633.282 120.056 632.889 120.07C625.733 120.32 619.035 117.344 612.85 113.747L606.527 110.069C605.419 109.425 604.392 108.649 603.469 107.759C597.873 102.366 589.205 101.774 582.916 106.355L576.706 110.88C571.813 114.445 565.8 116.129 559.77 115.625L551.166 114.905C549.298 114.749 547.543 113.946 546.204 112.635C541.86 108.379 543.631 101.026 549.439 99.2017L555.329 97.3521C557.973 96.5218 560.239 94.785 561.728 92.4483L565.302 86.8399C566.926 84.2907 567.946 81.4047 568.284 78.4025C568.626 75.3563 568.258 72.2729 567.206 69.3948L564.863 62.9832C564.005 60.6353 563.836 58.0906 564.376 55.6484C565.775 49.3209 571.58 44.953 578.049 45.3615L578.968 45.4195C582.624 45.6503 586.048 47.2829 588.526 49.9766L595.092 57.1154C599.815 62.2502 606.465 65.1875 613.448 65.2233L618.043 65.2468C621.474 65.2643 624.784 63.9767 627.302 61.6451C633.656 55.7625 632.917 45.5159 625.788 40.618L618.604 35.6828C617.128 34.6688 615.88 33.3582 614.94 31.8347C610.938 25.3519 613.412 16.8273 620.267 13.4807L626.5 10.4373C627.43 9.98329 628.395 9.60521 629.386 9.30672L639.963 6.12C659.065 0.365008 679.094 -1.70821 698.933 0.313579C715.041 1.95505 732.605 3.90827 737.695 5.08845C740.725 5.79077 746.763 6.93155 754.123 8.32192C771.2 11.5479 795.389 16.1175 805.605 19.6718C816.665 23.5199 834.467 30.4461 842.479 33.59C845.246 34.676 847.96 35.8675 850.638 37.1581C859.69 41.5215 869.24 44.7712 879.078 46.8362L888.275 48.7668C911.67 53.6775 934 62.7088 954.221 75.4388L958.578 78.1816L1018.93 119.233L1054.97 140.88C1070.82 148.465 1085.74 157.844 1099.44 168.832L1100.8 169.922L1125.81 192.353C1126.48 192.951 1127.13 193.566 1127.76 194.196C1128.69 195.116 1130.21 196.616 1131.93 198.288C1138.41 204.593 1145.06 211.933 1149.93 219.549C1152.82 224.064 1156.68 227.876 1161.23 230.703L1165.53 233.369C1168.03 234.922 1170.41 236.663 1172.65 238.577L1183.59 247.925C1186.14 250.111 1188.41 252.617 1190.32 255.382L1193.77 260.361C1195.22 262.453 1196.13 264.873 1196.4 267.403L1196.64 269.596C1196.83 271.336 1196.47 273.093 1195.62 274.62C1193.59 278.231 1189.24 279.832 1185.36 278.395L1174.98 274.554C1173.74 274.092 1172.44 273.763 1171.13 273.572C1165.77 272.794 1160.33 274.346 1156.18 277.838L1154.48 279.271C1153.8 279.843 1153.19 280.489 1152.65 281.197C1149.35 285.568 1143.49 287.115 1138.47 284.94L1134.85 283.373C1130.96 281.69 1127.85 278.604 1126.14 274.731L1117.79 255.859L1117.61 255.471C1111.99 243.289 1102.84 233.07 1091.36 226.122L1080.3 220.818C1078.8 220.102 1077.17 219.717 1075.51 219.69L1074.18 219.668C1069.47 219.592 1065.35 222.851 1064.35 227.455C1063.57 231.008 1064.81 234.696 1067.58 237.058L1078.25 246.186C1080.23 247.873 1081.86 249.917 1083.08 252.211L1088.29 262.065C1089.12 263.631 1088.9 265.545 1087.74 266.887C1086.8 267.972 1085.39 268.52 1083.96 268.349L1073.53 267.097C1070.84 266.774 1068.11 266.908 1065.46 267.494L1056.98 269.373L1049.84 270.671C1046.7 271.241 1043.78 272.653 1041.38 274.755L1040.42 275.599C1037.57 278.104 1033.85 279.386 1030.06 279.167L1026.83 278.876C1024.41 278.659 1022.02 279.511 1020.28 281.208C1018.92 282.54 1018.06 284.3 1017.84 286.191L1017.6 288.337C1017.37 290.366 1017.57 292.421 1018.2 294.365L1019.53 298.503C1019.55 298.576 1019.57 298.638 1019.6 298.711C1020.05 300.145 1025.32 316.841 1026.91 320.803C1028.59 324.95 1032.01 329.188 1036.04 331.674C1038.07 332.928 1042.75 334.902 1046.89 336.551C1050.51 337.993 1051.63 342.622 1049 345.504L1049 345.507C1049 345.512 1048.99 345.516 1048.99 345.521C1048.82 345.695 1045.97 348.487 1037.61 345.653C1033.81 344.377 1030.82 342.013 1027.74 339.581C1023.8 336.471 1019.72 333.25 1013.64 332.047C1007.82 330.882 1001.96 334.334 996.615 337.486C991.986 340.215 987.739 342.719 984.229 341.805C980.994 340.963 979.001 337.75 977.146 334.759C974.664 330.758 972.429 327.156 967.796 330.163C963.51 332.945 969.799 342.059 976.578 351.885C982.604 360.619 989.018 369.915 988.738 375.826C988.556 379.677 986.367 381.307 983.419 381.716C983.131 381.756 982.842 381.796 982.552 381.836C972.882 383.17 962.308 384.629 957.749 393.191L953.751 400.701C951.8 404.365 947.471 406.065 943.549 404.708C939.476 403.298 937.129 399.046 938.139 394.855C940.354 385.666 944.026 370.85 945.265 368.292C947.103 364.566 945.554 351.004 941.106 338.827C937.864 329.98 933.753 329.639 929.994 329.326C928.589 329.21 927.233 329.097 925.99 328.546C923.202 327.307 923.27 324.257 923.38 319.348C923.449 316.257 923.535 312.43 922.934 307.854C922.035 301.005 916.633 300.496 912.238 301.284C912.002 301.326 911.766 301.369 911.529 301.412C907.799 302.086 904.006 302.771 900.267 302.215C896.193 301.608 892.03 302.257 888.331 304.073L884.631 305.891C880.862 307.742 877.707 310.64 875.546 314.239L873.907 316.967C872.431 319.423 870.166 321.309 867.481 322.315C862.373 324.231 856.615 322.667 853.184 318.434L851.775 316.694C848.618 312.798 847.504 307.632 848.774 302.778L849.035 301.781C850.233 297.205 849.563 292.345 847.171 288.268L837.706 272.136L830.555 259.947C826.774 253.502 821.463 248.088 815.091 244.18C812.811 242.782 810.411 241.587 807.921 240.609L793.685 235.022C788.5 232.987 783.659 230.167 779.332 226.662C776.002 223.964 773.026 220.869 770.261 217.595C765.891 212.421 758.992 204.91 754.707 203.525C737.001 197.803 750.821 236.03 767.672 243.916C774.027 246.89 779.922 249.759 783.626 251.814C795.081 258.168 785.867 265.295 780.842 266.911C777.558 267.977 769.927 269.263 765.078 270.02C762.249 270.462 759.547 271.519 757.197 273.155C752.645 276.324 749.777 281.386 749.401 286.915L749.248 289.171C749.063 291.892 748.395 294.56 747.274 297.048L745.773 300.38C743.378 305.697 739.819 310.409 735.358 314.17C732.542 316.544 729.401 318.497 726.08 320.09C718.314 323.816 703.957 331.186 700.679 336.222C696.185 343.126 695.537 350.978 694.895 358.764C694.2 367.175 693.512 375.51 687.988 382.489C686.049 384.939 684.531 386.92 683.883 387.907C682.777 389.591 682.564 389.914 682.319 390.211C681.957 390.648 681.524 391.026 678.044 395.629C674.071 400.885 665.617 407.851 660.621 411.766C658.032 413.795 655.617 416.035 653.487 418.541L653.206 418.871C645.414 428.039 636.563 433.502 624.538 433.135C615.475 432.859 604.837 428.157 598.827 421.377L595.434 417.549C588.117 406.8 587.841 392.741 594.73 381.698L595.024 381.226C597.236 377.68 598.77 373.753 599.547 369.648L602.697 353C604.04 337.809 597.727 323.027 586.329 312.904C578.807 306.223 571.439 299.261 569.57 296.076C566.1 290.162 569.732 283.638 573.448 276.963C575.587 273.122 577.753 269.232 578.61 265.378L579.214 262.664C582.642 247.25 579.087 231.117 569.499 218.582L557.194 202.495L541.182 183.358C536.471 177.728 535.349 169.918 538.284 163.183C541.155 156.591 547.437 152.123 554.606 151.572L566.397 150.665C567.274 150.598 568.15 150.559 569.03 150.579C574.856 150.716 598.568 151.994 610.579 163.67C618.969 171.827 631.658 171.105 644.447 170.377C651.881 169.954 659.349 169.529 666.026 170.844L671.289 171.881L680.712 174.335C685.407 175.557 689.95 171.887 689.74 167.042C689.676 165.551 689.149 164.116 688.233 162.938L684.782 158.497L679.208 152.955C675.242 149.012 669.78 146.949 664.193 147.283L658.025 147.652ZM661.26 145.031C658.154 145.126 655.237 143.552 653.613 140.906C653.06 140.003 652.676 139.006 652.482 137.965L650.221 125.821C648.195 118.188 645.222 118.304 640.073 118.506C637.26 118.616 633.797 118.751 629.483 117.663L620.285 114.809C616.656 113.682 613.309 111.797 610.466 109.277C602.165 101.919 590.177 100.446 580.325 105.572L569.605 111.151C565.069 113.511 559.757 113.879 554.943 112.166L553.435 111.629C553.095 111.508 552.77 111.348 552.467 111.152C549.368 109.147 549.724 104.507 553.093 102.991L561.617 99.1541C563.428 98.3391 564.947 96.9918 565.972 95.292L569.25 89.8569C570.326 88.0718 571.161 86.152 571.732 84.1478C573.061 79.482 572.915 74.5214 571.315 69.9448L569.158 63.7796C568.698 62.4644 568.54 61.0623 568.696 59.6771L568.784 58.8963C569.39 53.5071 574.754 49.9948 579.937 51.5932C581.183 51.9775 582.325 52.6385 583.279 53.5267L592.779 62.3759C598.979 68.1512 607.289 71.1152 615.752 70.5699L622.313 70.1472C626.595 69.8713 630.575 67.8431 633.315 64.5408C638.242 58.6046 638.085 49.9645 632.946 44.2219L621.197 31.0912C619.93 29.6754 619.188 27.8679 619.093 25.97C618.917 22.4482 620.983 19.1961 624.248 17.8562L636.019 13.0264C637.218 12.5344 638.452 12.1317 639.71 11.8215L649.805 9.33237C667.775 4.90164 686.357 3.44793 704.764 5.32132C719.578 6.82903 735.72 8.62689 740.531 9.74251C742.472 10.1925 745.858 10.9363 750.136 11.8762C766.88 15.5548 797.302 22.2384 808.343 26.0791C813.714 27.9473 820.57 30.8632 826.954 33.7346C839.716 39.474 852.687 44.7699 866.064 48.8818L884.716 53.108C909.385 58.6974 932.898 68.5033 954.218 82.0934L1010.96 118.805L1044.21 140.627L1066.14 153.686L1071.3 156.165C1085.52 163 1098.41 172.308 1109.37 183.655L1112.36 186.753C1113.65 188.089 1115.01 189.352 1116.44 190.538C1116.99 190.999 1117.64 191.53 1118.33 192.105C1126.65 198.963 1134.9 207.199 1141.11 216.012C1142.44 217.899 1143.91 219.681 1145.51 221.345L1148.54 224.503C1153.29 229.444 1158.52 233.899 1164.15 237.804L1167.86 240.378C1173.12 244.022 1178 248.192 1182.41 252.822L1187.56 258.225C1188.42 259.131 1189.2 260.12 1189.87 261.178L1193.02 266.171C1194.16 267.966 1194.41 270.185 1193.69 272.187C1192.42 275.729 1188.55 277.611 1184.99 276.421L1174.4 272.889C1170.1 271.454 1165.41 271.667 1161.26 273.486L1159.41 274.294C1157.19 275.265 1155.28 276.82 1153.87 278.792L1153.75 278.961C1150.88 282.98 1145.99 285.042 1141.12 284.291C1137.4 283.718 1134.11 281.569 1132.09 278.395L1130.44 275.792C1129.68 274.598 1129.05 273.326 1128.56 271.998L1122.94 256.682C1120.63 250.398 1117.07 244.648 1112.48 239.776C1110.15 237.306 1107.58 235.082 1104.8 233.137L1087.92 221.344C1086.06 220.044 1083.97 219.109 1081.76 218.591L1080.26 218.239C1074.5 216.888 1068.48 218.941 1064.74 223.526C1060.89 228.373 1061.41 235.36 1065.93 239.575L1077.92 250.743C1078.36 251.151 1078.75 251.608 1079.08 252.106L1084.28 259.91C1086.09 262.624 1083.76 266.185 1080.54 265.614C1080.35 265.579 1080.15 265.561 1079.96 265.557L1071.22 265.411C1064.96 265.306 1058.7 265.887 1052.57 267.142L1046.27 269.094C1044.03 269.787 1041.97 270.977 1040.26 272.573L1039.74 273.055C1036.74 275.844 1032.68 277.187 1028.61 276.733L1028.25 276.692C1026.99 276.551 1025.72 276.615 1024.48 276.879L1023.93 276.998C1022 277.41 1020.23 278.39 1018.86 279.811C1018.23 280.464 1017.7 281.199 1017.27 281.997L1016.81 282.842C1015.59 285.12 1014.9 287.667 1014.81 290.25C1014.73 292.624 1015.15 295.004 1016.03 297.207C1017.58 301.053 1020.05 307.175 1021.09 309.771C1021.47 310.698 1021.98 312.221 1022.58 314.037C1024.54 319.917 1027.53 328.875 1030.45 330.675C1032.79 332.118 1035.71 334.37 1037.61 335.898C1038.96 336.972 1040.45 337.839 1042.07 338.42C1047.72 340.445 1049.94 347.446 1044.17 345.797C1043.93 345.726 1043.67 345.647 1043.41 345.557C1039.91 344.382 1035.83 341.74 1031.51 338.939C1025.7 335.174 1019.45 331.122 1013.56 329.956C1008.03 328.85 1002.61 332.284 997.651 335.417C993.37 338.124 989.443 340.608 986.118 339.742C983.564 339.077 982.033 336.718 980.45 334.279C977.589 329.87 974.556 325.198 964.996 329.789C961.818 331.614 967.188 340.244 973.169 349.855C978.962 359.165 985.328 369.395 985.052 375.253C984.876 378.977 982.942 380.677 980.368 381.255C979.096 381.54 977.795 381.799 976.488 382.059C969.297 383.491 961.923 384.96 958.165 391.068L952.422 400.406C950.805 403.034 947.368 403.862 944.736 402.258C942.674 401.001 941.651 398.576 942.212 396.227C944.065 388.463 948.155 371.663 949.473 368.942C951.216 365.412 948.46 348.941 944.241 337.4C941.115 328.878 936.342 328.256 932.316 327.731C930.901 327.547 929.578 327.374 928.451 326.875C925.983 325.778 926.265 322.658 926.679 318.082C926.988 314.67 927.37 310.449 926.74 305.656C925.71 297.827 916.125 297.531 910.423 298.068C910.015 298.106 909.607 298.146 909.199 298.186C906.785 298.421 904.368 298.657 901.944 298.613C892.69 298.447 883.73 301.88 876.953 308.187L875.751 309.306L867.967 317.863C867.373 318.516 866.67 319.062 865.891 319.476C861.738 321.684 856.596 319.673 855.052 315.236L853.917 311.976C853.395 310.477 853.217 308.879 853.394 307.301L853.75 304.137C854.274 299.481 853.464 294.78 851.39 290.581C847.614 282.938 841.551 270.775 839.505 267.29C837.676 264.173 832.917 257.352 829.372 252.351C826.578 248.409 823.062 245.039 819.037 242.366C816.058 240.388 812.829 238.815 809.435 237.688L804.167 235.939C793.646 232.447 784.402 225.913 777.603 217.165C772.682 210.833 766.511 205.506 759.169 202.271C756.93 201.285 754.7 200.379 752.865 199.786C729.439 192.216 749.46 243.223 772.81 251.022C776.21 252.158 779.037 253.275 780.923 254.321C791.785 260.344 784.39 264.327 779.626 265.858C776.485 266.876 771.275 267.131 768.116 267.187C766.33 267.219 764.548 267.391 762.804 267.783C754.817 269.58 748.479 275.652 746.345 283.552L744.349 290.942C743.707 293.32 742.813 295.623 741.683 297.813L740.415 300.269C738.413 304.147 735.863 307.718 732.844 310.871C728.842 315.05 724.066 318.391 718.926 321.051C711.994 324.638 702.596 330.022 699.967 334.061C696.229 339.802 693.704 345.562 693.269 352.395C692.736 360.742 691.767 371.511 690.224 373.86C689.314 375.244 688.853 376.097 688.399 376.936C687.557 378.491 686.742 379.997 683.146 384.752C677.785 391.84 668.993 400.64 668.446 401.187L668.392 401.241L653.835 415.74C646.169 423.375 636.342 428.853 625.531 429.204C624.621 429.234 623.72 429.247 622.84 429.241C618.783 429.212 614.958 427.691 611.458 425.645L608.366 423.839C601.137 419.614 596.123 412.436 594.644 404.196C593.585 398.299 594.404 392.217 596.986 386.805L601.685 376.955C605.56 368.832 607.637 359.971 607.775 350.976L607.843 346.55C607.153 335.974 602.391 326.103 594.791 318.719C587.605 311.737 579.466 303.472 577.383 299.924C572.44 291.505 576.251 281.848 580.161 271.941C583.172 264.308 586.243 256.527 585.414 249.05C584.289 238.903 580.666 229.053 574.893 220.635L561.562 201.196L545.606 182.548C540.766 176.891 540.671 168.58 545.38 162.804C547.996 159.597 551.79 157.573 555.911 157.189L574.835 155.424C578.813 155.053 582.834 155.031 586.696 156.05C592.794 157.661 602.57 161.318 610.799 169.313C615.709 174.084 621.936 175.658 627.793 175.766C632.22 175.848 636.686 175.562 641.152 175.277C649.073 174.77 656.994 174.264 664.693 175.807L681.414 179.159C684.173 179.712 687.04 179.285 689.52 177.952L689.898 177.75C692.391 176.41 694.273 174.163 695.156 171.476C696.383 167.74 695.525 163.637 692.905 160.708L692.577 160.341L682.998 150.764C679.039 146.804 673.617 144.656 668.015 144.826L661.26 145.031Z" fill="white"/>
<path fill-rule="evenodd" clip-rule="evenodd" d="M1077.93 329.789C1079.16 330.254 1080.36 330.808 1081.51 331.446C1087.34 334.669 1091.79 339.913 1094.02 346.188L1096.17 352.21C1098.6 359.037 1102.67 365.163 1108.02 370.047L1114.22 375.708C1117.18 378.404 1119.77 381.475 1121.93 384.844C1126.73 392.339 1133.61 398.274 1141.72 401.921L1146.09 403.885C1151.94 406.518 1157.35 410.048 1162.13 414.348L1171.72 422.991C1174.47 425.467 1177.88 427.09 1181.53 427.662L1184.57 428.139C1187.67 428.626 1190.84 427.842 1193.35 425.964C1199.86 421.098 1199.56 410.804 1195.06 404.006C1194.66 403.41 1194.28 402.795 1193.91 402.16C1190.8 396.814 1187.54 390.279 1185.49 386.047C1184.11 383.194 1181.97 380.772 1179.28 379.105C1173.86 375.751 1166.93 376.172 1160.67 377.282C1155.99 378.113 1150.06 377.887 1143.92 374.364C1137.48 370.676 1134.77 362.894 1133.7 355.646C1132.27 345.96 1128.44 336.255 1120.47 330.564C1119.16 329.627 1117.76 328.81 1116.3 328.124L1104.35 322.507C1101.18 321.02 1098.44 318.771 1096.35 315.961L1091.8 309.829C1089.77 307.095 1086.36 305.754 1083.02 306.374L1065 307.743L1062.35 307.948C1058.97 308.209 1056.15 310.616 1055.35 313.914C1054.42 317.769 1056.52 321.719 1060.23 323.118L1077.93 329.789ZM1076.96 326.62C1078.86 327.262 1080.66 328.144 1082.34 329.245L1086.15 331.758C1092.37 335.852 1096.65 342.325 1097.97 349.656C1099 355.352 1101.82 360.575 1106.01 364.56L1113.72 371.873C1115.91 373.955 1117.94 376.201 1119.79 378.591L1122.7 382.341C1125.18 385.546 1127.97 388.504 1131.02 391.175L1131.31 391.432C1136.2 395.711 1141.74 399.177 1147.72 401.697L1151.95 403.478C1155.74 405.074 1159.22 407.329 1162.22 410.138L1175.47 422.508C1179.63 426.393 1185.91 426.882 1190.6 423.687C1194.87 420.775 1196.86 415.445 1194.93 410.629C1193.85 407.931 1192.47 404.901 1190.82 402.087C1187.77 396.88 1184.03 390.569 1181.99 387.122C1180.99 385.436 1179.68 383.955 1178.13 382.754L1177.9 382.573C1173.4 379.079 1166.7 379.466 1159.98 379.855C1153.86 380.208 1147.72 380.563 1143.22 377.99C1136.86 374.358 1133.02 364.084 1130.79 355.148C1128.46 345.753 1123.42 336.988 1115.36 331.64L1099.93 323.841C1097.35 322.537 1095.17 320.547 1093.64 318.089L1090.54 313.114C1088.99 310.614 1086.06 309.318 1083.18 309.847L1067.36 311.017L1064.62 311.223C1061.98 311.422 1059.85 313.479 1059.56 316.121C1059.27 318.708 1060.83 321.15 1063.29 321.985L1076.96 326.62Z" fill="white"/>
<path fill-rule="evenodd" clip-rule="evenodd" d="M843.932 468.753C847.388 466.912 850.893 465.045 854.689 464.336L873.995 460.73C888.916 456.045 905.003 456.716 919.477 462.626L919.833 462.771C926.095 465.328 931.941 468.803 937.179 473.08L947.067 481.156C947.477 481.491 947.881 481.824 948.269 482.184C950.117 483.898 955.908 489.749 959.621 498.898C960.128 500.147 960.566 501.257 960.956 502.245C963.999 509.964 964.114 510.254 971.483 511.417C979.796 512.727 984.029 516.402 979.396 520.88C974.763 525.359 974.532 536.178 977.926 543.061C979.363 545.974 982.948 547.174 986.437 548.342C990.358 549.654 994.158 550.926 994.653 554.541L994.698 554.864C994.805 555.648 994.78 556.439 994.726 557.229C994.414 561.77 996.152 567.482 997.655 572.421C999.02 576.905 1000.19 580.753 999.457 582.51C997.844 586.373 983.984 596.054 973.947 596.422C967.841 596.647 957.355 590.348 947.754 584.58C946.193 583.643 944.656 582.72 943.165 581.841C936.066 577.656 929.622 571.822 926.631 564.144C925.662 561.655 924.725 559.057 923.997 556.657C922.912 553.077 920.915 549.714 917.838 547.586C913.641 544.684 912.079 539.355 910.581 534.245C910.207 532.972 909.838 531.713 909.433 530.508C909.306 530.128 909.157 529.747 908.985 529.368C907.072 525.187 897.299 530.477 890.002 534.426C887.111 535.991 884.609 537.345 883.138 537.817C881.533 538.331 878.109 538.063 873.955 537.396C858.207 534.871 848.129 519.863 846.261 504.027C845.196 495.006 840.905 493.318 835.117 492.319C829.54 491.355 826.301 486.064 827.732 480.588C828.732 476.763 831.807 473.856 835.541 472.553C837.311 471.936 839.26 471.162 841.103 470.233C842.045 469.758 842.987 469.256 843.932 468.753ZM849.851 471.768C853.123 470.037 856.412 468.298 859.938 467.385L876.469 463.106L877.347 462.906C891.219 459.747 905.733 461.071 918.799 466.686C925.034 469.365 930.826 472.974 935.979 477.388L943.148 483.531C943.454 483.793 943.762 484.053 944.069 484.314C945.247 485.31 946.424 486.306 947.506 487.405C949.901 489.835 953.801 494.482 956.536 501.189C960.594 511.138 960.852 511.179 967.872 512.276C968.132 512.317 968.402 512.359 968.682 512.403C976.498 513.638 980.48 517.086 976.128 521.279C971.777 525.473 972.987 539.277 976.183 545.731C976.735 546.846 977.441 547.563 978.231 547.986C979.478 548.654 980.932 549.17 982.389 549.686C985.834 550.907 989.292 552.133 990.045 555.391C990.232 556.197 990.243 557.029 990.194 557.855C989.945 562.088 991.551 567.382 992.943 571.968C994.221 576.181 995.317 579.796 994.629 581.442C993.116 585.062 980.501 591.738 971.066 592.075C965.458 592.276 956.447 586.358 948.022 580.824C946.267 579.672 944.537 578.536 942.869 577.475C936.811 573.623 931.454 568.135 929.498 561.228C929.069 559.717 928.648 558.162 928.268 556.644C927.139 552.145 924.361 548.095 920.26 545.928C914.178 542.713 912.184 535.311 910.626 528.61C910.464 527.917 910.245 527.243 909.956 526.608C908.04 522.441 896.457 527.678 888.889 531.101C886.517 532.173 884.539 533.068 883.377 533.438C865.265 539.213 850.884 518.349 848.655 499.478C848.627 499.238 848.599 499 848.571 498.763C847.544 490.152 843.297 489.486 837.649 489.088C833.035 488.763 831.007 483.922 833.485 480.016C834.484 478.441 836.069 477.338 837.861 476.82C839.773 476.268 842.409 475.406 844.954 474.24C846.601 473.486 848.224 472.628 849.851 471.768Z" fill="white"/>
<path fill-rule="evenodd" clip-rule="evenodd" d="M736.244 369.665C737.555 361.899 743.339 355.126 750.978 353.277C751.895 353.055 752.829 352.814 753.768 352.572C758.134 351.447 762.605 350.296 765.93 350.865C771.421 351.772 767.797 356.971 763.522 363.103C760.22 367.841 756.529 373.135 756.354 377.437C756.216 380.835 756.16 384.088 756.288 386.342C756.362 387.65 756.061 388.852 755.521 389.943C751.918 397.211 744.784 404.524 736.734 405.492C730.216 406.276 732.08 394.753 733.503 388.333C734.624 383.279 735.735 377.558 735.764 374.625C735.78 372.957 735.967 371.305 736.244 369.665ZM738.004 369.933C738.588 363.467 743.111 357.821 749.406 356.291C750.161 356.107 750.931 355.908 751.704 355.708C755.301 354.778 758.984 353.826 761.722 354.295C766.253 355.042 763.262 359.334 759.736 364.395C757.013 368.303 753.97 372.67 753.825 376.217C753.709 379.023 753.661 381.71 753.766 383.571C753.826 384.649 753.578 385.641 753.133 386.541C750.165 392.536 744.291 398.576 737.653 399.379C733.044 399.937 734.629 392.456 735.748 387.176C735.889 386.51 736.022 385.879 736.135 385.304C736.948 381.159 737.766 376.406 737.791 373.952C737.805 372.603 737.884 371.264 738.004 369.933Z" fill="white"/>
<path fill-rule="evenodd" clip-rule="evenodd" d="M979.449 436.591C979.486 437.346 979.598 438.208 979.806 438.938C984.478 455.342 1018.34 483.321 1035.09 483.65C1036.49 483.677 1037.48 483.563 1037.88 483.407C1040.2 482.494 1043.43 467.945 1041.2 462.246C1039.28 457.348 1034.8 454.376 1030.48 451.507C1025.31 448.075 1020.36 444.791 1020.3 438.536C1020.26 434.571 1020.68 430.377 1021.06 426.63C1021.65 420.81 1022.13 416.066 1020.6 414.927C1018.05 413.046 1014.91 416.99 1011.76 420.935C1009.69 423.516 1007.63 426.098 1005.74 427.048C1002.68 428.587 998.193 426.602 993.428 424.492C990.758 423.31 988 422.089 985.353 421.426C979.101 419.884 979.256 432.659 979.449 436.591ZM985.002 438.757C985.031 439.383 985.123 440.104 985.293 440.71C989.127 454.397 1017.15 477.79 1031.11 478.036C1032.27 478.056 1033.1 477.958 1033.43 477.826C1035.36 477.057 1038.07 464.868 1036.23 460.101C1034.64 455.985 1030.87 453.518 1027.22 451.126C1022.93 448.315 1018.8 445.609 1018.55 440.457C1018.39 437.072 1018.63 433.477 1018.84 430.275C1019.16 425.426 1019.42 421.478 1018.15 420.531C1016.09 418.999 1013.91 422.112 1011.66 425.338C1010.09 427.579 1008.48 429.874 1006.85 430.702C1004.3 431.997 1000.58 430.344 996.631 428.588C994.416 427.603 992.128 426.587 989.932 426.038C984.739 424.758 984.849 435.476 985.002 438.757Z" fill="white"/>
<path fill-rule="evenodd" clip-rule="evenodd" d="M1039.34 378.774C1038.39 377.872 1037.12 377.393 1035.81 377.446C1032.18 377.592 1029.96 381.52 1031.75 384.658L1035.64 391.512C1036.42 392.897 1036.85 394.458 1036.88 396.054L1036.93 399.417C1037.09 408.717 1043.97 416.49 1053.21 417.807L1069.51 420.146C1075.04 420.94 1079.94 416.442 1079.59 410.884C1079.5 409.435 1079.78 407.983 1080.39 406.661L1081.22 404.86C1083.82 399.256 1083.1 392.704 1079.34 387.85L1073.27 380.022C1069.17 374.728 1061.16 374.65 1056.87 379.863C1052.98 384.594 1045.89 385.045 1041.5 380.841L1039.34 378.774ZM1039.33 382.153C1038.77 381.732 1038.1 381.498 1037.4 381.485C1034.82 381.439 1033.17 384.225 1034.47 386.433L1038.49 393.279C1039.14 394.397 1039.51 395.663 1039.54 396.961L1039.6 399.565C1039.8 407.748 1045.87 414.564 1053.99 415.748L1068.56 417.884C1073.25 418.573 1077.41 414.733 1077.07 410.017C1076.98 408.762 1077.22 407.503 1077.76 406.359L1078.47 404.836C1080.7 400.088 1080.06 394.515 1076.81 390.438L1071.56 383.857C1067.79 379.121 1060.57 379.061 1056.64 383.733C1053.31 387.687 1047.47 388.353 1043.39 385.244L1039.33 382.153Z" fill="white"/>
<path fill-rule="evenodd" clip-rule="evenodd" d="M119.5 247C119.5 247 157 222.182 157 193.227C157 183.354 153.049 173.885 146.017 166.904C138.984 159.922 129.446 156 119.5 156C109.554 156 100.016 159.922 92.9835 166.904C85.9509 173.885 82 183.354 82 193.227C82 222.182 119.5 247 119.5 247ZM131.219 193.229C131.219 200.083 125.71 205.638 118.914 205.638C112.118 205.638 106.609 200.083 106.609 193.229C106.609 186.376 112.118 180.82 118.914 180.82C125.71 180.82 131.219 186.376 131.219 193.229Z" fill="#12E2B0"/>
<path fill-rule="evenodd" clip-rule="evenodd" d="M391.5 414C391.5 414 429 389.182 429 360.227C429 350.354 425.049 340.885 418.017 333.904C410.984 326.922 401.446 323 391.5 323C381.554 323 372.016 326.922 364.983 333.904C357.951 340.885 354 350.354 354 360.227C354 389.182 391.5 414 391.5 414ZM403.219 360.229C403.219 367.083 397.71 372.638 390.914 372.638C384.118 372.638 378.609 367.083 378.609 360.229C378.609 353.376 384.118 347.82 390.914 347.82C397.71 347.82 403.219 353.376 403.219 360.229Z" fill="#12E2B0"/>
<path fill-rule="evenodd" clip-rule="evenodd" d="M657.5 299C657.5 299 695 274.182 695 245.227C695 235.354 691.049 225.885 684.017 218.904C676.984 211.922 667.446 208 657.5 208C647.554 208 638.016 211.922 630.983 218.904C623.951 225.885 620 235.354 620 245.227C620 274.182 657.5 299 657.5 299ZM669.219 245.229C669.219 252.083 663.71 257.638 656.914 257.638C650.118 257.638 644.609 252.083 644.609 245.229C644.609 238.376 650.118 232.82 656.914 232.82C663.71 232.82 669.219 238.376 669.219 245.229Z" fill="#12E2B0"/>
<path fill-rule="evenodd" clip-rule="evenodd" d="M876.5 292C876.5 292 914 267.182 914 238.227C914 228.354 910.049 218.885 903.017 211.904C895.984 204.922 886.446 201 876.5 201C866.554 201 857.016 204.922 849.983 211.904C842.951 218.885 839 228.354 839 238.227C839 267.182 876.5 292 876.5 292ZM888.219 238.229C888.219 245.083 882.71 250.638 875.914 250.638C869.118 250.638 863.609 245.083 863.609 238.229C863.609 231.376 869.118 225.82 875.914 225.82C882.71 225.82 888.219 231.376 888.219 238.229Z" fill="#12E2B0"/>
<path fill-rule="evenodd" clip-rule="evenodd" d="M876.5 497C876.5 497 914 472.182 914 443.227C914 433.354 910.049 423.885 903.017 416.904C895.984 409.922 886.446 406 876.5 406C866.554 406 857.016 409.922 849.983 416.904C842.951 423.885 839 433.354 839 443.227C839 472.182 876.5 497 876.5 497ZM888.219 443.229C888.219 450.083 882.71 455.638 875.914 455.638C869.118 455.638 863.609 450.083 863.609 443.229C863.609 436.376 869.118 430.82 875.914 430.82C882.71 430.82 888.219 436.376 888.219 443.229Z" fill="#12E2B0"/>
</g>
<defs>
<clipPath id="clip0_4421_23575">
<rect width="1200" height="598" fill="white"/>
</clipPath>
</defs>
</svg>
