<svg width="28" height="27" viewBox="0 0 28 27" fill="none" xmlns="http://www.w3.org/2000/svg">
<path d="M19.1749 6.5475C18.4059 5.66957 17.9821 4.54211 17.9824 3.375H14.5062V17.325C14.4794 18.0799 14.1607 18.7949 13.6172 19.3196C13.0737 19.8442 12.3478 20.1374 11.5924 20.1375C9.99493 20.1375 8.66743 18.8325 8.66743 17.2125C8.66743 15.2775 10.5349 13.8263 12.4587 14.4225V10.8675C8.57743 10.35 5.17993 13.365 5.17993 17.2125C5.17993 20.9587 8.28493 23.625 11.5812 23.625C15.1137 23.625 17.9824 20.7563 17.9824 17.2125V10.1363C19.3921 11.1486 21.0845 11.6917 22.8199 11.6888V8.2125C22.8199 8.2125 20.7049 8.31375 19.1749 6.5475Z" fill="#1E1F21"/>
</svg>
