<svg width="25" height="25" viewBox="0 0 25 25" fill="none" xmlns="http://www.w3.org/2000/svg">
  <path d="M12.0142 19.0259L6.82669 22.1509C6.59752 22.2967 6.35794 22.3592 6.10794 22.3384C5.85794 22.3175 5.63919 22.2342 5.45169 22.0884C5.26419 21.9425 5.11835 21.7605 5.01419 21.5421C4.91002 21.323 4.88919 21.078 4.95169 20.8071L6.32669 14.9009L1.73294 10.9321C1.5246 10.7446 1.3946 10.5309 1.34294 10.2909C1.29044 10.0517 1.30585 9.81755 1.38919 9.58838C1.47252 9.35921 1.59752 9.17171 1.76419 9.02588C1.93085 8.88004 2.16002 8.7863 2.45169 8.74463L8.51419 8.21338L10.8579 2.65088C10.9621 2.40088 11.1238 2.21338 11.3429 2.08838C11.5613 1.96338 11.785 1.90088 12.0142 1.90088C12.2434 1.90088 12.4675 1.96338 12.6867 2.08838C12.905 2.21338 13.0663 2.40088 13.1704 2.65088L15.5142 8.21338L21.5767 8.74463C21.8684 8.7863 22.0975 8.88004 22.2642 9.02588C22.4309 9.17171 22.5559 9.35921 22.6392 9.58838C22.7225 9.81755 22.7384 10.0517 22.6867 10.2909C22.6342 10.5309 22.5038 10.7446 22.2954 10.9321L17.7017 14.9009L19.0767 20.8071C19.1392 21.078 19.1184 21.323 19.0142 21.5421C18.91 21.7605 18.7642 21.9425 18.5767 22.0884C18.3892 22.2342 18.1704 22.3175 17.9204 22.3384C17.6704 22.3592 17.4309 22.2967 17.2017 22.1509L12.0142 19.0259Z" fill="#FABB14"/>
</svg>
