<svg width="125" height="42" viewBox="0 0 125 42" fill="none" xmlns="http://www.w3.org/2000/svg">
<g clip-path="url(#clip0_1_1505)">
<path d="M56.9564 8.4375H63.6081L70.9068 30.7235H65.592L64.0494 25.7664H55.8848L54.3388 30.7235H49.5515L56.9564 8.4375ZM56.9895 22.1838H62.9612L59.982 12.5581L56.9895 22.1838Z" fill="#1E1F21"/>
<path d="M74.3206 7.03125H78.859V30.7182H74.3206V7.03125Z" fill="#1E1F21"/>
<path d="M82.6113 22.7441V22.4948C82.6113 17.3834 86.3602 14.0469 91.31 14.0469C96.2599 14.0469 99.9756 17.3276 99.9756 22.3996V22.649C99.9756 27.7932 96.2267 31.0673 91.2769 31.0673C86.327 31.0673 82.6113 27.826 82.6113 22.7441ZM95.3442 22.6818V22.462C95.3442 19.3453 93.8613 17.4752 91.31 17.4752C88.7588 17.4752 87.2759 19.2829 87.2759 22.3964V22.6457C87.2759 25.7624 88.7256 27.6324 91.31 27.6324C93.8944 27.6324 95.3442 25.7657 95.3442 22.6818Z" fill="#1E1F21"/>
<path d="M104.491 17.6304H102.318V14.4185H104.491V12.5551C104.491 8.7527 106.73 6.85315 110.386 6.85315C111.186 6.83676 111.984 6.94753 112.748 7.18122V10.5538C112.215 10.3692 111.654 10.275 111.089 10.275C109.64 10.275 109.039 11.1772 109.039 12.4238V14.4185H112.632V17.6304H109.023V30.7205H104.491V17.6304Z" fill="#1E1F21"/>
<path d="M116.902 25.8873V17.6297H114.775V14.4179H116.889V10.9141H121.427V14.4343H124.894V17.6461H121.44V25.5002C121.44 26.8125 122.104 27.4326 123.268 27.4326C123.863 27.4428 124.454 27.3311 125.003 27.1045V30.5985C124.11 30.8995 123.171 31.0471 122.227 31.0348C118.756 31.0315 116.902 29.2862 116.902 25.8873Z" fill="#1E1F21"/>
<path d="M33.1793 27.5593H27.8711V32.8085C27.8711 34.4751 28.4451 35.7612 29.3209 36.624C29.8349 37.1053 30.441 37.4801 31.1036 37.7263C31.7662 37.9725 32.472 38.0852 33.1793 38.0577C33.8574 38.0765 34.5326 37.963 35.1664 37.7237C35.8002 37.4844 36.3801 37.124 36.873 36.663C37.3659 36.2021 37.7622 35.6497 38.0392 35.0373C38.3162 34.4249 38.4685 33.7645 38.4874 33.0939C38.4874 32.9999 38.4874 32.9047 38.4874 32.8085C38.4874 31.1419 37.9135 29.8558 37.0376 28.993C36.5236 28.5117 35.9175 28.1369 35.2549 27.8907C34.5923 27.6445 33.8866 27.5318 33.1793 27.5593ZM5.43429 28.993C4.55845 29.8558 3.9845 31.1419 3.9845 32.8085C3.96551 33.4791 4.08027 34.1468 4.32225 34.7736C4.56423 35.4003 4.92869 35.9738 5.3948 36.4612C5.86091 36.9487 6.41956 37.3405 7.03883 37.6144C7.6581 37.8884 8.32588 38.039 9.00401 38.0577H9.29264C10.978 38.0577 12.2785 37.4901 13.151 36.624C13.6377 36.1157 14.0167 35.5163 14.2657 34.8611C14.5147 34.2058 14.6286 33.5079 14.6008 32.8085V27.5593H9.29264C7.61726 27.5593 6.30681 28.1269 5.43429 28.993ZM2.61766 26.2076C3.50164 25.361 4.54693 24.6964 5.69281 24.2526C6.83869 23.8088 8.06233 23.5946 9.29264 23.6224H33.1793C34.3558 23.5785 35.5295 23.7644 36.6333 24.1695C37.7371 24.5745 38.7493 25.1908 39.6121 25.983C40.4748 26.7753 41.1712 27.7279 41.6613 28.7865C42.1514 29.8451 42.4257 30.9888 42.4685 32.1523C42.4685 32.3711 42.4685 32.5898 42.4685 32.8085C42.5066 35.2069 41.5798 37.5221 39.8919 39.2448C38.204 40.9674 35.8932 41.9566 33.4679 41.9946H33.1793C32.0028 42.0385 30.829 41.8525 29.7252 41.4475C28.6214 41.0424 27.6092 40.4262 26.7465 39.6339C25.8837 38.8417 25.1874 37.8891 24.6972 36.8305C24.2071 35.7719 23.9328 34.6281 23.89 33.4646C23.89 33.2459 23.89 33.0272 23.89 32.8085V27.5593H18.5819V32.8085C18.61 34.0251 18.3934 35.2352 17.9446 36.3683C17.4958 37.5015 16.8238 38.5352 15.9676 39.4093C15.0836 40.256 14.0384 40.9205 12.8925 41.3643C11.7466 41.8081 10.523 42.0224 9.29264 41.9946C6.8673 42.0323 4.52612 41.1157 2.78408 39.4466C1.04204 37.7774 0.0418138 35.4923 0.00340181 33.0939V32.8085C-0.0247165 31.5918 0.191909 30.3818 0.640694 29.2486C1.08948 28.1155 1.76148 27.0818 2.61766 26.2076ZM33.1793 3.938C30.1005 3.938 27.8711 6.03768 27.8711 9.18718V14.4364H33.1793C36.3641 14.4364 38.4874 12.2317 38.4874 9.18718C38.5064 8.51658 38.3916 7.84885 38.1497 7.22211C37.9077 6.59537 37.5432 6.02191 37.0771 5.53446C36.611 5.04702 36.0523 4.65515 35.4331 4.38123C34.8138 4.10731 34.146 3.9567 33.4679 3.938H33.1793ZM0.00340181 9.18718C-0.0347343 6.78878 0.892085 4.47361 2.58 2.75092C4.26791 1.02823 6.57867 0.0391047 9.00401 0.00111939H9.29264C14.5079 0.00111939 18.5819 3.80677 18.5819 9.18718V14.4364H23.89V9.18718C23.89 3.80677 27.964 0.00111939 33.1793 0.00111939C35.6046 -0.0365932 37.9458 0.879933 39.6878 2.5491C41.4299 4.21826 42.4301 6.50336 42.4685 8.90176V9.18718C42.4685 14.3445 38.6201 18.3732 33.1793 18.3732H9.29264C3.8518 18.3732 0.00340181 14.3445 0.00340181 9.18718ZM9.29264 3.938C8.61451 3.91922 7.93927 4.03271 7.30549 4.272C6.67172 4.5113 6.09181 4.8717 5.5989 5.33264C5.10598 5.79357 4.70971 6.34601 4.43271 6.9584C4.15571 7.5708 4.00341 8.23116 3.9845 8.90176C3.9845 8.998 3.9845 9.09314 3.9845 9.18718C3.9845 12.2317 6.10776 14.4364 9.29264 14.4364H14.6008V9.18718C14.6008 6.03768 12.3714 3.938 9.29264 3.938Z" fill="#1E1F21"/>
</g>
<defs>
<clipPath id="clip0_1_1505">
<rect width="125" height="42" fill="white"/>
</clipPath>
</defs>
</svg>
