<svg width="112" height="27" viewBox="0 0 112 27" fill="none" xmlns="http://www.w3.org/2000/svg">
<path d="M20.6989 16.5557C20.6989 19.4238 19.7285 21.8653 17.7876 23.8801C15.8467 25.8949 13.4442 26.9023 10.5802 26.9023C9.23107 26.9023 7.94109 26.6178 6.71028 26.0489C5.50314 25.4564 4.50902 24.6267 3.72793 23.5601H3.65693V26.4045H0V0.09375H3.69243V9.44473H3.76344C5.34929 7.26402 7.59788 6.17366 10.5092 6.17366C13.3259 6.17366 15.7283 7.20476 17.7166 9.26695C19.7048 11.3054 20.6989 13.735 20.6989 16.5557ZM17.0065 16.5557C17.0065 14.6595 16.3556 13.0239 15.0538 11.6491C13.7756 10.2506 12.1898 9.55139 10.2962 9.55139C8.42631 9.55139 6.84046 10.2388 5.53864 11.6136C4.23683 12.9647 3.58592 14.5884 3.58592 16.4846C3.58592 18.4283 4.22499 20.0875 5.50314 21.4623C6.78129 22.8371 8.37898 23.5245 10.2962 23.5245C12.1661 23.5245 13.7519 22.8371 15.0538 21.4623C16.3556 20.0638 17.0065 18.4283 17.0065 16.5557Z" fill="#1E1F21"/>
<path d="M44.6456 16.4846C44.6456 19.329 43.616 21.7823 41.5568 23.8445C39.4975 25.883 36.9886 26.9023 34.0299 26.9023C31.1185 26.9023 28.6214 25.883 26.5385 23.8445C24.4556 21.7823 23.4141 19.3053 23.4141 16.4135C23.4141 13.5454 24.4556 11.1277 26.5385 9.16029C28.6451 7.16921 31.1422 6.17366 34.0299 6.17366C36.9412 6.17366 39.4383 7.16921 41.5212 9.16029C43.6042 11.1514 44.6456 13.5928 44.6456 16.4846ZM38.9294 21.4623C40.2786 20.0638 40.9532 18.4046 40.9532 16.4846C40.9532 14.5647 40.2786 12.9291 38.9294 11.578C37.5803 10.2269 35.9471 9.55139 34.0299 9.55139C32.1127 9.55139 30.4795 10.2388 29.1303 11.6136C27.7811 12.9647 27.1066 14.6002 27.1066 16.5202C27.1066 18.4402 27.7811 20.0875 29.1303 21.4623C30.4795 22.8371 32.1127 23.5245 34.0299 23.5245C35.9471 23.5245 37.5803 22.8371 38.9294 21.4623Z" fill="#1E1F21"/>
<path d="M65.4524 26.4045H62.0795V24.2712H62.0085C61.4878 25.1719 60.683 25.8356 59.5942 26.2623C58.5291 26.6889 57.4048 26.9023 56.2213 26.9023C53.9964 26.9023 52.1265 26.2504 50.6117 24.9467C48.8838 23.4534 48.0199 20.929 48.0199 17.3735V6.70699H51.7123V17.3735C51.7123 19.2935 52.0792 20.7986 52.813 21.889C53.5467 22.9794 54.813 23.5245 56.6119 23.5245C58.3871 23.5245 59.6889 22.9438 60.5173 21.7823C61.3458 20.6209 61.76 19.1157 61.76 17.2668V6.70699H65.4524V26.4045Z" fill="#1E1F21"/>
<path d="M87.6433 26.4045H83.9509V15.7024C83.9509 11.6017 82.3177 9.55139 79.0513 9.55139C77.3235 9.55139 76.0216 10.1321 75.1459 11.2936C74.2938 12.4314 73.8677 13.8891 73.8677 15.6669V26.4045H70.1753V6.70699H73.6192V8.80474H73.6902C75.0157 7.05069 76.9329 6.17366 79.4419 6.17366C82.5899 6.17366 84.9095 7.34698 86.4007 9.69361C87.2291 10.9736 87.6433 12.6565 87.6433 14.7424V26.4045Z" fill="#1E1F21"/>
<path d="M112 26.4045H108.592V23.5956H108.521C106.935 25.8001 104.615 26.9023 101.562 26.9023C98.6268 26.9023 96.1888 25.9304 94.2479 23.9867C92.307 22.0194 91.3366 19.5661 91.3366 16.6269C91.3366 13.6639 92.2952 11.1869 94.2124 9.19584C96.1533 7.18106 98.6031 6.17366 101.562 6.17366C102.864 6.17366 104.106 6.4344 105.29 6.95587C106.497 7.45365 107.479 8.1766 108.237 9.12473H108.308V0.09375H112V26.4045ZM108.592 16.5913C108.592 14.6002 107.953 12.9291 106.674 11.578C105.396 10.2269 103.763 9.55139 101.775 9.55139C99.8576 9.55139 98.2481 10.2388 96.9462 11.6136C95.6681 12.9884 95.029 14.6476 95.029 16.5913C95.029 18.4639 95.6799 20.0875 96.9818 21.4623C98.2836 22.8371 99.8694 23.5245 101.739 23.5245C103.657 23.5245 105.278 22.849 106.603 21.4979C107.929 20.1468 108.592 18.5113 108.592 16.5913Z" fill="#1E1F21"/>
</svg>
