<svg width="136" height="44" viewBox="0 0 136 44" fill="none" xmlns="http://www.w3.org/2000/svg">
<path d="M96.1689 34.4219V37.6381H96.1967C96.2525 37.5617 96.3236 37.4822 96.4103 37.3995C96.497 37.3168 96.5991 37.2404 96.7167 37.1704C96.8405 37.1004 96.9829 37.0432 97.1438 36.9986C97.3048 36.9477 97.4874 36.9223 97.6916 36.9223C98.0073 36.9223 98.2982 36.9859 98.5644 37.1132C98.8306 37.234 99.0596 37.4026 99.2515 37.619C99.4434 37.8353 99.592 38.0898 99.6972 38.3824C99.8024 38.6751 99.855 38.9901 99.855 39.3273C99.855 39.6645 99.8024 39.9826 99.6972 40.2816C99.5981 40.5743 99.4527 40.832 99.2608 41.0546C99.0751 41.271 98.8461 41.4459 98.5737 41.5795C98.3075 41.7068 98.0042 41.7704 97.6638 41.7704C97.3481 41.7704 97.051 41.7004 96.7724 41.5605C96.5001 41.4205 96.2865 41.2169 96.1317 40.9497H96.1132V41.6368H95.0547V34.4219H96.1689ZM98.7223 39.3273C98.7223 39.1491 98.6944 38.9741 98.6387 38.8024C98.5892 38.6242 98.5118 38.4652 98.4066 38.3252C98.3013 38.1852 98.1683 38.0739 98.0073 37.9912C97.8464 37.9021 97.6576 37.8576 97.4409 37.8576C97.2367 37.8576 97.0541 37.9021 96.8931 37.9912C96.7322 38.0802 96.5929 38.1948 96.4753 38.3347C96.3639 38.4747 96.2772 38.6338 96.2153 38.8119C96.1596 38.9901 96.1317 39.1682 96.1317 39.3463C96.1317 39.5245 96.1596 39.7026 96.2153 39.8808C96.2772 40.0526 96.3639 40.2084 96.4753 40.3484C96.5929 40.4884 96.7322 40.6029 96.8931 40.692C97.0541 40.7747 97.2367 40.8161 97.4409 40.8161C97.6576 40.8161 97.8464 40.7715 98.0073 40.6824C98.1683 40.5934 98.3013 40.4788 98.4066 40.3389C98.5118 40.1989 98.5892 40.0398 98.6387 39.8617C98.6944 39.6836 98.7223 39.5054 98.7223 39.3273Z" fill="#1E1F21"/>
<path d="M100.261 37.0559H101.496L102.74 40.3866H102.759L103.864 37.0559H105.025L102.917 42.6198C102.836 42.8297 102.75 43.0143 102.657 43.1733C102.564 43.3387 102.453 43.4755 102.323 43.5837C102.193 43.6982 102.038 43.7841 101.858 43.8414C101.685 43.8986 101.475 43.9273 101.227 43.9273C101.134 43.9273 101.038 43.9209 100.939 43.9082C100.846 43.9018 100.75 43.8859 100.651 43.8604L100.744 42.8679C100.818 42.8934 100.89 42.9093 100.958 42.9156C101.032 42.9284 101.1 42.9347 101.162 42.9347C101.28 42.9347 101.379 42.9188 101.459 42.887C101.54 42.8616 101.608 42.817 101.663 42.7534C101.719 42.6961 101.769 42.623 101.812 42.5339C101.855 42.4448 101.902 42.3398 101.951 42.219L102.174 41.6368L100.261 37.0559Z" fill="#1E1F21"/>
<path d="M110.778 41.0546H110.751C110.639 41.2582 110.46 41.4268 110.212 41.5605C109.964 41.6877 109.683 41.7513 109.367 41.7513C109.188 41.7513 108.999 41.7259 108.801 41.675C108.609 41.6304 108.429 41.5541 108.262 41.4459C108.101 41.3314 107.965 41.1851 107.854 41.0069C107.748 40.8224 107.696 40.5966 107.696 40.3293C107.696 39.9858 107.789 39.7122 107.974 39.5086C108.166 39.305 108.411 39.1491 108.708 39.041C109.005 38.9328 109.333 38.8628 109.692 38.831C110.057 38.7928 110.413 38.7737 110.76 38.7737V38.6592C110.76 38.3729 110.658 38.1629 110.453 38.0293C110.255 37.8894 110.017 37.8194 109.739 37.8194C109.503 37.8194 109.277 37.8703 109.061 37.9721C108.844 38.0739 108.665 38.1979 108.522 38.3443L107.947 37.6476C108.2 37.4058 108.491 37.2245 108.819 37.1036C109.154 36.9827 109.491 36.9223 109.831 36.9223C110.228 36.9223 110.553 36.9795 110.806 37.0941C111.066 37.2086 111.271 37.3581 111.419 37.5426C111.568 37.7271 111.67 37.9339 111.726 38.1629C111.787 38.392 111.818 38.621 111.818 38.8501V41.6368H110.778V41.0546ZM110.76 39.5468H110.509C110.33 39.5468 110.141 39.5563 109.943 39.5754C109.745 39.5881 109.562 39.6231 109.395 39.6804C109.228 39.7313 109.089 39.8076 108.977 39.9094C108.866 40.0049 108.81 40.1385 108.81 40.3102C108.81 40.4184 108.832 40.5107 108.875 40.587C108.925 40.657 108.986 40.7143 109.061 40.7588C109.135 40.8033 109.219 40.8351 109.311 40.8542C109.404 40.8733 109.497 40.8829 109.59 40.8829C109.974 40.8829 110.265 40.7779 110.463 40.5679C110.661 40.358 110.76 40.0717 110.76 39.709V39.5468Z" fill="#1E1F21"/>
<path d="M116.162 38.3252C116.075 38.1979 115.945 38.093 115.772 38.0103C115.599 37.9212 115.422 37.8766 115.243 37.8766C115.038 37.8766 114.859 37.9212 114.704 38.0103C114.549 38.093 114.419 38.2043 114.314 38.3443C114.215 38.4842 114.141 38.6433 114.091 38.8215C114.042 38.9932 114.017 39.1682 114.017 39.3463C114.017 39.5245 114.042 39.7026 114.091 39.8808C114.147 40.0526 114.228 40.2084 114.333 40.3484C114.438 40.4884 114.568 40.6029 114.723 40.692C114.884 40.7747 115.069 40.8161 115.28 40.8161C115.453 40.8161 115.627 40.7811 115.8 40.7111C115.973 40.6411 116.112 40.5393 116.218 40.4057L116.914 41.131C116.728 41.3346 116.49 41.4936 116.199 41.6082C115.914 41.7163 115.605 41.7704 115.271 41.7704C114.943 41.7704 114.63 41.7163 114.333 41.6082C114.042 41.5 113.785 41.341 113.562 41.131C113.346 40.921 113.172 40.6665 113.042 40.3675C112.918 40.0685 112.856 39.7281 112.856 39.3463C112.856 38.9773 112.918 38.6433 113.042 38.3443C113.172 38.0452 113.346 37.7907 113.562 37.5808C113.779 37.3708 114.029 37.2086 114.314 37.0941C114.605 36.9795 114.915 36.9223 115.243 36.9223C115.571 36.9223 115.886 36.9859 116.19 37.1132C116.499 37.2404 116.744 37.4154 116.923 37.6381L116.162 38.3252Z" fill="#1E1F21"/>
<path d="M117.39 39.3273C117.39 38.9646 117.452 38.6369 117.576 38.3443C117.706 38.0452 117.879 37.7907 118.096 37.5808C118.312 37.3708 118.569 37.2086 118.866 37.0941C119.164 36.9795 119.479 36.9223 119.814 36.9223C120.148 36.9223 120.464 36.9795 120.761 37.0941C121.058 37.2086 121.315 37.3708 121.531 37.5808C121.748 37.7907 121.918 38.0452 122.042 38.3443C122.172 38.6369 122.237 38.9646 122.237 39.3273C122.237 39.6899 122.172 40.0208 122.042 40.3198C121.918 40.6188 121.748 40.8765 121.531 41.0928C121.315 41.3028 121.058 41.4682 120.761 41.5891C120.464 41.71 120.148 41.7704 119.814 41.7704C119.479 41.7704 119.164 41.71 118.866 41.5891C118.569 41.4682 118.312 41.3028 118.096 41.0928C117.879 40.8765 117.706 40.6188 117.576 40.3198C117.452 40.0208 117.39 39.6899 117.39 39.3273ZM118.523 39.3273C118.523 39.5054 118.548 39.6836 118.597 39.8617C118.653 40.0398 118.733 40.1989 118.839 40.3389C118.944 40.4788 119.077 40.5934 119.238 40.6824C119.399 40.7715 119.591 40.8161 119.814 40.8161C120.036 40.8161 120.228 40.7715 120.389 40.6824C120.55 40.5934 120.683 40.4788 120.788 40.3389C120.894 40.1989 120.971 40.0398 121.021 39.8617C121.076 39.6836 121.104 39.5054 121.104 39.3273C121.104 39.1491 121.076 38.9741 121.021 38.8024C120.971 38.6242 120.894 38.4652 120.788 38.3252C120.683 38.1852 120.55 38.0739 120.389 37.9912C120.228 37.9021 120.036 37.8576 119.814 37.8576C119.591 37.8576 119.399 37.9021 119.238 37.9912C119.077 38.0739 118.944 38.1852 118.839 38.3252C118.733 38.4652 118.653 38.6242 118.597 38.8024C118.548 38.9741 118.523 39.1491 118.523 39.3273Z" fill="#1E1F21"/>
<path d="M123.317 37.0559H124.385V37.8194H124.404C124.527 37.5522 124.701 37.3358 124.924 37.1704C125.146 37.005 125.406 36.9223 125.704 36.9223C125.747 36.9223 125.793 36.9255 125.843 36.9318C125.892 36.9318 125.936 36.9382 125.973 36.9509V38.0007C125.898 37.9816 125.834 37.9689 125.778 37.9625C125.728 37.9562 125.679 37.953 125.629 37.953C125.375 37.953 125.171 38.0007 125.016 38.0961C124.862 38.1916 124.741 38.3061 124.654 38.4397C124.568 38.5733 124.509 38.7101 124.478 38.8501C124.447 38.9901 124.431 39.1014 124.431 39.1841V41.6368H123.317V37.0559Z" fill="#1E1F21"/>
<path d="M126.699 37.0559H127.758V37.7907H127.776C127.875 37.5617 128.046 37.3613 128.287 37.1895C128.535 37.0114 128.826 36.9223 129.16 36.9223C129.451 36.9223 129.698 36.9764 129.903 37.0845C130.113 37.1863 130.283 37.3231 130.413 37.4949C130.55 37.6667 130.649 37.8639 130.711 38.0866C130.772 38.3093 130.803 38.5383 130.803 38.7737V41.6368H129.689V39.0982C129.689 38.9646 129.68 38.8246 129.661 38.6783C129.643 38.532 129.603 38.4015 129.541 38.287C129.479 38.1661 129.392 38.0675 129.281 37.9912C129.175 37.9148 129.033 37.8766 128.854 37.8766C128.674 37.8766 128.519 37.9148 128.389 37.9912C128.259 38.0611 128.151 38.1534 128.064 38.2679C127.984 38.3824 127.922 38.5161 127.879 38.6688C127.835 38.8151 127.814 38.9646 127.814 39.1173V41.6368H126.699V37.0559Z" fill="#1E1F21"/>
<path d="M134.546 38.2775C134.446 38.1439 134.31 38.0293 134.137 37.9339C133.964 37.8321 133.775 37.7812 133.571 37.7812C133.391 37.7812 133.227 37.8194 133.078 37.8957C132.93 37.9721 132.856 38.0993 132.856 38.2775C132.856 38.4556 132.936 38.5829 133.097 38.6592C133.264 38.7292 133.506 38.8024 133.821 38.8787C133.988 38.9169 134.156 38.9678 134.323 39.0314C134.496 39.095 134.651 39.1809 134.787 39.2891C134.929 39.3909 135.044 39.5213 135.13 39.6804C135.217 39.8331 135.26 40.0208 135.26 40.2434C135.26 40.5234 135.208 40.762 135.103 40.9592C135.004 41.1501 134.867 41.306 134.694 41.4268C134.527 41.5477 134.329 41.6336 134.1 41.6845C133.877 41.7418 133.645 41.7704 133.403 41.7704C133.057 41.7704 132.719 41.7068 132.391 41.5795C132.063 41.4459 131.791 41.2582 131.574 41.0165L132.308 40.3102C132.432 40.4757 132.593 40.6125 132.791 40.7206C132.989 40.8288 133.208 40.8829 133.45 40.8829C133.53 40.8829 133.611 40.8733 133.691 40.8542C133.778 40.8351 133.855 40.8065 133.923 40.7683C133.998 40.7238 134.056 40.6665 134.1 40.5966C134.143 40.5266 134.165 40.4407 134.165 40.3389C134.165 40.148 134.078 40.0112 133.905 39.9285C133.738 39.8458 133.484 39.7631 133.143 39.6804C132.976 39.6422 132.812 39.5945 132.651 39.5372C132.497 39.4736 132.357 39.3941 132.234 39.2986C132.11 39.1968 132.011 39.0728 131.936 38.9264C131.862 38.7801 131.825 38.5988 131.825 38.3824C131.825 38.128 131.875 37.9085 131.974 37.7239C132.079 37.5394 132.215 37.3899 132.382 37.2754C132.549 37.1545 132.738 37.0654 132.948 37.0082C133.159 36.9509 133.376 36.9223 133.598 36.9223C133.92 36.9223 134.233 36.9795 134.536 37.0941C134.846 37.2086 135.09 37.3836 135.27 37.619L134.546 38.2775Z" fill="#1E1F21"/>
<path d="M33.2765 14.5493C33.6661 13.719 34.3307 13.0073 35.2702 12.4142C36.2098 11.8212 37.2639 11.5246 38.4327 11.5246C39.4868 11.5246 40.392 11.7144 41.1483 12.094C41.9045 12.4498 42.5347 12.9361 43.0389 13.5529C43.543 14.1697 43.9097 14.8932 44.1388 15.7235C44.3909 16.5538 44.517 17.4434 44.517 18.3923V28.8539H41.2858V19.531C41.2858 18.843 41.2285 18.1907 41.1139 17.5739C41.0222 16.9571 40.8389 16.4115 40.5639 15.937C40.2889 15.4626 39.9108 15.083 39.4295 14.7984C38.9712 14.5137 38.3639 14.3713 37.6077 14.3713C36.3244 14.3713 35.2702 14.8814 34.4452 15.9015C33.6203 16.8978 33.2078 18.2381 33.2078 19.9224V28.8539H29.9766V5.1875H33.2078V14.5493H33.2765Z" fill="#1E1F21"/>
<path d="M58.9974 17.9297C58.9974 16.6724 58.6308 15.7473 57.8975 15.1542C57.1641 14.5374 56.1902 14.229 54.9756 14.229C54.059 14.229 53.1882 14.4188 52.3632 14.7984C51.5611 15.1542 50.8851 15.6168 50.3351 16.1861L48.6164 14.0511C49.4184 13.2683 50.3924 12.6515 51.5382 12.2007C52.7069 11.75 53.9559 11.5246 55.285 11.5246C56.4537 11.5246 57.462 11.7026 58.31 12.0584C59.1808 12.3905 59.8912 12.8531 60.4412 13.4462C60.9912 14.0392 61.4037 14.739 61.6786 15.5456C61.9536 16.3522 62.0911 17.2181 62.0911 18.1432V25.5091C62.0911 26.0784 62.1026 26.6833 62.1255 27.3238C62.1713 27.9406 62.2401 28.4507 62.3318 28.8539H59.4099C59.2266 28.0474 59.1349 27.2408 59.1349 26.4342H59.0318C58.436 27.3357 57.6798 28.0355 56.7631 28.5337C55.8694 29.0319 54.8038 29.2809 53.5663 29.2809C52.9246 29.2809 52.2486 29.1861 51.5382 28.9963C50.8507 28.8302 50.2205 28.5456 49.6476 28.1423C49.0747 27.739 48.5934 27.2052 48.2039 26.541C47.8372 25.8768 47.6539 25.0583 47.6539 24.0857C47.6539 22.8047 47.9862 21.7965 48.6507 21.0611C49.3153 20.302 50.1861 19.7326 51.2632 19.3531C52.3403 18.9498 53.5548 18.6888 54.9069 18.5702C56.2589 18.4516 57.6225 18.3923 58.9974 18.3923V17.9297ZM58.2068 20.812C57.4048 20.812 56.5683 20.8476 55.6975 20.9188C54.8496 20.9899 54.0704 21.1323 53.36 21.3458C52.6725 21.5593 52.0996 21.8795 51.6413 22.3065C51.183 22.7335 50.9538 23.3029 50.9538 24.0145C50.9538 24.5127 51.0455 24.9279 51.2288 25.26C51.4351 25.5921 51.6986 25.8649 52.0194 26.0784C52.3403 26.2919 52.6955 26.4461 53.085 26.541C53.4746 26.6122 53.8756 26.6477 54.2881 26.6477C55.8006 26.6477 56.9579 26.1852 57.76 25.26C58.5849 24.3111 58.9974 23.125 58.9974 21.7016V20.812H58.2068Z" fill="#1E1F21"/>
<path d="M66.3627 15.6168C66.3627 15.1661 66.3512 14.5848 66.3283 13.8732C66.3054 13.1615 66.271 12.5329 66.2252 11.9872H69.2845C69.3303 12.4142 69.3647 12.9124 69.3876 13.4818C69.4105 14.0274 69.422 14.4781 69.422 14.8339H69.5251C69.9835 13.8376 70.648 13.0429 71.5188 12.4498C72.4126 11.833 73.4094 11.5246 74.5094 11.5246C75.0136 11.5246 75.4375 11.5721 75.7813 11.667L75.6438 14.7628C75.1855 14.6442 74.6928 14.5849 74.1657 14.5849C73.3865 14.5849 72.7105 14.739 72.1376 15.0474C71.5647 15.3321 71.0834 15.7235 70.6939 16.2217C70.3272 16.7199 70.0522 17.3011 69.8689 17.9653C69.6855 18.6058 69.5939 19.2819 69.5939 19.9936V28.8539H66.3627V15.6168Z" fill="#1E1F21"/>
<path d="M86.7635 28.8539H83.2573L76.623 11.9872H80.1979L84.976 25.26H85.0447L89.8572 11.9872H93.2946L86.7635 28.8539Z" fill="#1E1F21"/>
<path d="M107.222 18.9261C107.199 18.2618 107.085 17.6451 106.879 17.0757C106.695 16.4827 106.409 15.9726 106.019 15.5456C105.653 15.1186 105.183 14.7865 104.61 14.5493C104.06 14.2883 103.407 14.1578 102.651 14.1578C101.963 14.1578 101.31 14.2883 100.691 14.5493C100.095 14.7865 99.5684 15.1186 99.11 15.5456C98.6746 15.9726 98.308 16.4827 98.0101 17.0757C97.7351 17.6451 97.5746 18.2618 97.5288 18.9261H107.222ZM110.488 20.2783C110.488 20.468 110.488 20.6578 110.488 20.8476C110.488 21.0374 110.477 21.2272 110.454 21.4169H97.5288C97.5517 22.1286 97.7007 22.8047 97.9757 23.4452C98.2736 24.062 98.6632 24.6076 99.1444 25.0821C99.6256 25.5328 100.176 25.8886 100.794 26.1496C101.436 26.4105 102.112 26.541 102.822 26.541C103.922 26.541 104.873 26.2919 105.676 25.7937C106.478 25.2956 107.108 24.6906 107.566 23.979L109.835 25.8649C108.964 27.051 107.933 27.9288 106.741 28.4981C105.572 29.0437 104.266 29.3165 102.822 29.3165C101.585 29.3165 100.439 29.103 99.385 28.676C98.3309 28.249 97.4257 27.656 96.6694 26.8968C95.9132 26.114 95.3174 25.177 94.882 24.0857C94.4466 22.9945 94.2289 21.7846 94.2289 20.4562C94.2289 19.1514 94.4351 17.9534 94.8476 16.8622C95.283 15.7473 95.8788 14.7984 96.6351 14.0155C97.3913 13.2327 98.285 12.6277 99.3163 12.2007C100.348 11.75 101.459 11.5246 102.651 11.5246C103.842 11.5246 104.919 11.7263 105.882 12.1296C106.867 12.5329 107.692 13.1141 108.357 13.8732C109.044 14.6323 109.571 15.5575 109.938 16.6487C110.305 17.7162 110.488 18.9261 110.488 20.2783Z" fill="#1E1F21"/>
<path d="M122.674 16.2573C122.308 15.6405 121.792 15.1423 121.127 14.7628C120.463 14.3595 119.718 14.1578 118.893 14.1578C118.526 14.1578 118.16 14.2053 117.793 14.3002C117.426 14.3713 117.094 14.5018 116.796 14.6916C116.521 14.8577 116.292 15.083 116.109 15.3677C115.948 15.6286 115.868 15.9608 115.868 16.364C115.868 17.0757 116.177 17.6095 116.796 17.9653C117.415 18.2974 118.343 18.6058 119.581 18.8905C120.36 19.0803 121.082 19.3056 121.746 19.5666C122.411 19.8275 122.984 20.1596 123.465 20.5629C123.969 20.9425 124.359 21.4051 124.634 21.9507C124.909 22.4963 125.046 23.1368 125.046 23.8722C125.046 24.8686 124.863 25.7107 124.496 26.3987C124.129 27.0866 123.637 27.656 123.018 28.1067C122.422 28.5337 121.735 28.8421 120.956 29.0319C120.176 29.2216 119.374 29.3165 118.549 29.3165C117.312 29.3165 116.097 29.0674 114.906 28.5693C113.737 28.0711 112.763 27.312 111.984 26.2919L114.287 24.2636C114.722 24.9279 115.318 25.4853 116.074 25.9361C116.853 26.3868 117.701 26.6122 118.618 26.6122C119.031 26.6122 119.42 26.5766 119.787 26.5054C120.176 26.4105 120.52 26.2682 120.818 26.0784C121.139 25.8886 121.391 25.6395 121.574 25.3312C121.758 25.0228 121.849 24.6313 121.849 24.1569C121.849 23.374 121.483 22.7928 120.749 22.4133C120.039 22.0337 118.985 21.6779 117.587 21.3458C117.037 21.2034 116.475 21.0374 115.902 20.8476C115.352 20.6341 114.848 20.3494 114.39 19.9936C113.932 19.6377 113.554 19.1989 113.256 18.677C112.981 18.1314 112.843 17.4671 112.843 16.6843C112.843 15.7828 113.015 15.0119 113.359 14.3713C113.725 13.7071 114.195 13.1734 114.768 12.7701C115.341 12.3431 115.994 12.0347 116.727 11.8449C117.461 11.6314 118.217 11.5246 118.996 11.5246C120.165 11.5246 121.288 11.7619 122.365 12.2363C123.465 12.7108 124.313 13.3987 124.909 14.3002L122.674 16.2573Z" fill="#1E1F21"/>
<path d="M135.998 14.7272H131.667V23.5164C131.667 24.5364 131.85 25.2718 132.217 25.7226C132.584 26.1496 133.168 26.3631 133.97 26.3631C134.268 26.3631 134.589 26.3275 134.932 26.2563C135.276 26.1852 135.586 26.0784 135.861 25.9361L135.964 28.676C135.574 28.8184 135.139 28.9251 134.657 28.9963C134.199 29.0912 133.718 29.1386 133.214 29.1386C131.678 29.1386 130.498 28.6997 129.673 27.822C128.871 26.9443 128.47 25.6277 128.47 23.8722V14.7272H125.342V11.9872H128.47V7.14784H131.667V11.9872H135.998V14.7272Z" fill="#1E1F21"/>
<path fill-rule="evenodd" clip-rule="evenodd" d="M9.79445 0.0625C6.52963 3.00176 0 10.7721 0 18.3394C0 26.7512 6.29345 28.3164 9.19376 28.5599V23.1776L5.62009 19.8831L6.62603 18.7195L9.19376 21.0867V17.083L6.68855 14.7501L7.70011 13.5917L9.19376 14.9826V11.6058H10.7043V14.9826L12.1979 13.5917L13.2095 14.7501L10.7043 17.083V21.0381L13.1076 18.7302L14.1363 19.8724L10.7043 23.1682V28.5786C13.9475 28.3546 19.7419 26.2732 19.7419 17.6981C19.7419 10.3873 13.1103 2.89488 9.79445 0.0625Z" fill="#1E1F21"/>
</svg>
