<svg width="129" height="44" viewBox="0 0 129 44" fill="none" xmlns="http://www.w3.org/2000/svg">
<path d="M16.4649 1.91106C18.6287 0.717147 21.244 0.717147 23.4079 1.91106L36.0946 8.91103C38.4236 10.1961 39.8727 12.6653 39.8727 15.3489V28.6424C39.8727 31.3259 38.4236 33.7952 36.0946 35.0803L23.4079 42.0803C21.244 43.2742 18.6287 43.2742 16.4649 42.0803L3.7781 35.0803C1.4491 33.7952 0 31.3259 0 28.6424V15.3489C0 12.6653 1.4491 10.1961 3.7781 8.91103L16.4649 1.91106Z" fill="#1E1F21"/>
<path d="M11.7805 34.8386L15.5932 32.9688C15.9056 32.8156 16.1041 32.4952 16.1041 32.144V14.9748C16.1041 14.6486 16.1948 14.329 16.366 14.0526L16.4169 13.9705C16.7209 13.5287 17.1314 13.1729 17.6095 12.9365L17.8078 12.8386L17.9853 12.7775C18.4817 12.6068 19.0026 12.5197 19.527 12.5197H20.5896C21.2036 12.5197 21.8134 12.6217 22.3948 12.8216L22.4441 12.8386L22.7799 13.0045C23.1692 13.1969 23.5104 13.4759 23.7781 13.8206C23.8555 13.9201 23.9206 14.0288 23.9719 14.1443L24.119 14.4756C24.2381 14.8479 24.2987 15.2368 24.2987 15.6281V34.8386L27.972 32.972C28.2781 32.8165 28.4714 32.4995 28.4714 32.1529V14.883C28.4714 14.0087 28.1487 13.1659 27.5665 12.5197L26.9608 11.8474C26.628 11.4782 26.2596 11.1436 25.8611 10.8487C25.4573 10.5499 25.0247 10.2934 24.5697 10.0831L24.5554 10.0764C24.2171 9.91995 23.8679 9.78905 23.5106 9.68471L23.2738 9.61557C22.5181 9.39478 21.741 9.2576 20.956 9.20637L20.4276 9.17188L19.469 9.22255C18.7031 9.26302 17.9448 9.39588 17.2101 9.61824L16.1041 9.95303L15.4822 10.204C15.1598 10.3341 14.8476 10.4884 14.5481 10.6658L14.304 10.8102C13.7653 11.1291 13.2861 11.5409 12.888 12.0269L12.8285 12.0994C12.5999 12.3786 12.4046 12.6842 12.2466 13.0097C11.9399 13.6418 11.7805 14.3365 11.7805 15.0407V34.8386Z" fill="#1E1F21"/>
<path d="M11.4257 33.9545V15.0963C11.4257 13.2552 12.704 11.84 15.2606 10.8507C16.6415 10.3148 18.2001 10.0469 19.9364 10.0469C21.6728 10.0469 23.2313 10.3148 24.6123 10.8507C27.1689 11.84 28.4472 13.2552 28.4472 15.0963V32.0996L24.5507 33.9545H24.3456V15.8177C24.3456 15.1307 23.915 14.6154 23.0536 14.272C22.206 13.9285 21.1669 13.7567 19.9364 13.7567C18.7059 13.7567 17.6601 13.9285 16.7988 14.272C15.9511 14.6154 15.5272 15.1307 15.5272 15.8177V32.0996L11.6308 33.9545H11.4257Z" fill="white"/>
<path d="M54.4434 31.9757V19.3383C54.4434 18.1045 55.3 17.1561 57.0133 16.4931C57.9386 16.1341 58.9831 15.9545 60.1466 15.9545C61.3102 15.9545 62.3547 16.1341 63.2801 16.4931C64.9934 17.1561 65.85 18.1045 65.85 19.3383V30.7327L63.2388 31.9757H63.1014V19.8217C63.1014 19.3613 62.8128 19.0161 62.2356 18.7858C61.6676 18.5556 60.9712 18.4406 60.1466 18.4406C59.3221 18.4406 58.6212 18.5556 58.044 18.7858C57.476 19.0161 57.1919 19.3613 57.1919 19.8217V30.7327L54.5808 31.9757H54.4434ZM71.7105 13.1784C71.3898 12.8469 71.2295 12.451 71.2295 11.9907C71.2295 11.5211 71.3898 11.1206 71.7105 10.7891C72.0311 10.4576 72.4206 10.2919 72.8786 10.2919C73.3368 10.2919 73.7261 10.4576 74.0468 10.7891C74.3674 11.1206 74.5278 11.5211 74.5278 11.9907C74.5278 12.451 74.3674 12.8469 74.0468 13.1784C73.7261 13.5099 73.3368 13.6756 72.8786 13.6756C72.4206 13.6756 72.0311 13.5099 71.7105 13.1784ZM71.5043 31.9757V16.9213L74.1155 15.6783H74.2529V30.7327L71.6418 31.9757H71.5043ZM79.9074 16.9213L82.5187 15.6783H82.6555V27.8323C82.6555 28.2927 82.9401 28.638 83.5077 28.8681C84.0854 29.0983 84.786 29.2135 85.6108 29.2135C86.4348 29.2135 87.1314 29.0983 87.6998 28.8681C88.2768 28.638 88.5653 28.2927 88.5653 27.8323V16.9213L91.1765 15.6783H91.3141V28.3157C91.3141 29.5495 90.4573 30.4979 88.7443 31.1608C87.8186 31.5199 86.7741 31.6995 85.6108 31.6995C84.4474 31.6995 83.4029 31.5199 82.4772 31.1608C80.7643 30.4979 79.9074 29.5495 79.9074 28.3157V16.9213ZM96.281 31.9757V19.3383C96.281 18.1045 97.1379 17.1561 98.8509 16.4931C99.7765 16.1341 100.821 15.9545 101.984 15.9545H103.84V16.0927L102.74 18.4406H101.984C101.16 18.4406 100.459 18.5556 99.8821 18.7858C99.3137 19.0161 99.0299 19.3613 99.0299 19.8217V30.7327L96.4186 31.9757H96.281ZM117.465 30.7327L114.854 31.9757H114.716V31.2299C113.837 31.5429 112.898 31.6995 111.899 31.6995C110.828 31.6995 109.828 31.5199 108.903 31.1608C107.19 30.4795 106.333 29.5311 106.333 28.3157V24.5866C106.333 23.3528 107.19 22.4045 108.903 21.7415C109.828 21.3824 110.828 21.2029 111.899 21.2029C112.907 21.2029 113.846 21.3594 114.716 21.6724V19.8217C114.716 19.3613 114.428 19.0161 113.851 18.7858C113.282 18.5556 112.587 18.4406 111.762 18.4406H108.422V18.3025L109.522 15.9545H111.762C112.925 15.9545 113.97 16.1341 114.895 16.4931C116.608 17.1561 117.465 18.1045 117.465 19.3383V30.7327ZM109.082 27.8323C109.082 28.2927 109.366 28.638 109.934 28.8681C110.511 29.0983 111.166 29.2135 111.899 29.2135C112.632 29.2135 113.282 29.0983 113.851 28.8681C114.428 28.638 114.716 28.2927 114.716 27.8323V25.0701C114.716 24.6096 114.428 24.2644 113.851 24.0342C113.282 23.804 112.632 23.6889 111.899 23.6889C111.166 23.6889 110.511 23.804 109.934 24.0342C109.366 24.2644 109.082 24.6096 109.082 25.0701V27.8323ZM123.119 31.9757V11.2586L125.731 10.0156H125.868V30.7327L123.257 31.9757H123.119Z" fill="#1E1F21"/>
</svg>
