<svg width="113" height="27" viewBox="0 0 113 27" fill="none" xmlns="http://www.w3.org/2000/svg">
<path d="M12.571 25.0212C10.4652 25.0212 8.52959 24.532 6.76413 23.5535C5.01994 22.5751 3.62672 21.2138 2.58446 19.4696C1.56347 17.7041 1.05298 15.7259 1.05298 13.5351C1.05298 11.3442 1.56347 9.37668 2.58446 7.63249C3.62672 5.8883 5.01994 4.52698 6.76413 3.54854C8.52959 2.57009 10.4652 2.08086 12.571 2.08086C14.6768 2.08086 16.6018 2.57009 18.346 3.54854C20.1114 4.52698 21.494 5.8883 22.4937 7.63249C23.5147 9.37668 24.0252 11.3442 24.0252 13.5351C24.0252 15.7259 23.5147 17.7041 22.4937 19.4696C21.4727 21.2138 20.0902 22.5751 18.346 23.5535C16.6018 24.532 14.6768 25.0212 12.571 25.0212ZM12.571 20.0439C14.3577 20.0439 15.7829 19.4483 16.8464 18.2571C17.9312 17.066 18.4736 15.492 18.4736 13.5351C18.4736 11.5569 17.9312 9.98289 16.8464 8.81301C15.7829 7.62185 14.3577 7.02628 12.571 7.02628C10.763 7.02628 9.3166 7.61122 8.2318 8.7811C7.16827 9.95098 6.63651 11.5356 6.63651 13.5351C6.63651 15.5132 7.16827 17.0979 8.2318 18.2891C9.3166 19.4589 10.763 20.0439 12.571 20.0439ZM48.8203 6.80294C51.0325 6.80294 52.7873 7.47296 54.0848 8.81301C55.4036 10.1531 56.063 12.0142 56.063 14.3965V24.7979H50.639V15.1304C50.639 13.9818 50.3305 13.099 49.7137 12.4822C49.1181 11.8441 48.2886 11.525 47.225 11.525C46.1615 11.525 45.3213 11.8441 44.7045 12.4822C44.1089 13.099 43.8111 13.9818 43.8111 15.1304V24.7979H38.3871V15.1304C38.3871 13.9818 38.0787 13.099 37.4618 12.4822C36.8663 11.8441 36.0367 11.525 34.9732 11.525C33.9097 11.525 33.0695 11.8441 32.4526 12.4822C31.857 13.099 31.5593 13.9818 31.5593 15.1304V24.7979H26.1034V6.99437H31.5593V9.22778C32.1123 8.48331 32.8355 7.89837 33.7289 7.47296C34.6222 7.02628 35.6326 6.80294 36.7599 6.80294C38.1 6.80294 39.2911 7.09009 40.3334 7.66439C41.3969 8.2387 42.2265 9.05762 42.822 10.1211C43.4389 9.1427 44.2791 8.34505 45.3426 7.72821C46.4061 7.11136 47.5654 6.80294 48.8203 6.80294ZM75.704 15.609C75.704 16.1195 75.6721 16.6512 75.6083 17.2043H63.2607C63.3458 18.3103 63.6967 19.1611 64.3136 19.7567C64.9517 20.331 65.7281 20.6182 66.6427 20.6182C68.004 20.6182 68.9506 20.0439 69.4823 18.8953H75.2892C74.9914 20.0651 74.449 21.118 73.662 22.0539C72.8963 22.9899 71.9284 23.7237 70.7586 24.2555C69.5887 24.7872 68.2805 25.0531 66.8341 25.0531C65.0899 25.0531 63.5372 24.6809 62.1759 23.9364C60.8146 23.1919 59.751 22.1284 58.9853 20.7458C58.2195 19.3632 57.8367 17.7467 57.8367 15.8961C57.8367 14.0456 58.2089 12.429 58.9534 11.0464C59.7191 9.66383 60.7826 8.6003 62.144 7.85583C63.5053 7.11136 65.0687 6.73912 66.8341 6.73912C68.5571 6.73912 70.0885 7.10072 71.4286 7.82392C72.7686 8.54712 73.8109 9.57875 74.5554 10.9188C75.3211 12.2588 75.704 13.8222 75.704 15.609ZM70.1204 14.1732C70.1204 13.2373 69.8014 12.4928 69.1633 11.9398C68.5251 11.3867 67.7275 11.1102 66.7703 11.1102C65.8557 11.1102 65.0793 11.3761 64.4412 11.9079C63.8243 12.4396 63.4415 13.1947 63.2926 14.1732H70.1204ZM83.081 1.1875V24.7979H77.6251V1.1875H83.081ZM91.5335 1.1875V24.7979H86.0776V1.1875H91.5335ZM93.4455 15.8642C93.4455 14.0349 93.7858 12.429 94.4665 11.0464C95.1684 9.66383 96.115 8.6003 97.3061 7.85583C98.4973 7.11136 99.8267 6.73912 101.294 6.73912C102.549 6.73912 103.645 6.99437 104.581 7.50487C105.538 8.01536 106.272 8.68538 106.782 9.51494V6.99437H112.238V24.7979H106.782V22.2773C106.25 23.1068 105.506 23.7769 104.549 24.2874C103.613 24.7979 102.517 25.0531 101.262 25.0531C99.816 25.0531 98.4973 24.6809 97.3061 23.9364C96.115 23.1707 95.1684 22.0965 94.4665 20.7139C93.7858 19.31 93.4455 17.6935 93.4455 15.8642ZM106.782 15.8961C106.782 14.5348 106.399 13.4606 105.634 12.6736C104.889 11.8866 103.974 11.4931 102.89 11.4931C101.805 11.4931 100.88 11.8866 100.114 12.6736C99.3694 13.4394 98.9971 14.5029 98.9971 15.8642C98.9971 17.2255 99.3694 18.3103 100.114 19.1186C100.88 19.9056 101.805 20.2991 102.89 20.2991C103.974 20.2991 104.889 19.9056 105.634 19.1186C106.399 18.3316 106.782 17.2574 106.782 15.8961Z" fill="#1E1F21"/>
</svg>
