<svg width="44" height="44" viewBox="0 0 44 44" fill="none" xmlns="http://www.w3.org/2000/svg">
<path d="M33.8665 15.8C34.7367 15.8 35.5874 15.5419 36.311 15.0584C37.0346 14.5749 37.5985 13.8878 37.9316 13.0838C38.2646 12.2798 38.3517 11.3951 38.1819 10.5416C38.0122 9.68807 37.5931 8.90407 36.9778 8.28873C36.3624 7.67338 35.5784 7.25432 34.7249 7.08455C33.8714 6.91477 32.9867 7.00191 32.1827 7.33493C31.3787 7.66795 30.6915 8.23191 30.2081 8.95548C29.7246 9.67906 29.4665 10.5297 29.4665 11.4C29.4665 12.5669 29.9301 13.6861 30.7553 14.5112C31.5804 15.3364 32.6996 15.8 33.8665 15.8ZM33.8665 9.93332C34.1566 9.93332 34.4402 10.0193 34.6813 10.1805C34.9225 10.3417 35.1105 10.5707 35.2215 10.8387C35.3325 11.1067 35.3616 11.4016 35.305 11.6861C35.2484 11.9706 35.1087 12.2319 34.9036 12.4371C34.6985 12.6422 34.4372 12.7819 34.1526 12.8385C33.8681 12.895 33.5732 12.866 33.3053 12.755C33.0373 12.644 32.8082 12.456 32.647 12.2148C32.4859 11.9736 32.3999 11.6901 32.3999 11.4C32.3999 11.011 32.5544 10.6379 32.8294 10.3629C33.1045 10.0878 33.4775 9.93332 33.8665 9.93332ZM6 11.4C6 11.011 6.15452 10.6379 6.42957 10.3629C6.70463 10.0878 7.07768 9.93332 7.46666 9.93332H25.0666C25.4555 9.93332 25.8286 10.0878 26.1036 10.3629C26.3787 10.6379 26.5332 11.011 26.5332 11.4C26.5332 11.789 26.3787 12.162 26.1036 12.4371C25.8286 12.7121 25.4555 12.8666 25.0666 12.8666H7.46666C7.07768 12.8666 6.70463 12.7121 6.42957 12.4371C6.15452 12.162 6 11.789 6 11.4ZM16.2666 17.2666C15.3588 17.2692 14.4741 17.5524 13.7336 18.0776C12.9931 18.6027 12.4332 19.3441 12.1306 20.1999H7.46666C7.07768 20.1999 6.70463 20.3545 6.42957 20.6295C6.15452 20.9046 6 21.2776 6 21.6666C6 22.0556 6.15452 22.4286 6.42957 22.7037C6.70463 22.9787 7.07768 23.1332 7.46666 23.1332H12.1306C12.3997 23.8943 12.8729 24.5666 13.4985 25.0767C14.1241 25.5868 14.8779 25.9149 15.6775 26.0253C16.4771 26.1356 17.2917 26.0238 18.032 25.7022C18.7724 25.3806 19.41 24.8616 19.8751 24.2018C20.3402 23.5421 20.6149 22.7672 20.669 21.9618C20.7232 21.1565 20.5548 20.3517 20.1822 19.6357C19.8096 18.9196 19.2473 18.3199 18.5566 17.902C17.866 17.4842 17.0738 17.2643 16.2666 17.2666ZM16.2666 23.1332C15.9765 23.1332 15.693 23.0472 15.4518 22.8861C15.2106 22.7249 15.0226 22.4959 14.9116 22.2279C14.8006 21.9599 14.7715 21.665 14.8281 21.3805C14.8847 21.096 15.0244 20.8346 15.2295 20.6295C15.4346 20.4244 15.696 20.2847 15.9805 20.2281C16.265 20.1715 16.5599 20.2006 16.8279 20.3116C17.0959 20.4226 17.3249 20.6106 17.4861 20.8518C17.6473 21.0929 17.7333 21.3765 17.7333 21.6666C17.7333 22.0556 17.5787 22.4286 17.3037 22.7037C17.0286 22.9787 16.6556 23.1332 16.2666 23.1332ZM38.2665 21.6666C38.2665 22.0556 38.112 22.4286 37.8369 22.7037C37.5619 22.9787 37.1888 23.1332 36.7998 23.1332H25.0666C24.6776 23.1332 24.3045 22.9787 24.0295 22.7037C23.7544 22.4286 23.5999 22.0556 23.5999 21.6666C23.5999 21.2776 23.7544 20.9046 24.0295 20.6295C24.3045 20.3545 24.6776 20.1999 25.0666 20.1999H36.7998C37.1888 20.1999 37.5619 20.3545 37.8369 20.6295C38.112 20.9046 38.2665 21.2776 38.2665 21.6666ZM20.6666 31.9332C20.6666 32.3222 20.5121 32.6952 20.237 32.9703C19.962 33.2453 19.5889 33.3999 19.1999 33.3999H7.46666C7.07768 33.3999 6.70463 33.2453 6.42957 32.9703C6.15452 32.6952 6 32.3222 6 31.9332C6 31.5442 6.15452 31.1712 6.42957 30.8961C6.70463 30.6211 7.07768 30.4665 7.46666 30.4665H19.1999C19.5889 30.4665 19.962 30.6211 20.237 30.8961C20.5121 31.1712 20.6666 31.5442 20.6666 31.9332ZM36.7998 30.4665H32.1359C31.7899 29.488 31.1091 28.6632 30.2138 28.138C29.3186 27.6129 28.2665 27.4211 27.2435 27.5966C26.2205 27.7721 25.2925 28.3036 24.6235 29.0972C23.9545 29.8907 23.5875 30.8953 23.5875 31.9332C23.5875 32.9711 23.9545 33.9757 24.6235 34.7692C25.2925 35.5628 26.2205 36.0943 27.2435 36.2698C28.2665 36.4453 29.3186 36.2536 30.2138 35.7284C31.1091 35.2032 31.7899 34.3784 32.1359 33.3999H36.7998C37.1888 33.3999 37.5619 33.2453 37.8369 32.9703C38.112 32.6952 38.2665 32.3222 38.2665 31.9332C38.2665 31.5442 38.112 31.1712 37.8369 30.8961C37.5619 30.6211 37.1888 30.4665 36.7998 30.4665ZM27.9999 33.3999C27.7098 33.3999 27.4262 33.3138 27.185 33.1527C26.9439 32.9915 26.7559 32.7625 26.6449 32.4945C26.5339 32.2265 26.5048 31.9316 26.5614 31.6471C26.618 31.3626 26.7577 31.1012 26.9628 30.8961C27.1679 30.691 27.4292 30.5513 27.7137 30.4947C27.9983 30.4381 28.2931 30.4672 28.5611 30.5782C28.8291 30.6892 29.0582 30.8772 29.2194 31.1184C29.3805 31.3596 29.4665 31.6431 29.4665 31.9332C29.4665 32.3222 29.312 32.6952 29.037 32.9703C28.7619 33.2453 28.3889 33.3999 27.9999 33.3999Z" fill="#1E1F21"/>
</svg>

