<svg width="25" height="24" viewBox="0 0 25 24" fill="none" xmlns="http://www.w3.org/2000/svg">
<path d="M22.25 0.562587H2.75C2.30756 0.558084 1.8814 0.729282 1.56504 1.03862C1.24867 1.34795 1.06794 1.77016 1.0625 2.21259V21.7913C1.06892 22.2331 1.25009 22.6544 1.56634 22.9629C1.8826 23.2714 2.3082 23.4421 2.75 23.4376H22.25C22.6925 23.4411 23.1183 23.2693 23.4345 22.9598C23.7507 22.6503 23.9316 22.2282 23.9375 21.7857V2.20696C23.9296 1.76583 23.7479 1.34564 23.4319 1.03772C23.1159 0.729808 22.6912 0.559058 22.25 0.562587Z" fill="#0076B2"/>
<path d="M4.44871 9.13672H7.84434V20.0623H4.44871V9.13672ZM6.14746 3.69922C6.53692 3.69922 6.91764 3.81473 7.24144 4.03114C7.56523 4.24756 7.81757 4.55514 7.96653 4.91499C8.11548 5.27485 8.15436 5.67079 8.07824 6.05274C8.00213 6.43469 7.81444 6.78549 7.53891 7.06075C7.26339 7.33601 6.91242 7.52337 6.5304 7.59912C6.14837 7.67487 5.75246 7.63561 5.39275 7.48632C5.03304 7.33702 4.7257 7.08439 4.50959 6.76038C4.29349 6.43638 4.17834 6.05556 4.17871 5.66609C4.17921 5.14427 4.38685 4.644 4.75601 4.27519C5.12517 3.90638 5.62564 3.69922 6.14746 3.69922ZM9.97434 9.13672H13.2293V10.6367H13.2743C13.7281 9.77797 14.8343 8.87234 16.4862 8.87234C19.925 8.86484 20.5625 11.128 20.5625 14.0623V20.0623H17.1668V14.7467C17.1668 13.4811 17.1443 11.8517 15.4025 11.8517C13.6606 11.8517 13.3643 13.2317 13.3643 14.6642V20.0623H9.97434V9.13672Z" fill="white"/>
</svg>
