<svg width="81" height="37" viewBox="0 0 81 37" fill="none" xmlns="http://www.w3.org/2000/svg">
<path d="M0 11.6228C1.32545 12.8308 3.6385 13.6092 5.87358 13.6092C9.48609 13.6092 11.5912 11.7839 11.5912 9.31438C11.5912 5.87853 8.42053 5.34168 6.28941 4.96588C4.96395 4.7243 4.28823 4.50956 4.28823 3.91902C4.28823 3.35533 4.93796 3.03321 5.87358 3.03321C7.38096 3.03321 8.81037 3.70428 9.56406 4.45587L11.0974 1.71793C9.74598 0.697908 7.95272 0 5.84759 0C2.36502 0 0.467807 1.98635 0.467807 4.26797C0.467807 7.56961 3.48256 8.02594 5.61369 8.40173C6.91315 8.61647 7.7708 8.85806 7.7708 9.52912C7.7708 10.0928 7.277 10.4955 6.08149 10.4955C4.6001 10.4955 2.59893 9.63649 1.66331 8.77753L0 11.6228Z" fill="#1E1F21"/>
<path d="M12.8225 6.79118C12.8225 10.8713 15.7593 13.6092 19.6836 13.6092C22.3865 13.6092 24.0758 12.3476 24.8295 11.2202L22.2306 8.697C21.7368 9.42175 20.9311 9.9586 19.8656 9.9586C18.2022 9.9586 16.9288 8.75069 16.9288 6.79118C16.9288 4.83167 18.2022 3.65059 19.8656 3.65059C20.9311 3.65059 21.7368 4.13376 22.2306 4.88535L24.8295 2.38899C24.0758 1.23476 22.3865 0 19.6836 0C15.7593 0 12.8225 2.73795 12.8225 6.79118Z" fill="#1E1F21"/>
<path d="M26.6488 13.2871H30.6511V5.07325C31.1709 4.32166 32.5483 3.86533 33.5879 3.86533C34.0037 3.86533 34.3416 3.91902 34.5755 3.99955V0C33.0681 0 31.4828 0.912647 30.6511 1.95951V0.32211H26.6488V13.2871Z" fill="#1E1F21"/>
<path d="M44.8672 13.2871H48.8696V0.32211H44.8672V8.697C44.3994 9.31438 43.6198 9.9586 42.4762 9.9586C41.1768 9.9586 40.3971 9.42175 40.3971 7.86488V0.32211H36.3947V9.55596C36.3947 11.945 37.6682 13.6092 40.527 13.6092C42.6322 13.6092 44.0876 12.6429 44.8672 11.7302V13.2871Z" fill="#1E1F21"/>
<path d="M67.6026 13.2871H71.5789V3.89218C71.5789 1.23476 70.1236 0 67.8105 0C65.8353 0 64.198 1.18107 63.4703 2.30846C62.9505 0.778434 61.703 0 59.9098 0C57.9346 0 56.3232 1.15423 55.7775 1.90582V0.32211H51.7751V13.2871H55.7775V4.91219C56.1933 4.37534 56.947 3.65059 58.0125 3.65059C59.234 3.65059 59.6759 4.40218 59.6759 5.39536V13.2871H63.6782V4.91219C64.068 4.37534 64.8477 3.65059 65.9393 3.65059C67.1348 3.65059 67.6026 4.40218 67.6026 5.39536V13.2871Z" fill="#1E1F21"/>
<path d="M2.59814 36.6826H6.59782V19.1362H2.59814V36.6826Z" fill="#1E1F21"/>
<path d="M16.8989 36.6826H20.8986V28.7381C20.8986 24.7921 18.0677 23.6609 15.0549 23.6609C13.133 23.6609 10.9773 24.2397 9.36708 25.6339L10.7955 28.1856C11.8084 27.3175 13.107 26.844 14.3537 26.844C15.964 26.844 16.8989 27.5806 16.8989 28.6855V30.2902C16.1458 29.3431 14.6654 28.817 13.0032 28.817C11.0812 28.817 8.69181 29.7377 8.69181 32.8156C8.69181 35.683 11.0812 36.9983 13.0032 36.9983C14.6134 36.9983 16.1198 36.3669 16.8989 35.4199V36.6826ZM16.8989 33.4206C16.4834 34.0257 15.5484 34.3414 14.6654 34.3414C13.6005 34.3414 12.6655 33.8678 12.6655 32.8682C12.6655 31.8685 13.6005 31.395 14.6654 31.395C15.5484 31.395 16.4834 31.7107 16.8989 32.2894V33.4206Z" fill="#1E1F21"/>
<path d="M32.2686 36.6826H36.2683V23.9766H32.2686V32.1842C31.8011 32.7893 31.022 33.4206 29.8792 33.4206C28.5806 33.4206 27.8015 32.8945 27.8015 31.3687V23.9766H23.8018V33.026C23.8018 35.3673 25.0744 36.9983 27.9313 36.9983C30.0351 36.9983 31.4895 36.0513 32.2686 35.1569V36.6826Z" fill="#1E1F21"/>
<path d="M47.6647 36.6826H51.6644V27.6858C51.6644 25.3445 50.3658 23.6609 47.5089 23.6609C45.4052 23.6609 43.9248 24.6343 43.1716 25.5287V23.9766H39.1719V36.6826H43.1716V28.475C43.6391 27.8963 44.4182 27.2386 45.6129 27.2386C46.8596 27.2386 47.6647 27.791 47.6647 29.3431V36.6826Z" fill="#1E1F21"/>
<path d="M53.7363 30.3165C53.7363 34.315 56.6711 36.9983 60.5929 36.9983C63.294 36.9983 64.9821 35.7619 65.7353 34.657L63.1381 32.1842C62.6446 32.8945 61.8395 33.4206 60.7747 33.4206C59.1125 33.4206 57.8398 32.2368 57.8398 30.3165C57.8398 28.3961 59.1125 27.2386 60.7747 27.2386C61.8395 27.2386 62.6446 27.7121 63.1381 28.4487L65.7353 26.0022C64.9821 24.871 63.294 23.6609 60.5929 23.6609C56.6711 23.6609 53.7363 26.3442 53.7363 30.3165Z" fill="#1E1F21"/>
<path d="M76.0721 36.6826H80.0718V27.6332C80.0718 25.2919 78.7732 23.6609 75.9163 23.6609C73.8126 23.6609 72.3322 24.6343 71.579 25.5287V19.1362H67.603L67.5793 36.6826H71.579V28.475C72.0465 27.8963 72.8256 27.2386 73.9944 27.2386C75.267 27.2386 76.0721 27.7384 76.0721 29.2905V36.6826Z" fill="#1E1F21"/>
<path d="M67.6035 12.3218H71.5788V19.977H67.6035V12.3218Z" fill="#1E1F21"/>
</svg>
