<svg width="445" height="432" viewBox="0 0 445 432" fill="none" xmlns="http://www.w3.org/2000/svg">
<path d="M421.085 349.124C420.45 351.525 419.106 353.243 418.118 354.28C415.781 357.705 413.765 367.068 408.74 366.465C392.46 358.072 378.473 346.776 364.382 335.107C360.175 331.534 355.966 327.967 351.754 324.392C348.131 321.716 344.505 319.033 340.882 316.358C336.429 313.274 331.984 310.182 327.535 307.088C323.138 304.024 318.746 300.963 314.357 297.891C311.319 295.344 304.444 292.795 302.968 289.463C302.619 287.691 303.863 285.914 304.52 284.318C303.055 283.584 301.655 282.7 300.251 281.861L300.249 281.866C294.892 278.626 290.026 275.209 284.485 271.966C281.008 268.967 285.945 262.619 288.673 260.259C293.895 258.506 305.775 269.818 311.382 272.178C315.2 265.051 319.07 268.902 324.161 272.191C331.629 277.455 340.615 282.328 348.096 288.006C349.044 288.682 349.992 289.357 350.947 290.03C358.495 295.056 366.592 299.235 373.921 304.547C385.243 312.696 396.346 321.068 407.918 328.891L407.828 328.836C408.115 329.037 408.701 329.449 408.99 329.657L408.897 329.595C412.817 331.366 415.207 333.738 416.477 335.222C417.84 336.832 422.797 342.639 421.085 349.124Z" fill="white"/>
<path d="M109.111 270.59C86.6741 237.759 77.4089 196.211 94.5246 159.082C102.781 141.119 117.463 125.997 133.935 115.014C150.406 104.031 169.603 97.8279 189.376 97.0999C208.552 96.8825 227.478 101.332 244.517 110.063C261.555 118.794 276.191 131.543 287.158 147.207C309.819 180.969 304.399 223.415 287.268 257.935C287.136 258.298 286.974 258.855 286.974 259.315C286.974 259.448 287.057 259.792 287.267 259.905C287.326 259.937 287.347 259.905 287.729 259.774C288.107 259.692 288.878 258.833 289.112 258.524C311.173 224.754 314.89 178.774 291.909 144.696C280.098 127.814 260.605 114.827 242.113 105.682C223.621 96.537 206.723 91.5268 186.074 92.3564C97.801 97.819 50.353 204.334 107.461 271.912C108.168 272.887 109.791 271.601 109.111 270.59Z" fill="white"/>
<path d="M104.494 269.151C145.344 336.206 256.658 328.781 290.98 262.396C291.777 260.843 289.494 258.943 288.459 260.36C268.347 286.693 244.768 307.016 209.967 309.606C167.9 312.86 133.619 300.89 106.205 267.83C105.39 266.834 103.832 268.11 104.494 269.151Z" fill="white"/>
<path d="M135.081 281.436C108.612 258.65 95.1464 226.043 101.272 190.541C104.215 173.371 110.71 156.081 122.204 142.965C133.698 129.85 149.737 121.426 166.354 116.277C182.579 111.7 199.648 111.149 216.083 114.672C232.518 118.196 247.824 125.688 260.674 136.499C287.545 160.026 293.37 194.289 286.641 227.576C286.599 227.784 286.641 228.302 286.641 228.795C286.64 229.134 286.31 232.12 286.64 232.198C286.97 232.277 287.729 230.791 287.729 230.791C287.92 230.692 288.524 228.346 288.652 228.031C299.735 194.252 291.352 156.998 264.138 133.275C250.296 121.621 233.733 113.657 215.971 110.114C198.208 106.571 179.815 107.563 162.479 112.999C88.7995 137.866 72.629 239.337 136.383 283.737C137.205 284.404 135.886 282.14 135.081 281.436Z" fill="white"/>
<path d="M134.173 277.298C183.984 325.409 273.159 294.052 287.697 228.686C288.032 227.159 287.996 225.095 287.428 226.562C276.112 254.031 260.497 277.143 231.352 287.631C196.149 300.415 164.208 298.229 133.438 276.234C132.521 275.569 133.376 276.558 134.173 277.298Z" fill="white"/>
<path d="M105.504 271.123L107.092 273.217C107.287 273.475 107.687 273.428 107.817 273.133C107.869 273.015 107.864 272.881 107.805 272.767L106.589 270.438C106.552 270.366 106.501 270.302 106.44 270.248C105.855 269.742 105.037 270.507 105.504 271.123Z" fill="white"/>
<path d="M251.798 109.747L261.457 116.804L251.039 110.918C250.918 110.849 250.82 110.746 250.758 110.622C250.431 109.967 251.206 109.315 251.798 109.747Z" fill="white"/>
<path d="M166.375 208.743C162.807 220.518 158.666 233.082 154.662 244.906L149.489 240.529C164.925 225.987 182.5 208.882 198.7 195.486L186.29 223.003C181.089 235.415 176.769 243.955 167.775 254.611L167.382 251.063C167.422 245.401 168.872 242.323 168.872 236.463C170.261 230.596 172.286 224.576 174.894 218.562L183.961 226.254C178.649 230.399 173.097 233.587 167.766 237.543C159.28 243.71 148.97 250.899 140.328 256.782C148.099 241.148 156.351 224.969 164.688 209.464L166.375 208.743Z" fill="white"/>
<path d="M138.783 181.741C140.456 177.208 142.228 172.681 144.073 168.139L145.999 169.974C139.609 175.317 132.322 181.614 125.66 186.49L132.794 173.785C135.122 169.04 136.022 168.139 139.16 164.031L139.706 164.099C139.558 166.317 139.086 168.683 138.306 171.119C137.625 173.387 136.691 175.699 135.529 177.996L132.154 174.771C134.333 173.269 136.583 172.149 138.765 170.721C142.235 168.501 146.444 165.922 149.968 163.816C146.558 169.764 142.946 175.915 139.317 181.799L138.783 181.741Z" fill="white"/>
<rect x="301.07" y="256.852" width="17.0811" height="27.671" transform="rotate(30.3489 301.07 256.852)" fill="#1E1F21"/>
<path d="M313.829 269.813L313.882 269.7M313.829 269.813C313.686 270.075 313.543 270.337 313.401 270.6C313.4 270.602 313.399 270.603 313.398 270.604L313.231 269.944M313.829 269.813L313.403 269.63L313.409 269.617M313.829 269.813L313.415 269.606C313.413 269.61 313.411 269.613 313.409 269.617M313.882 269.7L303.509 286.274C304.467 284.958 305.409 283.632 306.293 282.291C306.864 281.446 307.403 280.582 307.94 279.721C308.258 279.21 308.576 278.7 308.899 278.197M313.882 269.7C314.057 269.373 313.914 268.971 313.555 268.788L313.882 269.7ZM313.231 269.944C313.149 270.095 313.067 270.246 312.985 270.397C312.943 270.473 312.902 270.549 312.861 270.625M313.231 269.944L313.209 269.859L312.994 269.012C313.105 269.071 313.216 269.129 313.327 269.188L313.332 269.19L313.332 269.19C313.493 269.273 313.509 269.416 313.466 269.496L313.461 269.507L313.456 269.517L313.409 269.617M313.231 269.944C313.29 269.835 313.349 269.726 313.409 269.617M312.861 270.625L313.237 270.902C312.663 271.959 312.082 273.02 311.466 274.059M312.861 270.625C312.275 271.703 311.688 272.779 311.063 273.833M312.861 270.625L312.467 270.336C312.361 270.258 312.256 270.181 312.151 270.103M311.466 274.059L308.899 278.197M311.466 274.059L311.06 273.837C311.061 273.835 311.062 273.834 311.063 273.833M311.466 274.059L311.065 273.829L311.063 273.833M308.899 278.197L308.498 277.968L308.5 277.965M308.899 278.197L308.502 277.962C308.501 277.963 308.5 277.964 308.5 277.965M308.5 277.965C308.17 278.478 307.851 278.991 307.532 279.503C306.999 280.357 306.469 281.207 305.902 282.047L305.899 282.051L305.899 282.051C305.353 282.88 304.783 283.705 304.201 284.525M308.5 277.965L311.063 273.833M304.201 284.525L303.272 283.979C302.976 283.805 302.679 283.632 302.382 283.46M304.201 284.525L304.331 284.602L304.121 284.638M304.201 284.525C304.174 284.563 304.147 284.6 304.121 284.638M312.151 270.103C311.353 271.077 310.562 272.049 309.797 273.024M312.151 270.103C312.189 270.056 312.228 270.009 312.267 269.962L301.368 284.195L300.968 284.264L301.044 284.711L301.444 284.942C301.514 284.829 301.584 284.717 301.655 284.605C301.732 284.482 301.809 284.36 301.887 284.237C302.032 284.321 302.177 284.405 302.322 284.49C302.474 284.578 302.626 284.667 302.778 284.757L303.025 284.368L302.949 283.921L302.418 284.013L301.98 284.089C302.031 284.009 302.082 283.928 302.133 283.848C302.216 283.718 302.299 283.589 302.382 283.46M312.151 270.103C312.027 270.013 311.903 269.922 311.779 269.832C310.981 270.806 310.188 271.781 309.421 272.759M309.797 273.024L306.913 276.952M309.797 273.024L309.802 273.018L309.421 272.759M309.797 273.024C309.796 273.026 309.794 273.028 309.793 273.03L309.421 272.759M306.913 276.952C306.56 277.449 306.204 277.932 305.851 278.411C305.245 279.234 304.648 280.044 304.092 280.887L304.092 280.887L304.086 280.896C303.501 281.741 302.935 282.598 302.382 283.46M306.913 276.952C306.914 276.951 306.915 276.95 306.915 276.949L306.53 276.695M306.913 276.952L306.911 276.955L306.53 276.695M302.382 283.46C302.248 283.383 302.115 283.306 301.982 283.229C302.538 282.362 303.108 281.499 303.698 280.647C304.259 279.795 304.87 278.966 305.483 278.135C305.834 277.657 306.187 277.179 306.53 276.695M304.121 284.638L303.101 284.814L301.12 285.157L300.388 285.284M304.121 284.638C303.793 285.098 303.462 285.557 303.128 286.016L303.123 286.022L303.118 286.029L303.073 286.096M300.388 285.284L303.46 286.347M300.388 285.284C300.857 285.605 301.327 285.924 301.797 286.241M300.388 285.284L301.528 286.616M300.388 285.284L300.112 285.332L300.215 285.166M300.388 285.284C300.33 285.245 300.273 285.205 300.215 285.166M303.073 286.096C303.074 286.095 303.075 286.093 303.076 286.092L303.46 286.347M303.073 286.096L303.069 286.102L303.46 286.347M303.073 286.096C302.831 286.429 302.271 286.551 301.797 286.241M303.46 286.347C303.048 286.922 302.182 287.046 301.528 286.616M301.797 286.241C301.798 286.242 301.799 286.242 301.8 286.243L301.528 286.616M301.797 286.241C301.797 286.241 301.796 286.24 301.795 286.24L301.528 286.616M300.215 285.166C298.618 284.071 297.031 282.954 295.476 281.81L295.477 281.811L295.188 282.172L295.475 281.809L295.428 281.774C294.058 280.752 292.689 279.729 291.353 278.668C292.921 279.419 294.462 280.204 296.003 280.997C297.711 281.894 299.411 282.822 301.086 283.777C300.938 284.011 300.79 284.246 300.644 284.48L300.215 285.166ZM309.421 272.759L306.53 276.695M290.176 275.716C291.982 273.755 293.624 271.689 295.198 269.584C295.335 269.396 295.473 269.208 295.61 269.021C296.433 267.894 297.247 266.78 297.991 265.622L297.991 265.622L297.997 265.613C298.66 264.631 299.256 263.603 299.826 262.558C299.652 262.469 299.478 262.379 299.303 262.289L298.707 261.981C297.96 262.892 297.243 263.811 296.601 264.761L296.601 264.761L296.598 264.765C295.68 266.09 294.825 267.456 293.964 268.833C292.596 271.077 291.304 273.344 290.176 275.716ZM299.103 261.502L299.453 261.442L300.756 261.216L300.774 261.213C300.59 261.075 300.405 260.939 300.221 260.803C300.004 260.644 299.77 260.705 299.677 260.821L299.672 260.826L299.667 260.832L299.564 260.951C299.409 261.135 299.255 261.319 299.103 261.502ZM301.743 261.939C301.616 261.843 301.488 261.747 301.361 261.652L301.248 261.865C301.194 261.967 301.14 262.069 301.086 262.17C302.223 262.751 303.371 263.338 304.494 263.962C303.561 263.305 302.648 262.619 301.743 261.939ZM312.202 268.592C311.368 268.147 310.535 267.694 309.71 267.226C310.48 267.756 311.241 268.298 311.994 268.845C312.039 268.791 312.084 268.736 312.129 268.681L312.131 268.679L312.202 268.592Z" fill="white" stroke="white" stroke-width="0.922366"/>
<path d="M304.179 264.19L302.68 263.252L293.089 277.444L294.588 278.381L304.179 264.19Z" fill="white" stroke="white" stroke-width="0.922366"/>
<path d="M304.15 266.002L303.754 265.692C303.652 265.612 303.55 265.531 303.45 265.449C301.916 267.514 300.416 269.578 299.098 271.739L299.097 271.74C297.912 273.666 296.78 275.603 295.762 277.612C297.258 275.896 298.642 274.108 299.991 272.298L304.15 266.002ZM304.15 266.002C302.834 268.15 301.496 270.277 299.991 272.298L304.15 266.002ZM293.45 279.122C293.357 279.016 293.263 278.911 293.168 278.808C293.135 278.848 293.102 278.889 293.069 278.929L293.02 278.989C293.162 279.035 293.305 279.08 293.45 279.122ZM305.133 263.834C304.909 263.725 304.681 263.621 304.45 263.52L304.466 263.919L304.52 265.314L304.523 265.393C304.623 265.228 304.723 265.064 304.823 264.9C304.883 264.803 304.942 264.705 305.002 264.608L305.067 264.49L305.072 264.481L305.077 264.472C305.189 264.29 305.222 264.118 305.21 263.998C305.199 263.884 305.156 263.847 305.133 263.834ZM293.107 277.411C293.801 276.525 294.47 275.618 295.11 274.703L295.11 274.703L295.117 274.694C296.011 273.484 296.779 272.167 297.478 270.814C297.729 270.328 297.983 269.838 298.247 269.351C297.895 269.775 297.538 270.193 297.182 270.606C296.19 271.777 295.249 272.989 294.451 274.26L294.451 274.261L294.447 274.267C293.856 275.174 293.287 276.106 292.739 277.048L293.001 277.306C293.036 277.341 293.071 277.376 293.107 277.411ZM292.208 277.977C292.168 278.048 292.129 278.119 292.089 278.189L291.993 278.375L291.993 278.375L291.989 278.384C291.935 278.484 291.931 278.561 291.937 278.598C291.938 278.601 291.939 278.605 291.939 278.607C292.039 278.644 292.138 278.68 292.237 278.716L292.235 278.674L292.208 277.977ZM303.909 263.291C303.826 263.256 303.743 263.222 303.659 263.188L303.332 263.581C303.245 263.685 303.159 263.789 303.074 263.893C303.151 263.963 303.228 264.033 303.305 264.102C303.331 264.067 303.357 264.032 303.383 263.997C303.462 263.892 303.54 263.786 303.619 263.681L303.909 263.291ZM302.507 262.935C302.494 262.958 302.482 262.982 302.469 263.006L302.801 262.878L302.839 262.863C302.839 262.863 302.838 262.863 302.837 262.863C302.813 262.853 302.788 262.843 302.763 262.833L302.75 262.828L302.738 262.823L302.659 262.786C302.654 262.788 302.647 262.791 302.638 262.795C302.597 262.816 302.546 262.86 302.51 262.93L302.51 262.93L302.507 262.935ZM302.67 262.783C302.671 262.783 302.672 262.783 302.672 262.783C302.672 262.783 302.671 262.783 302.67 262.783Z" stroke="white" stroke-width="0.922366"/>
<path d="M307.411 267.702C305.439 269.579 303.733 271.629 302.11 273.735C300.575 275.753 299.269 277.918 298 280.118L298.718 280.656C298.933 280.817 299.147 280.982 299.359 281.15C300.975 279.091 302.538 277.027 303.851 274.827C305.185 272.521 306.427 270.194 307.411 267.702ZM297.973 281.128L297.807 280.455C297.603 280.809 297.399 281.165 297.196 281.521L297.114 281.675L297.11 281.683L297.106 281.69C296.962 281.939 297.053 282.303 297.375 282.466L297.394 282.475L297.412 282.486C297.749 282.659 298.088 282.824 298.431 282.986L298.359 282.694L297.973 281.128ZM299.186 282.855L298.906 283.208C298.997 283.25 299.088 283.292 299.179 283.334L299.532 282.95C299.614 282.861 299.696 282.771 299.777 282.68C299.685 282.605 299.593 282.53 299.502 282.455C299.4 282.584 299.297 282.714 299.195 282.843L299.186 282.855ZM299.959 283.695L299.959 283.695C300.088 283.755 300.217 283.815 300.346 283.877L300.353 283.88L300.359 283.883L300.534 283.973C300.601 284 300.665 283.999 300.71 283.985C300.753 283.972 300.774 283.95 300.785 283.927L300.785 283.926L300.788 283.919C300.853 283.783 300.919 283.646 300.986 283.51L299.959 283.695ZM301.27 282.702L301.359 282.774C301.697 282.126 302.058 281.489 302.444 280.869C302.018 281.449 301.568 282.014 301.099 282.564C301.156 282.611 301.213 282.657 301.27 282.702ZM305.326 275.621C304.767 276.876 304.186 278.174 303.454 279.374C304.296 278.25 305.289 277.217 306.25 276.22C307.318 275.112 308.25 273.9 309.012 272.605L309.016 272.598L309.021 272.591C309.619 271.657 310.17 270.681 310.675 269.68L310.199 269.279C310.08 269.179 309.961 269.078 309.844 268.975C309.063 269.862 308.32 270.772 307.65 271.712L307.645 271.719L307.64 271.726C306.719 272.921 305.946 274.232 305.326 275.621ZM310.965 268.824L311.008 269C311.077 268.857 311.144 268.712 311.211 268.568L311.299 268.37L311.299 268.37L311.302 268.363C311.345 268.27 311.31 268.133 311.171 268.071L311.168 268.07C311.023 268.004 310.877 267.939 310.731 267.875L310.965 268.824ZM309.893 267.55L309.91 267.532C309.756 267.47 309.601 267.41 309.446 267.352C309.557 267.459 309.669 267.566 309.782 267.671C309.819 267.631 309.856 267.59 309.893 267.55Z" fill="white" stroke="white" stroke-width="0.922366"/>
<path d="M287.359 259.457L288.609 258.456L289.901 256.17L290.908 253.867L291.543 250.039L289.279 256.508L288.557 257.584L287.549 258.645" stroke="white" stroke-width="0.922366"/>
</svg>
