<svg width="18" height="21" viewBox="0 0 18 21" fill="none" xmlns="http://www.w3.org/2000/svg">
<path fill-rule="evenodd" clip-rule="evenodd" d="M3.05436 2.85887C4.62974 1.28348 6.76642 0.398438 8.99436 0.398438C11.2223 0.398438 13.359 1.28348 14.9344 2.85887C16.5097 4.43425 17.3948 6.57093 17.3948 8.79887C17.3948 11.0268 16.5097 13.1635 14.9344 14.7389L8.99436 20.6789L3.05436 14.7389C2.27425 13.9588 1.65544 13.0328 1.23324 12.0136C0.811051 10.9944 0.59375 9.90204 0.59375 8.79887C0.59375 7.69569 0.811051 6.60332 1.23324 5.58413C1.65544 4.56494 2.27425 3.63889 3.05436 2.85887ZM8.99436 11.1989C9.63087 11.1989 10.2413 10.946 10.6914 10.4959C11.1415 10.0458 11.3944 9.43539 11.3944 8.79887C11.3944 8.16235 11.1415 7.5519 10.6914 7.10181C10.2413 6.65172 9.63087 6.39887 8.99436 6.39887C8.35784 6.39887 7.74739 6.65172 7.2973 7.10181C6.84721 7.5519 6.59436 8.16235 6.59436 8.79887C6.59436 9.43539 6.84721 10.0458 7.2973 10.4959C7.74739 10.946 8.35784 11.1989 8.99436 11.1989Z" fill="#12E2B0"/>
</svg>
