<svg width="479" height="527" viewBox="0 0 479 527" fill="none" xmlns="http://www.w3.org/2000/svg">
<g clip-path="url(#clip0_2573_12622)">
<path d="M333.956 50.9179C312.332 56.9559 290.548 62.3368 268.621 67.1401C257.634 69.4422 246.592 71.5253 235.634 73.9468C224.671 76.3485 213.786 79.0688 202.915 81.8488C192.05 84.6488 181.17 87.389 170.255 89.9898C159.346 92.6105 148.441 95.2512 137.498 97.7325C115.591 102.615 93.64 107.319 71.5426 111.426C71.4028 111.458 71.2785 111.402 71.259 111.323C71.2394 111.243 71.3296 111.159 71.4693 111.127C93.1025 105.129 114.887 99.7478 136.721 94.5661C147.645 92.0051 158.608 89.6034 169.566 87.1818C180.52 84.7403 191.508 82.4383 202.51 80.1959C213.507 77.9337 224.485 75.5917 235.395 72.971C246.299 70.3304 257.13 67.391 268.011 64.6508C289.82 59.3695 311.771 54.6658 333.883 50.6192C334.022 50.587 334.147 50.6425 334.166 50.7221C334.151 50.8099 334.061 50.8937 333.956 50.9179Z" fill="black"/>
<path d="M419.215 414.141C395.096 420.807 370.811 426.816 346.379 432.249C334.138 434.867 321.842 437.265 309.631 440.002C297.416 442.718 285.281 445.753 273.161 448.847C261.046 451.961 248.916 455.015 236.75 457.931C224.59 460.866 212.435 463.821 200.239 466.617C175.828 472.13 151.371 477.464 126.763 482.201C126.608 482.237 126.471 482.185 126.45 482.105C126.43 482.026 126.532 481.939 126.688 481.903C150.817 475.277 175.102 469.268 199.438 463.457C211.613 460.581 223.829 457.865 236.039 455.128C248.245 452.372 260.486 449.755 272.742 447.197C284.993 444.62 297.224 441.963 309.384 439.028C321.54 436.073 333.619 432.819 345.749 429.765C370.06 423.855 394.516 418.521 419.139 413.843C419.295 413.807 419.432 413.859 419.452 413.939C419.433 414.027 419.332 414.114 419.215 414.141Z" fill="black"/>
<path d="M420.173 412.701C411.856 382.901 404.263 352.906 397.307 322.74C393.939 307.628 390.811 292.45 387.311 277.373C383.833 262.291 380.004 247.302 376.109 232.331C372.192 217.366 368.34 202.383 364.643 187.359C360.923 172.341 357.181 157.329 353.615 142.27C346.571 112.128 339.725 81.9326 333.536 51.5606C333.49 51.3683 333.543 51.2005 333.631 51.1769C333.719 51.1533 333.819 51.2799 333.866 51.4722C342.139 81.2844 349.731 111.279 357.105 141.333C360.759 156.369 364.237 171.452 367.737 186.529C371.259 201.6 374.627 216.712 377.93 231.842C381.255 246.966 384.667 262.067 388.387 277.085C392.128 292.097 396.199 307.021 400.05 322.003C407.533 352.028 414.38 382.223 420.502 412.613C420.549 412.805 420.495 412.973 420.408 412.996C420.308 412.972 420.208 412.845 420.173 412.701Z" fill="black"/>
<path d="M128.004 480.519C120.155 452.537 113.031 424.365 106.544 396.025C103.41 381.826 100.518 367.564 97.253 353.399C94.0096 339.229 90.4146 325.152 86.7537 311.092C83.0708 297.037 79.4538 282.966 75.9906 268.853C72.5055 254.747 68.9984 240.646 65.6671 226.499C59.0924 198.183 52.7154 169.814 46.9978 141.272C46.9546 141.091 47.0102 140.933 47.0981 140.909C47.186 140.886 47.2842 141.005 47.3274 141.185C55.1327 169.178 62.2568 197.351 69.1612 225.581C72.5804 239.705 75.8238 253.875 79.0892 268.039C82.3765 282.197 85.5101 296.396 88.5777 310.612C91.6672 324.823 94.8447 339.01 98.3298 353.116C101.837 367.217 105.674 381.231 109.291 395.303C116.305 423.504 122.682 451.873 128.334 480.432C128.377 480.613 128.321 480.771 128.233 480.794C128.135 480.772 128.036 480.654 128.004 480.519Z" fill="black"/>
<path d="M234.918 261.824C243.352 259.494 251.843 257.392 260.386 255.492C264.667 254.577 268.966 253.738 273.236 252.781C277.507 251.831 281.751 250.77 285.989 249.688C290.225 248.599 294.466 247.531 298.72 246.512C302.972 245.485 307.223 244.452 311.487 243.474C320.023 241.546 328.575 239.681 337.179 238.024C337.234 238.011 337.282 238.029 337.289 238.057C337.296 238.085 337.26 238.115 337.206 238.128C328.768 240.444 320.277 242.546 311.767 244.578C307.51 245.583 303.238 246.533 298.969 247.49C294.701 248.454 290.42 249.37 286.135 250.264C281.851 251.166 277.574 252.095 273.322 253.121C269.072 254.154 264.848 255.292 260.607 256.36C252.106 258.427 243.554 260.292 234.944 261.928C234.89 261.941 234.842 261.923 234.835 261.895C234.842 261.864 234.877 261.834 234.918 261.824Z" fill="black"/>
<path d="M205.324 135.762C213.747 133.434 222.229 131.335 230.761 129.438C235.036 128.524 239.331 127.686 243.595 126.73C247.862 125.782 252.1 124.722 256.333 123.641C260.564 122.554 264.8 121.487 269.049 120.469C273.295 119.444 277.541 118.412 281.8 117.435C290.325 115.51 298.867 113.647 307.461 111.992C307.515 111.98 307.563 111.998 307.57 112.026C307.577 112.054 307.541 112.084 307.487 112.097C299.06 114.411 290.579 116.509 282.08 118.539C277.828 119.543 273.561 120.492 269.297 121.447C265.034 122.41 260.759 123.324 256.479 124.217C252.2 125.117 247.929 126.045 243.682 127.07C239.437 128.102 235.218 129.239 230.982 130.305C222.491 132.369 213.95 134.232 205.351 135.866C205.296 135.879 205.248 135.86 205.241 135.833C205.248 135.802 205.283 135.771 205.324 135.762Z" fill="black"/>
<path d="M204.979 136.265C207.884 146.672 210.536 157.148 212.965 167.683C214.142 172.961 215.234 178.261 216.456 183.527C217.671 188.794 219.008 194.029 220.368 199.258C221.737 204.484 223.082 209.717 224.373 214.964C225.672 220.209 226.979 225.451 228.224 230.711C230.684 241.238 233.075 251.783 235.237 262.39C235.253 262.458 235.234 262.516 235.203 262.524C235.173 262.533 235.138 262.488 235.122 262.421C232.232 252.01 229.581 241.534 227.005 231.038C225.729 225.787 224.515 220.519 223.292 215.254C222.062 209.99 220.886 204.712 219.732 199.428C218.571 194.146 217.38 188.873 216.08 183.628C214.774 178.385 213.352 173.173 212.007 167.94C209.394 157.454 207.003 146.909 204.864 136.296C204.848 136.229 204.867 136.17 204.897 136.162C204.932 136.17 204.967 136.214 204.979 136.265Z" fill="black"/>
<path d="M307.017 112.578C309.756 122.34 312.242 132.168 314.505 142.056C315.598 147.009 316.607 151.985 317.746 156.927C318.877 161.87 320.132 166.782 321.409 171.687C322.694 176.59 323.956 181.5 325.164 186.423C326.38 191.344 327.604 196.264 328.766 201.199C331.06 211.079 333.284 220.976 335.279 230.934C335.294 230.997 335.274 231.052 335.244 231.06C335.213 231.068 335.179 231.027 335.164 230.964C332.44 221.198 329.955 211.369 327.546 201.52C326.353 196.593 325.221 191.649 324.082 186.708C322.935 181.768 321.842 176.814 320.772 171.854C319.694 166.897 318.586 161.947 317.37 157.026C316.146 152.106 314.807 147.217 313.545 142.308C311.098 132.469 308.874 122.572 306.902 112.608C306.887 112.545 306.907 112.489 306.937 112.481C306.972 112.489 307.006 112.53 307.017 112.578Z" fill="black"/>
<path d="M317.795 49.0855C316.537 47.1978 314.744 45.7281 312.646 44.8646C310.548 44.001 308.24 43.783 306.018 44.2384C303.796 44.6937 301.761 45.8018 300.173 47.4207C298.586 49.0395 297.518 51.0954 297.107 53.3251L296.505 56.8939C296.408 57.4658 296.92 57.9546 297.487 57.8317L298.742 57.5594C299.072 57.488 299.324 57.222 299.377 56.8891L299.866 53.8482C300.3 51.6002 301.608 49.6163 303.503 48.3319C305.399 47.0525 307.724 46.576 309.971 47.0068C312.219 47.4376 314.204 48.7405 315.493 50.6305C316.14 51.566 316.596 52.6202 316.833 53.7323C317.071 54.8444 317.086 55.9924 316.878 57.1102L311.565 84.7837L308.476 100.875C308.203 102.284 307.382 103.527 306.194 104.331C305.005 105.136 303.545 105.435 302.134 105.165C300.724 104.892 299.48 104.071 298.675 102.882C297.869 101.693 297.568 100.234 297.838 98.824L303.271 70.5098C303.357 70.0644 303.064 69.6341 302.619 69.5497L301.47 69.3319C301.026 69.2478 300.598 69.5387 300.513 69.9823L295.079 98.3148C294.672 100.443 295.128 102.646 296.345 104.44C297.562 106.234 299.442 107.471 301.571 107.881C302.081 107.975 302.598 108.021 303.116 108.019C305.014 108.015 306.852 107.353 308.315 106.145C309.778 104.938 310.776 103.26 311.139 101.398L314.502 83.8038L319.527 57.6057C319.817 56.1419 319.813 54.6351 319.515 53.1726C319.218 51.7101 318.633 50.3209 317.795 49.0855Z" fill="black"/>
<path d="M293.381 187.184C293.332 187.337 293.287 187.494 293.245 187.657C293.169 187.562 293.224 187.393 293.381 187.184C295.311 181.068 301.998 182.875 302.604 187.738C303.226 192.723 299.923 202.049 299.809 199.226C304.723 180.083 294.812 185.274 293.381 187.184Z" fill="black"/>
<path d="M254.635 198.85C254.746 198.965 254.857 199.086 254.967 199.213C254.993 199.095 254.868 198.967 254.635 198.85C250.184 194.233 245.001 198.829 246.623 203.453C248.286 208.193 255.396 215.074 254.241 212.495C241.318 197.543 252.503 197.778 254.635 198.85Z" fill="black"/>
<path d="M271.343 160.643C278.459 157.251 290.297 161.924 292.825 175.093C295.976 191.506 300.996 209.873 298.906 217.819C295.617 225.473 291.001 232.292 285.899 234.637C282.15 235.518 270.347 230.182 266.612 227.126C261.714 223.116 254.631 202.703 248.364 185.538C264.612 177.707 264.226 164.035 271.343 160.643Z" stroke="black" stroke-width="0.992693"/>
<path d="M289.824 216.657C288.204 217.668 285.736 219.906 282.634 220.618C279.085 221.432 274.906 220.643 273.648 220.457" stroke="#1E1F21" stroke-width="0.992693" stroke-linecap="round" stroke-linejoin="round"/>
<path d="M274.476 194.654C276.791 201.961 277.847 209.004 277.654 210.731C277.462 212.459 277.712 213.522 279.98 212.989C282.249 212.456 282.691 211.791 282.442 210.728" stroke="#1E1F21" stroke-width="0.992693" stroke-linecap="round" stroke-linejoin="round"/>
<path d="M277.674 190.482C281.578 185.304 283.853 185.302 290.021 184.918" stroke="#1E1F21" stroke-width="0.992693" stroke-linecap="round" stroke-linejoin="round"/>
<path d="M272.218 192.625C264.439 190.386 261.629 192.679 258.267 194.994" stroke="#1E1F21" stroke-width="0.992693" stroke-linecap="round" stroke-linejoin="round"/>
<path d="M284.926 196.468C286.586 196.078 286.322 193.978 286.049 192.82C284.623 193.066 283.061 193.546 281.697 194.24C282.197 195.46 283.266 196.858 284.926 196.468Z" fill="#1E1F21"/>
<path d="M279.032 196.231C279.697 195.445 280.637 194.778 281.697 194.24M289.305 192.736C288.485 192.568 287.321 192.601 286.049 192.82M286.049 192.82C286.322 193.978 286.586 196.078 284.926 196.468C283.266 196.858 282.197 195.46 281.697 194.24M286.049 192.82C284.623 193.066 283.061 193.546 281.697 194.24" stroke="#1E1F21" stroke-width="0.992693" stroke-linecap="round" stroke-linejoin="round"/>
<path d="M267.86 201.332C265.757 201.826 264.81 199.867 264.746 198.805C265.964 198.367 267.771 197.838 268.951 197.817C269.352 198.738 269.542 200.937 267.86 201.332Z" fill="#1E1F21"/>
<path d="M261.393 201.064C262.144 200.051 263.379 199.297 264.746 198.805M271.907 198.594C271.265 198.171 270.163 197.796 268.951 197.817M264.746 198.805C264.81 199.867 265.757 201.826 267.86 201.332C269.542 200.937 269.352 198.738 268.951 197.817M264.746 198.805C265.964 198.367 267.771 197.838 268.951 197.817" stroke="#1E1F21" stroke-width="0.992693" stroke-linecap="round" stroke-linejoin="round"/>
<path d="M242.042 166.763C233.746 172.684 238.371 180.244 244.548 191.984C249.547 201.134 246.748 198.924 249.32 197.746C251.893 196.568 253.042 201.46 252.334 193.596C251.627 185.733 257.242 178.104 265.018 169.969C272.793 161.833 286.618 164.894 287.837 174.932C289.055 184.97 293.219 185.712 297.411 184.154C301.603 182.595 297.656 175.493 299.933 165.781C302.21 156.069 289.789 158.987 289.534 157.9C288.943 140.832 277.563 136.049 267.244 143.062C256.925 150.074 255.218 157.358 242.042 166.763Z" stroke="#1E1F21" stroke-width="0.992693"/>
<path d="M71.5053 111.372C71.4596 111.26 71.3123 111.235 71.2319 111.325L71.0015 111.584L46.9406 140.94C46.8473 141.054 46.9401 141.224 47.0862 141.206L80.306 137.24L81.7153 136.909C81.8131 136.886 81.8673 136.781 81.8293 136.688L71.5053 111.372Z" fill="black"/>
<rect x="98.3203" y="189.684" width="99.0211" height="3.27815" transform="rotate(-13.2204 98.3203 189.684)" fill="black"/>
<rect x="100.914" y="202.606" width="72.9424" height="3.27815" transform="rotate(-13.2204 100.914 202.606)" fill="black"/>
<path d="M103.93 215.517L189.694 195.369L190.444 198.56L104.679 218.708L103.93 215.517Z" fill="black"/>
<path d="M107.523 228.825L203.92 206.179L204.67 209.371L108.273 232.016L107.523 228.825Z" fill="black"/>
<rect x="237.094" y="274.254" width="107.211" height="3.27815" transform="rotate(-13.2204 237.094 274.254)" fill="black"/>
<path d="M240.219 287.009L325.061 267.077L325.811 270.269L240.968 290.2L240.219 287.009Z" fill="black"/>
<path d="M252.133 337.734L353.575 313.903L354.324 317.095L252.883 340.926L252.133 337.734Z" fill="black"/>
<path d="M243.242 299.919L333.618 278.688L334.367 281.879L243.992 303.11L243.242 299.919Z" fill="black"/>
<path d="M255.156 350.645L351.065 328.113L351.814 331.305L255.906 353.836L255.156 350.645Z" fill="black"/>
<path d="M246.281 313.394L350.651 288.875L351.4 292.066L247.031 316.585L246.281 313.394Z" fill="black"/>
<path d="M258.195 364.112L362.565 339.594L363.314 342.785L258.945 367.304L258.195 364.112Z" fill="black"/>
<rect x="134.293" y="338.7" width="26.0582" height="26.0582" transform="rotate(-13.2204 134.293 338.7)" stroke="black" stroke-width="1.48904"/>
<rect x="143.661" y="378.568" width="26.0582" height="26.0582" transform="rotate(-13.2204 143.661 378.568)" stroke="black" stroke-width="1.48904"/>
<rect x="159.555" y="289.94" width="51.3718" height="3.27815" transform="rotate(-13.2204 159.555 289.94)" fill="black"/>
<rect x="168.914" y="329.808" width="51.3718" height="3.27815" transform="rotate(-13.2204 168.914 329.808)" fill="black"/>
<rect x="178.289" y="369.675" width="51.3718" height="3.27815" transform="rotate(-13.2204 178.289 369.675)" fill="black"/>
<rect x="161.406" y="297.916" width="36.4815" height="3.27815" transform="rotate(-13.2204 161.406 297.916)" fill="black"/>
<rect x="170.781" y="337.783" width="36.4815" height="3.27815" transform="rotate(-13.2204 170.781 337.783)" fill="black"/>
<rect x="180.148" y="377.643" width="36.4815" height="3.27815" transform="rotate(-13.2204 180.148 377.643)" fill="black"/>
<g clip-path="url(#clip1_2573_12622)">
<path d="M187.318 139.504C182.996 140.747 178.637 141.89 174.302 143.073L161.136 146.506C152.348 148.746 143.546 150.926 134.737 153.076L121.49 156.154L108.206 159.069C99.3431 160.982 90.5073 163.015 81.6985 165.165L81.943 164.934L81.9357 164.967L81.7779 164.537L85.9426 167.096C86.1172 167.21 86.1854 167.444 86.0817 167.64C86.0603 167.677 86.0248 167.717 85.9894 167.756L81.2928 171.651L81.1486 170.889L86.1795 172.427C86.4352 172.506 86.5907 172.797 86.5181 173.064C86.5034 173.13 86.4747 173.2 86.4251 173.243L86.4144 173.261L83.6466 176.754L83.4826 175.841L87.8596 178.224C88.1813 178.396 88.3041 178.804 88.1397 179.125C88.111 179.194 88.0648 179.252 88.0293 179.292L88.0045 179.314L85.7813 181.613C85.6501 181.754 85.4704 181.813 85.2946 181.824L85.2665 181.831L85.2524 181.834L85.7452 180.544L85.8009 180.593L85.17 180.433C93.9484 178.149 102.74 175.925 111.542 173.744C120.348 171.579 129.133 169.325 137.965 167.278C146.787 165.187 155.599 163.051 164.449 161.078L177.709 158.06L190.993 155.145L190.597 155.818L187.318 139.504ZM187.502 139.335L191.65 155.549C191.732 155.842 191.564 156.148 191.282 156.215L191.254 156.222L178.092 159.67L164.906 163.014C156.124 165.283 147.305 167.389 138.496 169.54C129.694 171.72 120.852 173.722 112.026 175.799C103.197 177.861 94.358 179.878 85.5053 181.836L85.4771 181.843C85.2518 181.897 85.0276 181.826 84.871 181.661L84.8152 181.612L84.7978 181.6C84.5122 181.325 84.4812 180.864 84.7543 180.564C84.8963 180.405 85.1148 180.321 85.308 180.322L85.3221 180.318L84.8039 180.521L87.1037 178.296L87.2486 179.386L82.9538 176.843L82.9363 176.831C82.6637 176.678 82.565 176.311 82.7222 176.024C82.7436 175.987 82.765 175.951 82.7898 175.929L85.6658 172.52L85.9041 173.368L80.9239 171.661L80.9098 171.665C80.6856 171.594 80.5684 171.341 80.6371 171.121C80.6624 171.037 80.7193 170.961 80.783 170.914L85.528 167.102L85.5714 167.748L81.4247 165.137C81.285 165.046 81.2129 164.86 81.267 164.707L81.2743 164.674C81.307 164.556 81.4061 164.47 81.5188 164.443C90.341 162.352 99.1363 160.142 107.904 157.814L121.067 154.366L134.266 151.081C143.089 148.99 151.918 146.928 160.76 144.925L174.041 141.996C178.483 141.083 182.907 140.097 187.359 139.229C187.436 139.242 187.489 139.276 187.502 139.335Z" fill="black"/>
</g>
<g clip-path="url(#clip2_2573_12622)">
<path d="M95.861 179.03C100.189 177.811 104.555 176.693 108.897 175.533L122.081 172.173C130.882 169.983 139.696 167.851 148.516 165.75L161.78 162.745L175.08 159.904C183.954 158.04 192.8 156.057 201.621 153.955L201.375 154.184L201.383 154.151L201.538 154.583L197.388 152C197.214 151.885 197.147 151.651 197.252 151.455C197.273 151.419 197.309 151.379 197.345 151.34L202.063 147.472L202.203 148.234L197.18 146.668C196.925 146.587 196.771 146.296 196.845 146.029C196.86 145.963 196.889 145.894 196.939 145.851L196.95 145.833L199.737 142.355L199.896 143.269L195.532 140.862C195.212 140.688 195.091 140.279 195.257 139.96C195.286 139.89 195.333 139.833 195.369 139.793L195.393 139.772L197.629 137.484C197.761 137.344 197.941 137.286 198.117 137.276L198.145 137.269L198.16 137.266L197.66 138.553L197.604 138.504L198.234 138.668C189.443 140.903 180.639 143.079 171.825 145.21C163.008 147.327 154.211 149.532 145.367 151.53C136.533 153.573 127.709 155.659 118.849 157.583L105.572 160.528L92.2723 163.369L92.672 162.698L95.861 179.03ZM95.6759 179.198L91.6177 162.962C91.5376 162.668 91.7072 162.363 91.9892 162.297L92.0174 162.291L105.199 158.916L118.403 155.645C127.197 153.424 136.028 151.367 144.848 149.265C153.662 147.134 162.516 145.181 171.353 143.153C180.193 141.14 189.043 139.172 197.907 137.263L197.935 137.257C198.16 137.204 198.384 137.276 198.54 137.442L198.595 137.491L198.613 137.503C198.897 137.779 198.925 138.241 198.651 138.539C198.508 138.697 198.289 138.78 198.095 138.779L198.081 138.782L198.601 138.582L196.289 140.794L196.15 139.703L200.43 142.27L200.448 142.282C200.72 142.437 200.816 142.804 200.657 143.091C200.636 143.127 200.614 143.163 200.589 143.185L197.695 146.578L197.461 145.728L202.432 147.463L202.446 147.46C202.67 147.532 202.785 147.785 202.715 148.005C202.69 148.089 202.632 148.164 202.568 148.211L197.802 151.997L197.762 151.351L201.895 153.984C202.034 154.076 202.105 154.262 202.05 154.416L202.042 154.449C202.009 154.566 201.91 154.651 201.797 154.678C192.963 156.72 184.156 158.881 175.375 161.161L162.193 164.536L148.976 167.748C140.142 169.79 131.302 171.803 122.448 173.756L109.151 176.612C104.705 177.5 100.275 178.462 95.8184 179.305C95.7413 179.292 95.6891 179.257 95.6759 179.198Z" fill="black"/>
</g>
<g clip-path="url(#clip3_2573_12622)">
<path d="M149.003 292.887C142.838 294.729 136.616 296.424 130.43 298.179L111.639 303.272C99.0946 306.595 86.5294 309.831 73.9538 313.024L55.0388 317.595L36.0668 321.928C23.4085 324.772 10.7916 327.791 -1.78395 330.983L-1.43874 330.644L-1.4485 330.692L-1.6841 330.06L4.34069 333.805C4.59346 333.972 4.69634 334.315 4.55219 334.604C4.52232 334.658 4.47237 334.717 4.42239 334.775L-2.22157 340.515L-2.44518 339.396L4.79839 341.638C5.16663 341.753 5.39591 342.18 5.29772 342.573C5.2782 342.67 5.23857 342.772 5.1685 342.836L5.15357 342.863L1.2646 348.005L1.00937 346.664L7.33458 350.149C7.79935 350.402 7.98441 351.001 7.75584 351.472C7.71621 351.574 7.65132 351.66 7.60134 351.718L7.56628 351.75L4.43137 355.138C4.24642 355.345 3.99021 355.432 3.73861 355.449L3.6984 355.459L3.67831 355.464L4.3559 353.567L4.43691 353.639L3.52924 353.405C16.0582 350.017 28.6079 346.716 41.1731 343.48C53.7435 340.265 66.2828 336.921 78.8946 333.88C91.4908 330.775 104.072 327.604 116.709 324.672L135.645 320.188L154.617 315.856L154.064 316.846L149.003 292.887ZM149.263 292.637L155.567 316.447C155.691 316.877 155.457 317.327 155.055 317.428L155.015 317.438L136.229 322.553L117.407 327.516C104.873 330.882 92.2817 334.009 79.7061 337.202C67.1409 340.438 54.5137 343.413 41.9123 346.497C29.3057 349.559 16.6836 352.556 4.04077 355.466L4.00057 355.476C3.67889 355.556 3.35601 355.453 3.12792 355.211L3.04691 355.139L3.02164 355.122C2.60627 354.719 2.55161 354.042 2.93645 353.6C3.13632 353.365 3.44764 353.241 3.72453 353.241L3.74464 353.236L3.0065 353.536L6.2529 350.259L6.48462 351.86L0.273707 348.138L0.248415 348.121C-0.145688 347.897 -0.295135 347.359 -0.0763121 346.936C-0.0464586 346.882 -0.0165921 346.828 0.0184489 346.797L4.06427 341.776L4.42462 343.022L-2.75005 340.532L-2.77018 340.537C-3.09303 340.434 -3.26656 340.062 -3.17297 339.739C-3.13851 339.616 -3.0587 339.504 -2.96852 339.435L3.7467 333.815L3.82323 334.764L-2.17686 330.943C-2.37909 330.81 -2.48657 330.537 -2.41248 330.311L-2.40272 330.263C-2.3585 330.09 -2.21837 329.963 -2.05753 329.923C10.5387 326.817 23.0936 323.538 35.607 320.084L54.3928 314.969L73.2354 310.094C85.8316 306.988 98.4382 303.926 111.065 300.951L130.032 296.597C136.377 295.24 142.696 293.774 149.056 292.482C149.167 292.5 149.243 292.55 149.263 292.637Z" fill="black"/>
</g>
<g clip-path="url(#clip4_2573_12622)">
<path d="M130.143 322.402C136.32 320.602 142.552 318.945 148.749 317.23L167.57 312.251C180.134 309.003 192.717 305.839 205.31 302.717L224.249 298.246L243.242 294.008C255.914 291.225 268.547 288.273 281.14 285.152L280.791 285.483L280.802 285.436L281.03 286.051L275.058 282.41C274.807 282.248 274.708 281.914 274.856 281.632C274.886 281.58 274.937 281.523 274.987 281.466L281.688 275.869L281.898 276.959L274.692 274.783C274.325 274.671 274.101 274.256 274.204 273.873C274.225 273.778 274.265 273.679 274.336 273.617L274.351 273.591L278.294 268.579L278.533 269.885L272.258 266.497C271.797 266.252 271.619 265.669 271.853 265.21C271.894 265.11 271.96 265.027 272.01 264.97L272.046 264.939L275.215 261.637C275.402 261.435 275.659 261.349 275.91 261.333L275.951 261.323L275.971 261.318L275.272 263.166L275.192 263.096L276.096 263.323C263.547 266.635 250.978 269.863 238.394 273.026C225.806 276.169 213.247 279.439 200.62 282.412C188.007 285.449 175.409 288.55 162.756 291.417L143.798 295.803L124.805 300.041L125.368 299.076L130.143 322.402ZM129.88 322.645L123.863 299.466C123.745 299.048 123.983 298.609 124.386 298.511L124.426 298.501L143.242 293.501L162.093 288.649C174.647 285.358 187.255 282.3 199.848 279.179C212.431 276.015 225.074 273.105 237.692 270.089C250.314 267.095 262.952 264.163 275.609 261.317L275.649 261.307C275.971 261.228 276.292 261.329 276.517 261.565L276.597 261.635L276.622 261.651C277.032 262.043 277.079 262.702 276.69 263.133C276.487 263.361 276.175 263.483 275.899 263.483L275.879 263.488L276.619 263.195L273.34 266.39L273.127 264.831L279.285 268.449L279.31 268.465C279.701 268.683 279.844 269.207 279.62 269.619C279.59 269.672 279.56 269.724 279.524 269.755L275.426 274.648L275.081 273.435L282.216 275.852L282.236 275.847C282.557 275.948 282.726 276.309 282.629 276.624C282.593 276.744 282.512 276.853 282.421 276.92L275.651 282.399L275.585 281.476L281.532 285.19C281.732 285.32 281.836 285.585 281.76 285.805L281.749 285.853C281.703 286.02 281.562 286.144 281.401 286.184C268.788 289.221 256.214 292.427 243.68 295.803L224.864 300.803L205.994 305.57C193.381 308.607 180.758 311.601 168.116 314.511L149.128 318.77C142.777 320.098 136.451 321.532 130.085 322.796C129.975 322.779 129.9 322.73 129.88 322.645Z" fill="black"/>
</g>
<g clip-path="url(#clip5_2573_12622)">
<path d="M159.136 332.272C152.971 334.114 146.749 335.809 140.563 337.564L121.772 342.657C109.227 345.98 96.6622 349.216 84.0867 352.409L65.1716 356.98L46.1996 361.312C33.5413 364.157 20.9244 367.176 8.34885 370.368L8.69406 370.028L8.6843 370.077L8.4487 369.445L14.4735 373.19C14.7263 373.357 14.8291 373.7 14.685 373.989C14.6551 374.043 14.6052 374.101 14.5552 374.16L7.91123 379.9L7.68761 378.781L14.9312 381.023C15.2994 381.138 15.5287 381.565 15.4305 381.958C15.411 382.055 15.3714 382.157 15.3013 382.221L15.2864 382.247L11.3974 387.39L11.1422 386.049L17.4674 389.534C17.9321 389.787 18.1172 390.385 17.8886 390.857C17.849 390.959 17.7841 391.045 17.7341 391.103L17.6991 391.135L14.5642 394.523C14.3792 394.73 14.123 394.817 13.8714 394.834L13.8312 394.844L13.8111 394.849L14.4887 392.952L14.5697 393.024L13.662 392.79C26.191 389.402 38.7407 386.101 51.3059 382.865C63.8763 379.65 76.4156 376.305 89.0274 373.265C101.624 370.16 114.204 366.989 126.842 364.057L144.703 361.71L165.247 356.375L164.197 356.231L159.136 332.272ZM159.396 332.022L165.7 355.832C165.823 356.262 165.59 356.712 165.188 356.813L165.147 356.823L146.362 361.938L127.54 366.9C115.006 370.267 102.414 373.394 89.8389 376.587C77.2737 379.823 64.6465 382.798 52.045 385.882C39.4385 388.944 26.8164 391.941 14.1736 394.851L14.1334 394.861C13.8117 394.941 13.4888 394.838 13.2607 394.595L13.1797 394.523L13.1544 394.507C12.7391 394.104 12.6844 393.426 13.0692 392.985C13.2691 392.75 13.5804 392.626 13.8573 392.626L13.8774 392.621L13.1393 392.921L16.3857 389.644L16.6174 391.244L10.4065 387.523L10.3812 387.506C9.98711 387.282 9.83766 386.744 10.0565 386.32C10.0864 386.267 10.1162 386.213 10.1512 386.181L14.1971 381.161L14.5574 382.407L7.38273 379.917L7.36262 379.922C7.03977 379.818 6.86624 379.447 6.95983 379.124C6.99427 379 7.07409 378.888 7.16428 378.82L13.8795 373.2L13.956 374.149L7.95593 370.328C7.75371 370.195 7.64623 369.922 7.72032 369.696L7.73008 369.648C7.77428 369.475 7.91441 369.348 8.07525 369.308C20.6715 366.202 33.2264 362.923 45.7398 359.469L64.5256 354.354L83.3682 349.478C95.9644 346.373 108.571 343.311 121.198 340.336L140.165 335.982C146.51 334.624 152.829 333.159 159.189 331.867C159.3 331.885 159.375 331.935 159.396 332.022Z" fill="black"/>
</g>
<g clip-path="url(#clip6_2573_12622)">
<path d="M145.34 378.274C147.002 384.49 148.515 390.759 150.09 396.993L154.634 415.924C157.591 428.56 160.461 441.214 163.286 453.877L167.306 472.917L171.084 492.007C173.56 504.743 176.21 517.442 179.036 530.105L178.706 529.75L178.754 529.761L178.116 529.978L182.034 524.065C182.209 523.817 182.554 523.724 182.839 523.877C182.892 523.908 182.949 523.96 183.006 524.012L188.551 530.82L187.426 531.011L189.877 523.835C190.003 523.471 190.436 523.254 190.826 523.363C190.923 523.386 191.024 523.428 191.085 523.5L191.112 523.516L196.139 527.553L194.791 527.769L198.459 521.548C198.725 521.09 199.328 520.923 199.793 521.165C199.894 521.208 199.978 521.275 200.035 521.327L200.066 521.363L203.361 524.595C203.563 524.786 203.642 525.044 203.652 525.296L203.661 525.337L203.665 525.357L201.788 524.625L201.863 524.546L201.603 525.446C198.58 512.824 195.645 500.184 192.776 487.53C189.928 474.871 186.95 462.24 184.277 449.545C181.539 436.864 178.736 424.196 176.173 411.479L174.347 393.557L169.611 372.866L169.436 373.912L145.34 378.274ZM145.098 378.007L169.081 372.398C169.514 372.287 169.958 372.534 170.046 372.938L170.055 372.979L174.622 391.905L179.035 410.864C182.036 423.491 184.796 436.167 187.621 448.83C190.491 461.484 193.097 474.193 195.813 486.878C198.508 499.569 201.136 512.273 203.677 524.995L203.686 525.035C203.757 525.359 203.644 525.679 203.395 525.9L203.321 525.979L203.304 526.003C202.889 526.407 202.21 526.442 201.78 526.044C201.551 525.838 201.436 525.523 201.444 525.246L201.44 525.226L201.718 525.972L198.537 522.632L200.143 522.447L196.243 528.547L196.226 528.572C195.99 528.959 195.448 529.093 195.031 528.862C194.978 528.831 194.925 528.799 194.895 528.763L189.994 524.573L191.25 524.249L188.552 531.348L188.557 531.369C188.444 531.688 188.068 531.851 187.748 531.748C187.625 531.71 187.515 531.627 187.449 531.535L182.027 524.659L182.978 524.61L178.984 530.497C178.845 530.695 178.569 530.794 178.346 530.714L178.297 530.703C178.126 530.653 178.003 530.51 177.968 530.348C175.23 517.666 172.317 505.022 169.229 492.413L164.662 473.486L160.336 454.51C157.598 441.829 154.904 429.138 152.297 416.43L148.497 397.345C147.325 390.963 146.043 384.604 144.937 378.209C144.958 378.099 145.011 378.025 145.098 378.007Z" fill="black"/>
</g>
<path d="M193.548 170.093C190.746 170.981 187.908 171.708 185.039 172.295C183.599 172.565 182.147 172.781 180.714 173.079C179.279 173.373 177.862 173.744 176.448 174.13C175.035 174.52 173.619 174.896 172.195 175.238C170.773 175.585 169.351 175.937 167.921 176.25C165.056 176.856 162.181 177.419 159.274 177.837C159.256 177.841 159.238 177.825 159.233 177.805C159.229 177.786 159.239 177.768 159.258 177.764C162.061 176.887 164.899 176.159 167.748 175.48C169.173 175.147 170.608 174.854 172.042 174.555C173.474 174.252 174.914 173.983 176.357 173.728C177.8 173.468 179.238 173.189 180.66 172.842C182.082 172.491 183.487 172.066 184.903 171.69C187.746 170.987 190.621 170.424 193.531 170.021C193.55 170.017 193.568 170.033 193.572 170.052C193.572 170.073 193.561 170.09 193.548 170.093Z" fill="#1E1F21"/>
<path d="M79.9683 136.008C79.4299 135.206 78.9875 134.361 78.6293 133.478C78.4647 133.03 78.332 132.567 78.15 132.126C77.9709 131.685 77.7453 131.264 77.511 130.847C77.2738 130.432 77.0453 130.013 76.8372 129.584C76.6261 129.157 76.4121 128.731 76.2214 128.294C75.8516 127.416 75.5079 126.526 75.2514 125.597C75.2489 125.591 75.2586 125.582 75.2702 125.577C75.2818 125.571 75.2924 125.572 75.295 125.577C75.8275 126.382 76.2699 127.227 76.6834 128.085C76.8857 128.517 77.0648 128.958 77.2468 129.399C77.4317 129.838 77.5963 130.286 77.7522 130.738C77.9109 131.189 78.0813 131.635 78.2924 132.062C78.5064 132.488 78.7639 132.894 78.9924 133.314C79.4203 134.165 79.764 135.055 80.0118 135.989C80.0144 135.994 80.0046 136.004 79.993 136.009C79.9807 136.013 79.9701 136.013 79.9683 136.008Z" fill="#1E1F21"/>
<path d="M80.9831 135.387C80.0173 133.659 79.1518 131.886 78.3744 130.074C78.0009 129.16 77.6609 128.232 77.2692 127.327C76.8805 126.42 76.4432 125.536 75.9968 124.655C75.5473 123.777 75.1069 122.893 74.6879 122.001C74.2657 121.109 73.8406 120.219 73.4398 119.318C72.6502 117.511 71.8881 115.691 71.2171 113.83C71.2119 113.819 71.2202 113.805 71.2323 113.799C71.2445 113.794 71.2575 113.798 71.2627 113.81C72.2224 115.54 73.0879 117.313 73.923 119.1C74.336 119.995 74.7247 120.902 75.1164 121.807C75.5112 122.711 75.8847 123.624 76.249 124.541C76.6164 125.457 76.996 126.368 77.4181 127.259C77.8433 128.149 78.314 129.019 78.7544 129.902C79.6047 131.682 80.3668 133.501 81.0287 135.367C81.0339 135.378 81.0256 135.392 81.0135 135.398C81 135.4 80.987 135.396 80.9831 135.387Z" fill="#1E1F21"/>
<path d="M79.5629 136.489C78.8075 136.53 78.0517 136.614 77.2957 136.736C76.9176 136.803 76.5393 136.884 76.1613 136.943C75.7833 137.004 75.4054 137.044 75.0276 137.08C74.6498 137.115 74.2719 137.154 73.894 137.202C73.5161 137.248 73.1382 137.293 72.7602 137.349C72.0041 137.465 71.248 137.593 70.4915 137.76C70.4867 137.76 70.483 137.766 70.483 137.771C70.4829 137.776 70.4865 137.78 70.4913 137.779C71.2467 137.735 72.0025 137.651 72.7584 137.554C73.1363 137.504 73.5143 137.443 73.8924 137.384C74.2704 137.326 74.6485 137.259 75.0266 137.188C75.4047 137.118 75.7828 137.053 76.1607 137.007C76.5386 136.962 76.9164 136.936 77.2942 136.897C78.05 136.807 78.8062 136.679 79.5627 136.508C79.5675 136.508 79.5712 136.502 79.5712 136.497C79.5701 136.492 79.5665 136.488 79.5629 136.489Z" fill="#1E1F21"/>
<path d="M174.993 185.69C172.191 186.577 169.354 187.305 166.485 187.892C165.044 188.162 163.592 188.378 162.159 188.676C160.724 188.97 159.307 189.341 157.893 189.726C156.48 190.117 155.064 190.493 153.641 190.835C152.218 191.182 150.796 191.533 149.366 191.846C146.501 192.453 143.627 193.016 140.719 193.434C140.701 193.438 140.683 193.421 140.679 193.402C140.674 193.383 140.685 193.365 140.703 193.361C143.507 192.483 146.344 191.756 149.193 191.076C150.619 190.744 152.053 190.451 153.487 190.152C154.919 189.849 156.359 189.579 157.803 189.325C159.245 189.065 160.683 188.786 162.105 188.439C163.527 188.087 164.932 187.663 166.348 187.287C169.191 186.584 172.066 186.021 174.977 185.617C174.995 185.613 175.013 185.63 175.017 185.649C175.017 185.669 175.007 185.687 174.993 185.69Z" fill="#1E1F21"/>
<path d="M171.872 200.854C166.114 202.678 160.283 204.173 154.386 205.38C151.426 205.933 148.442 206.378 145.496 206.991C142.548 207.594 139.635 208.357 136.73 209.149C133.826 209.952 130.916 210.724 127.99 211.427C125.066 212.14 122.145 212.863 119.205 213.506C113.317 214.752 107.409 215.909 101.434 216.768C101.397 216.777 101.36 216.743 101.351 216.703C101.342 216.664 101.363 216.627 101.401 216.619C107.163 214.815 112.995 213.32 118.849 211.924C121.779 211.241 124.728 210.638 127.674 210.024C130.618 209.401 133.577 208.847 136.544 208.324C139.508 207.79 142.463 207.216 145.386 206.503C148.308 205.781 151.196 204.909 154.106 204.136C159.949 202.691 165.857 201.534 171.839 200.705C171.876 200.696 171.913 200.73 171.922 200.77C171.922 200.811 171.9 200.848 171.872 200.854Z" fill="#1E1F21"/>
<path d="M184.885 286.879C182.7 287.571 180.487 288.138 178.248 288.596C177.125 288.806 175.992 288.975 174.874 289.208C173.755 289.437 172.65 289.726 171.547 290.027C170.445 290.332 169.34 290.625 168.23 290.892C167.12 291.162 166.011 291.436 164.896 291.681C162.661 292.154 160.418 292.593 158.151 292.919C158.136 292.922 158.122 292.909 158.119 292.894C158.115 292.879 158.124 292.865 158.138 292.862C160.325 292.178 162.538 291.61 164.76 291.08C165.873 290.821 166.992 290.592 168.11 290.359C169.227 290.123 170.35 289.912 171.476 289.714C172.601 289.511 173.723 289.293 174.833 289.023C175.941 288.749 177.038 288.418 178.142 288.124C180.36 287.576 182.602 287.137 184.873 286.822C184.887 286.819 184.901 286.831 184.904 286.847C184.904 286.862 184.896 286.876 184.885 286.879Z" fill="#1E1F21"/>
<path d="M215.103 287.734C212.62 288.52 210.105 289.165 207.561 289.686C206.285 289.925 204.998 290.116 203.727 290.381C202.456 290.641 201.2 290.97 199.947 291.312C198.694 291.658 197.439 291.991 196.177 292.294C194.916 292.601 193.656 292.913 192.389 293.19C189.849 293.728 187.301 294.227 184.724 294.597C184.708 294.601 184.692 294.587 184.688 294.569C184.684 294.552 184.694 294.537 184.71 294.533C187.195 293.755 189.71 293.11 192.235 292.508C193.499 292.214 194.77 291.953 196.041 291.689C197.311 291.42 198.587 291.181 199.866 290.955C201.145 290.725 202.419 290.478 203.68 290.17C204.94 289.859 206.186 289.483 207.441 289.149C209.961 288.526 212.509 288.027 215.089 287.67C215.105 287.666 215.121 287.68 215.125 287.697C215.124 287.716 215.115 287.731 215.103 287.734Z" fill="#1E1F21"/>
<path d="M211.849 205.459C206.091 207.283 200.259 208.778 194.363 209.985C191.403 210.539 188.419 210.983 185.473 211.596C182.524 212.2 179.612 212.962 176.706 213.755C173.803 214.557 170.892 215.33 167.966 216.033C165.043 216.745 162.121 217.468 159.182 218.111C153.294 219.358 147.386 220.515 141.411 221.374C141.373 221.382 141.336 221.349 141.327 221.309C141.318 221.269 141.34 221.233 141.377 221.224C147.14 219.421 152.971 217.925 158.826 216.529C161.756 215.847 164.704 215.243 167.65 214.63C170.594 214.006 173.554 213.453 176.52 212.929C179.484 212.395 182.439 211.822 185.363 211.109C188.284 210.386 191.172 209.514 194.083 208.742C199.926 207.296 205.833 206.139 211.815 205.31C211.853 205.302 211.89 205.335 211.899 205.375C211.898 205.417 211.877 205.453 211.849 205.459Z" fill="#1E1F21"/>
<path d="M232.716 318.026C226.958 319.85 221.126 321.345 215.23 322.552C212.27 323.105 209.286 323.549 206.34 324.163C203.392 324.766 200.479 325.529 197.573 326.321C194.67 327.124 191.759 327.896 188.833 328.599C185.91 329.312 182.988 330.035 180.049 330.678C174.161 331.924 168.253 333.081 162.278 333.94C162.241 333.948 162.204 333.915 162.195 333.875C162.186 333.835 162.207 333.799 162.245 333.791C168.007 331.987 173.839 330.492 179.693 329.096C182.623 328.413 185.572 327.81 188.518 327.196C191.461 326.573 194.421 326.019 197.387 325.495C200.351 324.962 203.306 324.388 206.23 323.675C209.152 322.953 212.04 322.081 214.95 321.308C220.793 319.862 226.701 318.705 232.682 317.877C232.72 317.868 232.757 317.902 232.766 317.941C232.766 317.983 232.744 318.02 232.716 318.026Z" fill="#1E1F21"/>
<path d="M306.115 286.61C300.357 288.433 294.525 289.929 288.628 291.136C285.669 291.689 282.684 292.133 279.738 292.747C276.79 293.35 273.878 294.113 270.972 294.905C268.068 295.708 265.158 296.48 262.232 297.183C259.308 297.896 256.387 298.619 253.447 299.262C247.56 300.508 241.652 301.665 235.677 302.524C235.639 302.532 235.602 302.499 235.593 302.459C235.584 302.419 235.605 302.383 235.643 302.375C241.405 300.571 247.237 299.076 253.091 297.68C256.022 296.997 258.97 296.394 261.916 295.78C264.86 295.157 267.82 294.603 270.786 294.079C273.75 293.546 276.705 292.972 279.629 292.259C282.55 291.537 285.438 290.665 288.348 289.892C294.191 288.446 300.099 287.289 306.081 286.461C306.118 286.452 306.156 286.486 306.164 286.525C306.164 286.567 306.143 286.604 306.115 286.61Z" fill="#1E1F21"/>
<path d="M362.904 288.334C357.146 290.158 351.314 291.653 345.417 292.86C342.458 293.414 339.474 293.858 336.527 294.471C333.579 295.075 330.667 295.837 327.761 296.63C324.857 297.432 321.947 298.205 319.021 298.908C316.097 299.62 313.176 300.343 310.236 300.986C304.349 302.233 298.441 303.39 292.466 304.249C292.428 304.257 292.391 304.224 292.382 304.184C292.373 304.144 292.395 304.108 292.432 304.099C298.194 302.296 304.026 300.8 309.88 299.404C312.811 298.722 315.759 298.118 318.705 297.505C321.649 296.881 324.609 296.328 327.575 295.804C330.539 295.27 333.494 294.697 336.418 293.984C339.339 293.261 342.227 292.389 345.137 291.617C350.98 290.171 356.888 289.014 362.87 288.185C362.907 288.177 362.945 288.21 362.954 288.25C362.953 288.292 362.932 288.328 362.904 288.334Z" fill="#1E1F21"/>
<path d="M365.349 314.586C359.591 316.41 353.759 317.905 347.863 319.112C344.903 319.666 341.919 320.11 338.973 320.723C336.024 321.327 333.112 322.089 330.206 322.882C327.303 323.684 324.392 324.457 321.466 325.16C318.543 325.872 315.621 326.595 312.682 327.238C306.794 328.485 300.886 329.642 294.911 330.5C294.873 330.509 294.836 330.476 294.827 330.436C294.818 330.396 294.84 330.36 294.877 330.351C300.64 328.548 306.471 327.052 312.326 325.656C315.256 324.973 318.204 324.37 321.15 323.757C324.094 323.133 327.054 322.58 330.02 322.056C332.984 321.522 335.939 320.949 338.863 320.236C341.784 319.513 344.672 318.641 347.583 317.869C353.426 316.423 359.333 315.266 365.315 314.437C365.353 314.429 365.39 314.462 365.399 314.502C365.398 314.544 365.377 314.58 365.349 314.586Z" fill="#1E1F21"/>
<path d="M317.31 337.377C311.552 339.201 305.72 340.696 299.824 341.903C296.864 342.457 293.88 342.901 290.934 343.514C287.985 344.118 285.073 344.88 282.167 345.673C279.263 346.475 276.353 347.248 273.427 347.951C270.504 348.663 267.582 349.386 264.643 350.029C258.755 351.276 252.847 352.433 246.872 353.292C246.834 353.3 246.797 353.267 246.788 353.227C246.779 353.187 246.801 353.151 246.838 353.142C252.601 351.339 258.432 349.843 264.286 348.447C267.217 347.764 270.165 347.161 273.111 346.548C276.055 345.924 279.015 345.371 281.981 344.847C284.945 344.313 287.9 343.74 290.824 343.027C293.745 342.304 296.633 341.432 299.544 340.66C305.386 339.214 311.294 338.057 317.276 337.228C317.314 337.22 317.351 337.253 317.36 337.293C317.359 337.335 317.338 337.371 317.31 337.377Z" fill="#1E1F21"/>
<path d="M368.036 339.136C362.279 340.96 356.447 342.455 350.55 343.662C347.591 344.216 344.606 344.66 341.66 345.273C338.712 345.877 335.799 346.639 332.894 347.432C329.99 348.234 327.08 349.006 324.154 349.709C321.23 350.422 318.309 351.145 315.369 351.788C309.481 353.035 303.574 354.192 297.598 355.05C297.561 355.059 297.524 355.025 297.515 354.986C297.506 354.946 297.527 354.91 297.565 354.901C303.327 353.097 309.159 351.602 315.013 350.206C317.943 349.523 320.892 348.92 323.838 348.307C326.782 347.683 329.741 347.13 332.708 346.606C335.672 346.072 338.627 345.498 341.55 344.786C344.472 344.063 347.36 343.191 350.27 342.418C356.113 340.973 362.021 339.816 368.003 338.987C368.04 338.979 368.077 339.012 368.086 339.052C368.086 339.094 368.065 339.13 368.036 339.136Z" fill="#1E1F21"/>
<path d="M279.812 306.04C276.039 307.235 272.217 308.215 268.353 309.006C266.413 309.369 264.458 309.66 262.527 310.062C260.595 310.457 258.686 310.957 256.782 311.476C254.879 312.002 252.972 312.509 251.055 312.969C249.139 313.436 247.224 313.91 245.298 314.331C241.44 315.148 237.568 315.907 233.653 316.469C233.628 316.475 233.604 316.453 233.598 316.427C233.592 316.401 233.606 316.377 233.631 316.371C237.407 315.189 241.228 314.21 245.065 313.295C246.985 312.847 248.917 312.452 250.848 312.05C252.777 311.641 254.716 311.279 256.66 310.935C258.603 310.586 260.539 310.21 262.455 309.743C264.37 309.269 266.262 308.697 268.169 308.191C271.998 307.244 275.87 306.486 279.79 305.943C279.814 305.937 279.839 305.959 279.845 305.985C279.844 306.013 279.83 306.036 279.812 306.04Z" fill="#1E1F21"/>
<path d="M328.294 269.78C322.536 271.603 316.705 273.099 310.808 274.305C307.848 274.859 304.864 275.303 301.918 275.917C298.97 276.52 296.057 277.283 293.151 278.075C290.248 278.877 287.338 279.65 284.412 280.353C281.488 281.066 278.566 281.788 275.627 282.432C269.739 283.678 263.831 284.835 257.856 285.694C257.819 285.702 257.782 285.669 257.773 285.629C257.764 285.589 257.785 285.553 257.823 285.545C263.585 283.741 269.417 282.246 275.271 280.85C278.201 280.167 281.15 279.563 284.096 278.95C287.04 278.327 289.999 277.773 292.965 277.249C295.93 276.716 298.885 276.142 301.808 275.429C304.73 274.706 307.618 273.834 310.528 273.062C316.371 271.616 322.279 270.459 328.261 269.631C328.298 269.622 328.335 269.656 328.344 269.695C328.344 269.737 328.322 269.773 328.294 269.78Z" fill="#1E1F21"/>
<path d="M358.904 248.055C353.146 249.879 347.314 251.374 341.417 252.581C338.458 253.135 335.474 253.579 332.527 254.192C329.579 254.795 326.667 255.558 323.761 256.35C320.857 257.153 317.947 257.925 315.021 258.628C312.097 259.341 309.176 260.064 306.236 260.707C300.349 261.954 294.441 263.111 288.466 263.969C288.428 263.978 288.391 263.944 288.382 263.904C288.373 263.865 288.395 263.828 288.432 263.82C294.194 262.016 300.026 260.521 305.88 259.125C308.811 258.442 311.759 257.839 314.705 257.225C317.649 256.602 320.609 256.049 323.575 255.525C326.539 254.991 329.494 254.417 332.418 253.705C335.339 252.982 338.227 252.11 341.137 251.337C346.98 249.892 352.888 248.735 358.87 247.906C358.907 247.897 358.945 247.931 358.954 247.971C358.953 248.013 358.932 248.049 358.904 248.055Z" fill="#1E1F21"/>
<path d="M259.021 270.513C256.384 271.348 253.714 272.033 251.014 272.585C249.659 272.839 248.293 273.042 246.944 273.323C245.594 273.599 244.26 273.949 242.93 274.311C241.6 274.679 240.268 275.033 238.928 275.354C237.589 275.681 236.252 276.012 234.906 276.306C232.21 276.877 229.505 277.407 226.769 277.8C226.752 277.804 226.735 277.788 226.731 277.77C226.727 277.752 226.737 277.735 226.754 277.731C229.392 276.906 232.062 276.221 234.743 275.582C236.085 275.269 237.435 274.993 238.783 274.712C240.131 274.427 241.486 274.173 242.845 273.933C244.202 273.689 245.555 273.426 246.893 273.1C248.231 272.769 249.553 272.37 250.886 272.016C253.561 271.354 256.266 270.824 259.005 270.445C259.022 270.441 259.039 270.456 259.043 270.475C259.043 270.494 259.033 270.51 259.021 270.513Z" fill="#1E1F21"/>
<path d="M247.575 354.614C241.818 356.437 235.986 357.933 230.089 359.139C227.13 359.693 224.145 360.137 221.199 360.751C218.251 361.354 215.338 362.117 212.433 362.909C209.529 363.711 206.619 364.484 203.693 365.187C200.769 365.9 197.848 366.622 194.908 367.266C189.021 368.512 183.113 369.669 177.138 370.528C177.1 370.536 177.063 370.503 177.054 370.463C177.045 370.423 177.066 370.387 177.104 370.379C182.866 368.575 188.698 367.08 194.552 365.684C197.483 365.001 200.431 364.397 203.377 363.784C206.321 363.161 209.28 362.607 212.247 362.083C215.211 361.55 218.166 360.976 221.09 360.263C224.011 359.54 226.899 358.668 229.809 357.896C235.652 356.45 241.56 355.293 247.542 354.465C247.579 354.456 247.616 354.49 247.625 354.529C247.625 354.571 247.604 354.607 247.575 354.614Z" fill="#1E1F21"/>
<path d="M229.669 315.018C223.911 316.842 218.08 318.337 212.183 319.544C209.223 320.097 206.239 320.542 203.293 321.155C200.345 321.758 197.432 322.521 194.526 323.313C191.623 324.116 188.713 324.888 185.787 325.591C182.863 326.304 179.941 327.027 177.002 327.67C171.114 328.917 165.206 330.074 159.231 330.932C159.194 330.941 159.157 330.907 159.148 330.867C159.139 330.828 159.16 330.791 159.198 330.783C164.96 328.979 170.792 327.484 176.646 326.088C179.576 325.405 182.525 324.802 185.471 324.188C188.415 323.565 191.374 323.011 194.34 322.488C197.304 321.954 200.26 321.38 203.183 320.667C206.105 319.945 208.993 319.073 211.903 318.3C217.746 316.855 223.654 315.698 229.636 314.869C229.673 314.86 229.71 314.894 229.719 314.934C229.719 314.976 229.697 315.012 229.669 315.018Z" fill="#1E1F21"/>
<path d="M187.971 335.255C186.493 335.723 184.996 336.107 183.482 336.417C182.723 336.559 181.957 336.673 181.2 336.831C180.444 336.986 179.696 337.181 178.95 337.385C178.205 337.591 177.458 337.789 176.707 337.969C175.956 338.152 175.206 338.338 174.452 338.503C172.94 338.823 171.424 339.12 169.89 339.34C169.88 339.343 169.871 339.334 169.869 339.324C169.866 339.314 169.872 339.304 169.881 339.302C171.36 338.839 172.857 338.455 174.36 338.097C175.112 337.922 175.869 337.767 176.625 337.609C177.381 337.449 178.141 337.307 178.902 337.173C179.663 337.036 180.422 336.888 181.172 336.705C181.922 336.52 182.663 336.296 183.41 336.098C184.91 335.727 186.427 335.43 187.962 335.217C187.972 335.215 187.981 335.223 187.984 335.234C187.984 335.244 187.978 335.254 187.971 335.255Z" fill="#1E1F21"/>
<path d="M234.221 366.392C231.696 367.192 229.138 367.847 226.552 368.377C225.254 368.62 223.945 368.814 222.653 369.083C221.36 369.348 220.082 369.682 218.808 370.03C217.534 370.382 216.258 370.721 214.974 371.029C213.692 371.342 212.411 371.659 211.121 371.941C208.539 372.488 205.948 372.995 203.327 373.372C203.311 373.375 203.295 373.361 203.291 373.343C203.287 373.326 203.296 373.31 203.313 373.306C205.84 372.515 208.398 371.859 210.965 371.247C212.251 370.947 213.544 370.683 214.836 370.414C216.127 370.14 217.425 369.898 218.726 369.668C220.026 369.434 221.322 369.182 222.605 368.87C223.886 368.553 225.152 368.17 226.429 367.831C228.992 367.197 231.583 366.69 234.206 366.326C234.223 366.323 234.239 366.337 234.243 366.355C234.243 366.373 234.233 366.389 234.221 366.392Z" fill="#1E1F21"/>
<path d="M158.579 192.084C155.777 192.971 152.94 193.699 150.07 194.286C148.63 194.555 147.178 194.771 145.745 195.07C144.31 195.363 142.893 195.734 141.479 196.12C140.066 196.51 138.65 196.886 137.227 197.228C135.804 197.575 134.382 197.927 132.952 198.24C130.087 198.846 127.213 199.409 124.305 199.827C124.287 199.831 124.269 199.815 124.265 199.796C124.26 199.776 124.271 199.759 124.289 199.754C127.093 198.877 129.93 198.149 132.779 197.47C134.205 197.138 135.639 196.844 137.073 196.546C138.505 196.242 139.945 195.973 141.389 195.718C142.831 195.458 144.269 195.179 145.691 194.832C147.113 194.481 148.518 194.057 149.934 193.681C152.777 192.977 155.652 192.414 158.563 192.011C158.581 192.007 158.599 192.023 158.603 192.043C158.603 192.063 158.593 192.081 158.579 192.084Z" fill="#1E1F21"/>
<path d="M133.102 182.544C130.301 183.431 127.463 184.158 124.594 184.746C123.154 185.015 121.702 185.231 120.268 185.53C118.834 185.823 117.416 186.194 116.003 186.58C114.59 186.97 113.174 187.346 111.75 187.688C110.327 188.035 108.906 188.387 107.476 188.7C104.611 189.306 101.736 189.869 98.8286 190.287C98.8104 190.291 98.7923 190.275 98.788 190.256C98.7836 190.236 98.794 190.219 98.8123 190.214C101.616 189.337 104.454 188.609 107.302 187.93C108.728 187.598 110.163 187.304 111.596 187.006C113.029 186.702 114.469 186.433 115.912 186.178C117.354 185.918 118.792 185.639 120.215 185.292C121.636 184.941 123.042 184.516 124.458 184.141C127.301 183.437 130.175 182.874 133.086 182.471C133.104 182.467 133.122 182.483 133.127 182.502C133.126 182.523 133.116 182.54 133.102 182.544Z" fill="#1E1F21"/>
</g>
<defs>
<clipPath id="clip0_2573_12622">
<rect width="409.095" height="465.859" fill="white" transform="translate(63.4688 5.35938) rotate(7.79348)"/>
</clipPath>
<clipPath id="clip1_2573_12622">
<rect width="99.1384" height="20.0956" fill="white" transform="translate(91.0312 160.543) rotate(-12.8782)"/>
</clipPath>
<clipPath id="clip2_2573_12622">
<rect width="99.1384" height="19.4258" fill="white" transform="translate(91.1641 161.199) rotate(-12.8782)"/>
</clipPath>
<clipPath id="clip3_2573_12622">
<rect width="26.3582" height="28.7542" fill="white" transform="matrix(0.972839 -0.231484 0.231941 0.97273 123.844 297.436)"/>
</clipPath>
<clipPath id="clip4_2573_12622">
<rect width="26.0042" height="27.7957" fill="white" transform="matrix(0.972839 -0.231484 0.231941 0.97273 123.469 296.877)"/>
</clipPath>
<clipPath id="clip5_2573_12622">
<rect width="26.3582" height="28.7542" fill="white" transform="matrix(0.972839 -0.231484 0.231941 0.97273 133.992 336.812)"/>
</clipPath>
<clipPath id="clip6_2573_12622">
<rect width="26.3582" height="26.9434" fill="white" transform="matrix(-0.203097 -0.979159 0.979063 -0.203557 149.148 403.54)"/>
</clipPath>
</defs>
</svg>
