<svg width="228" height="230" viewBox="0 0 228 230" fill="none" xmlns="http://www.w3.org/2000/svg">
<g clip-path="url(#clip0_8001_5019)">
<path d="M148.957 4.12442C138.586 8.69504 128.072 12.9038 117.431 16.7945C112.089 18.6851 106.699 20.455 101.383 22.4113C96.0623 24.3567 90.8115 26.4775 85.5738 28.6312C80.3405 30.7959 75.094 32.9277 69.8172 34.9827C64.5446 37.0487 59.2765 39.1257 53.9735 41.1149C43.3501 45.0495 32.6875 48.8854 21.8944 52.3923C21.8267 52.418 21.7586 52.3935 21.7412 52.3496C21.7238 52.3057 21.7615 52.2536 21.8291 52.2279C32.2088 47.6792 42.7234 43.4704 53.2815 39.3713C58.567 37.3382 63.8874 35.3929 69.2035 33.4365C74.5152 31.4692 79.8574 29.5787 85.2126 27.7211C90.5634 25.8525 95.8969 23.94 101.169 21.874C106.438 19.797 111.64 17.5556 116.887 15.4238C127.423 11.2699 138.086 7.43398 148.892 3.95994C148.96 3.93424 149.028 3.95883 149.045 4.00269C149.046 4.05298 149.008 4.10514 148.957 4.12442Z" fill="white"/>
<path d="M215.19 175.92C203.665 180.953 191.995 185.626 180.195 189.982C174.274 192.105 168.303 194.108 162.408 196.297C156.508 198.475 150.68 200.828 144.864 203.213C139.053 205.61 133.229 207.973 127.374 210.261C121.523 212.559 115.676 214.868 109.795 217.089C98.013 221.489 86.1916 225.79 74.2372 229.763C74.1621 229.792 74.0881 229.77 74.0704 229.726C74.0526 229.682 74.0956 229.628 74.1707 229.599C85.7039 224.587 97.3746 219.915 109.09 215.351C114.954 213.086 120.853 210.908 126.749 208.719C132.639 206.519 138.561 204.396 144.496 202.306C150.427 200.204 156.34 198.059 162.191 195.761C168.037 193.452 173.817 190.979 179.641 188.615C191.334 183.997 203.155 179.696 215.123 175.756C215.198 175.727 215.272 175.749 215.29 175.793C215.289 175.844 215.246 175.898 215.19 175.92Z" fill="white"/>
<path d="M215.171 174.529C209.087 160.521 203.359 146.363 197.942 132.074C195.287 124.907 192.751 117.69 190.031 110.55C187.323 103.405 184.442 96.333 181.53 89.2744C178.606 82.2204 175.715 75.1528 172.899 68.0535C170.072 60.9587 167.235 53.8685 164.484 46.7421C159.024 32.4711 153.66 18.1594 148.619 3.71206C148.584 3.6211 148.6 3.53479 148.643 3.51669C148.686 3.4986 148.745 3.55324 148.781 3.6442C154.842 17.6618 160.571 31.8197 166.192 46.0227C168.987 53.1311 171.695 60.2756 174.414 67.4156C177.144 74.5511 179.799 81.7182 182.422 88.8989C185.055 96.0751 187.731 103.233 190.558 110.328C193.395 117.418 196.394 124.441 199.285 131.508C204.96 145.689 210.323 160 215.332 174.461C215.367 174.552 215.351 174.639 215.308 174.657C215.256 174.652 215.197 174.597 215.171 174.529Z" fill="white"/>
<path d="M75.2468 227.628C69.5165 214.482 64.1416 201.189 59.0791 187.766C56.6017 181.033 54.2428 174.25 51.7007 167.543C49.1695 160.832 46.4659 154.192 43.73 147.566C40.9833 140.944 38.269 134.308 35.63 127.642C32.9803 120.979 30.3198 114.322 27.7454 107.628C22.6398 94.2236 17.6312 80.7787 12.9456 67.1998C12.9124 67.1144 12.9306 67.0325 12.9737 67.0146C13.0168 66.9967 13.074 67.0474 13.1072 67.1328C18.8159 80.2874 24.1908 93.5805 29.4579 106.918C32.0753 113.594 34.6066 120.305 37.1486 127.012C39.7014 133.714 42.1788 140.448 44.6239 147.195C47.0798 153.937 49.5787 160.662 52.2285 167.324C54.889 173.982 57.711 180.573 60.4254 187.208C65.7464 200.523 70.7551 213.968 75.4083 227.561C75.4415 227.646 75.4233 227.728 75.3802 227.746C75.3288 227.742 75.2717 227.692 75.2468 227.628Z" fill="white"/>
<path d="M116.087 115.234C120.079 113.478 124.122 111.841 128.211 110.309C130.264 109.561 132.333 108.852 134.376 108.083C136.421 107.316 138.44 106.493 140.455 105.658C142.468 104.82 144.486 103.992 146.514 103.19C148.542 102.384 150.567 101.575 152.606 100.794C156.688 99.2475 160.785 97.7331 164.93 96.3268C164.956 96.3168 164.981 96.3236 164.988 96.338C164.994 96.3524 164.979 96.3708 164.953 96.3809C160.959 98.1294 156.915 99.7662 152.856 101.367C150.824 102.162 148.78 102.928 146.737 103.698C144.695 104.471 142.643 105.22 140.586 105.957C138.53 106.698 136.481 107.453 134.454 108.259C132.428 109.068 130.426 109.932 128.408 110.759C124.357 112.378 120.26 113.893 116.111 115.288C116.085 115.298 116.059 115.291 116.053 115.277C116.053 115.26 116.068 115.241 116.087 115.234Z" fill="white"/>
<path d="M92.9742 54.6402C96.9655 52.8845 101.009 51.2476 105.098 49.7153C107.15 48.9671 109.22 48.2586 111.263 47.4888C113.308 46.7226 115.327 45.8988 117.342 45.0642C119.355 44.2259 121.372 43.3985 123.401 42.5963C125.428 41.7905 127.454 40.9811 129.492 40.2005C133.575 38.6537 137.672 37.1394 141.816 35.7331C141.842 35.723 141.868 35.7299 141.874 35.7443C141.881 35.7587 141.866 35.7771 141.84 35.7871C137.845 37.5356 133.802 39.1725 129.743 40.7733C127.711 41.5683 125.666 42.3345 123.623 43.1042C121.582 43.8776 119.53 44.6258 117.472 45.3632C115.417 46.1041 113.368 46.8595 111.34 47.6653C109.315 48.4747 107.313 49.3382 105.295 50.1656C101.244 51.7844 97.1468 53.2988 92.9978 54.6942C92.9718 54.7043 92.946 54.6974 92.9397 54.683C92.9399 54.6661 92.9546 54.6477 92.9742 54.6402Z" fill="white"/>
<path d="M92.188 53.6544C94.3174 58.6211 96.3281 63.6362 98.2344 68.6941C99.1696 71.2304 100.065 73.7828 101.022 76.3103C101.975 78.8392 102.986 81.3446 104.007 83.8455C105.033 86.345 106.047 88.849 107.036 91.3632C108.029 93.8759 109.025 96.3872 109.993 98.9102C111.913 103.962 113.802 109.027 115.582 114.137C115.595 114.169 115.59 114.199 115.575 114.205C115.561 114.211 115.541 114.191 115.528 114.159C113.406 109.189 111.395 104.174 109.421 99.1441C108.439 96.6269 107.486 94.098 106.529 91.5705C105.568 89.0446 104.633 86.5083 103.709 83.9676C102.781 81.4284 101.838 78.8951 100.846 76.3823C99.8494 73.871 98.7991 71.3818 97.7847 68.8779C95.7921 63.8554 93.9037 58.7902 92.134 53.6765C92.1216 53.6443 92.1266 53.6142 92.141 53.6083C92.1585 53.6105 92.1786 53.6302 92.188 53.6544Z" fill="white"/>
<path d="M140.883 35.5315C142.894 40.2104 144.787 44.9372 146.575 49.7062C147.451 52.098 148.288 54.5058 149.186 56.8888C150.08 59.2733 151.032 61.6346 151.994 63.9914C152.96 66.3468 153.916 68.7066 154.846 71.0766C155.78 73.4451 156.717 75.8122 157.626 78.1909C159.428 82.954 161.199 87.7303 162.861 92.5502C162.872 92.5806 162.867 92.6092 162.852 92.615C162.838 92.6208 162.818 92.6024 162.807 92.5721C160.802 87.8903 158.909 83.1635 157.053 78.4221C156.13 76.0492 155.236 73.6647 154.338 71.2816C153.436 68.9 152.56 66.5083 151.695 64.1121C150.826 61.7174 149.943 59.3286 149.009 56.9601C148.072 54.593 147.08 52.2478 146.125 49.888C144.25 45.1539 142.48 40.3776 140.829 35.5533C140.817 35.523 140.822 35.4944 140.837 35.4886C140.854 35.4903 140.874 35.5087 140.883 35.5315Z" fill="white"/>
<path d="M141.709 4.01738C140.956 3.17932 139.964 2.58234 138.862 2.30291C137.759 2.02347 136.595 2.07431 135.518 2.44889C134.442 2.82348 133.503 3.50477 132.82 4.40551C132.138 5.30624 131.743 6.38542 131.688 7.50482L131.627 9.28921C131.617 9.5775 131.901 9.78467 132.172 9.68681L132.788 9.46486C132.946 9.40791 133.053 9.26001 133.057 9.09221L133.097 7.57244C133.163 6.44257 133.681 5.38228 134.54 4.6242C135.398 3.86856 136.525 3.47657 137.673 3.53402C138.821 3.59148 139.897 4.0937 140.665 4.93075C141.05 5.34448 141.348 5.82937 141.54 6.35746C141.733 6.88556 141.818 7.44642 141.789 8.00773L140.993 21.9155L140.531 30.0023C140.489 30.7106 140.164 31.3751 139.625 31.8499C139.087 32.3248 138.38 32.5712 137.659 32.535C136.939 32.4976 136.264 32.1806 135.783 31.6537C135.303 31.1268 135.055 30.4331 135.095 29.7247L135.907 15.5004C135.92 15.2741 135.746 15.0807 135.52 15.0699L134.925 15.0413C134.701 15.0306 134.511 15.2019 134.498 15.4253L133.687 29.6638C133.627 30.7332 134.001 31.7804 134.727 32.5753C135.453 33.3702 136.472 33.8477 137.56 33.903C137.82 33.914 138.081 33.9012 138.339 33.8647C139.284 33.7334 140.155 33.2839 140.803 32.5929C141.451 31.902 141.836 31.0126 141.892 30.0765L142.391 21.2353L143.141 8.06941C143.187 7.33319 143.085 6.59595 142.839 5.9004C142.593 5.20485 142.209 4.56481 141.709 4.01738Z" fill="white"/>
<path d="M138.695 73.7268C138.682 73.8036 138.672 73.8825 138.663 73.9636C138.62 73.9228 138.635 73.8374 138.695 73.7268C139.193 70.6492 142.492 71.1033 143.113 73.4162C143.75 75.7868 142.82 80.5025 142.572 79.1448C143.595 69.5831 139.244 72.7138 138.695 73.7268Z" fill="white"/>
<path d="M120.35 82.5602C120.411 82.6089 120.472 82.6604 120.533 82.7147C120.537 82.6558 120.469 82.6022 120.35 82.5602C117.92 80.6073 115.773 83.1538 116.86 85.2877C117.975 87.4747 121.823 90.355 121.097 89.1807C113.936 82.7632 119.264 82.1754 120.35 82.5602Z" fill="white"/>
<path d="M126.026 62.622C129.267 60.4873 135.361 62.0007 137.49 68.2985C140.144 76.1481 143.842 84.8335 143.362 88.8719C142.278 92.8463 140.489 96.4982 138.16 97.9861C136.39 98.6659 130.268 96.8254 128.238 95.5711C125.576 93.9257 120.732 84.3724 116.507 76.3591C123.902 71.4429 122.784 64.7567 126.026 62.622Z" fill="white" stroke="white" stroke-width="0.493853"/>
<path d="M138.784 88.916C138.083 89.5568 137.081 90.9184 135.625 91.4677C133.96 92.0961 131.837 91.8679 131.203 91.8281" stroke="#1E1F21" stroke-width="0.493853" stroke-linecap="round" stroke-linejoin="round"/>
<path d="M129.756 79.173C131.373 82.5671 132.348 85.9208 132.364 86.7753C132.379 87.6298 132.571 88.1296 133.662 87.7107C134.752 87.2918 134.929 86.9371 134.737 86.4373" stroke="#1E1F21" stroke-width="0.493853" stroke-linecap="round" stroke-linejoin="round"/>
<path d="M131.25 76.7104C132.817 73.6027 133.991 73.4649 137.14 72.8815" stroke="#1E1F21" stroke-width="0.493853" stroke-linecap="round" stroke-linejoin="round"/>
<path d="M128.534 78.0022C124.615 77.3816 123.42 78.694 121.96 80.0521" stroke="#1E1F21" stroke-width="0.493853" stroke-linecap="round" stroke-linejoin="round"/>
<path d="M135.266 79.3954C136.095 79.077 135.777 77.9272 135.537 77.3009C134.817 77.5249 134.047 77.8874 133.398 78.3561C133.762 79.003 134.438 79.7137 135.266 79.3954Z" fill="#1E1F21"/>
<path d="M132.185 79.6252C132.463 79.1482 132.894 78.7201 133.398 78.3561M137.22 77.055C136.78 77.0116 136.178 77.1012 135.537 77.3009M135.537 77.3009C135.777 77.9272 136.095 79.077 135.266 79.3954C134.438 79.7137 133.762 79.003 133.398 78.3561M135.537 77.3009C134.817 77.5249 134.047 77.8874 133.398 78.3561" stroke="#1E1F21" stroke-width="0.493853" stroke-linecap="round" stroke-linejoin="round"/>
<path d="M127.408 83.0428C126.359 83.446 125.699 82.4165 125.575 81.8312C126.169 81.5132 127.063 81.1086 127.674 81.0247C127.961 81.5113 128.248 82.7202 127.408 83.0428Z" fill="#1E1F21"/>
<path d="M124.027 83.2904C124.33 82.6822 124.907 82.1881 125.575 81.8312M129.275 81.2744C128.906 81.079 128.301 80.9385 127.674 81.0247M125.575 81.8312C125.699 82.4165 126.359 83.446 127.408 83.0428C128.248 82.7202 127.961 81.5113 127.674 81.0247M125.575 81.8312C126.169 81.5132 127.063 81.1086 127.674 81.0247" stroke="#1E1F21" stroke-width="0.493853" stroke-linecap="round" stroke-linejoin="round"/>
<path d="M111.91 67.451C108.215 70.9302 111.005 74.3417 114.843 79.7084C117.924 83.8783 116.395 82.9786 117.585 82.2241C118.775 81.4696 119.671 83.8022 118.793 79.9756C117.914 76.1489 120.172 72.0101 123.461 67.4749C126.75 62.9398 133.777 63.5122 135.053 68.3756C136.329 73.2389 138.433 73.323 140.397 72.2712C142.361 71.2195 139.935 67.9873 140.405 63.0479C140.876 58.1085 134.944 60.3871 134.745 59.8687C133.305 51.499 127.369 49.9129 122.75 54.0668C118.13 58.2206 117.778 61.9252 111.91 67.451Z" fill="white" stroke="#1E1F21" stroke-width="0.493853"/>
<path d="M23.8267 51.9602C23.7967 51.9081 23.7224 51.9054 23.6886 51.9551L23.59 52.1L13.5324 68.2238C13.4933 68.2865 13.5511 68.3646 13.6225 68.3457L29.8702 64.0497L30.55 63.787C30.5966 63.769 30.6162 63.7136 30.5911 63.6703L23.8267 51.9602Z" fill="white"/>
<rect x="41.875" y="88.707" width="49.3504" height="1.87407" transform="rotate(-21.0139 41.875 88.707)" fill="white"/>
<rect x="44.3711" y="94.3281" width="36.2319" height="1.87407" transform="rotate(-21.0139 44.3711 94.3281)" fill="white"/>
<path d="M46.875 100.574L87.695 84.8936L88.367 86.643L47.547 102.324L46.875 100.574Z" fill="white"/>
<path d="M49.3711 106.82L95.4394 89.1236L96.1114 90.873L50.0431 108.57L49.3711 106.82Z" fill="white"/>
<rect x="116.84" y="120.562" width="53.0985" height="1.87407" transform="rotate(-21.0139 116.84 120.562)" fill="white"/>
<path d="M119.34 126.812L159.577 111.356L160.249 113.105L120.012 128.562L119.34 126.812Z" fill="white"/>
<path d="M128.711 151.176L177.112 132.583L177.784 134.332L129.383 152.925L128.711 151.176Z" fill="white"/>
<path d="M121.836 133.059L164.989 116.482L165.661 118.231L122.508 134.808L121.836 133.059Z" fill="white"/>
<path d="M130.582 156.797L176.65 139.1L177.322 140.85L131.254 158.546L130.582 156.797Z" fill="white"/>
<path d="M124.336 139.305L173.903 120.264L174.575 122.013L125.008 141.054L124.336 139.305Z" fill="white"/>
<path d="M132.457 163.668L182.024 144.627L182.696 146.377L133.129 165.417L132.457 163.668Z" fill="white"/>
<rect x="69.8419" y="159.51" width="13.0024" height="13.0024" transform="rotate(-21.0139 69.8419 159.51)" stroke="white" stroke-width="0.740779"/>
<rect x="77.334" y="178.248" width="13.0024" height="13.0024" transform="rotate(-21.0139 77.334 178.248)" stroke="white" stroke-width="0.740779"/>
<rect x="79.3594" y="133.684" width="25.6122" height="1.87407" transform="rotate(-21.0139 79.3594 133.684)" fill="white"/>
<rect x="86.2305" y="152.422" width="25.6122" height="1.87407" transform="rotate(-21.0139 86.2305 152.422)" fill="white"/>
<rect x="93.7266" y="171.789" width="25.6122" height="1.87407" transform="rotate(-21.0139 93.7266 171.789)" fill="white"/>
<rect x="80.6055" y="137.43" width="18.116" height="1.87407" transform="rotate(-21.0139 80.6055 137.43)" fill="white"/>
<rect x="88.1016" y="156.172" width="18.116" height="1.87407" transform="rotate(-21.0139 88.1016 156.172)" fill="white"/>
<rect x="94.9766" y="175.535" width="18.116" height="1.87407" transform="rotate(-21.0139 94.9766 175.535)" fill="white"/>
<g clip-path="url(#clip1_8001_5019)">
<path d="M82.3327 57.5891C80.286 58.4915 78.2141 59.3473 76.1567 60.2215L69.8978 62.7975C65.7164 64.4915 61.5244 66.1573 57.327 67.8091L51.0045 70.2166L44.6528 72.5468C40.413 74.0862 36.1944 75.6818 31.9971 77.3336L32.1022 77.204L32.1008 77.2207L31.9943 77.0205L34.217 77.9913C34.3106 78.0354 34.3598 78.1452 34.3218 78.2486C34.3137 78.2679 34.2989 78.2898 34.284 78.3117L32.2292 80.5385L32.1073 80.1751L34.6888 80.5872C34.8201 80.6085 34.9161 80.7403 34.8981 80.8762C34.8953 80.9096 34.8858 80.9455 34.8642 80.97L34.8602 80.9797L33.7289 82.8788L33.5873 82.4426L35.9029 83.3128C36.0728 83.3754 36.1605 83.5669 36.1009 83.7352C36.0913 83.7711 36.0724 83.8026 36.0576 83.8245L36.0468 83.8368L35.1045 85.1145C35.0492 85.1924 34.9646 85.2334 34.8787 85.2508L34.8653 85.256L34.8586 85.2586L35.0155 84.5932L35.0462 84.6134L34.7247 84.5776C38.8981 82.8626 43.0822 81.1757 47.2743 79.5098C51.469 77.851 55.6478 76.1501 59.8637 74.5474C64.0716 72.9237 68.2716 71.2789 72.5008 69.7114L78.834 67.3321L85.1857 65.0019L85.0354 65.3585L82.3327 57.5891ZM82.4122 57.4937L85.5363 65.1553C85.596 65.2931 85.5337 65.4544 85.3994 65.5067L85.386 65.512L79.1297 68.095L72.8549 70.6289C68.6788 72.3369 64.4735 73.9676 60.2762 75.6194C56.0841 77.2853 51.8602 78.8668 47.6496 80.4835C43.4364 82.0932 39.2151 83.6818 34.9833 85.2423L34.9699 85.2475C34.8625 85.2893 34.7473 85.2698 34.6591 85.1994L34.6283 85.1792L34.619 85.1748C34.4599 85.0595 34.4139 84.8357 34.5286 84.6702C34.5879 84.5826 34.69 84.5267 34.7852 84.5137L34.792 84.5111L34.5501 84.6456L35.5352 83.3997L35.6792 83.9237L33.3934 82.9693L33.3841 82.9649C33.2395 82.9084 33.1665 82.7354 33.2248 82.5838C33.2329 82.5645 33.241 82.5453 33.2518 82.533L34.4419 80.6673L34.6158 81.0668L32.0481 80.5688L32.0413 80.5715C31.9261 80.5519 31.8515 80.4359 31.8708 80.3237C31.8777 80.2807 31.9006 80.2396 31.9289 80.2124L34.0131 78.0225L34.0775 78.3358L31.8603 77.3386C31.7854 77.3033 31.7375 77.2172 31.7539 77.1383L31.7553 77.1217C31.7636 77.062 31.8067 77.013 31.8604 76.9921C36.0683 75.3684 40.2551 73.6885 44.4206 71.9524L50.6769 69.3693L56.9623 66.8635C61.1702 65.2398 65.3835 63.6302 69.6074 62.0486L75.9564 59.7114C78.0843 58.9628 80.1989 58.179 82.3347 57.4514C82.3735 57.4524 82.4016 57.4656 82.4122 57.4937Z" fill="white"/>
</g>
<g clip-path="url(#clip2_8001_5019)">
<path d="M40.5146 83.0364C42.5663 82.1454 44.643 81.3012 46.7052 80.4383L52.9783 77.897C57.169 76.2262 61.3703 74.5836 65.5767 72.9551L71.9125 70.5827L78.2771 68.2877C82.5254 66.7718 86.7527 65.1996 90.9592 63.571L90.8534 63.7L90.8549 63.6834L90.9602 63.8842L88.743 62.901C88.6496 62.8565 88.601 62.7464 88.6396 62.6432C88.6478 62.624 88.6627 62.6022 88.6777 62.5803L90.7449 60.3649L90.8647 60.729L88.2855 60.3027C88.1543 60.2806 88.0591 60.1482 88.0778 60.0124C88.0808 59.9791 88.0906 59.9432 88.1122 59.9188L88.1164 59.9092L89.2581 58.0163L89.3973 58.4534L87.0866 57.5704C86.917 57.5068 86.8303 57.3149 86.891 57.1469C86.9007 57.111 86.9198 57.0796 86.9347 57.0578L86.9456 57.0456L87.8949 55.7731C87.9507 55.6955 88.0355 55.6549 88.1215 55.6381L88.1349 55.6329L88.1417 55.6303L87.9811 56.2949L87.9504 56.2745L88.2718 56.3121C84.0889 58.004 79.8955 59.6677 75.6942 61.3103C71.4904 62.9458 67.3022 64.6236 63.0775 66.2029C58.8606 67.8033 54.6515 69.4248 50.4137 70.9688L44.0674 73.3131L37.7028 75.6081L37.8551 75.2522L40.5146 83.0364ZM40.4346 83.1314L37.3531 75.4527C37.2941 75.3145 37.3573 75.1536 37.4919 75.102L37.5053 75.0969L43.7758 72.5485L50.0646 70.0494C54.2502 68.3646 58.4645 66.7571 62.6709 65.1286C66.8722 63.486 71.1048 61.9279 75.3243 60.3345C79.5464 58.7482 83.7764 57.1831 88.0168 55.646L88.0303 55.6409C88.1379 55.5996 88.253 55.6198 88.3408 55.6907L88.3715 55.7111L88.3808 55.7155C88.5392 55.8317 88.584 56.0557 88.4684 56.2206C88.4086 56.3079 88.3062 56.3632 88.2109 56.3756L88.2041 56.3782L88.4467 56.245L87.4548 57.4855L87.3137 56.9607L89.5941 57.9277L89.6034 57.9322C89.7477 57.9895 89.8197 58.1628 89.7606 58.3141C89.7524 58.3334 89.7442 58.3526 89.7333 58.3648L88.5329 60.2239L88.3612 59.8234L90.9261 60.3356L90.9329 60.333C91.048 60.3532 91.1219 60.4696 91.1021 60.5817C91.095 60.6247 91.0718 60.6657 91.0433 60.6927L88.947 62.8711L88.8844 62.5574L91.096 63.5669C91.1707 63.6025 91.2181 63.6889 91.2013 63.7677L91.1998 63.7843C91.1912 63.8439 91.1478 63.8927 91.094 63.9133C86.8771 65.5137 82.6811 67.1704 78.506 68.8834L72.2355 71.4317L65.9362 73.9027C61.7193 75.5031 57.4972 77.0894 53.2646 78.6475L46.9026 80.9495C44.7707 81.6864 42.6518 82.4584 40.5119 83.1741C40.4731 83.173 40.4451 83.1596 40.4346 83.1314Z" fill="white"/>
</g>
<g clip-path="url(#clip3_8001_5019)">
<path d="M73.9784 135.526C71.0706 136.842 68.1254 138.091 65.2016 139.366L56.3046 143.124C50.36 145.594 44.3994 148.024 38.4308 150.433L29.4381 153.945L20.4015 157.343C14.3691 159.588 8.36867 161.915 2.4001 164.324L2.54719 164.135L2.54561 164.159L2.38781 163.867L5.59774 165.287C5.73308 165.352 5.80642 165.512 5.75481 165.663C5.74369 165.691 5.72303 165.723 5.70236 165.755L2.81834 169.007L2.63409 168.476L6.34318 169.08C6.53181 169.112 6.67283 169.304 6.6507 169.503C6.64755 169.551 6.63485 169.604 6.60464 169.64L6.59909 169.654L5.02942 172.427L4.81485 171.79L8.15519 173.063C8.40038 173.155 8.53112 173.435 8.45013 173.681C8.43744 173.733 8.41121 173.779 8.39054 173.811L8.37543 173.829L7.05975 175.695C6.98263 175.809 6.8625 175.869 6.73996 175.894L6.72087 175.902L6.71133 175.905L6.91829 174.933L6.96288 174.963L6.50125 174.91C12.4339 172.409 18.3826 169.948 24.3432 167.518C30.3077 165.099 36.2484 162.618 42.2449 160.28C48.2294 157.912 54.202 155.513 60.2184 153.227L69.227 149.757L78.2636 146.359L78.0579 146.88L73.9784 135.526ZM74.0897 135.387L78.77 146.583C78.8592 146.785 78.7743 147.02 78.5833 147.097L78.5642 147.104L69.6712 150.872L60.7502 154.568C54.8136 157.059 48.833 159.438 42.8645 161.847C36.9039 164.277 30.8954 166.583 24.9069 168.941C18.9144 171.289 12.91 173.606 6.88957 175.882L6.87048 175.889C6.71772 175.95 6.55216 175.922 6.42395 175.819L6.37936 175.789L6.36583 175.783C6.13491 175.614 6.06304 175.287 6.22281 175.045C6.30549 174.917 6.45025 174.836 6.58633 174.817L6.59588 174.813L6.25302 175.009L7.63083 173.19L7.85108 173.956L4.55122 172.559L4.53769 172.553C4.32912 172.47 4.21988 172.217 4.2993 171.996C4.31042 171.968 4.32154 171.94 4.33664 171.922L5.99151 169.197L6.2514 169.781L2.55972 169.051L2.55017 169.055C2.38461 169.026 2.27466 168.856 2.2992 168.693C2.30791 168.63 2.33969 168.57 2.37945 168.53L5.30649 165.333L5.40712 165.79L2.20433 164.331C2.09605 164.28 2.02512 164.154 2.04652 164.039L2.0481 164.014C2.05838 163.927 2.1188 163.856 2.19518 163.825C8.1797 161.457 14.1323 159.007 20.053 156.474L28.9461 152.706L37.883 149.052C43.8675 146.683 49.86 144.336 55.8684 142.029L64.901 138.621C67.9292 137.529 70.9374 136.386 73.9775 135.325C74.0332 135.326 74.0738 135.346 74.0897 135.387Z" fill="white"/>
</g>
<g clip-path="url(#clip4_8001_5019)">
<path d="M66.3589 151.158C69.274 149.858 72.2261 148.626 75.1569 147.367L84.0748 143.659C90.0331 141.221 96.0071 138.824 101.989 136.448L111.001 132.987L120.057 129.638C126.101 127.427 132.115 125.133 138.097 122.757L137.948 122.945L137.95 122.921L138.106 123.214L134.904 121.776C134.769 121.711 134.697 121.55 134.749 121.399C134.761 121.371 134.781 121.339 134.802 121.307L137.704 118.072L137.886 118.604L134.18 117.979C133.991 117.947 133.852 117.753 133.875 117.555C133.878 117.506 133.891 117.454 133.922 117.418L133.927 117.404L135.512 114.639L135.723 115.278L132.39 113.986C132.145 113.893 132.016 113.612 132.099 113.367C132.112 113.315 132.138 113.269 132.159 113.237L132.174 113.219L133.5 111.361C133.578 111.247 133.698 111.188 133.821 111.163L133.84 111.156L133.85 111.152L133.637 112.123L133.593 112.093L134.054 112.148C128.108 114.617 122.145 117.045 116.171 119.441C110.193 121.828 104.239 124.276 98.2296 126.58C92.232 128.915 86.2462 131.281 80.2171 133.534L71.1892 136.954L62.1338 140.302L62.3424 139.782L66.3589 151.158ZM66.2468 151.297L61.6288 140.075C61.5406 139.873 61.6269 139.638 61.8182 139.562L61.8374 139.555L70.7513 135.836L79.6927 132.19C85.6431 129.732 91.6368 127.386 97.6187 125.01C103.593 122.613 109.614 120.34 115.616 118.015C121.621 115.701 127.638 113.417 133.671 111.175L133.69 111.167C133.844 111.107 134.009 111.137 134.137 111.24L134.181 111.27L134.194 111.277C134.424 111.447 134.495 111.774 134.333 112.015C134.25 112.142 134.105 112.223 133.969 112.241L133.959 112.245L134.303 112.051L132.915 113.862L132.699 113.095L135.991 114.51L136.005 114.517C136.213 114.6 136.321 114.854 136.24 115.075C136.229 115.103 136.217 115.131 136.202 115.149L134.532 117.864L134.276 117.279L137.963 118.029L137.973 118.026C138.138 118.055 138.247 118.225 138.222 118.389C138.213 118.452 138.181 118.512 138.141 118.551L135.196 121.732L135.098 121.274L138.292 122.751C138.4 122.803 138.471 122.929 138.449 123.044L138.447 123.069C138.436 123.156 138.375 123.227 138.299 123.257C132.301 125.592 126.335 128.009 120.4 130.509L111.486 134.227L102.529 137.833C96.5315 140.168 90.5261 142.482 84.5048 144.756L75.4534 148.114C72.4192 149.189 69.4047 150.315 66.3587 151.359C66.303 151.358 66.2625 151.338 66.2468 151.297Z" fill="white"/>
</g>
<g clip-path="url(#clip5_8001_5019)">
<path d="M82.7275 154.254C79.8212 155.575 76.8776 156.828 73.9555 158.108L65.0634 161.879C59.1221 164.36 53.165 166.799 47.1999 169.217L38.2125 172.742L29.1814 176.155C23.1528 178.409 17.1559 180.745 11.1908 183.164L11.3379 182.974L11.3363 182.999L11.179 182.706L14.3841 184.124C14.5192 184.189 14.5923 184.349 14.5406 184.5C14.5294 184.528 14.5087 184.561 14.4881 184.593L11.6034 187.851L11.4199 187.319L15.1245 187.92C15.3129 187.951 15.4536 188.144 15.4313 188.343C15.4281 188.391 15.4153 188.444 15.3851 188.48L15.3795 188.494L13.8084 191.272L13.5948 190.634L16.9303 191.905C17.1751 191.997 17.3054 192.277 17.2242 192.523C17.2115 192.576 17.1852 192.622 17.1646 192.654L17.1494 192.672L15.833 194.541C15.7559 194.655 15.6358 194.715 15.5134 194.74L15.4943 194.748L15.4848 194.752L15.6926 193.779L15.7371 193.808L15.276 193.756C21.2053 191.245 27.1506 188.775 33.1078 186.336C39.0689 183.907 45.0062 181.417 50.9991 179.07C56.9801 176.693 62.9492 174.284 68.962 171.989L77.578 169.623L87.3154 165.613L86.7902 165.615L82.7275 154.254ZM82.8389 154.114L87.5019 165.317C87.5908 165.519 87.5057 165.754 87.3148 165.831L87.2958 165.839L78.4077 169.621L69.4918 173.331C63.5585 175.831 57.5814 178.219 51.6163 180.638C45.6592 183.077 39.6543 185.393 33.6694 187.76C27.6804 190.117 21.6796 192.443 15.6628 194.728L15.6438 194.735C15.4911 194.797 15.3257 194.768 15.1978 194.665L15.1533 194.636L15.1397 194.629C14.9092 194.461 14.8378 194.134 14.9977 193.891C15.0804 193.763 15.2251 193.682 15.3611 193.663L15.3706 193.659L15.0279 193.856L16.4063 192.033L16.6255 192.799L13.3306 191.405L13.3171 191.398C13.1088 191.316 12.9999 191.063 13.0795 190.841C13.0907 190.813 13.1018 190.785 13.1169 190.767L14.7731 188.037L15.0321 188.622L11.345 187.895L11.3355 187.899C11.1701 187.87 11.0604 187.701 11.0851 187.537C11.0939 187.474 11.1257 187.414 11.1655 187.374L14.0931 184.17L14.1931 184.628L10.9952 183.171C10.8871 183.12 10.8164 182.994 10.8379 182.878L10.8395 182.854C10.8498 182.767 10.9103 182.695 10.9866 182.664C16.9676 180.287 22.9168 177.827 28.8343 175.285L37.7224 171.504L46.6542 167.835C52.6352 165.457 58.6241 163.1 64.6289 160.784L73.656 157.362C76.6822 156.266 79.6886 155.118 82.7268 154.052C82.7824 154.054 82.823 154.073 82.8389 154.114Z" fill="white"/>
</g>
<g clip-path="url(#clip6_8001_5019)">
<path d="M79.0763 177.689C80.3055 180.635 81.4656 183.616 82.6533 186.576L86.1445 195.58C88.4374 201.596 90.6888 207.626 92.9194 213.663L96.1616 222.756L99.2897 231.89C101.354 237.987 103.502 244.054 105.733 250.091L105.548 249.939L105.572 249.941L105.275 250.09L106.79 246.921C106.858 246.788 107.02 246.719 107.17 246.775C107.198 246.787 107.229 246.808 107.26 246.83L110.424 249.807L109.888 249.976L110.601 246.284C110.638 246.096 110.835 245.961 111.033 245.989C111.081 245.993 111.133 246.007 111.168 246.039L111.182 246.045L113.907 247.694L113.263 247.89L114.635 244.586C114.734 244.343 115.017 244.221 115.26 244.309C115.312 244.323 115.358 244.351 115.389 244.372L115.406 244.388L117.232 245.757C117.343 245.837 117.399 245.959 117.421 246.082L117.428 246.102L117.432 246.111L116.466 245.876L116.497 245.833L116.431 246.293C114.107 240.289 111.825 234.27 109.573 228.24C107.332 222.206 105.029 216.194 102.871 210.131C100.682 204.079 98.4616 198.038 96.3554 191.956L94.2587 183.266L90.5557 173.409L90.541 173.935L79.0763 177.689ZM78.9403 177.574L90.2659 173.214C90.4698 173.131 90.7026 173.222 90.7732 173.416L90.7803 173.435L94.2818 182.436L97.7108 191.462C100.024 197.47 102.224 203.519 104.455 209.556C106.706 215.586 108.833 221.661 111.012 227.716C113.18 233.776 115.317 239.847 117.413 245.932L117.42 245.952C117.477 246.106 117.443 246.271 117.336 246.396L117.306 246.44L117.299 246.453C117.123 246.679 116.795 246.742 116.558 246.575C116.432 246.489 116.355 246.342 116.34 246.205L116.337 246.195L116.523 246.544L114.746 245.114L115.517 244.916L114.024 248.176L114.018 248.189C113.929 248.395 113.673 248.497 113.454 248.411C113.426 248.399 113.398 248.388 113.381 248.372L110.708 246.639L111.299 246.396L110.46 250.067L110.464 250.076C110.43 250.241 110.257 250.346 110.094 250.317C110.032 250.306 109.973 250.273 109.934 250.232L106.826 247.214L107.287 247.126L105.734 250.287C105.679 250.394 105.551 250.461 105.437 250.437L105.413 250.434C105.326 250.421 105.256 250.359 105.228 250.282C103.039 244.23 100.767 238.207 98.4115 232.214L94.91 223.213L91.5225 214.172C89.3334 208.119 87.165 202.06 85.0381 195.985L81.8996 186.855C80.8984 183.796 79.8453 180.755 78.8752 177.685C78.8783 177.629 78.8989 177.589 78.9403 177.574Z" fill="white"/>
</g>
<path d="M87.581 72.7926C86.2864 73.4848 84.9465 74.0553 83.5669 74.519C82.8702 74.7324 82.1585 74.9052 81.4701 75.1408C80.7803 75.3726 80.1124 75.6634 79.4486 75.9652C78.7862 76.2708 78.1197 76.5653 77.4436 76.8339C76.7688 77.1063 76.0955 77.3824 75.4111 77.6289C74.037 78.1073 72.6505 78.5526 71.223 78.8872C71.2143 78.8905 71.2023 78.8782 71.1968 78.8634C71.1913 78.8487 71.1937 78.8352 71.2024 78.8319C72.4999 78.1472 73.8397 77.5766 75.1933 77.0429C75.8722 76.7816 76.562 76.5498 77.2504 76.3143C77.9375 76.0751 78.6341 75.8617 79.3349 75.6593C80.0343 75.4533 80.7282 75.2325 81.4029 74.9602C82.0763 74.6841 82.7291 74.3528 83.3956 74.0583C84.7424 73.5062 86.1288 73.0609 87.5605 72.7373C87.5692 72.7341 87.5812 72.7464 87.5867 72.7612C87.59 72.7767 87.5876 72.7902 87.581 72.7926Z" fill="#1E1F21"/>
<path d="M29.7193 63.2751C29.3025 62.9883 28.9935 62.6313 28.7793 62.2126C28.6885 61.9927 28.6337 61.7493 28.5233 61.5422C28.4162 61.3328 28.2568 61.1575 28.0876 60.9886C27.9151 60.8218 27.7525 60.6486 27.6127 60.4605C27.4696 60.2746 27.3233 60.0908 27.2031 59.89C26.9758 59.4798 26.778 59.0506 26.6782 58.5575C26.6766 58.555 26.6884 58.5446 26.7015 58.5361C26.7146 58.5276 26.7256 58.5231 26.7272 58.5256C27.1375 58.8167 27.4465 59.1737 27.7228 59.552C27.8561 59.7443 27.9632 59.9536 28.0736 60.1608C28.1872 60.3659 28.278 60.5858 28.3589 60.8122C28.4431 61.0364 28.5404 61.2521 28.6835 61.438C28.8298 61.6218 29.0252 61.7737 29.1878 61.9469C29.4805 62.3146 29.6783 62.7438 29.7683 63.2432C29.77 63.2457 29.7581 63.2561 29.745 63.2646C29.7315 63.2725 29.7205 63.277 29.7193 63.2751Z" fill="#1E1F21"/>
<path d="M29.8914 62.5273C29.3007 61.7328 28.7503 60.9128 28.2353 60.0703C27.9839 59.6451 27.746 59.2114 27.4872 58.7909C27.2298 58.3697 26.9527 57.9608 26.6721 57.5543C26.3902 57.1486 26.1119 56.7405 25.8422 56.327C25.5713 55.9142 25.2992 55.5023 25.0368 55.0841C24.5169 54.2447 24.008 53.3983 23.5357 52.5286C23.5323 52.5233 23.5347 52.5162 23.5396 52.5131C23.5444 52.51 23.5506 52.5116 23.554 52.517C24.1422 53.3129 24.6926 54.133 25.2308 54.9607C25.498 55.3758 25.7555 55.7971 26.0142 56.2176C26.2742 56.6373 26.5256 57.0624 26.7733 57.4899C27.0223 57.9166 27.2761 58.3402 27.547 58.7529C27.8192 59.1649 28.1096 59.5652 28.3879 59.9733C28.9321 60.7972 29.441 61.6436 29.9097 62.5156C29.913 62.5209 29.9107 62.528 29.9058 62.5311C29.9001 62.5329 29.8939 62.5312 29.8914 62.5273Z" fill="#1E1F21"/>
<path d="M29.3442 63.4962C28.9747 63.5675 28.6078 63.6598 28.2433 63.7706C28.0615 63.8292 27.8806 63.8948 27.6982 63.9496C27.516 64.005 27.3324 64.0502 27.1486 64.0935C26.9648 64.1361 26.7811 64.1807 26.5981 64.2297C26.4149 64.2781 26.2317 64.3259 26.0491 64.3787C25.6843 64.487 25.3202 64.601 24.9586 64.7341C24.9563 64.7348 24.9548 64.7378 24.9552 64.7403C24.9555 64.7429 24.9575 64.7443 24.9598 64.7437C25.3292 64.6711 25.6961 64.5788 26.0621 64.4801C26.245 64.4298 26.4273 64.3744 26.6096 64.3196C26.792 64.2655 26.9738 64.2069 27.1554 64.1464C27.3371 64.0865 27.5191 64.0292 27.7022 63.9808C27.8855 63.9331 28.0699 63.8949 28.2536 63.8503C28.62 63.7548 28.9841 63.6408 29.3455 63.5058C29.3478 63.5051 29.3492 63.5021 29.3489 63.4995C29.348 63.4971 29.346 63.4957 29.3442 63.4962Z" fill="#1E1F21"/>
<path d="M79.6427 81.3615C78.3219 81.9884 76.9725 82.5385 75.5979 83.0211C74.9063 83.2508 74.2051 83.4548 73.5186 83.6985C72.8313 83.9398 72.1579 84.2183 71.4871 84.5038C70.8172 84.7917 70.1447 85.0725 69.4661 85.3371C68.7883 85.604 68.1114 85.8733 67.4276 86.1239C66.0565 86.6158 64.6775 87.0868 63.2725 87.4879C63.2638 87.4912 63.2538 87.4843 63.2503 87.475C63.2469 87.4657 63.2508 87.4562 63.2595 87.453C64.582 86.8307 65.9314 86.2806 67.2895 85.7538C67.9699 85.4939 68.6572 85.2526 69.3436 85.0089C70.0292 84.763 70.7208 84.5333 71.4151 84.3106C72.1084 84.0856 72.7983 83.8513 73.4761 83.5844C74.153 83.3152 74.8168 83.011 75.4893 82.7301C76.8431 82.1917 78.222 81.7207 79.6297 81.3266C79.6384 81.3233 79.6484 81.3302 79.6519 81.3395C79.6532 81.3496 79.6492 81.359 79.6427 81.3615Z" fill="#1E1F21"/>
<path d="M79.1364 89.047C76.422 90.3354 73.6488 91.4659 70.8237 92.4578C69.4023 92.9298 67.9612 93.3491 66.5505 93.8498C65.138 94.3458 63.7541 94.9182 62.3755 95.505C60.9986 96.0966 59.6165 96.6738 58.2218 97.2176C56.8289 97.7661 55.4379 98.3194 54.0325 98.8345C51.2146 99.8454 48.3807 100.813 45.4932 101.638C45.4752 101.644 45.4547 101.63 45.4475 101.611C45.4404 101.592 45.4485 101.573 45.4664 101.566C48.1843 100.287 50.9576 99.1566 53.7487 98.0739C55.1469 97.5397 56.5594 97.0438 57.9701 96.5431C59.3791 96.0376 60.8005 95.5656 62.2273 95.108C63.6523 94.6455 65.0702 94.164 66.463 93.6154C67.8541 93.0621 69.2184 92.4371 70.6006 91.8598C73.3828 90.7532 76.2167 89.7853 79.1096 88.9752C79.1275 88.9685 79.1481 88.9826 79.1552 89.0018C79.1579 89.0226 79.1498 89.042 79.1364 89.047Z" fill="#1E1F21"/>
<path d="M91.3481 130.569C90.3178 131.058 89.2651 131.487 88.1929 131.864C87.6533 132.043 87.1064 132.202 86.5709 132.392C86.0348 132.581 85.5095 132.798 84.9862 133.021C84.4636 133.245 83.939 133.464 83.4096 133.671C82.8809 133.879 82.3529 134.089 81.8195 134.284C80.7499 134.668 79.6743 135.035 78.5783 135.348C78.5715 135.351 78.5637 135.346 78.561 135.338C78.5583 135.331 78.5613 135.324 78.5681 135.321C79.5998 134.836 80.6524 134.407 81.7118 133.996C82.2425 133.793 82.7787 133.605 83.3141 133.415C83.8489 133.223 84.3884 133.044 84.93 132.87C85.4709 132.694 86.009 132.512 86.5377 132.303C87.0657 132.093 87.5836 131.856 88.1082 131.637C89.1642 131.217 90.2399 130.85 91.3379 130.542C91.3447 130.54 91.3525 130.545 91.3552 130.552C91.3562 130.56 91.3532 130.567 91.3481 130.569Z" fill="#1E1F21"/>
<path d="M106.3 128.951C105.129 129.507 103.933 129.994 102.715 130.422C102.102 130.626 101.48 130.806 100.872 131.022C100.262 131.236 99.6654 131.483 99.0708 131.736C98.477 131.991 97.8809 132.24 97.2794 132.475C96.6786 132.711 96.0786 132.95 95.4725 133.172C94.2572 133.608 93.0349 134.026 91.7895 134.381C91.7818 134.384 91.7729 134.378 91.7699 134.37C91.7668 134.362 91.7703 134.353 91.778 134.35C92.9502 133.799 94.1464 133.311 95.3502 132.844C95.9532 132.614 96.5624 132.4 97.1709 132.184C97.7785 131.966 98.3916 131.762 99.007 131.565C99.6216 131.366 100.233 131.158 100.834 130.921C101.434 130.683 102.022 130.413 102.618 130.164C103.818 129.687 105.041 129.269 106.288 128.92C106.296 128.917 106.305 128.923 106.308 128.931C106.309 128.94 106.306 128.949 106.3 128.951Z" fill="#1E1F21"/>
<path d="M99.1403 88.6212C96.4259 89.9096 93.6527 91.0402 90.8277 92.032C89.4062 92.504 87.9651 92.9234 86.5544 93.4241C85.1419 93.92 83.758 94.4924 82.3794 95.0792C81.0026 95.6708 79.6204 96.2481 78.2257 96.7918C76.8329 97.3403 75.4418 97.8937 74.0364 98.4087C71.2185 99.4197 68.3846 100.388 65.4971 101.212C65.4791 101.219 65.4586 101.205 65.4514 101.185C65.4443 101.166 65.4524 101.147 65.4703 101.14C68.1882 99.8614 70.9615 98.7308 73.7526 97.6481C75.1508 97.1139 76.5633 96.618 77.974 96.1173C79.383 95.6118 80.8044 95.1398 82.2312 94.6822C83.6562 94.2198 85.0741 93.7382 86.467 93.1897C87.858 92.6364 89.2224 92.0113 90.6045 91.434C93.3867 90.3274 96.2206 89.3595 99.1135 88.5494C99.1314 88.5427 99.152 88.5568 99.1591 88.576C99.1618 88.5968 99.1537 88.6162 99.1403 88.6212Z" fill="#1E1F21"/>
<path d="M117.027 142.695C114.313 143.984 111.539 145.114 108.714 146.106C107.293 146.578 105.852 146.998 104.441 147.498C103.029 147.994 101.645 148.567 100.266 149.153C98.8893 149.745 97.5071 150.322 96.1124 150.866C94.7196 151.415 93.3285 151.968 91.9231 152.483C89.1052 153.494 86.2713 154.462 83.3838 155.286C83.3659 155.293 83.3453 155.279 83.3381 155.26C83.331 155.241 83.3391 155.221 83.357 155.214C86.0749 153.936 88.8482 152.805 91.6393 151.722C93.0375 151.188 94.45 150.692 95.8607 150.192C97.2697 149.686 98.6911 149.214 100.118 148.756C101.543 148.294 102.961 147.812 104.354 147.264C105.745 146.711 107.109 146.085 108.491 145.508C111.273 144.402 114.107 143.434 117 142.624C117.018 142.617 117.039 142.631 117.046 142.65C117.049 142.671 117.04 142.69 117.027 142.695Z" fill="#1E1F21"/>
<path d="M151.086 122.258C148.371 123.546 145.598 124.677 142.773 125.669C141.352 126.141 139.91 126.56 138.5 127.061C137.087 127.557 135.703 128.129 134.325 128.716C132.948 129.308 131.566 129.885 130.171 130.429C128.778 130.977 127.387 131.53 125.982 132.045C123.164 133.056 120.33 134.024 117.442 134.849C117.424 134.855 117.404 134.841 117.397 134.822C117.39 134.803 117.398 134.784 117.416 134.777C120.133 133.498 122.907 132.368 125.698 131.285C127.096 130.751 128.509 130.255 129.919 129.754C131.328 129.249 132.75 128.777 134.176 128.319C135.602 127.856 137.019 127.375 138.412 126.826C139.803 126.273 141.168 125.648 142.55 125.071C145.332 123.964 148.166 122.996 151.059 122.186C151.077 122.179 151.097 122.194 151.104 122.213C151.107 122.234 151.099 122.253 151.086 122.258Z" fill="#1E1F21"/>
<path d="M179.187 119.277C176.473 120.566 173.7 121.696 170.875 122.688C169.453 123.16 168.012 123.58 166.601 124.08C165.189 124.576 163.805 125.149 162.426 125.735C161.049 126.327 159.667 126.904 158.273 127.448C156.88 127.997 155.489 128.55 154.083 129.065C151.265 130.076 148.431 131.044 145.544 131.868C145.526 131.875 145.505 131.861 145.498 131.842C145.491 131.823 145.499 131.803 145.517 131.796C148.235 130.518 151.008 129.387 153.799 128.304C155.198 127.77 156.61 127.274 158.021 126.774C159.43 126.268 160.851 125.796 162.278 125.338C163.703 124.876 165.121 124.394 166.514 123.846C167.905 123.293 169.269 122.668 170.651 122.09C173.434 120.984 176.268 120.016 179.16 119.206C179.178 119.199 179.199 119.213 179.206 119.232C179.209 119.253 179.201 119.272 179.187 119.277Z" fill="#1E1F21"/>
<path d="M182.168 132.051C179.453 133.339 176.68 134.47 173.855 135.462C172.434 135.934 170.993 136.353 169.582 136.854C168.169 137.35 166.785 137.922 165.407 138.509C164.03 139.101 162.648 139.678 161.253 140.221C159.86 140.77 158.469 141.323 157.064 141.838C154.246 142.849 151.412 143.817 148.524 144.642C148.507 144.648 148.486 144.634 148.479 144.615C148.472 144.596 148.48 144.577 148.498 144.57C151.216 143.291 153.989 142.161 156.78 141.078C158.178 140.544 159.591 140.048 161.001 139.547C162.41 139.042 163.832 138.57 165.259 138.112C166.684 137.649 168.101 137.168 169.494 136.619C170.885 136.066 172.25 135.441 173.632 134.864C176.414 133.757 179.248 132.789 182.141 131.979C182.159 131.972 182.179 131.987 182.186 132.006C182.189 132.026 182.181 132.046 182.168 132.051Z" fill="#1E1F21"/>
<path d="M160.035 146.527C157.32 147.816 154.547 148.946 151.722 149.938C150.301 150.41 148.86 150.83 147.449 151.33C146.036 151.826 144.652 152.399 143.274 152.985C141.897 153.577 140.515 154.154 139.12 154.698C137.727 155.247 136.336 155.8 134.931 156.315C132.113 157.326 129.279 158.294 126.392 159.118C126.374 159.125 126.353 159.111 126.346 159.092C126.339 159.073 126.347 159.053 126.365 159.046C129.083 157.768 131.856 156.637 134.647 155.554C136.045 155.02 137.458 154.524 138.869 154.024C140.277 153.518 141.699 153.046 143.126 152.588C144.551 152.126 145.969 151.644 147.361 151.096C148.753 150.543 150.117 149.918 151.499 149.34C154.281 148.234 157.115 147.266 160.008 146.456C160.026 146.449 160.047 146.463 160.054 146.482C160.056 146.503 160.048 146.522 160.035 146.527Z" fill="#1E1F21"/>
<path d="M185.152 143.973C182.438 145.261 179.664 146.392 176.839 147.384C175.418 147.856 173.977 148.275 172.566 148.776C171.154 149.272 169.77 149.844 168.391 150.431C167.014 151.022 165.632 151.6 164.237 152.143C162.845 152.692 161.453 153.245 160.048 153.76C157.23 154.771 154.396 155.739 151.509 156.564C151.491 156.57 151.47 156.556 151.463 156.537C151.456 156.518 151.464 156.498 151.482 156.492C154.2 155.213 156.973 154.082 159.764 153C161.163 152.465 162.575 151.97 163.986 151.469C165.395 150.963 166.816 150.491 168.243 150.034C169.668 149.571 171.086 149.09 172.479 148.541C173.87 147.988 175.234 147.363 176.616 146.786C179.398 145.679 182.232 144.711 185.125 143.901C185.143 143.894 185.164 143.908 185.171 143.928C185.174 143.948 185.165 143.968 185.152 143.973Z" fill="#1E1F21"/>
<path d="M139.425 133.61C137.647 134.454 135.829 135.195 133.978 135.845C133.047 136.154 132.102 136.429 131.178 136.757C130.252 137.082 129.345 137.457 128.442 137.842C127.539 138.23 126.634 138.608 125.72 138.964C124.807 139.324 123.895 139.686 122.974 140.024C121.128 140.686 119.271 141.32 117.378 141.861C117.367 141.865 117.353 141.856 117.349 141.843C117.344 141.831 117.349 141.818 117.361 141.814C119.142 140.976 120.959 140.235 122.788 139.525C123.705 139.175 124.63 138.85 125.555 138.522C126.478 138.191 127.41 137.882 128.345 137.582C129.278 137.279 130.208 136.963 131.12 136.604C132.032 136.241 132.926 135.831 133.832 135.453C135.655 134.728 137.512 134.094 139.408 133.563C139.42 133.558 139.433 133.568 139.438 133.58C139.44 133.594 139.434 133.606 139.425 133.61Z" fill="#1E1F21"/>
<path d="M160.879 112.465C158.164 113.753 155.391 114.884 152.566 115.876C151.144 116.348 149.703 116.767 148.293 117.268C146.88 117.764 145.496 118.336 144.118 118.923C142.741 119.515 141.359 120.092 139.964 120.636C138.571 121.184 137.18 121.737 135.775 122.252C132.957 123.263 130.123 124.231 127.235 125.056C127.217 125.062 127.197 125.048 127.19 125.029C127.183 125.01 127.191 124.991 127.209 124.984C129.926 123.705 132.7 122.575 135.491 121.492C136.889 120.958 138.302 120.462 139.712 119.961C141.121 119.456 142.543 118.984 143.969 118.526C145.394 118.064 146.812 117.582 148.205 117.033C149.596 116.48 150.961 115.855 152.343 115.278C155.125 114.171 157.959 113.203 160.852 112.393C160.87 112.386 160.89 112.401 160.897 112.42C160.9 112.441 160.892 112.46 160.879 112.465Z" fill="#1E1F21"/>
<path d="M174.507 99.6954C171.793 100.984 169.02 102.114 166.195 103.106C164.773 103.578 163.332 103.998 161.922 104.498C160.509 104.994 159.125 105.567 157.747 106.153C156.37 106.745 154.988 107.322 153.593 107.866C152.2 108.415 150.809 108.968 149.404 109.483C146.586 110.494 143.752 111.462 140.864 112.286C140.846 112.293 140.826 112.279 140.819 112.26C140.811 112.241 140.82 112.221 140.837 112.214C143.555 110.936 146.329 109.805 149.12 108.722C150.518 108.188 151.93 107.692 153.341 107.192C154.75 106.686 156.172 106.214 157.598 105.756C159.023 105.294 160.441 104.812 161.834 104.264C163.225 103.711 164.59 103.085 165.972 102.508C168.754 101.402 171.588 100.434 174.481 99.6237C174.499 99.617 174.519 99.6311 174.526 99.6502C174.529 99.671 174.521 99.6904 174.507 99.6954Z" fill="#1E1F21"/>
<path d="M126.784 117.501C125.541 118.091 124.271 118.609 122.977 119.063C122.327 119.279 121.667 119.471 121.021 119.701C120.374 119.928 119.74 120.19 119.109 120.458C118.479 120.729 117.846 120.994 117.207 121.243C116.569 121.494 115.932 121.747 115.289 121.983C113.999 122.446 112.701 122.889 111.379 123.267C111.371 123.27 111.361 123.263 111.358 123.254C111.355 123.246 111.358 123.237 111.367 123.234C112.611 122.648 113.881 122.131 115.159 121.635C115.799 121.39 116.446 121.163 117.092 120.934C117.737 120.702 118.388 120.486 119.041 120.277C119.694 120.065 120.343 119.844 120.981 119.593C121.618 119.34 122.242 119.054 122.875 118.789C124.149 118.283 125.447 117.84 126.771 117.469C126.78 117.465 126.789 117.472 126.792 117.481C126.793 117.49 126.79 117.499 126.784 117.501Z" fill="#1E1F21"/>
<path d="M126.82 159.727C124.106 161.015 121.332 162.146 118.507 163.137C117.086 163.609 115.645 164.029 114.234 164.53C112.822 165.025 111.438 165.598 110.059 166.185C108.682 166.776 107.3 167.354 105.905 167.897C104.513 168.446 103.121 168.999 101.716 169.514C98.8982 170.525 96.0643 171.493 93.1767 172.317C93.1588 172.324 93.1383 172.31 93.1311 172.291C93.124 172.272 93.1321 172.252 93.15 172.246C95.8679 170.967 98.6411 169.836 101.432 168.754C102.83 168.219 104.243 167.723 105.654 167.223C107.063 166.717 108.484 166.245 109.911 165.788C111.336 165.325 112.754 164.844 114.147 164.295C115.538 163.742 116.902 163.117 118.284 162.54C121.066 161.433 123.9 160.465 126.793 159.655C126.811 159.648 126.832 159.662 126.839 159.681C126.841 159.702 126.833 159.722 126.82 159.727Z" fill="#1E1F21"/>
<path d="M115.32 141.418C112.606 142.706 109.832 143.837 107.007 144.829C105.586 145.301 104.145 145.72 102.734 146.221C101.322 146.717 99.9376 147.289 98.5591 147.876C97.1822 148.468 95.8001 149.045 94.4054 149.589C93.0125 150.137 91.6214 150.691 90.2161 151.206C87.3982 152.217 84.5643 153.184 81.6768 154.009C81.6588 154.016 81.6383 154.001 81.6311 153.982C81.624 153.963 81.6321 153.944 81.65 153.937C84.3679 152.658 87.1411 151.528 89.9323 150.445C91.3305 149.911 92.743 149.415 94.1537 148.914C95.5627 148.409 96.9841 147.937 98.4109 147.479C99.8359 147.017 101.254 146.535 102.647 145.987C104.038 145.433 105.402 144.808 106.784 144.231C109.566 143.124 112.4 142.156 115.293 141.346C115.311 141.34 115.332 141.354 115.339 141.373C115.341 141.394 115.333 141.413 115.32 141.418Z" fill="#1E1F21"/>
<path d="M96.1413 154.204C95.4445 154.535 94.7325 154.825 94.0073 155.079C93.6424 155.201 93.2725 155.308 92.9103 155.437C92.5477 155.564 92.1924 155.711 91.8385 155.862C91.485 156.014 91.1302 156.162 90.7722 156.301C90.4146 156.442 90.0575 156.584 89.6967 156.716C88.9733 156.976 88.2458 157.225 87.5045 157.436C87.4999 157.438 87.4947 157.434 87.4928 157.429C87.491 157.425 87.4931 157.42 87.4977 157.418C88.1954 157.09 88.9074 156.799 89.6239 156.521C89.9829 156.384 90.3455 156.257 90.7076 156.128C91.0693 155.999 91.4342 155.877 91.8005 155.76C92.1663 155.641 92.5303 155.518 92.8879 155.377C93.245 155.235 93.5953 155.074 93.9501 154.926C94.6643 154.642 95.3918 154.394 96.1345 154.186C96.1391 154.184 96.1443 154.187 96.1462 154.192C96.1469 154.198 96.1448 154.203 96.1413 154.204Z" fill="#1E1F21"/>
<path d="M121.023 166.435C119.833 167 118.616 167.495 117.377 167.93C116.754 168.138 116.122 168.321 115.503 168.541C114.884 168.759 114.276 169.01 113.672 169.267C113.068 169.527 112.462 169.78 111.85 170.018C111.239 170.259 110.629 170.501 110.012 170.727C108.777 171.171 107.534 171.595 106.267 171.957C106.259 171.96 106.25 171.954 106.247 171.945C106.244 171.937 106.247 171.928 106.255 171.926C107.447 171.365 108.664 170.869 109.888 170.394C110.501 170.16 111.121 169.942 111.74 169.722C112.358 169.501 112.981 169.294 113.607 169.093C114.232 168.89 114.854 168.679 115.465 168.438C116.075 168.196 116.673 167.922 117.28 167.668C118.5 167.183 119.743 166.758 121.012 166.403C121.02 166.4 121.029 166.406 121.032 166.415C121.033 166.424 121.029 166.432 121.023 166.435Z" fill="#1E1F21"/>
<path d="M71.9786 85.6193C70.6579 86.2462 69.3085 86.7963 67.9339 87.2789C67.2422 87.5086 66.541 87.7126 65.8546 87.9563C65.1673 88.1976 64.4939 88.4761 63.8231 88.7616C63.1532 89.0495 62.4806 89.3304 61.802 89.5949C61.1243 89.8618 60.4474 90.1311 59.7636 90.3817C58.3924 90.8736 57.0135 91.3446 55.6085 91.7457C55.5998 91.749 55.5898 91.7421 55.5863 91.7328C55.5828 91.7235 55.5867 91.7141 55.5955 91.7108C56.918 91.0885 58.2674 90.5384 59.6255 90.0116C60.3058 89.7517 60.9931 89.5104 61.6795 89.2667C62.3651 89.0208 63.0567 88.7911 63.751 88.5684C64.4444 88.3434 65.1343 88.1091 65.812 87.8422C66.4889 87.573 67.1528 87.2688 67.8253 86.988C69.179 86.4495 70.558 85.9785 71.9656 85.5844C71.9743 85.5811 71.9843 85.588 71.9878 85.5973C71.9891 85.6074 71.9852 85.6168 71.9786 85.6193Z" fill="#1E1F21"/>
<path d="M58.7833 82.6388C57.4626 83.2657 56.1131 83.8158 54.7385 84.2984C54.0469 84.5281 53.3457 84.7322 52.6593 84.9758C51.972 85.2171 51.2986 85.4956 50.6278 85.7812C49.9578 86.069 49.2853 86.3499 48.6067 86.6145C47.9289 86.8814 47.2521 87.1506 46.5682 87.4012C45.1971 87.8931 43.8182 88.3641 42.4132 88.7652C42.4044 88.7685 42.3944 88.7616 42.391 88.7523C42.3875 88.743 42.3914 88.7336 42.4001 88.7303C43.7226 88.1081 45.072 87.558 46.4301 87.0311C47.1105 86.7712 47.7978 86.5299 48.4842 86.2863C49.1698 86.0403 49.8614 85.8107 50.5557 85.588C51.2491 85.363 51.939 85.1287 52.6167 84.8617C53.2936 84.5925 53.9574 84.2884 54.63 84.0075C55.9837 83.469 57.3627 82.9981 58.7703 82.6039C58.779 82.6006 58.789 82.6075 58.7925 82.6168C58.7938 82.6269 58.7898 82.6364 58.7833 82.6388Z" fill="#1E1F21"/>
</g>
<defs>
<clipPath id="clip0_8001_5019">
<rect width="228" height="230" fill="white"/>
</clipPath>
<clipPath id="clip1_8001_5019">
<rect width="49.3504" height="9.99502" fill="white" transform="matrix(0.935806 -0.352514 0.353501 0.935434 36.2539 74.3359)"/>
</clipPath>
<clipPath id="clip2_8001_5019">
<rect width="49.3504" height="9.99502" fill="white" transform="matrix(0.935806 -0.352514 0.353501 0.935434 36.8789 74.3359)"/>
</clipPath>
<clipPath id="clip3_8001_5019">
<rect width="13.1185" height="14.3678" fill="white" transform="matrix(0.932812 -0.360364 0.36256 0.931961 61.8672 139.301)"/>
</clipPath>
<clipPath id="clip4_8001_5019">
<rect width="13.1185" height="13.7431" fill="white" transform="matrix(0.932812 -0.360364 0.36256 0.931961 61.2422 139.301)"/>
</clipPath>
<clipPath id="clip5_8001_5019">
<rect width="13.1185" height="14.3678" fill="white" transform="matrix(0.932253 -0.361806 0.361154 0.932506 70.625 158.047)"/>
</clipPath>
<clipPath id="clip6_8001_5019">
<rect width="13.1185" height="13.7431" fill="white" transform="matrix(-0.332467 -0.943115 0.941898 -0.3359 82.4922 189.906)"/>
</clipPath>
</defs>
</svg>
