<svg width="221" height="42" viewBox="0 0 221 42" fill="none" xmlns="http://www.w3.org/2000/svg">
<path d="M14 7L17.1432 16.6738H27.3148L19.0858 22.6525L22.229 32.3262L14 26.3475L5.77101 32.3262L8.9142 22.6525L0.685208 16.6738H10.8568L14 7Z" fill="#12E2B0"/>
<path d="M48 7L51.1432 16.6738H61.3148L53.0858 22.6525L56.229 32.3262L48 26.3475L39.771 32.3262L42.9142 22.6525L34.6852 16.6738H44.8568L48 7Z" fill="#12E2B0"/>
<path d="M82 7L85.1432 16.6738H95.3148L87.0858 22.6525L90.229 32.3262L82 26.3475L73.771 32.3262L76.9142 22.6525L68.6852 16.6738H78.8568L82 7Z" fill="#12E2B0"/>
<path d="M116 7L119.143 16.6738H129.315L121.086 22.6525L124.229 32.3262L116 26.3475L107.771 32.3262L110.914 22.6525L102.685 16.6738H112.857L116 7Z" fill="#12E2B0"/>
<path d="M150 7L153.143 16.6738H163.315L155.086 22.6525L158.229 32.3262L150 26.3475L141.771 32.3262L144.914 22.6525L136.685 16.6738H146.857L150 7Z" fill="#12E2B0"/>
<path d="M177.47 27.36C179.18 29.22 181.7 30.36 185.18 30.36C190.01 30.36 193.19 27.69 193.19 23.46C193.19 19.41 190.16 17.01 186.77 17.01C184.94 17.01 183.32 17.73 182.27 18.66V13.65H191.84V9.99H178.1V21.42L181.07 22.23C182.27 21.09 183.62 20.58 185.27 20.58C187.55 20.58 188.87 21.81 188.87 23.64C188.87 25.29 187.52 26.64 185.15 26.64C183.05 26.64 181.19 25.89 179.81 24.48L177.47 27.36ZM195.662 27.9C195.662 29.22 196.772 30.33 198.092 30.33C199.412 30.33 200.522 29.22 200.522 27.9C200.522 26.58 199.412 25.47 198.092 25.47C196.772 25.47 195.662 26.58 195.662 27.9ZM202.948 20.01C202.948 25.17 205.498 30.36 211.228 30.36C216.928 30.36 219.508 25.17 219.508 20.01C219.508 14.85 216.928 9.69 211.228 9.69C205.498 9.69 202.948 14.85 202.948 20.01ZM215.158 20.01C215.158 23.7 214.078 26.58 211.228 26.58C208.348 26.58 207.268 23.7 207.268 20.01C207.268 16.32 208.348 13.47 211.228 13.47C214.078 13.47 215.158 16.32 215.158 20.01Z" fill="#1E1F21"/>
</svg>
