<svg width="1200" height="598" viewBox="0 0 1200 598" fill="none" xmlns="http://www.w3.org/2000/svg">
<g clip-path="url(#clip0_4137_30527)">
<path fill-rule="evenodd" clip-rule="evenodd" d="M280.852 451.369C281.171 452.284 281.537 453.178 281.963 454.049C283.637 457.474 288.364 466.918 292.802 473.692C298.42 482.003 306.685 486.629 319.198 487.707C328.7 488.525 327.186 496.065 325.413 504.899C325.176 506.076 324.936 507.275 324.716 508.485C324.142 511.64 325.351 514.807 327.681 517.028C328.774 518.07 330.238 518.754 331.691 519.433C333.679 520.363 335.649 521.283 336.629 523.099C337.639 524.971 338.166 527.839 338.77 531.13C339.119 533.029 339.493 535.067 340.001 537.136C341.25 542.222 339.879 546.406 338.464 550.726C337.315 554.233 336.137 557.831 336.306 562.075C336.324 562.53 336.302 562.971 336.235 563.394C336.205 563.585 336.175 563.778 336.145 563.974C335.171 570.242 333.884 578.524 337.128 585.649C339.54 590.95 343.317 593.168 345.235 593.993C346.019 594.33 346.864 594.472 347.711 594.57C353.606 595.257 359.491 593.454 364.266 589.96C367.55 587.557 371.595 584.79 375.658 582.495C381.505 579.198 379.377 569.17 376.916 562.027C375.359 557.508 376.636 552.329 380.528 549.57C381.131 549.142 381.676 548.654 382.169 548.103C385.706 544.144 401.364 526.756 414.149 514.703C428.655 501.027 430.598 496.496 430.988 489.786C431.38 483.058 434.408 476.895 437.443 470.72C440.254 464.998 443.07 459.267 443.799 453.067C443.863 452.525 443.948 452.01 444.058 451.529C444.989 447.449 450.402 447.05 455.923 446.644C460.619 446.299 465.394 445.948 467.558 443.32C470.428 439.849 468.182 430.875 466.122 422.645C464.786 417.305 463.527 412.278 463.797 409.271C464.186 404.87 467.417 403.168 471.145 401.205C473.909 399.749 476.947 398.149 479.302 395.198C485.439 387.51 474.113 374.657 464.384 372.976C461.422 372.464 457.724 372.635 453.127 373.994C443.685 376.784 441.913 374.164 438.066 368.477C434.363 363.002 428.737 354.686 412.498 345.615C389.724 332.896 382.325 340.984 379.925 347.274C378.744 350.369 376.713 353.382 373.604 354.542C370.717 355.619 367.434 354.965 365.189 352.841C362.967 350.739 359.75 350.061 356.907 351.168C353.075 352.66 347.816 354.823 344.897 356.523C341.612 358.435 336.343 359.83 331.178 361.198C328.546 361.895 325.941 362.585 323.639 363.333C321.906 363.889 320.242 364.358 318.52 364.843C313.461 366.269 307.904 367.835 298.621 372.168C288.263 377.004 289.796 386.246 290.601 389.206C290.734 389.697 290.9 390.175 291.067 390.654C291.117 390.795 291.166 390.936 291.214 391.078L293.063 396.489C294.844 401.702 295.103 407.307 293.809 412.65C293.482 413.997 293.059 415.318 292.543 416.604L292.201 417.456C290.478 421.747 288.039 425.714 284.987 429.189L282.275 432.278C281.232 433.466 280.383 434.811 279.76 436.264C278.281 439.712 278.146 443.592 279.382 447.144L280.852 451.369ZM291.632 463.294C292.401 464.37 293.171 465.445 293.912 466.537C294.936 468.045 296.218 470.052 297.747 472.672C301.893 479.57 313.863 481.198 323.195 482.468C324.127 482.595 325.033 482.718 325.902 482.842C332.747 483.823 331.125 492.392 329.478 501.087C329.257 502.254 329.036 503.424 328.834 504.578C328.123 508.654 329.819 512.67 332.902 515.452C333.663 516.138 334.498 516.8 335.336 517.464C338.265 519.786 341.237 522.141 341.241 525.711L341.241 525.953C341.242 528.452 341.244 531.552 342.038 534.786C343.26 539.765 342.264 544.969 341.282 550.099C340.988 551.634 340.696 553.163 340.464 554.677C340.297 555.769 340.154 556.854 340.053 557.875C339.9 559.488 339.483 561.393 339.034 563.447C337.921 568.534 336.608 574.536 338.599 579.276C339.405 581.196 340.521 583.114 341.701 584.872C345.043 589.852 351.529 591.149 357.103 588.97C357.911 588.654 358.688 588.269 359.427 587.816C361.883 586.312 367.991 582.559 373.418 579.125C377.077 576.814 375.824 569.481 373.792 563.002C371.659 556.201 372.949 548.56 378.139 543.697C378.25 543.593 378.357 543.491 378.465 543.383C379.953 541.903 391.602 530.282 401.499 519.348C405.459 514.973 409.75 511.085 413.575 507.618C419.982 501.811 425.081 497.189 425.126 493.455C425.14 492.325 425.347 490.975 425.673 489.529C427.018 483.573 429.223 477.87 431.428 472.164C432.827 468.543 434.227 464.921 435.408 461.233C437.233 455.534 438.992 449.629 439.458 446.698C440.037 443.05 445.562 442.301 451.004 441.563C455.511 440.951 459.962 440.348 461.5 438.111C463.566 435.119 461.499 426.955 459.604 419.473C458.368 414.595 457.207 410.008 457.311 407.331C457.46 403.427 461.579 401.026 465.816 398.557C468.963 396.723 472.175 394.851 473.872 392.298C475.61 389.683 474.198 385.384 471.937 383.187C468.601 379.944 462.929 376.601 454.843 379.077C446.467 381.642 442.308 377.541 434.709 370.047C429.667 365.074 423.109 358.607 412.799 351.603C397.634 341.3 390.153 343.35 386.56 346.804C385.309 348.007 384.229 349.409 383.149 350.81C381.64 352.769 380.131 354.727 378.16 356.138L376.45 357.362C372.529 360.169 367.354 360.543 363.048 358.332C360.083 356.809 356.649 356.48 353.482 357.492C348.503 359.083 341.233 361.548 338.891 363.08C336.598 364.579 332.568 365.503 328.616 366.409C326.222 366.958 323.857 367.5 321.925 368.159C320.461 368.652 318.705 369.117 316.727 369.641C311.772 370.954 305.425 372.636 298.79 376.04C294.488 378.246 294.371 383.56 295.485 388.627C297.165 396.272 298.529 404.236 296.4 411.753L296.227 412.365C295.888 413.56 295.65 414.78 295.512 416.014C295.101 419.709 293.783 423.243 291.675 426.303L289.297 429.755L286.022 433.63C282.962 437.25 281.64 442.028 282.403 446.715C282.758 448.895 283.552 450.982 284.739 452.85L288.25 458.379C289.315 460.056 290.474 461.675 291.632 463.294Z" fill="#1E1F21"/>
<path fill-rule="evenodd" clip-rule="evenodd" d="M254.153 397.891C250.334 397.027 247.572 393.871 246.223 390.195C243.293 382.21 234.065 378.557 226.462 382.373L221.098 385.066C219.773 385.73 218.382 386.246 216.976 386.715C214.425 387.566 209.463 389.405 201.463 393.088C194.764 396.172 186.748 393.977 182.842 387.724C181.909 386.23 181.268 384.572 180.718 382.899C179.564 379.387 176.76 372.736 170.587 365.902C167.206 362.165 162.579 360.863 158.109 360.697C157.307 360.668 156.502 360.641 155.694 360.615C147.089 360.333 138.184 360.042 130.894 355.601L130.069 355.098C128.367 354.061 126.812 352.799 125.448 351.347C118.274 343.71 117.565 332.156 122.699 323.015C125.184 318.59 127.405 314.057 128.257 310.723C130.608 301.526 111.16 296.618 91.2204 291.83C83.4772 289.966 77.8662 294.252 73.9 300.186C64.9957 313.51 58.1845 328.824 53.9393 344.276C52.791 348.435 47.587 351.785 42.2582 354.2C34.6109 357.667 27.9856 363.779 26.6935 372.076C26.4158 373.86 26.1682 375.677 25.9841 377.429C25.3849 383.135 22.994 389.075 18.3604 392.459L16.8382 393.57C14.0019 395.641 10.3256 396.175 7.01908 394.996C3.41054 393.71 0.776749 390.577 0.128653 386.8L-0.0466654 385.778C-0.384971 383.807 -0.240762 381.782 0.373624 379.878L12.6732 341.758L22.1399 316.723L30.5666 299.718C35.9607 287.719 43.3959 276.746 52.5412 267.29L70.1586 249.073L102.334 217.58L123.663 194.195L140.919 177.904C148.561 170.688 157.095 164.482 166.313 159.435L176.654 153.774C180.001 151.942 183.592 150.593 187.318 149.769C199.3 147.118 209.428 139.158 214.839 128.14L216.246 125.274C221.065 115.46 229.154 107.631 239.12 103.137L256.95 95.0952L286.889 78.3281L332.434 57.9233L343.711 51.0396C352.82 45.479 363.017 41.9417 373.61 40.6674C382.955 39.5433 392.002 36.6568 400.273 32.1609L403.977 30.1473C410.98 26.3407 418.427 23.4166 426.148 21.4418L436.789 18.72L455.463 13.7917L473.028 9.2076L501.714 3.81791C502.095 3.74621 502.483 3.71323 502.872 3.7195L508.373 3.80829C510.507 3.84273 511.769 6.21194 510.607 8.00386C510.501 8.16763 510.378 8.3195 510.239 8.45684L503.582 15.0516C502.383 16.2397 500.961 17.1786 499.397 17.8141L494.016 20.0015C489.006 22.0379 487.259 28.2527 490.475 32.5986C493.731 36.9984 491.997 43.7376 488.05 47.5331C487.184 48.3657 486.296 49.2972 485.407 50.3362C482.888 53.2801 477.315 52.9985 471.815 51.7374C462.434 49.5864 452.529 48.7555 443.552 52.2332L437.927 55.146C430.513 58.9851 427.083 67.7186 429.902 75.575L431.25 79.3312C433.421 85.3823 430.581 92.0892 424.723 94.741C421.602 96.1537 419.217 98.8003 418.04 102.018C415.941 107.753 412.481 116.553 410.373 118.446C409.326 119.39 408.391 120.589 407.455 121.788C405.548 124.233 403.638 126.68 400.78 126.981C400.292 127.033 399.798 127.081 399.296 127.128C396.903 127.348 394.919 126.204 394.305 123.881C393.535 120.971 392.888 116.869 393.957 113.947C394.377 112.787 394.406 111.272 394.206 109.636C393.223 101.594 386.687 95.6594 379.595 91.749L378.178 90.956C372.591 87.8281 365.915 87.2957 359.9 89.4981C355.052 91.2732 349.735 91.2842 344.881 89.5291L337.525 86.8692C326.665 82.9425 314.522 85.3531 305.979 93.1315L301.378 97.3205C294.896 103.222 292.582 112.435 295.506 120.696C297.83 127.261 296.873 134.543 292.932 140.288L290.348 144.054C289.201 145.725 288.223 147.504 287.427 149.367L286.036 152.621C281.467 163.309 274.178 172.613 264.894 179.605L257.192 185.407L244.432 192.973C242.491 194.124 241.107 196.021 240.604 198.221C239.463 203.203 243.087 208.007 248.188 208.277L248.938 208.317C249.992 208.373 251.048 208.24 252.056 207.924L261.377 205.003C264.134 204.14 267.012 203.728 269.899 203.783L275.337 203.887C282.862 204.031 289.738 199.633 292.765 192.739L299.62 179.107C303.755 171.792 309.396 165.438 316.17 160.467L320.364 157.39C321.45 156.593 322.594 155.877 323.785 155.249L327.514 153.285C334.741 149.477 343.527 150.266 349.957 155.3C357.551 161.246 360.04 171.649 355.96 180.396L353.075 186.58L346.056 200.959C345.049 203.023 343.813 204.968 342.372 206.757L336.411 214.157C333.541 217.721 332.687 222.503 334.146 226.838L334.255 227.162C334.664 228.376 334.865 229.65 334.849 230.931C334.781 236.542 330.637 241.268 325.084 242.067L317.267 243.191C307.917 244.536 300.672 251.387 300.055 260.816C299.575 268.14 296.752 276.645 291.517 281.79L283.96 289.218C281.906 291.237 280.848 294.062 281.072 296.934C281.403 301.19 284.676 304.505 288.159 306.972C290.675 308.755 292.654 311.463 291.281 315.364C288.346 323.765 291.618 329.358 298.782 327.223C298.918 327.183 299.055 327.141 299.194 327.097C308.815 324.065 322.953 330.154 317.707 338.773C315.887 341.763 307.167 342.578 301.457 342.787C298.117 342.909 294.8 343.555 291.752 344.93L286.907 347.115C282.497 349.104 277.356 348.537 273.487 345.635C271.592 344.213 270.112 342.31 269.201 340.122L267.017 334.88C266.075 332.619 265.651 330.184 265.75 327.736C265.758 327.532 265.767 327.322 265.775 327.106C266.186 316.643 256.647 311.162 247.367 316.011L229.171 326.036C221.911 330.035 216.697 336.954 215.041 345.076C214.325 348.584 213.573 352.411 212.924 356.002C211.837 362.017 215.646 367.467 221.466 365.602C222.872 365.151 224.414 364.531 226.085 363.692C228.054 362.703 229.099 360.55 228.903 358.356C228.536 354.257 232.432 351.087 236.369 352.28L242.918 354.265C243.835 354.543 244.786 354.693 245.744 354.711L248.573 354.764C255.62 354.897 262.408 357.44 267.806 361.971L268.054 362.179C269.311 363.235 270.584 364.4 270.919 366.007C271.432 368.472 270.938 372.914 264.648 379.072C255.845 387.702 260.301 390.246 261.569 390.751C261.665 390.79 261.763 390.825 261.861 390.86C261.963 390.897 262.064 390.933 262.163 390.973L263.16 391.373C264.774 392.021 265.717 393.708 265.423 395.423C265.284 396.234 264.876 396.981 264.141 397.348C262.622 398.105 259.423 399.083 254.153 397.891ZM260.374 396.029C258.047 396.606 254.659 396.078 250.637 391.383L248.853 388.936C242.975 380.876 232.586 377.505 223.092 380.576C221.986 380.933 220.911 381.373 219.854 381.857C217.08 383.126 210.606 385.937 200.138 389.626C196.763 390.815 193.009 389.845 190.588 387.212C188.491 384.931 186.751 381.125 185.026 377.353C183.435 373.873 181.857 370.422 180.026 368.228C179.703 367.842 179.356 367.442 178.983 367.029C175.319 362.982 171.455 359.839 168.293 357.596C164.079 354.606 158.739 354.098 153.73 355.374C140.968 358.627 128.253 349.776 126.717 336.694C126.395 333.953 126.591 331.158 127.297 328.489C128.74 323.041 131.297 313.35 132.778 307.567C134.637 300.303 109.297 292.422 102.528 290.456C101.43 290.137 100.364 289.76 99.3182 289.298C89.0464 284.762 76.9906 288.458 71.2305 298.105C64.3996 309.544 56.4273 323.451 55.1516 328.088L55.0952 328.292C53.0185 335.805 50.3893 345.317 43.6933 349.23C38.1719 352.457 32.125 356.316 28.3492 359.701C25.3546 362.386 24.3169 366.485 23.3115 370.456C23.1383 371.14 22.9661 371.82 22.785 372.489L19.7888 383.551C19.0986 386.1 17.1313 388.105 14.5972 388.843C8.10832 390.733 2.58867 383.816 5.86867 377.905L7.51543 374.937C7.7903 374.442 8.01763 373.921 8.19438 373.383L21.245 333.642L23.6658 327.588C28.5348 315.412 34.7381 303.812 42.1622 293.003C49.7802 281.282 58.6567 270.43 68.6333 260.64L83.0019 246.539L110.721 218.107L130.678 196.398L144.951 183.659C154.006 175.577 164.006 168.62 174.732 162.94L182.128 159.024C184.639 157.695 187.256 156.578 189.953 155.687C201.794 151.771 211.783 143.637 218.018 132.832L219.84 129.675C226.488 118.155 236.752 109.151 249.038 104.062L257.037 100.749L285.766 84.1075L326.287 66.4477L336.91 60.3033C347.228 54.3355 358.538 50.2785 370.294 48.3272C379.421 46.8124 388.291 44.0262 396.646 40.05L401.937 37.5322C413.054 32.0297 424.553 27.3351 436.343 23.4847L436.818 23.3296L455.979 19.0476L485.981 11.8902L502.654 7.92786C504.846 7.40686 506.453 9.95719 505.039 11.7119C504.77 12.0456 504.415 12.2999 504.013 12.4477L497.24 14.9377C490.218 17.519 486.018 24.7259 487.233 32.1074L487.915 36.2481C487.998 36.7516 488.236 37.2167 488.596 37.5787C490.292 39.2866 488.815 44.3121 486.931 45.8123C486.057 46.5083 485.14 47.3813 484.204 48.475C481.012 52.2016 471.97 50.7727 465.298 49.0526C460.166 47.7296 454.795 47.2531 449.611 48.3604L444.062 49.5457C432.552 52.0044 425.035 63.1202 427.04 74.7191L428.315 82.0911C428.81 84.954 427.794 87.8705 425.628 89.8076C420.964 94.7019 417.129 100.315 414.072 106.345C410.912 112.577 406.978 119.952 405.356 121.407C402.888 123.633 401.402 124.253 401.026 124.385C401.011 124.39 400.99 124.397 400.965 124.404C400.888 124.426 400.778 124.452 400.728 124.463C398.059 125.069 395.831 122.351 395.939 119.616C395.97 118.852 396.138 117.957 396.519 116.916C397.27 114.84 397.466 112.319 397.459 110.213C397.45 107.344 396.533 104.585 395.272 102.008C392.22 95.7683 386.945 90.897 380.483 88.351L379.77 88.07C374.633 86.046 369.035 85.4894 363.598 86.4622L360.645 86.9908C354.837 88.0302 348.872 87.7845 343.17 86.271L333.661 83.7468C321.476 80.5125 308.5 84.306 299.969 93.5964L298.571 95.1188C292.264 101.987 289.537 111.412 291.201 120.585C292.297 126.621 291.501 132.849 288.923 138.417L283.632 149.846C277.706 161.493 269.325 171.716 259.067 179.81L255.191 182.868L243.119 190.934C239.175 193.569 237.426 198.478 238.814 203.012C240.134 207.323 244.007 210.348 248.508 210.585L249.793 210.653C251.288 210.732 252.785 210.543 254.214 210.095L260.207 208.218C263.867 207.071 267.689 206.524 271.524 206.596L278.398 206.726C283.268 206.819 287.983 205.005 291.538 201.673C293.465 199.866 294.987 197.672 296.005 195.235L300.053 185.545C303.524 178.624 308.454 172.538 314.504 167.707L321.358 162.235L323.756 160.011C331.324 152.993 343.217 153.718 349.869 161.603C354.367 166.934 355.397 174.378 352.516 180.734L347.913 190.892L338.537 206.776L331.473 217.324C329.761 219.879 329.515 223.145 330.824 225.927C331.881 228.172 331.935 230.761 330.973 233.05L330.682 233.742C329.319 236.983 326.418 239.322 322.963 239.965L312.98 241.822C304.245 243.447 297.504 249.818 296.592 258.658C295.913 265.243 293.668 272.767 289.412 277.838L279.605 289.523C275.312 295.917 279.456 304.167 285.821 308.495C288.211 310.12 289.655 312.117 288.818 314.491C286.141 322.144 290.642 332.551 297.173 330.605C304.447 328.465 319.117 330.226 315.172 336.703C313.254 339.85 299.628 341.32 293.283 341.839C291.193 342.01 289.222 342.883 287.728 344.356C283.451 348.576 276.278 347.22 273.84 341.73L270.968 335.264C270.536 334.29 270.22 333.268 270.028 332.22L268.301 322.798C268.296 322.772 268.294 322.763 268.293 322.755C268.291 322.746 268.29 322.741 268.284 322.705C266.998 315.126 259.707 310.284 252.191 311.892L247.118 312.977C245.974 313.221 244.854 313.57 243.773 314.017L237.728 316.516C225.141 321.721 215.45 332.271 211.943 345.434C211.151 348.409 210.39 351.381 209.747 354.105C208.04 361.33 211.892 368.102 219.312 368.177C224.413 368.229 229.673 366.351 231.372 359.087C231.791 357.298 233.098 355.77 234.904 355.435C235.476 355.329 236.064 355.346 236.629 355.487L244.292 357.393L253.123 358.669C258.968 359.514 264.414 362.13 268.727 366.165C268.752 366.189 268.778 366.213 268.804 366.237C269.088 366.501 269.38 366.772 269.509 367.136C269.912 368.273 269.855 371.383 262.982 378.108C255.83 385.115 256.644 388.677 257.355 389.912C257.504 390.17 257.7 390.397 257.896 390.623C257.985 390.727 258.074 390.83 258.159 390.936L258.799 391.738C259.118 392.138 259.54 392.443 260.019 392.621C261.847 393.302 262.267 395.56 260.374 396.029Z" fill="#1E1F21"/>
<path fill-rule="evenodd" clip-rule="evenodd" d="M658.025 147.65C654.3 147.873 650.776 145.953 648.947 142.705C648.305 141.565 647.899 140.306 647.754 139.005L646.886 131.223C646.622 128.855 646.335 126.428 645.26 124.301C642.92 119.671 639.178 119.82 634.047 120.024C633.668 120.039 633.282 120.055 632.889 120.068C625.733 120.318 619.035 117.342 612.85 113.745L606.527 110.067C605.419 109.423 604.392 108.647 603.469 107.757C597.873 102.364 589.205 101.772 582.917 106.353L576.706 110.878C571.813 114.443 565.8 116.127 559.77 115.623L551.166 114.903C549.298 114.747 547.543 113.944 546.204 112.633C541.86 108.377 543.631 101.024 549.439 99.1997L555.329 97.3501C557.973 96.5198 560.239 94.783 561.728 92.4463L565.302 86.8379C566.926 84.2887 567.946 81.4027 568.284 78.4006C568.626 75.3544 568.258 72.271 567.206 69.3929L564.863 62.9813C564.005 60.6333 563.836 58.0886 564.376 55.6465C565.775 49.3189 571.58 44.9511 578.049 45.3595L578.968 45.4175C582.624 45.6484 586.048 47.2809 588.526 49.9747L595.092 57.1134C599.815 62.2483 606.465 65.1856 613.448 65.2213L618.043 65.2448C621.474 65.2624 624.784 63.9747 627.302 61.6431C633.656 55.7605 632.917 45.514 625.788 40.616L618.604 35.6808C617.128 34.6668 615.88 33.3562 614.94 31.8328C610.938 25.3499 613.412 16.8254 620.267 13.4788L626.5 10.4353C627.43 9.98133 628.395 9.60325 629.386 9.30477L639.963 6.11805C659.065 0.363056 679.094 -1.71016 698.933 0.311625C715.041 1.95309 732.605 3.90631 737.695 5.0865C740.725 5.78882 746.763 6.9296 754.123 8.31997C771.2 11.5459 795.389 16.1156 805.605 19.6699C816.665 23.5179 834.467 30.4441 842.479 33.5881C845.246 34.674 847.96 35.8655 850.638 37.1562C859.69 41.5195 869.24 44.7693 879.078 46.8342L888.275 48.7648C911.67 53.6755 934 62.7069 954.221 75.4369L958.578 78.1796L1018.93 119.231L1054.97 140.878C1070.82 148.463 1085.74 157.842 1099.44 168.83L1100.8 169.92L1125.81 192.351C1126.48 192.949 1127.13 193.564 1127.76 194.194C1128.69 195.114 1130.21 196.614 1131.93 198.286C1138.41 204.591 1145.06 211.931 1149.93 219.547C1152.82 224.063 1156.68 227.874 1161.23 230.701L1165.53 233.367C1168.03 234.92 1170.41 236.661 1172.65 238.575L1183.59 247.923C1186.14 250.109 1188.41 252.615 1190.32 255.38L1193.77 260.359C1195.22 262.451 1196.13 264.871 1196.4 267.401L1196.64 269.595C1196.83 271.334 1196.47 273.091 1195.62 274.618C1193.59 278.229 1189.24 279.83 1185.36 278.393L1174.98 274.552C1173.74 274.09 1172.44 273.761 1171.13 273.57C1165.77 272.792 1160.33 274.344 1156.18 277.836L1154.48 279.269C1153.8 279.841 1153.19 280.487 1152.65 281.195C1149.35 285.566 1143.49 287.113 1138.47 284.938L1134.85 283.371C1130.96 281.688 1127.85 278.602 1126.14 274.729L1117.79 255.857L1117.61 255.469C1111.99 243.287 1102.84 233.068 1091.36 226.12L1080.3 220.816C1078.8 220.1 1077.17 219.715 1075.51 219.688L1074.18 219.666C1069.47 219.59 1065.35 222.849 1064.35 227.453C1063.57 231.006 1064.81 234.695 1067.58 237.056L1078.25 246.184C1080.23 247.871 1081.86 249.915 1083.08 252.209L1088.29 262.063C1089.12 263.629 1088.9 265.543 1087.74 266.885C1086.8 267.97 1085.39 268.518 1083.96 268.347L1073.53 267.095C1070.84 266.772 1068.11 266.906 1065.46 267.492L1056.98 269.371L1049.84 270.669C1046.7 271.239 1043.78 272.651 1041.38 274.753L1040.42 275.597C1037.57 278.102 1033.85 279.384 1030.06 279.165L1026.83 278.874C1024.41 278.657 1022.02 279.509 1020.28 281.206C1018.92 282.538 1018.06 284.298 1017.84 286.189L1017.6 288.335C1017.37 290.364 1017.57 292.419 1018.2 294.363L1019.53 298.501C1019.55 298.574 1019.57 298.636 1019.6 298.709C1020.05 300.143 1025.32 316.839 1026.91 320.801C1028.59 324.948 1032.01 329.186 1036.04 331.672C1038.07 332.926 1042.75 334.901 1046.89 336.549C1050.51 337.992 1051.63 342.62 1049 345.502L1049 345.503C1049 345.509 1048.99 345.514 1048.99 345.519C1048.82 345.693 1045.97 348.485 1037.61 345.651C1033.81 344.375 1030.82 342.011 1027.74 339.579C1023.8 336.469 1019.72 333.248 1013.64 332.045C1007.82 330.88 1001.96 334.332 996.615 337.484C991.986 340.213 987.739 342.717 984.229 341.803C980.994 340.961 979.001 337.748 977.146 334.757C974.664 330.756 972.429 327.154 967.796 330.161C963.51 332.943 969.799 342.057 976.578 351.883C982.604 360.617 989.018 369.913 988.738 375.824C988.556 379.675 986.367 381.305 983.419 381.714C983.131 381.754 982.842 381.794 982.552 381.834C972.881 383.168 962.308 384.627 957.749 393.189L953.751 400.699C951.8 404.363 947.471 406.063 943.549 404.706C939.476 403.296 937.129 399.044 938.139 394.853C940.354 385.664 944.026 370.848 945.265 368.29C947.103 364.565 945.554 351.002 941.106 338.825C937.864 329.979 933.753 329.637 929.994 329.324C928.589 329.208 927.233 329.095 925.99 328.544C923.202 327.305 923.27 324.255 923.38 319.346C923.449 316.255 923.535 312.428 922.934 307.852C922.035 301.003 916.633 300.494 912.238 301.282C912.002 301.324 911.766 301.367 911.529 301.41C907.799 302.084 904.006 302.769 900.267 302.213C896.193 301.606 892.03 302.255 888.331 304.071L884.631 305.889C880.862 307.74 877.707 310.638 875.546 314.237L873.907 316.965C872.431 319.421 870.166 321.307 867.481 322.313C862.373 324.229 856.615 322.665 853.184 318.432L851.775 316.692C848.617 312.796 847.504 307.63 848.774 302.776L849.035 301.779C850.233 297.203 849.563 292.343 847.171 288.266L837.706 272.134L830.555 259.945C826.774 253.5 821.463 248.086 815.091 244.178C812.811 242.78 810.411 241.585 807.921 240.607L793.685 235.02C788.5 232.985 783.659 230.165 779.332 226.66C776.002 223.962 773.026 220.867 770.261 217.593C765.891 212.419 758.992 204.908 754.707 203.523C737.001 197.801 750.821 236.028 767.672 243.914C774.027 246.888 779.922 249.757 783.626 251.812C795.081 258.166 785.867 265.293 780.842 266.909C777.557 267.975 769.927 269.261 765.078 270.018C762.249 270.46 759.547 271.517 757.197 273.153C752.645 276.322 749.777 281.384 749.401 286.913L749.248 289.169C749.063 291.89 748.395 294.558 747.274 297.046L745.773 300.378C743.378 305.695 739.819 310.408 735.358 314.168C732.542 316.542 729.401 318.495 726.08 320.088C718.314 323.814 703.957 331.184 700.679 336.22C696.186 343.124 695.537 350.976 694.895 358.762C694.2 367.173 693.512 375.508 687.988 382.487C686.049 384.937 684.531 386.918 683.883 387.905C682.514 389.989 682.514 389.989 682.126 390.434C681.739 390.878 680.964 391.766 678.044 395.627C674.071 400.883 665.617 407.849 660.621 411.764C658.032 413.793 655.617 416.033 653.487 418.539L653.206 418.869C645.414 428.037 636.563 433.5 624.538 433.133C615.475 432.857 604.837 428.155 598.827 421.375L595.434 417.547C588.117 406.798 587.841 392.739 594.73 381.696L595.024 381.224C597.236 377.678 598.77 373.751 599.547 369.646L602.697 352.998C604.04 337.807 597.727 323.025 586.329 312.902C578.807 306.221 571.439 299.259 569.57 296.074C566.1 290.16 569.732 283.636 573.448 276.961C575.587 273.12 577.753 269.23 578.61 265.376L579.214 262.662C582.642 247.248 579.087 231.115 569.499 218.58L557.194 202.493L541.182 183.356C536.471 177.726 535.349 169.916 538.284 163.181C541.155 156.589 547.437 152.121 554.606 151.57L566.397 150.663C567.274 150.596 568.15 150.557 569.03 150.577C574.856 150.714 598.568 151.992 610.579 163.668C618.969 171.825 631.658 171.103 644.447 170.375C651.881 169.952 659.349 169.527 666.026 170.842L671.289 171.879L680.712 174.333C685.407 175.555 689.95 171.885 689.74 167.04C689.676 165.549 689.149 164.114 688.233 162.936L684.782 158.495L679.208 152.953C675.242 149.01 669.78 146.947 664.193 147.281L658.025 147.65ZM661.26 145.031C658.154 145.126 655.237 143.552 653.613 140.906C653.06 140.003 652.676 139.006 652.482 137.965L650.221 125.821C648.195 118.188 645.222 118.304 640.073 118.506C637.26 118.616 633.797 118.751 629.483 117.663L620.285 114.809C616.656 113.682 613.309 111.797 610.466 109.277C602.165 101.919 590.177 100.446 580.325 105.572L569.605 111.151C565.069 113.511 559.757 113.879 554.943 112.166L553.435 111.629C553.095 111.508 552.77 111.348 552.467 111.152C549.368 109.147 549.724 104.507 553.093 102.991L561.617 99.1541C563.428 98.3391 564.947 96.9918 565.972 95.2919L569.25 89.8569C570.326 88.0718 571.161 86.152 571.732 84.1478C573.061 79.482 572.915 74.5214 571.315 69.9448L569.158 63.7796C568.698 62.4644 568.54 61.0623 568.696 59.6771L568.784 58.8963C569.39 53.5071 574.754 49.9948 579.937 51.5932C581.183 51.9775 582.325 52.6384 583.279 53.5267L592.779 62.3759C598.979 68.1512 607.289 71.1152 615.752 70.5699L622.313 70.1472C626.595 69.8713 630.575 67.8431 633.315 64.5408C638.242 58.6046 638.085 49.9645 632.946 44.2219L621.197 31.0912C619.93 29.6754 619.188 27.8679 619.093 25.97C618.917 22.4482 620.983 19.1961 624.248 17.8562L636.019 13.0264C637.218 12.5344 638.452 12.1317 639.71 11.8215L649.805 9.33237C667.775 4.90164 686.357 3.44793 704.764 5.32132C719.578 6.82903 735.72 8.62689 740.531 9.74251C742.472 10.1925 745.858 10.9363 750.136 11.8762C766.88 15.5548 797.302 22.2384 808.343 26.0791C813.714 27.9473 820.57 30.8632 826.954 33.7346C839.716 39.474 852.687 44.7699 866.064 48.8818L884.716 53.108C909.385 58.6974 932.898 68.5033 954.218 82.0934L1010.96 118.805L1044.21 140.627L1066.14 153.686L1071.3 156.165C1085.52 163 1098.41 172.308 1109.37 183.655L1112.36 186.753C1113.65 188.089 1115.01 189.352 1116.44 190.538C1116.99 190.999 1117.64 191.53 1118.33 192.105C1126.65 198.963 1134.9 207.199 1141.11 216.012C1142.44 217.899 1143.91 219.681 1145.51 221.345L1148.54 224.503C1153.29 229.444 1158.52 233.899 1164.15 237.804L1167.86 240.378C1173.12 244.022 1178 248.192 1182.41 252.822L1187.56 258.225C1188.42 259.131 1189.2 260.12 1189.87 261.178L1193.02 266.171C1194.16 267.966 1194.41 270.185 1193.69 272.187C1192.42 275.729 1188.55 277.611 1184.99 276.421L1174.4 272.889C1170.1 271.454 1165.41 271.667 1161.26 273.486L1159.41 274.294C1157.19 275.265 1155.28 276.82 1153.87 278.792L1153.75 278.961C1150.88 282.98 1145.99 285.042 1141.12 284.291C1137.4 283.718 1134.11 281.569 1132.09 278.395L1130.44 275.792C1129.68 274.598 1129.05 273.326 1128.56 271.998L1122.94 256.682C1120.63 250.398 1117.07 244.648 1112.48 239.776C1110.15 237.306 1107.58 235.082 1104.8 233.137L1087.92 221.344C1086.06 220.044 1083.97 219.109 1081.76 218.591L1080.26 218.239C1074.5 216.888 1068.48 218.941 1064.74 223.526C1060.89 228.373 1061.41 235.36 1065.93 239.575L1077.92 250.743C1078.36 251.151 1078.75 251.608 1079.08 252.106L1084.28 259.91C1086.09 262.624 1083.76 266.185 1080.54 265.614C1080.35 265.579 1080.15 265.561 1079.96 265.557L1071.22 265.411C1064.96 265.306 1058.7 265.887 1052.57 267.142L1046.27 269.094C1044.03 269.787 1041.97 270.977 1040.26 272.573L1039.74 273.055C1036.74 275.844 1032.68 277.187 1028.61 276.733L1028.25 276.692C1026.99 276.551 1025.72 276.615 1024.48 276.879L1023.93 276.998C1022 277.41 1020.23 278.39 1018.86 279.811C1018.23 280.464 1017.7 281.199 1017.27 281.997L1016.81 282.842C1015.59 285.12 1014.9 287.667 1014.81 290.25C1014.73 292.624 1015.15 295.004 1016.03 297.207C1017.58 301.053 1020.05 307.175 1021.09 309.771C1021.47 310.698 1021.98 312.221 1022.58 314.037C1024.54 319.917 1027.53 328.875 1030.45 330.675C1032.79 332.118 1035.71 334.37 1037.61 335.898C1038.96 336.972 1040.45 337.839 1042.07 338.42C1047.72 340.445 1049.94 347.446 1044.17 345.797C1044.04 345.758 1043.9 345.717 1043.76 345.673C1043.64 345.636 1043.53 345.598 1043.41 345.557C1039.91 344.382 1035.83 341.74 1031.51 338.939C1025.7 335.174 1019.45 331.122 1013.56 329.956C1008.03 328.85 1002.61 332.284 997.651 335.417C993.37 338.124 989.443 340.608 986.118 339.742C983.564 339.077 982.033 336.718 980.45 334.279C977.589 329.87 974.556 325.198 964.996 329.789C961.818 331.614 967.188 340.244 973.169 349.855C978.962 359.165 985.328 369.395 985.052 375.253C984.876 378.977 982.942 380.677 980.368 381.255C979.096 381.54 977.795 381.799 976.488 382.059C969.297 383.491 961.923 384.96 958.165 391.068L952.422 400.406C950.805 403.034 947.368 403.862 944.736 402.258C942.674 401.001 941.651 398.576 942.211 396.227C944.065 388.463 948.155 371.663 949.473 368.942C951.216 365.412 948.46 348.941 944.241 337.4C941.115 328.878 936.342 328.256 932.316 327.731C930.901 327.547 929.578 327.374 928.451 326.875C925.983 325.778 926.265 322.658 926.679 318.082C926.988 314.67 927.37 310.449 926.74 305.656C925.71 297.827 916.125 297.531 910.423 298.068C910.015 298.106 909.607 298.146 909.199 298.186C906.784 298.421 904.368 298.657 901.944 298.613C892.69 298.447 883.73 301.88 876.953 308.187L875.751 309.306L867.967 317.863C867.373 318.516 866.67 319.062 865.891 319.476C861.738 321.684 856.596 319.673 855.052 315.236L853.917 311.976C853.396 310.477 853.217 308.879 853.394 307.301L853.75 304.137C854.274 299.481 853.464 294.78 851.39 290.581C847.614 282.938 841.551 270.775 839.505 267.29C837.675 264.173 832.917 257.352 829.372 252.351C826.578 248.409 823.062 245.039 819.037 242.366C816.058 240.388 812.829 238.815 809.435 237.688L804.167 235.939C793.646 232.447 784.402 225.913 777.603 217.165C772.682 210.833 766.511 205.506 759.169 202.271C756.93 201.285 754.7 200.379 752.865 199.786C729.439 192.216 749.46 243.223 772.81 251.022C776.21 252.158 779.037 253.275 780.923 254.321C791.785 260.344 784.39 264.327 779.626 265.858C776.485 266.876 771.275 267.131 768.116 267.187C766.33 267.219 764.548 267.391 762.804 267.783C754.817 269.58 748.479 275.652 746.345 283.552L744.349 290.942C743.707 293.32 742.813 295.623 741.683 297.813L740.415 300.269C738.413 304.147 735.863 307.718 732.844 310.871C728.842 315.05 724.066 318.391 718.926 321.051C711.994 324.638 702.596 330.022 699.967 334.061C696.229 339.802 693.704 345.562 693.269 352.395C692.736 360.742 691.767 371.511 690.224 373.86C689.314 375.244 688.853 376.097 688.399 376.936C687.557 378.491 686.742 379.997 683.146 384.752C677.785 391.84 668.993 400.64 668.446 401.187L668.392 401.241L653.835 415.74C646.169 423.375 636.342 428.853 625.531 429.204C624.621 429.234 623.72 429.247 622.84 429.241C618.783 429.212 614.958 427.691 611.458 425.645L608.366 423.839C601.137 419.614 596.123 412.436 594.644 404.196C593.585 398.299 594.405 392.217 596.986 386.805L601.685 376.955C605.56 368.832 607.637 359.971 607.775 350.976L607.843 346.55C607.153 335.974 602.391 326.103 594.791 318.718C587.605 311.737 579.466 303.472 577.383 299.924C572.44 291.505 576.251 281.848 580.161 271.941C583.172 264.308 586.243 256.527 585.414 249.05C584.289 238.903 580.666 229.053 574.893 220.635L561.562 201.196L545.606 182.548C540.766 176.891 540.671 168.58 545.38 162.804C547.996 159.597 551.79 157.573 555.911 157.189L574.835 155.424C578.813 155.053 582.834 155.031 586.696 156.05C592.794 157.661 602.57 161.318 610.799 169.313C615.709 174.084 621.936 175.658 627.793 175.766C632.22 175.848 636.686 175.562 641.152 175.277C649.073 174.77 656.994 174.264 664.693 175.807L681.414 179.159C684.173 179.712 687.04 179.285 689.52 177.952L689.898 177.75C692.391 176.41 694.273 174.163 695.156 171.476C696.383 167.74 695.525 163.637 692.905 160.708L692.577 160.341L682.998 150.764C679.039 146.804 673.617 144.656 668.015 144.826L661.26 145.031Z" fill="#1E1F21"/>
<path fill-rule="evenodd" clip-rule="evenodd" d="M1077.93 329.789C1079.16 330.254 1080.36 330.808 1081.51 331.446C1087.34 334.669 1091.79 339.913 1094.02 346.188L1096.16 352.21C1098.59 359.037 1102.67 365.163 1108.02 370.047L1114.22 375.708C1117.18 378.404 1119.77 381.475 1121.93 384.844C1126.73 392.339 1133.61 398.274 1141.72 401.921L1146.08 403.885C1151.94 406.518 1157.35 410.048 1162.13 414.348L1171.72 422.991C1174.47 425.467 1177.88 427.09 1181.53 427.662L1184.57 428.139C1187.67 428.626 1190.84 427.842 1193.35 425.964C1199.86 421.098 1199.56 410.804 1195.05 404.006C1194.66 403.41 1194.28 402.795 1193.91 402.16C1190.8 396.814 1187.54 390.279 1185.49 386.047C1184.11 383.194 1181.97 380.772 1179.28 379.105C1173.86 375.751 1166.92 376.172 1160.67 377.282C1155.98 378.113 1150.06 377.887 1143.91 374.364C1137.48 370.676 1134.76 362.894 1133.69 355.646C1132.26 345.96 1128.43 336.255 1120.47 330.564C1119.15 329.627 1117.76 328.81 1116.3 328.124L1104.35 322.507C1101.18 321.02 1098.43 318.771 1096.35 315.961L1091.79 309.829C1089.76 307.095 1086.36 305.754 1083.02 306.374L1065 307.743L1062.35 307.948C1058.97 308.209 1056.15 310.616 1055.35 313.914C1054.42 317.769 1056.52 321.719 1060.23 323.118L1077.93 329.789ZM1076.96 326.616C1078.86 327.258 1080.66 328.14 1082.33 329.241L1086.15 331.754C1092.37 335.849 1096.65 342.321 1097.97 349.652C1099 355.348 1101.81 360.571 1106.01 364.557L1113.71 371.869C1115.91 373.951 1117.94 376.197 1119.79 378.588L1122.7 382.337C1125.18 385.542 1127.97 388.501 1131.02 391.171L1131.31 391.428C1136.2 395.707 1141.74 399.173 1147.72 401.693L1151.95 403.474C1155.74 405.071 1159.21 407.325 1162.22 410.134L1175.47 422.504C1179.62 426.389 1185.91 426.878 1190.6 423.683C1194.87 420.771 1196.86 415.441 1194.92 410.625C1193.84 407.927 1192.47 404.897 1190.82 402.083C1187.77 396.876 1184.03 390.565 1181.99 387.119C1180.99 385.433 1179.68 383.951 1178.13 382.75L1177.9 382.569C1173.39 379.075 1166.69 379.462 1159.97 379.851C1153.86 380.204 1147.72 380.559 1143.22 377.986C1136.86 374.355 1133.01 364.08 1130.79 355.144C1128.46 345.749 1123.42 336.984 1115.36 331.636L1099.93 323.837C1097.35 322.533 1095.17 320.543 1093.64 318.086L1090.54 313.11C1088.99 310.61 1086.06 309.314 1083.17 309.843L1067.36 311.013L1064.62 311.219C1061.97 311.419 1059.85 313.475 1059.56 316.117C1059.27 318.704 1060.83 321.146 1063.29 321.981L1076.96 326.616Z" fill="#1E1F21"/>
<path fill-rule="evenodd" clip-rule="evenodd" d="M843.932 468.759C847.388 466.918 850.893 465.051 854.688 464.342L873.995 460.736C888.916 456.051 905.002 456.722 919.477 462.632L919.833 462.777C926.094 465.334 931.94 468.808 937.178 473.086L947.066 481.162C947.476 481.497 947.881 481.83 948.269 482.19C950.117 483.904 955.907 489.754 959.621 498.904C960.128 500.153 960.565 501.263 960.955 502.251C963.999 509.97 964.113 510.26 971.482 511.422C979.795 512.733 984.028 516.408 979.395 520.886C974.763 525.365 974.532 536.184 977.926 543.067C979.362 545.979 982.947 547.18 986.437 548.348C990.357 549.66 994.157 550.932 994.653 554.547L994.697 554.87C994.805 555.654 994.78 556.445 994.726 557.234C994.413 561.776 996.152 567.488 997.655 572.427C999.019 576.911 1000.19 580.759 999.457 582.516C997.844 586.379 983.983 596.059 973.947 596.428C967.841 596.652 957.355 590.354 947.753 584.586C946.193 583.649 944.656 582.726 943.165 581.847C936.065 577.662 929.621 571.828 926.631 564.15C925.662 561.661 924.724 559.063 923.996 556.663C922.911 553.083 920.915 549.72 917.838 547.592C913.64 544.69 912.078 539.361 910.58 534.251C910.207 532.978 909.838 531.719 909.433 530.514C909.305 530.134 909.156 529.753 908.984 529.374C907.071 525.193 897.298 530.482 890.002 534.432C887.11 535.997 884.608 537.351 883.138 537.823C881.532 538.337 878.109 538.068 873.955 537.402C858.206 534.877 848.129 519.869 846.26 504.033C845.196 495.012 840.905 493.324 835.117 492.324C829.539 491.361 826.3 486.07 827.731 480.594C828.731 476.768 831.807 473.861 835.541 472.559C837.31 471.942 839.26 471.167 841.102 470.239C842.045 469.763 842.986 469.262 843.932 468.759ZM849.85 471.772C853.123 470.041 856.411 468.302 859.938 467.389L876.469 463.11L877.347 462.91C891.218 459.751 905.732 461.075 918.799 466.69C925.034 469.369 930.826 472.977 935.978 477.392L943.147 483.534C943.453 483.797 943.761 484.057 944.069 484.317C945.246 485.314 946.423 486.31 947.506 487.409C949.9 489.839 953.8 494.485 956.536 501.193C960.593 511.142 960.852 511.183 967.871 512.28C968.132 512.321 968.402 512.363 968.681 512.407C976.497 513.642 980.479 517.09 976.128 521.283C971.776 525.477 972.986 539.281 976.183 545.734C976.735 546.85 977.441 547.567 978.23 547.99C979.477 548.658 980.932 549.174 982.389 549.69C985.833 550.911 989.291 552.137 990.045 555.395C990.231 556.201 990.242 557.033 990.193 557.859C989.945 562.092 991.551 567.386 992.942 571.972C994.22 576.185 995.317 579.8 994.629 581.446C993.115 585.066 980.501 591.742 971.066 592.079C965.457 592.28 956.447 586.362 948.022 580.828C946.267 579.676 944.537 578.54 942.869 577.479C936.81 573.627 931.454 568.139 929.497 561.232C929.069 559.721 928.648 558.166 928.267 556.647C927.139 552.149 924.361 548.099 920.26 545.932C914.177 542.717 912.184 535.315 910.625 528.614C910.464 527.92 910.245 527.247 909.955 526.612C908.04 522.445 896.457 527.682 888.888 531.105C886.516 532.177 884.539 533.071 883.377 533.442C865.264 539.216 850.883 518.353 848.655 499.482C848.627 499.242 848.598 499.003 848.57 498.767C847.544 490.156 843.297 489.49 837.649 489.092C833.035 488.767 831.006 483.926 833.484 480.02C834.483 478.445 836.069 477.342 837.861 476.824C839.773 476.272 842.408 475.41 844.954 474.244C846.6 473.49 848.223 472.632 849.85 471.772Z" fill="#1E1F21"/>
<path fill-rule="evenodd" clip-rule="evenodd" d="M736.244 369.665C737.555 361.899 743.339 355.126 750.979 353.277C751.895 353.055 752.829 352.814 753.768 352.572C758.135 351.447 762.606 350.296 765.93 350.865C771.422 351.772 767.797 356.971 763.523 363.103C760.22 367.841 756.529 373.135 756.355 377.437C756.217 380.835 756.16 384.088 756.288 386.342C756.362 387.65 756.062 388.852 755.521 389.943C751.918 397.211 744.784 404.524 736.735 405.492C730.216 406.276 732.08 394.753 733.504 388.333C734.625 383.279 735.736 377.558 735.764 374.625C735.78 372.957 735.967 371.305 736.244 369.665ZM738.005 369.933C738.589 363.467 743.112 357.821 749.407 356.291C750.162 356.107 750.931 355.908 751.704 355.708C755.301 354.778 758.984 353.826 761.722 354.295C766.253 355.042 763.263 359.334 759.736 364.395C757.013 368.303 753.971 372.67 753.825 376.217C753.71 379.023 753.662 381.71 753.766 383.571C753.827 384.649 753.579 385.641 753.133 386.541C750.166 392.536 744.291 398.576 737.654 399.379C733.045 399.937 734.63 392.456 735.748 387.176C735.889 386.51 736.023 385.879 736.136 385.304C736.949 381.159 737.767 376.406 737.792 373.952C737.806 372.603 737.885 371.264 738.005 369.933Z" fill="#1E1F21"/>
<path fill-rule="evenodd" clip-rule="evenodd" d="M979.449 436.591C979.486 437.346 979.599 438.208 979.807 438.938C984.478 455.342 1018.34 483.321 1035.09 483.65C1036.49 483.677 1037.48 483.563 1037.88 483.407C1040.2 482.494 1043.43 467.945 1041.2 462.246C1039.28 457.348 1034.8 454.376 1030.48 451.507C1025.31 448.075 1020.36 444.791 1020.3 438.536C1020.26 434.571 1020.68 430.377 1021.06 426.63C1021.65 420.81 1022.13 416.066 1020.6 414.927C1018.05 413.046 1014.91 416.99 1011.76 420.935C1009.69 423.516 1007.63 426.098 1005.74 427.048C1002.68 428.587 998.194 426.602 993.428 424.492C990.759 423.31 988 422.089 985.354 421.426C979.102 419.884 979.257 432.659 979.449 436.591ZM985.002 438.757C985.032 439.383 985.124 440.104 985.294 440.71C989.128 454.397 1017.15 477.79 1031.11 478.036C1032.27 478.056 1033.1 477.958 1033.43 477.826C1035.36 477.057 1038.07 464.868 1036.23 460.101C1034.64 455.985 1030.87 453.518 1027.22 451.126C1022.93 448.315 1018.8 445.609 1018.55 440.457C1018.39 437.072 1018.63 433.477 1018.84 430.275C1019.16 425.426 1019.42 421.478 1018.15 420.531C1016.09 418.999 1013.91 422.112 1011.66 425.338C1010.09 427.579 1008.48 429.874 1006.85 430.702C1004.3 431.997 1000.58 430.344 996.631 428.588C994.417 427.603 992.129 426.587 989.933 426.038C984.74 424.758 984.85 435.476 985.002 438.757Z" fill="#1E1F21"/>
<path fill-rule="evenodd" clip-rule="evenodd" d="M1039.34 378.774C1038.39 377.872 1037.12 377.393 1035.81 377.446C1032.18 377.592 1029.96 381.52 1031.75 384.658L1035.64 391.512C1036.42 392.897 1036.85 394.458 1036.88 396.054L1036.93 399.417C1037.09 408.717 1043.97 416.49 1053.21 417.807L1069.51 420.146C1075.04 420.94 1079.94 416.442 1079.59 410.884C1079.5 409.435 1079.78 407.983 1080.39 406.661L1081.22 404.86C1083.82 399.256 1083.1 392.704 1079.34 387.85L1073.28 380.022C1069.17 374.728 1061.16 374.65 1056.87 379.863C1052.98 384.594 1045.89 385.045 1041.5 380.841L1039.34 378.774ZM1039.33 382.153C1038.78 381.732 1038.1 381.498 1037.4 381.485C1034.82 381.439 1033.17 384.225 1034.47 386.433L1038.49 393.279C1039.15 394.397 1039.51 395.663 1039.54 396.961L1039.6 399.565C1039.8 407.748 1045.87 414.564 1053.99 415.748L1068.56 417.884C1073.25 418.573 1077.41 414.733 1077.07 410.017C1076.98 408.762 1077.22 407.503 1077.76 406.359L1078.47 404.836C1080.7 400.088 1080.06 394.515 1076.81 390.438L1071.56 383.857C1067.79 379.121 1060.57 379.061 1056.64 383.733C1053.31 387.687 1047.47 388.353 1043.39 385.244L1039.33 382.153Z" fill="#1E1F21"/>
<path fill-rule="evenodd" clip-rule="evenodd" d="M119.5 247C119.5 247 157 222.182 157 193.227C157 183.354 153.049 173.885 146.017 166.904C138.984 159.922 129.446 156 119.5 156C109.554 156 100.016 159.922 92.9835 166.904C85.9509 173.885 82 183.354 82 193.227C82 222.182 119.5 247 119.5 247ZM131.219 193.227C131.219 200.081 125.71 205.637 118.914 205.637C112.118 205.637 106.609 200.081 106.609 193.227C106.609 186.374 112.118 180.818 118.914 180.818C125.71 180.818 131.219 186.374 131.219 193.227Z" fill="#12E2B0"/>
<path fill-rule="evenodd" clip-rule="evenodd" d="M391.5 414C391.5 414 429 389.182 429 360.227C429 350.354 425.049 340.885 418.017 333.904C410.984 326.922 401.446 323 391.5 323C381.554 323 372.016 326.922 364.983 333.904C357.951 340.885 354 350.354 354 360.227C354 389.182 391.5 414 391.5 414ZM403.219 360.227C403.219 367.081 397.71 372.637 390.914 372.637C384.118 372.637 378.609 367.081 378.609 360.227C378.609 353.374 384.118 347.818 390.914 347.818C397.71 347.818 403.219 353.374 403.219 360.227Z" fill="#12E2B0"/>
<path fill-rule="evenodd" clip-rule="evenodd" d="M657.5 299C657.5 299 695 274.182 695 245.227C695 235.354 691.049 225.885 684.017 218.904C676.984 211.922 667.446 208 657.5 208C647.554 208 638.016 211.922 630.983 218.904C623.951 225.885 620 235.354 620 245.227C620 274.182 657.5 299 657.5 299ZM669.219 245.227C669.219 252.081 663.71 257.637 656.914 257.637C650.118 257.637 644.609 252.081 644.609 245.227C644.609 238.374 650.118 232.818 656.914 232.818C663.71 232.818 669.219 238.374 669.219 245.227Z" fill="#12E2B0"/>
<path fill-rule="evenodd" clip-rule="evenodd" d="M876.5 292C876.5 292 914 267.182 914 238.227C914 228.354 910.049 218.885 903.017 211.904C895.984 204.922 886.446 201 876.5 201C866.554 201 857.016 204.922 849.983 211.904C842.951 218.885 839 228.354 839 238.227C839 267.182 876.5 292 876.5 292ZM888.219 238.227C888.219 245.081 882.71 250.637 875.914 250.637C869.118 250.637 863.609 245.081 863.609 238.227C863.609 231.374 869.118 225.818 875.914 225.818C882.71 225.818 888.219 231.374 888.219 238.227Z" fill="#12E2B0"/>
<path fill-rule="evenodd" clip-rule="evenodd" d="M876.5 497C876.5 497 914 472.182 914 443.227C914 433.354 910.049 423.885 903.017 416.904C895.984 409.922 886.446 406 876.5 406C866.554 406 857.016 409.922 849.983 416.904C842.951 423.885 839 433.354 839 443.227C839 472.182 876.5 497 876.5 497ZM888.219 443.227C888.219 450.081 882.71 455.637 875.914 455.637C869.118 455.637 863.609 450.081 863.609 443.227C863.609 436.374 869.118 430.818 875.914 430.818C882.71 430.818 888.219 436.374 888.219 443.227Z" fill="#12E2B0"/>
</g>
<defs>
<clipPath id="clip0_4137_30527">
<rect width="1200" height="598" fill="white"/>
</clipPath>
</defs>
</svg>
