<svg width="284" height="296" viewBox="0 0 284 296" fill="none" xmlns="http://www.w3.org/2000/svg">
<path d="M64.3757 133.469L64.0462 133.625L64.178 133.904L64.4746 133.82L64.3757 133.469ZM61.3254 127.026L61.2061 126.681L60.8217 126.814L60.9958 127.182L61.3254 127.026ZM65.0397 122.711L64.6776 122.756L64.6789 122.765L65.0397 122.711ZM49.784 110.296L49.4913 110.079L49.2738 110.371L49.5665 110.589L49.784 110.296ZM54.7055 103.672L54.923 103.38L54.6303 103.162L54.4128 103.455L54.7055 103.672ZM73.2498 120.977L73.613 120.943L73.6127 120.94L73.2498 120.977ZM70.3848 128.469C68.5337 130.96 66.4951 132.493 64.2769 133.118L64.4746 133.82C66.8904 133.14 69.053 131.484 70.9702 128.904L70.3848 128.469ZM64.7053 133.313L61.6549 126.87L60.9958 127.182L64.0462 133.625L64.7053 133.313ZM61.4446 127.37C62.8656 126.879 63.9604 126.146 64.6967 125.155L64.1114 124.719C63.4833 125.565 62.5257 126.224 61.2061 126.681L61.4446 127.37ZM64.6967 125.155C65.28 124.37 65.5292 123.532 65.4005 122.658L64.6789 122.765C64.7747 123.415 64.6001 124.062 64.1114 124.719L64.6967 125.155ZM65.4017 122.667C65.2911 121.764 64.7931 121.004 63.966 120.389L63.5309 120.975C64.2335 121.497 64.5964 122.091 64.6778 122.756L65.4017 122.667ZM63.966 120.389L50.0015 110.004L49.5665 110.589L63.5309 120.975L63.966 120.389ZM50.0767 110.514L54.9981 103.89L54.4128 103.455L49.4913 110.079L50.0767 110.514ZM54.4879 103.965L68.5507 114.424L68.9858 113.838L54.923 103.38L54.4879 103.965ZM68.5507 114.424C71.2292 116.416 72.6445 118.615 72.887 121.014L73.6127 120.94C73.3431 118.275 71.7706 115.909 68.9858 113.838L68.5507 114.424ZM72.8867 121.011C73.1104 123.413 72.2964 125.896 70.3848 128.469L70.9702 128.904C72.9568 126.23 73.8577 123.573 73.6129 120.943L72.8867 121.011Z" fill="#1E1F21"/>
<path d="M97.0627 99.4225L97.4209 99.4899L97.4209 99.4897L97.0627 99.4225ZM79.9953 112.139L79.9548 112.502L79.9584 112.502L79.9953 112.139ZM67.8892 95.8395L68.2474 95.9069L68.2474 95.9067L67.8892 95.8395ZM84.9566 83.1229L84.9162 83.4857L84.9198 83.4861L84.9566 83.1229ZM81.5787 104.336L81.5101 104.695L81.5141 104.696L81.5787 104.336ZM89.1461 98.6982L88.7839 98.6569L88.7835 98.661L89.1461 98.6982ZM83.3488 90.8928L83.2801 91.2513L83.2842 91.252L83.3488 90.8928ZM75.7815 96.531L75.4193 96.4898L75.4189 96.4938L75.7815 96.531ZM96.7045 99.3552C96.0109 103.047 94.0078 106.134 90.6663 108.624L91.1012 109.21C94.5735 106.623 96.6898 103.381 97.4209 99.4899L96.7045 99.3552ZM90.6663 108.624C87.3247 111.114 83.7846 112.156 80.0321 111.776L79.9584 112.502C83.9101 112.903 87.6289 111.797 91.1012 109.21L90.6663 108.624ZM80.0357 111.776C76.2972 111.36 73.2283 109.542 70.8156 106.293L70.2306 106.729C72.7546 110.128 76.0004 112.061 79.9548 112.502L80.0357 111.776ZM70.8156 106.293C68.403 103.045 67.5554 99.59 68.2474 95.9069L67.531 95.7722C66.7983 99.6716 67.7067 103.331 70.2306 106.729L70.8156 106.293ZM68.2474 95.9067C68.9469 92.1762 70.9534 89.0697 74.294 86.5806L73.8591 85.995C70.3859 88.5828 68.2675 91.8441 67.531 95.7723L68.2474 95.9067ZM74.294 86.5806C77.6347 84.0915 81.1707 83.0684 84.9162 83.4857L84.9971 82.7601C81.0497 82.3204 77.3322 83.4072 73.8591 85.995L74.294 86.5806ZM84.9198 83.4861C88.6624 83.8654 91.7327 85.664 94.1447 88.9114L94.7296 88.4755C92.205 85.0763 88.9549 83.1612 84.9935 82.7597L84.9198 83.4861ZM94.1447 88.9114C96.5566 92.1589 97.4023 95.6329 96.7045 99.3553L97.4209 99.4897C98.1589 95.5534 97.2543 91.8747 94.7296 88.4755L94.1447 88.9114ZM81.5141 104.696C83.3839 105.032 85.1412 104.582 86.7655 103.372L86.3305 102.787C84.8536 103.887 83.298 104.275 81.6434 103.977L81.5141 104.696ZM86.7655 103.372C88.3898 102.162 89.3157 100.613 89.5086 98.7354L88.7835 98.661C88.6135 100.315 87.8074 101.686 86.3305 102.787L86.7655 103.372ZM89.5082 98.7395C89.7229 96.858 89.2175 95.0995 88.0141 93.4792L87.4291 93.9151C88.5316 95.3994 88.9758 96.975 88.7839 98.6569L89.5082 98.7395ZM88.0141 93.4792C86.8106 91.8589 85.2744 90.8685 83.4134 90.5335L83.2842 91.252C84.9477 91.5515 86.3266 92.4307 87.4291 93.9151L88.0141 93.4792ZM83.4174 90.5343C81.567 90.1797 79.8191 90.6224 78.1948 91.8327L78.6298 92.4183C80.1067 91.3179 81.6498 90.9389 83.2801 91.2513L83.4174 90.5343ZM78.1948 91.8327C76.5705 93.0429 75.6351 94.5993 75.4193 96.4898L76.1436 96.5723C76.3345 94.8994 77.1529 93.5187 78.6298 92.4183L78.1948 91.8327ZM75.4189 96.4938C75.2272 98.3587 75.7442 100.107 76.9462 101.726L77.5312 101.29C76.4273 99.8035 75.9728 98.2343 76.144 96.5683L75.4189 96.4938ZM76.9462 101.726C78.1483 103.344 79.6717 104.343 81.5101 104.695L81.6474 103.978C80.005 103.663 78.6351 102.776 77.5312 101.29L76.9462 101.726Z" fill="#1E1F21"/>
<path d="M113.286 96.8538L113.424 97.1914L113.762 97.0527L113.624 96.7151L113.286 96.8538ZM105.654 99.9921L105.317 100.131L105.455 100.468L105.792 100.33L105.654 99.9921ZM95.3425 74.7702L95.2045 74.4325L94.8672 74.5713L95.0052 74.9089L95.3425 74.7702ZM102.975 71.6319L103.312 71.4931L103.174 71.1555L102.837 71.2942L102.975 71.6319ZM113.148 96.5162L105.516 99.6545L105.792 100.33L113.424 97.1914L113.148 96.5162ZM105.992 99.8534L95.6799 74.6315L95.0052 74.9089L105.317 100.131L105.992 99.8534ZM95.4806 75.1078L103.113 71.9695L102.837 71.2942L95.2045 74.4325L95.4806 75.1078ZM102.637 71.7706L112.949 96.9925L113.624 96.7151L103.312 71.4931L102.637 71.7706Z" fill="#1E1F21"/>
<path d="M144.393 91.0411L144.444 91.4022L144.805 91.3503L144.754 90.9892L144.393 91.0411ZM136.548 92.1689L136.287 92.4234L136.416 92.5565L136.6 92.5301L136.548 92.1689ZM124.664 79.9276L124.926 79.6731L124.145 78.8696L124.303 79.9795L124.664 79.9276ZM126.601 93.599L126.652 93.9602L127.013 93.9083L126.962 93.5471L126.601 93.599ZM118.433 94.7734L118.072 94.8253L118.123 95.1864L118.484 95.1345L118.433 94.7734ZM114.61 67.7945L114.559 67.4333L114.198 67.4852L114.249 67.8464L114.61 67.7945ZM123.021 66.5852L123.282 66.3297L123.152 66.1978L122.97 66.2241L123.021 66.5852ZM134.213 78.0181L133.952 78.2737L134.73 79.0684L134.574 77.9662L134.213 78.0181ZM132.402 65.2365L132.351 64.8754L131.99 64.9273L132.041 65.2884L132.402 65.2365ZM140.57 64.0622L140.931 64.0103L140.88 63.6491L140.519 63.701L140.57 64.0622ZM144.342 90.6799L136.497 91.8078L136.6 92.5301L144.444 91.4022L144.342 90.6799ZM136.81 91.9144L124.926 79.6731L124.402 80.1821L136.287 92.4234L136.81 91.9144ZM124.303 79.9795L126.24 93.651L126.962 93.5471L125.025 79.8757L124.303 79.9795ZM126.55 93.2379L118.382 94.4122L118.484 95.1345L126.652 93.9602L126.55 93.2379ZM118.794 94.7215L114.971 67.7426L114.249 67.8464L118.072 94.8253L118.794 94.7215ZM114.661 68.1556L123.072 66.9464L122.97 66.2241L114.559 67.4333L114.661 68.1556ZM122.76 66.8408L133.952 78.2737L134.474 77.7625L123.282 66.3297L122.76 66.8408ZM134.574 77.9662L132.763 65.1846L132.041 65.2884L133.852 78.07L134.574 77.9662ZM132.453 65.5976L140.621 64.4233L140.519 63.701L132.351 64.8754L132.453 65.5976ZM140.209 64.1141L144.032 91.093L144.754 90.9892L140.931 64.0103L140.209 64.1141Z" fill="#1E1F21"/>
<path d="M184.635 98.2974L184.781 98.6317L184.781 98.6317L184.635 98.2974ZM164.533 91.3051L164.21 91.4752L164.211 91.4784L164.533 91.3051ZM171.218 72.1336L171.363 72.468L171.363 72.4679L171.218 72.1336ZM191.32 79.1259L190.997 79.2961L190.999 79.2992L191.32 79.1259ZM171.876 88.2364L171.541 88.3808L171.542 88.3846L171.876 88.2364ZM180.789 91.3367L180.62 91.0137L180.616 91.0156L180.789 91.3367ZM183.99 82.156L183.655 82.3004L183.657 82.3041L183.99 82.156ZM175.077 79.0557L174.908 78.7327L174.904 78.7347L175.077 79.0557ZM184.49 97.963C181.047 99.4608 177.368 99.5357 173.432 98.1667L173.192 98.8555C177.282 100.278 181.152 100.21 184.781 98.6317L184.49 97.963ZM173.432 98.1667C169.496 96.7977 166.646 94.4518 164.854 91.1317L164.211 91.4784C166.099 94.9748 169.102 97.4329 173.192 98.8555L173.432 98.1667ZM164.855 91.1349C163.101 87.8061 162.881 84.2448 164.213 80.4241L163.524 80.1844C162.131 84.1815 162.354 87.9541 164.21 91.4752L164.855 91.1349ZM164.213 80.4241C165.546 76.6034 167.928 73.9623 171.363 72.468L171.072 71.7992C167.435 73.3814 164.918 76.1874 163.524 80.1844L164.213 80.4241ZM171.363 72.4679C174.842 70.953 178.538 70.8705 182.473 72.2392L182.713 71.5503C178.622 70.1274 174.735 70.2042 171.072 71.7993L171.363 72.4679ZM182.473 72.2392C186.408 73.6078 189.239 75.9609 190.997 79.296L191.643 78.9558C189.79 75.4409 186.804 72.9733 182.713 71.5503L182.473 72.2392ZM190.999 79.2992C192.787 82.6107 193.023 86.1621 191.691 89.9817L192.38 90.2214C193.774 86.2233 193.534 82.4576 191.641 78.9526L190.999 79.2992ZM191.691 89.9817C190.359 93.8014 187.961 96.4515 184.49 97.9631L184.781 98.6317C188.451 97.0332 190.986 94.2195 192.38 90.2214L191.691 89.9817ZM171.542 88.3846C172.314 90.1215 173.673 91.3238 175.586 91.9893L175.826 91.3004C174.087 90.6954 172.892 89.6254 172.209 88.0883L171.542 88.3846ZM175.586 91.9893C177.499 92.6547 179.301 92.5516 180.962 91.6577L180.616 91.0156C179.153 91.8032 177.566 91.9055 175.826 91.3004L175.586 91.9893ZM180.958 91.6597C182.635 90.7813 183.806 89.3759 184.47 87.4701L183.781 87.2304C183.173 88.9764 182.119 90.2285 180.62 91.0137L180.958 91.6597ZM184.47 87.4701C185.135 85.5643 185.092 83.7366 184.324 82.0078L183.657 82.3041C184.343 83.8494 184.39 85.4845 183.781 87.2304L184.47 87.4701ZM184.325 82.0116C183.58 80.2806 182.232 79.082 180.319 78.4166L180.079 79.1054C181.818 79.7105 182.998 80.7752 183.655 82.3004L184.325 82.0116ZM180.319 78.4166C178.406 77.7511 176.593 77.8502 174.908 78.7328L175.246 79.3787C176.737 78.5977 178.339 78.5003 180.079 79.1054L180.319 78.4166ZM174.904 78.7347C173.254 79.6227 172.098 81.0322 171.434 82.9357L172.123 83.1754C172.733 81.4272 173.776 80.1702 175.25 79.3768L174.904 78.7347ZM171.434 82.9357C170.771 84.8393 170.8 86.6611 171.541 88.3808L172.211 88.092C171.549 86.5556 171.514 84.9235 172.123 83.1754L171.434 82.9357Z" fill="#1E1F21"/>
<path d="M209.491 118.104L209.518 118.468L209.52 118.468L209.491 118.104ZM193.853 105.412L193.492 105.459L193.492 105.463L193.853 105.412ZM206.68 84.2017L206.91 83.9184L206.627 83.6885L206.397 83.9719L206.68 84.2017ZM213.183 89.4793L213.466 89.7091L213.696 89.4257L213.413 89.1959L213.183 89.4793ZM202.134 105.188L201.77 105.22L201.772 105.231L202.134 105.188ZM207.97 109.924L207.932 109.562L207.97 109.924ZM221.081 95.8895L221.311 95.6061L221.028 95.3763L220.798 95.6596L221.081 95.8895ZM227.584 101.167L227.867 101.397L228.097 101.114L227.813 100.884L227.584 101.167ZM209.465 117.74C206.498 117.957 203.317 116.727 199.911 113.963L199.452 114.53C202.94 117.361 206.299 118.703 209.518 118.468L209.465 117.74ZM199.911 113.963C196.506 111.199 194.636 108.329 194.214 105.361L193.492 105.463C193.949 108.679 195.964 111.699 199.452 114.53L199.911 113.963ZM194.215 105.365C193.829 102.381 194.696 99.5666 196.854 96.9041L196.288 96.4444C194.021 99.2405 193.077 102.251 193.492 105.459L194.215 105.365ZM196.854 96.9041L206.964 84.4316L206.397 83.9719L196.288 96.4444L196.854 96.9041ZM206.451 84.4851L212.953 89.7626L213.413 89.1959L206.91 83.9184L206.451 84.4851ZM212.9 89.2494L202.97 101.5L203.537 101.959L213.466 89.7091L212.9 89.2494ZM202.97 101.5C202.059 102.624 201.651 103.869 201.77 105.22L202.497 105.155C202.395 104.011 202.733 102.951 203.537 101.959L202.97 101.5ZM201.772 105.231C201.935 106.595 202.712 107.81 204.031 108.881L204.49 108.314C203.272 107.325 202.63 106.267 202.496 105.144L201.772 105.231ZM204.031 108.881C205.33 109.935 206.66 110.428 208.008 110.287L207.932 109.562C206.83 109.677 205.686 109.285 204.49 108.314L204.031 108.881ZM208.008 110.287C209.375 110.145 210.522 109.497 211.435 108.37L210.869 107.91C210.067 108.899 209.093 109.44 207.932 109.562L208.008 110.287ZM211.435 108.37L221.364 96.1194L220.798 95.6596L210.869 107.91L211.435 108.37ZM220.851 96.1729L227.354 101.45L227.813 100.884L221.311 95.6061L220.851 96.1729ZM227.301 100.937L217.217 113.378L217.783 113.838L227.867 101.397L227.301 100.937ZM217.217 113.378C215.041 116.062 212.459 117.502 209.462 117.74L209.52 118.468C212.743 118.212 215.5 116.654 217.783 113.838L217.217 113.378Z" fill="#1E1F21"/>
<path d="M225.066 146.54L224.757 146.734L225.075 147.24L225.379 146.726L225.066 146.54ZM220.069 138.582L219.768 138.377L219.634 138.575L219.761 138.777L220.069 138.582ZM225.328 130.825L225.63 131.03L225.763 130.832L225.637 130.63L225.328 130.825ZM223.742 128.299L224.051 128.105L223.857 127.796L223.548 127.99L223.742 128.299ZM216.485 132.874L216.176 133.068L216.37 133.377L216.679 133.183L216.485 132.874ZM212.096 125.885L211.902 125.576L211.594 125.771L211.788 126.08L212.096 125.885ZM235.147 111.355L235.456 111.161L235.262 110.852L234.953 111.046L235.147 111.355ZM244.424 131.198L244.071 131.109L244.069 131.115L244.424 131.198ZM234.976 138.506L234.998 138.142L234.994 138.142L234.976 138.506ZM230.593 137.212L230.785 136.902L230.469 136.706L230.28 137.026L230.593 137.212ZM233.967 130.063L233.822 130.398L233.834 130.403L233.967 130.063ZM236.663 128.364L236.299 128.337L236.298 128.35L236.663 128.364ZM233.453 122.178L233.762 121.983L233.568 121.674L233.259 121.869L233.453 122.178ZM229.825 124.465L229.631 124.156L229.322 124.351L229.516 124.66L229.825 124.465ZM225.375 146.345L220.378 138.388L219.761 138.777L224.757 146.734L225.375 146.345ZM220.371 138.787L225.63 131.03L225.027 130.62L219.768 138.377L220.371 138.787ZM225.637 130.63L224.051 128.105L223.434 128.494L225.019 131.019L225.637 130.63ZM223.548 127.99L216.291 132.565L216.679 133.183L223.936 128.608L223.548 127.99ZM216.793 132.679L212.405 125.691L211.788 126.08L216.176 133.068L216.793 132.679ZM212.29 126.194L235.341 111.664L234.953 111.046L211.902 125.576L212.29 126.194ZM234.839 111.55L242.573 123.866L243.19 123.477L235.456 111.161L234.839 111.55ZM242.573 123.866C244.17 126.409 244.649 128.816 244.071 131.109L244.777 131.287C245.415 128.757 244.866 126.146 243.19 123.477L242.573 123.866ZM244.069 131.115C243.522 133.434 242.171 135.278 239.987 136.654L240.375 137.272C242.707 135.802 244.184 133.803 244.779 131.282L244.069 131.115ZM239.987 136.654C238.238 137.757 236.577 138.24 234.998 138.142L234.953 138.871C236.72 138.981 238.531 138.435 240.375 137.272L239.987 136.654ZM234.994 138.142C233.389 138.063 231.989 137.647 230.785 136.902L230.401 137.523C231.723 138.341 233.245 138.787 234.958 138.871L234.994 138.142ZM230.28 137.026L224.753 146.353L225.379 146.726L230.907 137.398L230.28 137.026ZM232.188 128.915C232.624 129.609 233.166 130.114 233.822 130.398L234.112 129.728C233.618 129.514 233.18 129.123 232.805 128.526L232.188 128.915ZM233.834 130.403C234.551 130.685 235.271 130.59 235.956 130.158L235.568 129.54C235.056 129.863 234.578 129.911 234.1 129.723L233.834 130.403ZM235.956 130.158C236.624 129.737 236.997 129.137 237.027 128.378L236.298 128.35C236.279 128.845 236.053 129.235 235.568 129.54L235.956 130.158ZM237.026 128.391C237.08 127.658 236.873 126.938 236.434 126.239L235.817 126.628C236.189 127.22 236.34 127.787 236.299 128.337L237.026 128.391ZM236.434 126.239L233.762 121.983L233.145 122.372L235.817 126.628L236.434 126.239ZM233.259 121.869L229.631 124.156L230.019 124.774L233.647 122.487L233.259 121.869ZM229.516 124.66L232.188 128.915L232.805 128.526L230.133 124.271L229.516 124.66Z" fill="#1E1F21"/>
<path d="M230.756 175.382L230.395 175.432L230.445 175.794L230.806 175.743L230.756 175.382ZM229.628 167.207L229.579 166.846L229.217 166.896L229.267 167.258L229.628 167.207ZM249.493 164.425L249.543 164.786L249.904 164.736L249.854 164.375L249.493 164.425ZM248.493 157.181L248.444 156.82L248.082 156.87L248.132 157.232L248.493 157.181ZM255.614 156.184L255.975 156.133L255.925 155.772L255.564 155.823L255.614 156.184ZM258.735 178.806L258.785 179.167L259.146 179.117L259.097 178.755L258.735 178.806ZM251.615 179.803L251.254 179.854L251.304 180.215L251.665 180.165L251.615 179.803ZM250.621 172.6L250.982 172.549L250.932 172.188L250.571 172.239L250.621 172.6ZM231.118 175.331L229.99 167.157L229.267 167.258L230.395 175.432L231.118 175.331ZM229.678 167.569L249.543 164.786L249.443 164.064L229.579 166.846L229.678 167.569ZM249.854 164.375L248.855 157.131L248.132 157.232L249.132 164.476L249.854 164.375ZM248.543 157.543L255.664 156.545L255.564 155.823L248.444 156.82L248.543 157.543ZM255.253 156.235L258.374 178.857L259.097 178.755L255.975 156.133L255.253 156.235ZM258.686 178.445L251.565 179.442L251.665 180.165L258.785 179.167L258.686 178.445ZM251.976 179.753L250.982 172.549L250.26 172.65L251.254 179.854L251.976 179.753ZM250.571 172.239L230.706 175.021L230.806 175.743L250.671 172.961L250.571 172.239Z" fill="#1E1F21"/>
<path d="M228.197 205.995L227.836 205.946L227.786 206.308L228.148 206.356L228.197 205.995ZM230.987 185.513L231.037 185.151L230.675 185.103L230.626 185.464L230.987 185.513ZM257.992 189.151L258.353 189.2L258.402 188.839L258.041 188.79L257.992 189.151ZM255.201 209.633L255.152 209.995L255.514 210.043L255.563 209.682L255.201 209.633ZM248.076 208.673L247.714 208.625L247.665 208.986L248.027 209.035L248.076 208.673ZM249.752 196.368L250.114 196.417L250.163 196.055L249.801 196.006L249.752 196.368ZM247.08 196.008L247.129 195.646L246.768 195.598L246.719 195.959L247.08 196.008ZM245.442 208.03L245.393 208.391L245.755 208.44L245.804 208.079L245.442 208.03ZM238.317 207.07L237.955 207.021L237.906 207.382L238.267 207.431L238.317 207.07ZM239.954 195.048L240.316 195.096L240.365 194.735L240.004 194.686L239.954 195.048ZM236.999 194.649L237.048 194.288L236.687 194.239L236.637 194.601L236.999 194.649ZM235.323 206.955L235.273 207.316L235.635 207.365L235.684 207.004L235.323 206.955ZM228.558 206.044L231.349 185.561L230.626 185.464L227.836 205.946L228.558 206.044ZM230.938 185.874L257.942 189.513L258.041 188.79L231.037 185.151L230.938 185.874ZM257.63 189.103L254.84 209.585L255.563 209.682L258.353 189.2L257.63 189.103ZM255.251 209.272L248.125 208.312L248.027 209.035L255.152 209.995L255.251 209.272ZM248.437 208.722L250.114 196.417L249.391 196.319L247.714 208.625L248.437 208.722ZM249.801 196.006L247.129 195.646L247.031 196.369L249.703 196.729L249.801 196.006ZM246.719 195.959L245.081 207.981L245.804 208.079L247.442 196.056L246.719 195.959ZM245.492 207.668L238.366 206.708L238.267 207.431L245.393 208.391L245.492 207.668ZM238.678 207.118L240.316 195.096L239.593 194.999L237.955 207.021L238.678 207.118ZM240.004 194.686L237.048 194.288L236.95 195.011L239.905 195.409L240.004 194.686ZM236.637 194.601L234.961 206.906L235.684 207.004L237.36 194.698L236.637 194.601ZM235.372 206.593L228.246 205.633L228.148 206.356L235.273 207.316L235.372 206.593Z" fill="#1E1F21"/>
<path d="M214.857 235.139L214.526 234.986L214.306 235.46L214.827 235.503L214.857 235.139ZM218.8 226.656L218.85 226.294L218.583 226.258L218.469 226.502L218.8 226.656ZM222.104 227.109L222.054 227.47L222.321 227.507L222.434 227.262L222.104 227.109ZM226.236 218.218L226.567 218.371L226.68 218.127L226.48 217.947L226.236 218.218ZM223.759 215.986L223.428 215.833L223.315 216.077L223.515 216.257L223.759 215.986ZM227.702 207.503L227.961 207.246L227.592 206.875L227.371 207.349L227.702 207.503ZM248.181 228.092L248.511 228.246L248.619 228.015L248.439 227.835L248.181 228.092ZM243.807 237.502L243.777 237.865L244.031 237.886L244.138 237.655L243.807 237.502ZM229.555 228.136L229.224 227.983L229.016 228.43L229.505 228.497L229.555 228.136ZM238.657 229.39L238.608 229.751L239.785 229.914L238.901 229.119L238.657 229.39ZM231.828 223.246L232.072 222.975L231.705 222.645L231.497 223.092L231.828 223.246ZM215.188 235.293L219.131 226.809L218.469 226.502L214.526 234.986L215.188 235.293ZM218.751 227.017L222.054 227.47L222.153 226.747L218.85 226.294L218.751 227.017ZM222.434 227.262L226.567 218.371L225.905 218.064L221.773 226.955L222.434 227.262ZM226.48 217.947L224.003 215.715L223.515 216.257L225.992 218.488L226.48 217.947ZM224.09 216.14L228.033 207.656L227.371 207.349L223.428 215.833L224.09 216.14ZM227.444 207.76L247.922 228.349L248.439 227.835L227.961 207.246L227.444 207.76ZM247.85 227.938L243.476 237.348L244.138 237.655L248.511 228.246L247.85 227.938ZM243.837 237.138L214.887 234.776L214.827 235.503L243.777 237.865L243.837 237.138ZM229.505 228.497L238.608 229.751L238.707 229.029L229.605 227.775L229.505 228.497ZM238.901 229.119L232.072 222.975L231.584 223.517L238.413 229.661L238.901 229.119ZM231.497 223.092L229.224 227.983L229.886 228.29L232.158 223.4L231.497 223.092Z" fill="#1E1F21"/>
<path d="M191.352 257.443L191.097 257.182L190.836 257.438L191.092 257.698L191.352 257.443ZM197.245 251.666L197.505 251.411L197.25 251.15L196.989 251.405L197.245 251.666ZM208.7 263.376L208.44 263.631L209.033 263.227L208.7 263.376ZM201.591 247.405L201.336 247.144L201.155 247.321L201.258 247.553L201.591 247.405ZM204.216 244.831L204.372 244.5L204.142 244.392L203.961 244.57L204.216 244.831ZM220.019 252.279L219.863 252.609L220.279 252.024L220.019 252.279ZM208.563 240.569L208.308 240.308L208.047 240.564L208.302 240.824L208.563 240.569ZM214.455 234.792L214.716 234.537L214.461 234.276L214.2 234.531L214.455 234.792ZM233.51 254.27L233.766 254.53L234.026 254.275L233.771 254.014L233.51 254.27ZM225.372 262.249L225.215 262.578L225.445 262.688L225.627 262.51L225.372 262.249ZM212.817 256.251L212.974 255.921L212.074 255.491L212.485 256.401L212.817 256.251ZM218.546 268.941L218.801 269.202L218.983 269.024L218.878 268.791L218.546 268.941ZM210.407 276.921L210.147 277.176L210.402 277.437L210.662 277.181L210.407 276.921ZM191.607 257.704L197.5 251.927L196.989 251.405L191.097 257.182L191.607 257.704ZM196.984 251.921L208.44 263.631L208.961 263.12L197.505 251.411L196.984 251.921ZM209.033 263.227L201.924 247.256L201.258 247.553L208.367 263.524L209.033 263.227ZM201.846 247.665L204.471 245.091L203.961 244.57L201.336 247.144L201.846 247.665ZM204.061 245.161L219.863 252.609L220.174 251.949L204.372 244.5L204.061 245.161ZM220.279 252.024L208.823 240.314L208.302 240.824L219.758 252.534L220.279 252.024ZM208.818 240.83L214.71 235.053L214.2 234.531L208.308 240.308L208.818 240.83ZM214.195 235.047L233.25 254.525L233.771 254.014L214.716 234.537L214.195 235.047ZM233.255 254.009L225.117 261.988L225.627 262.51L233.766 254.53L233.255 254.009ZM225.529 261.92L212.974 255.921L212.66 256.58L225.215 262.578L225.529 261.92ZM212.485 256.401L218.214 269.092L218.878 268.791L213.149 256.1L212.485 256.401ZM218.291 268.681L210.152 276.66L210.662 277.181L218.801 269.202L218.291 268.681ZM210.668 276.665L191.612 257.188L191.092 257.698L210.147 277.176L210.668 276.665Z" fill="#1E1F21"/>
</svg>
