<svg width="24" height="24" viewBox="0 0 24 24" fill="none" xmlns="http://www.w3.org/2000/svg">
<path d="M12 22C17.5 22 22 17.5 22 12C22 6.5 17.5 2 12 2C6.5 2 2 6.5 2 12C2 17.5 6.5 22 12 22Z" fill="black"/>
<path d="M12 10.0002C12.6 10.0002 13 10.4002 13 11.0002L13 17.7002C13 18.3002 12.6 18.7002 12 18.7002C11.4 18.7002 11 18.3002 11 17.7002L11 11.0002C11 10.5002 11.4 10.0002 12 10.0002Z" fill="white"/>
<path d="M12 5.2998C12.6 5.2998 13 5.6998 13 6.2998L13 7.2998C13 7.8998 12.6 8.2998 12 8.2998C11.4 8.2998 11 7.8998 11 7.2998L11 6.2998C11 5.6998 11.4 5.2998 12 5.2998Z" fill="white"/>
</svg>
