<svg width="15" height="9" viewBox="0 0 15 9" fill="none" xmlns="http://www.w3.org/2000/svg">
<path d="M8.5 7.25C8.5 6.69772 8.05228 6.25 7.5 6.25C6.94772 6.25 6.5 6.69772 6.5 7.25H8.5ZM6.79289 8.45711C7.18342 8.84763 7.81658 8.84763 8.20711 8.45711L14.5711 2.09315C14.9616 1.70262 14.9616 1.06946 14.5711 0.678932C14.1805 0.288408 13.5474 0.288408 13.1569 0.678932L7.5 6.33579L1.84315 0.678932C1.45262 0.288408 0.819457 0.288408 0.428932 0.678932C0.0384078 1.06946 0.0384078 1.70262 0.428932 2.09315L6.79289 8.45711ZM6.5 7.25V7.75H8.5V7.25H6.5Z" fill="#FFF"/>
</svg>
