<svg width="20" height="20" viewBox="0 0 22 21" fill="none" xmlns="http://www.w3.org/2000/svg">
  <path id="Vector" d="M11.0262 16.8804L10.9022 16.8057L10.7781 16.8804L5.7888 19.886L5.78876 19.886L5.78378 19.8892C5.60381 20.0037 5.42521 20.048 5.24155 20.0327C5.04485 20.0163 4.87944 19.9521 4.73803 19.8421C4.58785 19.7253 4.47114 19.58 4.38677 19.4032C4.31323 19.2485 4.29404 19.0694 4.34377 18.8538C4.34378 18.8538 4.34379 18.8537 4.34381 18.8537L5.66616 13.1735L5.6991 13.032L5.58917 12.9371L1.17286 9.12161C1.00563 8.97058 0.911162 8.80851 0.873714 8.63455L0.873505 8.6336C0.83274 8.44789 0.844598 8.26906 0.909103 8.09167C0.976829 7.90542 1.07536 7.76038 1.20214 7.64944C1.31659 7.5493 1.48682 7.47293 1.73275 7.43693L7.55689 6.92656L7.70122 6.91392L7.75748 6.7804L10.0117 1.43043L10.012 1.42955C10.0934 1.23436 10.2146 1.0968 10.3757 1.00492L10.376 1.00473C10.5533 0.903236 10.7277 0.856171 10.9022 0.856171C11.0766 0.856171 11.2515 0.903226 11.4297 1.00483C11.5899 1.09662 11.7109 1.23416 11.7923 1.42955L11.7927 1.43043L14.0469 6.7804L14.1031 6.91392L14.2475 6.92656L20.0716 7.43693C20.3175 7.47293 20.4877 7.5493 20.6022 7.64944L20.7605 7.46849L20.6022 7.64945C20.729 7.76038 20.8275 7.90542 20.8952 8.09167C20.9598 8.26933 20.972 8.44843 20.9319 8.63432C20.8937 8.80844 20.7987 8.97059 20.6315 9.12159L16.2152 12.9371L16.1052 13.032L16.1382 13.1735L17.4605 18.8537C17.4605 18.8537 17.4606 18.8538 17.4606 18.8538C17.5103 19.0693 17.4911 19.2483 17.4177 19.403C17.3333 19.5799 17.2166 19.7252 17.0663 19.8421C16.9249 19.9521 16.7595 20.0163 16.5628 20.0327C16.3791 20.048 16.2005 20.0037 16.0206 19.8892L16.0206 19.8891L16.0155 19.886L11.0262 16.8804Z" fill="#F8F7F7" stroke="#FABB14" stroke-width="0.480896"/>
</svg>
