<svg width="28" height="27" viewBox="0 0 28 27" fill="none" xmlns="http://www.w3.org/2000/svg">
<path d="M17.8227 6.99223H24.061V8.43873H17.8227V6.99223ZM11.5719 12.7155C12.9509 12.0849 13.6732 11.1255 13.6732 9.64316C13.6732 6.7113 11.3906 6 8.75453 6H1.5V20.7161H8.95779C11.7533 20.7161 14.3768 19.431 14.3768 16.4423C14.3768 14.5953 13.4637 13.2295 11.5719 12.7155ZM4.88336 8.51046H8.05722C9.27986 8.51046 10.3774 8.83622 10.3774 10.1931C10.3774 11.4423 9.52376 11.9444 8.31363 11.9444H4.88336V8.51046ZM8.495 18.2176H4.88024V14.165H8.56692C10.0553 14.165 10.9966 14.7597 10.9966 16.266C10.9966 17.7484 9.87398 18.2176 8.495 18.2176ZM26.5 15.5427C26.5 12.3897 24.5707 9.7627 21.081 9.7627C17.6882 9.7627 15.3806 12.2044 15.3806 15.4053C15.3806 18.7227 17.5663 21 21.081 21C23.742 21 25.465 19.8553 26.2936 17.4136H23.5951C23.3011 18.3252 22.1066 18.8033 21.1779 18.8033C19.3831 18.8033 18.445 17.7992 18.445 16.0926H26.4781C26.4875 15.9163 26.5 15.731 26.5 15.5427ZM18.445 14.2457C18.5419 12.844 19.5206 11.9683 20.9841 11.9683C22.5225 11.9683 23.2917 12.832 23.4262 14.2457H18.445Z" fill="#1E1F21"/>
</svg>
