<svg width="28" height="27" viewBox="0 0 28 27" fill="none" xmlns="http://www.w3.org/2000/svg">
<path d="M18.2468 8.66758C18.83 7.95899 19.1701 7.2171 19.2894 6.45556C17.6402 4.95007 15.5187 4 13.2044 4C12.0094 4 10.8699 4.2521 9.81567 4.69321C11.5809 6.62125 13.0572 8.90414 14.2119 11.3684C15.9133 10.6977 17.3314 9.78016 18.2468 8.66758Z" fill="#1E1F21"/>
<path d="M19.6828 9.26386C18.6027 10.5441 16.9971 11.5852 15.0789 12.3419C15.3173 12.8979 15.5364 13.4654 15.7426 14.0403C16.7277 13.815 17.7487 13.6868 18.7899 13.6868C20.429 13.6868 22.0214 13.9826 23.4898 14.5261C23.4912 14.4546 23.4999 14.3849 23.4999 14.3129C23.4999 11.5567 22.5012 9.04995 20.879 7.15771C20.6397 7.89107 20.2424 8.60078 19.6828 9.26386Z" fill="#1E1F21"/>
<path d="M3.5 12.0588C4.71156 12.2886 6.05387 12.4212 7.34335 12.4212C9.34228 12.4212 11.2624 12.1166 12.9737 11.5935C11.7945 9.162 10.2785 6.92419 8.46912 5.05273C6.00667 6.47405 4.10674 9.04588 3.5 12.0588Z" fill="#1E1F21"/>
<path d="M23.5 15.3364C22.0564 14.8109 20.4676 14.5264 18.8265 14.5264C17.9065 14.5264 17.003 14.6196 16.1316 14.7899C17.0162 17.3555 17.5281 20.1286 17.6155 22.9474C20.7277 21.5859 23.0026 18.718 23.5 15.3364Z" fill="#1E1F21"/>
<path d="M3.5 13.9435C3.5 17.1224 5.04395 20.0084 7.3357 21.8946C7.57851 20.2914 8.3068 18.7142 9.49295 17.3942C10.9038 15.8243 12.8617 14.6486 15.0789 13.9776C14.8726 13.4494 14.6472 12.9315 14.4093 12.4209C12.4281 13.0041 10.1967 13.339 7.84433 13.339C6.4052 13.339 4.90756 13.2026 3.54996 12.9658C3.51919 13.288 3.5 13.6135 3.5 13.9435V13.9435Z" fill="#1E1F21"/>
<path d="M10.677 18.419C9.48922 19.6471 8.84572 21.0874 8.76318 22.5609C10.3374 23.4673 12.1896 24.0002 14.1784 24.0002C15.224 24.0002 16.2329 23.8535 17.1842 23.5843C17.138 20.8127 16.6333 18.0875 15.7158 15.5791C13.7074 16.1344 11.9407 17.1125 10.677 18.419Z" fill="#1E1F21"/>
</svg>
