<svg width="28" height="27" viewBox="0 0 28 27" fill="none" xmlns="http://www.w3.org/2000/svg">
<path d="M14 9.84375C13.0303 9.84375 12.1003 10.229 11.4146 10.9146C10.729 11.6003 10.3438 12.5303 10.3438 13.5C10.3438 14.4697 10.729 15.3997 11.4146 16.0854C12.1003 16.771 13.0303 17.1562 14 17.1562C14.9697 17.1562 15.8997 16.771 16.5854 16.0854C17.271 15.3997 17.6562 14.4697 17.6562 13.5C17.6562 12.5303 17.271 11.6003 16.5854 10.9146C15.8997 10.229 14.9697 9.84375 14 9.84375Z" fill="#1E1F21"/>
<path fill-rule="evenodd" clip-rule="evenodd" d="M8.11617 3.46719C12.0267 3.03372 15.9731 3.03372 19.8837 3.46719C22.02 3.70569 23.7424 5.38756 23.9933 7.53181C24.457 11.497 24.457 15.5028 23.9933 19.4681C23.7424 21.6123 22.02 23.2942 19.8848 23.5338C15.9739 23.9674 12.0271 23.9674 8.11617 23.5338C5.9798 23.2942 4.25742 21.6123 4.00655 19.4692C3.54274 15.5036 3.54274 11.4974 4.00655 7.53181C4.25742 5.38756 5.9798 3.70569 8.11617 3.46719ZM19.6249 6.74994C19.3266 6.74994 19.0404 6.86846 18.8294 7.07944C18.6184 7.29042 18.4999 7.57657 18.4999 7.87494C18.4999 8.17331 18.6184 8.45945 18.8294 8.67043C19.0404 8.88141 19.3266 8.99994 19.6249 8.99994C19.9233 8.99994 20.2094 8.88141 20.4204 8.67043C20.6314 8.45945 20.7499 8.17331 20.7499 7.87494C20.7499 7.57657 20.6314 7.29042 20.4204 7.07944C20.2094 6.86846 19.9233 6.74994 19.6249 6.74994ZM8.65617 13.4999C8.65617 12.0827 9.21917 10.7235 10.2213 9.72134C11.2235 8.71919 12.5827 8.15619 13.9999 8.15619C15.4172 8.15619 16.7764 8.71919 17.7785 9.72134C18.7807 10.7235 19.3437 12.0827 19.3437 13.4999C19.3437 14.9172 18.7807 16.2764 17.7785 17.2785C16.7764 18.2807 15.4172 18.8437 13.9999 18.8437C12.5827 18.8437 11.2235 18.2807 10.2213 17.2785C9.21917 16.2764 8.65617 14.9172 8.65617 13.4999Z" fill="#1E1F21"/>
</svg>
