<svg width="28" height="27" viewBox="0 0 28 27" fill="none" xmlns="http://www.w3.org/2000/svg">
<path d="M26.3749 10.9237C26.4305 9.31341 26.0784 7.71519 25.3512 6.27742C24.8577 5.68747 24.173 5.28934 23.4162 5.15242C20.2859 4.86839 17.1426 4.75197 13.9999 4.80367C10.8686 4.74962 7.73671 4.86228 4.61741 5.14117C4.00071 5.25335 3.42999 5.54262 2.97491 5.97367C1.96241 6.90742 1.84991 8.50492 1.73741 9.85492C1.57418 12.2822 1.57418 14.7177 1.73741 17.1449C1.76995 17.9048 1.88309 18.659 2.07491 19.3949C2.21056 19.9631 2.485 20.4888 2.87366 20.9249C3.33183 21.3788 3.91584 21.6845 4.54991 21.8024C6.97531 22.1018 9.41915 22.2259 11.8624 22.1737C15.7999 22.2299 19.2537 22.1737 23.3374 21.8587C23.987 21.748 24.5875 21.4419 25.0587 20.9812C25.3736 20.6661 25.6089 20.2804 25.7449 19.8562C26.1472 18.6216 26.3448 17.3295 26.3299 16.0312C26.3749 15.4012 26.3749 11.5987 26.3749 10.9237ZM11.4574 16.7062V9.74242L18.1174 13.2412C16.2499 14.2762 13.7862 15.4462 11.4574 16.7062Z" fill="#1E1F21"/>
</svg>
