<svg width="536" height="590" viewBox="0 0 536 590" fill="none" xmlns="http://www.w3.org/2000/svg">
<g clip-path="url(#clip0_4209_9905)">
<path d="M374.292 57.0077C350.084 63.7676 325.695 69.7917 301.147 75.1692C288.846 77.7465 276.485 80.0786 264.216 82.7896C251.943 85.4784 239.756 88.5239 227.586 91.6363C215.422 94.7709 203.241 97.8387 191.022 100.75C178.809 103.684 166.6 106.641 154.348 109.419C129.823 114.885 105.248 120.151 80.5087 124.749C80.3523 124.785 80.2131 124.723 80.1912 124.633C80.1693 124.544 80.2702 124.45 80.4267 124.414C104.646 117.699 129.035 111.675 153.479 105.874C165.709 103.007 177.982 100.318 190.251 97.6068C202.514 94.8734 214.815 92.2962 227.132 89.7857C239.445 87.253 251.735 84.6312 263.948 81.6971C276.157 78.7408 288.283 75.4501 300.463 72.3823C324.88 66.4697 349.455 61.2036 374.21 56.6733C374.367 56.6372 374.506 56.6994 374.528 56.7885C374.51 56.8867 374.41 56.9807 374.292 57.0077Z" fill="white"/>
<path d="M469.747 463.684C442.745 471.146 415.556 477.874 388.204 483.956C374.5 486.887 360.733 489.572 347.063 492.635C333.387 495.677 319.801 499.074 306.232 502.538C292.669 506.025 279.089 509.444 265.469 512.708C251.855 515.994 238.247 519.302 224.594 522.433C197.264 528.604 169.884 534.576 142.334 539.88C142.16 539.92 142.006 539.862 141.984 539.773C141.961 539.684 142.075 539.586 142.249 539.546C169.263 532.128 196.451 525.4 223.696 518.895C237.327 515.675 251.003 512.634 264.674 509.571C278.338 506.485 292.043 503.555 305.764 500.691C319.479 497.806 333.172 494.831 346.786 491.545C360.395 488.237 373.918 484.595 387.498 481.175C414.715 474.558 442.096 468.587 469.662 463.35C469.837 463.309 469.99 463.368 470.012 463.457C469.991 463.556 469.878 463.653 469.747 463.684Z" fill="white"/>
<path d="M470.815 462.044C461.504 428.681 453.003 395.1 445.215 361.328C441.444 344.409 437.943 327.418 434.025 310.538C430.131 293.652 425.844 276.872 421.483 260.112C417.097 243.358 412.786 226.584 408.646 209.764C404.482 192.95 400.293 176.144 396.301 159.284C388.415 125.538 380.749 91.7336 373.821 57.7308C373.77 57.5155 373.829 57.3276 373.927 57.3013C374.026 57.2749 374.138 57.4165 374.19 57.6318C383.452 91.0079 391.952 124.588 400.207 158.235C404.298 175.068 408.192 191.954 412.11 208.833C416.054 225.706 419.825 242.625 423.522 259.564C427.244 276.496 431.064 293.402 435.229 310.215C439.417 327.022 443.975 343.73 448.287 360.504C456.664 394.117 464.329 427.922 471.184 461.945C471.235 462.16 471.176 462.348 471.078 462.374C470.966 462.347 470.854 462.205 470.815 462.044Z" fill="white"/>
<path d="M143.717 537.989C134.929 506.662 126.953 475.122 119.691 443.394C116.183 427.498 112.945 411.53 109.289 395.673C105.658 379.809 101.634 364.048 97.535 348.307C93.4118 332.573 89.3624 316.819 85.4853 301.02C81.5835 285.227 77.6571 269.441 73.9276 253.603C66.5669 221.901 59.4277 190.141 53.0265 158.186C52.9782 157.984 53.0403 157.807 53.1387 157.781C53.2372 157.755 53.3472 157.887 53.3955 158.089C62.1339 189.429 70.1097 220.969 77.8394 252.574C81.6673 268.387 85.2985 284.25 88.9542 300.108C92.6346 315.959 96.1427 331.855 99.577 347.771C103.036 363.68 106.593 379.563 110.495 395.356C114.421 411.142 118.717 426.831 122.766 442.585C130.619 474.158 137.758 505.918 144.086 537.892C144.134 538.094 144.072 538.271 143.973 538.297C143.863 538.273 143.753 538.14 143.717 537.989Z" fill="white"/>
<path d="M263.417 293.155C272.859 290.546 282.366 288.194 291.93 286.066C296.722 285.042 301.535 284.102 306.316 283.031C311.098 281.967 315.848 280.779 320.593 279.568C325.335 278.349 330.084 277.153 334.846 276.012C339.607 274.863 344.365 273.706 349.139 272.611C358.696 270.453 368.27 268.365 377.903 266.509C377.964 266.495 378.017 266.516 378.025 266.547C378.033 266.578 377.993 266.612 377.932 266.626C368.487 269.219 358.98 271.572 349.453 273.847C344.687 274.973 339.905 276.036 335.124 277.108C330.346 278.187 325.554 279.212 320.756 280.213C315.961 281.222 311.173 282.263 306.412 283.412C301.654 284.569 296.925 285.842 292.176 287.038C282.659 289.352 273.085 291.44 263.446 293.272C263.385 293.286 263.332 293.266 263.324 293.235C263.331 293.2 263.371 293.166 263.417 293.155Z" fill="white"/>
<path d="M230.29 152.023C239.72 149.416 249.215 147.067 258.768 144.942C263.554 143.919 268.362 142.981 273.136 141.911C277.912 140.849 282.657 139.663 287.396 138.453C292.133 137.235 296.876 136.041 301.632 134.901C306.387 133.754 311.139 132.598 315.908 131.505C325.452 129.35 335.015 127.264 344.636 125.412C344.697 125.398 344.751 125.418 344.759 125.449C344.766 125.48 344.727 125.514 344.666 125.528C335.232 128.119 325.736 130.469 316.221 132.741C311.461 133.865 306.684 134.927 301.91 135.997C297.138 137.075 292.352 138.098 287.56 139.098C282.77 140.106 277.987 141.145 273.233 142.292C268.48 143.448 263.757 144.72 259.014 145.914C249.509 148.225 239.947 150.31 230.319 152.139C230.258 152.153 230.205 152.133 230.197 152.102C230.204 152.067 230.244 152.033 230.29 152.023Z" fill="white"/>
<path d="M229.905 152.586C233.156 164.238 236.125 175.966 238.845 187.761C240.162 193.669 241.385 199.603 242.753 205.498C244.113 211.396 245.61 217.256 247.133 223.11C248.665 228.961 250.171 234.819 251.617 240.693C253.071 246.565 254.534 252.435 255.928 258.323C258.682 270.108 261.359 281.914 263.779 293.79C263.797 293.865 263.776 293.93 263.742 293.94C263.707 293.949 263.668 293.899 263.65 293.824C260.415 282.168 257.447 270.44 254.564 258.689C253.135 252.81 251.775 246.913 250.407 241.018C249.03 235.125 247.713 229.217 246.421 223.301C245.121 217.388 243.787 211.483 242.333 205.611C240.87 199.742 239.278 193.907 237.772 188.049C234.847 176.309 232.17 164.503 229.776 152.621C229.758 152.546 229.779 152.48 229.813 152.471C229.852 152.481 229.891 152.53 229.905 152.586Z" fill="white"/>
<path d="M344.14 126.063C347.206 136.992 349.989 147.996 352.522 159.065C353.746 164.611 354.875 170.181 356.151 175.714C357.418 181.248 358.822 186.747 360.252 192.239C361.69 197.728 363.103 203.224 364.456 208.736C365.817 214.246 367.187 219.753 368.488 225.279C371.056 236.339 373.547 247.42 375.78 258.568C375.796 258.638 375.775 258.7 375.74 258.709C375.706 258.718 375.668 258.672 375.651 258.602C372.602 247.668 369.819 236.664 367.122 225.638C365.787 220.122 364.52 214.587 363.244 209.055C361.961 203.525 360.737 197.979 359.539 192.426C358.332 186.876 357.091 181.334 355.73 175.824C354.36 170.317 352.861 164.843 351.448 159.347C348.709 148.332 346.218 137.252 344.011 126.097C343.994 126.026 344.016 125.964 344.05 125.955C344.089 125.964 344.127 126.01 344.14 126.063Z" fill="white"/>
<path d="M356.192 54.9549C354.784 52.8415 352.777 51.1961 350.428 50.2293C348.079 49.2625 345.495 49.0184 343.007 49.5283C340.52 50.0381 338.241 51.2786 336.464 53.091C334.687 54.9034 333.491 57.2051 333.031 59.7013L332.357 63.6967C332.248 64.337 332.822 64.8842 333.456 64.7466L334.862 64.4418C335.231 64.3618 335.513 64.064 335.573 63.6914L336.12 60.2869C336.606 57.7702 338.07 55.5492 340.192 54.1112C342.314 52.6788 344.918 52.1453 347.433 52.6276C349.949 53.1099 352.172 54.5687 353.615 56.6845C354.339 57.7319 354.849 58.9121 355.116 60.1572C355.382 61.4022 355.399 62.6875 355.166 63.9389L349.217 94.9206L345.759 112.935C345.454 114.513 344.535 115.905 343.204 116.805C341.873 117.706 340.238 118.041 338.659 117.738C337.081 117.432 335.688 116.513 334.786 115.182C333.884 113.851 333.548 112.217 333.85 110.639L339.932 78.9403C340.028 78.4417 339.7 77.96 339.202 77.8654L337.916 77.6217C337.419 77.5275 336.939 77.8531 336.844 78.3498L330.761 110.069C330.305 112.452 330.815 114.918 332.178 116.926C333.541 118.935 335.645 120.32 338.029 120.779C338.599 120.884 339.179 120.936 339.759 120.933C341.884 120.929 343.941 120.188 345.579 118.836C347.217 117.484 348.334 115.605 348.74 113.521L352.506 93.8236L358.131 64.4936C358.456 62.8548 358.451 61.1679 358.118 59.5305C357.785 57.8932 357.131 56.3379 356.192 54.9549Z" fill="white"/>
<path d="M328.84 209.563C328.786 209.734 328.736 209.91 328.689 210.092C328.603 209.986 328.665 209.796 328.84 209.563C331.001 202.716 338.488 204.738 339.167 210.183C339.863 215.763 336.165 226.205 336.037 223.044C341.539 201.613 330.443 207.425 328.84 209.563Z" fill="white"/>
<path d="M285.467 222.619C285.592 222.748 285.715 222.883 285.839 223.025C285.868 222.892 285.728 222.75 285.467 222.619C280.484 217.45 274.681 222.595 276.497 227.772C278.359 233.079 286.319 240.782 285.026 237.895C270.558 221.155 283.08 221.418 285.467 222.619Z" fill="white"/>
<path d="M304.168 179.847C312.135 176.05 325.388 181.282 328.218 196.025C331.746 214.401 337.366 234.963 335.026 243.859C331.344 252.428 326.176 260.062 320.465 262.687C316.267 263.674 303.053 257.7 298.872 254.278C293.388 249.789 285.458 226.936 278.442 207.719C296.632 198.951 296.201 183.645 304.168 179.847Z" fill="white" stroke="white" stroke-width="1.11136"/>
<path d="M324.853 242.554C323.039 243.687 320.277 246.191 316.804 246.988C312.831 247.901 308.152 247.016 306.744 246.809" stroke="#1E1F21" stroke-width="1.11136" stroke-linecap="round" stroke-linejoin="round"/>
<path d="M307.669 217.92C310.261 226.101 311.443 233.985 311.228 235.919C311.012 237.854 311.292 239.044 313.832 238.447C316.372 237.85 316.867 237.106 316.587 235.916" stroke="#1E1F21" stroke-width="1.11136" stroke-linecap="round" stroke-linejoin="round"/>
<path d="M311.263 213.255C315.634 207.458 318.181 207.455 325.086 207.026" stroke="#1E1F21" stroke-width="1.11136" stroke-linecap="round" stroke-linejoin="round"/>
<path d="M305.146 215.654C296.436 213.147 293.291 215.714 289.527 218.305" stroke="#1E1F21" stroke-width="1.11136" stroke-linecap="round" stroke-linejoin="round"/>
<path d="M319.372 219.955C321.231 219.519 320.934 217.167 320.629 215.871C319.032 216.146 317.284 216.684 315.756 217.46C316.316 218.827 317.514 220.392 319.372 219.955Z" fill="#1E1F21"/>
<path d="M312.773 219.69C313.517 218.81 314.57 218.063 315.756 217.46M324.274 215.777C323.356 215.589 322.053 215.625 320.629 215.871M320.629 215.871C320.934 217.167 321.231 219.519 319.372 219.955C317.514 220.392 316.316 218.827 315.756 217.46M320.629 215.871C319.032 216.146 317.284 216.684 315.756 217.46" stroke="#1E1F21" stroke-width="1.11136" stroke-linecap="round" stroke-linejoin="round"/>
<path d="M300.26 225.397C297.906 225.95 296.846 223.757 296.774 222.568C298.137 222.078 300.161 221.486 301.482 221.462C301.931 222.493 302.143 224.954 300.26 225.397Z" fill="#1E1F21"/>
<path d="M293.021 225.096C293.861 223.963 295.243 223.119 296.774 222.568M304.791 222.331C304.073 221.858 302.839 221.438 301.482 221.462M296.774 222.568C296.846 223.757 297.906 225.95 300.26 225.397C302.143 224.954 301.931 222.493 301.482 221.462M296.774 222.568C298.137 222.078 300.161 221.486 301.482 221.462" stroke="#1E1F21" stroke-width="1.11136" stroke-linecap="round" stroke-linejoin="round"/>
<path d="M271.366 186.699C262.078 193.329 267.256 201.792 274.171 214.936C279.767 225.18 276.634 222.705 279.514 221.386C282.394 220.068 283.681 225.544 282.889 216.741C282.096 207.937 288.383 199.397 297.088 190.288C305.793 181.18 321.271 184.607 322.635 195.845C323.999 207.083 328.66 207.914 333.354 206.17C338.047 204.425 333.628 196.473 336.177 185.601C338.726 174.728 324.821 177.994 324.535 176.777C323.874 157.669 311.133 152.314 299.581 160.165C288.028 168.016 286.116 176.171 271.366 186.699Z" fill="white" stroke="#1E1F21" stroke-width="1.11136"/>
<path d="M80.4624 124.69C80.4113 124.564 80.2464 124.536 80.1564 124.637L79.8984 124.928L52.9612 157.793C52.8567 157.92 52.9606 158.11 53.1242 158.091L90.3152 153.651L91.893 153.28C92.0025 153.254 92.0631 153.137 92.0206 153.032L80.4624 124.69Z" fill="white"/>
<rect x="110.488" y="212.363" width="110.859" height="3.67004" transform="rotate(-13.2204 110.488 212.363)" fill="white"/>
<rect x="113.381" y="226.828" width="81.6622" height="3.67004" transform="rotate(-13.2204 113.381 226.828)" fill="white"/>
<path d="M116.768 241.281L212.785 218.725L213.624 222.297L117.607 244.854L116.768 241.281Z" fill="white"/>
<path d="M120.787 256.18L228.708 230.827L229.547 234.399L121.626 259.752L120.787 256.18Z" fill="white"/>
<rect x="265.836" y="307.043" width="120.027" height="3.67004" transform="rotate(-13.2204 265.836 307.043)" fill="white"/>
<path d="M269.34 321.324L364.324 299.01L365.164 302.583L270.179 324.897L269.34 321.324Z" fill="white"/>
<path d="M282.684 378.109L396.252 351.429L397.091 355.002L283.523 381.682L282.684 378.109Z" fill="white"/>
<path d="M272.738 335.777L373.918 312.008L374.757 315.581L273.578 339.35L272.738 335.777Z" fill="white"/>
<path d="M286.074 392.562L393.448 367.338L394.287 370.911L286.914 396.135L286.074 392.562Z" fill="white"/>
<path d="M276.137 350.863L392.983 323.413L393.822 326.986L276.976 354.436L276.137 350.863Z" fill="white"/>
<path d="M289.473 407.645L406.319 380.195L407.158 383.767L290.312 411.217L289.473 407.645Z" fill="white"/>
<rect x="150.75" y="379.195" width="29.1733" height="29.1733" transform="rotate(-13.2204 150.75 379.195)" stroke="white" stroke-width="1.66705"/>
<rect x="161.244" y="423.828" width="29.1733" height="29.1733" transform="rotate(-13.2204 161.244 423.828)" stroke="white" stroke-width="1.66705"/>
<rect x="179.031" y="324.605" width="57.5131" height="3.67004" transform="rotate(-13.2204 179.031 324.605)" fill="white"/>
<rect x="189.52" y="369.234" width="57.5131" height="3.67004" transform="rotate(-13.2204 189.52 369.234)" fill="white"/>
<rect x="200.006" y="413.867" width="57.5131" height="3.67004" transform="rotate(-13.2204 200.006 413.867)" fill="white"/>
<rect x="181.121" y="333.531" width="40.8426" height="3.67004" transform="rotate(-13.2204 181.121 333.531)" fill="white"/>
<rect x="191.611" y="378.164" width="40.8426" height="3.67004" transform="rotate(-13.2204 191.611 378.164)" fill="white"/>
<rect x="202.088" y="422.789" width="40.8426" height="3.67004" transform="rotate(-13.2204 202.088 422.789)" fill="white"/>
<g clip-path="url(#clip1_4209_9905)">
<path d="M210.097 156.181C205.259 157.572 200.378 158.851 195.525 160.176L180.785 164.019C170.946 166.527 161.092 168.967 151.23 171.375L136.4 174.821L121.528 178.084C111.605 180.226 101.713 182.501 91.8514 184.909L92.1251 184.651L92.1169 184.688L91.9403 184.206L96.6028 187.071C96.7983 187.198 96.8746 187.46 96.7586 187.68C96.7346 187.721 96.6949 187.765 96.6552 187.81L91.3972 192.17L91.2357 191.317L96.868 193.039C97.1543 193.128 97.3284 193.453 97.2471 193.753C97.2307 193.826 97.1985 193.904 97.1431 193.952L97.1311 193.973L94.0324 197.883L93.8488 196.861L98.749 199.529C99.1091 199.722 99.2467 200.178 99.0625 200.538C99.0304 200.615 98.9787 200.68 98.9389 200.725L98.9112 200.749L96.4222 203.324C96.2753 203.481 96.0741 203.547 95.8774 203.56L95.8458 203.567L95.8301 203.571L96.3818 202.127L96.4442 202.182L95.7379 202.002C105.566 199.445 115.408 196.955 125.263 194.514C135.121 192.09 144.956 189.566 154.844 187.274C164.721 184.933 174.587 182.542 184.494 180.333L199.34 176.954L214.212 173.691L213.769 174.444L210.097 156.181ZM210.303 155.991L214.947 174.143C215.039 174.471 214.851 174.813 214.535 174.889L214.504 174.897L199.768 178.757L185.006 182.501C175.174 185.041 165.301 187.399 155.439 189.807C145.585 192.247 135.685 194.489 125.805 196.814C115.92 199.122 106.024 201.381 96.1132 203.573L96.0817 203.58C95.8295 203.641 95.5784 203.561 95.4031 203.376L95.3407 203.321L95.3211 203.309C95.0014 203.001 94.9667 202.485 95.2725 202.149C95.4314 201.971 95.6761 201.877 95.8924 201.877L95.9082 201.873L95.328 202.1L97.9027 199.61L98.0649 200.83L93.2567 197.982L93.2371 197.97C92.9319 197.798 92.8215 197.388 92.9974 197.066C93.0214 197.025 93.0454 196.984 93.0731 196.96L96.2929 193.143L96.5597 194.093L90.9841 192.182L90.9683 192.186C90.7173 192.106 90.5861 191.823 90.6631 191.577C90.6914 191.483 90.7551 191.398 90.8264 191.346L96.1386 187.077L96.1872 187.8L91.5449 184.878C91.3885 184.775 91.3077 184.568 91.3683 184.396L91.3765 184.359C91.413 184.227 91.524 184.131 91.6501 184.1C101.527 181.759 111.374 179.285 121.19 176.679L135.926 172.819L150.704 169.141C160.58 166.8 170.465 164.492 180.365 162.25L195.233 158.97C200.206 157.948 205.159 156.844 210.143 155.872C210.229 155.886 210.288 155.925 210.303 155.991Z" fill="white"/>
</g>
<g clip-path="url(#clip2_4209_9905)">
<path d="M107.725 200.431C112.571 199.067 117.459 197.815 122.319 196.517L137.08 192.755C146.933 190.302 156.8 187.916 166.675 185.563L181.525 182.2L196.415 179.019C206.349 176.932 216.253 174.711 226.128 172.358L225.853 172.615L225.862 172.578L226.036 173.061L221.389 170.17C221.194 170.042 221.119 169.78 221.237 169.56C221.261 169.52 221.301 169.475 221.341 169.431L226.623 165.1L226.78 165.954L221.157 164.2C220.871 164.11 220.699 163.784 220.782 163.485C220.799 163.411 220.831 163.334 220.887 163.286L220.899 163.265L224.019 159.372L224.197 160.396L219.312 157.701C218.953 157.505 218.818 157.048 219.004 156.69C219.036 156.613 219.089 156.548 219.129 156.504L219.156 156.48L221.66 153.919C221.807 153.762 222.009 153.697 222.206 153.686L222.237 153.678L222.253 153.675L221.693 155.116L221.631 155.061L222.337 155.244C212.495 157.747 202.638 160.182 192.771 162.569C182.899 164.938 173.05 167.407 163.149 169.644C153.26 171.93 143.381 174.267 133.462 176.421L118.598 179.718L103.708 182.898L104.155 182.147L107.725 200.431ZM107.518 200.62L102.975 182.442C102.885 182.114 103.075 181.772 103.391 181.698L103.422 181.691L118.179 177.912L132.962 174.25C142.808 171.764 152.694 169.461 162.569 167.108C172.436 164.722 182.348 162.535 192.242 160.265C202.139 158.012 212.047 155.809 221.97 153.671L222.002 153.664C222.254 153.605 222.505 153.685 222.679 153.872L222.741 153.927L222.761 153.94C223.079 154.249 223.11 154.766 222.803 155.1C222.643 155.277 222.398 155.37 222.181 155.368L222.166 155.372L222.747 155.148L220.159 157.624L220.003 156.403L224.795 159.277L224.815 159.29C225.119 159.463 225.227 159.874 225.05 160.196C225.025 160.236 225.001 160.277 224.973 160.301L221.732 164.1L221.471 163.149L227.036 165.09L227.052 165.087C227.302 165.168 227.432 165.452 227.354 165.697C227.325 165.791 227.261 165.876 227.189 165.928L221.853 170.166L221.809 169.443L226.435 172.391C226.59 172.494 226.67 172.703 226.609 172.874L226.6 172.911C226.563 173.042 226.451 173.138 226.325 173.168C216.435 175.455 206.575 177.874 196.744 180.426L181.987 184.204L167.19 187.8C157.3 190.087 147.403 192.34 137.491 194.527L122.605 197.724C117.626 198.718 112.667 199.795 107.678 200.739C107.591 200.725 107.533 200.686 107.518 200.62Z" fill="white"/>
</g>
<g clip-path="url(#clip3_4209_9905)">
<path d="M167.213 327.908C160.311 329.971 153.345 331.868 146.42 333.833L125.383 339.535C111.338 343.256 97.2712 346.878 83.1923 350.453L62.0161 355.571L40.7761 360.421C26.6046 363.605 12.4794 366.985 -1.59954 370.559L-1.21307 370.179L-1.22398 370.233L-1.48776 369.525L5.25725 373.718C5.54025 373.905 5.65542 374.289 5.49405 374.613C5.46061 374.673 5.40467 374.739 5.34873 374.804L-2.08948 381.23L-2.33983 379.978L5.76968 382.488C6.18194 382.617 6.43863 383.094 6.32871 383.534C6.30685 383.643 6.26249 383.757 6.18402 383.828L6.16732 383.858L1.81345 389.616L1.5277 388.114L8.60905 392.016C9.12938 392.299 9.33657 392.969 9.08066 393.498C9.0363 393.612 8.96366 393.707 8.90772 393.773L8.86847 393.809L5.35878 397.601C5.15172 397.833 4.86489 397.931 4.5832 397.95L4.53819 397.961L4.51569 397.967L5.27429 395.843L5.36498 395.923L4.3488 395.662C18.3756 391.868 32.4255 388.172 46.4928 384.549C60.5659 380.951 74.6042 377.206 88.7237 373.802C102.826 370.326 116.91 366.776 131.059 363.494L152.258 358.473L173.498 353.623L172.88 354.732L167.213 327.908ZM167.505 327.629L174.562 354.285C174.7 354.766 174.439 355.27 173.988 355.383L173.943 355.394L152.912 361.121L131.84 366.677C117.807 370.446 103.711 373.947 89.6323 377.521C75.565 381.144 61.4282 384.475 47.3203 387.927C33.2067 391.355 19.0757 394.711 4.92149 397.968L4.87648 397.98C4.51633 398.07 4.15488 397.954 3.89952 397.682L3.80882 397.602L3.78053 397.583C3.31549 397.132 3.25431 396.374 3.68515 395.879C3.90892 395.617 4.25744 395.478 4.56744 395.478L4.58996 395.472L3.76358 395.808L7.39808 392.139L7.6575 393.931L0.704086 389.765L0.675779 389.746C0.234566 389.495 0.067262 388.892 0.312232 388.418C0.345657 388.358 0.379095 388.298 0.418326 388.263L4.9478 382.642L5.35122 384.037L-2.68114 381.249L-2.70366 381.255C-3.06512 381.139 -3.2594 380.723 -3.15461 380.362C-3.11604 380.223 -3.02668 380.098 -2.92573 380.021L4.59225 373.73L4.67794 374.791L-2.03943 370.514C-2.26583 370.365 -2.38615 370.06 -2.30322 369.807L-2.29228 369.752C-2.24279 369.559 -2.08591 369.417 -1.90584 369.372C12.1962 365.895 26.2519 362.224 40.2613 358.357L61.2928 352.631L82.388 347.172C96.49 343.695 110.604 340.267 124.74 336.936L145.975 332.062C153.078 330.542 160.152 328.901 167.272 327.455C167.397 327.476 167.481 327.532 167.505 327.629Z" fill="white"/>
</g>
<g clip-path="url(#clip4_4209_9905)">
<path d="M146.105 360.947C153.021 358.932 159.998 357.077 166.935 355.156L188.006 349.582C202.072 345.946 216.16 342.403 230.258 338.909L251.462 333.903L272.725 329.159C286.912 326.043 301.054 322.738 315.153 319.243L314.763 319.614L314.774 319.561L315.029 320.25L308.344 316.174C308.063 315.992 307.953 315.619 308.118 315.303C308.152 315.244 308.208 315.181 308.265 315.117L315.766 308.851L316.002 310.071L307.934 307.635C307.524 307.51 307.273 307.045 307.388 306.616C307.411 306.511 307.457 306.399 307.536 306.33L307.553 306.301L311.967 300.69L312.235 302.152L305.21 298.359C304.693 298.085 304.494 297.432 304.756 296.917C304.802 296.806 304.875 296.713 304.932 296.649L304.971 296.614L308.52 292.918C308.729 292.691 309.017 292.596 309.298 292.577L309.343 292.566L309.366 292.561L308.584 294.63L308.494 294.552L309.506 294.805C295.456 298.513 281.385 302.127 267.298 305.669C253.204 309.187 239.144 312.848 225.007 316.177C210.886 319.577 196.782 323.048 182.617 326.258L161.392 331.169L140.129 335.913L140.759 334.833L146.105 360.947ZM145.811 361.219L139.074 335.269C138.942 334.801 139.209 334.31 139.66 334.2L139.705 334.189L160.77 328.591L181.874 323.159C195.929 319.475 210.044 316.051 224.143 312.557C238.231 309.014 252.384 305.757 266.511 302.38C280.642 299.028 294.79 295.746 308.961 292.559L309.006 292.548C309.366 292.46 309.726 292.573 309.978 292.837L310.067 292.915L310.095 292.933C310.554 293.372 310.607 294.111 310.171 294.593C309.944 294.848 309.595 294.984 309.285 294.984L309.263 294.99L310.092 294.662L306.42 298.239L306.182 296.494L313.076 300.544L313.104 300.562C313.542 300.806 313.702 301.393 313.452 301.854C313.418 301.913 313.384 301.971 313.344 302.006L308.756 307.484L308.37 306.126L316.357 308.832L316.38 308.827C316.739 308.939 316.929 309.344 316.82 309.696C316.78 309.831 316.689 309.953 316.587 310.028L309.008 316.162L308.935 315.128L315.592 319.286C315.816 319.432 315.933 319.729 315.847 319.975L315.835 320.028C315.784 320.216 315.625 320.355 315.445 320.399C301.324 323.799 287.248 327.389 273.215 331.168L252.149 336.765L231.023 342.102C216.903 345.502 202.771 348.855 188.617 352.113L167.359 356.881C160.25 358.368 153.167 359.973 146.041 361.388C145.917 361.369 145.833 361.314 145.811 361.219Z" fill="white"/>
</g>
<g clip-path="url(#clip5_4209_9905)">
<path d="M178.575 372.029C171.672 374.092 164.707 375.989 157.781 377.954L136.744 383.656C122.7 387.377 108.633 391 94.5536 394.574L73.3774 399.692L52.1374 404.542C37.9659 407.727 23.8407 411.106 9.76179 414.68L10.1482 414.3L10.1373 414.354L9.87356 413.646L16.6186 417.839C16.9016 418.026 17.0168 418.41 16.8554 418.734C16.8219 418.794 16.766 418.86 16.7101 418.925L9.27185 425.351L9.0215 424.099L17.131 426.609C17.5433 426.738 17.8 427.215 17.69 427.655C17.6682 427.764 17.6238 427.878 17.5454 427.95L17.5286 427.98L13.1748 433.737L12.889 432.235L19.9704 436.138C20.4907 436.42 20.6979 437.09 20.442 437.619C20.3976 437.733 20.325 437.828 20.269 437.894L20.2298 437.93L16.7201 441.722C16.513 441.954 16.2262 442.052 15.9445 442.071L15.8995 442.082L15.877 442.088L16.6356 439.964L16.7263 440.044L15.7101 439.783C29.7369 435.989 43.7868 432.293 57.8541 428.67C71.9272 425.072 85.9656 421.327 100.085 417.924C114.187 414.447 128.272 410.897 142.42 407.615L162.416 404.988L185.417 399.014L184.241 398.853L178.575 372.029ZM178.866 371.75L185.923 398.406C186.062 398.888 185.8 399.391 185.35 399.504L185.305 399.515L164.273 405.242L143.201 410.798C129.169 414.567 115.072 418.068 100.994 421.642C86.9263 425.265 72.7895 428.596 58.6816 432.048C44.568 435.477 30.437 438.832 16.2828 442.089L16.2378 442.101C15.8777 442.191 15.5162 442.075 15.2608 441.804L15.1701 441.723L15.1419 441.704C14.6768 441.253 14.6156 440.495 15.0465 440C15.2702 439.738 15.6188 439.599 15.9288 439.599L15.9513 439.593L15.1249 439.929L18.7594 436.26L19.0188 438.052L12.0654 433.886L12.0371 433.867C11.5959 433.616 11.4286 433.013 11.6735 432.539C11.707 432.479 11.7404 432.42 11.7797 432.384L16.3091 426.763L16.7125 428.158L8.68017 425.371L8.65765 425.376C8.29619 425.26 8.10193 424.845 8.2067 424.483C8.24527 424.344 8.33463 424.219 8.4356 424.142L15.9536 417.851L16.0393 418.913L9.3219 414.636C9.09549 414.486 8.97517 414.181 9.0581 413.928L9.06903 413.873C9.11852 413.681 9.27542 413.538 9.45548 413.493C23.5575 410.016 37.6133 406.345 51.6227 402.478L72.6541 396.752L93.7493 391.293C107.851 387.816 121.965 384.388 136.102 381.057L157.336 376.183C164.439 374.664 171.513 373.023 178.634 371.576C178.758 371.597 178.843 371.653 178.866 371.75Z" fill="white"/>
</g>
<g clip-path="url(#clip6_4209_9905)">
<path d="M163.133 423.521C164.994 430.481 166.688 437.499 168.451 444.478L173.539 465.673C176.849 479.819 180.061 493.986 183.225 508.162L187.725 529.479L191.955 550.851C194.726 565.109 197.694 579.326 200.857 593.503L200.488 593.106L200.542 593.118L199.827 593.361L204.214 586.741C204.409 586.464 204.796 586.36 205.115 586.53C205.174 586.566 205.238 586.623 205.302 586.681L211.509 594.303L210.25 594.517L212.995 586.484C213.136 586.076 213.62 585.833 214.057 585.956C214.165 585.981 214.278 586.028 214.347 586.109L214.376 586.126L220.005 590.646L218.495 590.888L222.602 583.923C222.899 583.411 223.576 583.223 224.096 583.494C224.209 583.542 224.302 583.618 224.366 583.675L224.401 583.716L228.09 587.334C228.316 587.548 228.405 587.837 228.416 588.119L228.426 588.165L228.431 588.187L226.33 587.367L226.413 587.279L226.122 588.287C222.738 574.156 219.452 560.005 216.24 545.838C213.052 531.666 209.717 517.525 206.725 503.312C203.66 489.115 200.521 474.933 197.652 460.695L195.607 440.632L190.305 417.467L190.11 418.638L163.133 423.521ZM162.862 423.222L189.712 416.943C190.197 416.819 190.693 417.095 190.793 417.548L190.803 417.593L195.915 438.783L200.856 460.007C204.216 474.143 207.306 488.335 210.469 502.512C213.681 516.679 216.599 530.907 219.64 545.109C222.657 559.316 225.599 573.539 228.444 587.782L228.454 587.827C228.534 588.19 228.407 588.548 228.129 588.795L228.046 588.883L228.026 588.911C227.562 589.363 226.802 589.402 226.32 588.957C226.064 588.726 225.936 588.373 225.944 588.063L225.939 588.041L226.251 588.876L222.689 585.137L224.488 584.93L220.121 591.759L220.102 591.787C219.838 592.22 219.231 592.37 218.764 592.111C218.705 592.076 218.646 592.041 218.612 592.001L213.125 587.31L214.531 586.947L211.511 594.895L211.516 594.918C211.39 595.276 210.969 595.458 210.61 595.343C210.473 595.3 210.35 595.207 210.276 595.104L204.206 587.406L205.27 587.351L200.799 593.942C200.643 594.163 200.335 594.275 200.084 594.185L200.03 594.172C199.839 594.117 199.701 593.956 199.661 593.775C196.596 579.578 193.335 565.421 189.877 551.305L184.765 530.116L179.922 508.871C176.857 494.674 173.84 480.467 170.922 466.239L166.667 444.872C165.355 437.728 163.92 430.609 162.682 423.449C162.706 423.326 162.764 423.242 162.862 423.222Z" fill="white"/>
</g>
<path d="M217.088 190.423C213.952 191.417 210.775 192.231 207.563 192.888C205.951 193.19 204.325 193.432 202.72 193.766C201.114 194.095 199.527 194.51 197.944 194.942C196.363 195.379 194.777 195.8 193.183 196.183C191.591 196.571 189.999 196.965 188.398 197.315C185.191 197.994 181.972 198.625 178.717 199.092C178.697 199.097 178.677 199.079 178.672 199.057C178.667 199.035 178.679 199.016 178.699 199.011C181.838 198.028 185.015 197.214 188.204 196.453C189.8 196.081 191.407 195.753 193.011 195.419C194.615 195.079 196.227 194.777 197.843 194.492C199.458 194.201 201.068 193.889 202.66 193.501C204.252 193.107 205.825 192.632 207.41 192.211C210.593 191.424 213.812 190.793 217.07 190.342C217.091 190.337 217.111 190.355 217.116 190.377C217.115 190.4 217.104 190.42 217.088 190.423Z" fill="#1E1F21"/>
<path d="M89.9335 152.266C89.3308 151.368 88.8354 150.422 88.4344 149.433C88.2501 148.931 88.1017 148.413 87.8979 147.92C87.6974 147.426 87.4448 146.955 87.1825 146.488C86.9169 146.023 86.6611 145.553 86.4281 145.074C86.1918 144.595 85.9522 144.118 85.7387 143.63C85.3247 142.647 84.9399 141.65 84.6527 140.61C84.6499 140.604 84.6608 140.593 84.6738 140.587C84.6868 140.581 84.6987 140.582 84.7015 140.588C85.2977 141.489 85.793 142.435 86.2559 143.396C86.4824 143.879 86.6829 144.373 86.8867 144.866C87.0937 145.358 87.278 145.86 87.4525 146.366C87.6302 146.871 87.821 147.37 88.0573 147.848C88.2968 148.325 88.5852 148.78 88.841 149.249C89.3201 150.203 89.7048 151.199 89.9823 152.244C89.9851 152.25 89.9742 152.261 89.9612 152.267C89.9475 152.271 89.9356 152.271 89.9335 152.266Z" fill="#1E1F21"/>
<path d="M91.0811 151.573C89.9998 149.639 89.0309 147.654 88.1606 145.624C87.7425 144.602 87.3618 143.562 86.9232 142.549C86.4881 141.534 85.9985 140.544 85.4987 139.558C84.9955 138.574 84.5025 137.586 84.0333 136.586C83.5607 135.588 83.0848 134.592 82.636 133.583C81.7521 131.56 80.8989 129.523 80.1477 127.439C80.1418 127.426 80.1511 127.41 80.1647 127.404C80.1783 127.398 80.1929 127.403 80.1987 127.416C81.2732 129.353 82.2421 131.338 83.1771 133.339C83.6394 134.341 84.0746 135.356 84.5131 136.369C84.9551 137.381 85.3732 138.403 85.7811 139.431C86.1924 140.456 86.6174 141.476 87.0899 142.474C87.5659 143.47 88.0929 144.443 88.5859 145.432C89.5379 147.424 90.3912 149.462 91.1321 151.55C91.138 151.563 91.1287 151.579 91.1151 151.585C91.1 151.588 91.0855 151.583 91.0811 151.573Z" fill="#1E1F21"/>
<path d="M89.4819 152.809C88.6362 152.855 87.7901 152.949 86.9437 153.085C86.5204 153.16 86.0969 153.251 85.6737 153.317C85.2505 153.385 84.8274 153.43 84.4044 153.471C83.9815 153.51 83.5584 153.553 83.1353 153.607C82.7122 153.659 82.2892 153.709 81.866 153.772C81.0196 153.902 80.173 154.045 79.3261 154.231C79.3207 154.232 79.3166 154.238 79.3165 154.244C79.3165 154.25 79.3205 154.254 79.3259 154.253C80.1716 154.204 81.0177 154.11 81.8639 154.002C82.2871 153.945 82.7103 153.877 83.1335 153.811C83.5567 153.746 83.98 153.67 84.4034 153.591C84.8267 153.513 85.25 153.44 85.6731 153.388C86.0961 153.338 86.519 153.309 86.942 153.265C87.7882 153.164 88.6347 153.021 89.4817 152.83C89.4871 152.829 89.4912 152.823 89.4913 152.817C89.49 152.812 89.486 152.808 89.4819 152.809Z" fill="#1E1F21"/>
<path d="M196.321 207.888C193.184 208.881 190.007 209.696 186.795 210.353C185.183 210.655 183.557 210.897 181.953 211.231C180.346 211.56 178.76 211.975 177.177 212.407C175.595 212.844 174.01 213.265 172.416 213.648C170.823 214.036 169.232 214.43 167.63 214.78C164.423 215.459 161.205 216.089 157.95 216.557C157.929 216.562 157.909 216.544 157.904 216.522C157.899 216.5 157.911 216.48 157.932 216.476C161.071 215.493 164.247 214.679 167.436 213.918C169.033 213.546 170.639 213.218 172.244 212.883C173.848 212.544 175.46 212.242 177.076 211.957C178.69 211.666 180.3 211.354 181.893 210.965C183.484 210.572 185.057 210.097 186.643 209.676C189.826 208.888 193.044 208.258 196.303 207.807C196.323 207.802 196.343 207.82 196.348 207.842C196.348 207.865 196.336 207.885 196.321 207.888Z" fill="#1E1F21"/>
<path d="M192.829 224.861C186.383 226.903 179.854 228.577 173.253 229.928C169.939 230.548 166.598 231.045 163.3 231.732C159.999 232.407 156.739 233.261 153.485 234.148C150.235 235.046 146.977 235.911 143.701 236.698C140.428 237.496 137.157 238.305 133.866 239.025C127.274 240.421 120.66 241.716 113.971 242.678C113.929 242.687 113.887 242.65 113.877 242.605C113.867 242.561 113.891 242.52 113.933 242.511C120.384 240.491 126.913 238.817 133.467 237.254C136.748 236.49 140.049 235.814 143.347 235.128C146.643 234.43 149.956 233.81 153.277 233.224C156.596 232.626 159.904 231.984 163.177 231.186C166.448 230.377 169.681 229.4 172.939 228.536C179.481 226.917 186.095 225.622 192.792 224.694C192.834 224.685 192.875 224.722 192.885 224.767C192.885 224.813 192.861 224.854 192.829 224.861Z" fill="#1E1F21"/>
<path d="M207.401 321.173C204.954 321.948 202.476 322.583 199.971 323.096C198.713 323.331 197.445 323.52 196.193 323.78C194.94 324.037 193.703 324.361 192.468 324.698C191.234 325.038 189.998 325.367 188.754 325.665C187.512 325.968 186.271 326.275 185.021 326.549C182.52 327.078 180.009 327.57 177.47 327.935C177.454 327.938 177.439 327.924 177.435 327.907C177.431 327.89 177.44 327.875 177.456 327.871C179.905 327.105 182.383 326.47 184.87 325.877C186.115 325.586 187.368 325.33 188.62 325.069C189.871 324.804 191.129 324.569 192.389 324.347C193.648 324.12 194.904 323.876 196.147 323.573C197.388 323.266 198.615 322.896 199.852 322.567C202.334 321.953 204.845 321.461 207.387 321.109C207.403 321.106 207.418 321.12 207.422 321.137C207.422 321.155 207.413 321.17 207.401 321.173Z" fill="#1E1F21"/>
<path d="M241.227 322.134C238.447 323.015 235.631 323.737 232.784 324.319C231.355 324.587 229.914 324.801 228.491 325.097C227.068 325.388 225.662 325.757 224.259 326.139C222.857 326.527 221.451 326.9 220.039 327.239C218.627 327.583 217.216 327.932 215.797 328.243C212.954 328.845 210.102 329.403 207.217 329.818C207.199 329.822 207.181 329.806 207.176 329.787C207.172 329.767 207.182 329.75 207.2 329.746C209.983 328.875 212.799 328.153 215.625 327.479C217.04 327.149 218.464 326.858 219.886 326.562C221.308 326.261 222.737 325.994 224.169 325.741C225.6 325.483 227.027 325.206 228.438 324.862C229.849 324.513 231.243 324.092 232.649 323.719C235.47 323.021 238.322 322.462 241.211 322.062C241.229 322.058 241.247 322.074 241.251 322.093C241.251 322.113 241.24 322.131 241.227 322.134Z" fill="#1E1F21"/>
<path d="M237.575 230.021C231.129 232.063 224.6 233.737 217.999 235.088C214.685 235.708 211.344 236.205 208.046 236.892C204.745 237.567 201.485 238.421 198.231 239.308C194.981 240.206 191.723 241.071 188.447 241.858C185.174 242.656 181.903 243.465 178.612 244.186C172.021 245.581 165.406 246.877 158.717 247.838C158.675 247.847 158.633 247.81 158.623 247.765C158.613 247.721 158.637 247.68 158.679 247.671C165.131 245.651 171.659 243.977 178.213 242.415C181.494 241.65 184.795 240.974 188.093 240.288C191.389 239.59 194.702 238.97 198.023 238.384C201.342 237.786 204.65 237.144 207.923 236.346C211.194 235.537 214.427 234.561 217.685 233.696C224.227 232.077 230.841 230.782 237.538 229.854C237.58 229.845 237.621 229.882 237.631 229.927C237.631 229.974 237.607 230.014 237.575 230.021Z" fill="#1E1F21"/>
<path d="M260.948 356.041C254.502 358.082 247.973 359.756 241.372 361.108C238.058 361.727 234.717 362.225 231.419 362.911C228.118 363.587 224.858 364.441 221.604 365.328C218.354 366.226 215.096 367.091 211.82 367.878C208.547 368.676 205.276 369.485 201.985 370.205C195.394 371.601 188.779 372.896 182.09 373.857C182.048 373.867 182.006 373.829 181.996 373.785C181.986 373.74 182.01 373.7 182.052 373.69C188.504 371.671 195.032 369.997 201.586 368.434C204.867 367.67 208.168 366.994 211.466 366.307C214.762 365.61 218.075 364.99 221.396 364.403C224.715 363.806 228.023 363.164 231.296 362.366C234.567 361.556 237.8 360.58 241.058 359.715C247.6 358.097 254.214 356.802 260.911 355.874C260.953 355.864 260.994 355.902 261.004 355.946C261.004 355.993 260.98 356.034 260.948 356.041Z" fill="#1E1F21"/>
<path d="M343.13 320.869C336.684 322.911 330.155 324.585 323.553 325.936C320.24 326.555 316.899 327.053 313.601 327.739C310.3 328.415 307.039 329.269 303.786 330.156C300.535 331.054 297.277 331.919 294.002 332.706C290.728 333.504 287.458 334.313 284.167 335.033C277.575 336.429 270.961 337.724 264.272 338.685C264.23 338.695 264.188 338.657 264.178 338.613C264.168 338.568 264.192 338.528 264.234 338.518C270.685 336.499 277.214 334.825 283.768 333.262C287.049 332.498 290.35 331.822 293.648 331.135C296.944 330.438 300.257 329.818 303.578 329.231C306.896 328.634 310.205 327.992 313.478 327.194C316.749 326.385 319.982 325.408 323.24 324.543C329.781 322.925 336.396 321.63 343.092 320.702C343.134 320.692 343.176 320.73 343.186 320.774C343.186 320.821 343.162 320.862 343.13 320.869Z" fill="#1E1F21"/>
<path d="M406.693 322.799C400.246 324.84 393.718 326.514 387.116 327.865C383.803 328.485 380.462 328.982 377.163 329.669C373.862 330.345 370.602 331.198 367.349 332.086C364.098 332.984 360.84 333.849 357.564 334.636C354.291 335.434 351.02 336.243 347.729 336.963C341.138 338.359 334.524 339.654 327.834 340.615C327.792 340.625 327.751 340.587 327.741 340.543C327.731 340.498 327.755 340.458 327.797 340.448C334.248 338.429 340.777 336.755 347.331 335.192C350.611 334.427 353.912 333.752 357.21 333.065C360.506 332.367 363.82 331.748 367.14 331.161C370.459 330.564 373.767 329.921 377.04 329.123C380.311 328.314 383.544 327.338 386.802 326.473C393.344 324.855 399.958 323.559 406.655 322.632C406.697 322.622 406.738 322.659 406.748 322.704C406.748 322.751 406.724 322.791 406.693 322.799Z" fill="#1E1F21"/>
<path d="M409.443 352.189C402.996 354.231 396.468 355.905 389.866 357.256C386.553 357.876 383.212 358.373 379.913 359.06C376.612 359.735 373.352 360.589 370.099 361.476C366.848 362.374 363.59 363.239 360.314 364.026C357.041 364.824 353.77 365.633 350.479 366.354C343.888 367.749 337.274 369.044 330.584 370.006C330.542 370.015 330.501 369.978 330.491 369.933C330.481 369.889 330.505 369.848 330.547 369.839C336.998 367.819 343.527 366.145 350.081 364.583C353.361 363.818 356.662 363.142 359.96 362.456C363.256 361.758 366.57 361.138 369.89 360.552C373.209 359.954 376.517 359.312 379.79 358.514C383.061 357.705 386.294 356.729 389.552 355.864C396.094 354.245 402.708 352.95 409.405 352.022C409.447 352.013 409.488 352.05 409.498 352.095C409.498 352.142 409.474 352.182 409.443 352.189Z" fill="#1E1F21"/>
<path d="M355.657 377.705C349.211 379.746 342.682 381.421 336.081 382.772C332.767 383.391 329.426 383.889 326.128 384.575C322.827 385.251 319.567 386.105 316.313 386.992C313.063 387.89 309.805 388.755 306.529 389.542C303.256 390.34 299.985 391.149 296.694 391.869C290.103 393.265 283.488 394.56 276.799 395.521C276.757 395.531 276.715 395.493 276.705 395.449C276.695 395.404 276.719 395.364 276.761 395.354C283.213 393.335 289.741 391.661 296.295 390.098C299.576 389.334 302.877 388.658 306.175 387.971C309.471 387.274 312.784 386.654 316.105 386.067C319.424 385.47 322.732 384.828 326.005 384.03C329.276 383.22 332.509 382.244 335.767 381.379C342.309 379.761 348.923 378.466 355.62 377.538C355.662 377.528 355.703 377.566 355.713 377.61C355.713 377.657 355.689 377.698 355.657 377.705Z" fill="#1E1F21"/>
<path d="M412.45 379.678C406.004 381.719 399.475 383.393 392.874 384.744C389.56 385.364 386.219 385.861 382.921 386.548C379.62 387.224 376.36 388.077 373.106 388.964C369.856 389.863 366.598 390.728 363.322 391.515C360.049 392.313 356.778 393.122 353.487 393.842C346.896 395.237 340.281 396.533 333.592 397.494C333.55 397.503 333.508 397.466 333.498 397.422C333.488 397.377 333.512 397.336 333.554 397.327C340.006 395.308 346.534 393.634 353.088 392.071C356.369 391.306 359.67 390.631 362.968 389.944C366.264 389.246 369.577 388.626 372.898 388.04C376.217 387.442 379.525 386.8 382.798 386.002C386.069 385.193 389.302 384.217 392.56 383.352C399.102 381.734 405.716 380.438 412.413 379.51C412.455 379.501 412.496 379.538 412.506 379.583C412.506 379.63 412.482 379.67 412.45 379.678Z" fill="#1E1F21"/>
<path d="M313.668 342.621C309.443 343.959 305.165 345.056 300.839 345.942C298.667 346.348 296.478 346.674 294.317 347.124C292.154 347.567 290.017 348.126 287.885 348.707C285.755 349.296 283.62 349.863 281.473 350.378C279.328 350.901 277.185 351.432 275.028 351.904C270.708 352.818 266.374 353.667 261.99 354.297C261.963 354.303 261.936 354.279 261.929 354.249C261.923 354.22 261.938 354.194 261.966 354.187C266.193 352.864 270.472 351.767 274.767 350.743C276.917 350.242 279.08 349.799 281.241 349.349C283.401 348.892 285.572 348.486 287.749 348.102C289.923 347.71 292.091 347.289 294.236 346.766C296.38 346.236 298.498 345.596 300.633 345.029C304.92 343.969 309.254 343.12 313.643 342.512C313.671 342.506 313.698 342.53 313.704 342.559C313.704 342.59 313.688 342.617 313.668 342.621Z" fill="#1E1F21"/>
<path d="M367.948 302.025C361.502 304.067 354.973 305.741 348.372 307.092C345.058 307.712 341.717 308.209 338.419 308.896C335.118 309.571 331.858 310.425 328.604 311.312C325.354 312.21 322.096 313.075 318.82 313.862C315.547 314.66 312.276 315.469 308.985 316.189C302.394 317.585 295.779 318.88 289.09 319.842C289.048 319.851 289.006 319.814 288.996 319.769C288.986 319.725 289.01 319.684 289.052 319.675C295.504 317.655 302.032 315.981 308.586 314.419C311.867 313.654 315.168 312.978 318.466 312.292C321.762 311.594 325.075 310.974 328.396 310.388C331.715 309.79 335.023 309.148 338.296 308.35C341.567 307.541 344.8 306.564 348.058 305.7C354.6 304.081 361.214 302.786 367.911 301.858C367.953 301.849 367.994 301.886 368.004 301.931C368.004 301.978 367.98 302.018 367.948 302.025Z" fill="#1E1F21"/>
<path d="M402.226 277.709C395.78 279.75 389.251 281.424 382.649 282.775C379.336 283.395 375.995 283.893 372.696 284.579C369.396 285.255 366.135 286.109 362.882 286.996C359.631 287.894 356.373 288.759 353.097 289.546C349.824 290.344 346.553 291.153 343.263 291.873C336.671 293.269 330.057 294.564 323.367 295.525C323.325 295.535 323.284 295.497 323.274 295.453C323.264 295.408 323.288 295.368 323.33 295.358C329.781 293.339 336.31 291.665 342.864 290.102C346.145 289.337 349.445 288.662 352.744 287.975C356.039 287.277 359.353 286.658 362.674 286.071C365.992 285.474 369.3 284.832 372.574 284.034C375.844 283.224 379.077 282.248 382.336 281.383C388.877 279.765 395.491 278.469 402.188 277.542C402.23 277.532 402.272 277.57 402.282 277.614C402.281 277.661 402.257 277.702 402.226 277.709Z" fill="#1E1F21"/>
<path d="M290.395 302.856C287.443 303.79 284.454 304.557 281.431 305.176C279.914 305.459 278.385 305.687 276.874 306.001C275.363 306.311 273.87 306.702 272.381 307.108C270.892 307.519 269.4 307.915 267.9 308.275C266.402 308.641 264.904 309.011 263.397 309.341C260.379 309.98 257.351 310.573 254.288 311.013C254.269 311.018 254.25 311 254.245 310.98C254.241 310.96 254.252 310.941 254.271 310.937C257.225 310.012 260.214 309.246 263.215 308.53C264.717 308.18 266.228 307.871 267.739 307.556C269.248 307.237 270.765 306.953 272.285 306.685C273.805 306.411 275.319 306.117 276.818 305.752C278.316 305.381 279.796 304.934 281.288 304.538C284.283 303.797 287.311 303.204 290.378 302.779C290.397 302.775 290.416 302.792 290.42 302.812C290.42 302.834 290.409 302.852 290.395 302.856Z" fill="#1E1F21"/>
<path d="M277.585 397.002C271.139 399.043 264.61 400.717 258.008 402.068C254.695 402.688 251.354 403.186 248.056 403.872C244.755 404.548 241.494 405.402 238.241 406.289C234.991 407.187 231.732 408.052 228.457 408.839C225.183 409.637 221.913 410.446 218.622 411.166C212.03 412.562 205.416 413.857 198.727 414.818C198.685 414.828 198.643 414.79 198.633 414.746C198.623 414.701 198.647 414.661 198.689 414.651C205.14 412.632 211.669 410.958 218.223 409.395C221.504 408.63 224.805 407.955 228.103 407.268C231.399 406.57 234.712 405.951 238.033 405.364C241.351 404.767 244.66 404.125 247.933 403.326C251.204 402.517 254.437 401.541 257.695 400.676C264.236 399.058 270.851 397.762 277.548 396.835C277.59 396.825 277.631 396.863 277.641 396.907C277.641 396.954 277.617 396.995 277.585 397.002Z" fill="#1E1F21"/>
<path d="M257.54 352.674C251.094 354.715 244.565 356.389 237.964 357.74C234.65 358.36 231.309 358.857 228.011 359.544C224.71 360.22 221.449 361.073 218.196 361.961C214.946 362.859 211.687 363.724 208.412 364.511C205.138 365.309 201.868 366.118 198.577 366.838C191.985 368.234 185.371 369.529 178.682 370.49C178.64 370.5 178.598 370.462 178.588 370.418C178.578 370.373 178.602 370.333 178.644 370.323C185.095 368.304 191.624 366.63 198.178 365.067C201.459 364.302 204.76 363.627 208.058 362.94C211.354 362.242 214.667 361.623 217.988 361.036C221.306 360.439 224.615 359.796 227.888 358.998C231.159 358.189 234.392 357.213 237.65 356.348C244.192 354.73 250.806 353.434 257.503 352.507C257.545 352.497 257.586 352.534 257.596 352.579C257.596 352.626 257.572 352.666 257.54 352.674Z" fill="#1E1F21"/>
<path d="M210.858 375.332C209.203 375.856 207.527 376.286 205.833 376.633C204.982 376.792 204.124 376.92 203.278 377.096C202.43 377.269 201.593 377.488 200.758 377.716C199.924 377.947 199.088 378.169 198.247 378.371C197.407 378.576 196.567 378.783 195.722 378.968C194.03 379.326 192.332 379.659 190.615 379.906C190.605 379.908 190.594 379.898 190.591 379.887C190.589 379.876 190.595 379.865 190.606 379.863C192.262 379.344 193.938 378.915 195.62 378.514C196.462 378.317 197.309 378.144 198.156 377.968C199.002 377.788 199.853 377.629 200.705 377.479C201.557 377.325 202.406 377.161 203.246 376.956C204.086 376.748 204.916 376.497 205.752 376.275C207.431 375.86 209.129 375.528 210.848 375.289C210.859 375.287 210.869 375.297 210.872 375.308C210.872 375.32 210.866 375.33 210.858 375.332Z" fill="#1E1F21"/>
<path d="M262.621 410.192C259.793 411.087 256.93 411.822 254.034 412.414C252.581 412.686 251.116 412.904 249.669 413.205C248.221 413.502 246.791 413.876 245.364 414.265C243.939 414.659 242.51 415.039 241.073 415.384C239.637 415.734 238.203 416.089 236.759 416.404C233.868 417.017 230.967 417.585 228.033 418.006C228.015 418.01 227.997 417.994 227.992 417.974C227.988 417.955 227.999 417.937 228.017 417.933C230.846 417.047 233.71 416.313 236.585 415.628C238.023 415.292 239.471 414.996 240.918 414.695C242.363 414.389 243.817 414.117 245.273 413.86C246.729 413.598 248.18 413.316 249.615 412.966C251.05 412.611 252.468 412.183 253.897 411.804C256.766 411.094 259.667 410.526 262.604 410.119C262.622 410.115 262.641 410.131 262.645 410.151C262.645 410.171 262.634 410.189 262.621 410.192Z" fill="#1E1F21"/>
<path d="M177.932 215.04C174.796 216.034 171.619 216.848 168.407 217.506C166.794 217.807 165.169 218.049 163.564 218.383C161.958 218.712 160.371 219.127 158.788 219.559C157.207 219.996 155.621 220.417 154.027 220.8C152.435 221.188 150.843 221.582 149.242 221.932C146.034 222.611 142.816 223.242 139.561 223.709C139.541 223.714 139.521 223.696 139.516 223.674C139.511 223.653 139.522 223.633 139.543 223.628C142.682 222.646 145.859 221.831 149.048 221.071C150.644 220.699 152.25 220.37 153.855 220.036C155.459 219.696 157.071 219.395 158.687 219.109C160.302 218.819 161.911 218.506 163.504 218.118C165.096 217.724 166.669 217.249 168.254 216.828C171.437 216.041 174.655 215.41 177.914 214.959C177.934 214.954 177.955 214.973 177.959 214.994C177.959 215.017 177.948 215.037 177.932 215.04Z" fill="#1E1F21"/>
<path d="M149.413 204.365C146.276 205.358 143.099 206.173 139.887 206.83C138.275 207.131 136.649 207.373 135.044 207.708C133.438 208.036 131.852 208.452 130.269 208.883C128.687 209.32 127.102 209.741 125.508 210.124C123.915 210.513 122.324 210.906 120.722 211.257C117.515 211.936 114.297 212.566 111.042 213.034C111.021 213.038 111.001 213.02 110.996 212.998C110.991 212.977 111.003 212.957 111.023 212.952C114.162 211.97 117.339 211.155 120.528 210.395C122.125 210.023 123.731 209.694 125.336 209.36C126.939 209.02 128.552 208.719 130.167 208.434C131.782 208.143 133.392 207.83 134.985 207.442C136.576 207.048 138.149 206.573 139.735 206.152C142.917 205.365 146.136 204.735 149.394 204.283C149.415 204.279 149.435 204.297 149.44 204.319C149.44 204.341 149.428 204.361 149.413 204.365Z" fill="#1E1F21"/>
</g>
<defs>
<clipPath id="clip0_4209_9905">
<rect width="458" height="521.55" fill="white" transform="translate(71.4766 6) rotate(7.79348)"/>
</clipPath>
<clipPath id="clip1_4209_9905">
<rect width="110.99" height="22.4979" fill="white" transform="translate(102.305 179.738) rotate(-12.8782)"/>
</clipPath>
<clipPath id="clip2_4209_9905">
<rect width="110.99" height="21.748" fill="white" transform="translate(102.465 180.473) rotate(-12.8782)"/>
</clipPath>
<clipPath id="clip3_4209_9905">
<rect width="29.5092" height="32.1916" fill="white" transform="matrix(0.972839 -0.231484 0.231941 0.97273 139.061 332.996)"/>
</clipPath>
<clipPath id="clip4_4209_9905">
<rect width="29.1129" height="31.1185" fill="white" transform="matrix(0.972839 -0.231484 0.231941 0.97273 138.637 332.371)"/>
</clipPath>
<clipPath id="clip5_4209_9905">
<rect width="29.5092" height="32.1916" fill="white" transform="matrix(0.972839 -0.231484 0.231941 0.97273 150.422 377.113)"/>
</clipPath>
<clipPath id="clip6_4209_9905">
<rect width="29.5092" height="30.1643" fill="white" transform="matrix(-0.203097 -0.979159 0.979063 -0.203557 167.395 451.812)"/>
</clipPath>
</defs>
</svg>
