<svg width="152" height="36" viewBox="0 0 152 36" fill="none" xmlns="http://www.w3.org/2000/svg">
<path d="M34.7334 18C34.7334 27.9411 26.9581 36 17.3667 36C7.77534 36 0 27.9411 0 18C0 8.05887 7.77534 0 17.3667 0C26.9581 0 34.7334 8.05887 34.7334 18ZM2.13101 18C2.13101 26.7213 8.95227 33.7913 17.3667 33.7913C25.7812 33.7913 32.6024 26.7213 32.6024 18C32.6024 9.27872 25.7812 2.20872 17.3667 2.20872C8.95227 2.20872 2.13101 9.27872 2.13101 18Z" fill="#1E1F21"/>
<path fill-rule="evenodd" clip-rule="evenodd" d="M17.3666 28.7626C23.1017 28.7626 27.7508 23.9439 27.7508 17.9998C27.7508 12.0556 23.1017 7.23687 17.3666 7.23687C11.6316 7.23687 6.98239 12.0556 6.98239 17.9998C6.98239 23.9439 11.6316 28.7626 17.3666 28.7626ZM19.3359 19.6705C21.4618 19.6705 23.1852 17.8842 23.1852 15.6808C23.1852 13.4773 21.4618 11.6911 19.3359 11.6911C17.21 11.6911 15.4866 13.4773 15.4866 15.6808C15.4866 17.8842 17.21 19.6705 19.3359 19.6705Z" fill="#1E1F21"/>
<path d="M52.9198 13.7722C52.6216 13.3958 52.252 13.1069 51.8112 12.9053C51.3832 12.7037 50.884 12.6029 50.3135 12.6029C49.7429 12.6029 49.2113 12.7171 48.7185 12.9456C48.2387 13.1741 47.8173 13.4966 47.4542 13.9133C47.1041 14.3165 46.8253 14.8003 46.6178 15.3648C46.4233 15.9293 46.3261 16.5408 46.3261 17.1994C46.3261 17.8714 46.4233 18.4896 46.6178 19.0541C46.8253 19.6051 47.1041 20.089 47.4542 20.5056C47.8043 20.9088 48.2128 21.2246 48.6796 21.4531C49.1594 21.6816 49.6716 21.7958 50.2162 21.7958C50.8386 21.7958 51.3897 21.6614 51.8695 21.3926C52.3493 21.1238 52.7448 20.7475 53.056 20.2637L55.5846 22.2192C55.0011 23.0659 54.262 23.6909 53.3672 24.0941C52.4725 24.4973 51.5518 24.6989 50.6052 24.6989C49.5289 24.6989 48.537 24.5242 47.6293 24.1747C46.7216 23.8253 45.937 23.328 45.2757 22.6829C44.6144 22.0243 44.0957 21.2314 43.7197 20.304C43.3566 19.3766 43.175 18.3418 43.175 17.1994C43.175 16.057 43.3566 15.0221 43.7197 14.0947C44.0957 13.1674 44.6144 12.3811 45.2757 11.736C45.937 11.0774 46.7216 10.5734 47.6293 10.224C48.537 9.87456 49.5289 9.69984 50.6052 9.69984C50.9942 9.69984 51.3962 9.74016 51.8112 9.8208C52.2391 9.888 52.654 10.0022 53.056 10.1635C53.471 10.3248 53.8665 10.5398 54.2425 10.8086C54.6185 11.0774 54.9557 11.4067 55.2539 11.7965L52.9198 13.7722Z" fill="#1E1F21"/>
<path d="M62.7925 23.1062H62.7536C62.4294 23.6304 61.995 24.0067 61.4504 24.2352C60.9187 24.4637 60.3546 24.5779 59.7581 24.5779C59.3173 24.5779 58.8894 24.5107 58.4744 24.3763C58.0724 24.2554 57.7158 24.0672 57.4046 23.8118C57.0934 23.5565 56.847 23.2406 56.6655 22.8643C56.4839 22.488 56.3932 22.0512 56.3932 21.5539C56.3932 20.9894 56.4904 20.5123 56.6849 20.1226C56.8924 19.7328 57.1647 19.4102 57.5019 19.1549C57.852 18.8995 58.2475 18.7046 58.6884 18.5702C59.1292 18.4224 59.5831 18.3149 60.0499 18.2477C60.5297 18.1805 61.003 18.1402 61.4698 18.1267C61.9496 18.1133 62.3905 18.1066 62.7925 18.1066C62.7925 17.569 62.6044 17.1456 62.2284 16.8365C61.8653 16.5139 61.4309 16.3526 60.9252 16.3526C60.4454 16.3526 60.0045 16.4602 59.6025 16.6752C59.2135 16.8768 58.8634 17.159 58.5522 17.5219L56.9961 15.8688C57.5408 15.3446 58.1762 14.9549 58.9023 14.6995C59.6285 14.4307 60.3806 14.2963 61.1586 14.2963C62.0144 14.2963 62.7147 14.4106 63.2593 14.639C63.8169 14.8541 64.2577 15.1766 64.5819 15.6067C64.9191 16.0368 65.1525 16.5677 65.2822 17.1994C65.4118 17.8176 65.4767 18.5366 65.4767 19.3565V24.336H62.7925V23.1062ZM62.0728 20.0419C61.8523 20.0419 61.5735 20.0554 61.2364 20.0822C60.9122 20.0957 60.5945 20.1494 60.2833 20.2435C59.9851 20.3376 59.7257 20.4787 59.5053 20.6669C59.2978 20.855 59.1941 21.1171 59.1941 21.4531C59.1941 21.816 59.3432 22.0848 59.6414 22.2595C59.9397 22.4342 60.2509 22.5216 60.5751 22.5216C60.8604 22.5216 61.1327 22.4813 61.392 22.4006C61.6643 22.32 61.9042 22.2058 62.1117 22.0579C62.3192 21.9101 62.4812 21.7219 62.5979 21.4934C62.7276 21.265 62.7925 20.9962 62.7925 20.687V20.0419H62.0728Z" fill="#1E1F21"/>
<path d="M67.3072 14.5382H70.1081V15.8688H70.147C70.2377 15.6806 70.3674 15.4925 70.536 15.3043C70.7045 15.1162 70.9055 14.9482 71.1389 14.8003C71.3724 14.6525 71.6382 14.5315 71.9364 14.4374C72.2347 14.3434 72.5588 14.2963 72.909 14.2963C73.5703 14.2963 74.1538 14.4374 74.6595 14.7197C75.1782 15.0019 75.5672 15.4454 75.8266 16.0502C76.1637 15.4186 76.5722 14.9683 77.052 14.6995C77.5317 14.4307 78.1217 14.2963 78.822 14.2963C79.4574 14.2963 79.989 14.4106 80.4169 14.639C80.8578 14.8541 81.2015 15.1565 81.4478 15.5462C81.7072 15.9226 81.8887 16.3728 81.9924 16.897C82.1091 17.4077 82.1675 17.9587 82.1675 18.5501V24.336H79.2499V18.6307C79.2499 18.1738 79.1526 17.784 78.9581 17.4614C78.7766 17.1254 78.4459 16.9574 77.9661 16.9574C77.629 16.9574 77.3437 17.0179 77.1103 17.1389C76.8899 17.2464 76.7083 17.401 76.5657 17.6026C76.436 17.8042 76.3388 18.0394 76.2739 18.3082C76.2221 18.577 76.1961 18.8592 76.1961 19.1549V24.336H73.2785V19.1549C73.2785 18.9802 73.272 18.7651 73.2591 18.5098C73.2461 18.2544 73.2007 18.0125 73.1229 17.784C73.0451 17.5555 72.9154 17.3606 72.7339 17.1994C72.5653 17.0381 72.3125 16.9574 71.9753 16.9574C71.5993 16.9574 71.2946 17.0314 71.0611 17.1792C70.8277 17.3136 70.6462 17.5018 70.5165 17.7437C70.3998 17.9722 70.322 18.2342 70.2831 18.5299C70.2442 18.8256 70.2248 19.1347 70.2248 19.4573V24.336H67.3072V14.5382Z" fill="#1E1F21"/>
<path d="M84.5039 14.5382H87.1881V15.8285H87.227C87.3437 15.6538 87.4928 15.479 87.6743 15.3043C87.8688 15.1162 88.0893 14.9482 88.3357 14.8003C88.595 14.6525 88.8738 14.5315 89.172 14.4374C89.4703 14.3434 89.788 14.2963 90.1251 14.2963C90.8254 14.2963 91.4607 14.424 92.0313 14.6794C92.6018 14.9213 93.0881 15.2707 93.4901 15.7277C93.905 16.1712 94.2227 16.7021 94.4432 17.3203C94.6636 17.9386 94.7738 18.6173 94.7738 19.3565C94.7738 20.0419 94.6701 20.7005 94.4626 21.3322C94.2681 21.9504 93.9829 22.5014 93.6068 22.9853C93.2437 23.4691 92.7964 23.8589 92.2647 24.1546C91.7331 24.4368 91.1301 24.5779 90.4558 24.5779C89.8463 24.5779 89.2758 24.4838 88.7441 24.2957C88.2254 24.0941 87.7975 23.7581 87.4604 23.2877H87.4215V28.9325H84.5039V14.5382ZM87.1881 19.4371C87.1881 20.1763 87.3891 20.7744 87.791 21.2314C88.206 21.6883 88.783 21.9168 89.5221 21.9168C90.2613 21.9168 90.8318 21.6883 91.2338 21.2314C91.6488 20.7744 91.8562 20.1763 91.8562 19.4371C91.8562 18.6979 91.6488 18.0998 91.2338 17.6429C90.8318 17.1859 90.2613 16.9574 89.5221 16.9574C88.783 16.9574 88.206 17.1859 87.791 17.6429C87.3891 18.0998 87.1881 18.6979 87.1881 19.4371Z" fill="#1E1F21"/>
<path d="M105.586 24.336H102.785V23.0054H102.746C102.643 23.1936 102.506 23.3818 102.338 23.5699C102.182 23.7581 101.988 23.9261 101.754 24.0739C101.521 24.2218 101.255 24.3427 100.957 24.4368C100.659 24.5309 100.334 24.5779 99.9844 24.5779C99.2452 24.5779 98.6423 24.4637 98.1754 24.2352C97.7216 23.9933 97.365 23.664 97.1057 23.2474C96.8593 22.8307 96.6907 22.3402 96.5999 21.7757C96.5221 21.2112 96.4832 20.5997 96.4832 19.9411V14.5382H99.4008V19.3363C99.4008 19.6186 99.4073 19.9142 99.4203 20.2234C99.4462 20.519 99.5046 20.7946 99.5953 21.0499C99.6991 21.3053 99.8482 21.5136 100.043 21.6749C100.25 21.8362 100.542 21.9168 100.918 21.9168C101.294 21.9168 101.599 21.8496 101.832 21.7152C102.066 21.5674 102.241 21.3792 102.357 21.1507C102.487 20.9088 102.571 20.64 102.61 20.3443C102.649 20.0486 102.669 19.7395 102.669 19.417V14.5382H105.586V24.336Z" fill="#1E1F21"/>
<path d="M113.001 17.4211C112.573 16.8701 112.009 16.5946 111.309 16.5946C111.063 16.5946 110.823 16.655 110.589 16.776C110.356 16.897 110.239 17.1053 110.239 17.401C110.239 17.6429 110.356 17.8243 110.589 17.9453C110.836 18.0528 111.14 18.1536 111.503 18.2477C111.879 18.3283 112.275 18.4224 112.69 18.5299C113.118 18.624 113.513 18.7786 113.876 18.9936C114.252 19.2086 114.557 19.5043 114.791 19.8806C115.037 20.2435 115.16 20.7341 115.16 21.3523C115.16 21.984 115.024 22.5082 114.752 22.9248C114.492 23.328 114.155 23.6573 113.74 23.9126C113.325 24.1546 112.859 24.3226 112.34 24.4166C111.821 24.5242 111.309 24.5779 110.803 24.5779C110.142 24.5779 109.474 24.4838 108.8 24.2957C108.126 24.0941 107.555 23.7446 107.088 23.2474L108.858 21.2112C109.13 21.5606 109.429 21.8294 109.753 22.0176C110.09 22.1923 110.479 22.2797 110.92 22.2797C111.257 22.2797 111.562 22.2326 111.834 22.1386C112.106 22.031 112.243 21.8429 112.243 21.5741C112.243 21.3187 112.119 21.1306 111.873 21.0096C111.64 20.8752 111.335 20.7677 110.959 20.687C110.596 20.593 110.2 20.4989 109.772 20.4048C109.357 20.2973 108.962 20.1427 108.586 19.9411C108.223 19.7395 107.918 19.4573 107.672 19.0944C107.438 18.7181 107.322 18.2208 107.322 17.6026C107.322 17.0246 107.432 16.5274 107.652 16.1107C107.886 15.6941 108.184 15.3514 108.547 15.0826C108.923 14.8138 109.351 14.6189 109.831 14.4979C110.31 14.3635 110.797 14.2963 111.289 14.2963C111.912 14.2963 112.541 14.3904 113.176 14.5786C113.812 14.7667 114.35 15.1027 114.791 15.5866L113.001 17.4211Z" fill="#1E1F21"/>
<path d="M115.036 23.8241C115.498 23.7651 115.84 23.6469 116.062 23.4698C116.283 23.2926 116.467 22.9283 116.613 22.3771L118.996 13.3307C119.041 13.1469 119.079 12.9862 119.11 12.8483C119.167 12.5662 119.196 12.3463 119.196 12.1888C119.196 11.8673 119.107 11.6638 118.93 11.5785C118.753 11.4932 118.37 11.4243 117.781 11.3718V10.8501H123.137C124.334 10.8501 125.262 10.9715 125.92 11.2143C127.129 11.6605 127.734 12.5137 127.734 13.7737C127.734 14.1937 127.633 14.6432 127.43 15.1223C127.228 15.5948 126.889 16.0246 126.414 16.4118C126.078 16.6874 125.686 16.9105 125.236 17.0812C124.97 17.1796 124.556 17.2977 123.992 17.4355C124.049 17.6455 124.087 17.7768 124.106 17.8293L125.616 22.3771C125.819 22.9874 126.034 23.3779 126.262 23.5485C126.496 23.7126 126.851 23.8044 127.326 23.8241V24.336H123.413L121.314 17.6718H120.753L119.604 21.8652L119.443 22.5641C119.43 22.6166 119.421 22.6757 119.414 22.7413C119.408 22.8004 119.405 22.8627 119.405 22.9283C119.405 23.2893 119.487 23.5157 119.652 23.6076C119.823 23.6994 120.212 23.7716 120.82 23.8241V24.336H115.036V23.8241ZM120.934 17.0123C121.63 16.9991 122.15 16.9532 122.492 16.8744C123.099 16.7432 123.565 16.4873 123.888 16.1066C124.109 15.8441 124.315 15.4766 124.505 15.0041C124.701 14.5251 124.799 14.0099 124.799 13.4587C124.799 12.8943 124.663 12.4283 124.391 12.0608C124.119 11.6868 123.657 11.4998 123.004 11.4998C122.732 11.4998 122.536 11.5621 122.416 11.6868C122.295 11.8049 122.191 12.0412 122.102 12.3955L120.934 17.0123Z" fill="#1E1F21"/>
<path d="M134.943 16.5102C134.943 16.2805 134.901 16.0869 134.819 15.9294C134.737 15.7654 134.588 15.6833 134.373 15.6833C133.917 15.6833 133.467 16.064 133.024 16.8252C132.587 17.5865 132.198 18.6529 131.856 20.0244C132.977 19.7619 133.771 19.2566 134.24 18.5085C134.708 17.7604 134.943 17.0943 134.943 16.5102ZM129.092 21.4912C129.092 19.9687 129.656 18.5216 130.783 17.1501C131.948 15.7326 133.227 15.0238 134.62 15.0238C135.221 15.0238 135.718 15.178 136.111 15.4865C136.51 15.7949 136.709 16.2313 136.709 16.7957C136.709 17.6488 136.247 18.456 135.323 19.2172C134.398 19.9785 133.198 20.4641 131.723 20.6741C131.685 20.8776 131.657 21.0679 131.638 21.2451C131.619 21.4223 131.609 21.5666 131.609 21.6782C131.609 22.0916 131.666 22.4165 131.78 22.6527C131.983 23.0924 132.372 23.3123 132.948 23.3123C133.417 23.3123 133.882 23.0629 134.344 22.5641C134.591 22.3016 134.857 21.9374 135.142 21.4715L135.712 21.816C135.224 22.6626 134.765 23.2827 134.335 23.6765C133.651 24.3065 132.85 24.6215 131.932 24.6215C131.248 24.6215 130.602 24.3655 129.994 23.8537C129.393 23.3352 129.092 22.5477 129.092 21.4912Z" fill="#1E1F21"/>
<path d="M143.585 16.5102C143.585 16.2805 143.544 16.0869 143.462 15.9294C143.38 15.7654 143.231 15.6833 143.015 15.6833C142.56 15.6833 142.11 16.064 141.667 16.8252C141.23 17.5865 140.841 18.6529 140.499 20.0244C141.619 19.7619 142.414 19.2566 142.882 18.5085C143.351 17.7604 143.585 17.0943 143.585 16.5102ZM137.735 21.4912C137.735 19.9687 138.298 18.5216 139.425 17.1501C140.59 15.7326 141.869 15.0238 143.262 15.0238C143.864 15.0238 144.361 15.178 144.753 15.4865C145.152 15.7949 145.352 16.2313 145.352 16.7957C145.352 17.6488 144.89 18.456 143.965 19.2172C143.041 19.9785 141.841 20.4641 140.366 20.6741C140.328 20.8776 140.299 21.0679 140.28 21.2451C140.261 21.4223 140.252 21.5666 140.252 21.6782C140.252 22.0916 140.309 22.4165 140.423 22.6527C140.625 23.0924 141.015 23.3123 141.591 23.3123C142.059 23.3123 142.525 23.0629 142.987 22.5641C143.234 22.3016 143.5 21.9374 143.785 21.4715L144.355 21.816C143.867 22.6626 143.408 23.2827 142.977 23.6765C142.294 24.3065 141.493 24.6215 140.575 24.6215C139.891 24.6215 139.245 24.3655 138.637 23.8537C138.036 23.3352 137.735 22.5477 137.735 21.4912Z" fill="#1E1F21"/>
<path d="M146.397 23.1744C146.397 23.0038 146.438 22.7348 146.52 22.3673C146.558 22.1901 146.621 21.9308 146.71 21.5896L149.008 12.9074C149.065 12.6843 149.106 12.5038 149.132 12.366C149.157 12.2282 149.17 12.1101 149.17 12.0116C149.17 11.7163 149.075 11.5358 148.885 11.4702C148.695 11.4046 148.385 11.3783 147.954 11.3915V10.8501C148.917 10.7516 149.565 10.6794 149.901 10.6335C150.243 10.581 150.943 10.453 152 10.2496L149.189 20.7922C149.049 21.3238 148.964 21.6618 148.932 21.8062C148.818 22.2852 148.761 22.6035 148.761 22.761C148.761 22.8988 148.796 22.9907 148.866 23.0366C148.935 23.0826 148.999 23.1055 149.056 23.1055C149.246 23.1055 149.486 22.9349 149.778 22.5937C150.075 22.2524 150.338 21.8849 150.566 21.4912L150.993 21.7766C150.423 22.6823 149.961 23.3123 149.607 23.6666C149.018 24.2573 148.391 24.5526 147.726 24.5526C147.365 24.5526 147.052 24.4279 146.786 24.1785C146.526 23.9226 146.397 23.5879 146.397 23.1744Z" fill="#1E1F21"/>
</svg>
