<svg width="153" height="77" viewBox="0 0 153 77" fill="none" xmlns="http://www.w3.org/2000/svg">
<g clip-path="url(#clip0_1_1529)">
<mask id="mask0_1_1529" style="mask-type:luminance" maskUnits="userSpaceOnUse" x="0" y="0" width="153" height="77">
<path d="M153 0H0V77H153V0Z" fill="white"/>
</mask>
<g mask="url(#mask0_1_1529)">
<path d="M75.0698 33.5877C77.1027 33.5877 78.7505 31.9382 78.7505 29.9031C78.7505 27.8682 77.1027 26.2186 75.0698 26.2186C73.0369 26.2186 71.3891 27.8682 71.3891 29.9031C71.3891 31.9382 73.0369 33.5877 75.0698 33.5877Z" fill="#1E1F21"/>
<path d="M87.9268 26.7597C89.9597 26.7597 91.6074 25.11 91.6074 23.0751C91.6074 21.0402 89.9597 19.3906 87.9268 19.3906C85.8938 19.3906 84.2461 21.0402 84.2461 23.0751C84.2461 25.11 85.8938 26.7597 87.9268 26.7597Z" fill="#1E1F21"/>
<path d="M87.1304 43.0253C89.1633 43.0253 90.8111 41.3758 90.8111 39.3408C90.8111 37.3057 89.1633 35.6562 87.1304 35.6562C85.0975 35.6562 83.4497 37.3057 83.4497 39.3408C83.4497 41.3758 85.0975 43.0253 87.1304 43.0253Z" fill="#1E1F21"/>
<path d="M87.2086 22.9017C87.6312 22.7121 88.1268 22.9014 88.3165 23.3248C88.5058 23.7476 88.3168 24.2443 87.8938 24.4341L74.523 30.4298C74.1003 30.6193 73.6044 30.4301 73.4151 30.007C73.2254 29.5839 73.4148 29.0875 73.8374 28.8979L87.2086 22.9017Z" fill="#1E1F21"/>
<path d="M87.3976 38.1566C87.7599 38.4453 87.82 38.9737 87.5316 39.3363C87.2433 39.6991 86.7157 39.7593 86.3532 39.4707L74.888 30.3399C74.5252 30.0512 74.4654 29.5231 74.7537 29.1605C75.0421 28.7979 75.5697 28.7377 75.9319 29.0261L87.3976 38.1566Z" fill="#1E1F21"/>
<path d="M75.0679 33.7128C77.1008 33.7128 78.7486 32.0633 78.7486 30.0283C78.7486 27.9934 77.1008 26.3438 75.0679 26.3438C73.035 26.3438 71.3872 27.9934 71.3872 30.0283C71.3872 32.0633 73.035 33.7128 75.0679 33.7128Z" fill="#1E1F21"/>
<path d="M62.436 43.08C64.469 43.08 66.1167 41.4305 66.1167 39.3955C66.1167 37.3604 64.469 35.7109 62.436 35.7109C60.4031 35.7109 58.7554 37.3604 58.7554 39.3955C58.7554 41.4305 60.4031 43.08 62.436 43.08Z" fill="#1E1F21"/>
<path d="M61.6726 27.2675C63.7055 27.2675 65.3533 25.6179 65.3533 23.583C65.3533 21.5481 63.7055 19.8984 61.6726 19.8984C59.6397 19.8984 57.9919 21.5481 57.9919 23.583C57.9919 25.6179 59.6397 27.2675 61.6726 27.2675Z" fill="#1E1F21"/>
<path d="M63.1736 39.4291C62.7937 39.6943 62.2712 39.6008 62.0064 39.2202C61.7415 38.84 61.8346 38.3167 62.215 38.0518L74.2355 29.6664C74.615 29.4015 75.1378 29.4947 75.4027 29.8752C75.6673 30.2552 75.5736 30.7788 75.194 31.0437L63.1736 39.4291Z" fill="#1E1F21"/>
<path d="M61.7274 24.7981C61.3022 24.6147 61.1056 24.1211 61.2888 23.6952C61.472 23.2693 61.9648 23.0728 62.3903 23.2562L75.8481 29.0547C76.2733 29.2378 76.4693 29.7315 76.2861 30.1573C76.1032 30.5832 75.6098 30.7801 75.1844 30.5964L61.7274 24.7981Z" fill="#1E1F21"/>
<path d="M74.7333 33.2675C76.7662 33.2675 78.414 31.618 78.414 29.583C78.414 27.5481 76.7662 25.8984 74.7333 25.8984C72.7004 25.8984 71.0526 27.5481 71.0526 29.583C71.0526 31.618 72.7004 33.2675 74.7333 33.2675Z" fill="#1E1F21"/>
<path d="M74.6123 33.2597C76.6452 33.2597 78.293 31.6102 78.293 29.5751C78.293 27.5402 76.6452 25.8906 74.6123 25.8906C72.5794 25.8906 70.9316 27.5402 70.9316 29.5751C70.9316 31.6102 72.5794 33.2597 74.6123 33.2597Z" fill="#1E1F21"/>
<path d="M74.7092 19.9003C76.7421 19.9003 78.3899 18.2507 78.3899 16.2158C78.3899 14.1809 76.7421 12.5312 74.7092 12.5312C72.6763 12.5312 71.0286 14.1809 71.0286 16.2158C71.0286 18.2507 72.6763 19.9003 74.7092 19.9003Z" fill="#1E1F21"/>
<path d="M74.2627 16.7971C74.2602 16.3337 74.6336 15.9559 75.0965 15.9531C75.5597 15.9509 75.937 16.3244 75.9398 16.7881L76.0173 31.4542C76.0198 31.9179 75.6464 32.2959 75.1832 32.2981C74.7203 32.3004 74.3427 31.9269 74.3405 31.4629L74.2627 16.7971Z" fill="#1E1F21"/>
<path d="M93.347 9.39062H78.6915V12.3189H91.0881C92.1546 12.3189 93.0189 13.2353 93.0189 14.3662V43.3135C93.0189 44.4441 92.1546 45.3608 91.0881 45.3608H78.6915V48.2921H93.347C94.5747 48.2921 95.5693 47.213 95.5693 45.8822V11.8009C95.5696 10.4697 94.5747 9.39062 93.347 9.39062Z" fill="#1E1F21"/>
<path d="M56.0989 9.39062H70.7548V12.3189H58.3578C57.2913 12.3189 56.427 13.2353 56.427 14.3662V43.3135C56.427 44.4441 57.2913 45.3608 58.3578 45.3608H70.7548V48.2921H56.0989C54.8716 48.2921 53.8766 47.213 53.8766 45.8822V11.8009C53.8766 10.4697 54.8716 9.39062 56.0989 9.39062Z" fill="#1E1F21"/>
<path d="M8.1033 54.9344C9.55096 54.9344 10.7907 55.2967 11.8225 56.0211C12.8698 56.7303 13.6629 57.7016 14.2019 58.935C14.7563 60.1528 15.0335 61.5172 15.0335 63.0281C15.0335 64.539 14.7563 65.911 14.2019 67.1444C13.6629 68.3621 12.8698 69.3334 11.8225 70.058C10.7907 70.7673 9.55096 71.1218 8.1033 71.1218H2.58224C2.18183 71.1218 1.84302 70.9907 1.56581 70.7286C1.304 70.4512 1.1731 70.1121 1.1731 69.7111V56.345C1.1731 55.9441 1.304 55.6126 1.56581 55.3505C1.84302 55.073 2.18183 54.9344 2.58224 54.9344H8.1033ZM7.87229 68.4623C9.25836 68.4623 10.2979 67.9536 10.9909 66.936C11.6839 65.9031 12.0305 64.6006 12.0305 63.0281C12.0305 61.4556 11.6762 60.1606 10.9678 59.1431C10.2748 58.1102 9.24294 57.5936 7.87229 57.5936H4.06069V68.4623H7.87229ZM30.2559 69.318C30.3331 69.5185 30.3714 69.7036 30.3714 69.873C30.3714 70.2739 30.2405 70.6054 29.9787 70.8675C29.7169 71.1139 29.4168 71.2374 29.0778 71.2374C28.8006 71.2374 28.5466 71.1526 28.3156 70.9829C28.0999 70.8135 27.9305 70.5822 27.8073 70.2893L26.6061 67.4913H19.7221L18.5208 70.3123C18.413 70.6054 18.2436 70.8364 18.0126 71.0061C17.797 71.1604 17.5583 71.2374 17.2965 71.2374C16.8961 71.2374 16.5881 71.1296 16.3725 70.9137C16.1723 70.6978 16.0722 70.405 16.0722 70.0348C16.0722 69.8962 16.0953 69.7498 16.1415 69.5955L21.8936 55.7668C22.0168 55.4586 22.2016 55.2194 22.448 55.05C22.6944 54.8804 22.9716 54.8109 23.2796 54.8417C23.5568 54.8417 23.8109 54.9266 24.0419 55.0962C24.2883 55.2502 24.4654 55.474 24.5732 55.7668L30.2559 69.318ZM25.4742 64.8318L23.141 59.4206L20.854 64.8318H25.4742ZM41.8034 54.9344C42.219 54.9344 42.558 55.0576 42.8198 55.3043C43.0816 55.551 43.2125 55.8746 43.2125 56.2756C43.2125 56.6763 43.0816 57.0002 42.8198 57.2469C42.558 57.4782 42.219 57.5936 41.8034 57.5936H38.1764V69.7111C38.1764 70.1121 38.0301 70.4512 37.7375 70.7286C37.445 70.9907 37.083 71.1218 36.652 71.1218C36.2207 71.1218 35.8663 70.9907 35.5891 70.7286C35.3119 70.4512 35.1735 70.1121 35.1735 69.7111V57.5936H31.5465C31.1308 57.5936 30.7918 57.4704 30.53 57.2237C30.2682 56.977 30.1373 56.6533 30.1373 56.2524C30.1373 55.8671 30.2682 55.551 30.53 55.3043C30.8075 55.0576 31.1462 54.9344 31.5465 54.9344H41.8034ZM57.1694 69.318C57.2463 69.5185 57.2849 69.7036 57.2849 69.873C57.2849 70.2739 57.154 70.6054 56.8922 70.8675C56.6304 71.1139 56.33 71.2374 55.9912 71.2374C55.7141 71.2374 55.4598 71.1526 55.2288 70.9829C55.0131 70.8135 54.8439 70.5822 54.7205 70.2893L53.5195 67.4913H46.6353L45.434 70.3123C45.3263 70.6054 45.1568 70.8364 44.926 71.0061C44.7104 71.1604 44.4715 71.2374 44.2097 71.2374C43.8094 71.2374 43.5015 71.1296 43.2858 70.9137C43.0855 70.6978 42.9854 70.405 42.9854 70.0348C42.9854 69.8962 43.0086 69.7498 43.0548 69.5955L48.8067 55.7668C48.93 55.4586 49.1149 55.2194 49.3613 55.05C49.6078 54.8804 49.8849 54.8109 50.1929 54.8417C50.4701 54.8417 50.7241 54.9266 50.9551 55.0962C51.2015 55.2502 51.3786 55.474 51.4866 55.7668L57.1694 69.318ZM52.3875 64.8318L50.0542 59.4206L47.7673 64.8318H52.3875ZM68.9246 54.8882C69.3098 54.8882 69.6407 55.0192 69.9179 55.2813C70.2107 55.5434 70.357 55.8592 70.357 56.2294C70.357 56.4299 70.3106 56.6379 70.2183 56.8538L64.5125 70.2199C64.3738 70.5128 64.1814 70.7365 63.9349 70.8905C63.6885 71.0448 63.4267 71.1218 63.1495 71.1218C62.8877 71.1064 62.6413 71.0294 62.4102 70.8905C62.1946 70.7365 62.0254 70.5206 61.902 70.2431L56.1963 56.8306C56.1191 56.6763 56.0807 56.4836 56.0807 56.2524C56.0807 55.8363 56.2346 55.5048 56.5425 55.2581C56.8508 54.996 57.1663 54.865 57.4899 54.865C57.7517 54.865 57.9981 54.942 58.2289 55.0962C58.4599 55.2502 58.637 55.474 58.7603 55.7668L63.4035 66.705L67.6542 55.7668C67.7773 55.4894 67.9543 55.2735 68.1854 55.1192C68.4164 54.9652 68.6628 54.8882 68.9246 54.8882ZM84.6691 69.318C84.746 69.5185 84.7846 69.7036 84.7846 69.873C84.7846 70.2739 84.6537 70.6054 84.3919 70.8675C84.1301 71.1139 83.8297 71.2374 83.491 71.2374C83.2138 71.2374 82.9595 71.1526 82.7285 70.9829C82.5131 70.8135 82.3436 70.5822 82.2205 70.2893L81.0192 67.4913H74.135L72.934 70.3123C72.826 70.6054 72.6568 70.8364 72.4257 71.0061C72.2101 71.1604 71.9715 71.2374 71.7097 71.2374C71.3091 71.2374 71.0012 71.1296 70.7855 70.9137C70.5853 70.6978 70.4851 70.405 70.4851 70.0348C70.4851 69.8962 70.5083 69.7498 70.5545 69.5955L76.3067 55.7668C76.4297 55.4586 76.6146 55.2194 76.861 55.05C77.1075 54.8804 77.3847 54.8109 77.6926 54.8417C77.9698 54.8417 78.2241 54.9266 78.4551 55.0962C78.7012 55.2502 78.8786 55.474 78.9863 55.7668L84.6691 69.318ZM79.8872 64.8318L77.5542 59.4206L75.267 64.8318H79.8872ZM96.2163 54.9344C96.6322 54.9344 96.9709 55.0576 97.2327 55.3043C97.4945 55.551 97.6254 55.8746 97.6254 56.2756C97.6254 56.6763 97.4945 57.0002 97.2327 57.2469C96.9709 57.4782 96.6322 57.5936 96.2163 57.5936H92.5896V69.7111C92.5896 70.1121 92.4433 70.4512 92.1507 70.7286C91.8581 70.9907 91.4962 71.1218 91.0649 71.1218C90.6336 71.1218 90.2795 70.9907 90.0023 70.7286C89.7251 70.4512 89.5863 70.1121 89.5863 69.7111V57.5936H85.9597C85.5437 57.5936 85.205 57.4704 84.9432 57.2237C84.6814 56.977 84.5505 56.6533 84.5505 56.2524C84.5505 55.8671 84.6814 55.551 84.9432 55.3043C85.2204 55.0576 85.5591 54.9344 85.9597 54.9344H96.2163ZM102.938 69.7111C102.938 70.1121 102.792 70.4512 102.499 70.7286C102.207 70.9907 101.868 71.1218 101.483 71.1218C101.067 71.1218 100.72 70.9907 100.443 70.7286C100.181 70.4512 100.05 70.1121 100.05 69.7111V56.345C100.05 55.9441 100.189 55.6126 100.466 55.3505C100.744 55.073 101.098 54.9344 101.529 54.9344C101.914 54.9344 102.245 55.073 102.522 55.3505C102.799 55.6126 102.938 55.9441 102.938 56.345V69.7111ZM121.289 63.0281C121.289 64.5544 120.95 65.9572 120.273 67.2368C119.595 68.501 118.656 69.5031 117.454 70.2431C116.268 70.9829 114.929 71.353 113.435 71.353C111.941 71.353 110.593 70.9829 109.392 70.2431C108.206 69.5031 107.275 68.501 106.597 67.2368C105.935 65.9572 105.604 64.5544 105.604 63.0281C105.604 61.5018 105.935 60.1066 106.597 58.8424C107.275 57.5628 108.206 56.5531 109.392 55.813C110.593 55.073 111.941 54.7031 113.435 54.7031C114.929 54.7031 116.268 55.073 117.454 55.813C118.656 56.5531 119.595 57.5628 120.273 58.8424C120.95 60.1066 121.289 61.5018 121.289 63.0281ZM118.286 63.0281C118.286 61.9952 118.078 61.0625 117.662 60.23C117.247 59.3819 116.669 58.7113 115.93 58.218C115.19 57.7246 114.359 57.4782 113.435 57.4782C112.496 57.4782 111.656 57.7246 110.917 58.218C110.193 58.6959 109.623 59.359 109.208 60.2068C108.807 61.0546 108.607 61.9952 108.607 63.0281C108.607 64.061 108.807 65.0012 109.208 65.8494C109.623 66.6972 110.193 67.3678 110.917 67.8612C111.656 68.3391 112.496 68.578 113.435 68.578C114.359 68.578 115.19 68.3313 115.93 67.8379C116.669 67.3446 117.247 66.6818 117.662 65.8494C118.078 65.0012 118.286 64.061 118.286 63.0281ZM136.207 54.9344C136.577 54.9344 136.877 55.0576 137.108 55.3043C137.339 55.551 137.455 55.8592 137.455 56.2294V69.7111C137.455 70.1121 137.316 70.4512 137.039 70.7286C136.777 70.9907 136.446 71.1218 136.046 71.1218C135.83 71.1218 135.614 71.091 135.399 71.0294C135.199 70.9521 135.052 70.8518 134.96 70.7286L126.482 59.9526V69.8268C126.482 70.1966 126.359 70.5052 126.112 70.7519C125.881 70.9986 125.573 71.1218 125.188 71.1218C124.819 71.1218 124.518 70.9986 124.287 70.7519C124.056 70.5052 123.941 70.1966 123.941 69.8268V56.345C123.941 55.9441 124.072 55.6126 124.334 55.3505C124.611 55.073 124.949 54.9344 125.35 54.9344C125.581 54.9344 125.804 54.9806 126.02 55.073C126.251 55.1657 126.42 55.2889 126.528 55.4432L134.937 66.173V56.2294C134.937 55.8592 135.052 55.551 135.283 55.3043C135.53 55.0576 135.838 54.9344 136.207 54.9344ZM146.126 71.353C145.017 71.353 144.031 71.2142 143.169 70.9367C142.306 70.6592 141.498 70.1891 140.743 69.526C140.328 69.1562 140.119 68.7476 140.119 68.3005C140.119 67.946 140.25 67.6377 140.512 67.3756C140.774 67.0982 141.09 66.9593 141.459 66.9593C141.752 66.9593 142.014 67.0517 142.245 67.2368C142.861 67.7455 143.461 68.1154 144.047 68.3467C144.632 68.578 145.325 68.6936 146.126 68.6936C146.988 68.6936 147.727 68.501 148.343 68.1154C148.975 67.7301 149.29 67.2522 149.29 66.6818C149.29 65.988 148.983 65.4484 148.366 65.0631C147.75 64.6622 146.773 64.3617 145.433 64.1612C142.06 63.6679 140.374 62.0954 140.374 59.4438C140.374 58.4725 140.628 57.6322 141.136 56.923C141.644 56.1986 142.337 55.6512 143.215 55.2813C144.093 54.8958 145.071 54.7031 146.149 54.7031C147.119 54.7031 148.028 54.8496 148.875 55.1424C149.737 55.4353 150.453 55.8209 151.023 56.2988C151.47 56.6533 151.693 57.0618 151.693 57.5244C151.693 57.8789 151.562 58.195 151.3 58.4725C151.038 58.7346 150.73 58.8656 150.376 58.8656C150.145 58.8656 149.937 58.7962 149.753 58.6576C149.352 58.3336 148.79 58.0407 148.066 57.7786C147.358 57.5012 146.719 57.3626 146.149 57.3626C145.178 57.3626 144.424 57.5474 143.885 57.9175C143.361 58.272 143.099 58.7421 143.099 59.3282C143.099 59.9909 143.369 60.4921 143.908 60.8312C144.462 61.1703 145.325 61.4478 146.495 61.6636C147.82 61.8949 148.875 62.1956 149.66 62.5655C150.461 62.92 151.062 63.4134 151.462 64.0456C151.862 64.6622 152.063 65.487 152.063 66.52C152.063 67.4913 151.785 68.3467 151.231 69.0867C150.692 69.8114 149.968 70.3742 149.059 70.7748C148.151 71.1604 147.173 71.353 146.126 71.353Z" fill="#1E1F21"/>
</g>
</g>
<defs>
<clipPath id="clip0_1_1529">
<rect width="153" height="77" fill="white"/>
</clipPath>
</defs>
</svg>
