<svg width="127" height="76" viewBox="0 0 127 76" fill="none" xmlns="http://www.w3.org/2000/svg">
<g clip-path="url(#clip0_1_1519)">
<path d="M63.499 0C53.007 0 44.5 8.55833 44.5 19.1136H63.499V0Z" fill="#1E1F21"/>
<path d="M44.5 20.8906V40.0042H63.499V20.8906C63.499 31.4459 72.006 40.0042 82.498 40.0042V20.8906H63.499H44.5Z" fill="#1E1F21"/>
<path d="M82.499 0C72.007 0 63.5 8.55833 63.5 19.1136H82.499V0Z" fill="#1E1F21"/>
</g>
<path d="M7.99991 74.5053V56.7965H20.0535V60.1152H12.301V64.3367H18.9915V67.7085H12.301V74.5053H7.99991Z" fill="#1E1F21"/>
<path d="M28.6993 74.9035C27.4603 74.9035 26.3629 74.7088 25.4071 74.3194C24.4513 73.93 23.7079 73.3371 23.1769 72.5406C22.6459 71.7264 22.3804 70.6732 22.3804 69.3811V61.071H26.3363V69.0625C26.3363 69.9121 26.5222 70.5493 26.8939 70.9741C27.2833 71.3812 27.8939 71.5848 28.7258 71.5848C29.5754 71.5848 30.1861 71.3812 30.5577 70.9741C30.9294 70.5493 31.1153 69.9121 31.1153 69.0625V61.071H34.8323V69.3811C34.8323 71.2927 34.2836 72.691 33.1862 73.576C32.0888 74.461 30.5931 74.9035 28.6993 74.9035Z" fill="#1E1F21"/>
<path d="M41.9897 74.5053H38.0604V56H41.9897V74.5053Z" fill="#1E1F21"/>
<path d="M49.1655 74.5053H45.2361V56H49.1655V74.5053Z" fill="#1E1F21"/>
<path d="M60.3768 74.8504C57.5448 74.8504 55.3765 74.107 53.872 72.6202C52.3853 71.1157 51.6419 68.797 51.6419 65.6642C51.6419 62.6198 52.3587 60.3188 53.7924 58.7612C55.2261 57.1859 57.4209 56.3982 60.3768 56.3982C61.3149 56.3982 62.2618 56.5133 63.2176 56.7434C64.1734 56.9735 65.1026 57.2921 66.0053 57.6992V61.4427C65.0849 60.8409 64.1999 60.4073 63.3503 60.1418C62.5008 59.8763 61.7043 59.7435 60.9609 59.7435C59.9166 59.7435 59.0316 59.9294 58.3059 60.3011C57.5979 60.6728 57.0492 61.2923 56.6598 62.1596C56.2881 63.0269 56.1022 64.1951 56.1022 65.6642C56.1022 67.1332 56.2881 68.2926 56.6598 69.1422C57.0492 69.9918 57.6156 70.6024 58.359 70.9741C59.1201 71.3281 60.0493 71.5051 61.1467 71.5051C61.8016 71.5051 62.545 71.3812 63.3769 71.1334C64.2088 70.8856 65.0849 70.4608 66.0053 69.859V73.6026C65.5097 73.8504 64.9433 74.0716 64.3061 74.2663C63.6866 74.4433 63.0317 74.5849 62.3415 74.6911C61.6689 74.7973 61.014 74.8504 60.3768 74.8504Z" fill="#1E1F21"/>
<path d="M74.923 74.9035C72.6574 74.9035 70.9493 74.3017 69.7989 73.0981C68.6661 71.8768 68.0997 70.0891 68.0997 67.735C68.0997 65.204 68.6749 63.3897 69.8254 62.2923C70.9936 61.1772 72.6928 60.6197 74.923 60.6197C76.4275 60.6197 77.6842 60.8763 78.6931 61.3896C79.7197 61.8852 80.4896 62.6552 81.0029 63.6995C81.5339 64.7438 81.7994 66.0889 81.7994 67.735C81.7994 70.0891 81.2064 71.8768 80.0206 73.0981C78.8347 74.3017 77.1355 74.9035 74.923 74.9035ZM74.923 71.7441C75.5779 71.7441 76.1177 71.5936 76.5425 71.2927C76.985 70.9741 77.3125 70.5228 77.5249 69.9387C77.755 69.3369 77.87 68.6023 77.87 67.735C77.87 66.7438 77.755 65.965 77.5249 65.3987C77.3125 64.8146 76.985 64.3986 76.5425 64.1508C76.1 63.8853 75.5602 63.7526 74.923 63.7526C74.2504 63.7526 73.7017 63.8853 73.2769 64.1508C72.8521 64.4163 72.5335 64.8411 72.3211 65.4252C72.1264 65.9916 72.029 66.7615 72.029 67.735C72.029 69.0802 72.2591 70.0891 72.7193 70.7617C73.1972 71.4166 73.9318 71.7441 74.923 71.7441Z" fill="#1E1F21"/>
<path d="M90.5832 74.9035C89.3443 74.9035 88.2469 74.7088 87.2911 74.3194C86.3353 73.93 85.5919 73.3371 85.0609 72.5406C84.5299 71.7264 84.2644 70.6732 84.2644 69.3811V61.071H88.2203V69.0625C88.2203 69.9121 88.4062 70.5493 88.7779 70.9741C89.1673 71.3812 89.7779 71.5848 90.6098 71.5848C91.4594 71.5848 92.07 71.3812 92.4417 70.9741C92.8134 70.5493 92.9993 69.9121 92.9993 69.0625V61.071H96.7163V69.3811C96.7163 71.2927 96.1676 72.691 95.0702 73.576C93.9728 74.461 92.4771 74.9035 90.5832 74.9035Z" fill="#1E1F21"/>
<path d="M99.9444 74.5053V62.4782C100.192 62.2658 100.635 62.0268 101.272 61.7613C101.909 61.4781 102.635 61.2303 103.449 61.0179C104.281 60.7878 105.113 60.6728 105.945 60.6728C106.777 60.6728 107.431 60.7347 107.909 60.8586C108.387 60.9825 108.75 61.1418 108.998 61.3365V64.2305C108.697 64.1597 108.316 64.1066 107.856 64.0712C107.396 64.0358 106.918 64.0181 106.423 64.0181C105.927 64.0004 105.458 64.0004 105.015 64.0181C104.573 64.0358 104.201 64.0712 103.9 64.1243V74.5053H99.9444Z" fill="#1E1F21"/>
<path d="M116.531 75.0363C114.973 75.0363 113.814 74.6734 113.053 73.9477C112.292 73.2043 111.911 72.16 111.911 70.8148V64.0977H109.947V61.071H111.911V57.3806H116.053V61.071H119V64.0977H116.053V70.3104C116.053 70.7706 116.15 71.1157 116.345 71.3458C116.54 71.5582 116.867 71.6644 117.327 71.6644C117.593 71.6644 117.885 71.6113 118.204 71.5051C118.522 71.3989 118.788 71.2662 119 71.1069V74.5053C118.628 74.7 118.221 74.8327 117.779 74.9035C117.354 74.992 116.938 75.0363 116.531 75.0363Z" fill="#1E1F21"/>
<defs>
<clipPath id="clip0_1_1519">
<rect width="38" height="40" fill="white" transform="translate(44.5)"/>
</clipPath>
</defs>
</svg>
