<svg width="148" height="39" viewBox="0 0 148 39" fill="none" xmlns="http://www.w3.org/2000/svg">
<mask id="path-1-outside-1_1_1023" maskUnits="userSpaceOnUse" x="46.1523" y="-0.078186" width="102" height="35" fill="black">
<rect fill="white" x="46.1523" y="-0.078186" width="102" height="35"/>
<path d="M65.7575 24.5231C65.7575 27.6929 64.9353 30.0933 63.2909 31.7241C61.67 33.3779 59.1917 34.2048 55.8559 34.2048C54.329 34.2048 52.8255 34.0326 51.3456 33.688C49.8656 33.3664 48.5031 32.7233 47.2581 31.7586L50.1827 27.4862C51.0049 28.1523 51.8624 28.6806 52.755 29.0711C53.6712 29.4616 54.6696 29.6568 55.7502 29.6568C57.3711 29.6568 58.5574 29.2664 59.3092 28.4854C60.0844 27.7274 60.472 26.7512 60.472 25.5568V23.9374H60.4015C59.7907 24.7413 59.0273 25.3156 58.1111 25.6601C57.2184 25.9817 56.3727 26.1425 55.574 26.1425C54.3055 26.1425 53.1544 25.9358 52.1208 25.5223C51.0872 25.0859 50.1945 24.4887 49.4428 23.7307C48.7145 22.9497 48.1507 22.0309 47.7514 20.9743C47.352 19.9177 47.1523 18.7577 47.1523 17.4944C47.1523 16.3919 47.3285 15.3123 47.6809 14.2557C48.0568 13.1991 48.5736 12.2688 49.2313 11.4649C49.9126 10.6609 50.7348 10.0178 51.6979 9.53543C52.6611 9.0301 53.7534 8.77743 54.975 8.77743C55.7267 8.77743 56.408 8.85783 57.0187 9.01861C57.653 9.1794 58.2168 9.38613 58.7101 9.63879C59.2034 9.89146 59.6263 10.1786 59.9787 10.5002C60.331 10.7988 60.6129 11.0974 60.8243 11.396H60.8948V9.19089H65.7575V24.5231ZM52.4379 17.46C52.4379 18.0112 52.5436 18.5395 52.755 19.0449C52.9665 19.5272 53.2601 19.9637 53.636 20.3541C54.0353 20.7217 54.4817 21.0203 54.975 21.25C55.4918 21.4796 56.0556 21.5945 56.6664 21.5945C57.2537 21.5945 57.8057 21.4796 58.3225 21.25C58.8393 21.0203 59.2857 20.7217 59.6615 20.3541C60.0609 19.9637 60.3663 19.5272 60.5777 19.0449C60.7891 18.5395 60.8948 18.0112 60.8948 17.46C60.8948 16.9087 60.7891 16.3919 60.5777 15.9095C60.3663 15.4042 60.0609 14.9678 59.6615 14.6002C59.2857 14.2098 58.8393 13.8997 58.3225 13.67C57.8057 13.4403 57.2537 13.3254 56.6664 13.3254C56.0556 13.3254 55.4918 13.4403 54.975 13.67C54.4817 13.8997 54.0353 14.2098 53.636 14.6002C53.2601 14.9678 52.9665 15.4042 52.755 15.9095C52.5436 16.3919 52.4379 16.9087 52.4379 17.46Z"/>
<path d="M68.2905 9.19089H73.5761V25.9358H68.2905V9.19089ZM67.8676 3.91935C67.8676 3.09244 68.1613 2.39187 68.7486 1.81763C69.3593 1.22042 70.0876 0.921814 70.9333 0.921814C71.779 0.921814 72.4954 1.22042 73.0827 1.81763C73.6935 2.39187 73.9989 3.09244 73.9989 3.91935C73.9989 4.74626 73.6935 5.45832 73.0827 6.05553C72.4954 6.62977 71.779 6.91689 70.9333 6.91689C70.0876 6.91689 69.3593 6.62977 68.7486 6.05553C68.1613 5.45832 67.8676 4.74626 67.8676 3.91935Z"/>
<path d="M76.1049 9.19089H80.9676V11.396H81.0381C81.2495 11.0974 81.5196 10.7988 81.8485 10.5002C82.2009 10.1786 82.6002 9.89146 83.0466 9.63879C83.5164 9.38613 84.0215 9.1794 84.5618 9.01861C85.1021 8.85783 85.6776 8.77743 86.2884 8.77743C87.5569 8.77743 88.708 8.99564 89.7416 9.43207C90.7753 9.84552 91.6562 10.4427 92.3844 11.2237C93.1361 11.9817 93.7117 12.889 94.111 13.9456C94.5104 15.0022 94.7101 16.1622 94.7101 17.4255C94.7101 18.597 94.5221 19.7225 94.1463 20.802C93.7939 21.8586 93.2771 22.8004 92.5958 23.6273C91.9381 24.4542 91.1276 25.1203 90.1645 25.6257C89.2013 26.108 88.109 26.3492 86.8874 26.3492C85.7833 26.3492 84.7497 26.1884 83.7866 25.8669C82.8469 25.5223 82.0717 24.9481 81.4609 24.1441H81.3904V33.7914H76.1049V9.19089ZM80.9676 17.5633C80.9676 18.8267 81.3317 19.8488 82.0599 20.6298C82.8117 21.4107 83.857 21.8012 85.196 21.8012C86.5351 21.8012 87.5687 21.4107 88.2969 20.6298C89.0486 19.8488 89.4245 18.8267 89.4245 17.5633C89.4245 16.3 89.0486 15.2778 88.2969 14.4969C87.5687 13.7159 86.5351 13.3254 85.196 13.3254C83.857 13.3254 82.8117 13.7159 82.0599 14.4969C81.3317 15.2778 80.9676 16.3 80.9676 17.5633Z"/>
<path d="M96.5383 9.19089H101.401V11.396H101.471C101.683 11.0974 101.953 10.7988 102.282 10.5002C102.634 10.1786 103.034 9.89146 103.48 9.63879C103.95 9.38613 104.455 9.1794 104.995 9.01861C105.535 8.85783 106.111 8.77743 106.722 8.77743C107.99 8.77743 109.141 8.99564 110.175 9.43207C111.209 9.84552 112.09 10.4427 112.818 11.2237C113.57 11.9817 114.145 12.889 114.544 13.9456C114.944 15.0022 115.143 16.1622 115.143 17.4255C115.143 18.597 114.956 19.7225 114.58 20.802C114.227 21.8586 113.71 22.8004 113.029 23.6273C112.371 24.4542 111.561 25.1203 110.598 25.6257C109.635 26.108 108.542 26.3492 107.321 26.3492C106.217 26.3492 105.183 26.1884 104.22 25.8669C103.28 25.5223 102.505 24.9481 101.894 24.1441H101.824V33.7914H96.5383V9.19089ZM101.401 17.5633C101.401 18.8267 101.765 19.8488 102.493 20.6298C103.245 21.4107 104.29 21.8012 105.629 21.8012C106.968 21.8012 108.002 21.4107 108.73 20.6298C109.482 19.8488 109.858 18.8267 109.858 17.5633C109.858 16.3 109.482 15.2778 108.73 14.4969C108.002 13.7159 106.968 13.3254 105.629 13.3254C104.29 13.3254 103.245 13.7159 102.493 14.4969C101.765 15.2778 101.401 16.3 101.401 17.5633Z"/>
<path d="M132.687 23.0416C131.842 24.0982 130.773 24.9136 129.481 25.4879C128.189 26.0621 126.85 26.3492 125.464 26.3492C124.148 26.3492 122.903 26.1425 121.729 25.729C120.578 25.3156 119.567 24.7299 118.698 23.9719C117.853 23.1909 117.183 22.2606 116.69 21.181C116.196 20.1015 115.95 18.8956 115.95 17.5633C115.95 16.2311 116.196 15.0252 116.69 13.9456C117.183 12.866 117.853 11.9472 118.698 11.1892C119.567 10.4083 120.578 9.81107 121.729 9.39761C122.903 8.98416 124.148 8.77743 125.464 8.77743C126.685 8.77743 127.789 8.98416 128.776 9.39761C129.786 9.81107 130.632 10.4083 131.313 11.1892C132.018 11.9472 132.558 12.866 132.934 13.9456C133.31 15.0252 133.498 16.2311 133.498 17.5633V19.1827H121.235C121.447 20.1704 121.905 20.9628 122.61 21.56C123.314 22.1343 124.184 22.4214 125.217 22.4214C126.086 22.4214 126.815 22.2376 127.402 21.8701C128.013 21.4796 128.541 20.9858 128.988 20.3886L132.687 23.0416ZM128.212 15.6683C128.236 14.7955 127.942 14.049 127.331 13.4288C126.721 12.8086 125.934 12.4985 124.97 12.4985C124.383 12.4985 123.866 12.5904 123.42 12.7742C122.974 12.9579 122.586 13.1991 122.257 13.4977C121.952 13.7733 121.705 14.1064 121.517 14.4969C121.353 14.8644 121.259 15.2549 121.235 15.6683H128.212Z"/>
<path d="M134.95 9.19089H140.236V11.8783H140.306C140.87 10.8447 141.54 10.0752 142.315 9.56989C143.09 9.04158 144.065 8.77743 145.24 8.77743C145.545 8.77743 145.85 8.78892 146.156 8.81189C146.461 8.83486 146.743 8.8808 147.001 8.94971V13.67C146.626 13.5551 146.25 13.4747 145.874 13.4288C145.521 13.3599 145.146 13.3254 144.746 13.3254C143.736 13.3254 142.937 13.4632 142.35 13.7389C141.763 14.0145 141.305 14.405 140.976 14.9103C140.67 15.3927 140.471 15.9784 140.377 16.6675C140.283 17.3566 140.236 18.1146 140.236 18.9415V25.9358H134.95V9.19089Z"/>
</mask>
<path d="M65.7575 24.5231C65.7575 27.6929 64.9353 30.0933 63.2909 31.7241C61.67 33.3779 59.1917 34.2048 55.8559 34.2048C54.329 34.2048 52.8255 34.0326 51.3456 33.688C49.8656 33.3664 48.5031 32.7233 47.2581 31.7586L50.1827 27.4862C51.0049 28.1523 51.8624 28.6806 52.755 29.0711C53.6712 29.4616 54.6696 29.6568 55.7502 29.6568C57.3711 29.6568 58.5574 29.2664 59.3092 28.4854C60.0844 27.7274 60.472 26.7512 60.472 25.5568V23.9374H60.4015C59.7907 24.7413 59.0273 25.3156 58.1111 25.6601C57.2184 25.9817 56.3727 26.1425 55.574 26.1425C54.3055 26.1425 53.1544 25.9358 52.1208 25.5223C51.0872 25.0859 50.1945 24.4887 49.4428 23.7307C48.7145 22.9497 48.1507 22.0309 47.7514 20.9743C47.352 19.9177 47.1523 18.7577 47.1523 17.4944C47.1523 16.3919 47.3285 15.3123 47.6809 14.2557C48.0568 13.1991 48.5736 12.2688 49.2313 11.4649C49.9126 10.6609 50.7348 10.0178 51.6979 9.53543C52.6611 9.0301 53.7534 8.77743 54.975 8.77743C55.7267 8.77743 56.408 8.85783 57.0187 9.01861C57.653 9.1794 58.2168 9.38613 58.7101 9.63879C59.2034 9.89146 59.6263 10.1786 59.9787 10.5002C60.331 10.7988 60.6129 11.0974 60.8243 11.396H60.8948V9.19089H65.7575V24.5231ZM52.4379 17.46C52.4379 18.0112 52.5436 18.5395 52.755 19.0449C52.9665 19.5272 53.2601 19.9637 53.636 20.3541C54.0353 20.7217 54.4817 21.0203 54.975 21.25C55.4918 21.4796 56.0556 21.5945 56.6664 21.5945C57.2537 21.5945 57.8057 21.4796 58.3225 21.25C58.8393 21.0203 59.2857 20.7217 59.6615 20.3541C60.0609 19.9637 60.3663 19.5272 60.5777 19.0449C60.7891 18.5395 60.8948 18.0112 60.8948 17.46C60.8948 16.9087 60.7891 16.3919 60.5777 15.9095C60.3663 15.4042 60.0609 14.9678 59.6615 14.6002C59.2857 14.2098 58.8393 13.8997 58.3225 13.67C57.8057 13.4403 57.2537 13.3254 56.6664 13.3254C56.0556 13.3254 55.4918 13.4403 54.975 13.67C54.4817 13.8997 54.0353 14.2098 53.636 14.6002C53.2601 14.9678 52.9665 15.4042 52.755 15.9095C52.5436 16.3919 52.4379 16.9087 52.4379 17.46Z" fill="#1E1F21"/>
<path d="M68.2905 9.19089H73.5761V25.9358H68.2905V9.19089ZM67.8676 3.91935C67.8676 3.09244 68.1613 2.39187 68.7486 1.81763C69.3593 1.22042 70.0876 0.921814 70.9333 0.921814C71.779 0.921814 72.4954 1.22042 73.0827 1.81763C73.6935 2.39187 73.9989 3.09244 73.9989 3.91935C73.9989 4.74626 73.6935 5.45832 73.0827 6.05553C72.4954 6.62977 71.779 6.91689 70.9333 6.91689C70.0876 6.91689 69.3593 6.62977 68.7486 6.05553C68.1613 5.45832 67.8676 4.74626 67.8676 3.91935Z" fill="#1E1F21"/>
<path d="M76.1049 9.19089H80.9676V11.396H81.0381C81.2495 11.0974 81.5196 10.7988 81.8485 10.5002C82.2009 10.1786 82.6002 9.89146 83.0466 9.63879C83.5164 9.38613 84.0215 9.1794 84.5618 9.01861C85.1021 8.85783 85.6776 8.77743 86.2884 8.77743C87.5569 8.77743 88.708 8.99564 89.7416 9.43207C90.7753 9.84552 91.6562 10.4427 92.3844 11.2237C93.1361 11.9817 93.7117 12.889 94.111 13.9456C94.5104 15.0022 94.7101 16.1622 94.7101 17.4255C94.7101 18.597 94.5221 19.7225 94.1463 20.802C93.7939 21.8586 93.2771 22.8004 92.5958 23.6273C91.9381 24.4542 91.1276 25.1203 90.1645 25.6257C89.2013 26.108 88.109 26.3492 86.8874 26.3492C85.7833 26.3492 84.7497 26.1884 83.7866 25.8669C82.8469 25.5223 82.0717 24.9481 81.4609 24.1441H81.3904V33.7914H76.1049V9.19089ZM80.9676 17.5633C80.9676 18.8267 81.3317 19.8488 82.0599 20.6298C82.8117 21.4107 83.857 21.8012 85.196 21.8012C86.5351 21.8012 87.5687 21.4107 88.2969 20.6298C89.0486 19.8488 89.4245 18.8267 89.4245 17.5633C89.4245 16.3 89.0486 15.2778 88.2969 14.4969C87.5687 13.7159 86.5351 13.3254 85.196 13.3254C83.857 13.3254 82.8117 13.7159 82.0599 14.4969C81.3317 15.2778 80.9676 16.3 80.9676 17.5633Z" fill="#1E1F21"/>
<path d="M96.5383 9.19089H101.401V11.396H101.471C101.683 11.0974 101.953 10.7988 102.282 10.5002C102.634 10.1786 103.034 9.89146 103.48 9.63879C103.95 9.38613 104.455 9.1794 104.995 9.01861C105.535 8.85783 106.111 8.77743 106.722 8.77743C107.99 8.77743 109.141 8.99564 110.175 9.43207C111.209 9.84552 112.09 10.4427 112.818 11.2237C113.57 11.9817 114.145 12.889 114.544 13.9456C114.944 15.0022 115.143 16.1622 115.143 17.4255C115.143 18.597 114.956 19.7225 114.58 20.802C114.227 21.8586 113.71 22.8004 113.029 23.6273C112.371 24.4542 111.561 25.1203 110.598 25.6257C109.635 26.108 108.542 26.3492 107.321 26.3492C106.217 26.3492 105.183 26.1884 104.22 25.8669C103.28 25.5223 102.505 24.9481 101.894 24.1441H101.824V33.7914H96.5383V9.19089ZM101.401 17.5633C101.401 18.8267 101.765 19.8488 102.493 20.6298C103.245 21.4107 104.29 21.8012 105.629 21.8012C106.968 21.8012 108.002 21.4107 108.73 20.6298C109.482 19.8488 109.858 18.8267 109.858 17.5633C109.858 16.3 109.482 15.2778 108.73 14.4969C108.002 13.7159 106.968 13.3254 105.629 13.3254C104.29 13.3254 103.245 13.7159 102.493 14.4969C101.765 15.2778 101.401 16.3 101.401 17.5633Z" fill="#1E1F21"/>
<path d="M132.687 23.0416C131.842 24.0982 130.773 24.9136 129.481 25.4879C128.189 26.0621 126.85 26.3492 125.464 26.3492C124.148 26.3492 122.903 26.1425 121.729 25.729C120.578 25.3156 119.567 24.7299 118.698 23.9719C117.853 23.1909 117.183 22.2606 116.69 21.181C116.196 20.1015 115.95 18.8956 115.95 17.5633C115.95 16.2311 116.196 15.0252 116.69 13.9456C117.183 12.866 117.853 11.9472 118.698 11.1892C119.567 10.4083 120.578 9.81107 121.729 9.39761C122.903 8.98416 124.148 8.77743 125.464 8.77743C126.685 8.77743 127.789 8.98416 128.776 9.39761C129.786 9.81107 130.632 10.4083 131.313 11.1892C132.018 11.9472 132.558 12.866 132.934 13.9456C133.31 15.0252 133.498 16.2311 133.498 17.5633V19.1827H121.235C121.447 20.1704 121.905 20.9628 122.61 21.56C123.314 22.1343 124.184 22.4214 125.217 22.4214C126.086 22.4214 126.815 22.2376 127.402 21.8701C128.013 21.4796 128.541 20.9858 128.988 20.3886L132.687 23.0416ZM128.212 15.6683C128.236 14.7955 127.942 14.049 127.331 13.4288C126.721 12.8086 125.934 12.4985 124.97 12.4985C124.383 12.4985 123.866 12.5904 123.42 12.7742C122.974 12.9579 122.586 13.1991 122.257 13.4977C121.952 13.7733 121.705 14.1064 121.517 14.4969C121.353 14.8644 121.259 15.2549 121.235 15.6683H128.212Z" fill="#1E1F21"/>
<path d="M134.95 9.19089H140.236V11.8783H140.306C140.87 10.8447 141.54 10.0752 142.315 9.56989C143.09 9.04158 144.065 8.77743 145.24 8.77743C145.545 8.77743 145.85 8.78892 146.156 8.81189C146.461 8.83486 146.743 8.8808 147.001 8.94971V13.67C146.626 13.5551 146.25 13.4747 145.874 13.4288C145.521 13.3599 145.146 13.3254 144.746 13.3254C143.736 13.3254 142.937 13.4632 142.35 13.7389C141.763 14.0145 141.305 14.405 140.976 14.9103C140.67 15.3927 140.471 15.9784 140.377 16.6675C140.283 17.3566 140.236 18.1146 140.236 18.9415V25.9358H134.95V9.19089Z" fill="#1E1F21"/>
<path d="M65.7575 24.5231C65.7575 27.6929 64.9353 30.0933 63.2909 31.7241C61.67 33.3779 59.1917 34.2048 55.8559 34.2048C54.329 34.2048 52.8255 34.0326 51.3456 33.688C49.8656 33.3664 48.5031 32.7233 47.2581 31.7586L50.1827 27.4862C51.0049 28.1523 51.8624 28.6806 52.755 29.0711C53.6712 29.4616 54.6696 29.6568 55.7502 29.6568C57.3711 29.6568 58.5574 29.2664 59.3092 28.4854C60.0844 27.7274 60.472 26.7512 60.472 25.5568V23.9374H60.4015C59.7907 24.7413 59.0273 25.3156 58.1111 25.6601C57.2184 25.9817 56.3727 26.1425 55.574 26.1425C54.3055 26.1425 53.1544 25.9358 52.1208 25.5223C51.0872 25.0859 50.1945 24.4887 49.4428 23.7307C48.7145 22.9497 48.1507 22.0309 47.7514 20.9743C47.352 19.9177 47.1523 18.7577 47.1523 17.4944C47.1523 16.3919 47.3285 15.3123 47.6809 14.2557C48.0568 13.1991 48.5736 12.2688 49.2313 11.4649C49.9126 10.6609 50.7348 10.0178 51.6979 9.53543C52.6611 9.0301 53.7534 8.77743 54.975 8.77743C55.7267 8.77743 56.408 8.85783 57.0187 9.01861C57.653 9.1794 58.2168 9.38613 58.7101 9.63879C59.2034 9.89146 59.6263 10.1786 59.9787 10.5002C60.331 10.7988 60.6129 11.0974 60.8243 11.396H60.8948V9.19089H65.7575V24.5231ZM52.4379 17.46C52.4379 18.0112 52.5436 18.5395 52.755 19.0449C52.9665 19.5272 53.2601 19.9637 53.636 20.3541C54.0353 20.7217 54.4817 21.0203 54.975 21.25C55.4918 21.4796 56.0556 21.5945 56.6664 21.5945C57.2537 21.5945 57.8057 21.4796 58.3225 21.25C58.8393 21.0203 59.2857 20.7217 59.6615 20.3541C60.0609 19.9637 60.3663 19.5272 60.5777 19.0449C60.7891 18.5395 60.8948 18.0112 60.8948 17.46C60.8948 16.9087 60.7891 16.3919 60.5777 15.9095C60.3663 15.4042 60.0609 14.9678 59.6615 14.6002C59.2857 14.2098 58.8393 13.8997 58.3225 13.67C57.8057 13.4403 57.2537 13.3254 56.6664 13.3254C56.0556 13.3254 55.4918 13.4403 54.975 13.67C54.4817 13.8997 54.0353 14.2098 53.636 14.6002C53.2601 14.9678 52.9665 15.4042 52.755 15.9095C52.5436 16.3919 52.4379 16.9087 52.4379 17.46Z" stroke="#1E1F21" stroke-width="0.334308" mask="url(#path-1-outside-1_1_1023)"/>
<path d="M68.2905 9.19089H73.5761V25.9358H68.2905V9.19089ZM67.8676 3.91935C67.8676 3.09244 68.1613 2.39187 68.7486 1.81763C69.3593 1.22042 70.0876 0.921814 70.9333 0.921814C71.779 0.921814 72.4954 1.22042 73.0827 1.81763C73.6935 2.39187 73.9989 3.09244 73.9989 3.91935C73.9989 4.74626 73.6935 5.45832 73.0827 6.05553C72.4954 6.62977 71.779 6.91689 70.9333 6.91689C70.0876 6.91689 69.3593 6.62977 68.7486 6.05553C68.1613 5.45832 67.8676 4.74626 67.8676 3.91935Z" stroke="#1E1F21" stroke-width="0.334308" mask="url(#path-1-outside-1_1_1023)"/>
<path d="M76.1049 9.19089H80.9676V11.396H81.0381C81.2495 11.0974 81.5196 10.7988 81.8485 10.5002C82.2009 10.1786 82.6002 9.89146 83.0466 9.63879C83.5164 9.38613 84.0215 9.1794 84.5618 9.01861C85.1021 8.85783 85.6776 8.77743 86.2884 8.77743C87.5569 8.77743 88.708 8.99564 89.7416 9.43207C90.7753 9.84552 91.6562 10.4427 92.3844 11.2237C93.1361 11.9817 93.7117 12.889 94.111 13.9456C94.5104 15.0022 94.7101 16.1622 94.7101 17.4255C94.7101 18.597 94.5221 19.7225 94.1463 20.802C93.7939 21.8586 93.2771 22.8004 92.5958 23.6273C91.9381 24.4542 91.1276 25.1203 90.1645 25.6257C89.2013 26.108 88.109 26.3492 86.8874 26.3492C85.7833 26.3492 84.7497 26.1884 83.7866 25.8669C82.8469 25.5223 82.0717 24.9481 81.4609 24.1441H81.3904V33.7914H76.1049V9.19089ZM80.9676 17.5633C80.9676 18.8267 81.3317 19.8488 82.0599 20.6298C82.8117 21.4107 83.857 21.8012 85.196 21.8012C86.5351 21.8012 87.5687 21.4107 88.2969 20.6298C89.0486 19.8488 89.4245 18.8267 89.4245 17.5633C89.4245 16.3 89.0486 15.2778 88.2969 14.4969C87.5687 13.7159 86.5351 13.3254 85.196 13.3254C83.857 13.3254 82.8117 13.7159 82.0599 14.4969C81.3317 15.2778 80.9676 16.3 80.9676 17.5633Z" stroke="#1E1F21" stroke-width="0.334308" mask="url(#path-1-outside-1_1_1023)"/>
<path d="M96.5383 9.19089H101.401V11.396H101.471C101.683 11.0974 101.953 10.7988 102.282 10.5002C102.634 10.1786 103.034 9.89146 103.48 9.63879C103.95 9.38613 104.455 9.1794 104.995 9.01861C105.535 8.85783 106.111 8.77743 106.722 8.77743C107.99 8.77743 109.141 8.99564 110.175 9.43207C111.209 9.84552 112.09 10.4427 112.818 11.2237C113.57 11.9817 114.145 12.889 114.544 13.9456C114.944 15.0022 115.143 16.1622 115.143 17.4255C115.143 18.597 114.956 19.7225 114.58 20.802C114.227 21.8586 113.71 22.8004 113.029 23.6273C112.371 24.4542 111.561 25.1203 110.598 25.6257C109.635 26.108 108.542 26.3492 107.321 26.3492C106.217 26.3492 105.183 26.1884 104.22 25.8669C103.28 25.5223 102.505 24.9481 101.894 24.1441H101.824V33.7914H96.5383V9.19089ZM101.401 17.5633C101.401 18.8267 101.765 19.8488 102.493 20.6298C103.245 21.4107 104.29 21.8012 105.629 21.8012C106.968 21.8012 108.002 21.4107 108.73 20.6298C109.482 19.8488 109.858 18.8267 109.858 17.5633C109.858 16.3 109.482 15.2778 108.73 14.4969C108.002 13.7159 106.968 13.3254 105.629 13.3254C104.29 13.3254 103.245 13.7159 102.493 14.4969C101.765 15.2778 101.401 16.3 101.401 17.5633Z" stroke="#1E1F21" stroke-width="0.334308" mask="url(#path-1-outside-1_1_1023)"/>
<path d="M132.687 23.0416C131.842 24.0982 130.773 24.9136 129.481 25.4879C128.189 26.0621 126.85 26.3492 125.464 26.3492C124.148 26.3492 122.903 26.1425 121.729 25.729C120.578 25.3156 119.567 24.7299 118.698 23.9719C117.853 23.1909 117.183 22.2606 116.69 21.181C116.196 20.1015 115.95 18.8956 115.95 17.5633C115.95 16.2311 116.196 15.0252 116.69 13.9456C117.183 12.866 117.853 11.9472 118.698 11.1892C119.567 10.4083 120.578 9.81107 121.729 9.39761C122.903 8.98416 124.148 8.77743 125.464 8.77743C126.685 8.77743 127.789 8.98416 128.776 9.39761C129.786 9.81107 130.632 10.4083 131.313 11.1892C132.018 11.9472 132.558 12.866 132.934 13.9456C133.31 15.0252 133.498 16.2311 133.498 17.5633V19.1827H121.235C121.447 20.1704 121.905 20.9628 122.61 21.56C123.314 22.1343 124.184 22.4214 125.217 22.4214C126.086 22.4214 126.815 22.2376 127.402 21.8701C128.013 21.4796 128.541 20.9858 128.988 20.3886L132.687 23.0416ZM128.212 15.6683C128.236 14.7955 127.942 14.049 127.331 13.4288C126.721 12.8086 125.934 12.4985 124.97 12.4985C124.383 12.4985 123.866 12.5904 123.42 12.7742C122.974 12.9579 122.586 13.1991 122.257 13.4977C121.952 13.7733 121.705 14.1064 121.517 14.4969C121.353 14.8644 121.259 15.2549 121.235 15.6683H128.212Z" stroke="#1E1F21" stroke-width="0.334308" mask="url(#path-1-outside-1_1_1023)"/>
<path d="M134.95 9.19089H140.236V11.8783H140.306C140.87 10.8447 141.54 10.0752 142.315 9.56989C143.09 9.04158 144.065 8.77743 145.24 8.77743C145.545 8.77743 145.85 8.78892 146.156 8.81189C146.461 8.83486 146.743 8.8808 147.001 8.94971V13.67C146.626 13.5551 146.25 13.4747 145.874 13.4288C145.521 13.3599 145.146 13.3254 144.746 13.3254C143.736 13.3254 142.937 13.4632 142.35 13.7389C141.763 14.0145 141.305 14.405 140.976 14.9103C140.67 15.3927 140.471 15.9784 140.377 16.6675C140.283 17.3566 140.236 18.1146 140.236 18.9415V25.9358H134.95V9.19089Z" stroke="#1E1F21" stroke-width="0.334308" mask="url(#path-1-outside-1_1_1023)"/>
<rect y="-6.10352e-05" width="38.8302" height="38.8302" rx="1.67154" fill="#1E1F21"/>
<path fill-rule="evenodd" clip-rule="evenodd" d="M30.481 6.84009C30.7278 8.13312 29.296 18.7712 29.1483 19.7703C29.0719 20.3393 28.7865 20.3393 28.7534 20.3393H27.2589C26.9193 20.3393 26.9244 19.9116 26.9268 19.709C26.927 19.6935 26.9272 19.6794 26.9272 19.6669C26.9272 19.4256 27.9937 9.97218 28.2185 7.98148C28.2409 7.78321 28.0851 7.61592 27.8856 7.61595L26.5844 7.61609C26.4147 7.6161 26.2719 7.7433 26.2523 7.91189L25.3476 15.7161C25.2977 16.1499 25.0509 16.1499 24.9062 16.1498L23.5511 16.1497C23.0766 16.1498 23.0945 15.9195 23.1283 15.5093C23.1544 15.1924 23.1893 14.7744 23.2304 14.2931H21.5741C21.4105 14.2931 21.2709 14.4115 21.2442 14.5729L20.8469 16.9771C20.7656 17.4651 20.6091 17.5627 20.2421 17.5627H18.9315C18.6167 17.5627 18.4155 17.3644 18.5131 16.9771L18.6982 15.7162H17.1173C17.055 15.7162 16.9963 15.7333 16.946 15.7634L16.7635 16.1716L16.3793 19.0029C16.3249 19.4143 16.073 19.4143 15.8215 19.4143H14.3157C14.0659 19.4143 13.8152 19.4143 13.8765 18.952L14.0026 18.0229H13.6994C13.36 18.0229 13.0747 18.2771 13.0379 18.6145C12.9166 19.7263 12.664 22.1723 12.5891 23.9114C12.5351 25.1652 12.6165 26.8022 12.7017 28.0319C12.7718 29.0429 13.6079 29.8174 14.6211 29.8407L19.5406 29.9536L25.3442 29.8204C25.8522 29.8087 26.2711 29.4191 26.3196 28.9134L26.7496 24.4235H21.2915C21.1651 24.4235 21.0496 24.4947 20.9928 24.6076L20.8279 24.9355C20.5705 25.4476 20.313 25.4988 19.7981 25.4988H18.7682C18.2533 25.4988 17.9958 25.1915 17.9958 24.6795V24.1251C17.9958 23.0173 18.8939 22.1193 20.0017 22.1193H28.8238C29.2261 22.1193 29.5373 22.4721 29.4872 22.8713L28.5151 30.6045C28.389 31.6077 27.5359 32.3602 26.5249 32.3602H13.5813C11.2419 32.3602 9.39869 30.3666 9.58193 28.0343L10.3898 17.7511C10.4694 16.7378 11.2943 15.9443 12.3098 15.9039L14.301 15.8247L14.3703 15.3139C14.4828 14.4852 15.1904 13.8671 16.0266 13.8671H18.9696L19.0258 13.484C19.1222 12.8276 19.6854 12.341 20.3489 12.341H22.8631C23.0862 12.341 23.2617 12.3078 23.4101 12.2627C23.5661 10.5599 23.7503 8.72027 23.9009 7.70022C24.0788 7.08527 24.2951 6.59822 24.558 6.32288C25.0518 5.80583 25.3416 5.74269 26.0377 5.65055C26.6114 5.57461 26.9388 5.54557 27.5184 5.54685C28.1467 5.54825 29.1225 5.67616 29.1225 5.67616C29.1225 5.67616 30.2835 5.80567 30.481 6.84009Z" fill="white"/>
</svg>
