<svg width="107" height="52" viewBox="0 0 107 52" fill="none" xmlns="http://www.w3.org/2000/svg">
<g clip-path="url(#clip0_1_1515)">
<path d="M9.56227 21.8366V17.3887C9.56227 17.0539 9.48376 16.8155 9.32674 16.6734C9.16973 16.532 8.89558 16.461 8.50367 16.461H5.05054C1.96464 16.461 0.422319 15.017 0.422319 12.1291V6.52075C0.422319 3.68421 2.06974 2.26562 5.36458 2.26562H10.1498C13.4453 2.26562 15.0927 3.68421 15.0927 6.52075V9.7308H9.48313V7.29441C9.48313 6.64948 9.13047 6.32733 8.42389 6.32733H7.09114C6.38519 6.32733 6.0319 6.64948 6.0319 7.29441V11.6256C6.0319 11.9617 6.11041 12.1995 6.26743 12.3416C6.42445 12.4836 6.6986 12.554 7.09051 12.554H10.4645C12.1379 12.554 13.3408 12.9091 14.0734 13.6181C14.8053 14.3271 15.1719 15.3779 15.1719 16.7698V22.5723C15.1719 25.4342 13.5238 26.8654 10.229 26.8654H5.48298C2.16154 26.8654 0.500828 25.4342 0.500828 22.5723V19.4003H6.11041V21.8366C6.11041 22.4816 6.4637 22.8037 7.16965 22.8037H8.50303C9.20898 22.8037 9.56227 22.4816 9.56227 21.8366ZM23.9281 2.26626H29.1838C32.4793 2.26626 34.1267 3.68421 34.1267 6.52075V22.5716C34.1267 25.4342 32.4793 26.8648 29.1838 26.8648H23.9275C20.6067 26.8648 18.946 25.4342 18.946 22.5716V6.52075C18.946 3.68421 20.6067 2.26562 23.9275 2.26562L23.9281 2.26626ZM28.5171 21.8366V7.29441C28.5171 6.64948 28.1771 6.32733 27.4977 6.32733H25.6148C24.9082 6.32733 24.5556 6.64948 24.5556 7.29441V21.8366C24.5556 22.4816 24.9082 22.8037 25.6142 22.8037H27.4971C28.1771 22.8037 28.5171 22.4816 28.5171 21.8366ZM38.489 2.26626H44.0593V26.8648H38.4896L38.489 2.26626ZM54.1496 22.8031H61.3281V26.8642H48.5793V2.26626H54.149L54.1496 22.8031ZM13.4675 39.9124H8.12822V36.8139C8.12822 36.3726 7.87433 36.1519 7.36592 36.1519H6.29782C5.78941 36.1519 5.53489 36.3726 5.53489 36.8139V47.8836C5.53489 48.3249 5.78941 48.545 6.29782 48.545H7.36592C7.87433 48.545 8.12822 48.3249 8.12822 47.8836V44.905H13.4675V48.2748C13.4675 50.7613 11.9726 52.0049 8.98232 52.0049H4.68143C1.69112 52.0055 0.196289 50.7626 0.196289 48.2755V36.4226C0.196289 33.9355 1.69049 32.6926 4.68079 32.6926H8.98295C11.9726 32.6926 13.4675 33.9355 13.4675 36.4226V39.9124ZM20.28 32.6926H24.7949C27.7852 32.6926 29.28 33.9355 29.28 36.4226V48.2748C29.28 50.762 27.7852 52.0055 24.7949 52.0055H20.28C17.2897 52.0055 15.7949 50.7626 15.7949 48.2755V36.4226C15.7949 33.9355 17.2897 32.6926 20.28 32.6926ZM23.9408 47.583V37.1151C23.9408 36.6738 23.6869 36.4531 23.1779 36.4531H21.897C21.388 36.4531 21.1341 36.6738 21.1341 37.1151V47.5836C21.1341 48.025 21.388 48.2457 21.897 48.2457H23.1779C23.6869 48.2457 23.9408 48.025 23.9408 47.5843V47.583ZM41.0038 32.6926H45.8853V52.0055H41.3096L36.9467 41.8674V52.0055H32.0652V32.6926H36.6415L41.0038 43.0102V32.6926ZM57.7015 32.6926H62.583V52.0055H58.0067L53.6437 41.8674V52.0055H48.7623V32.6926H53.3386L57.7009 43.0102L57.7015 32.6926ZM70.7986 48.245H77.48V52.0055H65.4593V32.6926H77.2053V36.4531H70.7986V40.3937H76.3208V44.1542H70.7986V48.245ZM92.7127 39.9124H87.3741V36.8139C87.3741 36.3726 87.1195 36.1519 86.6111 36.1519H85.543C85.0346 36.1519 84.7807 36.3726 84.7807 36.8139V47.8836C84.7807 48.3249 85.0346 48.545 85.543 48.545H86.6111C87.1195 48.545 87.3741 48.3249 87.3741 47.8836V44.905H92.7127V48.2748C92.7127 50.7613 91.2178 52.0049 88.2282 52.0049H83.926C80.9363 52.0049 79.4415 50.762 79.4415 48.2748V36.4226C79.4415 33.9355 80.9363 32.6926 83.926 32.6926H88.2282C91.2178 32.6926 92.7127 33.9355 92.7127 36.4226V39.9124ZM106.939 32.6926V36.4531H103.156V52.0055H97.8164V36.4525H94.0638V32.692L106.939 32.6926Z" fill="#1E1F21"/>
<path fill-rule="evenodd" clip-rule="evenodd" d="M86.1521 0L91.963 5.72951L86.1521 11.459V8.59649H71.6235V20.0555H77.4338V25.785H68.72C67.9516 25.787 67.2132 25.4864 66.6642 24.948C66.395 24.6839 66.1811 24.3688 66.0349 24.021C65.8887 23.6733 65.8131 23.2998 65.8126 22.9225V5.72951C65.8131 5.35218 65.8887 4.97873 66.0349 4.63097C66.1811 4.2832 66.395 3.9681 66.6642 3.70405C67.2132 3.16568 67.9516 2.86504 68.72 2.86698H86.1521V0ZM94.9426 3.00839H103.656C104.425 3.00646 105.163 3.30709 105.712 3.84546C105.981 4.10951 106.195 4.42462 106.341 4.77238C106.488 5.12014 106.563 5.49359 106.564 5.87093V23.0639C106.563 23.4412 106.488 23.8147 106.341 24.1625C106.195 24.5102 105.981 24.8253 105.712 25.0894C105.163 25.6277 104.425 25.9284 103.656 25.9264H86.2243V28.7934L80.4134 23.0639L86.2243 17.3344V20.1969H100.753V8.7379H94.9426V3.00839Z" fill="#1E1F21"/>
</g>
<defs>
<clipPath id="clip0_1_1515">
<rect width="107" height="52" fill="white"/>
</clipPath>
</defs>
</svg>
