<svg width="536" height="590" viewBox="0 0 536 590" fill="none" xmlns="http://www.w3.org/2000/svg">
<g clip-path="url(#clip0_4804_13579)">
<path d="M374.292 57.0038C350.084 63.7637 325.695 69.7878 301.147 75.1653C288.846 77.7426 276.485 80.0747 264.216 82.7857C251.943 85.4745 239.756 88.52 227.586 91.6324C215.422 94.767 203.241 97.8348 191.022 100.747C178.808 103.681 166.6 106.637 154.348 109.415C129.823 114.882 105.248 120.148 80.5086 124.745C80.3522 124.781 80.213 124.719 80.1911 124.63C80.1692 124.54 80.2702 124.446 80.4266 124.41C104.646 117.695 129.035 111.671 153.479 105.87C165.709 103.003 177.982 100.314 190.251 97.6029C202.514 94.8695 214.815 92.2922 227.132 89.7818C239.444 87.2491 251.735 84.6273 263.948 81.6932C276.156 78.7369 288.283 75.4462 300.463 72.3784C324.88 66.4657 349.455 61.1997 374.21 56.6694C374.367 56.6333 374.506 56.6954 374.528 56.7846C374.51 56.8828 374.409 56.9767 374.292 57.0038Z" fill="white"/>
<path d="M469.759 463.664C442.756 471.126 415.568 477.854 388.216 483.937C374.512 486.867 360.745 489.552 347.075 492.616C333.399 495.657 319.813 499.055 306.244 502.519C292.681 506.005 279.101 509.425 265.481 512.688C251.867 515.975 238.259 519.283 224.605 522.413C197.276 528.585 169.895 534.556 142.346 539.86C142.171 539.901 142.018 539.842 141.996 539.753C141.973 539.664 142.087 539.567 142.261 539.526C169.275 532.109 196.463 525.381 223.708 518.875C237.339 515.656 251.015 512.615 264.685 509.551C278.35 506.465 292.054 503.535 305.776 500.672C319.491 497.786 333.184 494.812 346.798 491.526C360.406 488.217 373.93 484.575 387.51 481.155C414.727 474.539 442.107 468.567 469.674 463.33C469.848 463.29 470.002 463.348 470.024 463.437C470.003 463.536 469.889 463.634 469.759 463.664Z" fill="white"/>
<path d="M470.815 462.044C461.504 428.681 453.003 395.1 445.215 361.328C441.444 344.409 437.943 327.418 434.025 310.538C430.131 293.652 425.844 276.872 421.483 260.112C417.097 243.358 412.786 226.584 408.646 209.764C404.482 192.95 400.293 176.144 396.301 159.284C388.415 125.538 380.749 91.7336 373.821 57.7308C373.77 57.5155 373.829 57.3276 373.927 57.3013C374.026 57.2749 374.138 57.4165 374.19 57.6318C383.452 91.0079 391.952 124.588 400.207 158.235C404.298 175.068 408.192 191.954 412.11 208.833C416.053 225.706 419.825 242.625 423.522 259.564C427.244 276.496 431.064 293.402 435.229 310.215C439.417 327.022 443.975 343.73 448.287 360.504C456.664 394.117 464.329 427.922 471.184 461.945C471.235 462.16 471.176 462.348 471.077 462.374C470.966 462.347 470.854 462.205 470.815 462.044Z" fill="white"/>
<path d="M143.717 537.969C134.929 506.642 126.953 475.102 119.691 443.374C116.183 427.478 112.945 411.511 109.289 395.653C105.658 379.789 101.634 364.029 97.535 348.288C93.4118 332.553 89.3624 316.799 85.4853 301C81.5835 285.207 77.6571 269.421 73.9276 253.583C66.5669 221.881 59.4277 190.121 53.0265 158.167C52.9782 157.965 53.0403 157.787 53.1387 157.761C53.2372 157.735 53.3472 157.868 53.3955 158.07C62.1339 189.41 70.1097 220.95 77.8394 252.555C81.6673 268.367 85.2985 284.231 88.9542 300.088C92.6346 315.939 96.1427 331.836 99.577 347.751C103.036 363.66 106.593 379.544 110.495 395.336C114.421 411.123 118.717 426.812 122.766 442.566C130.619 474.138 137.758 505.899 144.086 537.872C144.134 538.074 144.072 538.252 143.973 538.278C143.863 538.253 143.753 538.121 143.717 537.969Z" fill="white"/>
<path d="M263.411 293.14C272.853 290.531 282.36 288.178 291.924 286.051C296.716 285.026 301.53 284.087 306.31 283.015C311.092 281.952 315.842 280.764 320.587 279.553C325.33 278.334 330.078 277.138 334.84 275.996C339.601 274.847 344.359 273.69 349.134 272.596C358.69 270.437 368.264 268.349 377.897 266.494C377.958 266.48 378.012 266.5 378.019 266.531C378.027 266.562 377.988 266.596 377.927 266.61C368.481 269.204 358.974 271.556 349.447 273.831C344.681 274.957 339.899 276.021 335.119 277.092C330.34 278.171 325.548 279.196 320.751 280.198C315.955 281.207 311.167 282.247 306.406 283.396C301.648 284.553 296.919 285.827 292.17 287.022C282.654 289.336 273.08 291.424 263.44 293.256C263.38 293.271 263.326 293.25 263.318 293.219C263.325 293.184 263.365 293.15 263.411 293.14Z" fill="white"/>
<path d="M230.286 152.007C239.716 149.401 249.211 147.051 258.764 144.927C263.55 143.904 268.358 142.966 273.132 141.896C277.908 140.834 282.653 139.647 287.392 138.437C292.129 137.22 296.872 136.025 301.628 134.886C306.383 133.738 311.135 132.583 315.904 131.489C325.448 129.334 335.011 127.248 344.632 125.396C344.693 125.382 344.747 125.402 344.755 125.433C344.762 125.465 344.723 125.499 344.662 125.513C335.228 128.103 325.732 130.453 316.217 132.725C311.457 133.849 306.68 134.911 301.906 135.981C297.134 137.059 292.348 138.082 287.556 139.082C282.766 140.09 277.983 141.129 273.229 142.277C268.476 143.432 263.753 144.704 259.01 145.898C249.505 148.209 239.943 150.295 230.315 152.124C230.254 152.138 230.201 152.117 230.193 152.086C230.2 152.052 230.24 152.018 230.286 152.007Z" fill="white"/>
<path d="M229.897 152.586C233.149 164.238 236.117 175.966 238.837 187.761C240.154 193.669 241.377 199.603 242.745 205.498C244.105 211.396 245.603 217.256 247.126 223.11C248.657 228.961 250.163 234.819 251.609 240.693C253.063 246.565 254.526 252.435 255.92 258.323C258.674 270.108 261.351 281.914 263.771 293.79C263.789 293.865 263.768 293.93 263.734 293.94C263.7 293.949 263.66 293.899 263.642 293.824C260.408 282.168 257.439 270.44 254.556 258.689C253.127 252.81 251.767 246.913 250.399 241.018C249.022 235.125 247.705 229.217 246.413 223.301C245.114 217.388 243.779 211.483 242.325 205.611C240.862 199.742 239.27 193.907 237.765 188.049C234.839 176.309 232.162 164.503 229.768 152.621C229.75 152.546 229.771 152.48 229.805 152.471C229.844 152.481 229.883 152.53 229.897 152.586Z" fill="white"/>
<path d="M344.138 126.067C347.204 136.996 349.987 148 352.52 159.069C353.744 164.615 354.873 170.185 356.149 175.718C357.416 181.252 358.82 186.751 360.25 192.242C361.688 197.732 363.101 203.228 364.454 208.74C365.815 214.25 367.185 219.757 368.486 225.283C371.054 236.343 373.545 247.424 375.778 258.572C375.795 258.642 375.773 258.704 375.738 258.713C375.704 258.722 375.666 258.676 375.649 258.606C372.6 247.672 369.817 236.668 367.12 225.642C365.785 220.125 364.518 214.591 363.243 209.059C361.959 203.528 360.735 197.983 359.537 192.43C358.33 186.879 357.089 181.338 355.728 175.828C354.358 170.321 352.859 164.847 351.446 159.351C348.707 148.336 346.216 137.256 344.009 126.101C343.992 126.03 344.014 125.968 344.048 125.959C344.087 125.968 344.125 126.014 344.138 126.067Z" fill="white"/>
<path d="M356.192 54.9549C354.784 52.8415 352.777 51.1961 350.428 50.2293C348.079 49.2625 345.495 49.0184 343.007 49.5283C340.52 50.0381 338.241 51.2786 336.464 53.091C334.687 54.9034 333.491 57.2051 333.031 59.7013L332.357 63.6967C332.248 64.337 332.822 64.8842 333.456 64.7466L334.862 64.4418C335.231 64.3618 335.513 64.064 335.573 63.6914L336.12 60.2869C336.606 57.7702 338.07 55.5492 340.192 54.1112C342.314 52.6788 344.918 52.1453 347.433 52.6276C349.949 53.1099 352.172 54.5687 353.615 56.6845C354.339 57.7319 354.849 58.9121 355.116 60.1572C355.382 61.4022 355.399 62.6875 355.166 63.9389L349.217 94.9206L345.759 112.935C345.454 114.513 344.535 115.905 343.204 116.805C341.873 117.706 340.238 118.041 338.659 117.738C337.081 117.432 335.688 116.513 334.786 115.182C333.884 113.851 333.548 112.217 333.85 110.639L339.932 78.9403C340.028 78.4417 339.7 77.96 339.202 77.8654L337.916 77.6217C337.419 77.5275 336.939 77.8531 336.844 78.3498L330.761 110.069C330.305 112.452 330.815 114.918 332.178 116.926C333.541 118.935 335.645 120.32 338.029 120.779C338.599 120.884 339.179 120.936 339.759 120.933C341.884 120.929 343.941 120.188 345.579 118.836C347.217 117.484 348.334 115.605 348.74 113.521L352.506 93.8236L358.131 64.4936C358.456 62.8548 358.451 61.1679 358.118 59.5305C357.785 57.8932 357.131 56.3379 356.192 54.9549Z" fill="white"/>
<path d="M328.84 209.563C328.786 209.734 328.736 209.91 328.689 210.092C328.603 209.986 328.665 209.796 328.84 209.563C331.001 202.716 338.488 204.738 339.167 210.183C339.863 215.763 336.165 226.205 336.037 223.044C341.539 201.613 330.443 207.425 328.84 209.563Z" fill="white"/>
<path d="M285.467 222.623C285.592 222.752 285.715 222.887 285.839 223.029C285.868 222.896 285.728 222.754 285.467 222.623C280.484 217.454 274.681 222.599 276.497 227.776C278.359 233.083 286.319 240.786 285.026 237.899C270.557 221.159 283.08 221.422 285.467 222.623Z" fill="white"/>
<path d="M304.168 179.847C312.135 176.05 325.388 181.282 328.218 196.025C331.746 214.401 337.366 234.963 335.026 243.859C331.344 252.428 326.176 260.062 320.465 262.687C316.267 263.674 303.053 257.7 298.872 254.278C293.388 249.789 285.458 226.936 278.442 207.719C296.632 198.951 296.201 183.645 304.168 179.847Z" fill="white" stroke="white" stroke-width="1.11136"/>
<path d="M324.853 242.558C323.039 243.691 320.277 246.195 316.804 246.992C312.831 247.904 308.152 247.02 306.744 246.812" stroke="#1E1F21" stroke-width="1.11136" stroke-linecap="round" stroke-linejoin="round"/>
<path d="M307.669 217.924C310.261 226.105 311.443 233.989 311.228 235.923C311.012 237.858 311.292 239.048 313.832 238.451C316.372 237.854 316.867 237.11 316.587 235.92" stroke="#1E1F21" stroke-width="1.11136" stroke-linecap="round" stroke-linejoin="round"/>
<path d="M311.263 213.255C315.634 207.458 318.181 207.455 325.086 207.026" stroke="#1E1F21" stroke-width="1.11136" stroke-linecap="round" stroke-linejoin="round"/>
<path d="M305.146 215.654C296.436 213.147 293.291 215.714 289.527 218.305" stroke="#1E1F21" stroke-width="1.11136" stroke-linecap="round" stroke-linejoin="round"/>
<path d="M319.372 219.955C321.231 219.519 320.934 217.167 320.629 215.871C319.032 216.146 317.284 216.684 315.756 217.46C316.316 218.827 317.514 220.392 319.372 219.955Z" fill="#1E1F21"/>
<path d="M312.773 219.69C313.517 218.81 314.57 218.063 315.756 217.46M324.274 215.777C323.356 215.589 322.053 215.625 320.629 215.871M320.629 215.871C320.934 217.167 321.231 219.519 319.372 219.955C317.514 220.392 316.316 218.827 315.756 217.46M320.629 215.871C319.032 216.146 317.284 216.684 315.756 217.46" stroke="#1E1F21" stroke-width="1.11136" stroke-linecap="round" stroke-linejoin="round"/>
<path d="M300.26 225.401C297.906 225.954 296.846 223.761 296.774 222.572C298.137 222.082 300.161 221.489 301.482 221.466C301.931 222.497 302.143 224.958 300.26 225.401Z" fill="#1E1F21"/>
<path d="M293.021 225.1C293.861 223.967 295.243 223.123 296.774 222.572M304.791 222.335C304.073 221.862 302.839 221.442 301.482 221.466M296.774 222.572C296.846 223.761 297.906 225.954 300.26 225.401C302.143 224.958 301.931 222.497 301.482 221.466M296.774 222.572C298.137 222.082 300.161 221.489 301.482 221.466" stroke="#1E1F21" stroke-width="1.11136" stroke-linecap="round" stroke-linejoin="round"/>
<path d="M271.366 186.699C262.078 193.329 267.256 201.792 274.171 214.936C279.767 225.18 276.634 222.705 279.514 221.386C282.394 220.068 283.681 225.544 282.888 216.741C282.096 207.937 288.383 199.397 297.088 190.288C305.793 181.18 321.271 184.607 322.635 195.845C323.999 207.083 328.66 207.914 333.354 206.17C338.047 204.425 333.628 196.473 336.177 185.601C338.726 174.728 324.821 177.994 324.535 176.777C323.874 157.669 311.133 152.314 299.581 160.165C288.028 168.016 286.116 176.171 271.366 186.699Z" fill="white" stroke="#1E1F21" stroke-width="1.11136"/>
<path d="M80.4624 124.686C80.4113 124.561 80.2464 124.532 80.1564 124.634L79.8984 124.924L52.9612 157.789C52.8567 157.917 52.9606 158.106 53.1242 158.087L90.3152 153.647L91.893 153.276C92.0025 153.25 92.0631 153.133 92.0206 153.029L80.4624 124.686Z" fill="white"/>
<rect x="110.488" y="212.359" width="110.859" height="3.67004" transform="rotate(-13.2204 110.488 212.359)" fill="white"/>
<rect x="113.381" y="226.828" width="81.6622" height="3.67004" transform="rotate(-13.2204 113.381 226.828)" fill="white"/>
<path d="M116.768 241.281L212.785 218.725L213.624 222.297L117.607 244.854L116.768 241.281Z" fill="white"/>
<path d="M120.787 256.18L228.708 230.827L229.547 234.399L121.626 259.752L120.787 256.18Z" fill="white"/>
<rect x="265.836" y="307.039" width="120.027" height="3.67004" transform="rotate(-13.2204 265.836 307.039)" fill="white"/>
<path d="M269.34 321.32L364.324 299.006L365.164 302.579L270.179 324.893L269.34 321.32Z" fill="white"/>
<path d="M282.684 378.109L396.252 351.429L397.091 355.002L283.523 381.682L282.684 378.109Z" fill="white"/>
<path d="M272.738 335.773L373.918 312.004L374.757 315.577L273.578 339.346L272.738 335.773Z" fill="white"/>
<path d="M286.074 392.562L393.448 367.338L394.287 370.911L286.913 396.135L286.074 392.562Z" fill="white"/>
<path d="M276.137 350.859L392.983 323.409L393.822 326.982L276.976 354.432L276.137 350.859Z" fill="white"/>
<path d="M289.473 407.641L406.319 380.191L407.158 383.764L290.312 411.213L289.473 407.641Z" fill="white"/>
<rect x="150.75" y="379.191" width="29.1733" height="29.1733" transform="rotate(-13.2204 150.75 379.191)" stroke="white" stroke-width="1.66705"/>
<rect x="161.244" y="423.824" width="29.1733" height="29.1733" transform="rotate(-13.2204 161.244 423.824)" stroke="white" stroke-width="1.66705"/>
<rect x="179.031" y="324.602" width="57.5131" height="3.67004" transform="rotate(-13.2204 179.031 324.602)" fill="white"/>
<rect x="189.519" y="369.234" width="57.5131" height="3.67004" transform="rotate(-13.2204 189.519 369.234)" fill="white"/>
<rect x="200.006" y="413.867" width="57.5131" height="3.67004" transform="rotate(-13.2204 200.006 413.867)" fill="white"/>
<rect x="181.121" y="333.531" width="40.8426" height="3.67004" transform="rotate(-13.2204 181.121 333.531)" fill="white"/>
<rect x="191.611" y="378.164" width="40.8426" height="3.67004" transform="rotate(-13.2204 191.611 378.164)" fill="white"/>
<rect x="202.088" y="422.789" width="40.8426" height="3.67004" transform="rotate(-13.2204 202.088 422.789)" fill="white"/>
<g clip-path="url(#clip1_4804_13579)">
<path d="M210.097 156.181C205.259 157.572 200.378 158.851 195.525 160.176L180.785 164.019C170.946 166.527 161.092 168.967 151.23 171.375L136.4 174.821L121.528 178.084C111.605 180.226 101.713 182.501 91.8513 184.909L92.125 184.651L92.1168 184.688L91.9402 184.206L96.6027 187.071C96.7982 187.198 96.8745 187.46 96.7585 187.68C96.7346 187.721 96.6948 187.765 96.6551 187.81L91.3971 192.17L91.2356 191.317L96.868 193.039C97.1543 193.128 97.3284 193.453 97.247 193.753C97.2306 193.826 97.1985 193.904 97.143 193.952L97.131 193.973L94.0323 197.883L93.8487 196.861L98.749 199.529C99.1091 199.722 99.2466 200.178 99.0625 200.538C99.0303 200.615 98.9786 200.68 98.9389 200.725L98.9111 200.749L96.4222 203.324C96.2752 203.481 96.0741 203.547 95.8773 203.56L95.8458 203.567L95.83 203.571L96.3817 202.127L96.4442 202.182L95.7378 202.002C105.566 199.445 115.408 196.955 125.263 194.514C135.121 192.09 144.956 189.566 154.844 187.274C164.721 184.933 174.587 182.542 184.494 180.333L199.34 176.954L214.212 173.691L213.769 174.444L210.097 156.181ZM210.303 155.991L214.947 174.143C215.039 174.471 214.851 174.813 214.535 174.889L214.504 174.897L199.768 178.757L185.006 182.501C175.174 185.041 165.301 187.399 155.439 189.807C145.585 192.247 135.685 194.489 125.805 196.814C115.92 199.122 106.024 201.381 96.1132 203.573L96.0816 203.58C95.8294 203.641 95.5784 203.561 95.4031 203.376L95.3406 203.321L95.3211 203.309C95.0013 203.001 94.9666 202.485 95.2724 202.149C95.4314 201.971 95.676 201.877 95.8923 201.877L95.9081 201.873L95.3279 202.1L97.9027 199.61L98.0648 200.83L93.2566 197.982L93.2371 197.97C92.9318 197.798 92.8214 197.388 92.9974 197.066C93.0213 197.025 93.0453 196.984 93.073 196.96L96.2928 193.143L96.5597 194.093L90.9841 192.182L90.9683 192.186C90.7173 192.106 90.5861 191.823 90.663 191.577C90.6914 191.483 90.7551 191.398 90.8263 191.346L96.1386 187.077L96.1872 187.8L91.5448 184.878C91.3884 184.775 91.3077 184.568 91.3682 184.396L91.3764 184.359C91.413 184.227 91.5239 184.131 91.6501 184.1C101.527 181.759 111.374 179.285 121.19 176.679L135.926 172.819L150.704 169.141C160.58 166.8 170.465 164.492 180.365 162.25L195.233 158.97C200.205 157.948 205.159 156.844 210.143 155.872C210.229 155.886 210.288 155.925 210.303 155.991Z" fill="white"/>
</g>
<g clip-path="url(#clip2_4804_13579)">
<path d="M107.725 200.431C112.571 199.067 117.459 197.815 122.319 196.517L137.08 192.755C146.933 190.302 156.8 187.916 166.675 185.563L181.525 182.2L196.415 179.019C206.349 176.932 216.253 174.711 226.128 172.358L225.853 172.615L225.862 172.578L226.036 173.061L221.389 170.17C221.194 170.042 221.119 169.78 221.237 169.56C221.261 169.52 221.301 169.475 221.341 169.431L226.623 165.1L226.779 165.954L221.157 164.2C220.871 164.11 220.699 163.784 220.782 163.485C220.798 163.411 220.831 163.334 220.887 163.286L220.899 163.265L224.019 159.372L224.197 160.396L219.312 157.701C218.953 157.505 218.818 157.048 219.004 156.69C219.036 156.613 219.088 156.548 219.128 156.504L219.156 156.48L221.66 153.919C221.807 153.762 222.009 153.697 222.206 153.686L222.237 153.678L222.253 153.675L221.693 155.116L221.631 155.061L222.337 155.244C212.495 157.747 202.638 160.182 192.771 162.569C182.899 164.938 173.05 167.407 163.149 169.644C153.26 171.93 143.381 174.267 133.462 176.421L118.598 179.718L103.708 182.898L104.155 182.147L107.725 200.431ZM107.518 200.62L102.975 182.442C102.885 182.114 103.075 181.772 103.391 181.698L103.422 181.691L118.179 177.912L132.962 174.25C142.808 171.764 152.694 169.461 162.569 167.108C172.436 164.722 182.348 162.535 192.242 160.265C202.139 158.012 212.047 155.809 221.97 153.671L222.001 153.664C222.254 153.605 222.505 153.685 222.679 153.872L222.741 153.927L222.761 153.94C223.079 154.249 223.11 154.766 222.803 155.1C222.643 155.277 222.398 155.37 222.181 155.368L222.166 155.372L222.747 155.148L220.158 157.624L220.003 156.403L224.795 159.277L224.815 159.29C225.119 159.463 225.227 159.874 225.05 160.196C225.025 160.236 225.001 160.277 224.973 160.301L221.732 164.1L221.471 163.149L227.036 165.09L227.052 165.087C227.302 165.168 227.432 165.452 227.354 165.697C227.325 165.791 227.26 165.876 227.189 165.928L221.853 170.166L221.809 169.443L226.435 172.391C226.59 172.494 226.67 172.703 226.609 172.874L226.6 172.911C226.563 173.042 226.451 173.138 226.325 173.168C216.435 175.455 206.575 177.874 196.744 180.426L181.987 184.204L167.19 187.8C157.3 190.087 147.403 192.34 137.491 194.527L122.605 197.724C117.626 198.718 112.667 199.795 107.678 200.739C107.591 200.725 107.533 200.686 107.518 200.62Z" fill="white"/>
</g>
<g clip-path="url(#clip3_4804_13579)">
<path d="M167.213 327.901C160.311 329.963 153.345 331.86 146.42 333.825L125.383 339.528C111.338 343.248 97.2711 346.871 83.1923 350.445L62.016 355.563L40.7761 360.413C26.6045 363.598 12.4793 366.977 -1.5996 370.551L-1.21313 370.171L-1.22404 370.225L-1.48782 369.518L5.25719 373.71C5.54019 373.897 5.65536 374.281 5.49399 374.605C5.46055 374.665 5.40461 374.731 5.34867 374.796L-2.08954 381.222L-2.33989 379.97L5.76962 382.48C6.18188 382.609 6.43857 383.086 6.32865 383.527C6.30679 383.635 6.26242 383.749 6.18396 383.821L6.16726 383.851L1.81339 389.608L1.52764 388.106L8.60899 392.009C9.12932 392.291 9.33651 392.961 9.0806 393.49C9.03624 393.604 8.9636 393.7 8.90766 393.765L8.86841 393.801L5.35872 397.593C5.15166 397.826 4.86483 397.923 4.58314 397.942L4.53813 397.953L4.51563 397.959L5.27423 395.835L5.36492 395.915L4.34874 395.654C18.3755 391.86 32.4254 388.164 46.4927 384.542C60.5658 380.943 74.6042 377.198 88.7236 373.795C102.826 370.318 116.91 366.768 131.059 363.486L152.258 358.465L173.498 353.615L172.88 354.724L167.213 327.901ZM167.505 327.621L174.562 354.277C174.7 354.759 174.439 355.263 173.988 355.375L173.943 355.386L152.912 361.113L131.84 366.669C117.807 370.438 103.711 373.939 89.6322 377.513C75.5649 381.136 61.4281 384.467 47.3202 387.919C33.2066 391.348 19.0756 394.703 4.92143 397.961L4.87642 397.972C4.51627 398.062 4.15482 397.946 3.89946 397.675L3.80876 397.594L3.78047 397.575C3.31543 397.124 3.25425 396.366 3.68509 395.871C3.90886 395.609 4.25738 395.47 4.56738 395.47L4.5899 395.464L3.76352 395.8L7.39802 392.131L7.65744 393.923L0.704025 389.757L0.675718 389.738C0.234505 389.487 0.0672009 388.884 0.312171 388.411C0.345596 388.351 0.379034 388.291 0.418265 388.255L4.94774 382.634L5.35116 384.029L-2.6812 381.242L-2.70372 381.247C-3.06518 381.131 -3.25946 380.716 -3.15467 380.354C-3.11611 380.216 -3.02674 380.09 -2.92579 380.013L4.59219 373.722L4.67788 374.784L-2.03949 370.507C-2.2659 370.357 -2.38621 370.052 -2.30328 369.799L-2.29234 369.745C-2.24285 369.552 -2.08597 369.409 -1.9059 369.364C12.1962 365.887 26.2519 362.216 40.2613 358.349L61.2927 352.623L82.3879 347.164C96.49 343.687 110.604 340.259 124.74 336.929L145.975 332.054C153.078 330.535 160.152 328.894 167.272 327.447C167.397 327.468 167.481 327.524 167.505 327.621Z" fill="white"/>
</g>
<g clip-path="url(#clip4_4804_13579)">
<path d="M146.105 360.943C153.021 358.928 159.998 357.073 166.935 355.153L188.006 349.579C202.072 345.942 216.16 342.399 230.258 338.905L251.461 333.899L272.725 329.155C286.912 326.039 301.054 322.734 315.153 319.239L314.763 319.61L314.774 319.557L315.029 320.246L308.344 316.17C308.063 315.988 307.953 315.615 308.118 315.299C308.152 315.241 308.208 315.177 308.265 315.113L315.766 308.848L316.002 310.067L307.934 307.631C307.524 307.506 307.273 307.041 307.388 306.613C307.411 306.507 307.457 306.395 307.536 306.326L307.553 306.297L311.967 300.686L312.235 302.148L305.21 298.355C304.693 298.081 304.494 297.428 304.756 296.913C304.802 296.802 304.875 296.709 304.932 296.645L304.971 296.61L308.52 292.914C308.729 292.687 309.017 292.592 309.298 292.573L309.343 292.562L309.366 292.557L308.584 294.626L308.494 294.548L309.506 294.801C295.456 298.509 281.385 302.123 267.298 305.665C253.204 309.183 239.144 312.844 225.007 316.173C210.886 319.573 196.782 323.044 182.617 326.254L161.392 331.165L140.129 335.909L140.759 334.829L146.105 360.943ZM145.811 361.215L139.074 335.265C138.942 334.797 139.209 334.306 139.66 334.196L139.705 334.185L160.77 328.587L181.874 323.155C195.929 319.471 210.044 316.047 224.143 312.553C238.231 309.01 252.384 305.753 266.511 302.376C280.642 299.024 294.79 295.742 308.961 292.556L309.006 292.545C309.366 292.456 309.726 292.569 309.978 292.833L310.067 292.911L310.095 292.929C310.554 293.368 310.607 294.107 310.171 294.589C309.944 294.844 309.595 294.98 309.285 294.98L309.263 294.986L310.092 294.658L306.42 298.235L306.182 296.49L313.076 300.54L313.104 300.558C313.542 300.802 313.702 301.389 313.452 301.851C313.418 301.909 313.384 301.967 313.344 302.002L308.756 307.48L308.37 306.122L316.357 308.828L316.38 308.823C316.739 308.935 316.928 309.34 316.82 309.692C316.78 309.827 316.689 309.949 316.587 310.024L309.008 316.158L308.934 315.124L315.592 319.282C315.816 319.428 315.933 319.725 315.847 319.971L315.835 320.024C315.784 320.212 315.625 320.351 315.445 320.395C301.324 323.795 287.248 327.385 273.215 331.164L252.149 336.761L231.023 342.098C216.903 345.498 202.771 348.851 188.617 352.109L167.359 356.877C160.249 358.364 153.167 359.969 146.041 361.385C145.917 361.365 145.833 361.31 145.811 361.215Z" fill="white"/>
</g>
<g clip-path="url(#clip5_4804_13579)">
<path d="M178.575 372.01C171.672 374.072 164.707 375.97 157.781 377.935L136.744 383.637C122.7 387.357 108.632 390.98 94.5536 394.554L73.3773 399.672L52.1374 404.522C37.9658 407.707 23.8406 411.086 9.76173 414.661L10.1482 414.28L10.1373 414.335L9.8735 413.627L16.6185 417.82C16.9015 418.007 17.0167 418.391 16.8553 418.715C16.8219 418.775 16.7659 418.84 16.71 418.906L9.27179 425.332L9.02144 424.079L17.1309 426.589C17.5432 426.718 17.7999 427.196 17.69 427.636C17.6681 427.745 17.6237 427.859 17.5453 427.93L17.5286 427.96L13.1747 433.718L12.889 432.216L19.9703 436.118C20.4906 436.4 20.6978 437.071 20.4419 437.599C20.3976 437.713 20.3249 437.809 20.269 437.874L20.2297 437.91L16.72 441.703C16.513 441.935 16.2262 442.033 15.9445 442.051L15.8995 442.063L15.877 442.068L16.6355 439.944L16.7262 440.025L15.71 439.763C29.7368 435.97 43.7868 432.274 57.8541 428.651C71.9272 425.052 85.9655 421.308 100.085 417.904C114.187 414.427 128.272 410.877 142.42 407.595L162.416 404.968L185.417 398.994L184.241 398.834L178.575 372.01ZM178.866 371.731L185.923 398.387C186.062 398.868 185.8 399.372 185.35 399.485L185.305 399.496L164.273 405.222L143.201 410.778C129.169 414.547 115.072 418.048 100.994 421.623C86.9262 425.246 72.7894 428.576 58.6816 432.029C44.5679 435.457 30.4369 438.812 16.2828 442.07L16.2377 442.081C15.8776 442.171 15.5161 442.055 15.2608 441.784L15.1701 441.704L15.1418 441.685C14.6768 441.234 14.6156 440.475 15.0464 439.981C15.2702 439.718 15.6187 439.58 15.9287 439.579L15.9512 439.574L15.1248 439.909L18.7593 436.24L19.0188 438.033L12.0654 433.866L12.037 433.847C11.5958 433.597 11.4285 432.994 11.6735 432.52C11.7069 432.46 11.7404 432.4 11.7796 432.364L16.3091 426.743L16.7125 428.138L8.68011 425.351L8.65759 425.357C8.29613 425.241 8.10187 424.825 8.20664 424.464C8.24521 424.325 8.33457 424.199 8.43554 424.123L15.9535 417.831L16.0392 418.893L9.32184 414.616C9.09543 414.466 8.97511 414.161 9.05804 413.908L9.06897 413.854C9.11846 413.661 9.27536 413.519 9.45542 413.474C23.5575 409.997 37.6132 406.325 51.6226 402.459L72.6541 396.732L93.7492 391.274C107.851 387.797 121.965 384.369 136.102 381.038L157.336 376.163C164.439 374.644 171.513 373.003 178.634 371.557C178.758 371.577 178.843 371.633 178.866 371.731Z" fill="white"/>
</g>
<g clip-path="url(#clip6_4804_13579)">
<path d="M163.133 423.51C164.994 430.469 166.688 437.487 168.451 444.467L173.539 465.661C176.849 479.807 180.061 493.974 183.224 508.151L187.724 529.467L191.955 550.839C194.726 565.097 197.693 579.315 200.857 593.491L200.488 593.094L200.542 593.107L199.827 593.35L204.214 586.729C204.409 586.452 204.796 586.348 205.115 586.519C205.174 586.554 205.238 586.612 205.302 586.67L211.509 594.291L210.25 594.505L212.995 586.472C213.136 586.064 213.62 585.821 214.057 585.944C214.165 585.969 214.278 586.016 214.347 586.097L214.376 586.115L220.005 590.634L218.495 590.876L222.602 583.911C222.899 583.399 223.575 583.212 224.096 583.483C224.209 583.53 224.302 583.606 224.366 583.664L224.401 583.704L228.09 587.322C228.316 587.536 228.405 587.826 228.416 588.108L228.426 588.153L228.431 588.176L226.329 587.356L226.412 587.267L226.121 588.276C222.738 574.144 219.452 559.993 216.24 545.826C213.052 531.654 209.717 517.513 206.725 503.301C203.66 489.104 200.521 474.922 197.652 460.684L195.607 440.62L190.305 417.455L190.11 418.626L163.133 423.51ZM162.862 423.21L189.712 416.931C190.197 416.807 190.693 417.083 190.793 417.536L190.803 417.582L195.915 438.771L200.856 459.995C204.216 474.132 207.305 488.324 210.469 502.501C213.681 516.667 216.599 530.895 219.64 545.097C222.656 559.305 225.599 573.527 228.444 587.77L228.454 587.815C228.534 588.178 228.407 588.536 228.129 588.783L228.045 588.872L228.026 588.899C227.562 589.351 226.802 589.39 226.32 588.945C226.064 588.714 225.935 588.361 225.944 588.052L225.939 588.029L226.251 588.865L222.689 585.125L224.488 584.918L220.121 591.747L220.102 591.775C219.838 592.209 219.231 592.358 218.764 592.1C218.705 592.065 218.646 592.029 218.612 591.989L213.125 587.298L214.531 586.935L211.511 594.883L211.516 594.906C211.39 595.264 210.969 595.446 210.61 595.331C210.473 595.288 210.35 595.195 210.276 595.092L204.206 587.394L205.27 587.34L200.799 593.93C200.643 594.152 200.335 594.263 200.084 594.173L200.03 594.16C199.839 594.105 199.701 593.944 199.661 593.763C196.596 579.566 193.335 565.409 189.877 551.293L184.765 530.104L179.922 508.859C176.857 494.662 173.84 480.455 170.922 466.227L166.667 444.86C165.355 437.716 163.92 430.597 162.682 423.437C162.706 423.314 162.764 423.231 162.862 423.21Z" fill="white"/>
</g>
<path d="M217.088 190.427C213.952 191.42 210.775 192.235 207.563 192.892C205.951 193.194 204.325 193.436 202.72 193.77C201.114 194.099 199.527 194.514 197.944 194.946C196.363 195.383 194.777 195.804 193.183 196.187C191.591 196.575 189.999 196.969 188.398 197.319C185.191 197.998 181.972 198.628 178.717 199.096C178.697 199.101 178.677 199.083 178.672 199.061C178.667 199.039 178.679 199.02 178.699 199.015C181.838 198.032 185.015 197.218 188.204 196.457C189.8 196.085 191.407 195.757 193.011 195.423C194.615 195.083 196.227 194.781 197.843 194.496C199.458 194.205 201.068 193.893 202.66 193.505C204.252 193.111 205.825 192.636 207.41 192.215C210.593 191.427 213.812 190.797 217.07 190.346C217.091 190.341 217.111 190.359 217.116 190.381C217.115 190.404 217.104 190.424 217.088 190.427Z" fill="#1E1F21"/>
<path d="M89.9335 152.266C89.3308 151.368 88.8354 150.422 88.4344 149.433C88.2501 148.931 88.1017 148.413 87.8979 147.92C87.6974 147.426 87.4448 146.955 87.1825 146.488C86.9169 146.023 86.6611 145.553 86.4281 145.074C86.1918 144.595 85.9522 144.118 85.7387 143.63C85.3247 142.647 84.9399 141.65 84.6527 140.61C84.6499 140.604 84.6608 140.593 84.6738 140.587C84.6868 140.581 84.6987 140.582 84.7015 140.588C85.2977 141.489 85.793 142.435 86.2559 143.396C86.4824 143.879 86.6829 144.373 86.8867 144.866C87.0937 145.358 87.278 145.86 87.4525 146.366C87.6302 146.871 87.821 147.37 88.0573 147.848C88.2968 148.325 88.5852 148.78 88.841 149.249C89.3201 150.203 89.7048 151.199 89.9823 152.244C89.9851 152.25 89.9742 152.261 89.9612 152.267C89.9475 152.271 89.9356 152.271 89.9335 152.266Z" fill="#1E1F21"/>
<path d="M91.0811 151.573C89.9998 149.639 89.0309 147.654 88.1606 145.624C87.7425 144.602 87.3618 143.562 86.9232 142.549C86.4881 141.534 85.9985 140.544 85.4987 139.558C84.9955 138.574 84.5025 137.586 84.0333 136.586C83.5607 135.588 83.0848 134.592 82.636 133.583C81.7521 131.56 80.8989 129.523 80.1477 127.439C80.1418 127.426 80.1511 127.41 80.1647 127.404C80.1783 127.398 80.1929 127.403 80.1987 127.416C81.2732 129.353 82.2421 131.338 83.1771 133.339C83.6394 134.341 84.0746 135.356 84.5131 136.369C84.9551 137.381 85.3732 138.403 85.7811 139.431C86.1924 140.456 86.6174 141.476 87.0899 142.474C87.5659 143.47 88.0929 144.443 88.5859 145.432C89.5379 147.424 90.3912 149.462 91.1321 151.55C91.138 151.563 91.1287 151.579 91.1151 151.585C91.1 151.588 91.0855 151.583 91.0811 151.573Z" fill="#1E1F21"/>
<path d="M89.4819 152.805C88.6362 152.851 87.7901 152.945 86.9437 153.081C86.5204 153.156 86.0969 153.247 85.6737 153.314C85.2505 153.382 84.8274 153.426 84.4044 153.467C83.9815 153.506 83.5584 153.549 83.1353 153.603C82.7122 153.655 82.2892 153.705 81.866 153.768C81.0196 153.898 80.173 154.041 79.3261 154.227C79.3207 154.228 79.3166 154.235 79.3165 154.24C79.3165 154.246 79.3205 154.25 79.3259 154.249C80.1716 154.2 81.0177 154.106 81.8639 153.998C82.2871 153.941 82.7103 153.873 83.1335 153.807C83.5567 153.742 83.98 153.666 84.4034 153.587C84.8267 153.509 85.25 153.437 85.6731 153.384C86.0961 153.334 86.519 153.305 86.942 153.262C87.7882 153.16 88.6347 153.017 89.4817 152.826C89.4871 152.826 89.4912 152.819 89.4913 152.813C89.49 152.808 89.486 152.804 89.4819 152.805Z" fill="#1E1F21"/>
<path d="M196.321 207.888C193.184 208.881 190.007 209.696 186.795 210.353C185.183 210.655 183.557 210.897 181.953 211.231C180.346 211.56 178.76 211.975 177.177 212.407C175.595 212.844 174.01 213.265 172.416 213.648C170.823 214.036 169.232 214.43 167.63 214.78C164.423 215.459 161.205 216.089 157.95 216.557C157.929 216.562 157.909 216.544 157.904 216.522C157.899 216.5 157.911 216.48 157.932 216.476C161.071 215.493 164.247 214.679 167.436 213.918C169.033 213.546 170.639 213.218 172.244 212.883C173.848 212.544 175.46 212.242 177.076 211.957C178.69 211.666 180.3 211.354 181.893 210.965C183.484 210.572 185.057 210.097 186.643 209.676C189.826 208.888 193.044 208.258 196.303 207.807C196.323 207.802 196.343 207.82 196.348 207.842C196.348 207.865 196.336 207.885 196.321 207.888Z" fill="#1E1F21"/>
<path d="M192.829 224.865C186.383 226.907 179.854 228.581 173.253 229.932C169.939 230.552 166.598 231.049 163.3 231.736C159.999 232.411 156.739 233.265 153.485 234.152C150.235 235.05 146.977 235.915 143.701 236.702C140.428 237.5 137.157 238.309 133.866 239.029C127.274 240.425 120.66 241.72 113.971 242.681C113.929 242.691 113.887 242.654 113.877 242.609C113.867 242.564 113.891 242.524 113.933 242.514C120.384 240.495 126.913 238.821 133.467 237.258C136.748 236.494 140.049 235.818 143.347 235.132C146.643 234.434 149.956 233.814 153.277 233.227C156.596 232.63 159.904 231.988 163.177 231.19C166.448 230.381 169.681 229.404 172.939 228.539C179.481 226.921 186.095 225.626 192.792 224.698C192.834 224.688 192.875 224.726 192.885 224.77C192.885 224.817 192.861 224.858 192.829 224.865Z" fill="#1E1F21"/>
<path d="M207.401 321.173C204.954 321.948 202.476 322.583 199.971 323.096C198.713 323.331 197.445 323.52 196.193 323.78C194.94 324.037 193.703 324.361 192.468 324.698C191.234 325.038 189.998 325.367 188.754 325.665C187.512 325.968 186.271 326.275 185.022 326.549C182.52 327.078 180.009 327.57 177.47 327.935C177.454 327.938 177.439 327.924 177.435 327.907C177.431 327.89 177.44 327.875 177.456 327.871C179.905 327.105 182.383 326.47 184.87 325.877C186.115 325.586 187.368 325.33 188.62 325.069C189.871 324.804 191.129 324.569 192.389 324.347C193.649 324.12 194.904 323.876 196.147 323.573C197.388 323.266 198.615 322.896 199.852 322.567C202.335 321.953 204.845 321.461 207.387 321.109C207.403 321.106 207.418 321.12 207.422 321.137C207.422 321.155 207.413 321.17 207.401 321.173Z" fill="#1E1F21"/>
<path d="M241.227 322.13C238.447 323.011 235.631 323.733 232.784 324.315C231.355 324.583 229.914 324.797 228.491 325.093C227.068 325.385 225.662 325.753 224.259 326.135C222.857 326.523 221.451 326.896 220.039 327.235C218.627 327.579 217.216 327.928 215.797 328.239C212.954 328.841 210.102 329.399 207.217 329.814C207.199 329.818 207.181 329.802 207.176 329.783C207.172 329.764 207.182 329.746 207.2 329.742C209.983 328.871 212.799 328.149 215.625 327.475C217.04 327.145 218.464 326.854 219.886 326.558C221.308 326.257 222.737 325.99 224.169 325.737C225.6 325.479 227.027 325.202 228.438 324.858C229.849 324.509 231.243 324.088 232.649 323.715C235.47 323.017 238.322 322.458 241.211 322.058C241.229 322.054 241.247 322.07 241.251 322.089C241.251 322.11 241.241 322.127 241.227 322.13Z" fill="#1E1F21"/>
<path d="M237.575 230.021C231.129 232.063 224.6 233.737 217.999 235.088C214.685 235.708 211.344 236.205 208.046 236.892C204.745 237.567 201.485 238.421 198.231 239.308C194.981 240.206 191.723 241.071 188.447 241.858C185.174 242.656 181.903 243.465 178.612 244.186C172.021 245.581 165.406 246.877 158.717 247.838C158.675 247.847 158.633 247.81 158.623 247.765C158.613 247.721 158.637 247.68 158.679 247.671C165.131 245.651 171.659 243.977 178.213 242.415C181.494 241.65 184.795 240.974 188.093 240.288C191.389 239.59 194.702 238.97 198.023 238.384C201.342 237.786 204.65 237.144 207.923 236.346C211.194 235.537 214.427 234.561 217.685 233.696C224.227 232.077 230.841 230.782 237.538 229.854C237.58 229.845 237.621 229.882 237.631 229.927C237.631 229.974 237.607 230.014 237.575 230.021Z" fill="#1E1F21"/>
<path d="M260.948 356.045C254.502 358.086 247.973 359.76 241.372 361.111C238.058 361.731 234.717 362.229 231.419 362.915C228.118 363.591 224.858 364.444 221.604 365.332C218.354 366.23 215.096 367.095 211.82 367.882C208.547 368.68 205.276 369.489 201.985 370.209C195.394 371.605 188.779 372.9 182.09 373.861C182.048 373.871 182.006 373.833 181.996 373.789C181.986 373.744 182.01 373.704 182.052 373.694C188.504 371.675 195.032 370.001 201.586 368.438C204.867 367.673 208.168 366.998 211.466 366.311C214.762 365.613 218.075 364.994 221.396 364.407C224.715 363.81 228.023 363.168 231.296 362.369C234.567 361.56 237.8 360.584 241.058 359.719C247.6 358.101 254.214 356.805 260.911 355.878C260.953 355.868 260.994 355.906 261.004 355.95C261.004 355.997 260.98 356.038 260.948 356.045Z" fill="#1E1F21"/>
<path d="M343.13 320.873C336.684 322.914 330.155 324.588 323.553 325.94C320.24 326.559 316.899 327.057 313.601 327.743C310.3 328.419 307.039 329.273 303.786 330.16C300.535 331.058 297.277 331.923 294.002 332.71C290.728 333.508 287.458 334.317 284.167 335.037C277.575 336.433 270.961 337.728 264.272 338.689C264.23 338.699 264.188 338.661 264.178 338.617C264.168 338.572 264.192 338.532 264.234 338.522C270.685 336.503 277.214 334.829 283.768 333.266C287.049 332.502 290.35 331.826 293.648 331.139C296.944 330.442 300.257 329.822 303.578 329.235C306.896 328.638 310.205 327.996 313.478 327.198C316.749 326.388 319.982 325.412 323.24 324.547C329.781 322.929 336.396 321.634 343.092 320.706C343.134 320.696 343.176 320.734 343.186 320.778C343.186 320.825 343.162 320.866 343.13 320.873Z" fill="#1E1F21"/>
<path d="M406.693 322.803C400.246 324.844 393.718 326.518 387.116 327.869C383.803 328.489 380.462 328.986 377.163 329.673C373.862 330.349 370.602 331.202 367.349 332.089C364.098 332.988 360.84 333.853 357.564 334.64C354.291 335.438 351.02 336.247 347.729 336.967C341.138 338.362 334.524 339.658 327.834 340.619C327.792 340.628 327.751 340.591 327.741 340.547C327.731 340.502 327.755 340.461 327.797 340.452C334.248 338.433 340.777 336.759 347.331 335.196C350.611 334.431 353.912 333.756 357.21 333.069C360.506 332.371 363.82 331.751 367.14 331.165C370.459 330.567 373.767 329.925 377.04 329.127C380.311 328.318 383.544 327.342 386.802 326.477C393.344 324.859 399.958 323.563 406.655 322.635C406.697 322.626 406.738 322.663 406.748 322.708C406.748 322.755 406.724 322.795 406.693 322.803Z" fill="#1E1F21"/>
<path d="M409.443 352.193C402.996 354.235 396.468 355.909 389.866 357.26C386.553 357.88 383.212 358.377 379.913 359.064C376.612 359.739 373.352 360.593 370.099 361.48C366.848 362.378 363.59 363.243 360.314 364.03C357.041 364.828 353.77 365.637 350.479 366.357C343.888 367.753 337.274 369.048 330.584 370.01C330.542 370.019 330.501 369.982 330.491 369.937C330.481 369.893 330.505 369.852 330.547 369.843C336.998 367.823 343.527 366.149 350.081 364.586C353.361 363.822 356.662 363.146 359.96 362.46C363.256 361.762 366.57 361.142 369.89 360.556C373.209 359.958 376.517 359.316 379.79 358.518C383.061 357.709 386.294 356.732 389.552 355.868C396.094 354.249 402.708 352.954 409.405 352.026C409.447 352.017 409.488 352.054 409.498 352.099C409.498 352.145 409.474 352.186 409.443 352.193Z" fill="#1E1F21"/>
<path d="M355.657 377.709C349.211 379.75 342.682 381.424 336.081 382.775C332.767 383.395 329.426 383.893 326.128 384.579C322.827 385.255 319.567 386.109 316.314 386.996C313.063 387.894 309.805 388.759 306.529 389.546C303.256 390.344 299.985 391.153 296.694 391.873C290.103 393.269 283.488 394.564 276.799 395.525C276.757 395.535 276.716 395.497 276.705 395.453C276.695 395.408 276.719 395.368 276.761 395.358C283.213 393.339 289.741 391.665 296.295 390.102C299.576 389.337 302.877 388.662 306.175 387.975C309.471 387.277 312.784 386.658 316.105 386.071C319.424 385.474 322.732 384.832 326.005 384.034C329.276 383.224 332.509 382.248 335.767 381.383C342.309 379.765 348.923 378.469 355.62 377.542C355.662 377.532 355.703 377.57 355.713 377.614C355.713 377.661 355.689 377.702 355.657 377.709Z" fill="#1E1F21"/>
<path d="M412.45 379.678C406.004 381.719 399.475 383.393 392.874 384.744C389.56 385.364 386.219 385.861 382.921 386.548C379.62 387.224 376.36 388.077 373.106 388.964C369.856 389.863 366.598 390.728 363.322 391.515C360.049 392.313 356.778 393.122 353.487 393.842C346.896 395.237 340.281 396.533 333.592 397.494C333.55 397.503 333.508 397.466 333.498 397.422C333.488 397.377 333.512 397.336 333.554 397.327C340.006 395.308 346.534 393.634 353.088 392.071C356.369 391.306 359.67 390.631 362.968 389.944C366.264 389.246 369.577 388.626 372.898 388.04C376.217 387.442 379.525 386.8 382.798 386.002C386.069 385.193 389.302 384.217 392.56 383.352C399.102 381.734 405.716 380.438 412.413 379.51C412.455 379.501 412.496 379.538 412.506 379.583C412.506 379.63 412.482 379.67 412.45 379.678Z" fill="#1E1F21"/>
<path d="M313.668 342.625C309.443 343.963 305.165 345.06 300.839 345.946C298.667 346.352 296.478 346.678 294.317 347.128C292.154 347.57 290.017 348.13 287.885 348.711C285.755 349.3 283.62 349.867 281.473 350.382C279.328 350.905 277.185 351.436 275.028 351.907C270.708 352.822 266.374 353.671 261.99 354.301C261.963 354.307 261.936 354.282 261.929 354.253C261.923 354.224 261.938 354.198 261.966 354.191C266.193 352.868 270.472 351.771 274.767 350.747C276.917 350.246 279.08 349.803 281.241 349.353C283.401 348.896 285.572 348.49 287.749 348.105C289.923 347.714 292.091 347.293 294.236 346.77C296.38 346.24 298.498 345.6 300.633 345.033C304.92 343.973 309.254 343.124 313.643 342.516C313.671 342.51 313.698 342.534 313.704 342.563C313.704 342.594 313.688 342.621 313.668 342.625Z" fill="#1E1F21"/>
<path d="M367.948 302.029C361.502 304.071 354.973 305.745 348.372 307.096C345.058 307.716 341.717 308.213 338.419 308.9C335.118 309.575 331.858 310.429 328.605 311.316C325.354 312.214 322.096 313.079 318.82 313.866C315.547 314.664 312.276 315.473 308.985 316.193C302.394 317.589 295.779 318.884 289.09 319.846C289.048 319.855 289.007 319.818 288.996 319.773C288.986 319.729 289.01 319.688 289.052 319.678C295.504 317.659 302.032 315.985 308.586 314.422C311.867 313.658 315.168 312.982 318.466 312.296C321.762 311.598 325.075 310.978 328.396 310.392C331.715 309.794 335.023 309.152 338.296 308.354C341.567 307.545 344.8 306.568 348.058 305.704C354.6 304.085 361.214 302.79 367.911 301.862C367.953 301.853 367.994 301.89 368.004 301.935C368.004 301.981 367.98 302.022 367.948 302.029Z" fill="#1E1F21"/>
<path d="M402.226 277.709C395.78 279.75 389.251 281.424 382.649 282.775C379.336 283.395 375.995 283.893 372.697 284.579C369.396 285.255 366.135 286.109 362.882 286.996C359.631 287.894 356.373 288.759 353.097 289.546C349.824 290.344 346.553 291.153 343.263 291.873C336.671 293.269 330.057 294.564 323.367 295.525C323.325 295.535 323.284 295.497 323.274 295.453C323.264 295.408 323.288 295.368 323.33 295.358C329.781 293.339 336.31 291.665 342.864 290.102C346.145 289.337 349.445 288.662 352.744 287.975C356.039 287.277 359.353 286.658 362.674 286.071C365.992 285.474 369.3 284.832 372.574 284.034C375.844 283.224 379.077 282.248 382.336 281.383C388.877 279.765 395.491 278.469 402.188 277.542C402.23 277.532 402.272 277.57 402.282 277.614C402.281 277.661 402.257 277.702 402.226 277.709Z" fill="#1E1F21"/>
<path d="M290.395 302.852C287.443 303.787 284.454 304.553 281.431 305.172C279.914 305.455 278.385 305.683 276.874 305.998C275.363 306.307 273.87 306.698 272.381 307.104C270.892 307.515 269.4 307.911 267.9 308.272C266.402 308.637 264.904 309.007 263.397 309.337C260.379 309.976 257.351 310.569 254.288 311.009C254.269 311.014 254.25 310.997 254.245 310.976C254.241 310.956 254.252 310.937 254.271 310.933C257.225 310.008 260.214 309.242 263.215 308.526C264.717 308.176 266.228 307.867 267.739 307.552C269.248 307.233 270.765 306.949 272.285 306.681C273.805 306.407 275.319 306.113 276.818 305.748C278.316 305.377 279.796 304.93 281.288 304.534C284.283 303.793 287.311 303.2 290.378 302.775C290.397 302.771 290.416 302.788 290.42 302.808C290.42 302.83 290.409 302.848 290.395 302.852Z" fill="#1E1F21"/>
<path d="M277.585 397.006C271.139 399.047 264.61 400.721 258.009 402.072C254.695 402.692 251.354 403.19 248.056 403.876C244.755 404.552 241.494 405.405 238.241 406.293C234.991 407.191 231.732 408.056 228.457 408.843C225.183 409.641 221.913 410.45 218.622 411.17C212.03 412.566 205.416 413.861 198.727 414.822C198.685 414.832 198.643 414.794 198.633 414.75C198.623 414.705 198.647 414.665 198.689 414.655C205.14 412.636 211.669 410.962 218.223 409.399C221.504 408.634 224.805 407.959 228.103 407.272C231.399 406.574 234.712 405.955 238.033 405.368C241.351 404.771 244.66 404.128 247.933 403.33C251.204 402.521 254.437 401.545 257.695 400.68C264.236 399.062 270.851 397.766 277.548 396.839C277.59 396.829 277.631 396.867 277.641 396.911C277.641 396.958 277.617 396.999 277.585 397.006Z" fill="#1E1F21"/>
<path d="M257.54 352.678C251.094 354.719 244.565 356.393 237.964 357.744C234.65 358.364 231.309 358.861 228.011 359.548C224.71 360.224 221.449 361.077 218.196 361.964C214.946 362.863 211.687 363.728 208.412 364.515C205.138 365.313 201.868 366.122 198.577 366.842C191.985 368.237 185.371 369.533 178.682 370.494C178.64 370.503 178.598 370.466 178.588 370.422C178.578 370.377 178.602 370.336 178.644 370.327C185.095 368.308 191.624 366.634 198.178 365.071C201.459 364.306 204.76 363.631 208.058 362.944C211.354 362.246 214.667 361.626 217.988 361.04C221.306 360.442 224.615 359.8 227.888 359.002C231.159 358.193 234.392 357.217 237.65 356.352C244.192 354.734 250.806 353.438 257.503 352.51C257.545 352.501 257.586 352.538 257.596 352.583C257.596 352.63 257.572 352.67 257.54 352.678Z" fill="#1E1F21"/>
<path d="M210.858 375.332C209.203 375.856 207.527 376.286 205.833 376.633C204.982 376.792 204.124 376.92 203.278 377.096C202.43 377.269 201.593 377.488 200.758 377.716C199.924 377.947 199.088 378.169 198.247 378.371C197.407 378.576 196.567 378.783 195.722 378.968C194.03 379.326 192.332 379.659 190.615 379.906C190.605 379.908 190.594 379.898 190.591 379.887C190.589 379.876 190.595 379.865 190.606 379.863C192.262 379.344 193.938 378.915 195.62 378.514C196.462 378.317 197.309 378.144 198.156 377.968C199.002 377.788 199.853 377.629 200.705 377.479C201.557 377.325 202.406 377.161 203.246 376.956C204.086 376.748 204.916 376.497 205.752 376.275C207.431 375.86 209.129 375.528 210.848 375.289C210.859 375.287 210.87 375.297 210.872 375.308C210.872 375.32 210.866 375.33 210.858 375.332Z" fill="#1E1F21"/>
<path d="M262.621 410.192C259.793 411.087 256.93 411.822 254.034 412.414C252.581 412.686 251.116 412.904 249.669 413.205C248.221 413.502 246.791 413.876 245.364 414.265C243.939 414.659 242.51 415.039 241.073 415.384C239.637 415.734 238.203 416.089 236.759 416.404C233.868 417.017 230.967 417.585 228.033 418.006C228.015 418.01 227.997 417.994 227.992 417.974C227.988 417.955 227.999 417.937 228.017 417.933C230.846 417.047 233.71 416.313 236.585 415.628C238.023 415.292 239.471 414.996 240.918 414.695C242.363 414.389 243.817 414.117 245.273 413.86C246.729 413.598 248.18 413.316 249.615 412.966C251.05 412.611 252.468 412.183 253.897 411.804C256.766 411.094 259.667 410.526 262.604 410.119C262.622 410.115 262.641 410.131 262.645 410.151C262.645 410.171 262.634 410.189 262.621 410.192Z" fill="#1E1F21"/>
<path d="M177.932 215.044C174.796 216.038 171.619 216.852 168.407 217.51C166.794 217.811 165.169 218.053 163.564 218.387C161.958 218.716 160.371 219.131 158.788 219.563C157.207 220 155.621 220.421 154.027 220.804C152.435 221.192 150.843 221.586 149.242 221.936C146.034 222.615 142.816 223.246 139.561 223.713C139.541 223.718 139.521 223.7 139.516 223.678C139.511 223.656 139.522 223.637 139.543 223.632C142.682 222.65 145.859 221.835 149.048 221.075C150.644 220.703 152.25 220.374 153.855 220.04C155.459 219.7 157.071 219.399 158.687 219.113C160.302 218.822 161.911 218.51 163.504 218.122C165.096 217.728 166.669 217.253 168.254 216.832C171.437 216.045 174.655 215.414 177.914 214.963C177.934 214.958 177.955 214.977 177.959 214.998C177.959 215.021 177.948 215.041 177.932 215.044Z" fill="#1E1F21"/>
<path d="M149.413 204.365C146.276 205.358 143.099 206.173 139.887 206.83C138.275 207.131 136.649 207.373 135.044 207.708C133.438 208.036 131.852 208.452 130.269 208.883C128.687 209.32 127.102 209.741 125.508 210.124C123.915 210.513 122.324 210.906 120.722 211.257C117.515 211.936 114.297 212.566 111.042 213.034C111.021 213.038 111.001 213.02 110.996 212.998C110.991 212.977 111.003 212.957 111.023 212.952C114.162 211.97 117.339 211.155 120.528 210.395C122.125 210.023 123.731 209.694 125.336 209.36C126.939 209.02 128.552 208.719 130.167 208.434C131.782 208.143 133.392 207.83 134.985 207.442C136.576 207.048 138.149 206.573 139.735 206.152C142.917 205.365 146.136 204.735 149.394 204.283C149.415 204.279 149.435 204.297 149.44 204.319C149.44 204.341 149.428 204.361 149.413 204.365Z" fill="#1E1F21"/>
</g>
<defs>
<clipPath id="clip0_4804_13579">
<rect width="458" height="521.55" fill="white" transform="translate(71.4766 6) rotate(7.79348)"/>
</clipPath>
<clipPath id="clip1_4804_13579">
<rect width="110.99" height="22.4979" fill="white" transform="translate(102.305 179.734) rotate(-12.8782)"/>
</clipPath>
<clipPath id="clip2_4804_13579">
<rect width="110.99" height="21.748" fill="white" transform="translate(102.465 180.469) rotate(-12.8782)"/>
</clipPath>
<clipPath id="clip3_4804_13579">
<rect width="29.5092" height="32.1916" fill="white" transform="matrix(0.972839 -0.231484 0.231941 0.97273 139.06 332.992)"/>
</clipPath>
<clipPath id="clip4_4804_13579">
<rect width="29.1129" height="31.1185" fill="white" transform="matrix(0.972839 -0.231484 0.231941 0.97273 138.637 332.367)"/>
</clipPath>
<clipPath id="clip5_4804_13579">
<rect width="29.5092" height="32.1916" fill="white" transform="matrix(0.972839 -0.231484 0.231941 0.97273 150.422 377.094)"/>
</clipPath>
<clipPath id="clip6_4804_13579">
<rect width="29.5092" height="30.1643" fill="white" transform="matrix(-0.203097 -0.979159 0.979063 -0.203557 167.394 451.797)"/>
</clipPath>
</defs>
</svg>
