<svg width="701" height="188" viewBox="0 0 701 188" fill="none" xmlns="http://www.w3.org/2000/svg">
<mask id="path-1-outside-1_870_34871" maskUnits="userSpaceOnUse" x="224.176" y="5.51001" width="477" height="164" fill="black">
<rect fill="white" x="224.176" y="5.51001" width="477" height="164"/>
<path d="M313.651 121.734C313.651 137.21 309.741 148.928 301.921 156.89C294.213 164.964 282.428 169.001 266.565 169.001C259.303 169.001 252.154 168.16 245.116 166.478C238.078 164.908 231.599 161.768 225.678 157.058L239.586 136.2C243.496 139.452 247.574 142.032 251.819 143.938C256.176 145.844 260.923 146.798 266.062 146.798C273.77 146.798 279.411 144.891 282.986 141.078C286.673 137.378 288.516 132.612 288.516 126.781V118.875H288.181C285.276 122.8 281.646 125.603 277.289 127.285C273.044 128.855 269.022 129.64 265.224 129.64C259.192 129.64 253.718 128.631 248.803 126.612C243.887 124.482 239.642 121.566 236.068 117.865C232.605 114.053 229.923 109.567 228.024 104.409C226.125 99.2501 225.176 93.587 225.176 87.4193C225.176 82.0365 226.014 76.766 227.689 71.6075C229.477 66.449 231.934 61.9073 235.062 57.9824C238.302 54.0575 242.212 50.9176 246.792 48.5626C251.372 46.0956 256.567 44.862 262.376 44.862C265.95 44.862 269.19 45.2545 272.094 46.0395C275.111 46.8245 277.792 47.8337 280.138 49.0673C282.483 50.3008 284.494 51.7026 286.17 53.2725C287.846 54.7304 289.186 56.1882 290.192 57.646H290.527V46.8805H313.651V121.734ZM250.311 87.2511C250.311 89.9424 250.813 92.5217 251.819 94.9888C252.824 97.3437 254.221 99.4744 256.008 101.381C257.907 103.175 260.03 104.633 262.376 105.754C264.833 106.876 267.514 107.436 270.419 107.436C273.211 107.436 275.837 106.876 278.294 105.754C280.752 104.633 282.874 103.175 284.662 101.381C286.561 99.4744 288.013 97.3437 289.019 94.9888C290.024 92.5217 290.527 89.9424 290.527 87.2511C290.527 84.5597 290.024 82.0365 289.019 79.6816C288.013 77.2145 286.561 75.0838 284.662 73.2896C282.874 71.3832 280.752 69.8693 278.294 68.7479C275.837 67.6265 273.211 67.0658 270.419 67.0658C267.514 67.0658 264.833 67.6265 262.376 68.7479C260.03 69.8693 257.907 71.3832 256.008 73.2896C254.221 75.0838 252.824 77.2145 251.819 79.6816C250.813 82.0365 250.311 84.5597 250.311 87.2511Z"/>
<path d="M325.696 46.8805H350.831V128.631H325.696V46.8805ZM323.685 21.1443C323.685 17.1073 325.082 13.687 327.874 10.8835C330.779 7.96783 334.242 6.51001 338.263 6.51001C342.285 6.51001 345.692 7.96783 348.485 10.8835C351.389 13.687 352.842 17.1073 352.842 21.1443C352.842 25.1814 351.389 28.6577 348.485 31.5734C345.692 34.3769 342.285 35.7786 338.263 35.7786C334.242 35.7786 330.779 34.3769 327.874 31.5734C325.082 28.6577 323.685 25.1814 323.685 21.1443Z"/>
<path d="M362.856 46.8805H385.981V57.646H386.316C387.321 56.1882 388.606 54.7304 390.17 53.2725C391.845 51.7026 393.745 50.3008 395.867 49.0673C398.101 47.8337 400.503 46.8245 403.072 46.0395C405.642 45.2545 408.379 44.862 411.283 44.862C417.316 44.862 422.789 45.9273 427.705 48.058C432.62 50.0765 436.809 52.9922 440.272 56.805C443.847 60.5056 446.584 64.9351 448.483 70.0936C450.382 75.2521 451.331 80.9151 451.331 87.0829C451.331 92.802 450.438 98.2969 448.65 103.567C446.975 108.726 444.517 113.324 441.278 117.361C438.15 121.398 434.296 124.65 429.715 127.117C425.135 129.472 419.941 130.649 414.132 130.649C408.881 130.649 403.966 129.864 399.386 128.294C394.917 126.612 391.231 123.809 388.327 119.884H387.991V166.983H362.856V46.8805ZM385.981 87.7557C385.981 93.9234 387.712 98.9137 391.175 102.726C394.75 106.539 399.721 108.446 406.089 108.446C412.456 108.446 417.371 106.539 420.834 102.726C424.409 98.9137 426.197 93.9234 426.197 87.7557C426.197 81.588 424.409 76.5977 420.834 72.785C417.371 68.9722 412.456 67.0658 406.089 67.0658C399.721 67.0658 394.75 68.9722 391.175 72.785C387.712 76.5977 385.981 81.588 385.981 87.7557Z"/>
<path d="M460.025 46.8805H483.149V57.646H483.485C484.49 56.1882 485.775 54.7304 487.339 53.2725C489.014 51.7026 490.913 50.3008 493.036 49.0673C495.27 47.8337 497.672 46.8245 500.241 46.0395C502.811 45.2545 505.548 44.862 508.452 44.862C514.484 44.862 519.958 45.9273 524.874 48.058C529.789 50.0765 533.978 52.9922 537.441 56.805C541.016 60.5056 543.753 64.9351 545.652 70.0936C547.551 75.2521 548.5 80.9151 548.5 87.0829C548.5 92.802 547.607 98.2969 545.819 103.567C544.144 108.726 541.686 113.324 538.446 117.361C535.318 121.398 531.464 124.65 526.884 127.117C522.304 129.472 517.11 130.649 511.301 130.649C506.05 130.649 501.135 129.864 496.555 128.294C492.086 126.612 488.4 123.809 485.495 119.884H485.16V166.983H460.025V46.8805ZM483.149 87.7557C483.149 93.9234 484.881 98.9137 488.344 102.726C491.919 106.539 496.89 108.446 503.257 108.446C509.625 108.446 514.54 106.539 518.003 102.726C521.578 98.9137 523.365 93.9234 523.365 87.7557C523.365 81.588 521.578 76.5977 518.003 72.785C514.54 68.9722 509.625 67.0658 503.257 67.0658C496.89 67.0658 491.919 68.9722 488.344 72.785C484.881 76.5977 483.149 81.588 483.149 87.7557Z"/>
<path d="M631.929 114.501C627.907 119.66 622.824 123.641 616.68 126.444C610.536 129.248 604.169 130.649 597.578 130.649C591.322 130.649 585.401 129.64 579.816 127.622C574.342 125.603 569.538 122.743 565.405 119.043C561.383 115.23 558.2 110.688 555.854 105.418C553.508 100.147 552.335 94.2598 552.335 87.7557C552.335 81.2516 553.508 75.3642 555.854 70.0936C558.2 64.823 561.383 60.3374 565.405 56.6367C569.538 52.824 574.342 49.9083 579.816 47.8898C585.401 45.8713 591.322 44.862 597.578 44.862C603.387 44.862 608.637 45.8713 613.329 47.8898C618.132 49.9083 622.154 52.824 625.394 56.6367C628.745 60.3374 631.314 64.823 633.102 70.0936C634.889 75.3642 635.783 81.2516 635.783 87.7557V95.6616H577.47C578.475 100.484 580.653 104.352 584.005 107.268C587.356 110.072 591.489 111.473 596.405 111.473C600.538 111.473 604.001 110.576 606.794 108.782C609.698 106.876 612.212 104.465 614.334 101.549L631.929 114.501ZM610.648 78.5041C610.76 74.2428 609.363 70.5982 606.459 67.5704C603.554 64.5426 599.812 63.0288 595.232 63.0288C592.439 63.0288 589.981 63.4773 587.859 64.3744C585.736 65.2716 583.893 66.449 582.329 67.9069C580.877 69.2525 579.704 70.8786 578.81 72.785C578.028 74.5792 577.581 76.4856 577.47 78.5041H610.648Z"/>
<path d="M642.69 46.8805H667.825V60.001H668.16C670.841 54.9546 674.025 51.1979 677.711 48.7309C681.398 46.1516 686.034 44.862 691.619 44.862C693.071 44.862 694.524 44.9181 695.976 45.0302C697.428 45.1424 698.769 45.3666 699.997 45.7031V68.7479C698.21 68.1872 696.423 67.7947 694.635 67.5704C692.96 67.234 691.172 67.0658 689.273 67.0658C684.47 67.0658 680.671 67.7387 677.879 69.0843C675.086 70.43 672.908 72.3364 671.344 74.8035C669.891 77.1584 668.942 80.018 668.495 83.3822C668.048 86.7464 667.825 90.4471 667.825 94.4841V128.631H642.69V46.8805Z"/>
</mask>
<path d="M313.651 121.734C313.651 137.21 309.741 148.928 301.921 156.89C294.213 164.964 282.428 169.001 266.565 169.001C259.303 169.001 252.154 168.16 245.116 166.478C238.078 164.908 231.599 161.768 225.678 157.058L239.586 136.2C243.496 139.452 247.574 142.032 251.819 143.938C256.176 145.844 260.923 146.798 266.062 146.798C273.77 146.798 279.411 144.891 282.986 141.078C286.673 137.378 288.516 132.612 288.516 126.781V118.875H288.181C285.276 122.8 281.646 125.603 277.289 127.285C273.044 128.855 269.022 129.64 265.224 129.64C259.192 129.64 253.718 128.631 248.803 126.612C243.887 124.482 239.642 121.566 236.068 117.865C232.605 114.053 229.923 109.567 228.024 104.409C226.125 99.2501 225.176 93.587 225.176 87.4193C225.176 82.0365 226.014 76.766 227.689 71.6075C229.477 66.449 231.934 61.9073 235.062 57.9824C238.302 54.0575 242.212 50.9176 246.792 48.5626C251.372 46.0956 256.567 44.862 262.376 44.862C265.95 44.862 269.19 45.2545 272.094 46.0395C275.111 46.8245 277.792 47.8337 280.138 49.0673C282.483 50.3008 284.494 51.7026 286.17 53.2725C287.846 54.7304 289.186 56.1882 290.192 57.646H290.527V46.8805H313.651V121.734ZM250.311 87.2511C250.311 89.9424 250.813 92.5217 251.819 94.9888C252.824 97.3437 254.221 99.4744 256.008 101.381C257.907 103.175 260.03 104.633 262.376 105.754C264.833 106.876 267.514 107.436 270.419 107.436C273.211 107.436 275.837 106.876 278.294 105.754C280.752 104.633 282.874 103.175 284.662 101.381C286.561 99.4744 288.013 97.3437 289.019 94.9888C290.024 92.5217 290.527 89.9424 290.527 87.2511C290.527 84.5597 290.024 82.0365 289.019 79.6816C288.013 77.2145 286.561 75.0838 284.662 73.2896C282.874 71.3832 280.752 69.8693 278.294 68.7479C275.837 67.6265 273.211 67.0658 270.419 67.0658C267.514 67.0658 264.833 67.6265 262.376 68.7479C260.03 69.8693 257.907 71.3832 256.008 73.2896C254.221 75.0838 252.824 77.2145 251.819 79.6816C250.813 82.0365 250.311 84.5597 250.311 87.2511Z" fill="#38B234"/>
<path d="M325.696 46.8805H350.831V128.631H325.696V46.8805ZM323.685 21.1443C323.685 17.1073 325.082 13.687 327.874 10.8835C330.779 7.96783 334.242 6.51001 338.263 6.51001C342.285 6.51001 345.692 7.96783 348.485 10.8835C351.389 13.687 352.842 17.1073 352.842 21.1443C352.842 25.1814 351.389 28.6577 348.485 31.5734C345.692 34.3769 342.285 35.7786 338.263 35.7786C334.242 35.7786 330.779 34.3769 327.874 31.5734C325.082 28.6577 323.685 25.1814 323.685 21.1443Z" fill="#38B234"/>
<path d="M362.856 46.8805H385.981V57.646H386.316C387.321 56.1882 388.606 54.7304 390.17 53.2725C391.845 51.7026 393.745 50.3008 395.867 49.0673C398.101 47.8337 400.503 46.8245 403.072 46.0395C405.642 45.2545 408.379 44.862 411.283 44.862C417.316 44.862 422.789 45.9273 427.705 48.058C432.62 50.0765 436.809 52.9922 440.272 56.805C443.847 60.5056 446.584 64.9351 448.483 70.0936C450.382 75.2521 451.331 80.9151 451.331 87.0829C451.331 92.802 450.438 98.2969 448.65 103.567C446.975 108.726 444.517 113.324 441.278 117.361C438.15 121.398 434.296 124.65 429.715 127.117C425.135 129.472 419.941 130.649 414.132 130.649C408.881 130.649 403.966 129.864 399.386 128.294C394.917 126.612 391.231 123.809 388.327 119.884H387.991V166.983H362.856V46.8805ZM385.981 87.7557C385.981 93.9234 387.712 98.9137 391.175 102.726C394.75 106.539 399.721 108.446 406.089 108.446C412.456 108.446 417.371 106.539 420.834 102.726C424.409 98.9137 426.197 93.9234 426.197 87.7557C426.197 81.588 424.409 76.5977 420.834 72.785C417.371 68.9722 412.456 67.0658 406.089 67.0658C399.721 67.0658 394.75 68.9722 391.175 72.785C387.712 76.5977 385.981 81.588 385.981 87.7557Z" fill="#38B234"/>
<path d="M460.025 46.8805H483.149V57.646H483.485C484.49 56.1882 485.775 54.7304 487.339 53.2725C489.014 51.7026 490.913 50.3008 493.036 49.0673C495.27 47.8337 497.672 46.8245 500.241 46.0395C502.811 45.2545 505.548 44.862 508.452 44.862C514.484 44.862 519.958 45.9273 524.874 48.058C529.789 50.0765 533.978 52.9922 537.441 56.805C541.016 60.5056 543.753 64.9351 545.652 70.0936C547.551 75.2521 548.5 80.9151 548.5 87.0829C548.5 92.802 547.607 98.2969 545.819 103.567C544.144 108.726 541.686 113.324 538.446 117.361C535.318 121.398 531.464 124.65 526.884 127.117C522.304 129.472 517.11 130.649 511.301 130.649C506.05 130.649 501.135 129.864 496.555 128.294C492.086 126.612 488.4 123.809 485.495 119.884H485.16V166.983H460.025V46.8805ZM483.149 87.7557C483.149 93.9234 484.881 98.9137 488.344 102.726C491.919 106.539 496.89 108.446 503.257 108.446C509.625 108.446 514.54 106.539 518.003 102.726C521.578 98.9137 523.365 93.9234 523.365 87.7557C523.365 81.588 521.578 76.5977 518.003 72.785C514.54 68.9722 509.625 67.0658 503.257 67.0658C496.89 67.0658 491.919 68.9722 488.344 72.785C484.881 76.5977 483.149 81.588 483.149 87.7557Z" fill="#38B234"/>
<path d="M631.929 114.501C627.907 119.66 622.824 123.641 616.68 126.444C610.536 129.248 604.169 130.649 597.578 130.649C591.322 130.649 585.401 129.64 579.816 127.622C574.342 125.603 569.538 122.743 565.405 119.043C561.383 115.23 558.2 110.688 555.854 105.418C553.508 100.147 552.335 94.2598 552.335 87.7557C552.335 81.2516 553.508 75.3642 555.854 70.0936C558.2 64.823 561.383 60.3374 565.405 56.6367C569.538 52.824 574.342 49.9083 579.816 47.8898C585.401 45.8713 591.322 44.862 597.578 44.862C603.387 44.862 608.637 45.8713 613.329 47.8898C618.132 49.9083 622.154 52.824 625.394 56.6367C628.745 60.3374 631.314 64.823 633.102 70.0936C634.889 75.3642 635.783 81.2516 635.783 87.7557V95.6616H577.47C578.475 100.484 580.653 104.352 584.005 107.268C587.356 110.072 591.489 111.473 596.405 111.473C600.538 111.473 604.001 110.576 606.794 108.782C609.698 106.876 612.212 104.465 614.334 101.549L631.929 114.501ZM610.648 78.5041C610.76 74.2428 609.363 70.5982 606.459 67.5704C603.554 64.5426 599.812 63.0288 595.232 63.0288C592.439 63.0288 589.981 63.4773 587.859 64.3744C585.736 65.2716 583.893 66.449 582.329 67.9069C580.877 69.2525 579.704 70.8786 578.81 72.785C578.028 74.5792 577.581 76.4856 577.47 78.5041H610.648Z" fill="#38B234"/>
<path d="M642.69 46.8805H667.825V60.001H668.16C670.841 54.9546 674.025 51.1979 677.711 48.7309C681.398 46.1516 686.034 44.862 691.619 44.862C693.071 44.862 694.524 44.9181 695.976 45.0302C697.428 45.1424 698.769 45.3666 699.997 45.7031V68.7479C698.21 68.1872 696.423 67.7947 694.635 67.5704C692.96 67.234 691.172 67.0658 689.273 67.0658C684.47 67.0658 680.671 67.7387 677.879 69.0843C675.086 70.43 672.908 72.3364 671.344 74.8035C669.891 77.1584 668.942 80.018 668.495 83.3822C668.048 86.7464 667.825 90.4471 667.825 94.4841V128.631H642.69V46.8805Z" fill="#38B234"/>
<path d="M313.651 121.734C313.651 137.21 309.741 148.928 301.921 156.89C294.213 164.964 282.428 169.001 266.565 169.001C259.303 169.001 252.154 168.16 245.116 166.478C238.078 164.908 231.599 161.768 225.678 157.058L239.586 136.2C243.496 139.452 247.574 142.032 251.819 143.938C256.176 145.844 260.923 146.798 266.062 146.798C273.77 146.798 279.411 144.891 282.986 141.078C286.673 137.378 288.516 132.612 288.516 126.781V118.875H288.181C285.276 122.8 281.646 125.603 277.289 127.285C273.044 128.855 269.022 129.64 265.224 129.64C259.192 129.64 253.718 128.631 248.803 126.612C243.887 124.482 239.642 121.566 236.068 117.865C232.605 114.053 229.923 109.567 228.024 104.409C226.125 99.2501 225.176 93.587 225.176 87.4193C225.176 82.0365 226.014 76.766 227.689 71.6075C229.477 66.449 231.934 61.9073 235.062 57.9824C238.302 54.0575 242.212 50.9176 246.792 48.5626C251.372 46.0956 256.567 44.862 262.376 44.862C265.95 44.862 269.19 45.2545 272.094 46.0395C275.111 46.8245 277.792 47.8337 280.138 49.0673C282.483 50.3008 284.494 51.7026 286.17 53.2725C287.846 54.7304 289.186 56.1882 290.192 57.646H290.527V46.8805H313.651V121.734ZM250.311 87.2511C250.311 89.9424 250.813 92.5217 251.819 94.9888C252.824 97.3437 254.221 99.4744 256.008 101.381C257.907 103.175 260.03 104.633 262.376 105.754C264.833 106.876 267.514 107.436 270.419 107.436C273.211 107.436 275.837 106.876 278.294 105.754C280.752 104.633 282.874 103.175 284.662 101.381C286.561 99.4744 288.013 97.3437 289.019 94.9888C290.024 92.5217 290.527 89.9424 290.527 87.2511C290.527 84.5597 290.024 82.0365 289.019 79.6816C288.013 77.2145 286.561 75.0838 284.662 73.2896C282.874 71.3832 280.752 69.8693 278.294 68.7479C275.837 67.6265 273.211 67.0658 270.419 67.0658C267.514 67.0658 264.833 67.6265 262.376 68.7479C260.03 69.8693 257.907 71.3832 256.008 73.2896C254.221 75.0838 252.824 77.2145 251.819 79.6816C250.813 82.0365 250.311 84.5597 250.311 87.2511Z" stroke="#38B234" stroke-width="0.404834" mask="url(#path-1-outside-1_870_34871)"/>
<path d="M325.696 46.8805H350.831V128.631H325.696V46.8805ZM323.685 21.1443C323.685 17.1073 325.082 13.687 327.874 10.8835C330.779 7.96783 334.242 6.51001 338.263 6.51001C342.285 6.51001 345.692 7.96783 348.485 10.8835C351.389 13.687 352.842 17.1073 352.842 21.1443C352.842 25.1814 351.389 28.6577 348.485 31.5734C345.692 34.3769 342.285 35.7786 338.263 35.7786C334.242 35.7786 330.779 34.3769 327.874 31.5734C325.082 28.6577 323.685 25.1814 323.685 21.1443Z" stroke="#38B234" stroke-width="0.404834" mask="url(#path-1-outside-1_870_34871)"/>
<path d="M362.856 46.8805H385.981V57.646H386.316C387.321 56.1882 388.606 54.7304 390.17 53.2725C391.845 51.7026 393.745 50.3008 395.867 49.0673C398.101 47.8337 400.503 46.8245 403.072 46.0395C405.642 45.2545 408.379 44.862 411.283 44.862C417.316 44.862 422.789 45.9273 427.705 48.058C432.62 50.0765 436.809 52.9922 440.272 56.805C443.847 60.5056 446.584 64.9351 448.483 70.0936C450.382 75.2521 451.331 80.9151 451.331 87.0829C451.331 92.802 450.438 98.2969 448.65 103.567C446.975 108.726 444.517 113.324 441.278 117.361C438.15 121.398 434.296 124.65 429.715 127.117C425.135 129.472 419.941 130.649 414.132 130.649C408.881 130.649 403.966 129.864 399.386 128.294C394.917 126.612 391.231 123.809 388.327 119.884H387.991V166.983H362.856V46.8805ZM385.981 87.7557C385.981 93.9234 387.712 98.9137 391.175 102.726C394.75 106.539 399.721 108.446 406.089 108.446C412.456 108.446 417.371 106.539 420.834 102.726C424.409 98.9137 426.197 93.9234 426.197 87.7557C426.197 81.588 424.409 76.5977 420.834 72.785C417.371 68.9722 412.456 67.0658 406.089 67.0658C399.721 67.0658 394.75 68.9722 391.175 72.785C387.712 76.5977 385.981 81.588 385.981 87.7557Z" stroke="#38B234" stroke-width="0.404834" mask="url(#path-1-outside-1_870_34871)"/>
<path d="M460.025 46.8805H483.149V57.646H483.485C484.49 56.1882 485.775 54.7304 487.339 53.2725C489.014 51.7026 490.913 50.3008 493.036 49.0673C495.27 47.8337 497.672 46.8245 500.241 46.0395C502.811 45.2545 505.548 44.862 508.452 44.862C514.484 44.862 519.958 45.9273 524.874 48.058C529.789 50.0765 533.978 52.9922 537.441 56.805C541.016 60.5056 543.753 64.9351 545.652 70.0936C547.551 75.2521 548.5 80.9151 548.5 87.0829C548.5 92.802 547.607 98.2969 545.819 103.567C544.144 108.726 541.686 113.324 538.446 117.361C535.318 121.398 531.464 124.65 526.884 127.117C522.304 129.472 517.11 130.649 511.301 130.649C506.05 130.649 501.135 129.864 496.555 128.294C492.086 126.612 488.4 123.809 485.495 119.884H485.16V166.983H460.025V46.8805ZM483.149 87.7557C483.149 93.9234 484.881 98.9137 488.344 102.726C491.919 106.539 496.89 108.446 503.257 108.446C509.625 108.446 514.54 106.539 518.003 102.726C521.578 98.9137 523.365 93.9234 523.365 87.7557C523.365 81.588 521.578 76.5977 518.003 72.785C514.54 68.9722 509.625 67.0658 503.257 67.0658C496.89 67.0658 491.919 68.9722 488.344 72.785C484.881 76.5977 483.149 81.588 483.149 87.7557Z" stroke="#38B234" stroke-width="0.404834" mask="url(#path-1-outside-1_870_34871)"/>
<path d="M631.929 114.501C627.907 119.66 622.824 123.641 616.68 126.444C610.536 129.248 604.169 130.649 597.578 130.649C591.322 130.649 585.401 129.64 579.816 127.622C574.342 125.603 569.538 122.743 565.405 119.043C561.383 115.23 558.2 110.688 555.854 105.418C553.508 100.147 552.335 94.2598 552.335 87.7557C552.335 81.2516 553.508 75.3642 555.854 70.0936C558.2 64.823 561.383 60.3374 565.405 56.6367C569.538 52.824 574.342 49.9083 579.816 47.8898C585.401 45.8713 591.322 44.862 597.578 44.862C603.387 44.862 608.637 45.8713 613.329 47.8898C618.132 49.9083 622.154 52.824 625.394 56.6367C628.745 60.3374 631.314 64.823 633.102 70.0936C634.889 75.3642 635.783 81.2516 635.783 87.7557V95.6616H577.47C578.475 100.484 580.653 104.352 584.005 107.268C587.356 110.072 591.489 111.473 596.405 111.473C600.538 111.473 604.001 110.576 606.794 108.782C609.698 106.876 612.212 104.465 614.334 101.549L631.929 114.501ZM610.648 78.5041C610.76 74.2428 609.363 70.5982 606.459 67.5704C603.554 64.5426 599.812 63.0288 595.232 63.0288C592.439 63.0288 589.981 63.4773 587.859 64.3744C585.736 65.2716 583.893 66.449 582.329 67.9069C580.877 69.2525 579.704 70.8786 578.81 72.785C578.028 74.5792 577.581 76.4856 577.47 78.5041H610.648Z" stroke="#38B234" stroke-width="0.404834" mask="url(#path-1-outside-1_870_34871)"/>
<path d="M642.69 46.8805H667.825V60.001H668.16C670.841 54.9546 674.025 51.1979 677.711 48.7309C681.398 46.1516 686.034 44.862 691.619 44.862C693.071 44.862 694.524 44.9181 695.976 45.0302C697.428 45.1424 698.769 45.3666 699.997 45.7031V68.7479C698.21 68.1872 696.423 67.7947 694.635 67.5704C692.96 67.234 691.172 67.0658 689.273 67.0658C684.47 67.0658 680.671 67.7387 677.879 69.0843C675.086 70.43 672.908 72.3364 671.344 74.8035C669.891 77.1584 668.942 80.018 668.495 83.3822C668.048 86.7464 667.825 90.4471 667.825 94.4841V128.631H642.69V46.8805Z" stroke="#38B234" stroke-width="0.404834" mask="url(#path-1-outside-1_870_34871)"/>
<rect width="187.28" height="188" rx="2.02417" fill="#38B234"/>
<path fill-rule="evenodd" clip-rule="evenodd" d="M144.174 33.3898C145.406 39.574 138.258 90.4531 137.521 95.2319C137.139 97.9529 135.714 97.9529 135.549 97.9529H128.088C126.393 97.9529 126.418 95.9077 126.43 94.9383C126.431 94.8928 126.431 94.8496 126.432 94.8092L126.432 94.777L126.432 94.7371C126.432 93.5125 132.43 42.6529 133.036 37.5173C133.064 37.2766 132.872 37.1003 132.63 37.1003L123.593 37.1013C123.388 37.1013 123.215 37.2542 123.191 37.4575L118.546 75.8416C118.297 77.9161 117.065 77.9161 116.342 77.9159L109.576 77.9153C107.208 77.9159 107.297 76.8143 107.466 74.8522C107.573 73.6013 107.711 72.0209 107.871 70.2129C107.773 69.714 107.387 69.2586 106.891 69.2586H105.981L100.145 69.2586C99.9453 69.2586 99.7753 69.4045 99.745 69.6021L97.7126 82.8628C97.3301 85.3365 96.5946 85.8313 94.8692 85.8313H88.7087C87.2289 85.8313 86.2828 84.8258 86.7416 82.8628L87.0562 80.5518C87.0418 80.503 87.0342 80.4488 87.0342 80.3888C87.0342 80.0072 87.0797 79.6586 87.1472 79.3512C87.2828 78.7344 86.8569 77.9725 86.2392 77.9182H80.4393C80.2351 77.9182 80.0628 78.0703 80.0376 78.273L77.8917 95.5059C77.6247 97.7076 76.388 97.7076 75.1533 97.7076H67.7607C66.5342 97.7076 65.3036 97.7076 65.6045 95.234L66.3059 89.6012C66.1292 89.2838 65.8296 89.0486 65.4735 89.0486H64.5626V89.0478H58.6293C58.2179 89.0478 57.8727 89.3511 57.8269 89.7599C57.4502 93.1216 55.8632 107.652 55.4433 117.495C55.0704 126.236 56.0469 138.831 56.4803 143.806C56.5869 145.029 57.5982 145.964 58.8258 145.992L88.7101 146.685L119.666 145.968C120.281 145.953 120.789 145.481 120.847 144.868L123.197 120.094C123.175 120.051 123.151 120.009 123.125 119.969H96.3534C96.1998 119.969 96.0595 120.056 95.991 120.193L94.8706 122.443C93.6385 124.916 92.4064 125.164 89.9422 125.164H85.0138C82.5496 125.164 81.3175 123.679 81.3175 121.206V111.266C81.3175 109.925 82.405 108.837 83.7465 108.837H135.846C136.332 108.837 136.709 109.264 136.649 109.747L130.867 156.182C130.715 157.398 129.682 158.311 128.456 158.311H44.6767C41.8451 158.311 39.6136 155.899 39.8333 153.076L45.4189 81.3051C45.5145 80.0777 46.5131 79.1159 47.7432 79.0665L66.5001 78.3133C66.9895 78.1839 67.4754 77.9008 67.8092 77.5288L68.7719 69.7975C68.8981 68.7841 69.7593 68.0234 70.7805 68.0234H87.1924C87.8525 67.9298 88.5379 67.57 88.8941 67.0525L89.7501 60.7647C89.8594 59.9622 90.5447 59.3638 91.3546 59.3638H106.622C106.649 59.3581 106.678 59.3541 106.708 59.352C106.976 59.3336 107.228 59.3389 107.462 59.3599C107.816 59.3498 108.144 59.3202 108.449 59.2758C108.631 59.1897 108.794 59.0645 108.912 58.9129C108.958 58.4364 109.004 57.958 109.051 57.4785L109.046 57.406L109.058 57.4051C109.794 49.829 110.63 42.0008 111.323 37.5035C112.211 34.5624 113.291 32.2329 114.604 30.9161C117.069 28.4432 118.516 28.1412 121.991 27.7005C124.855 27.3373 126.49 27.1984 129.384 27.2045C132.52 27.2112 137.392 27.823 137.392 27.823C137.392 27.823 143.189 28.4424 144.174 33.3898Z" fill="white"/>
</svg>
