<svg width="147" height="16" viewBox="0 0 147 16" fill="none" xmlns="http://www.w3.org/2000/svg">
<path d="M95.4198 2.35938C94.0315 2.36162 92.6964 2.89027 91.6862 3.83765C90.6761 4.78503 90.0669 6.07988 89.9829 7.45845H91.3468C91.4321 6.44212 91.8981 5.49478 92.6525 4.80426C93.407 4.11375 94.3947 3.7305 95.4198 3.7305C96.4449 3.7305 97.4326 4.11375 98.1871 4.80426C98.9415 5.49478 99.4075 6.44212 99.4928 7.45845H100.861C100.776 6.07947 100.166 4.78459 99.1552 3.83732C98.1443 2.89004 96.8085 2.36155 95.4198 2.35938Z" fill="#1E1F21"/>
<path d="M99.4928 8.14062C99.4075 9.15696 98.9415 10.1043 98.1871 10.7948C97.4326 11.4853 96.4449 11.8686 95.4198 11.8686C94.3947 11.8686 93.407 11.4853 92.6525 10.7948C91.8981 10.1043 91.4321 9.15696 91.3468 8.14062H89.9829C90.1091 9.4858 90.7355 10.7357 91.7394 11.6455C92.7433 12.5553 94.0524 13.0596 95.4104 13.0596C96.7684 13.0596 98.0775 12.5553 99.0813 11.6455C100.085 10.7357 100.712 9.4858 100.838 8.14062H99.4928Z" fill="#1E1F21"/>
<path d="M98.8083 7.45961C98.731 6.6187 98.3405 5.8369 97.7136 5.26765C97.0866 4.6984 96.2685 4.38281 95.4197 4.38281C94.5709 4.38281 93.7527 4.6984 93.1258 5.26765C92.4989 5.8369 92.1084 6.6187 92.031 7.45961C92.0059 7.68586 92.0059 7.91418 92.031 8.14043C92.0628 8.59338 92.1856 9.03539 92.3923 9.4402C92.599 9.84501 92.8854 10.2044 93.2343 10.497C93.5833 10.7896 93.9878 11.0095 94.4239 11.1436C94.8599 11.2777 95.3186 11.3233 95.7727 11.2777C96.2267 11.2321 96.667 11.0962 97.0673 10.8781C97.4676 10.66 97.8197 10.3641 98.1029 10.0079C98.386 9.65182 98.5943 9.24275 98.7155 8.805C98.8367 8.36724 98.8683 7.90973 98.8083 7.45961Z" fill="#1E1F21"/>
<path d="M3.39317 12.7757H5.65384C5.99129 12.7757 6.32848 12.7568 6.66382 12.7194C7.00608 12.6836 7.33968 12.5899 7.65021 12.4423C7.94831 12.3053 8.20534 12.0933 8.3959 11.8273C8.60918 11.5069 8.71189 11.1262 8.68851 10.7426C8.72355 10.4515 8.67941 10.1563 8.5607 9.88789C8.44199 9.61948 8.25306 9.38768 8.01361 9.21668C7.32233 8.88518 6.55636 8.73795 5.79071 8.7894H3.43093L3.39317 12.7757ZM3.39317 6.67183H5.65384C6.30561 6.72156 6.95573 6.55657 7.5039 6.2023C7.69975 6.04613 7.85783 5.84817 7.96646 5.62305C8.07508 5.39794 8.13148 5.15142 8.13148 4.90171C8.13148 4.652 8.07508 4.40548 7.96646 4.18036C7.85783 3.95525 7.69975 3.75729 7.5039 3.60111C6.87767 3.26231 6.16641 3.11068 5.45562 3.16445H3.39317V6.67183ZM0.93429 1.04688H6.33345C6.85495 1.0464 7.37463 1.10787 7.88147 1.23C8.36998 1.34826 8.83237 1.55519 9.24542 1.84038C9.67742 2.14019 10.0266 2.54334 10.2609 3.01269C10.4951 3.48204 10.6068 4.00249 10.5858 4.52608C10.6108 5.23792 10.3667 5.93322 9.90143 6.47463C9.43336 6.99527 8.82864 7.37575 8.1552 7.57333V7.61089C8.57657 7.65784 8.98592 7.78033 9.36341 7.97242C9.72125 8.15177 10.0416 8.39715 10.3073 8.6955C10.5724 8.99431 10.7817 9.33775 10.9256 9.70968C11.076 10.1074 11.1528 10.529 11.1521 10.9539C11.1848 11.5693 11.0499 12.182 10.7617 12.7274C10.4734 13.2729 10.0425 13.7308 9.51443 14.0528C8.99661 14.369 8.42593 14.59 7.82955 14.7055C7.19464 14.837 6.54779 14.9031 5.89926 14.9027H0.93429V1.04688Z" fill="#1E1F21"/>
<path d="M14.4038 1.04688H23.588V3.27714H16.8721V6.67652H23.2435V8.90678H16.8721V12.663H23.9514V14.8933H14.4038V1.04688Z" fill="#1E1F21"/>
<path d="M27.1609 1.04688H30.4315L37.1521 11.3296H37.1899V1.04688H39.6629V14.8886H36.5292L29.6669 4.27254H29.6292V14.8886H27.1609V1.04688Z" fill="#1E1F21"/>
<path d="M50.4471 4.01962C50.1896 3.64423 49.8245 3.35464 49.3993 3.18855C48.9605 3.01041 48.4904 2.92102 48.0165 2.92562C47.7367 2.92539 47.4578 2.9585 47.1859 3.02422C46.9272 3.08423 46.6812 3.18913 46.4591 3.33411C46.2444 3.47725 46.0665 3.66866 45.9399 3.89285C45.8031 4.14133 45.7362 4.42197 45.7464 4.70513C45.7318 4.90897 45.7671 5.11329 45.8493 5.30057C45.9315 5.48785 46.0581 5.65248 46.2184 5.78035C46.592 6.05032 47.0019 6.26685 47.436 6.42361C47.908 6.60672 48.446 6.78045 49.0218 6.94948C49.5795 7.11313 50.1127 7.34998 50.6075 7.65377C51.0938 7.9593 51.5077 8.3662 51.8205 8.84637C52.1691 9.44505 52.3332 10.1324 52.2924 10.8231C52.3183 11.4923 52.1858 12.1581 51.9054 12.7669C51.6456 13.3047 51.2663 13.7767 50.7963 14.1473C50.3156 14.5207 49.7678 14.7995 49.1822 14.969C48.5525 15.1534 47.899 15.2451 47.2425 15.2414C46.3941 15.2468 45.5517 15.1005 44.7553 14.8094C43.9518 14.519 43.2412 14.0196 42.6976 13.3632L44.5571 11.5649C44.8599 12.0203 45.2784 12.388 45.77 12.6308C46.2493 12.8844 46.7846 13.0151 47.3275 13.0111C47.6195 13.0123 47.9102 12.9728 48.1911 12.8937C48.4697 12.8193 48.7343 12.7003 48.9746 12.5416C49.2083 12.3889 49.4037 12.1849 49.5457 11.9453C49.6934 11.6935 49.767 11.4056 49.758 11.1142C49.7738 10.8958 49.7396 10.6766 49.6578 10.4733C49.5761 10.2699 49.4489 10.0877 49.2861 9.94038C48.9211 9.64781 48.5117 9.41483 48.0732 9.25017C47.6012 9.05766 47.0632 8.87924 46.4874 8.71021C45.93 8.54988 45.3967 8.31617 44.9016 8.01531C44.4115 7.72093 43.9952 7.31954 43.684 6.84149C43.3357 6.24782 43.1716 5.56504 43.212 4.87886C43.193 4.22507 43.3459 3.57768 43.6557 3.00074C43.9387 2.48677 44.3338 2.04237 44.8119 1.70015C45.3034 1.34367 45.8571 1.08098 46.4449 0.925427C47.0598 0.756344 47.6948 0.67105 48.3327 0.671881C49.0538 0.67176 49.7705 0.784251 50.4565 1.00525C51.1486 1.22863 51.7822 1.60231 52.3113 2.09925L50.4471 4.01962Z" fill="#1E1F21"/>
<path d="M57.1253 7.87866C57.1187 8.57738 57.2353 9.27184 57.4698 9.9305C57.6825 10.5308 58.013 11.083 58.442 11.5551C58.86 12.0056 59.3658 12.3666 59.9287 12.6162C60.5476 12.8734 61.2118 13.0059 61.8826 13.0059C62.5534 13.0059 63.2175 12.8734 63.8365 12.6162C64.4109 12.3684 64.9257 12.0019 65.3467 11.541C65.7743 11.0686 66.1032 10.5164 66.3142 9.91641C66.551 9.25833 66.6676 8.56347 66.6588 7.86457C66.6652 7.2041 66.5484 6.54818 66.3142 5.93011C66.097 5.34851 65.7684 4.81434 65.3467 4.35719C64.923 3.904 64.4085 3.54413 63.8365 3.30075C62.5836 2.79441 61.1816 2.79441 59.9287 3.30075C59.3618 3.54607 58.8524 3.90581 58.4326 4.35719C58.0078 4.81291 57.6775 5.34739 57.4604 5.93011C57.2284 6.54877 57.1116 7.20429 57.1158 7.86457M54.5295 8.01951C54.5187 6.98737 54.7062 5.96266 55.0817 5.00045C55.415 4.13547 55.9283 3.35035 56.5879 2.69654C57.2475 2.04273 58.0386 1.53501 58.9093 1.20666C59.8522 0.85544 60.8522 0.680347 61.859 0.690173C62.8721 0.664522 63.8815 0.823656 64.837 1.1597C65.7091 1.47501 66.5038 1.97116 67.1685 2.61524C67.8334 3.27169 68.3541 4.05831 68.6976 4.92532C69.0742 5.88383 69.2601 6.90597 69.2451 7.935C69.2578 8.94554 69.0719 9.9488 68.6976 10.8883C68.3478 11.7452 67.8277 12.5229 67.1685 13.1749C66.499 13.8221 65.7064 14.3298 64.837 14.668C62.9319 15.3983 60.8247 15.4133 58.9093 14.7103C58.0423 14.3861 57.2535 13.8841 56.5941 13.237C55.9347 12.5899 55.4194 11.8121 55.0817 10.9541C54.7056 10.0149 54.518 9.0116 54.5295 8.00073" fill="#1E1F21"/>
<path d="M72.2844 1.04688H75.555L82.2757 11.3296H82.3134V1.04688H84.7818V14.8886H81.6385L74.7905 4.27254H74.7527V14.8886H72.2844V1.04688Z" fill="#1E1F21"/>
<path d="M106.058 1.04688H108.54V6.55914H115.025V1.04688H117.507V14.8886H115.034V8.78471H108.54V14.8886H106.072L106.058 1.04688Z" fill="#1E1F21"/>
<path d="M123.77 1.04688H121.302V14.8886H123.77V1.04688Z" fill="#1E1F21"/>
<path d="M127.593 1.04688H130.061V12.6583H135.956V14.8886H127.593V1.04688Z" fill="#1E1F21"/>
<path d="M137.759 1.04688H140.227V12.6583H146.127V14.8886H137.759V1.04688Z" fill="#1E1F21"/>
</svg>
