<svg width="182" height="49" viewBox="0 0 182 49" fill="none" xmlns="http://www.w3.org/2000/svg">
<path d="M112.42 19.3592C111.032 19.3614 109.696 19.8901 108.686 20.8375C107.676 21.7848 107.067 23.0797 106.983 24.4583H108.347C108.432 23.4419 108.898 22.4946 109.653 21.8041C110.407 21.1136 111.395 20.7303 112.42 20.7303C113.445 20.7303 114.433 21.1136 115.187 21.8041C115.942 22.4946 116.408 23.4419 116.493 24.4583H117.861C117.776 23.0793 117.166 21.7844 116.155 20.8371C115.144 19.8899 113.809 19.3614 112.42 19.3592Z" fill="#1E1F21"/>
<path d="M116.493 25.1404C116.408 26.1568 115.942 27.1041 115.187 27.7946C114.433 28.4851 113.445 28.8684 112.42 28.8684C111.395 28.8684 110.407 28.4851 109.653 27.7946C108.898 27.1041 108.432 26.1568 108.347 25.1404H106.983C107.109 26.4856 107.736 27.7355 108.739 28.6453C109.743 29.5551 111.052 30.0594 112.41 30.0594C113.768 30.0594 115.077 29.5551 116.081 28.6453C117.085 27.7355 117.712 26.4856 117.838 25.1404H116.493Z" fill="#1E1F21"/>
<path d="M115.808 24.4594C115.731 23.6185 115.341 22.8367 114.714 22.2675C114.087 21.6982 113.269 21.3826 112.42 21.3826C111.571 21.3826 110.753 21.6982 110.126 22.2675C109.499 22.8367 109.108 23.6185 109.031 24.4594C109.006 24.6857 109.006 24.914 109.031 25.1402C109.063 25.5932 109.186 26.0352 109.392 26.44C109.599 26.8448 109.885 27.2042 110.234 27.4968C110.583 27.7894 110.988 28.0093 111.424 28.1434C111.86 28.2775 112.319 28.3232 112.773 28.2775C113.227 28.2319 113.667 28.096 114.067 27.8779C114.468 27.6598 114.82 27.3639 115.103 27.0078C115.386 26.6516 115.594 26.2426 115.716 25.8048C115.837 25.3671 115.868 24.9095 115.808 24.4594Z" fill="#1E1F21"/>
<path d="M20.3932 29.7755H22.6539C22.9913 29.7755 23.3285 29.7567 23.6639 29.7192C24.0061 29.6834 24.3397 29.5897 24.6502 29.4422C24.9483 29.3051 25.2054 29.0931 25.3959 28.8271C25.6092 28.5067 25.7119 28.126 25.6885 27.7425C25.7236 27.4513 25.6795 27.1561 25.5607 26.8877C25.442 26.6193 25.2531 26.3875 25.0137 26.2165C24.3224 25.885 23.5564 25.7378 22.7907 25.7892H20.431L20.3932 29.7755ZM20.3932 23.6716H22.6539C23.3056 23.7214 23.9558 23.5564 24.5039 23.2021C24.6998 23.0459 24.8579 22.848 24.9665 22.6229C25.0751 22.3978 25.1315 22.1512 25.1315 21.9015C25.1315 21.6518 25.0751 21.4053 24.9665 21.1802C24.8579 20.9551 24.6998 20.7571 24.5039 20.6009C23.8777 20.2621 23.1664 20.1105 22.4557 20.1643H20.3932V23.6716ZM17.9343 18.0467H23.3335C23.855 18.0462 24.3747 18.1077 24.8815 18.2298C25.37 18.3481 25.8324 18.555 26.2455 18.8402C26.6775 19.14 27.0267 19.5432 27.2609 20.0125C27.4951 20.4819 27.6069 21.0023 27.5858 21.5259C27.6109 22.2377 27.3667 22.933 26.9015 23.4744C26.4334 23.9951 25.8287 24.3756 25.1552 24.5731V24.6107C25.5766 24.6577 25.986 24.7801 26.3634 24.9722C26.7213 25.1516 27.0416 25.397 27.3074 25.6953C27.5724 25.9941 27.7818 26.3376 27.9256 26.7095C28.0761 27.1072 28.1528 27.5288 28.1522 27.9537C28.1848 28.5691 28.0499 29.1818 27.7617 29.7273C27.4735 30.2727 27.0426 30.7306 26.5145 31.0526C25.9967 31.3688 25.426 31.5899 24.8296 31.7053C24.1947 31.8368 23.5478 31.9029 22.8993 31.9025H17.9343V18.0467Z" fill="#1E1F21"/>
<path d="M31.4038 18.0467H40.5881V20.277H33.8721V23.6763H40.2435V25.9066H33.8721V29.6628H40.9515V31.8931H31.4038V18.0467Z" fill="#1E1F21"/>
<path d="M44.1609 18.0467H47.4315L54.1522 28.3294H54.1899V18.0467H56.663V31.8884H53.5292L46.667 21.2724H46.6292V31.8884H44.1609V18.0467Z" fill="#1E1F21"/>
<path d="M67.4471 21.0194C67.1897 20.644 66.8246 20.3545 66.3994 20.1884C65.9606 20.0102 65.4905 19.9208 65.0166 19.9254C64.7367 19.9252 64.4579 19.9583 64.1859 20.024C63.9272 20.0841 63.6812 20.189 63.4591 20.3339C63.2444 20.4771 63.0666 20.6685 62.94 20.8927C62.8031 21.1411 62.7362 21.4218 62.7465 21.7049C62.7318 21.9088 62.7671 22.1131 62.8493 22.3004C62.9315 22.4877 63.0582 22.6523 63.2184 22.7802C63.5921 23.0501 64.002 23.2667 64.4361 23.4234C64.908 23.6065 65.446 23.7803 66.0218 23.9493C66.5795 24.113 67.1128 24.3498 67.6076 24.6536C68.0939 24.9591 68.5077 25.366 68.8205 25.8462C69.1691 26.4449 69.3332 27.1322 69.2925 27.8229C69.3184 28.4921 69.1858 29.1579 68.9055 29.7668C68.6456 30.3045 68.2664 30.7765 67.7964 31.1472C67.3156 31.5205 66.7679 31.7993 66.1823 31.9688C65.5525 32.1532 64.899 32.2449 64.2426 32.2412C63.3942 32.2466 62.5517 32.1003 61.7554 31.8092C60.9518 31.5189 60.2412 31.0195 59.6976 30.3631L61.5571 28.5648C61.86 29.0201 62.2784 29.3878 62.7701 29.6306C63.2494 29.8842 63.7847 30.0149 64.3275 30.0109C64.6195 30.0121 64.9102 29.9726 65.1912 29.8935C65.4698 29.8191 65.7343 29.7001 65.9746 29.5414C66.2084 29.3887 66.4037 29.1847 66.5457 28.9451C66.6934 28.6934 66.767 28.4054 66.7581 28.114C66.7739 27.8956 66.7396 27.6764 66.6579 27.4731C66.5761 27.2697 66.449 27.0875 66.2861 26.9402C65.9211 26.6476 65.5117 26.4147 65.0732 26.25C64.6012 26.0575 64.0632 25.8791 63.4874 25.71C62.9301 25.5497 62.3968 25.316 61.9017 25.0151C61.4116 24.7207 60.9952 24.3194 60.684 23.8413C60.3358 23.2476 60.1716 22.5649 60.2121 21.8787C60.1931 21.2249 60.346 20.5775 60.6557 20.0006C60.9387 19.4866 61.3338 19.0422 61.812 18.7C62.3035 18.3435 62.8572 18.0808 63.445 17.9252C64.0598 17.7562 64.6949 17.6709 65.3328 17.6717C66.0539 17.6716 66.7705 17.7841 67.4566 18.0051C68.1487 18.2284 68.7822 18.6021 69.3114 19.0991L67.4471 21.0194Z" fill="#1E1F21"/>
<path d="M74.1253 24.8785C74.1187 25.5772 74.2353 26.2717 74.4698 26.9303C74.6825 27.5306 75.013 28.0828 75.4421 28.5549C75.86 29.0054 76.3659 29.3665 76.9287 29.616C77.5477 29.8733 78.2118 30.0057 78.8826 30.0057C79.5534 30.0057 80.2175 29.8733 80.8365 29.616C81.4109 29.3682 81.9257 29.0017 82.3468 28.5408C82.7743 28.0684 83.1032 27.5162 83.3143 26.9162C83.551 26.2581 83.6677 25.5633 83.6588 24.8644C83.6652 24.2039 83.5484 23.548 83.3143 22.9299C83.097 22.3483 82.7684 21.8142 82.3468 21.357C81.923 20.9038 81.4085 20.5439 80.8365 20.3006C79.5836 19.7942 78.1816 19.7942 76.9287 20.3006C76.3619 20.5459 75.8524 20.9056 75.4326 21.357C75.0079 21.8127 74.6775 22.3472 74.4604 22.9299C74.2284 23.5486 74.1117 24.2041 74.1159 24.8644M71.5296 25.0193C71.5188 23.9872 71.7062 22.9625 72.0817 22.0003C72.415 21.1353 72.9283 20.3502 73.5879 19.6964C74.2475 19.0426 75.0386 18.5348 75.9093 18.2065C76.8522 17.8553 77.8522 17.6802 78.859 17.69C79.8722 17.6643 80.8815 17.8235 81.837 18.1595C82.7091 18.4748 83.5038 18.971 84.1685 19.6151C84.8334 20.2715 85.3541 21.0581 85.6976 21.9251C86.0742 22.8836 86.2602 23.9058 86.2451 24.9348C86.2579 25.9454 86.0719 26.9486 85.6976 27.8882C85.3478 28.745 84.8277 29.5227 84.1685 30.1748C83.4991 30.822 82.7064 31.3296 81.837 31.6679C79.9319 32.3981 77.8247 32.4131 75.9093 31.7101C75.0423 31.3859 74.2535 30.8839 73.5941 30.2368C72.9347 29.5897 72.4195 28.8119 72.0817 27.9539C71.7056 27.0147 71.518 26.0114 71.5296 25.0005" fill="#1E1F21"/>
<path d="M89.2844 18.0467H92.5551L99.2757 28.3294H99.3135V18.0467H101.782V31.8884H98.6386L91.7905 21.2724H91.7528V31.8884H89.2844V18.0467Z" fill="#1E1F21"/>
<path d="M123.058 18.0467H125.54V23.559H132.025V18.0467H134.507V31.8884H132.034V25.7845H125.54V31.8884H123.072L123.058 18.0467Z" fill="#1E1F21"/>
<path d="M140.77 18.0467H138.302V31.8884H140.77V18.0467Z" fill="#1E1F21"/>
<path d="M144.593 18.0467H147.061V29.6581H152.956V31.8884H144.593V18.0467Z" fill="#1E1F21"/>
<path d="M154.759 18.0467H157.227V29.6581H163.127V31.8884H154.759V18.0467Z" fill="#1E1F21"/>
<path d="M161.215 19.7183C161.213 19.4909 161.258 19.2655 161.347 19.0562C161.433 18.8578 161.556 18.6777 161.711 18.5256C161.866 18.3756 162.049 18.2561 162.249 18.1735C162.665 18.0047 163.13 18.0047 163.546 18.1735C163.746 18.2551 163.927 18.3747 164.08 18.5256C164.235 18.6764 164.359 18.8569 164.443 19.0562C164.533 19.2662 164.58 19.4922 164.58 19.7206C164.58 19.949 164.533 20.175 164.443 20.385C164.359 20.5843 164.235 20.7648 164.08 20.9155C163.925 21.0635 163.745 21.1814 163.546 21.263C163.341 21.3497 163.121 21.3943 162.898 21.3943C162.675 21.3943 162.454 21.3497 162.249 21.263C162.05 21.1803 161.867 21.0626 161.711 20.9155C161.556 20.7635 161.433 20.5834 161.347 20.385C161.257 20.1744 161.212 19.9472 161.215 19.7183ZM161.512 19.7183C161.511 19.9129 161.548 20.1059 161.621 20.2864C161.686 20.4606 161.786 20.6202 161.914 20.7559C162.108 20.953 162.357 21.0874 162.629 21.1419C162.9 21.1963 163.182 21.1682 163.438 21.0611C163.601 20.9864 163.75 20.883 163.877 20.7559C164.071 20.5466 164.201 20.2869 164.253 20.0068C164.305 19.7268 164.276 19.4379 164.169 19.1736C164.105 19.0053 164.006 18.8517 163.881 18.7219C163.755 18.592 163.604 18.4886 163.438 18.4177C163.266 18.3466 163.081 18.3101 162.895 18.3101C162.709 18.3101 162.524 18.3466 162.352 18.4177C162.188 18.4884 162.039 18.5904 161.914 18.7182C161.787 18.8551 161.688 19.0143 161.621 19.1877C161.553 19.3565 161.516 19.5363 161.512 19.7183ZM162.253 18.7416H162.994C163.466 18.7416 163.683 18.9247 163.683 19.2957C163.69 19.3678 163.68 19.4405 163.654 19.5082C163.628 19.5758 163.586 19.6364 163.532 19.6854C163.428 19.7713 163.299 19.8222 163.164 19.8309L163.726 20.6949H163.405L162.872 19.8544H162.551V20.6949H162.253V18.7416ZM162.551 19.6103H163.056C163.112 19.6061 163.168 19.5934 163.221 19.5727C163.268 19.5505 163.309 19.5166 163.339 19.4741C163.372 19.417 163.388 19.352 163.386 19.2863C163.388 19.23 163.374 19.1743 163.344 19.1266C163.317 19.0885 163.281 19.0577 163.24 19.0374C163.196 19.0136 163.148 18.9992 163.098 18.9952H162.947H162.551V19.6103Z" fill="#0B1F73"/>
</svg>
