<svg width="155" height="25" viewBox="0 0 155 25" fill="none" xmlns="http://www.w3.org/2000/svg">
<g clip-path="url(#clip0_4421_9863)">
<mask id="mask0_4421_9863" style="mask-type:luminance" maskUnits="userSpaceOnUse" x="0" y="0" width="155" height="25">
<path d="M155 0H0V25H155V0Z" fill="white"/>
</mask>
<g mask="url(#mask0_4421_9863)">
<path d="M20.14 0.75C19.5209 0.75 18.9884 0.964506 18.5511 1.3893C18.1095 1.8141 17.8931 2.33143 17.8931 2.93288C17.8931 3.53432 18.1139 4.05165 18.5511 4.47645C18.9927 4.90125 19.5209 5.11575 20.14 5.11575C20.7591 5.11575 21.2916 4.90125 21.7289 4.47645C22.1661 4.05165 22.3869 3.53432 22.3869 2.93288C22.3869 2.33143 22.1661 1.8141 21.7289 1.3893C21.2872 0.964506 20.7591 0.75 20.14 0.75Z" fill="#1E1F21"/>
<path d="M92.5309 0.75C91.9123 0.75 91.3794 0.964506 90.9423 1.3893C90.5006 1.8141 90.2844 2.33143 90.2844 2.93288C90.2844 3.53432 90.5053 4.05165 90.9423 4.47645C91.3841 4.90125 91.9123 5.11575 92.5309 5.11575C93.1503 5.11575 93.6831 4.90125 94.1202 4.47645C94.5572 4.05165 94.7781 3.53432 94.7781 2.93288C94.7781 2.33143 94.5572 1.8141 94.1202 1.3893C93.6785 0.964506 93.1503 0.75 92.5309 0.75Z" fill="#1E1F21"/>
<path d="M119.789 0.75C119.17 0.75 118.638 0.964506 118.201 1.3893C117.759 1.8141 117.542 2.33143 117.542 2.93288C117.542 3.53432 117.763 4.05165 118.201 4.47645C118.642 4.90125 119.17 5.11575 119.789 5.11575C120.408 5.11575 120.941 4.90125 121.378 4.47645C121.815 4.05165 122.036 3.53432 122.036 2.93288C122.036 2.33143 121.815 1.8141 121.378 1.3893C120.937 0.964506 120.408 0.75 119.789 0.75Z" fill="#1E1F21"/>
<path d="M22.0799 6.78125H18.2051V18.9784H22.0799V6.78125Z" fill="#1E1F21"/>
<path d="M50.7054 12.7986H50.6534L46.4409 0H40.3452V18.9771H44.3758V5.34572H44.4278L49.0516 18.9771H52.1254L56.931 5.34572H56.983V18.9771H61.0136V0H54.9438L50.7054 12.7986Z" fill="#1E1F21"/>
<path d="M69.7719 14.8398H69.72L66.4902 6.78125H62.3037L67.8061 19.0794L67.5207 19.7818C67.3823 20.1182 67.2519 20.4084 67.1355 20.6608C67.0138 20.9132 66.8628 21.1234 66.6805 21.3001C66.4989 21.4768 66.2694 21.6113 65.9967 21.7039C65.7196 21.7964 65.3689 21.8427 64.936 21.8427C64.3169 21.8427 63.7108 21.7165 63.1263 21.4684L62.6111 24.5555C63.5419 24.8583 64.503 25.0055 65.5032 25.0055C66.434 25.0055 67.1828 24.9172 67.7502 24.7405C68.317 24.5639 68.7893 24.3073 69.1572 23.9625C69.5297 23.6175 69.8324 23.197 70.0752 22.6964C70.3173 22.196 70.5641 21.6155 70.8243 20.9636L76.5087 6.78125H72.5299L69.7632 14.8398H69.7719Z" fill="#1E1F21"/>
<path d="M81.9937 0H77.963V18.9771H89.4576V15.36H81.9937V0Z" fill="#1E1F21"/>
<path d="M94.4708 6.78125H90.5964V18.9784H94.4708V6.78125Z" fill="#1E1F21"/>
<path d="M104.896 12.3269C104.407 12.062 103.879 11.8643 103.32 11.7382C102.762 11.6119 102.233 11.4942 101.745 11.3848C101.255 11.2755 100.848 11.1493 100.532 11.0063C100.212 10.8633 100.056 10.6404 100.056 10.3418C100.056 9.97586 100.212 9.71509 100.519 9.56368C100.831 9.41227 101.147 9.33656 101.476 9.33656C102.407 9.33656 103.156 9.68143 103.723 10.367L106.1 8.08317C105.515 7.48175 104.801 7.06118 103.956 6.82983C103.112 6.59849 102.277 6.47656 101.45 6.47656C100.797 6.47656 100.151 6.55643 99.5107 6.71624C98.874 6.87611 98.3066 7.12425 97.8176 7.4565C97.3287 7.79297 96.9302 8.21778 96.6269 8.73509C96.3242 9.25246 96.1772 9.8749 96.1772 10.5941C96.1772 11.3638 96.3368 11.9779 96.6528 12.4363C96.9688 12.899 97.3759 13.2523 97.8655 13.5046C98.3545 13.757 98.8827 13.9462 99.4415 14.0682C99.9996 14.1944 100.528 14.3121 101.017 14.4215C101.506 14.5309 101.914 14.6655 102.229 14.8253C102.549 14.9851 102.706 15.2248 102.706 15.5403C102.706 15.8768 102.524 16.1039 102.164 16.2301C101.8 16.3562 101.398 16.4193 100.952 16.4193C100.367 16.4193 99.8526 16.3058 99.4155 16.0828C98.9778 15.8557 98.5754 15.5277 98.2161 15.0903L95.8652 17.6264C96.4845 18.2447 97.2416 18.6779 98.1383 18.9177C99.0344 19.1574 99.9218 19.2835 100.801 19.2835C101.472 19.2835 102.152 19.2205 102.84 19.0943C103.528 18.9681 104.147 18.7494 104.702 18.4424C105.251 18.1311 105.706 17.7232 106.057 17.2143C106.407 16.7053 106.585 16.0534 106.585 15.2669C106.585 14.4804 106.424 13.8832 106.108 13.4205C105.788 12.9621 105.385 12.5962 104.896 12.3269Z" fill="#1E1F21"/>
<path d="M113.074 2.75781H109.199V6.77447H106.719V9.78588H109.199V15.5859C109.199 16.2546 109.316 16.8224 109.55 17.2934C109.784 17.7603 110.105 18.1431 110.52 18.4333C110.931 18.7277 111.416 18.938 111.966 19.0726C112.516 19.2072 113.117 19.2745 113.775 19.2745C114.222 19.2745 114.681 19.2492 115.144 19.1988C115.607 19.1483 116.057 19.0474 116.486 18.8959V15.7583C116.313 15.9097 116.062 16.0065 115.724 16.0485C115.391 16.0906 115.118 16.1116 114.91 16.1116C114.498 16.1116 114.165 16.0569 113.914 15.9476C113.663 15.8383 113.477 15.6826 113.36 15.4849C113.238 15.2831 113.161 15.0433 113.126 14.7699C113.091 14.4924 113.074 14.1895 113.074 13.8531V9.78588H116.486V6.77447H113.074V2.75781Z" fill="#1E1F21"/>
<path d="M121.729 6.78125H117.854V18.9784H121.729V6.78125Z" fill="#1E1F21"/>
<path d="M135.098 8.13368C134.76 7.61637 134.292 7.20836 133.691 6.914C133.089 6.62374 132.297 6.47656 131.314 6.47656C130.851 6.47656 130.417 6.53541 130.024 6.65323C129.626 6.77099 129.275 6.9224 128.963 7.10323C128.651 7.28829 128.387 7.49861 128.162 7.7299C127.937 7.96547 127.764 8.20099 127.647 8.43233H127.595V6.77515H123.876V18.9723H127.751V12.899C127.751 12.4994 127.777 12.1125 127.829 11.7466C127.881 11.3764 127.989 11.0484 128.154 10.754C128.318 10.4596 128.552 10.2282 128.863 10.0516C129.175 9.87496 129.578 9.78663 130.076 9.78663C130.574 9.78663 130.959 9.88759 131.227 10.0894C131.496 10.2913 131.691 10.5521 131.82 10.8675C131.95 11.1872 132.028 11.5321 132.055 11.9106C132.081 12.2891 132.093 12.6509 132.093 13.0041V18.9766H135.968V12.2513C135.968 11.4311 135.908 10.6698 135.786 9.96746C135.665 9.26509 135.44 8.65522 135.102 8.13368H135.098Z" fill="#1E1F21"/>
<path d="M33.5223 8.07955H33.4704C33.0244 7.49494 32.4486 7.07859 31.7516 6.83885C31.0546 6.59487 30.3012 6.47289 29.4916 6.47289C28.5954 6.47289 27.7946 6.65378 27.0888 7.01128C26.3831 7.37301 25.7857 7.85244 25.2921 8.45391C24.8029 9.05532 24.4219 9.74513 24.1535 10.5232C23.8851 11.3013 23.7552 12.1172 23.7552 12.9711C23.7552 13.8922 23.9024 14.7376 24.1925 15.5072C24.4869 16.2769 24.9025 16.9415 25.4437 17.5008C25.9849 18.0644 26.6386 18.4976 27.3962 18.8047C28.1539 19.1159 28.9981 19.2673 29.9289 19.2673C30.3575 19.2673 30.7775 19.2085 31.1801 19.0907C31.5827 18.9729 31.9551 18.8215 32.2928 18.6406C32.6304 18.4556 32.9205 18.2495 33.1716 18.0266C33.4227 17.7995 33.6218 17.5808 33.7777 17.3621H33.8297V18.9687H37.397V0H33.5223V8.07955ZM32.0243 14.91C31.4659 15.4736 30.7948 15.7554 30.0112 15.7554C29.2275 15.7554 28.5565 15.4736 27.998 14.91C27.4395 14.3464 27.1625 13.6692 27.1625 12.8744C27.1625 12.0794 27.4395 11.3981 27.998 10.8387C28.5565 10.2751 29.2275 9.99327 30.0112 9.99327C30.7948 9.99327 31.4659 10.2751 32.0243 10.8387C32.5785 11.4022 32.8599 12.0794 32.8599 12.8744C32.8599 13.6692 32.5828 14.3464 32.0243 14.91Z" fill="#1E1F21"/>
<path d="M147.666 6.77515V8.38182H147.614C147.458 8.1631 147.251 7.94445 146.995 7.71733C146.735 7.49022 146.428 7.28829 146.064 7.10323C145.701 6.91817 145.293 6.77099 144.834 6.65323C144.38 6.53541 143.873 6.47656 143.324 6.47656C142.428 6.47656 141.627 6.6574 140.921 7.0149C140.215 7.37663 139.618 7.84772 139.124 8.43233C138.635 9.02111 138.254 9.69829 137.985 10.468C137.717 11.2377 137.587 12.0242 137.587 12.8275C137.587 13.7486 137.734 14.594 138.024 15.3637C138.319 16.1334 138.734 16.7979 139.276 17.3573C139.817 17.9167 140.471 18.3541 141.228 18.6611C141.986 18.9723 142.83 19.1237 143.761 19.1237C144.346 19.1237 144.973 19.0018 145.635 18.7578C146.298 18.5181 146.852 18.1018 147.303 17.5171H147.354V18.6948C147.354 19.5654 147.073 20.2804 146.514 20.8398C145.956 21.3992 145.081 21.681 143.891 21.681C143.098 21.681 142.371 21.538 141.709 21.2562C141.047 20.9702 140.414 20.5874 139.808 20.1037L137.665 23.2161C138.579 23.9185 139.578 24.3896 140.661 24.6336C141.748 24.8775 142.847 24.9994 143.969 24.9994C146.415 24.9994 148.237 24.4022 149.433 23.2035C150.631 22.009 151.229 20.2552 151.229 17.9461V6.77515H147.662H147.666ZM145.843 14.7622C145.285 15.3258 144.614 15.6076 143.83 15.6076C143.046 15.6076 142.376 15.3258 141.817 14.7622C141.259 14.1986 140.981 13.5215 140.981 12.7266C140.981 11.9316 141.259 11.2503 141.817 10.6909C142.376 10.1273 143.046 9.84547 143.83 9.84547C144.614 9.84547 145.285 10.1273 145.843 10.6909C146.398 11.2545 146.679 11.9316 146.679 12.7266C146.679 13.5215 146.402 14.1986 145.843 14.7622Z" fill="#1E1F21"/>
<path d="M20.14 0.75C19.5209 0.75 18.9884 0.964506 18.5511 1.3893C18.1095 1.8141 17.8931 2.33143 17.8931 2.93288C17.8931 3.53432 18.1139 4.05165 18.5511 4.47645C18.9927 4.90125 19.5209 5.11575 20.14 5.11575C20.7591 5.11575 21.2916 4.90125 21.7289 4.47645C22.1661 4.05165 22.3869 3.53432 22.3869 2.93288C22.3869 2.33143 22.1661 1.8141 21.7289 1.3893C21.2872 0.964506 20.7591 0.75 20.14 0.75Z" fill="#1E1F21"/>
<path d="M92.5309 0.75C91.9123 0.75 91.3794 0.964506 90.9423 1.3893C90.5006 1.8141 90.2844 2.33143 90.2844 2.93288C90.2844 3.53432 90.5053 4.05165 90.9423 4.47645C91.3841 4.90125 91.9123 5.11575 92.5309 5.11575C93.1503 5.11575 93.6831 4.90125 94.1202 4.47645C94.5572 4.05165 94.7781 3.53432 94.7781 2.93288C94.7781 2.33143 94.5572 1.8141 94.1202 1.3893C93.6785 0.964506 93.1503 0.75 92.5309 0.75Z" fill="#1E1F21"/>
<path d="M119.789 0.75C119.17 0.75 118.638 0.964506 118.201 1.3893C117.759 1.8141 117.542 2.33143 117.542 2.93288C117.542 3.53432 117.763 4.05165 118.201 4.47645C118.642 4.90125 119.17 5.11575 119.789 5.11575C120.408 5.11575 120.941 4.90125 121.378 4.47645C121.815 4.05165 122.036 3.53432 122.036 2.93288C122.036 2.33143 121.815 1.8141 121.378 1.3893C120.937 0.964506 120.408 0.75 119.789 0.75Z" fill="#1E1F21"/>
<path d="M22.0799 6.78125H18.2051V18.9784H22.0799V6.78125Z" fill="#1E1F21"/>
<path d="M50.7054 12.7986H50.6534L46.4409 0H40.3452V18.9771H44.3758V5.34572H44.4278L49.0516 18.9771H52.1254L56.931 5.34572H56.983V18.9771H61.0136V0H54.9438L50.7054 12.7986Z" fill="#1E1F21"/>
<path d="M69.7719 14.8398H69.72L66.4902 6.78125H62.3037L67.8061 19.0794L67.5207 19.7818C67.3823 20.1182 67.2519 20.4084 67.1355 20.6608C67.0138 20.9132 66.8628 21.1234 66.6805 21.3001C66.4989 21.4768 66.2694 21.6113 65.9967 21.7039C65.7196 21.7964 65.3689 21.8427 64.936 21.8427C64.3169 21.8427 63.7108 21.7165 63.1263 21.4684L62.6111 24.5555C63.5419 24.8583 64.503 25.0055 65.5032 25.0055C66.434 25.0055 67.1828 24.9172 67.7502 24.7405C68.317 24.5639 68.7893 24.3073 69.1572 23.9625C69.5297 23.6175 69.8324 23.197 70.0752 22.6964C70.3173 22.196 70.5641 21.6155 70.8243 20.9636L76.5087 6.78125H72.5299L69.7632 14.8398H69.7719Z" fill="#1E1F21"/>
<path d="M81.9937 0H77.963V18.9771H89.4576V15.36H81.9937V0Z" fill="#1E1F21"/>
<path d="M94.4708 6.78125H90.5964V18.9784H94.4708V6.78125Z" fill="#1E1F21"/>
<path d="M104.896 12.3269C104.407 12.062 103.879 11.8643 103.32 11.7382C102.762 11.6119 102.233 11.4942 101.745 11.3848C101.255 11.2755 100.848 11.1493 100.532 11.0063C100.212 10.8633 100.056 10.6404 100.056 10.3418C100.056 9.97586 100.212 9.71509 100.519 9.56368C100.831 9.41227 101.147 9.33656 101.476 9.33656C102.407 9.33656 103.156 9.68143 103.723 10.367L106.1 8.08317C105.515 7.48175 104.801 7.06118 103.956 6.82983C103.112 6.59849 102.277 6.47656 101.45 6.47656C100.797 6.47656 100.151 6.55643 99.5107 6.71624C98.874 6.87611 98.3066 7.12425 97.8176 7.4565C97.3287 7.79297 96.9302 8.21778 96.6269 8.73509C96.3242 9.25246 96.1772 9.8749 96.1772 10.5941C96.1772 11.3638 96.3368 11.9779 96.6528 12.4363C96.9688 12.899 97.3759 13.2523 97.8655 13.5046C98.3545 13.757 98.8827 13.9462 99.4415 14.0682C99.9996 14.1944 100.528 14.3121 101.017 14.4215C101.506 14.5309 101.914 14.6655 102.229 14.8253C102.549 14.9851 102.706 15.2248 102.706 15.5403C102.706 15.8768 102.524 16.1039 102.164 16.2301C101.8 16.3562 101.398 16.4193 100.952 16.4193C100.367 16.4193 99.8526 16.3058 99.4155 16.0828C98.9778 15.8557 98.5754 15.5277 98.2161 15.0903L95.8652 17.6264C96.4845 18.2447 97.2416 18.6779 98.1383 18.9177C99.0344 19.1574 99.9218 19.2835 100.801 19.2835C101.472 19.2835 102.152 19.2205 102.84 19.0943C103.528 18.9681 104.147 18.7494 104.702 18.4424C105.251 18.1311 105.706 17.7232 106.057 17.2143C106.407 16.7053 106.585 16.0534 106.585 15.2669C106.585 14.4804 106.424 13.8832 106.108 13.4205C105.788 12.9621 105.385 12.5962 104.896 12.3269Z" fill="#1E1F21"/>
<path d="M113.074 2.75781H109.199V6.77447H106.719V9.78588H109.199V15.5859C109.199 16.2546 109.316 16.8224 109.55 17.2934C109.784 17.7603 110.105 18.1431 110.52 18.4333C110.931 18.7277 111.416 18.938 111.966 19.0726C112.516 19.2072 113.117 19.2745 113.775 19.2745C114.222 19.2745 114.681 19.2492 115.144 19.1988C115.607 19.1483 116.057 19.0474 116.486 18.8959V15.7583C116.313 15.9097 116.062 16.0065 115.724 16.0485C115.391 16.0906 115.118 16.1116 114.91 16.1116C114.498 16.1116 114.165 16.0569 113.914 15.9476C113.663 15.8383 113.477 15.6826 113.36 15.4849C113.238 15.2831 113.161 15.0433 113.126 14.7699C113.091 14.4924 113.074 14.1895 113.074 13.8531V9.78588H116.486V6.77447H113.074V2.75781Z" fill="#1E1F21"/>
<path d="M121.729 6.78125H117.854V18.9784H121.729V6.78125Z" fill="#1E1F21"/>
<path d="M135.098 8.13368C134.76 7.61637 134.292 7.20836 133.691 6.914C133.089 6.62374 132.297 6.47656 131.314 6.47656C130.851 6.47656 130.417 6.53541 130.024 6.65323C129.626 6.77099 129.275 6.9224 128.963 7.10323C128.651 7.28829 128.387 7.49861 128.162 7.7299C127.937 7.96547 127.764 8.20099 127.647 8.43233H127.595V6.77515H123.876V18.9723H127.751V12.899C127.751 12.4994 127.777 12.1125 127.829 11.7466C127.881 11.3764 127.989 11.0484 128.154 10.754C128.318 10.4596 128.552 10.2282 128.863 10.0516C129.175 9.87496 129.578 9.78663 130.076 9.78663C130.574 9.78663 130.959 9.88759 131.227 10.0894C131.496 10.2913 131.691 10.5521 131.82 10.8675C131.95 11.1872 132.028 11.5321 132.055 11.9106C132.081 12.2891 132.093 12.6509 132.093 13.0041V18.9766H135.968V12.2513C135.968 11.4311 135.908 10.6698 135.786 9.96746C135.665 9.26509 135.44 8.65522 135.102 8.13368H135.098Z" fill="#1E1F21"/>
<path d="M33.5223 8.07955H33.4704C33.0244 7.49494 32.4486 7.07859 31.7516 6.83885C31.0546 6.59487 30.3012 6.47289 29.4916 6.47289C28.5954 6.47289 27.7946 6.65378 27.0888 7.01128C26.3831 7.37301 25.7857 7.85244 25.2921 8.45391C24.8029 9.05532 24.4219 9.74513 24.1535 10.5232C23.8851 11.3013 23.7552 12.1172 23.7552 12.9711C23.7552 13.8922 23.9024 14.7376 24.1925 15.5072C24.4869 16.2769 24.9025 16.9415 25.4437 17.5008C25.9849 18.0644 26.6386 18.4976 27.3962 18.8047C28.1539 19.1159 28.9981 19.2673 29.9289 19.2673C30.3575 19.2673 30.7775 19.2085 31.1801 19.0907C31.5827 18.9729 31.9551 18.8215 32.2928 18.6406C32.6304 18.4556 32.9205 18.2495 33.1716 18.0266C33.4227 17.7995 33.6218 17.5808 33.7777 17.3621H33.8297V18.9687H37.397V0H33.5223V8.07955ZM32.0243 14.91C31.4659 15.4736 30.7948 15.7554 30.0112 15.7554C29.2275 15.7554 28.5565 15.4736 27.998 14.91C27.4395 14.3464 27.1625 13.6692 27.1625 12.8744C27.1625 12.0794 27.4395 11.3981 27.998 10.8387C28.5565 10.2751 29.2275 9.99327 30.0112 9.99327C30.7948 9.99327 31.4659 10.2751 32.0243 10.8387C32.5785 11.4022 32.8599 12.0794 32.8599 12.8744C32.8599 13.6692 32.5828 14.3464 32.0243 14.91Z" fill="#1E1F21"/>
<path d="M147.666 6.77515V8.38182H147.614C147.458 8.1631 147.251 7.94445 146.995 7.71733C146.735 7.49022 146.428 7.28829 146.064 7.10323C145.701 6.91817 145.293 6.77099 144.834 6.65323C144.38 6.53541 143.873 6.47656 143.324 6.47656C142.428 6.47656 141.627 6.6574 140.921 7.0149C140.215 7.37663 139.618 7.84772 139.124 8.43233C138.635 9.02111 138.254 9.69829 137.985 10.468C137.717 11.2377 137.587 12.0242 137.587 12.8275C137.587 13.7486 137.734 14.594 138.024 15.3637C138.319 16.1334 138.734 16.7979 139.276 17.3573C139.817 17.9167 140.471 18.3541 141.228 18.6611C141.986 18.9723 142.83 19.1237 143.761 19.1237C144.346 19.1237 144.973 19.0018 145.635 18.7578C146.298 18.5181 146.852 18.1018 147.303 17.5171H147.354V18.6948C147.354 19.5654 147.073 20.2804 146.514 20.8398C145.956 21.3992 145.081 21.681 143.891 21.681C143.098 21.681 142.371 21.538 141.709 21.2562C141.047 20.9702 140.414 20.5874 139.808 20.1037L137.665 23.2161C138.579 23.9185 139.578 24.3896 140.661 24.6336C141.748 24.8775 142.847 24.9994 143.969 24.9994C146.415 24.9994 148.237 24.4022 149.433 23.2035C150.631 22.009 151.229 20.2552 151.229 17.9461V6.77515H147.662H147.666ZM145.843 14.7622C145.285 15.3258 144.614 15.6076 143.83 15.6076C143.046 15.6076 142.376 15.3258 141.817 14.7622C141.259 14.1986 140.981 13.5215 140.981 12.7266C140.981 11.9316 141.259 11.2503 141.817 10.6909C142.376 10.1273 143.046 9.84547 143.83 9.84547C144.614 9.84547 145.285 10.1273 145.843 10.6909C146.398 11.2545 146.679 11.9316 146.679 12.7266C146.679 13.5215 146.402 14.1986 145.843 14.7622Z" fill="#1E1F21"/>
<path d="M152.428 17.7335C152.428 17.5611 152.463 17.4013 152.532 17.2499C152.602 17.0985 152.692 16.9681 152.809 16.8545C152.926 16.741 153.06 16.6526 153.217 16.5853C153.372 16.518 153.537 16.4844 153.714 16.4844C153.892 16.4844 154.056 16.518 154.212 16.5853C154.368 16.6526 154.502 16.741 154.619 16.8545C154.736 16.9681 154.827 17.0985 154.896 17.2499C154.965 17.4013 155 17.5611 155 17.7335C155 17.906 154.965 18.0658 154.896 18.2173C154.827 18.3687 154.736 18.4991 154.619 18.6126C154.502 18.7262 154.368 18.8145 154.212 18.8817C154.056 18.9491 153.892 18.9827 153.714 18.9827C153.537 18.9827 153.372 18.9491 153.217 18.8817C153.06 18.8145 152.926 18.7262 152.809 18.6126C152.692 18.4991 152.602 18.3687 152.532 18.2173C152.463 18.0658 152.428 17.906 152.428 17.7335ZM152.779 17.7335C152.779 17.8639 152.805 17.9859 152.853 18.0994C152.901 18.213 152.97 18.314 153.052 18.3981C153.139 18.4822 153.238 18.5495 153.35 18.6C153.463 18.6505 153.584 18.6757 153.714 18.6757C153.844 18.6757 153.966 18.6505 154.078 18.6C154.19 18.5495 154.29 18.4822 154.377 18.3981C154.463 18.314 154.528 18.213 154.576 18.0994C154.623 17.9859 154.649 17.8597 154.649 17.7335C154.649 17.6074 154.623 17.4812 154.576 17.3676C154.528 17.2541 154.459 17.1532 154.377 17.069C154.29 16.9849 154.19 16.9176 154.078 16.8671C153.966 16.8167 153.844 16.7914 153.714 16.7914C153.584 16.7914 153.463 16.8167 153.35 16.8671C153.238 16.9176 153.139 16.9849 153.052 17.069C152.965 17.1532 152.901 17.2541 152.853 17.3676C152.805 17.4812 152.779 17.6074 152.779 17.7335ZM153.217 17.0648H153.693C153.727 17.0648 153.779 17.0648 153.844 17.0732C153.909 17.0775 153.974 17.0942 154.035 17.1195C154.095 17.1447 154.151 17.1868 154.199 17.2457C154.247 17.3046 154.268 17.3844 154.268 17.4896C154.268 17.5569 154.26 17.6116 154.242 17.6578C154.225 17.6999 154.199 17.7378 154.173 17.7672C154.143 17.7966 154.113 17.8176 154.073 17.8303C154.035 17.8429 153.996 17.8555 153.957 17.8598L154.303 18.3812H153.94L153.632 17.8766H153.571V18.3812H153.221V17.0732L153.217 17.0648ZM153.567 17.6074H153.71C153.71 17.6074 153.753 17.6074 153.779 17.6074C153.805 17.6074 153.827 17.599 153.848 17.5905C153.87 17.5821 153.887 17.5695 153.9 17.5485C153.914 17.5275 153.922 17.5022 153.922 17.4686C153.922 17.435 153.914 17.4097 153.9 17.3887C153.887 17.3718 153.87 17.355 153.848 17.3466C153.827 17.3382 153.805 17.334 153.779 17.3298C153.753 17.3298 153.731 17.3298 153.71 17.3298H153.567V17.6116V17.6074Z" fill="#1E1F21"/>
<path d="M16.5642 12.38C16.3953 11.8879 16.1615 11.4379 15.8671 11.0299C15.5727 10.6219 15.2221 10.256 14.8194 9.93634C14.538 9.71345 14.235 9.52839 13.9146 9.37698C13.6765 9.54941 13.4297 9.71345 13.1613 9.86063C11.9707 10.5252 10.6935 10.849 9.48999 10.849C7.61968 10.849 5.93989 10.0751 5.07402 8.61986C5.0264 8.53999 4.9831 8.45589 4.94414 8.37595C4.90084 8.28762 4.78395 8.27082 4.71035 8.33807C4.16052 8.86384 3.93973 9.65877 4.16052 10.3864C4.55449 11.6902 6.03947 12.2622 7.21708 11.6692C7.44652 11.5556 7.6413 11.4 7.80588 11.2276C8.36435 11.3874 8.97044 11.4757 9.60687 11.4757C9.85361 11.4757 10.2563 11.4589 10.4944 11.4336C10.4944 11.4336 10.49 13.8142 10.49 13.8394C10.4771 14.0161 10.3732 14.1717 10.2086 14.2516L0 18.9875H11.581C12.3041 18.9875 12.9837 18.8571 13.6159 18.5963C14.248 18.3356 14.8021 17.9738 15.274 17.5154C15.7459 17.057 16.1226 16.5228 16.3997 15.9088C16.6767 15.2947 16.8152 14.6343 16.8152 13.932C16.8152 13.3936 16.7287 12.8763 16.5642 12.3842V12.38Z" fill="#1E1F21"/>
<path d="M5.87493 7.75775C5.92255 7.86711 5.97451 7.97646 6.03512 8.07736C6.50269 8.8639 7.29933 9.38544 8.2431 9.62095C8.25607 9.54948 8.32539 9.02371 7.7755 8.36762C7.28629 7.87127 6.56763 7.64416 5.87061 7.75352L5.87493 7.75775Z" fill="#1E1F21"/>
<path d="M4.63675 4.34892C4.77962 4.27742 4.94846 4.28163 5.08701 4.36154C5.61086 4.66016 6.90535 5.40881 8.08727 6.08176L10.2953 7.29724C10.4381 7.37718 10.5247 7.52019 10.529 7.67583C10.5377 7.98282 10.5506 9.13103 10.5506 9.66519C11.239 9.53904 11.9404 9.29506 12.6071 8.92077C14.7025 7.74731 15.8325 5.69482 15.5035 3.95778C14.9839 1.69499 12.9058 0 10.4165 0H0V6.50654L4.63675 4.34892Z" fill="#1E1F21"/>
<path d="M16.5642 12.38C16.3953 11.8879 16.1615 11.4379 15.8671 11.0299C15.5727 10.6219 15.2221 10.256 14.8194 9.93634C14.538 9.71345 14.235 9.52839 13.9146 9.37698C13.6765 9.54941 13.4297 9.71345 13.1613 9.86063C11.9707 10.5252 10.6935 10.849 9.48999 10.849C7.61968 10.849 5.93989 10.0751 5.07402 8.61986C5.0264 8.53999 4.9831 8.45589 4.94414 8.37595C4.90084 8.28762 4.78395 8.27082 4.71035 8.33807C4.16052 8.86384 3.93973 9.65877 4.16052 10.3864C4.55449 11.6902 6.03947 12.2622 7.21708 11.6692C7.44652 11.5556 7.6413 11.4 7.80588 11.2276C8.36435 11.3874 8.97044 11.4757 9.60687 11.4757C9.85361 11.4757 10.2563 11.4589 10.4944 11.4336C10.4944 11.4336 10.49 13.8142 10.49 13.8394C10.4771 14.0161 10.3732 14.1717 10.2086 14.2516L0 18.9875H11.581C12.3041 18.9875 12.9837 18.8571 13.6159 18.5963C14.248 18.3356 14.8021 17.9738 15.274 17.5154C15.7459 17.057 16.1226 16.5228 16.3997 15.9088C16.6767 15.2947 16.8152 14.6343 16.8152 13.932C16.8152 13.3936 16.7287 12.8763 16.5642 12.3842V12.38Z" fill="#1E1F21"/>
<path d="M5.87493 7.75775C5.92255 7.86711 5.97451 7.97646 6.03512 8.07736C6.50269 8.8639 7.29933 9.38544 8.2431 9.62095C8.25607 9.54948 8.32539 9.02371 7.7755 8.36762C7.28629 7.87127 6.56763 7.64416 5.87061 7.75352L5.87493 7.75775Z" fill="#1E1F21"/>
<path d="M4.63675 4.34892C4.77962 4.27742 4.94846 4.28163 5.08701 4.36154C5.61086 4.66016 6.90535 5.40881 8.08727 6.08176L10.2953 7.29724C10.4381 7.37718 10.5247 7.52019 10.529 7.67583C10.5377 7.98282 10.5506 9.13103 10.5506 9.66519C11.239 9.53904 11.9404 9.29506 12.6071 8.92077C14.7025 7.74731 15.8325 5.69482 15.5035 3.95778C14.9839 1.69499 12.9058 0 10.4165 0H0V6.50654L4.63675 4.34892Z" fill="#1E1F21"/>
</g>
</g>
<defs>
<clipPath id="clip0_4421_9863">
<rect width="155" height="25" fill="white"/>
</clipPath>
</defs>
</svg>
