<svg width="147" height="54" viewBox="0 0 147 54" fill="none" xmlns="http://www.w3.org/2000/svg">
<mask id="mask0_4421_9808" style="mask-type:alpha" maskUnits="userSpaceOnUse" x="50" y="0" width="46" height="39">
<path d="M58.5391 0L95.7845 9.97907L88.1877 38.5797L50.9423 28.6006L58.5391 0Z" fill="#C4C4C4"/>
</mask>
<g mask="url(#mask0_4421_9808)">
<path d="M77.3044 17.6667C78.3048 9.99242 74.3438 4.25907 74.3438 4.25907C74.3438 4.25907 72.7208 7.67943 71.0045 11.1133C69.5627 13.9979 67.933 17.0155 67.8484 18.2868C67.4297 24.572 72.6647 28.4074 72.6647 28.4074C72.6647 28.4074 76.5092 23.7667 77.3044 17.6667Z" fill="#1E1F21"/>
<path d="M82.2916 32.2874C87.8441 32.0433 91.4099 28.4776 91.4099 28.4776C91.4099 28.4776 88.7895 27.7404 86.1481 26.938C83.9291 26.2639 81.5929 25.4715 80.6831 25.5702C76.1852 26.058 74.1197 30.3011 74.1197 30.3011C74.1197 30.3011 77.8781 32.4814 82.2916 32.2874Z" fill="#1E1F21"/>
<path fill-rule="evenodd" clip-rule="evenodd" d="M69.6264 10.7441C68.9301 10.3834 68.1848 10.0919 67.3968 9.88077C61.4909 8.29839 55.4246 11.8292 53.8474 17.7669C52.2702 23.7047 55.7794 29.801 61.6854 31.3834C65.3241 32.3583 69.0236 31.3923 71.6967 29.1184L68.3876 26.9915C66.7188 28.0164 64.6552 28.3775 62.6281 27.8344C58.6974 26.7813 56.3337 22.7114 57.3946 18.7173C58.4555 14.7233 62.5235 12.3766 66.4542 13.4297C66.9868 13.5724 67.4906 13.7705 67.961 14.0163L69.6264 10.7441Z" fill="#1E1F21"/>
<path fill-rule="evenodd" clip-rule="evenodd" d="M67.2374 15.4855C66.8553 15.2819 66.4444 15.1184 66.0088 15.0016C62.8973 14.168 59.6985 16.0392 58.864 19.181C58.1316 21.9384 59.4637 24.7581 61.904 25.9704L63.3241 23.1788C62.1897 22.6308 61.5378 21.3156 61.8895 19.9916C62.287 18.4952 63.7905 17.6498 65.2047 18.0287C65.4222 18.087 65.6272 18.1714 65.8169 18.2781L67.2374 15.4855Z" fill="#1E1F21"/>
<path d="M65.4387 18.7631L61.5438 19.7837L61.0672 20.9125C61.0672 20.9125 61.5285 21.5015 61.9238 21.6805C62.1976 21.8044 62.4788 21.9206 62.6665 21.8795C63.2474 21.752 64.0822 21.5408 64.0822 21.5408L65.4387 18.7631Z" fill="#1E1F21"/>
</g>
<path d="M73.6344 51.3481C73.4287 51.5137 73.1738 51.6404 72.8697 51.7281C72.5746 51.8061 72.2616 51.845 71.9307 51.845C71.0722 51.845 70.4059 51.6063 69.9319 51.1288C69.4669 50.6514 69.2344 49.9498 69.2344 49.024V45.7938V44.0398V42.125H71.3271V44.0398H72.9523C72.9523 44.0398 73.0577 44.032 73.1246 44.0398C73.7497 44.1127 73.7497 45.7209 73.1246 45.7938C73.0577 45.8016 72.9523 45.7938 72.9523 45.7938H71.3271V48.9948C71.3271 49.3261 71.4031 49.5843 71.5551 49.7695C71.7161 49.9449 71.9397 50.0326 72.2258 50.0326C72.4035 50.0326 72.567 50.0045 72.7163 49.9483C72.8657 49.8921 73.8401 51.1824 73.6344 51.3481Z" fill="#1E1F21"/>
<path d="M67.3626 51.7447C67.6664 51.6692 67.9211 51.5601 68.1266 51.4174C68.3321 51.2748 67.3586 50.1636 67.2094 50.212C67.0602 50.2604 66.8968 50.2846 66.7193 50.2846C66.4334 50.2846 66.21 50.2091 66.0492 50.058C65.8973 49.8986 65.8213 49.6762 65.8213 49.3909V46.6344V45.2304V45.1239C65.8213 45.0474 63.8164 44.1506 63.7306 44.9175C63.7216 44.9976 63.7306 45.1239 63.7306 45.1239V46.6344V49.4161C63.7306 50.2133 63.9629 50.8175 64.4275 51.2286C64.901 51.6398 65.5667 51.8454 66.4245 51.8454C66.7551 51.8454 67.0678 51.8118 67.3626 51.7447Z" fill="#1E1F21"/>
<path d="M83.1377 44.9226C83.1251 44.9534 83.1017 45 83.1017 45L79.8781 51.929C79.5473 52.6897 79.1359 53.2256 78.6441 53.5364C78.1612 53.8472 77.5754 54.0027 76.8869 54.0027C76.5113 54.0027 76.1402 53.9495 75.7735 53.8432C75.4069 53.7368 75.1073 53.5896 74.8748 53.4014C74.6423 53.2133 75.9747 52.2726 76.1893 52.3462C76.404 52.4198 76.6141 52.4566 76.8198 52.4566C77.106 52.4566 77.3385 52.3912 77.5173 52.2603C77.6962 52.1376 77.8571 51.929 78.0002 51.6345L78.027 51.5731L74.9928 45.1167C74.9928 45.1167 74.9286 45.0014 74.9016 44.9226C74.6493 44.1865 76.667 44.2406 77.0612 44.9226C77.1031 44.9951 77.149 45.1167 77.149 45.1167L79.0867 49.4013L81.0904 45C81.0904 45 81.1105 44.9523 81.1256 44.9226C81.4574 44.2711 83.4142 44.2498 83.1377 44.9226Z" fill="#1E1F21"/>
<path d="M5.09925 51.845C4.1395 51.845 3.26944 51.6392 2.48908 51.2275C1.71769 50.8068 1.10775 50.2295 0.65927 49.4956C0.219757 48.7527 0 47.9159 0 46.985C0 46.0542 0.219757 45.2218 0.65927 44.4879C1.10775 43.745 1.71769 43.1677 2.48908 42.756C3.26944 42.3353 4.14398 42.125 5.11271 42.125C5.92895 42.125 6.66446 42.2682 7.31925 42.5546C7.97403 42.841 8.30699 45.5875 7.58834 45.0786C6.86968 44.5697 6.16216 43.9777 5.22034 43.9777C4.63732 43.9777 4.11708 44.1075 3.65962 44.3671C3.20217 44.6177 2.84338 44.9712 2.58326 45.4277C2.33211 45.8841 2.20654 46.4033 2.20654 46.985C2.20654 47.5668 2.33211 48.0859 2.58326 48.5424C2.84338 48.9988 3.20217 49.3569 3.65962 49.6164C4.11708 49.867 4.63732 49.9923 5.22034 49.9923C6.16216 49.9923 6.95149 49.6209 7.58834 48.878C8.22518 48.1351 7.983 51.129 7.31925 51.4154C6.65549 51.7018 5.91549 51.845 5.09925 51.845Z" fill="#1E1F21"/>
<path d="M13.4568 51.8427C12.7008 51.8427 12.0204 51.6857 11.4156 51.3719C10.8197 51.049 10.3528 50.6051 10.0148 50.0402C9.6768 49.4752 9.50781 48.834 9.50781 48.1166C9.50781 47.3992 9.6768 46.7581 10.0148 46.1931C10.3528 45.6281 10.8197 45.1887 11.4156 44.8749C12.0204 44.552 12.7008 44.3906 13.4568 44.3906C14.2128 44.3906 14.8888 44.552 15.4847 44.8749C16.0806 45.1887 16.5475 45.6281 16.8855 46.1931C17.2235 46.7581 17.3925 47.3992 17.3925 48.1166C17.3925 48.834 17.2235 49.4752 16.8855 50.0402C16.5475 50.6051 16.0806 51.049 15.4847 51.3719C14.8888 51.6857 14.2128 51.8427 13.4568 51.8427ZM13.4568 50.1209C13.9905 50.1209 14.4263 49.9415 14.7643 49.5828C15.1111 49.2152 15.2846 48.7264 15.2846 48.1166C15.2846 47.5068 15.1111 47.0226 14.7643 46.6639C14.4263 46.2962 13.9905 46.1124 13.4568 46.1124C12.9232 46.1124 12.4829 46.2962 12.136 46.6639C11.7892 47.0226 11.6157 47.5068 11.6157 48.1166C11.6157 48.7264 11.7892 49.2152 12.136 49.5828C12.4829 49.9415 12.9232 50.1209 13.4568 50.1209Z" fill="#1E1F21"/>
<path fill-rule="evenodd" clip-rule="evenodd" d="M46.8374 50.9796C47.3878 51.532 48.635 51.8427 49.576 51.8427C50.5171 51.8427 51.7642 51.532 52.3147 50.9796C52.8651 50.4271 53.1403 49.6074 53.1403 48.5206V44.3906H51.0629V48.2081C51.0629 49.3855 50.5437 49.9925 49.576 49.9925C48.6083 49.9925 48.0892 49.3855 48.0892 48.2081V44.3906H46.0117V48.5206C46.0117 49.6074 46.2869 50.4271 46.8374 50.9796Z" fill="#1E1F21"/>
<path fill-rule="evenodd" clip-rule="evenodd" d="M97.1694 50.9796C97.7198 51.532 98.967 51.8427 99.9081 51.8427C100.849 51.8427 102.096 51.532 102.647 50.9796C103.197 50.4271 103.472 49.6074 103.472 48.5206V44.3906H101.395V48.2081C101.395 49.3855 100.876 49.9925 99.9081 49.9925C98.9404 49.9925 98.4212 49.3855 98.4212 48.2081V44.3906H96.3438V48.5206C96.3438 49.6074 96.619 50.4271 97.1694 50.9796Z" fill="#1E1F21"/>
<path fill-rule="evenodd" clip-rule="evenodd" d="M55.6124 45.1593C56.1795 44.5989 57.4644 44.2837 58.434 44.2837V46.1607C57.437 46.1607 56.9021 46.7765 56.9021 47.9709V51.8438H54.7617V47.6539C54.7617 46.5513 55.0453 45.7198 55.6124 45.1593ZM61.3637 45.1593C60.7966 44.5989 59.5116 44.2837 58.542 44.2837V46.1607C59.5391 46.1607 60.0739 46.7765 60.0739 47.9709V51.8438H62.2144V47.6539C62.2144 46.5513 61.9308 45.7198 61.3637 45.1593Z" fill="#1E1F21"/>
<path fill-rule="evenodd" clip-rule="evenodd" d="M108.82 44.284C108.838 44.2838 108.856 44.2837 108.874 44.2837V44.2849C109.858 44.3065 111.108 44.6188 111.671 45.1593C112.254 45.7198 112.546 46.5513 112.546 47.6539V51.8438H110.343V47.9709C110.343 46.7976 109.812 46.1827 108.82 46.1613C107.828 46.1827 107.297 46.7976 107.297 47.9709V51.8438H105.094V47.6539C105.094 46.5513 105.386 45.7198 105.969 45.1593C106.532 44.6188 107.783 44.3065 108.766 44.2849V44.2837C108.784 44.2837 108.802 44.2838 108.82 44.284Z" fill="#1E1F21"/>
<path fill-rule="evenodd" clip-rule="evenodd" d="M21.974 44.5C21.0673 44.5 20.3492 44.769 19.8196 45.307C19.281 45.8361 19.0117 46.6342 19.0117 47.7012V51.844H21.1122V48.0241C21.1122 47.4502 21.2334 47.0242 21.4758 46.7463C21.7092 46.4593 22.0458 46.3158 22.4856 46.3158C22.9794 46.3158 23.3698 46.4772 23.6571 46.8001C23.9327 47.1012 23.9323 47.5468 23.9318 48.1368C23.9318 48.1617 23.9318 48.1869 23.9318 48.2124V51.844H23.9801H26.0323H26.0807V48.2124C26.0807 48.1869 26.0806 48.1617 26.0806 48.1368C26.0801 47.5468 26.0798 47.1012 26.3554 46.8001C26.6426 46.4772 27.0331 46.3158 27.5268 46.3158C27.9667 46.3158 28.3033 46.4593 28.5367 46.7463C28.7791 47.0242 28.9002 47.4502 28.9002 48.0241V51.844H31.0007V47.7012C31.0007 46.6342 30.7315 45.8361 30.1929 45.307C29.6632 44.769 28.9451 44.5 28.0385 44.5C27.4999 44.5 27.0017 44.6031 26.5439 44.8094C26.0951 45.0156 25.7225 45.307 25.4263 45.6837C25.4263 45.6837 25.3396 45.7772 25.0378 46.2294C25.0275 46.2448 25.0169 46.2607 25.0062 46.2771C24.9955 46.2607 24.985 46.2448 24.9747 46.2294C24.6729 45.7772 24.5862 45.6837 24.5862 45.6837C24.2899 45.307 23.9174 45.0156 23.4686 44.8094C23.0108 44.6031 22.5126 44.5 21.974 44.5Z" fill="#1E1F21"/>
<path fill-rule="evenodd" clip-rule="evenodd" d="M35.474 44.5C34.5673 44.5 33.8492 44.769 33.3196 45.307C32.781 45.8361 32.5117 46.6342 32.5117 47.7012V51.844H34.6122V48.0241C34.6122 47.4502 34.7334 47.0242 34.9758 46.7463C35.2092 46.4593 35.5458 46.3158 35.9856 46.3158C36.4794 46.3158 36.8698 46.4772 37.1571 46.8001C37.4327 47.1012 37.4323 47.5468 37.4318 48.1368C37.4318 48.1617 37.4318 48.1869 37.4318 48.2124V51.844H37.4801H39.5323H39.5807V48.2124C39.5807 48.1869 39.5806 48.1617 39.5806 48.1368C39.5801 47.5468 39.5798 47.1012 39.8554 46.8001C40.1426 46.4772 40.5331 46.3158 41.0268 46.3158C41.4667 46.3158 41.8033 46.4593 42.0367 46.7463C42.2791 47.0242 42.4002 47.4502 42.4002 48.0241V51.844H44.5007V47.7012C44.5007 46.6342 44.2315 45.8361 43.6929 45.307C43.1632 44.769 42.4451 44.5 41.5385 44.5C40.9999 44.5 40.5017 44.6031 40.0439 44.8094C39.5951 45.0156 39.2225 45.307 38.9263 45.6837C38.9263 45.6837 38.8396 45.7772 38.5378 46.2294C38.5275 46.2448 38.5169 46.2607 38.5062 46.2771C38.4955 46.2607 38.485 46.2448 38.4747 46.2294C38.1729 45.7772 38.0862 45.6837 38.0862 45.6837C37.7899 45.307 37.4174 45.0156 36.9686 44.8094C36.5108 44.6031 36.0126 44.5 35.474 44.5Z" fill="#1E1F21"/>
<path d="M65.7793 43.151C65.7793 43.7177 65.3198 44.177 64.7529 44.177C64.1861 44.177 63.7266 43.7177 63.7266 43.151C63.7266 42.5844 64.1861 42.125 64.7529 42.125C65.3198 42.125 65.7793 42.5844 65.7793 43.151Z" fill="#1E1F21"/>
<path d="M142.914 42.4984H142.141V42.125H144.121V42.4984H143.348V44.501H142.914V42.4984Z" fill="#1E1F21"/>
<path d="M146.591 44.501L146.588 42.9261L145.821 44.2295H145.627L144.86 42.9464V44.501H144.447V42.125H144.804L145.731 43.7L146.641 42.125H146.998L147.001 44.501H146.591Z" fill="#1E1F21"/>
<path fill-rule="evenodd" clip-rule="evenodd" d="M125.656 48.8179C125.754 49.2663 125.985 49.6205 126.349 49.8805C126.714 50.1406 127.167 50.2706 127.71 50.2706C128.083 50.2706 128.412 50.2168 128.696 50.1092C128.905 50.0262 129.103 49.9114 129.289 49.7648C129.475 49.6182 131.292 50.0016 130.616 50.7818C129.941 51.5619 128.954 51.952 127.656 51.952C126.847 51.952 126.132 51.7951 125.509 51.4812C124.887 51.1584 124.407 50.7145 124.069 50.1496C123.731 49.5846 123.562 48.9434 123.562 48.226C123.562 47.5176 123.727 46.8809 124.056 46.3159C124.394 45.742 124.852 45.2981 125.429 44.9842C126.016 44.6614 126.669 44.5 127.389 44.5C128.092 44.5 128.727 44.6524 129.296 44.9573C129.865 45.2622 130.31 45.7017 130.63 46.2756C130.959 46.8405 131.123 47.688 131.123 48.2529C131.123 48.8179 130.755 48.8179 130.755 48.8179H125.656ZM126.216 46.4908C126.536 46.2218 126.932 46.0873 127.403 46.0873C127.865 46.0873 128.256 46.2263 128.576 46.5042C128.896 46.7733 129.092 47.1365 129.163 47.5938H125.629C125.7 47.1275 125.896 46.7598 126.216 46.4908Z" fill="#1E1F21"/>
<path fill-rule="evenodd" clip-rule="evenodd" d="M120.712 51.075C119.686 51.8069 118.77 51.845 117.783 51.845C117.101 51.845 116.483 51.6982 115.926 51.4044C115.379 51.1106 114.949 50.6916 114.635 50.1473C114.321 49.603 114.164 48.9722 114.164 48.2551C114.164 47.538 114.321 46.9073 114.635 46.3629C114.949 45.8186 115.379 45.3996 115.926 45.1058C116.483 44.8121 117.101 44.6652 117.783 44.6652C118.707 44.6652 119.429 44.946 119.949 45.5076V42.125H122.048V48.607C122.048 48.607 122.081 49.2299 121.775 49.8365C121.632 50.1211 121.541 50.2869 121.276 50.5604C121.008 50.8368 120.712 51.075 120.712 51.075ZM119.465 49.6678C119.115 50.0134 118.675 50.1862 118.146 50.1862C117.608 50.1862 117.164 50.0134 116.814 49.6678C116.465 49.3135 116.29 48.8426 116.29 48.2551C116.29 47.6676 116.465 47.201 116.814 46.8554C117.164 46.5012 117.608 46.3241 118.146 46.3241C118.675 46.3241 119.115 46.5012 119.465 46.8554C119.814 47.201 119.989 47.6676 119.989 48.2551C119.989 48.8426 119.814 49.3135 119.465 49.6678Z" fill="#1E1F21"/>
<path fill-rule="evenodd" clip-rule="evenodd" d="M139.29 51.075C138.264 51.8069 137.348 51.845 136.361 51.845C135.679 51.845 135.061 51.6982 134.505 51.4044C133.957 51.1106 133.527 50.6916 133.213 50.1473C132.899 49.603 132.742 48.9722 132.742 48.2551C132.742 47.538 132.899 46.9073 133.213 46.3629C133.527 45.8186 133.957 45.3996 134.505 45.1058C135.061 44.8121 135.679 44.6652 136.361 44.6652C137.285 44.6652 138.007 44.946 138.527 45.5076V42.125H140.626V48.607C140.626 48.607 140.659 49.2299 140.354 49.8365C140.21 50.1211 140.119 50.2869 139.854 50.5604C139.586 50.8368 139.29 51.075 139.29 51.075ZM138.043 49.6678C137.693 50.0134 137.254 50.1862 136.724 50.1862C136.186 50.1862 135.742 50.0134 135.392 49.6678C135.043 49.3135 134.868 48.8426 134.868 48.2551C134.868 47.6676 135.043 47.201 135.392 46.8554C135.742 46.5012 136.186 46.3241 136.724 46.3241C137.254 46.3241 137.693 46.5012 138.043 46.8554C138.393 47.201 138.567 47.6676 138.567 48.2551C138.567 48.8426 138.393 49.3135 138.043 49.6678Z" fill="#1E1F21"/>
<path d="M90.0985 45.9515V43.9371H94.1944C94.1944 43.9371 94.3858 43.9564 94.5061 43.9371C95.2119 43.8241 95.7434 42.2518 95.0384 42.1335C94.9242 42.1144 94.742 42.1335 94.742 42.1335H87.918V51.845H90.0985V47.755H93.738C93.738 47.755 93.8661 47.7577 93.9092 47.755C94.6037 47.7119 95.0471 46.0085 94.3535 45.9515C94.298 45.9469 94.2109 45.9515 94.2109 45.9515H90.0985Z" fill="#1E1F21"/>
<path d="M90.0985 43.9371V45.9515H94.2109C94.2109 45.9515 94.298 45.9469 94.3535 45.9515C95.0471 46.0085 94.6037 47.7119 93.9092 47.755C93.8661 47.7577 93.738 47.755 93.738 47.755H90.0985V51.845H87.918V42.1335H94.742C94.742 42.1335 94.9242 42.1144 95.0384 42.1335C95.7434 42.2518 95.2119 43.8241 94.5061 43.9371C94.3858 43.9564 94.1944 43.9371 94.1944 43.9371H90.0985Z" fill="#1E1F21"/>
</svg>
