<svg width="148" height="39" viewBox="0 0 148 39" fill="none" xmlns="http://www.w3.org/2000/svg">
<mask id="path-1-outside-1_4421_9781" maskUnits="userSpaceOnUse" x="46.1523" y="-0.078125" width="102" height="35" fill="black">
<rect fill="white" x="46.1523" y="-0.078125" width="102" height="35"/>
<path d="M65.7575 24.5232C65.7575 27.693 64.9353 30.0933 63.2909 31.7242C61.67 33.378 59.1917 34.2049 55.8559 34.2049C54.329 34.2049 52.8255 34.0326 51.3456 33.6881C49.8656 33.3665 48.5031 32.7234 47.2581 31.7586L50.1827 27.4863C51.0049 28.1524 51.8624 28.6807 52.755 29.0712C53.6712 29.4617 54.6696 29.6569 55.7502 29.6569C57.3711 29.6569 58.5574 29.2664 59.3092 28.4855C60.0844 27.7275 60.472 26.7512 60.472 25.5568V23.9375H60.4015C59.7907 24.7414 59.0273 25.3156 58.1111 25.6602C57.2184 25.9818 56.3727 26.1425 55.574 26.1425C54.3055 26.1425 53.1544 25.9358 52.1208 25.5224C51.0872 25.0859 50.1945 24.4887 49.4428 23.7307C48.7145 22.9498 48.1507 22.031 47.7514 20.9744C47.352 19.9178 47.1523 18.7578 47.1523 17.4945C47.1523 16.3919 47.3285 15.3124 47.6809 14.2558C48.0568 13.1992 48.5736 12.2689 49.2313 11.4649C49.9126 10.661 50.7348 10.0179 51.6979 9.53549C52.6611 9.03016 53.7534 8.77749 54.975 8.77749C55.7267 8.77749 56.408 8.85789 57.0187 9.01868C57.653 9.17946 58.2168 9.38619 58.7101 9.63886C59.2034 9.89152 59.6263 10.1786 59.9787 10.5002C60.331 10.7988 60.6129 11.0974 60.8243 11.396H60.8948V9.19095H65.7575V24.5232ZM52.4379 17.46C52.4379 18.0113 52.5436 18.5396 52.755 19.0449C52.9665 19.5273 53.2601 19.9637 53.636 20.3542C54.0353 20.7217 54.4817 21.0203 54.975 21.25C55.4918 21.4797 56.0556 21.5946 56.6664 21.5946C57.2537 21.5946 57.8057 21.4797 58.3225 21.25C58.8393 21.0203 59.2857 20.7217 59.6615 20.3542C60.0609 19.9637 60.3663 19.5273 60.5777 19.0449C60.7891 18.5396 60.8948 18.0113 60.8948 17.46C60.8948 16.9087 60.7891 16.3919 60.5777 15.9096C60.3663 15.4042 60.0609 14.9678 59.6615 14.6003C59.2857 14.2098 58.8393 13.8997 58.3225 13.67C57.8057 13.4403 57.2537 13.3255 56.6664 13.3255C56.0556 13.3255 55.4918 13.4403 54.975 13.67C54.4817 13.8997 54.0353 14.2098 53.636 14.6003C53.2601 14.9678 52.9665 15.4042 52.755 15.9096C52.5436 16.3919 52.4379 16.9087 52.4379 17.46Z"/>
<path d="M68.2905 9.19095H73.5761V25.9358H68.2905V9.19095ZM67.8676 3.91941C67.8676 3.09251 68.1613 2.39193 68.7486 1.81769C69.3593 1.22048 70.0876 0.921875 70.9333 0.921875C71.779 0.921875 72.4954 1.22048 73.0827 1.81769C73.6935 2.39193 73.9989 3.09251 73.9989 3.91941C73.9989 4.74632 73.6935 5.45838 73.0827 6.05559C72.4954 6.62983 71.779 6.91695 70.9333 6.91695C70.0876 6.91695 69.3593 6.62983 68.7486 6.05559C68.1613 5.45838 67.8676 4.74632 67.8676 3.91941Z"/>
<path d="M76.1049 9.19095H80.9676V11.396H81.0381C81.2495 11.0974 81.5196 10.7988 81.8485 10.5002C82.2009 10.1786 82.6002 9.89152 83.0466 9.63886C83.5164 9.38619 84.0215 9.17946 84.5618 9.01868C85.1021 8.85789 85.6776 8.77749 86.2884 8.77749C87.5569 8.77749 88.708 8.99571 89.7416 9.43213C90.7753 9.84558 91.6562 10.4428 92.3844 11.2238C93.1361 11.9818 93.7117 12.8891 94.111 13.9457C94.5104 15.0023 94.7101 16.1622 94.7101 17.4256C94.7101 18.597 94.5221 19.7225 94.1463 20.8021C93.7939 21.8587 93.2771 22.8005 92.5958 23.6274C91.9381 24.4543 91.1276 25.1204 90.1645 25.6257C89.2013 26.1081 88.109 26.3493 86.8874 26.3493C85.7833 26.3493 84.7497 26.1885 83.7866 25.8669C82.8469 25.5224 82.0717 24.9481 81.4609 24.1442H81.3904V33.7914H76.1049V9.19095ZM80.9676 17.5634C80.9676 18.8267 81.3317 19.8489 82.0599 20.6298C82.8117 21.4108 83.857 21.8013 85.196 21.8013C86.5351 21.8013 87.5687 21.4108 88.2969 20.6298C89.0486 19.8489 89.4245 18.8267 89.4245 17.5634C89.4245 16.3001 89.0486 15.2779 88.2969 14.4969C87.5687 13.716 86.5351 13.3255 85.196 13.3255C83.857 13.3255 82.8117 13.716 82.0599 14.4969C81.3317 15.2779 80.9676 16.3001 80.9676 17.5634Z"/>
<path d="M96.5383 9.19095H101.401V11.396H101.471C101.683 11.0974 101.953 10.7988 102.282 10.5002C102.634 10.1786 103.034 9.89152 103.48 9.63886C103.95 9.38619 104.455 9.17946 104.995 9.01868C105.535 8.85789 106.111 8.77749 106.722 8.77749C107.99 8.77749 109.141 8.99571 110.175 9.43213C111.209 9.84558 112.09 10.4428 112.818 11.2238C113.57 11.9818 114.145 12.8891 114.544 13.9457C114.944 15.0023 115.143 16.1622 115.143 17.4256C115.143 18.597 114.956 19.7225 114.58 20.8021C114.227 21.8587 113.71 22.8005 113.029 23.6274C112.371 24.4543 111.561 25.1204 110.598 25.6257C109.635 26.1081 108.542 26.3493 107.321 26.3493C106.217 26.3493 105.183 26.1885 104.22 25.8669C103.28 25.5224 102.505 24.9481 101.894 24.1442H101.824V33.7914H96.5383V9.19095ZM101.401 17.5634C101.401 18.8267 101.765 19.8489 102.493 20.6298C103.245 21.4108 104.29 21.8013 105.629 21.8013C106.968 21.8013 108.002 21.4108 108.73 20.6298C109.482 19.8489 109.858 18.8267 109.858 17.5634C109.858 16.3001 109.482 15.2779 108.73 14.4969C108.002 13.716 106.968 13.3255 105.629 13.3255C104.29 13.3255 103.245 13.716 102.493 14.4969C101.765 15.2779 101.401 16.3001 101.401 17.5634Z"/>
<path d="M132.687 23.0416C131.842 24.0983 130.773 24.9137 129.481 25.4879C128.189 26.0622 126.85 26.3493 125.464 26.3493C124.148 26.3493 122.903 26.1425 121.729 25.7291C120.578 25.3156 119.567 24.7299 118.698 23.9719C117.853 23.1909 117.183 22.2607 116.69 21.1811C116.196 20.1015 115.95 18.8956 115.95 17.5634C115.95 16.2311 116.196 15.0252 116.69 13.9457C117.183 12.8661 117.853 11.9473 118.698 11.1893C119.567 10.4083 120.578 9.81113 121.729 9.39767C122.903 8.98422 124.148 8.77749 125.464 8.77749C126.685 8.77749 127.789 8.98422 128.776 9.39767C129.786 9.81113 130.632 10.4083 131.313 11.1893C132.018 11.9473 132.558 12.8661 132.934 13.9457C133.31 15.0252 133.498 16.2311 133.498 17.5634V19.1827H121.235C121.447 20.1704 121.905 20.9629 122.61 21.5601C123.314 22.1343 124.184 22.4215 125.217 22.4215C126.086 22.4215 126.815 22.2377 127.402 21.8702C128.013 21.4797 128.541 20.9859 128.988 20.3887L132.687 23.0416ZM128.212 15.6684C128.236 14.7955 127.942 14.049 127.331 13.4288C126.721 12.8087 125.934 12.4986 124.97 12.4986C124.383 12.4986 123.866 12.5905 123.42 12.7742C122.974 12.958 122.586 13.1992 122.257 13.4978C121.952 13.7734 121.705 14.1065 121.517 14.4969C121.353 14.8645 121.259 15.2549 121.235 15.6684H128.212Z"/>
<path d="M134.95 9.19095H140.236V11.8784H140.306C140.87 10.8448 141.54 10.0753 142.315 9.56995C143.09 9.04164 144.065 8.77749 145.24 8.77749C145.545 8.77749 145.85 8.78898 146.156 8.81195C146.461 8.83492 146.743 8.88086 147.001 8.94977V13.67C146.626 13.5552 146.25 13.4748 145.874 13.4288C145.521 13.3599 145.146 13.3255 144.746 13.3255C143.736 13.3255 142.937 13.4633 142.35 13.7389C141.763 14.0146 141.305 14.4051 140.976 14.9104C140.67 15.3928 140.471 15.9785 140.377 16.6676C140.283 17.3567 140.236 18.1147 140.236 18.9416V25.9358H134.95V9.19095Z"/>
</mask>
<path d="M65.7575 24.5232C65.7575 27.693 64.9353 30.0933 63.2909 31.7242C61.67 33.378 59.1917 34.2049 55.8559 34.2049C54.329 34.2049 52.8255 34.0326 51.3456 33.6881C49.8656 33.3665 48.5031 32.7234 47.2581 31.7586L50.1827 27.4863C51.0049 28.1524 51.8624 28.6807 52.755 29.0712C53.6712 29.4617 54.6696 29.6569 55.7502 29.6569C57.3711 29.6569 58.5574 29.2664 59.3092 28.4855C60.0844 27.7275 60.472 26.7512 60.472 25.5568V23.9375H60.4015C59.7907 24.7414 59.0273 25.3156 58.1111 25.6602C57.2184 25.9818 56.3727 26.1425 55.574 26.1425C54.3055 26.1425 53.1544 25.9358 52.1208 25.5224C51.0872 25.0859 50.1945 24.4887 49.4428 23.7307C48.7145 22.9498 48.1507 22.031 47.7514 20.9744C47.352 19.9178 47.1523 18.7578 47.1523 17.4945C47.1523 16.3919 47.3285 15.3124 47.6809 14.2558C48.0568 13.1992 48.5736 12.2689 49.2313 11.4649C49.9126 10.661 50.7348 10.0179 51.6979 9.53549C52.6611 9.03016 53.7534 8.77749 54.975 8.77749C55.7267 8.77749 56.408 8.85789 57.0187 9.01868C57.653 9.17946 58.2168 9.38619 58.7101 9.63886C59.2034 9.89152 59.6263 10.1786 59.9787 10.5002C60.331 10.7988 60.6129 11.0974 60.8243 11.396H60.8948V9.19095H65.7575V24.5232ZM52.4379 17.46C52.4379 18.0113 52.5436 18.5396 52.755 19.0449C52.9665 19.5273 53.2601 19.9637 53.636 20.3542C54.0353 20.7217 54.4817 21.0203 54.975 21.25C55.4918 21.4797 56.0556 21.5946 56.6664 21.5946C57.2537 21.5946 57.8057 21.4797 58.3225 21.25C58.8393 21.0203 59.2857 20.7217 59.6615 20.3542C60.0609 19.9637 60.3663 19.5273 60.5777 19.0449C60.7891 18.5396 60.8948 18.0113 60.8948 17.46C60.8948 16.9087 60.7891 16.3919 60.5777 15.9096C60.3663 15.4042 60.0609 14.9678 59.6615 14.6003C59.2857 14.2098 58.8393 13.8997 58.3225 13.67C57.8057 13.4403 57.2537 13.3255 56.6664 13.3255C56.0556 13.3255 55.4918 13.4403 54.975 13.67C54.4817 13.8997 54.0353 14.2098 53.636 14.6003C53.2601 14.9678 52.9665 15.4042 52.755 15.9096C52.5436 16.3919 52.4379 16.9087 52.4379 17.46Z" fill="#1E1F21"/>
<path d="M68.2905 9.19095H73.5761V25.9358H68.2905V9.19095ZM67.8676 3.91941C67.8676 3.09251 68.1613 2.39193 68.7486 1.81769C69.3593 1.22048 70.0876 0.921875 70.9333 0.921875C71.779 0.921875 72.4954 1.22048 73.0827 1.81769C73.6935 2.39193 73.9989 3.09251 73.9989 3.91941C73.9989 4.74632 73.6935 5.45838 73.0827 6.05559C72.4954 6.62983 71.779 6.91695 70.9333 6.91695C70.0876 6.91695 69.3593 6.62983 68.7486 6.05559C68.1613 5.45838 67.8676 4.74632 67.8676 3.91941Z" fill="#1E1F21"/>
<path d="M76.1049 9.19095H80.9676V11.396H81.0381C81.2495 11.0974 81.5196 10.7988 81.8485 10.5002C82.2009 10.1786 82.6002 9.89152 83.0466 9.63886C83.5164 9.38619 84.0215 9.17946 84.5618 9.01868C85.1021 8.85789 85.6776 8.77749 86.2884 8.77749C87.5569 8.77749 88.708 8.99571 89.7416 9.43213C90.7753 9.84558 91.6562 10.4428 92.3844 11.2238C93.1361 11.9818 93.7117 12.8891 94.111 13.9457C94.5104 15.0023 94.7101 16.1622 94.7101 17.4256C94.7101 18.597 94.5221 19.7225 94.1463 20.8021C93.7939 21.8587 93.2771 22.8005 92.5958 23.6274C91.9381 24.4543 91.1276 25.1204 90.1645 25.6257C89.2013 26.1081 88.109 26.3493 86.8874 26.3493C85.7833 26.3493 84.7497 26.1885 83.7866 25.8669C82.8469 25.5224 82.0717 24.9481 81.4609 24.1442H81.3904V33.7914H76.1049V9.19095ZM80.9676 17.5634C80.9676 18.8267 81.3317 19.8489 82.0599 20.6298C82.8117 21.4108 83.857 21.8013 85.196 21.8013C86.5351 21.8013 87.5687 21.4108 88.2969 20.6298C89.0486 19.8489 89.4245 18.8267 89.4245 17.5634C89.4245 16.3001 89.0486 15.2779 88.2969 14.4969C87.5687 13.716 86.5351 13.3255 85.196 13.3255C83.857 13.3255 82.8117 13.716 82.0599 14.4969C81.3317 15.2779 80.9676 16.3001 80.9676 17.5634Z" fill="#1E1F21"/>
<path d="M96.5383 9.19095H101.401V11.396H101.471C101.683 11.0974 101.953 10.7988 102.282 10.5002C102.634 10.1786 103.034 9.89152 103.48 9.63886C103.95 9.38619 104.455 9.17946 104.995 9.01868C105.535 8.85789 106.111 8.77749 106.722 8.77749C107.99 8.77749 109.141 8.99571 110.175 9.43213C111.209 9.84558 112.09 10.4428 112.818 11.2238C113.57 11.9818 114.145 12.8891 114.544 13.9457C114.944 15.0023 115.143 16.1622 115.143 17.4256C115.143 18.597 114.956 19.7225 114.58 20.8021C114.227 21.8587 113.71 22.8005 113.029 23.6274C112.371 24.4543 111.561 25.1204 110.598 25.6257C109.635 26.1081 108.542 26.3493 107.321 26.3493C106.217 26.3493 105.183 26.1885 104.22 25.8669C103.28 25.5224 102.505 24.9481 101.894 24.1442H101.824V33.7914H96.5383V9.19095ZM101.401 17.5634C101.401 18.8267 101.765 19.8489 102.493 20.6298C103.245 21.4108 104.29 21.8013 105.629 21.8013C106.968 21.8013 108.002 21.4108 108.73 20.6298C109.482 19.8489 109.858 18.8267 109.858 17.5634C109.858 16.3001 109.482 15.2779 108.73 14.4969C108.002 13.716 106.968 13.3255 105.629 13.3255C104.29 13.3255 103.245 13.716 102.493 14.4969C101.765 15.2779 101.401 16.3001 101.401 17.5634Z" fill="#1E1F21"/>
<path d="M132.687 23.0416C131.842 24.0983 130.773 24.9137 129.481 25.4879C128.189 26.0622 126.85 26.3493 125.464 26.3493C124.148 26.3493 122.903 26.1425 121.729 25.7291C120.578 25.3156 119.567 24.7299 118.698 23.9719C117.853 23.1909 117.183 22.2607 116.69 21.1811C116.196 20.1015 115.95 18.8956 115.95 17.5634C115.95 16.2311 116.196 15.0252 116.69 13.9457C117.183 12.8661 117.853 11.9473 118.698 11.1893C119.567 10.4083 120.578 9.81113 121.729 9.39767C122.903 8.98422 124.148 8.77749 125.464 8.77749C126.685 8.77749 127.789 8.98422 128.776 9.39767C129.786 9.81113 130.632 10.4083 131.313 11.1893C132.018 11.9473 132.558 12.8661 132.934 13.9457C133.31 15.0252 133.498 16.2311 133.498 17.5634V19.1827H121.235C121.447 20.1704 121.905 20.9629 122.61 21.5601C123.314 22.1343 124.184 22.4215 125.217 22.4215C126.086 22.4215 126.815 22.2377 127.402 21.8702C128.013 21.4797 128.541 20.9859 128.988 20.3887L132.687 23.0416ZM128.212 15.6684C128.236 14.7955 127.942 14.049 127.331 13.4288C126.721 12.8087 125.934 12.4986 124.97 12.4986C124.383 12.4986 123.866 12.5905 123.42 12.7742C122.974 12.958 122.586 13.1992 122.257 13.4978C121.952 13.7734 121.705 14.1065 121.517 14.4969C121.353 14.8645 121.259 15.2549 121.235 15.6684H128.212Z" fill="#1E1F21"/>
<path d="M134.95 9.19095H140.236V11.8784H140.306C140.87 10.8448 141.54 10.0753 142.315 9.56995C143.09 9.04164 144.065 8.77749 145.24 8.77749C145.545 8.77749 145.85 8.78898 146.156 8.81195C146.461 8.83492 146.743 8.88086 147.001 8.94977V13.67C146.626 13.5552 146.25 13.4748 145.874 13.4288C145.521 13.3599 145.146 13.3255 144.746 13.3255C143.736 13.3255 142.937 13.4633 142.35 13.7389C141.763 14.0146 141.305 14.4051 140.976 14.9104C140.67 15.3928 140.471 15.9785 140.377 16.6676C140.283 17.3567 140.236 18.1147 140.236 18.9416V25.9358H134.95V9.19095Z" fill="#1E1F21"/>
<path d="M65.7575 24.5232C65.7575 27.693 64.9353 30.0933 63.2909 31.7242C61.67 33.378 59.1917 34.2049 55.8559 34.2049C54.329 34.2049 52.8255 34.0326 51.3456 33.6881C49.8656 33.3665 48.5031 32.7234 47.2581 31.7586L50.1827 27.4863C51.0049 28.1524 51.8624 28.6807 52.755 29.0712C53.6712 29.4617 54.6696 29.6569 55.7502 29.6569C57.3711 29.6569 58.5574 29.2664 59.3092 28.4855C60.0844 27.7275 60.472 26.7512 60.472 25.5568V23.9375H60.4015C59.7907 24.7414 59.0273 25.3156 58.1111 25.6602C57.2184 25.9818 56.3727 26.1425 55.574 26.1425C54.3055 26.1425 53.1544 25.9358 52.1208 25.5224C51.0872 25.0859 50.1945 24.4887 49.4428 23.7307C48.7145 22.9498 48.1507 22.031 47.7514 20.9744C47.352 19.9178 47.1523 18.7578 47.1523 17.4945C47.1523 16.3919 47.3285 15.3124 47.6809 14.2558C48.0568 13.1992 48.5736 12.2689 49.2313 11.4649C49.9126 10.661 50.7348 10.0179 51.6979 9.53549C52.6611 9.03016 53.7534 8.77749 54.975 8.77749C55.7267 8.77749 56.408 8.85789 57.0187 9.01868C57.653 9.17946 58.2168 9.38619 58.7101 9.63886C59.2034 9.89152 59.6263 10.1786 59.9787 10.5002C60.331 10.7988 60.6129 11.0974 60.8243 11.396H60.8948V9.19095H65.7575V24.5232ZM52.4379 17.46C52.4379 18.0113 52.5436 18.5396 52.755 19.0449C52.9665 19.5273 53.2601 19.9637 53.636 20.3542C54.0353 20.7217 54.4817 21.0203 54.975 21.25C55.4918 21.4797 56.0556 21.5946 56.6664 21.5946C57.2537 21.5946 57.8057 21.4797 58.3225 21.25C58.8393 21.0203 59.2857 20.7217 59.6615 20.3542C60.0609 19.9637 60.3663 19.5273 60.5777 19.0449C60.7891 18.5396 60.8948 18.0113 60.8948 17.46C60.8948 16.9087 60.7891 16.3919 60.5777 15.9096C60.3663 15.4042 60.0609 14.9678 59.6615 14.6003C59.2857 14.2098 58.8393 13.8997 58.3225 13.67C57.8057 13.4403 57.2537 13.3255 56.6664 13.3255C56.0556 13.3255 55.4918 13.4403 54.975 13.67C54.4817 13.8997 54.0353 14.2098 53.636 14.6003C53.2601 14.9678 52.9665 15.4042 52.755 15.9096C52.5436 16.3919 52.4379 16.9087 52.4379 17.46Z" stroke="#1E1F21" stroke-width="0.334308" mask="url(#path-1-outside-1_4421_9781)"/>
<path d="M68.2905 9.19095H73.5761V25.9358H68.2905V9.19095ZM67.8676 3.91941C67.8676 3.09251 68.1613 2.39193 68.7486 1.81769C69.3593 1.22048 70.0876 0.921875 70.9333 0.921875C71.779 0.921875 72.4954 1.22048 73.0827 1.81769C73.6935 2.39193 73.9989 3.09251 73.9989 3.91941C73.9989 4.74632 73.6935 5.45838 73.0827 6.05559C72.4954 6.62983 71.779 6.91695 70.9333 6.91695C70.0876 6.91695 69.3593 6.62983 68.7486 6.05559C68.1613 5.45838 67.8676 4.74632 67.8676 3.91941Z" stroke="#1E1F21" stroke-width="0.334308" mask="url(#path-1-outside-1_4421_9781)"/>
<path d="M76.1049 9.19095H80.9676V11.396H81.0381C81.2495 11.0974 81.5196 10.7988 81.8485 10.5002C82.2009 10.1786 82.6002 9.89152 83.0466 9.63886C83.5164 9.38619 84.0215 9.17946 84.5618 9.01868C85.1021 8.85789 85.6776 8.77749 86.2884 8.77749C87.5569 8.77749 88.708 8.99571 89.7416 9.43213C90.7753 9.84558 91.6562 10.4428 92.3844 11.2238C93.1361 11.9818 93.7117 12.8891 94.111 13.9457C94.5104 15.0023 94.7101 16.1622 94.7101 17.4256C94.7101 18.597 94.5221 19.7225 94.1463 20.8021C93.7939 21.8587 93.2771 22.8005 92.5958 23.6274C91.9381 24.4543 91.1276 25.1204 90.1645 25.6257C89.2013 26.1081 88.109 26.3493 86.8874 26.3493C85.7833 26.3493 84.7497 26.1885 83.7866 25.8669C82.8469 25.5224 82.0717 24.9481 81.4609 24.1442H81.3904V33.7914H76.1049V9.19095ZM80.9676 17.5634C80.9676 18.8267 81.3317 19.8489 82.0599 20.6298C82.8117 21.4108 83.857 21.8013 85.196 21.8013C86.5351 21.8013 87.5687 21.4108 88.2969 20.6298C89.0486 19.8489 89.4245 18.8267 89.4245 17.5634C89.4245 16.3001 89.0486 15.2779 88.2969 14.4969C87.5687 13.716 86.5351 13.3255 85.196 13.3255C83.857 13.3255 82.8117 13.716 82.0599 14.4969C81.3317 15.2779 80.9676 16.3001 80.9676 17.5634Z" stroke="#1E1F21" stroke-width="0.334308" mask="url(#path-1-outside-1_4421_9781)"/>
<path d="M96.5383 9.19095H101.401V11.396H101.471C101.683 11.0974 101.953 10.7988 102.282 10.5002C102.634 10.1786 103.034 9.89152 103.48 9.63886C103.95 9.38619 104.455 9.17946 104.995 9.01868C105.535 8.85789 106.111 8.77749 106.722 8.77749C107.99 8.77749 109.141 8.99571 110.175 9.43213C111.209 9.84558 112.09 10.4428 112.818 11.2238C113.57 11.9818 114.145 12.8891 114.544 13.9457C114.944 15.0023 115.143 16.1622 115.143 17.4256C115.143 18.597 114.956 19.7225 114.58 20.8021C114.227 21.8587 113.71 22.8005 113.029 23.6274C112.371 24.4543 111.561 25.1204 110.598 25.6257C109.635 26.1081 108.542 26.3493 107.321 26.3493C106.217 26.3493 105.183 26.1885 104.22 25.8669C103.28 25.5224 102.505 24.9481 101.894 24.1442H101.824V33.7914H96.5383V9.19095ZM101.401 17.5634C101.401 18.8267 101.765 19.8489 102.493 20.6298C103.245 21.4108 104.29 21.8013 105.629 21.8013C106.968 21.8013 108.002 21.4108 108.73 20.6298C109.482 19.8489 109.858 18.8267 109.858 17.5634C109.858 16.3001 109.482 15.2779 108.73 14.4969C108.002 13.716 106.968 13.3255 105.629 13.3255C104.29 13.3255 103.245 13.716 102.493 14.4969C101.765 15.2779 101.401 16.3001 101.401 17.5634Z" stroke="#1E1F21" stroke-width="0.334308" mask="url(#path-1-outside-1_4421_9781)"/>
<path d="M132.687 23.0416C131.842 24.0983 130.773 24.9137 129.481 25.4879C128.189 26.0622 126.85 26.3493 125.464 26.3493C124.148 26.3493 122.903 26.1425 121.729 25.7291C120.578 25.3156 119.567 24.7299 118.698 23.9719C117.853 23.1909 117.183 22.2607 116.69 21.1811C116.196 20.1015 115.95 18.8956 115.95 17.5634C115.95 16.2311 116.196 15.0252 116.69 13.9457C117.183 12.8661 117.853 11.9473 118.698 11.1893C119.567 10.4083 120.578 9.81113 121.729 9.39767C122.903 8.98422 124.148 8.77749 125.464 8.77749C126.685 8.77749 127.789 8.98422 128.776 9.39767C129.786 9.81113 130.632 10.4083 131.313 11.1893C132.018 11.9473 132.558 12.8661 132.934 13.9457C133.31 15.0252 133.498 16.2311 133.498 17.5634V19.1827H121.235C121.447 20.1704 121.905 20.9629 122.61 21.5601C123.314 22.1343 124.184 22.4215 125.217 22.4215C126.086 22.4215 126.815 22.2377 127.402 21.8702C128.013 21.4797 128.541 20.9859 128.988 20.3887L132.687 23.0416ZM128.212 15.6684C128.236 14.7955 127.942 14.049 127.331 13.4288C126.721 12.8087 125.934 12.4986 124.97 12.4986C124.383 12.4986 123.866 12.5905 123.42 12.7742C122.974 12.958 122.586 13.1992 122.257 13.4978C121.952 13.7734 121.705 14.1065 121.517 14.4969C121.353 14.8645 121.259 15.2549 121.235 15.6684H128.212Z" stroke="#1E1F21" stroke-width="0.334308" mask="url(#path-1-outside-1_4421_9781)"/>
<path d="M134.95 9.19095H140.236V11.8784H140.306C140.87 10.8448 141.54 10.0753 142.315 9.56995C143.09 9.04164 144.065 8.77749 145.24 8.77749C145.545 8.77749 145.85 8.78898 146.156 8.81195C146.461 8.83492 146.743 8.88086 147.001 8.94977V13.67C146.626 13.5552 146.25 13.4748 145.874 13.4288C145.521 13.3599 145.146 13.3255 144.746 13.3255C143.736 13.3255 142.937 13.4633 142.35 13.7389C141.763 14.0146 141.305 14.4051 140.976 14.9104C140.67 15.3928 140.471 15.9785 140.377 16.6676C140.283 17.3567 140.236 18.1147 140.236 18.9416V25.9358H134.95V9.19095Z" stroke="#1E1F21" stroke-width="0.334308" mask="url(#path-1-outside-1_4421_9781)"/>
<rect width="38.8302" height="38.8302" rx="1.67154" fill="#1E1F21"/>
<path fill-rule="evenodd" clip-rule="evenodd" d="M30.481 6.84015C30.7278 8.13318 29.2961 18.7712 29.1483 19.7704C29.0719 20.3393 28.7865 20.3393 28.7535 20.3393H27.259C26.9193 20.3393 26.9244 19.9117 26.9269 19.709C26.927 19.6936 26.9272 19.6795 26.9272 19.667C26.9272 19.4257 27.9937 9.97224 28.2186 7.98154C28.241 7.78327 28.0851 7.61599 27.8856 7.61601L26.5844 7.61615C26.4147 7.61616 26.2719 7.74336 26.2524 7.91195L25.3476 15.7162C25.2977 16.1499 25.051 16.1499 24.9062 16.1499L23.5511 16.1498C23.0766 16.1499 23.0945 15.9196 23.1283 15.5093C23.1544 15.1925 23.1893 14.7745 23.2305 14.2932H21.5741C21.4105 14.2932 21.2709 14.4116 21.2443 14.573L20.8469 16.9772C20.7656 17.4652 20.6091 17.5628 20.2421 17.5628H18.9316C18.6168 17.5628 18.4155 17.3644 18.5131 16.9772L18.6982 15.7162H17.1174C17.0551 15.7162 16.9963 15.7334 16.946 15.7635L16.7635 16.1717L16.3793 19.0029C16.3249 19.4144 16.073 19.4144 15.8215 19.4144H14.3157C14.0659 19.4144 13.8152 19.4144 13.8765 18.9521L14.0026 18.023H13.6994C13.36 18.023 13.0747 18.2771 13.0379 18.6145C12.9166 19.7264 12.664 22.1724 12.5891 23.9115C12.5351 25.1653 12.6165 26.8023 12.7017 28.032C12.7718 29.043 13.608 29.8175 14.6211 29.8407L19.5406 29.9536L25.3442 29.8205C25.8522 29.8088 26.2712 29.4192 26.3196 28.9134L26.7496 24.4235H21.2915C21.1651 24.4235 21.0496 24.4948 20.9928 24.6077L20.8279 24.9356C20.5705 25.4476 20.313 25.4988 19.7981 25.4988H18.7682C18.2533 25.4988 17.9958 25.1916 17.9958 24.6796V24.1252C17.9958 23.0174 18.8939 22.1193 20.0017 22.1193H28.8238C29.2261 22.1193 29.5374 22.4721 29.4872 22.8713L28.5151 30.6046C28.389 31.6078 27.536 32.3603 26.5249 32.3603H13.5813C11.2419 32.3603 9.39872 30.3666 9.58195 28.0344L10.3898 17.7511C10.4694 16.7379 11.2943 15.9443 12.3098 15.904L14.301 15.8248L14.3703 15.3139C14.4828 14.4852 15.1904 13.8672 16.0267 13.8672H18.9696L19.0259 13.4841C19.1222 12.8276 19.6854 12.3411 20.3489 12.3411H22.8631C23.0862 12.3411 23.2618 12.3079 23.4101 12.2628C23.5662 10.5599 23.7503 8.72033 23.9009 7.70028C24.0788 7.08533 24.2951 6.59828 24.558 6.32294C25.0518 5.80589 25.3416 5.74275 26.0377 5.65061C26.6114 5.57467 26.9389 5.54563 27.5184 5.54692C28.1467 5.54831 29.1225 5.67622 29.1225 5.67622C29.1225 5.67622 30.2836 5.80573 30.481 6.84015Z" fill="white"/>
</svg>
