<svg width="133" height="36" viewBox="0 0 133 36" fill="none" xmlns="http://www.w3.org/2000/svg">
<path fill-rule="evenodd" clip-rule="evenodd" d="M15.4375 0.03125L30.8749 9.01774V26.9907L15.4375 35.9772L0 26.9907V9.01774L15.4375 0.03125ZM20.0831 3.67234L15.4375 0.967999L0.804598 9.48611V14.5575L20.0831 3.67234ZM20.8925 4.14352C20.8833 4.14978 20.8738 4.15571 20.8639 4.16128L15.9997 6.90773L30.0703 14.9597V9.48611L20.8925 4.14352ZM6.18457 12.4497L15.1846 7.36796C15.2014 7.3816 15.2195 7.39405 15.2389 7.40513L24.6903 12.8138V17.5986H6.18457V12.4497ZM6.18457 18.4098V23.7335L15.1129 28.8618C15.1424 28.8787 15.169 28.8989 15.1925 28.9216L24.6903 23.5588V18.4098H6.18457ZM25.4949 23.1045V13.2742L30.0703 15.8925V20.5211L25.4949 23.1045ZM14.3851 29.3774L0.804598 21.577V26.5223L10.0393 31.898L10.011 31.8472L14.3851 29.3774ZM10.7918 32.3361L15.4375 35.0404L30.0703 26.5223V21.4509L10.7918 32.3361ZM5.37997 12.904L0.804598 15.4873V20.6434L5.37997 23.2714V12.904Z" fill="#1E1F21"/>
<path d="M62.3789 27.7532V7.73438H73.72V8.45578H64.8342V17.1727H70.0955V17.7137H64.8342V27.0318H73.72V27.7532H62.3789Z" fill="#1E1F21"/>
<path d="M114.442 7.21875H100.008V8.11512H106.057V27.2376H108.692V8.11512H114.442V7.21875Z" fill="#1E1F21"/>
<path d="M130.069 27.75H133L125.906 7.73114H125.32L118.05 27.75H118.93L124.675 12.0209L130.069 27.75Z" fill="#1E1F21"/>
<path d="M43.1421 7.73413H40.2108L47.3045 27.753H47.8908L55.1604 7.73413H54.281L48.5357 23.4632L43.1421 7.73413Z" fill="#1E1F21"/>
<path d="M86.3459 15.1769C83.3505 14.205 83.1365 12.4434 83.1365 11.6538C83.1365 10.3782 84.109 7.88768 87.2969 7.88768C89.8472 7.88768 91.7274 9.66948 92.3487 10.5604L92.7647 10.1352L92.527 9.83146C91.5166 8.6166 89.7931 7.2195 87.2969 7.2195C82.4828 7.15876 81.1752 10.7993 81.1752 12.6257C81.1752 14.5687 82.3029 17.1869 85.4544 18.0926C89.9861 19.3949 90.9223 21.3995 90.9223 22.7698C90.9223 24.3491 89.7931 27.1247 86.7025 27.0826C84.2301 27.0489 82.2252 25.0033 81.5318 23.9847L80.9375 24.4706L81.1752 24.7743C83.0177 27.2041 84.8601 27.7507 86.7025 27.7507C88.545 27.7507 89.1987 27.792 90.9223 26.5966C92.6459 25.4013 93.3656 23.188 93.3062 21.548C93.2467 19.9079 92.7897 18.9494 91.9327 18.0926C91.2939 17.4539 90.0902 16.3917 86.3459 15.1769Z" fill="#1E1F21"/>
</svg>
