<svg width="1225" height="843" viewBox="0 0 1225 843" fill="none" xmlns="http://www.w3.org/2000/svg">
<path d="M425 216C425 242.264 419.827 268.272 409.776 292.537C399.725 316.802 384.993 338.85 366.421 357.421C347.85 375.993 325.802 390.725 301.537 400.776C277.272 410.827 251.264 416 225 416C198.736 416 172.728 410.827 148.463 400.776C124.198 390.725 102.15 375.993 83.5786 357.421C65.0069 338.85 50.275 316.802 40.2241 292.537C30.1731 268.272 25 242.264 25 216H27C27 242.002 32.1214 267.749 42.0718 291.771C52.0223 315.794 66.6068 337.621 84.9928 356.007C103.379 374.393 125.206 388.978 149.229 398.928C173.251 408.879 198.998 414 225 414C251.002 414 276.749 408.879 300.771 398.928C324.794 388.978 346.621 374.393 365.007 356.007C383.393 337.621 397.978 315.794 407.928 291.771C417.879 267.749 423 242.002 423 216H425Z" fill="white"/>
<path opacity="0.2" d="M53.341 113.369C77.5855 72.8179 115.403 42.1593 160.091 26.8259C204.779 11.4926 253.453 12.4746 297.487 29.598C341.52 46.7214 378.07 78.8805 400.659 120.376C423.248 161.872 430.418 210.025 420.897 256.301C411.377 302.578 385.782 343.99 348.647 373.199C311.512 402.408 265.236 417.527 218.019 415.878C170.802 414.229 125.693 395.918 90.6867 364.189C55.6803 332.46 33.0365 289.363 26.7681 242.535L28.7504 242.27C34.9561 288.63 57.3735 331.296 92.0298 362.707C126.686 394.118 171.344 412.247 218.089 413.879C264.833 415.512 310.647 400.544 347.41 371.627C384.174 342.71 409.513 301.712 418.938 255.898C428.364 210.084 421.266 162.413 398.902 121.332C376.539 80.2517 340.355 48.4142 296.762 31.462C253.169 14.5099 204.982 13.5377 160.74 28.7177C116.499 43.8977 79.0596 74.2497 55.0576 114.395L53.341 113.369Z" fill="white"/>
<path d="M53.341 113.369C70.988 83.8526 95.9477 59.3855 125.81 42.3301C155.671 25.2747 189.426 16.2073 223.815 16.0035L223.827 18.0035C189.782 18.2052 156.365 27.1819 126.801 44.0668C97.2382 60.9516 72.5282 85.1741 55.0576 114.395L53.341 113.369Z" fill="white"/>
<path opacity="0.2" d="M1221 216C1221 171.906 1206.43 129.048 1179.55 94.0922C1152.67 59.1364 1115 34.0425 1072.38 22.7137C1029.77 11.3849 984.608 14.4562 943.92 31.45C903.232 48.4438 869.301 78.4074 847.404 116.68C825.507 154.953 816.872 199.389 822.841 243.077C828.811 286.765 849.051 327.256 880.413 358.251C911.775 389.246 952.501 409.008 996.256 414.463C1040.01 419.919 1084.34 410.761 1122.36 388.415L1121.34 386.691C1083.71 408.814 1039.82 417.88 996.504 412.479C953.186 407.078 912.867 387.514 881.819 356.828C850.77 326.143 830.733 286.057 824.823 242.806C818.913 199.555 827.462 155.563 849.14 117.673C870.818 79.7833 904.41 50.1194 944.691 33.2955C984.972 16.4717 1029.68 13.431 1071.87 24.6466C1114.06 35.8621 1151.36 60.7051 1177.97 95.3113C1204.57 129.918 1219 172.347 1219 216H1221Z" fill="white"/>
<path opacity="0.2" d="M625.903 566.244C624.41 614.021 605.856 659.683 573.6 694.96C541.345 730.236 497.521 752.794 450.069 758.546L449.828 756.561C496.806 750.866 540.191 728.534 572.124 693.61C604.057 658.686 622.426 613.481 623.903 566.182L625.903 566.244Z" fill="white"/>
<path opacity="0.2" d="M843.649 759.012C810.599 762.274 777.256 757.255 746.63 744.406C716.005 731.558 689.061 711.285 668.231 685.418C647.401 659.551 633.341 628.904 627.319 596.243C621.297 563.582 623.504 529.936 633.739 498.341C643.975 466.746 661.917 438.198 685.946 415.272C709.976 392.347 739.336 375.767 771.377 367.028C803.418 358.289 837.131 357.666 869.473 365.217C901.815 372.767 931.767 388.253 956.626 410.275L955.3 411.772C930.689 389.97 901.037 374.639 869.018 367.164C837 359.689 803.624 360.305 771.904 368.957C740.183 377.609 711.116 394.023 687.327 416.719C663.538 439.416 645.775 467.679 635.642 498.958C625.509 530.236 623.324 563.546 629.286 595.881C635.248 628.215 649.167 658.555 669.789 684.164C690.411 709.772 717.085 729.842 747.404 742.562C777.723 755.282 810.733 760.252 843.453 757.022L843.649 759.012Z" fill="white"/>
<path opacity="0.2" d="M940.17 397.174C966.66 416.075 988.137 441.154 1002.74 470.236C1017.34 499.318 1024.63 531.524 1023.96 564.059L1021.96 564.018C1022.62 531.808 1015.41 499.925 1000.95 471.134C986.496 442.343 965.233 417.514 939.008 398.802L940.17 397.174Z" fill="white"/>
<path d="M373.396 552.792C376.308 556.152 381.684 558.672 388.852 558.672C398.148 558.672 404.308 554.136 404.308 547.584C404.308 542.208 399.492 539.128 395.516 538.736C399.94 538.008 403.692 534.704 403.692 530.336C403.692 524.176 398.372 520.088 388.852 520.088C381.964 520.088 377.036 522.608 373.9 526.136L378.436 532.016C381.068 529.72 384.428 528.32 387.844 528.32C391.428 528.32 394.116 529.552 394.116 531.904C394.116 533.976 391.932 535.096 388.068 535.096C386.668 535.096 383.756 535.096 383.028 535.04V543.328C383.588 543.272 386.444 543.216 388.068 543.216C393.164 543.216 394.732 544.448 394.732 546.632C394.732 548.816 392.604 550.496 388.46 550.496C385.212 550.496 380.956 549.096 378.268 546.464L373.396 552.792ZM407.644 539.352C407.644 549.208 412.74 558.672 423.66 558.672C434.58 558.672 439.676 549.208 439.676 539.352C439.676 529.496 434.58 520.088 423.66 520.088C412.74 520.088 407.644 529.496 407.644 539.352ZM429.932 539.352C429.932 545.96 428.14 550.16 423.66 550.16C419.18 550.16 417.388 545.96 417.388 539.352C417.388 532.744 419.18 528.6 423.66 528.6C428.14 528.6 429.932 532.744 429.932 539.352ZM442.421 529.496C442.421 534.704 446.229 538.792 452.109 538.792C458.101 538.792 461.965 534.704 461.965 529.496C461.965 524.232 458.101 520.088 452.109 520.088C446.229 520.088 442.421 524.232 442.421 529.496ZM453.229 558L477.141 520.648H472.269L448.413 558H453.229ZM455.973 529.496C455.973 532.184 454.293 533.64 452.109 533.64C449.981 533.64 448.357 532.184 448.357 529.496C448.357 526.696 449.981 525.24 452.109 525.24C454.293 525.24 455.973 526.696 455.973 529.496ZM463.533 549.376C463.533 554.584 467.341 558.672 473.221 558.672C479.157 558.672 483.021 554.584 483.021 549.376C483.021 544.112 479.157 539.968 473.221 539.968C467.341 539.968 463.533 544.112 463.533 549.376ZM477.085 549.376C477.085 552.12 475.405 553.52 473.221 553.52C471.037 553.52 469.469 552.12 469.469 549.376C469.469 546.576 471.037 545.12 473.221 545.12C475.405 545.12 477.085 546.576 477.085 549.376Z" fill="white"/>
<path d="M341.089 609V595.66H338.709L334.549 605.82L330.409 595.66H328.029V609H329.689V597.9L334.209 609H334.889L339.429 597.9V609H341.089ZM344.881 597.72C345.441 597.72 345.901 597.26 345.901 596.7C345.901 596.14 345.441 595.7 344.881 595.7C344.341 595.7 343.881 596.14 343.881 596.7C343.881 597.26 344.341 597.72 344.881 597.72ZM345.641 609V599.34H344.141V609H345.641ZM357.133 609V595.66H355.633V600.8C354.853 599.74 353.673 599.1 352.373 599.1C349.833 599.1 348.073 601.1 348.073 604.18C348.073 607.32 349.853 609.24 352.373 609.24C353.733 609.24 354.913 608.54 355.633 607.56V609H357.133ZM355.633 606.38C355.093 607.22 353.933 607.9 352.733 607.9C350.793 607.9 349.633 606.32 349.633 604.18C349.633 602.04 350.793 600.44 352.733 600.44C353.933 600.44 355.093 601.16 355.633 602V606.38ZM364.037 604.82V603.5H359.237V604.82H364.037ZM372.453 609.24C374.873 609.24 376.473 608.12 377.593 606.6L376.173 605.82C375.413 606.96 374.033 607.76 372.453 607.76C369.593 607.76 367.373 605.5 367.373 602.34C367.373 599.16 369.593 596.92 372.453 596.92C374.033 596.92 375.413 597.74 376.173 598.86L377.573 598.08C376.513 596.58 374.873 595.44 372.453 595.44C368.673 595.44 365.653 598.24 365.653 602.34C365.653 606.44 368.673 609.24 372.453 609.24ZM387.188 609V602.36C387.188 600.02 385.488 599.1 383.448 599.1C381.868 599.1 380.628 599.62 379.588 600.7L380.288 601.74C381.148 600.82 382.088 600.4 383.248 600.4C384.648 600.4 385.688 601.14 385.688 602.44V604.18C384.908 603.28 383.808 602.86 382.488 602.86C380.848 602.86 379.108 603.88 379.108 606.04C379.108 608.14 380.848 609.24 382.488 609.24C383.788 609.24 384.888 608.78 385.688 607.9V609H387.188ZM385.688 606.96C385.108 607.76 384.088 608.16 383.028 608.16C381.628 608.16 380.648 607.28 380.648 606.06C380.648 604.82 381.628 603.94 383.028 603.94C384.088 603.94 385.108 604.34 385.688 605.14V606.96ZM391.695 609V602.16C392.135 601.38 393.395 600.62 394.315 600.62C394.555 600.62 394.735 600.64 394.915 600.68V599.14C393.595 599.14 392.475 599.88 391.695 600.9V599.34H390.195V609H391.695ZM396.237 604.16C396.237 607.18 398.297 609.24 401.157 609.24C402.737 609.24 404.037 608.72 404.997 607.76L404.277 606.78C403.517 607.56 402.397 608 401.297 608C399.217 608 397.937 606.48 397.817 604.66H405.637V604.28C405.637 601.38 403.917 599.1 400.997 599.1C398.237 599.1 396.237 601.36 396.237 604.16ZM400.977 600.34C403.177 600.34 404.137 602.12 404.157 603.56H397.817C397.897 602.08 398.917 600.34 400.977 600.34ZM407.506 604.16C407.506 607.18 409.566 609.24 412.426 609.24C414.006 609.24 415.306 608.72 416.266 607.76L415.546 606.78C414.786 607.56 413.666 608 412.566 608C410.486 608 409.206 606.48 409.086 604.66H416.906V604.28C416.906 601.38 415.186 599.1 412.266 599.1C409.506 599.1 407.506 601.36 407.506 604.16ZM412.246 600.34C414.446 600.34 415.406 602.12 415.426 603.56H409.086C409.166 602.08 410.186 600.34 412.246 600.34ZM420.836 609V602.16C421.276 601.38 422.536 600.62 423.456 600.62C423.696 600.62 423.876 600.64 424.056 600.68V599.14C422.736 599.14 421.616 599.88 420.836 600.9V599.34H419.336V609H420.836ZM435.714 609C439.854 609 442.554 606.14 442.554 602.34C442.554 598.56 439.854 595.66 435.714 595.66H431.154V609H435.714ZM432.814 597.14H435.714C439.014 597.14 440.834 599.46 440.834 602.34C440.834 605.2 438.954 607.52 435.714 607.52H432.814V597.14ZM444.538 604.16C444.538 607.18 446.598 609.24 449.458 609.24C451.038 609.24 452.338 608.72 453.298 607.76L452.578 606.78C451.818 607.56 450.698 608 449.598 608C447.518 608 446.238 606.48 446.118 604.66H453.938V604.28C453.938 601.38 452.218 599.1 449.298 599.1C446.538 599.1 444.538 601.36 444.538 604.16ZM449.278 600.34C451.478 600.34 452.438 602.12 452.458 603.56H446.118C446.198 602.08 447.218 600.34 449.278 600.34ZM460.587 609L464.607 599.34H462.967L459.767 607.26L456.547 599.34H454.927L458.947 609H460.587ZM465.612 604.16C465.612 607.18 467.672 609.24 470.532 609.24C472.112 609.24 473.412 608.72 474.372 607.76L473.652 606.78C472.892 607.56 471.772 608 470.672 608C468.592 608 467.312 606.48 467.192 604.66H475.012V604.28C475.012 601.38 473.292 599.1 470.372 599.1C467.612 599.1 465.612 601.36 465.612 604.16ZM470.352 600.34C472.552 600.34 473.512 602.12 473.532 603.56H467.192C467.272 602.08 468.292 600.34 470.352 600.34ZM478.941 609V595.66H477.441V609H478.941ZM486.154 609.24C489.094 609.24 490.934 606.96 490.934 604.16C490.934 601.36 489.094 599.1 486.154 599.1C483.214 599.1 481.374 601.36 481.374 604.16C481.374 606.96 483.214 609.24 486.154 609.24ZM486.154 607.9C484.094 607.9 482.934 606.14 482.934 604.16C482.934 602.2 484.094 600.44 486.154 600.44C488.214 600.44 489.354 602.2 489.354 604.16C489.354 606.14 488.214 607.9 486.154 607.9ZM494.879 607.54C495.659 608.62 496.819 609.24 498.139 609.24C500.679 609.24 502.439 607.28 502.439 604.16C502.439 601.02 500.679 599.1 498.139 599.1C496.779 599.1 495.579 599.8 494.879 600.78V599.34H493.379V612.68H494.879V607.54ZM500.859 604.16C500.859 606.3 499.699 607.9 497.759 607.9C496.579 607.9 495.399 607.18 494.879 606.34V601.98C495.399 601.14 496.579 600.44 497.759 600.44C499.699 600.44 500.859 602.02 500.859 604.16ZM504.303 604.16C504.303 607.18 506.363 609.24 509.223 609.24C510.803 609.24 512.103 608.72 513.063 607.76L512.343 606.78C511.583 607.56 510.463 608 509.363 608C507.283 608 506.003 606.48 505.883 604.66H513.703V604.28C513.703 601.38 511.983 599.1 509.063 599.1C506.303 599.1 504.303 601.36 504.303 604.16ZM509.043 600.34C511.243 600.34 512.203 602.12 512.223 603.56H505.883C505.963 602.08 506.983 600.34 509.043 600.34ZM517.633 609V602.16C518.073 601.38 519.333 600.62 520.253 600.62C520.493 600.62 520.673 600.64 520.853 600.68V599.14C519.533 599.14 518.413 599.88 517.633 600.9V599.34H516.133V609H517.633ZM521.894 607.72C522.874 608.76 524.214 609.24 525.794 609.24C528.294 609.24 529.594 607.94 529.594 606.32C529.594 604.18 527.654 603.7 525.974 603.32C524.714 603.02 523.614 602.72 523.614 601.78C523.614 600.92 524.434 600.32 525.754 600.32C526.994 600.32 528.054 600.84 528.634 601.54L529.334 600.5C528.554 599.72 527.394 599.1 525.754 599.1C523.454 599.1 522.154 600.38 522.154 601.88C522.154 603.88 524.014 604.32 525.654 604.7C526.954 605.02 528.134 605.36 528.134 606.42C528.134 607.36 527.334 608.02 525.854 608.02C524.534 608.02 523.314 607.38 522.674 606.64L521.894 607.72Z" fill="white"/>
<path d="M799.252 558V549.6H784.86C794.884 543.104 798.972 538.232 798.972 532.52C798.972 525.016 792.644 520.088 783.852 520.088C778.644 520.088 772.708 521.936 768.732 526.304L774.052 532.688C776.74 530.168 779.876 528.6 783.852 528.6C786.764 528.6 789.172 529.944 789.172 532.52C789.172 536.216 786.148 538.792 769.964 550.496V558H799.252ZM802.972 539.352C802.972 549.208 808.068 558.672 818.988 558.672C829.908 558.672 835.004 549.208 835.004 539.352C835.004 529.496 829.908 520.088 818.988 520.088C808.068 520.088 802.972 529.496 802.972 539.352ZM825.26 539.352C825.26 545.96 823.468 550.16 818.988 550.16C814.508 550.16 812.716 545.96 812.716 539.352C812.716 532.744 814.508 528.6 818.988 528.6C823.468 528.6 825.26 532.744 825.26 539.352ZM837.749 529.496C837.749 534.704 841.557 538.792 847.437 538.792C853.429 538.792 857.293 534.704 857.293 529.496C857.293 524.232 853.429 520.088 847.437 520.088C841.557 520.088 837.749 524.232 837.749 529.496ZM848.557 558L872.469 520.648H867.597L843.741 558H848.557ZM851.301 529.496C851.301 532.184 849.621 533.64 847.437 533.64C845.309 533.64 843.685 532.184 843.685 529.496C843.685 526.696 845.309 525.24 847.437 525.24C849.621 525.24 851.301 526.696 851.301 529.496ZM858.861 549.376C858.861 554.584 862.669 558.672 868.549 558.672C874.485 558.672 878.349 554.584 878.349 549.376C878.349 544.112 874.485 539.968 868.549 539.968C862.669 539.968 858.861 544.112 858.861 549.376ZM872.413 549.376C872.413 552.12 870.733 553.52 868.549 553.52C866.365 553.52 864.797 552.12 864.797 549.376C864.797 546.576 866.365 545.12 868.549 545.12C870.733 545.12 872.413 546.576 872.413 549.376Z" fill="white"/>
<path d="M744.142 607.7C745.062 608.78 746.202 609.24 747.622 609.24C750.002 609.24 751.862 607.88 751.862 604.98V595.66H750.202V604.96C750.202 606.62 749.162 607.76 747.522 607.76C746.362 607.76 745.582 607.14 745.002 606.44L744.142 607.7ZM762.934 609V599.34H761.434V606.44C760.874 607.22 759.754 607.9 758.574 607.9C757.274 607.9 756.414 607.4 756.414 605.7V599.34H754.914V606.16C754.914 608.26 755.974 609.24 757.994 609.24C759.434 609.24 760.694 608.48 761.434 607.64V609H762.934ZM773.95 609V602.22C773.95 600.12 772.89 599.1 770.87 599.1C769.43 599.1 768.11 599.94 767.43 600.74V599.34H765.93V609H767.43V601.94C767.99 601.16 769.11 600.44 770.29 600.44C771.59 600.44 772.45 600.98 772.45 602.68V609H773.95ZM777.685 597.72C778.245 597.72 778.705 597.26 778.705 596.7C778.705 596.14 778.245 595.7 777.685 595.7C777.145 595.7 776.685 596.14 776.685 596.7C776.685 597.26 777.145 597.72 777.685 597.72ZM778.445 609V599.34H776.945V609H778.445ZM785.658 609.24C788.598 609.24 790.438 606.96 790.438 604.16C790.438 601.36 788.598 599.1 785.658 599.1C782.718 599.1 780.878 601.36 780.878 604.16C780.878 606.96 782.718 609.24 785.658 609.24ZM785.658 607.9C783.598 607.9 782.438 606.14 782.438 604.16C782.438 602.2 783.598 600.44 785.658 600.44C787.718 600.44 788.858 602.2 788.858 604.16C788.858 606.14 787.718 607.9 785.658 607.9ZM794.383 609V602.16C794.823 601.38 796.083 600.62 797.003 600.62C797.243 600.62 797.423 600.64 797.603 600.68V599.14C796.283 599.14 795.163 599.88 794.383 600.9V599.34H792.883V609H794.383ZM809.261 609C813.401 609 816.101 606.14 816.101 602.34C816.101 598.56 813.401 595.66 809.261 595.66H804.701V609H809.261ZM806.361 597.14H809.261C812.561 597.14 814.381 599.46 814.381 602.34C814.381 605.2 812.501 607.52 809.261 607.52H806.361V597.14ZM818.085 604.16C818.085 607.18 820.145 609.24 823.005 609.24C824.585 609.24 825.885 608.72 826.845 607.76L826.125 606.78C825.365 607.56 824.245 608 823.145 608C821.065 608 819.785 606.48 819.665 604.66H827.485V604.28C827.485 601.38 825.765 599.1 822.845 599.1C820.085 599.1 818.085 601.36 818.085 604.16ZM822.825 600.34C825.025 600.34 825.985 602.12 826.005 603.56H819.665C819.745 602.08 820.765 600.34 822.825 600.34ZM834.134 609L838.154 599.34H836.514L833.314 607.26L830.094 599.34H828.474L832.494 609H834.134ZM839.159 604.16C839.159 607.18 841.219 609.24 844.079 609.24C845.659 609.24 846.959 608.72 847.919 607.76L847.199 606.78C846.439 607.56 845.319 608 844.219 608C842.139 608 840.859 606.48 840.739 604.66H848.559V604.28C848.559 601.38 846.839 599.1 843.919 599.1C841.159 599.1 839.159 601.36 839.159 604.16ZM843.899 600.34C846.099 600.34 847.059 602.12 847.079 603.56H840.739C840.819 602.08 841.839 600.34 843.899 600.34ZM852.488 609V595.66H850.988V609H852.488ZM859.7 609.24C862.64 609.24 864.48 606.96 864.48 604.16C864.48 601.36 862.64 599.1 859.7 599.1C856.76 599.1 854.92 601.36 854.92 604.16C854.92 606.96 856.76 609.24 859.7 609.24ZM859.7 607.9C857.64 607.9 856.48 606.14 856.48 604.16C856.48 602.2 857.64 600.44 859.7 600.44C861.76 600.44 862.9 602.2 862.9 604.16C862.9 606.14 861.76 607.9 859.7 607.9ZM868.426 607.54C869.206 608.62 870.366 609.24 871.686 609.24C874.226 609.24 875.986 607.28 875.986 604.16C875.986 601.02 874.226 599.1 871.686 599.1C870.326 599.1 869.126 599.8 868.426 600.78V599.34H866.926V612.68H868.426V607.54ZM874.406 604.16C874.406 606.3 873.246 607.9 871.306 607.9C870.126 607.9 868.946 607.18 868.426 606.34V601.98C868.946 601.14 870.126 600.44 871.306 600.44C873.246 600.44 874.406 602.02 874.406 604.16ZM877.85 604.16C877.85 607.18 879.91 609.24 882.77 609.24C884.35 609.24 885.65 608.72 886.61 607.76L885.89 606.78C885.13 607.56 884.01 608 882.91 608C880.83 608 879.55 606.48 879.43 604.66H887.25V604.28C887.25 601.38 885.53 599.1 882.61 599.1C879.85 599.1 877.85 601.36 877.85 604.16ZM882.59 600.34C884.79 600.34 885.75 602.12 885.77 603.56H879.43C879.51 602.08 880.53 600.34 882.59 600.34ZM891.18 609V602.16C891.62 601.38 892.88 600.62 893.8 600.62C894.04 600.62 894.22 600.64 894.4 600.68V599.14C893.08 599.14 891.96 599.88 891.18 600.9V599.34H889.68V609H891.18ZM895.441 607.72C896.421 608.76 897.761 609.24 899.341 609.24C901.841 609.24 903.141 607.94 903.141 606.32C903.141 604.18 901.201 603.7 899.521 603.32C898.261 603.02 897.161 602.72 897.161 601.78C897.161 600.92 897.981 600.32 899.301 600.32C900.541 600.32 901.601 600.84 902.181 601.54L902.881 600.5C902.101 599.72 900.941 599.1 899.301 599.1C897.001 599.1 895.701 600.38 895.701 601.88C895.701 603.88 897.561 604.32 899.201 604.7C900.501 605.02 901.681 605.36 901.681 606.42C901.681 607.36 900.881 608.02 899.401 608.02C898.081 608.02 896.861 607.38 896.221 606.64L895.441 607.72Z" fill="white"/>
<path opacity="0.2" d="M612.225 16.2905C659.652 13.7316 706.442 28.1348 744.22 56.9222C781.998 85.7096 808.298 127.002 818.412 173.409C828.527 219.815 821.796 268.307 799.424 310.204C777.053 352.102 740.5 384.67 696.31 402.08C652.12 419.489 603.176 420.604 558.239 405.225C513.302 389.845 475.304 358.975 451.048 318.14C426.792 277.305 417.86 229.17 425.851 182.351C433.842 135.532 458.235 93.0845 494.662 62.6068L495.946 64.1407C459.882 94.3136 435.734 136.336 427.823 182.687C419.911 229.038 428.754 276.691 452.768 317.118C476.781 357.545 514.398 388.107 558.886 403.332C603.374 418.558 651.829 417.454 695.577 400.219C739.325 382.983 775.512 350.741 797.66 309.262C819.808 267.784 826.472 219.777 816.458 173.835C806.445 127.892 780.408 87.0125 743.008 58.513C705.608 30.0135 659.286 15.7543 612.333 18.2876L612.225 16.2905Z" fill="white"/>
<path d="M423 216C423 185.529 429.962 155.462 443.355 128.092C456.748 100.723 476.218 76.7757 500.277 58.0786L501.505 59.6578C477.685 78.168 458.411 101.876 445.152 128.972C431.893 156.067 425 185.834 425 216H423Z" fill="white"/>
<path d="M611.372 16.3383C638.556 14.7552 665.777 18.7397 691.367 28.0478C716.956 37.3559 740.376 51.7914 760.189 70.4697C780.003 89.1481 795.794 111.676 806.595 136.672C817.395 161.668 822.978 188.607 823 215.837L821 215.839C820.978 188.881 815.451 162.212 804.759 137.465C794.066 112.719 778.433 90.4166 758.818 71.925C739.202 53.4335 716.017 39.1423 690.683 29.9273C665.349 20.7123 638.4 16.7676 611.488 18.3349L611.372 16.3383Z" fill="white"/>
<path d="M279.194 695.823C256.857 671.681 240.82 642.402 232.502 610.581C224.184 578.76 223.842 545.379 231.506 513.394C239.17 481.41 254.605 451.809 276.441 427.214C298.278 402.619 325.844 383.789 356.696 372.391C387.549 360.994 420.736 357.382 453.318 361.874C485.899 366.367 516.871 378.825 543.488 398.146C570.105 417.467 591.546 443.054 605.912 472.641C620.278 502.228 627.126 534.901 625.849 567.766L623.851 567.689C625.115 535.152 618.336 502.805 604.113 473.515C589.89 444.224 568.664 418.892 542.313 399.765C515.962 380.637 485.3 368.303 453.044 363.856C420.788 359.408 387.933 362.984 357.389 374.268C326.845 385.551 299.555 404.192 277.937 428.541C256.318 452.891 241.039 482.195 233.451 513.86C225.863 545.525 226.202 578.573 234.437 610.075C242.672 641.578 258.549 670.564 280.662 694.465L279.194 695.823Z" fill="white"/>
<path d="M457.827 757.451C421.887 763.245 385.047 759.118 351.279 745.517L352.026 743.662C385.456 757.127 421.928 761.212 457.509 755.477L457.827 757.451Z" fill="white"/>
<path d="M1162.42 357.421C1134.39 385.449 1098.67 404.517 1059.78 412.203C1020.9 419.89 980.607 415.849 944.023 400.593C907.439 385.337 876.214 359.555 854.31 326.519C832.407 293.483 820.813 254.684 821.002 215.047L823.002 215.057C822.815 254.297 834.293 292.709 855.977 325.414C877.661 358.119 908.575 383.644 944.793 398.747C981.011 413.85 1020.9 417.851 1059.4 410.241C1097.89 402.632 1133.26 383.755 1161.01 356.007L1162.42 357.421Z" fill="white"/>
<path d="M938.51 396.026C966.205 415.367 988.55 441.407 1003.46 471.717C1018.37 502.028 1025.36 535.621 1023.78 569.364L1021.78 569.27C1023.35 535.865 1016.43 502.608 1001.67 472.6C986.905 442.593 964.783 416.813 937.365 397.666L938.51 396.026Z" fill="white"/>
<path d="M989.449 672.368C965.715 707.314 931.524 733.848 891.78 748.165C852.035 762.481 808.778 763.845 768.21 752.061C727.643 740.277 691.848 715.95 665.959 682.569C640.07 649.187 625.416 608.465 624.097 566.241L626.096 566.179C627.402 607.98 641.909 648.295 667.54 681.343C693.17 714.391 728.606 738.474 768.768 750.141C808.93 761.807 851.755 760.456 891.102 746.283C930.449 732.11 964.297 705.841 987.795 671.244L989.449 672.368Z" fill="white"/>
<path d="M925.657 40.1885C960.5 21.2927 1000.17 13.1765 1039.64 16.8703C1079.1 20.5641 1116.58 35.9012 1147.31 60.9346C1178.04 85.968 1200.64 119.569 1212.24 157.471C1223.84 195.373 1223.92 235.867 1212.46 273.812L1210.55 273.234C1221.89 235.668 1221.82 195.579 1210.33 158.056C1198.85 120.533 1176.47 87.2683 1146.05 62.4853C1115.62 37.7022 1078.52 22.5184 1039.45 18.8616C1000.38 15.2048 961.105 23.2398 926.61 41.9466L925.657 40.1885Z" fill="white"/>
<path d="M170.74 209.24C174.212 212.656 179.196 214.672 185.804 214.672C195.492 214.672 201.596 209.576 201.596 201.512C201.596 194.008 195.94 189.416 189.556 189.416C186.252 189.416 183.34 190.648 181.212 192.44V184.768H199.02V176.648H171.916V198.544L178.58 200.168C180.652 198.264 183.004 197.368 185.972 197.368C189.836 197.368 191.796 199.272 191.796 201.904C191.796 204.312 189.78 206.496 185.692 206.496C182.108 206.496 178.468 205.208 175.892 202.8L170.74 209.24ZM205.303 209.24C208.775 212.656 213.759 214.672 220.367 214.672C230.055 214.672 236.159 209.576 236.159 201.512C236.159 194.008 230.503 189.416 224.119 189.416C220.815 189.416 217.903 190.648 215.775 192.44V184.768H233.583V176.648H206.479V198.544L213.143 200.168C215.215 198.264 217.567 197.368 220.535 197.368C224.399 197.368 226.359 199.272 226.359 201.904C226.359 204.312 224.343 206.496 220.255 206.496C216.671 206.496 213.031 205.208 210.454 202.8L205.303 209.24ZM238.913 185.496C238.913 190.704 242.721 194.792 248.601 194.792C254.593 194.792 258.457 190.704 258.457 185.496C258.457 180.232 254.593 176.088 248.601 176.088C242.721 176.088 238.913 180.232 238.913 185.496ZM249.721 214L273.633 176.648H268.761L244.905 214H249.721ZM252.465 185.496C252.465 188.184 250.785 189.64 248.601 189.64C246.473 189.64 244.849 188.184 244.849 185.496C244.849 182.696 246.473 181.24 248.601 181.24C250.785 181.24 252.465 182.696 252.465 185.496ZM260.025 205.376C260.025 210.584 263.833 214.672 269.713 214.672C275.649 214.672 279.513 210.584 279.513 205.376C279.513 200.112 275.649 195.968 269.713 195.968C263.833 195.968 260.025 200.112 260.025 205.376ZM273.577 205.376C273.577 208.12 271.897 209.52 269.713 209.52C267.529 209.52 265.961 208.12 265.961 205.376C265.961 202.576 267.529 201.12 269.713 201.12C271.897 201.12 273.577 202.576 273.577 205.376Z" fill="white"/>
<path d="M169.561 265V251.66H167.181L163.021 261.82L158.881 251.66H156.501V265H158.161V253.9L162.681 265H163.361L167.901 253.9V265H169.561ZM180.153 265V258.36C180.153 256.02 178.453 255.1 176.413 255.1C174.833 255.1 173.593 255.62 172.553 256.7L173.253 257.74C174.113 256.82 175.053 256.4 176.213 256.4C177.613 256.4 178.653 257.14 178.653 258.44V260.18C177.873 259.28 176.773 258.86 175.453 258.86C173.813 258.86 172.073 259.88 172.073 262.04C172.073 264.14 173.813 265.24 175.453 265.24C176.753 265.24 177.853 264.78 178.653 263.9V265H180.153ZM178.653 262.96C178.073 263.76 177.053 264.16 175.993 264.16C174.593 264.16 173.613 263.28 173.613 262.06C173.613 260.82 174.593 259.94 175.993 259.94C177.053 259.94 178.073 260.34 178.653 261.14V262.96ZM182.32 263.72C183.3 264.76 184.64 265.24 186.22 265.24C188.72 265.24 190.02 263.94 190.02 262.32C190.02 260.18 188.08 259.7 186.4 259.32C185.14 259.02 184.04 258.72 184.04 257.78C184.04 256.92 184.86 256.32 186.18 256.32C187.42 256.32 188.48 256.84 189.06 257.54L189.76 256.5C188.98 255.72 187.82 255.1 186.18 255.1C183.88 255.1 182.58 256.38 182.58 257.88C182.58 259.88 184.44 260.32 186.08 260.7C187.38 261.02 188.56 261.36 188.56 262.42C188.56 263.36 187.76 264.02 186.28 264.02C184.96 264.02 183.74 263.38 183.1 262.64L182.32 263.72ZM194.897 265.24C195.777 265.24 196.317 264.98 196.697 264.62L196.257 263.5C196.057 263.72 195.657 263.9 195.237 263.9C194.577 263.9 194.257 263.38 194.257 262.66V256.66H196.217V255.34H194.257V252.7H192.757V255.34H191.157V256.66H192.757V262.98C192.757 264.42 193.477 265.24 194.897 265.24ZM197.776 260.16C197.776 263.18 199.836 265.24 202.696 265.24C204.276 265.24 205.576 264.72 206.536 263.76L205.816 262.78C205.056 263.56 203.936 264 202.836 264C200.756 264 199.476 262.48 199.356 260.66H207.176V260.28C207.176 257.38 205.456 255.1 202.536 255.1C199.776 255.1 197.776 257.36 197.776 260.16ZM202.516 256.34C204.716 256.34 205.676 258.12 205.696 259.56H199.356C199.436 258.08 200.456 256.34 202.516 256.34ZM211.105 265V258.16C211.545 257.38 212.805 256.62 213.725 256.62C213.965 256.62 214.145 256.64 214.325 256.68V255.14C213.005 255.14 211.885 255.88 211.105 256.9V255.34H209.605V265H211.105ZM215.367 263.72C216.347 264.76 217.687 265.24 219.267 265.24C221.767 265.24 223.067 263.94 223.067 262.32C223.067 260.18 221.127 259.7 219.447 259.32C218.187 259.02 217.087 258.72 217.087 257.78C217.087 256.92 217.907 256.32 219.227 256.32C220.467 256.32 221.527 256.84 222.107 257.54L222.807 256.5C222.027 255.72 220.867 255.1 219.227 255.1C216.927 255.1 215.627 256.38 215.627 257.88C215.627 259.88 217.487 260.32 219.127 260.7C220.427 261.02 221.607 261.36 221.607 262.42C221.607 263.36 220.807 264.02 219.327 264.02C218.007 264.02 216.787 263.38 216.147 262.64L215.367 263.72ZM235.28 265C239.42 265 242.12 262.14 242.12 258.34C242.12 254.56 239.42 251.66 235.28 251.66H230.72V265H235.28ZM232.38 253.14H235.28C238.58 253.14 240.4 255.46 240.4 258.34C240.4 261.2 238.52 263.52 235.28 263.52H232.38V253.14ZM244.104 260.16C244.104 263.18 246.164 265.24 249.024 265.24C250.604 265.24 251.904 264.72 252.864 263.76L252.144 262.78C251.384 263.56 250.264 264 249.164 264C247.084 264 245.804 262.48 245.684 260.66H253.504V260.28C253.504 257.38 251.784 255.1 248.864 255.1C246.104 255.1 244.104 257.36 244.104 260.16ZM248.844 256.34C251.044 256.34 252.004 258.12 252.024 259.56H245.684C245.764 258.08 246.784 256.34 248.844 256.34ZM255.914 267.48C257.054 268.6 258.174 268.92 259.814 268.92C262.174 268.92 264.414 267.92 264.414 264.72V255.34H262.914V256.8C262.134 255.74 260.974 255.1 259.674 255.1C257.134 255.1 255.374 257.02 255.374 260.12C255.374 263.24 257.154 265.12 259.674 265.12C261.034 265.12 262.214 264.38 262.914 263.4V264.78C262.914 266.9 261.414 267.68 259.814 267.68C258.434 267.68 257.474 267.32 256.674 266.36L255.914 267.48ZM262.914 262.22C262.394 263.06 261.234 263.8 260.034 263.8C258.094 263.8 256.934 262.24 256.934 260.12C256.934 257.98 258.094 256.44 260.034 256.44C261.234 256.44 262.394 257.16 262.914 258V262.22ZM268.918 265V258.16C269.358 257.38 270.618 256.62 271.538 256.62C271.778 256.62 271.958 256.64 272.138 256.68V255.14C270.818 255.14 269.698 255.88 268.918 256.9V255.34H267.418V265H268.918ZM273.46 260.16C273.46 263.18 275.52 265.24 278.38 265.24C279.96 265.24 281.26 264.72 282.22 263.76L281.5 262.78C280.74 263.56 279.62 264 278.52 264C276.44 264 275.16 262.48 275.04 260.66H282.86V260.28C282.86 257.38 281.14 255.1 278.22 255.1C275.46 255.1 273.46 257.36 273.46 260.16ZM278.2 256.34C280.4 256.34 281.36 258.12 281.38 259.56H275.04C275.12 258.08 276.14 256.34 278.2 256.34ZM284.729 260.16C284.729 263.18 286.789 265.24 289.649 265.24C291.229 265.24 292.529 264.72 293.489 263.76L292.769 262.78C292.009 263.56 290.889 264 289.789 264C287.709 264 286.429 262.48 286.309 260.66H294.129V260.28C294.129 257.38 292.409 255.1 289.489 255.1C286.729 255.1 284.729 257.36 284.729 260.16ZM289.469 256.34C291.669 256.34 292.629 258.12 292.649 259.56H286.309C286.389 258.08 287.409 256.34 289.469 256.34Z" fill="white"/>
<path d="M575.172 214V176.648H566.828L553.78 189.528L559.268 195.296L565.54 188.968V214H575.172ZM580.003 195.352C580.003 205.208 585.099 214.672 596.019 214.672C606.939 214.672 612.035 205.208 612.035 195.352C612.035 185.496 606.939 176.088 596.019 176.088C585.099 176.088 580.003 185.496 580.003 195.352ZM602.291 195.352C602.291 201.96 600.499 206.16 596.019 206.16C591.539 206.16 589.747 201.96 589.747 195.352C589.747 188.744 591.539 184.6 596.019 184.6C600.499 184.6 602.291 188.744 602.291 195.352ZM614.948 195.352C614.948 205.208 620.044 214.672 630.964 214.672C641.884 214.672 646.98 205.208 646.98 195.352C646.98 185.496 641.884 176.088 630.964 176.088C620.044 176.088 614.948 185.496 614.948 195.352ZM637.236 195.352C637.236 201.96 635.444 206.16 630.964 206.16C626.484 206.16 624.692 201.96 624.692 195.352C624.692 188.744 626.484 184.6 630.964 184.6C635.444 184.6 637.236 188.744 637.236 195.352ZM649.726 185.496C649.726 190.704 653.534 194.792 659.414 194.792C665.406 194.792 669.27 190.704 669.27 185.496C669.27 180.232 665.406 176.088 659.414 176.088C653.534 176.088 649.726 180.232 649.726 185.496ZM660.534 214L684.446 176.648H679.574L655.718 214H660.534ZM663.278 185.496C663.278 188.184 661.598 189.64 659.414 189.64C657.286 189.64 655.662 188.184 655.662 185.496C655.662 182.696 657.286 181.24 659.414 181.24C661.598 181.24 663.278 182.696 663.278 185.496ZM670.838 205.376C670.838 210.584 674.646 214.672 680.526 214.672C686.462 214.672 690.326 210.584 690.326 205.376C690.326 200.112 686.462 195.968 680.526 195.968C674.646 195.968 670.838 200.112 670.838 205.376ZM684.39 205.376C684.39 208.12 682.71 209.52 680.526 209.52C678.342 209.52 676.774 208.12 676.774 205.376C676.774 202.576 678.342 201.12 680.526 201.12C682.71 201.12 684.39 202.576 684.39 205.376Z" fill="white"/>
<path d="M558.124 265V263.52H551.044V258.92H557.984V257.44H551.044V253.14H558.124V251.66H549.384V265H558.124ZM568.731 265V258.22C568.731 256.12 567.671 255.1 565.651 255.1C564.211 255.1 562.891 255.94 562.211 256.74V255.34H560.711V265H562.211V257.94C562.771 257.16 563.891 256.44 565.071 256.44C566.371 256.44 567.231 256.98 567.231 258.68V265H568.731ZM571.707 267.48C572.847 268.6 573.967 268.92 575.607 268.92C577.967 268.92 580.207 267.92 580.207 264.72V255.34H578.707V256.8C577.927 255.74 576.767 255.1 575.467 255.1C572.927 255.1 571.167 257.02 571.167 260.12C571.167 263.24 572.947 265.12 575.467 265.12C576.827 265.12 578.007 264.38 578.707 263.4V264.78C578.707 266.9 577.207 267.68 575.607 267.68C574.227 267.68 573.267 267.32 572.467 266.36L571.707 267.48ZM578.707 262.22C578.187 263.06 577.027 263.8 575.827 263.8C573.887 263.8 572.727 262.24 572.727 260.12C572.727 257.98 573.887 256.44 575.827 256.44C577.027 256.44 578.187 257.16 578.707 258V262.22ZM584.711 265V251.66H583.211V265H584.711ZM588.443 253.72C589.003 253.72 589.463 253.26 589.463 252.7C589.463 252.14 589.003 251.7 588.443 251.7C587.903 251.7 587.443 252.14 587.443 252.7C587.443 253.26 587.903 253.72 588.443 253.72ZM589.203 265V255.34H587.703V265H589.203ZM591.355 263.72C592.335 264.76 593.675 265.24 595.255 265.24C597.755 265.24 599.055 263.94 599.055 262.32C599.055 260.18 597.115 259.7 595.435 259.32C594.175 259.02 593.075 258.72 593.075 257.78C593.075 256.92 593.895 256.32 595.215 256.32C596.455 256.32 597.515 256.84 598.095 257.54L598.795 256.5C598.015 255.72 596.855 255.1 595.215 255.1C592.915 255.1 591.615 256.38 591.615 257.88C591.615 259.88 593.475 260.32 595.115 260.7C596.415 261.02 597.595 261.36 597.595 262.42C597.595 263.36 596.795 264.02 595.315 264.02C593.995 264.02 592.775 263.38 592.135 262.64L591.355 263.72ZM609.532 265V258.18C609.532 256.08 608.472 255.1 606.452 255.1C604.992 255.1 603.672 255.94 602.992 256.74V251.66H601.492V265H602.992V257.94C603.572 257.16 604.692 256.44 605.852 256.44C607.152 256.44 608.032 256.94 608.032 258.64V265H609.532ZM616.944 263.12C618.044 264.36 619.744 265.24 622.064 265.24C625.664 265.24 626.984 263.26 626.984 261.32C626.984 258.52 624.504 257.84 622.324 257.26C620.624 256.8 619.084 256.4 619.084 255.06C619.084 253.8 620.224 252.94 621.824 252.94C623.284 252.94 624.684 253.44 625.684 254.54L626.684 253.32C625.564 252.14 623.984 251.46 621.944 251.46C619.324 251.46 617.364 252.96 617.364 255.16C617.364 257.78 619.744 258.38 621.884 258.94C623.644 259.42 625.264 259.86 625.264 261.46C625.264 262.48 624.504 263.76 622.124 263.76C620.244 263.76 618.804 262.84 617.924 261.86L616.944 263.12ZM630.902 263.54C631.682 264.62 632.842 265.24 634.162 265.24C636.702 265.24 638.462 263.28 638.462 260.16C638.462 257.02 636.702 255.1 634.162 255.1C632.802 255.1 631.602 255.8 630.902 256.78V255.34H629.402V268.68H630.902V263.54ZM636.882 260.16C636.882 262.3 635.722 263.9 633.782 263.9C632.602 263.9 631.422 263.18 630.902 262.34V257.98C631.422 257.14 632.602 256.44 633.782 256.44C635.722 256.44 636.882 258.02 636.882 260.16ZM640.327 260.16C640.327 263.18 642.387 265.24 645.247 265.24C646.827 265.24 648.127 264.72 649.087 263.76L648.367 262.78C647.607 263.56 646.487 264 645.387 264C643.307 264 642.027 262.48 641.907 260.66H649.727V260.28C649.727 257.38 648.007 255.1 645.087 255.1C642.327 255.1 640.327 257.36 640.327 260.16ZM645.067 256.34C647.267 256.34 648.227 258.12 648.247 259.56H641.907C641.987 258.08 643.007 256.34 645.067 256.34ZM659.696 265V258.36C659.696 256.02 657.996 255.1 655.956 255.1C654.376 255.1 653.136 255.62 652.096 256.7L652.796 257.74C653.656 256.82 654.596 256.4 655.756 256.4C657.156 256.4 658.196 257.14 658.196 258.44V260.18C657.416 259.28 656.316 258.86 654.996 258.86C653.356 258.86 651.616 259.88 651.616 262.04C651.616 264.14 653.356 265.24 654.996 265.24C656.296 265.24 657.396 264.78 658.196 263.9V265H659.696ZM658.196 262.96C657.616 263.76 656.596 264.16 655.536 264.16C654.136 264.16 653.156 263.28 653.156 262.06C653.156 260.82 654.136 259.94 655.536 259.94C656.596 259.94 657.616 260.34 658.196 261.14V262.96ZM671.203 265L666.903 259.72L671.183 255.34H669.283L664.203 260.48V251.66H662.703V265H664.203V262.24L665.803 260.66L669.283 265H671.203ZM671.948 260.16C671.948 263.18 674.008 265.24 676.868 265.24C678.448 265.24 679.748 264.72 680.708 263.76L679.988 262.78C679.228 263.56 678.108 264 677.008 264C674.928 264 673.648 262.48 673.528 260.66H681.348V260.28C681.348 257.38 679.628 255.1 676.708 255.1C673.948 255.1 671.948 257.36 671.948 260.16ZM676.688 256.34C678.888 256.34 679.848 258.12 679.868 259.56H673.528C673.608 258.08 674.628 256.34 676.688 256.34ZM685.277 265V258.16C685.717 257.38 686.977 256.62 687.897 256.62C688.137 256.62 688.317 256.64 688.497 256.68V255.14C687.177 255.14 686.057 255.88 685.277 256.9V255.34H683.777V265H685.277ZM689.539 263.72C690.519 264.76 691.859 265.24 693.439 265.24C695.939 265.24 697.239 263.94 697.239 262.32C697.239 260.18 695.299 259.7 693.619 259.32C692.359 259.02 691.259 258.72 691.259 257.78C691.259 256.92 692.079 256.32 693.399 256.32C694.639 256.32 695.699 256.84 696.279 257.54L696.979 256.5C696.199 255.72 695.039 255.1 693.399 255.1C691.099 255.1 689.799 256.38 689.799 257.88C689.799 259.88 691.659 260.32 693.299 260.7C694.599 261.02 695.779 261.36 695.779 262.42C695.779 263.36 694.979 264.02 693.499 264.02C692.179 264.02 690.959 263.38 690.319 262.64L689.539 263.72Z" fill="white"/>
<path d="M966.74 209.24C970.212 212.656 975.196 214.672 981.804 214.672C991.492 214.672 997.596 209.576 997.596 201.512C997.596 194.008 991.94 189.416 985.556 189.416C982.252 189.416 979.34 190.648 977.212 192.44V184.768H995.02V176.648H967.916V198.544L974.58 200.168C976.652 198.264 979.004 197.368 981.972 197.368C985.836 197.368 987.796 199.272 987.796 201.904C987.796 204.312 985.78 206.496 981.692 206.496C978.108 206.496 974.468 205.208 971.892 202.8L966.74 209.24ZM1000.52 195.352C1000.52 205.208 1005.61 214.672 1016.53 214.672C1027.45 214.672 1032.55 205.208 1032.55 195.352C1032.55 185.496 1027.45 176.088 1016.53 176.088C1005.61 176.088 1000.52 185.496 1000.52 195.352ZM1022.81 195.352C1022.81 201.96 1021.01 206.16 1016.53 206.16C1012.05 206.16 1010.26 201.96 1010.26 195.352C1010.26 188.744 1012.05 184.6 1016.53 184.6C1021.01 184.6 1022.81 188.744 1022.81 195.352ZM1035.3 185.496C1035.3 190.704 1039.1 194.792 1044.98 194.792C1050.98 194.792 1054.84 190.704 1054.84 185.496C1054.84 180.232 1050.98 176.088 1044.98 176.088C1039.1 176.088 1035.3 180.232 1035.3 185.496ZM1046.1 214L1070.02 176.648H1065.14L1041.29 214H1046.1ZM1048.85 185.496C1048.85 188.184 1047.17 189.64 1044.98 189.64C1042.86 189.64 1041.23 188.184 1041.23 185.496C1041.23 182.696 1042.86 181.24 1044.98 181.24C1047.17 181.24 1048.85 182.696 1048.85 185.496ZM1056.41 205.376C1056.41 210.584 1060.22 214.672 1066.1 214.672C1072.03 214.672 1075.9 210.584 1075.9 205.376C1075.9 200.112 1072.03 195.968 1066.1 195.968C1060.22 195.968 1056.41 200.112 1056.41 205.376ZM1069.96 205.376C1069.96 208.12 1068.28 209.52 1066.1 209.52C1063.91 209.52 1062.34 208.12 1062.34 205.376C1062.34 202.576 1063.91 201.12 1066.1 201.12C1068.28 201.12 1069.96 202.576 1069.96 205.376Z" fill="white"/>
<path d="M940.442 263.12C941.542 264.36 943.242 265.24 945.562 265.24C949.162 265.24 950.482 263.26 950.482 261.32C950.482 258.52 948.002 257.84 945.822 257.26C944.122 256.8 942.582 256.4 942.582 255.06C942.582 253.8 943.722 252.94 945.322 252.94C946.782 252.94 948.182 253.44 949.182 254.54L950.182 253.32C949.062 252.14 947.482 251.46 945.442 251.46C942.822 251.46 940.862 252.96 940.862 255.16C940.862 257.78 943.242 258.38 945.382 258.94C947.142 259.42 948.762 259.86 948.762 261.46C948.762 262.48 948.002 263.76 945.622 263.76C943.742 263.76 942.302 262.84 941.422 261.86L940.442 263.12ZM952.34 260.16C952.34 263.18 954.4 265.24 957.26 265.24C958.84 265.24 960.14 264.72 961.1 263.76L960.38 262.78C959.62 263.56 958.5 264 957.4 264C955.32 264 954.04 262.48 953.92 260.66H961.74V260.28C961.74 257.38 960.02 255.1 957.1 255.1C954.34 255.1 952.34 257.36 952.34 260.16ZM957.08 256.34C959.28 256.34 960.24 258.12 960.26 259.56H953.92C954 258.08 955.02 256.34 957.08 256.34ZM972.19 265V258.22C972.19 256.12 971.13 255.1 969.11 255.1C967.67 255.1 966.35 255.94 965.67 256.74V255.34H964.17V265H965.67V257.94C966.23 257.16 967.35 256.44 968.53 256.44C969.83 256.44 970.69 256.98 970.69 258.68V265H972.19ZM975.926 253.72C976.486 253.72 976.946 253.26 976.946 252.7C976.946 252.14 976.486 251.7 975.926 251.7C975.386 251.7 974.926 252.14 974.926 252.7C974.926 253.26 975.386 253.72 975.926 253.72ZM976.686 265V255.34H975.186V265H976.686ZM983.898 265.24C986.838 265.24 988.678 262.96 988.678 260.16C988.678 257.36 986.838 255.1 983.898 255.1C980.958 255.1 979.118 257.36 979.118 260.16C979.118 262.96 980.958 265.24 983.898 265.24ZM983.898 263.9C981.838 263.9 980.678 262.14 980.678 260.16C980.678 258.2 981.838 256.44 983.898 256.44C985.958 256.44 987.098 258.2 987.098 260.16C987.098 262.14 985.958 263.9 983.898 263.9ZM992.623 265V258.16C993.063 257.38 994.323 256.62 995.243 256.62C995.483 256.62 995.663 256.64 995.843 256.68V255.14C994.523 255.14 993.403 255.88 992.623 256.9V255.34H991.123V265H992.623ZM1007.5 265C1011.64 265 1014.34 262.14 1014.34 258.34C1014.34 254.56 1011.64 251.66 1007.5 251.66H1002.94V265H1007.5ZM1004.6 253.14H1007.5C1010.8 253.14 1012.62 255.46 1012.62 258.34C1012.62 261.2 1010.74 263.52 1007.5 263.52H1004.6V253.14ZM1016.32 260.16C1016.32 263.18 1018.38 265.24 1021.24 265.24C1022.82 265.24 1024.12 264.72 1025.08 263.76L1024.36 262.78C1023.6 263.56 1022.48 264 1021.38 264C1019.3 264 1018.02 262.48 1017.9 260.66H1025.72V260.28C1025.72 257.38 1024 255.1 1021.08 255.1C1018.32 255.1 1016.32 257.36 1016.32 260.16ZM1021.06 256.34C1023.26 256.34 1024.22 258.12 1024.24 259.56H1017.9C1017.98 258.08 1019 256.34 1021.06 256.34ZM1032.37 265L1036.39 255.34H1034.75L1031.55 263.26L1028.33 255.34H1026.71L1030.73 265H1032.37ZM1037.4 260.16C1037.4 263.18 1039.46 265.24 1042.32 265.24C1043.9 265.24 1045.2 264.72 1046.16 263.76L1045.44 262.78C1044.68 263.56 1043.56 264 1042.46 264C1040.38 264 1039.1 262.48 1038.98 260.66H1046.8V260.28C1046.8 257.38 1045.08 255.1 1042.16 255.1C1039.4 255.1 1037.4 257.36 1037.4 260.16ZM1042.14 256.34C1044.34 256.34 1045.3 258.12 1045.32 259.56H1038.98C1039.06 258.08 1040.08 256.34 1042.14 256.34ZM1050.73 265V251.66H1049.23V265H1050.73ZM1057.94 265.24C1060.88 265.24 1062.72 262.96 1062.72 260.16C1062.72 257.36 1060.88 255.1 1057.94 255.1C1055 255.1 1053.16 257.36 1053.16 260.16C1053.16 262.96 1055 265.24 1057.94 265.24ZM1057.94 263.9C1055.88 263.9 1054.72 262.14 1054.72 260.16C1054.72 258.2 1055.88 256.44 1057.94 256.44C1060 256.44 1061.14 258.2 1061.14 260.16C1061.14 262.14 1060 263.9 1057.94 263.9ZM1066.67 263.54C1067.45 264.62 1068.61 265.24 1069.93 265.24C1072.47 265.24 1074.23 263.28 1074.23 260.16C1074.23 257.02 1072.47 255.1 1069.93 255.1C1068.57 255.1 1067.37 255.8 1066.67 256.78V255.34H1065.17V268.68H1066.67V263.54ZM1072.65 260.16C1072.65 262.3 1071.49 263.9 1069.55 263.9C1068.37 263.9 1067.19 263.18 1066.67 262.34V257.98C1067.19 257.14 1068.37 256.44 1069.55 256.44C1071.49 256.44 1072.65 258.02 1072.65 260.16ZM1076.09 260.16C1076.09 263.18 1078.15 265.24 1081.01 265.24C1082.59 265.24 1083.89 264.72 1084.85 263.76L1084.13 262.78C1083.37 263.56 1082.25 264 1081.15 264C1079.07 264 1077.79 262.48 1077.67 260.66H1085.49V260.28C1085.49 257.38 1083.77 255.1 1080.85 255.1C1078.09 255.1 1076.09 257.36 1076.09 260.16ZM1080.83 256.34C1083.03 256.34 1083.99 258.12 1084.01 259.56H1077.67C1077.75 258.08 1078.77 256.34 1080.83 256.34ZM1089.42 265V258.16C1089.86 257.38 1091.12 256.62 1092.04 256.62C1092.28 256.62 1092.46 256.64 1092.64 256.68V255.14C1091.32 255.14 1090.2 255.88 1089.42 256.9V255.34H1087.92V265H1089.42ZM1093.68 263.72C1094.66 264.76 1096 265.24 1097.58 265.24C1100.08 265.24 1101.38 263.94 1101.38 262.32C1101.38 260.18 1099.44 259.7 1097.76 259.32C1096.5 259.02 1095.4 258.72 1095.4 257.78C1095.4 256.92 1096.22 256.32 1097.54 256.32C1098.78 256.32 1099.84 256.84 1100.42 257.54L1101.12 256.5C1100.34 255.72 1099.18 255.1 1097.54 255.1C1095.24 255.1 1093.94 256.38 1093.94 257.88C1093.94 259.88 1095.8 260.32 1097.44 260.7C1098.74 261.02 1099.92 261.36 1099.92 262.42C1099.92 263.36 1099.12 264.02 1097.64 264.02C1096.32 264.02 1095.1 263.38 1094.46 262.64L1093.68 263.72Z" fill="white"/>
<g clip-path="url(#clip0_4601_10048)">
<path d="M70 174.75L49 161.11L49 188.39L70 174.75Z" fill="#12E2B0"/>
<path d="M0 158.125L36.75 187.678L36.75 128.572L0 158.125Z" fill="white"/>
</g>
<rect x="550.5" y="1.25" width="36.25" height="36.25" transform="rotate(45 550.5 1.25)" fill="white"/>
<rect x="571.75" y="48.75" width="17.5" height="17.5" fill="#12E2B0"/>
<g clip-path="url(#clip1_4601_10048)">
<path d="M1155 315L1176 301.36V328.64L1155 315Z" fill="white"/>
<path d="M1184.75 314.125L1221.5 284.572V343.678L1184.75 314.125Z" fill="#12E2B0"/>
</g>
<circle cx="313.625" cy="724.123" r="20.125" fill="#12E2B0"/>
<circle cx="349.875" cy="697.875" r="7.875" fill="white"/>
<g clip-path="url(#clip2_4601_10048)">
<rect width="24.5" height="59.5" transform="matrix(0.945519 0.325568 -0.317189 0.948363 996 582.502)" fill="#12E2B0"/>
<rect width="24.5" height="24.5" transform="matrix(0.984808 -0.173648 0.168778 0.985654 1017 622.75)" fill="white"/>
</g>
<defs>
<clipPath id="clip0_4601_10048">
<rect width="70" height="70" fill="white" transform="matrix(-1 0 0 1 70 124)"/>
</clipPath>
<clipPath id="clip1_4601_10048">
<rect width="70" height="70" fill="white" transform="translate(1155 280)"/>
</clipPath>
<clipPath id="clip2_4601_10048">
<rect width="70" height="70" fill="white" transform="translate(975 579)"/>
</clipPath>
</defs>
</svg>
