<svg width="1196" height="827" viewBox="0 0 1196 827" fill="none" xmlns="http://www.w3.org/2000/svg">
<path d="M400 200C400 226.264 394.827 252.272 384.776 276.537C374.725 300.802 359.993 322.85 341.421 341.421C322.85 359.993 300.802 374.725 276.537 384.776C252.272 394.827 226.264 400 200 400C173.736 400 147.728 394.827 123.463 384.776C99.1982 374.725 77.1504 359.993 58.5786 341.421C40.0069 322.85 25.275 300.802 15.2241 276.537C5.17315 252.272 -2.2961e-06 226.264 0 200H2C2 226.002 7.12142 251.749 17.0718 275.771C27.0223 299.794 41.6068 321.621 59.9928 340.007C78.3788 358.393 100.206 372.978 124.229 382.928C148.251 392.879 173.998 398 200 398C226.002 398 251.749 392.879 275.771 382.928C299.794 372.978 321.621 358.393 340.007 340.007C358.393 321.621 372.978 299.794 382.928 275.771C392.879 251.749 398 226.002 398 200H400Z" fill="white"/>
<path opacity="0.2" d="M28.341 97.3687C52.5855 56.8179 90.4027 26.1593 135.091 10.8259C179.779 -4.50742 228.453 -3.52538 272.487 13.598C316.52 30.7214 353.07 62.8805 375.659 104.376C398.248 145.872 405.418 194.025 395.897 240.301C386.377 286.578 360.782 327.99 323.647 357.199C286.512 386.408 240.236 401.527 193.019 399.878C145.802 398.229 100.693 379.918 65.6867 348.189C30.6803 316.46 8.03646 273.363 1.7681 226.535L3.75042 226.27C9.95609 272.63 32.3735 315.296 67.0298 346.707C101.686 378.118 146.344 396.247 193.089 397.879C239.833 399.512 285.647 384.544 322.41 355.627C359.174 326.71 384.513 285.712 393.938 239.898C403.364 194.084 396.266 146.413 373.902 105.332C351.539 64.2517 315.355 32.4142 271.762 15.462C228.169 -1.49013 179.982 -2.46234 135.74 12.7177C91.4987 27.8977 54.0596 58.2497 30.0576 98.395L28.341 97.3687Z" fill="white"/>
<path d="M28.341 97.3687C45.988 67.8526 70.9477 43.3855 100.81 26.3301C130.671 9.27465 164.426 0.207254 198.815 0.00351018L198.827 2.00348C164.782 2.20518 131.365 11.1819 101.801 28.0668C72.2382 44.9516 47.5282 69.1741 30.0576 98.395L28.341 97.3687Z" fill="white"/>
<path opacity="0.2" d="M1196 200C1196 155.906 1181.43 113.048 1154.55 78.0922C1127.67 43.1364 1090 18.0425 1047.38 6.7137C1004.77 -4.61512 959.608 -1.54377 918.92 15.45C878.232 32.4438 844.301 62.4074 822.404 100.68C800.507 138.953 791.872 183.389 797.841 227.077C803.811 270.765 824.051 311.256 855.413 342.251C886.775 373.246 927.501 393.008 971.256 398.463C1015.01 403.919 1059.34 394.761 1097.36 372.415L1096.34 370.691C1058.71 392.814 1014.82 401.88 971.504 396.479C928.186 391.078 887.867 371.514 856.819 340.828C825.77 310.143 805.733 270.057 799.823 226.806C793.913 183.555 802.462 139.563 824.14 101.673C845.818 63.7833 879.41 34.1194 919.691 17.2955C959.972 0.471664 1004.68 -2.56897 1046.87 8.64656C1089.06 19.8621 1126.36 44.7051 1152.97 79.3113C1179.57 113.918 1194 156.347 1194 200H1196Z" fill="white"/>
<path opacity="0.2" d="M600.903 550.244C599.41 598.021 580.856 643.683 548.6 678.96C516.345 714.236 472.521 736.794 425.069 742.546L424.828 740.561C471.806 734.866 515.191 712.534 547.124 677.61C579.057 642.686 597.426 597.481 598.903 550.182L600.903 550.244Z" fill="white"/>
<path opacity="0.2" d="M818.649 743.012C785.599 746.274 752.256 741.255 721.63 728.406C691.005 715.558 664.061 695.285 643.231 669.418C622.401 643.551 608.341 612.904 602.319 580.243C596.297 547.582 598.504 513.936 608.739 482.341C618.975 450.746 636.917 422.198 660.946 399.272C684.976 376.347 714.336 359.767 746.377 351.028C778.418 342.289 812.131 341.666 844.473 349.217C876.815 356.767 906.767 372.253 931.626 394.275L930.3 395.772C905.689 373.97 876.037 358.639 844.018 351.164C812 343.689 778.624 344.305 746.904 352.957C715.183 361.609 686.116 378.023 662.327 400.719C638.538 423.416 620.775 451.679 610.642 482.958C600.509 514.236 598.324 547.546 604.286 579.881C610.248 612.215 624.167 642.555 644.789 668.164C665.411 693.772 692.085 713.842 722.404 726.562C752.723 739.282 785.733 744.252 818.453 741.022L818.649 743.012Z" fill="white"/>
<path opacity="0.2" d="M915.17 381.174C941.66 400.075 963.137 425.154 977.739 454.236C992.341 483.318 999.626 515.524 998.962 548.059L996.963 548.018C997.62 515.808 990.408 483.925 975.952 455.134C961.496 426.343 940.233 401.514 914.008 382.802L915.17 381.174Z" fill="white"/>
<path d="M348.396 536.792C351.308 540.152 356.684 542.672 363.852 542.672C373.148 542.672 379.308 538.136 379.308 531.584C379.308 526.208 374.492 523.128 370.516 522.736C374.94 522.008 378.692 518.704 378.692 514.336C378.692 508.176 373.372 504.088 363.852 504.088C356.964 504.088 352.036 506.608 348.9 510.136L353.436 516.016C356.068 513.72 359.428 512.32 362.844 512.32C366.428 512.32 369.116 513.552 369.116 515.904C369.116 517.976 366.932 519.096 363.068 519.096C361.668 519.096 358.756 519.096 358.028 519.04V527.328C358.588 527.272 361.444 527.216 363.068 527.216C368.164 527.216 369.732 528.448 369.732 530.632C369.732 532.816 367.604 534.496 363.46 534.496C360.212 534.496 355.956 533.096 353.268 530.464L348.396 536.792ZM382.644 523.352C382.644 533.208 387.74 542.672 398.66 542.672C409.58 542.672 414.676 533.208 414.676 523.352C414.676 513.496 409.58 504.088 398.66 504.088C387.74 504.088 382.644 513.496 382.644 523.352ZM404.932 523.352C404.932 529.96 403.14 534.16 398.66 534.16C394.18 534.16 392.388 529.96 392.388 523.352C392.388 516.744 394.18 512.6 398.66 512.6C403.14 512.6 404.932 516.744 404.932 523.352ZM417.421 513.496C417.421 518.704 421.229 522.792 427.109 522.792C433.101 522.792 436.965 518.704 436.965 513.496C436.965 508.232 433.101 504.088 427.109 504.088C421.229 504.088 417.421 508.232 417.421 513.496ZM428.229 542L452.141 504.648H447.269L423.413 542H428.229ZM430.973 513.496C430.973 516.184 429.293 517.64 427.109 517.64C424.981 517.64 423.357 516.184 423.357 513.496C423.357 510.696 424.981 509.24 427.109 509.24C429.293 509.24 430.973 510.696 430.973 513.496ZM438.533 533.376C438.533 538.584 442.341 542.672 448.221 542.672C454.157 542.672 458.021 538.584 458.021 533.376C458.021 528.112 454.157 523.968 448.221 523.968C442.341 523.968 438.533 528.112 438.533 533.376ZM452.085 533.376C452.085 536.12 450.405 537.52 448.221 537.52C446.037 537.52 444.469 536.12 444.469 533.376C444.469 530.576 446.037 529.12 448.221 529.12C450.405 529.12 452.085 530.576 452.085 533.376Z" fill="white"/>
<path d="M316.089 593V579.66H313.709L309.549 589.82L305.409 579.66H303.029V593H304.689V581.9L309.209 593H309.889L314.429 581.9V593H316.089ZM319.881 581.72C320.441 581.72 320.901 581.26 320.901 580.7C320.901 580.14 320.441 579.7 319.881 579.7C319.341 579.7 318.881 580.14 318.881 580.7C318.881 581.26 319.341 581.72 319.881 581.72ZM320.641 593V583.34H319.141V593H320.641ZM332.133 593V579.66H330.633V584.8C329.853 583.74 328.673 583.1 327.373 583.1C324.833 583.1 323.073 585.1 323.073 588.18C323.073 591.32 324.853 593.24 327.373 593.24C328.733 593.24 329.913 592.54 330.633 591.56V593H332.133ZM330.633 590.38C330.093 591.22 328.933 591.9 327.733 591.9C325.793 591.9 324.633 590.32 324.633 588.18C324.633 586.04 325.793 584.44 327.733 584.44C328.933 584.44 330.093 585.16 330.633 586V590.38ZM339.037 588.82V587.5H334.237V588.82H339.037ZM347.453 593.24C349.873 593.24 351.473 592.12 352.593 590.6L351.173 589.82C350.413 590.96 349.033 591.76 347.453 591.76C344.593 591.76 342.373 589.5 342.373 586.34C342.373 583.16 344.593 580.92 347.453 580.92C349.033 580.92 350.413 581.74 351.173 582.86L352.573 582.08C351.513 580.58 349.873 579.44 347.453 579.44C343.673 579.44 340.653 582.24 340.653 586.34C340.653 590.44 343.673 593.24 347.453 593.24ZM362.188 593V586.36C362.188 584.02 360.488 583.1 358.448 583.1C356.868 583.1 355.628 583.62 354.588 584.7L355.288 585.74C356.148 584.82 357.088 584.4 358.248 584.4C359.648 584.4 360.688 585.14 360.688 586.44V588.18C359.908 587.28 358.808 586.86 357.488 586.86C355.848 586.86 354.108 587.88 354.108 590.04C354.108 592.14 355.848 593.24 357.488 593.24C358.788 593.24 359.888 592.78 360.688 591.9V593H362.188ZM360.688 590.96C360.108 591.76 359.088 592.16 358.028 592.16C356.628 592.16 355.648 591.28 355.648 590.06C355.648 588.82 356.628 587.94 358.028 587.94C359.088 587.94 360.108 588.34 360.688 589.14V590.96ZM366.695 593V586.16C367.135 585.38 368.395 584.62 369.315 584.62C369.555 584.62 369.735 584.64 369.915 584.68V583.14C368.595 583.14 367.475 583.88 366.695 584.9V583.34H365.195V593H366.695ZM371.237 588.16C371.237 591.18 373.297 593.24 376.157 593.24C377.737 593.24 379.037 592.72 379.997 591.76L379.277 590.78C378.517 591.56 377.397 592 376.297 592C374.217 592 372.937 590.48 372.817 588.66H380.637V588.28C380.637 585.38 378.917 583.1 375.997 583.1C373.237 583.1 371.237 585.36 371.237 588.16ZM375.977 584.34C378.177 584.34 379.137 586.12 379.157 587.56H372.817C372.897 586.08 373.917 584.34 375.977 584.34ZM382.506 588.16C382.506 591.18 384.566 593.24 387.426 593.24C389.006 593.24 390.306 592.72 391.266 591.76L390.546 590.78C389.786 591.56 388.666 592 387.566 592C385.486 592 384.206 590.48 384.086 588.66H391.906V588.28C391.906 585.38 390.186 583.1 387.266 583.1C384.506 583.1 382.506 585.36 382.506 588.16ZM387.246 584.34C389.446 584.34 390.406 586.12 390.426 587.56H384.086C384.166 586.08 385.186 584.34 387.246 584.34ZM395.836 593V586.16C396.276 585.38 397.536 584.62 398.456 584.62C398.696 584.62 398.876 584.64 399.056 584.68V583.14C397.736 583.14 396.616 583.88 395.836 584.9V583.34H394.336V593H395.836ZM410.714 593C414.854 593 417.554 590.14 417.554 586.34C417.554 582.56 414.854 579.66 410.714 579.66H406.154V593H410.714ZM407.814 581.14H410.714C414.014 581.14 415.834 583.46 415.834 586.34C415.834 589.2 413.954 591.52 410.714 591.52H407.814V581.14ZM419.538 588.16C419.538 591.18 421.598 593.24 424.458 593.24C426.038 593.24 427.338 592.72 428.298 591.76L427.578 590.78C426.818 591.56 425.698 592 424.598 592C422.518 592 421.238 590.48 421.118 588.66H428.938V588.28C428.938 585.38 427.218 583.1 424.298 583.1C421.538 583.1 419.538 585.36 419.538 588.16ZM424.278 584.34C426.478 584.34 427.438 586.12 427.458 587.56H421.118C421.198 586.08 422.218 584.34 424.278 584.34ZM435.587 593L439.607 583.34H437.967L434.767 591.26L431.547 583.34H429.927L433.947 593H435.587ZM440.612 588.16C440.612 591.18 442.672 593.24 445.532 593.24C447.112 593.24 448.412 592.72 449.372 591.76L448.652 590.78C447.892 591.56 446.772 592 445.672 592C443.592 592 442.312 590.48 442.192 588.66H450.012V588.28C450.012 585.38 448.292 583.1 445.372 583.1C442.612 583.1 440.612 585.36 440.612 588.16ZM445.352 584.34C447.552 584.34 448.512 586.12 448.532 587.56H442.192C442.272 586.08 443.292 584.34 445.352 584.34ZM453.941 593V579.66H452.441V593H453.941ZM461.154 593.24C464.094 593.24 465.934 590.96 465.934 588.16C465.934 585.36 464.094 583.1 461.154 583.1C458.214 583.1 456.374 585.36 456.374 588.16C456.374 590.96 458.214 593.24 461.154 593.24ZM461.154 591.9C459.094 591.9 457.934 590.14 457.934 588.16C457.934 586.2 459.094 584.44 461.154 584.44C463.214 584.44 464.354 586.2 464.354 588.16C464.354 590.14 463.214 591.9 461.154 591.9ZM469.879 591.54C470.659 592.62 471.819 593.24 473.139 593.24C475.679 593.24 477.439 591.28 477.439 588.16C477.439 585.02 475.679 583.1 473.139 583.1C471.779 583.1 470.579 583.8 469.879 584.78V583.34H468.379V596.68H469.879V591.54ZM475.859 588.16C475.859 590.3 474.699 591.9 472.759 591.9C471.579 591.9 470.399 591.18 469.879 590.34V585.98C470.399 585.14 471.579 584.44 472.759 584.44C474.699 584.44 475.859 586.02 475.859 588.16ZM479.303 588.16C479.303 591.18 481.363 593.24 484.223 593.24C485.803 593.24 487.103 592.72 488.063 591.76L487.343 590.78C486.583 591.56 485.463 592 484.363 592C482.283 592 481.003 590.48 480.883 588.66H488.703V588.28C488.703 585.38 486.983 583.1 484.063 583.1C481.303 583.1 479.303 585.36 479.303 588.16ZM484.043 584.34C486.243 584.34 487.203 586.12 487.223 587.56H480.883C480.963 586.08 481.983 584.34 484.043 584.34ZM492.633 593V586.16C493.073 585.38 494.333 584.62 495.253 584.62C495.493 584.62 495.673 584.64 495.853 584.68V583.14C494.533 583.14 493.413 583.88 492.633 584.9V583.34H491.133V593H492.633ZM496.894 591.72C497.874 592.76 499.214 593.24 500.794 593.24C503.294 593.24 504.594 591.94 504.594 590.32C504.594 588.18 502.654 587.7 500.974 587.32C499.714 587.02 498.614 586.72 498.614 585.78C498.614 584.92 499.434 584.32 500.754 584.32C501.994 584.32 503.054 584.84 503.634 585.54L504.334 584.5C503.554 583.72 502.394 583.1 500.754 583.1C498.454 583.1 497.154 584.38 497.154 585.88C497.154 587.88 499.014 588.32 500.654 588.7C501.954 589.02 503.134 589.36 503.134 590.42C503.134 591.36 502.334 592.02 500.854 592.02C499.534 592.02 498.314 591.38 497.674 590.64L496.894 591.72Z" fill="white"/>
<path d="M774.252 542V533.6H759.86C769.884 527.104 773.972 522.232 773.972 516.52C773.972 509.016 767.644 504.088 758.852 504.088C753.644 504.088 747.708 505.936 743.732 510.304L749.052 516.688C751.74 514.168 754.876 512.6 758.852 512.6C761.764 512.6 764.172 513.944 764.172 516.52C764.172 520.216 761.148 522.792 744.964 534.496V542H774.252ZM777.972 523.352C777.972 533.208 783.068 542.672 793.988 542.672C804.908 542.672 810.004 533.208 810.004 523.352C810.004 513.496 804.908 504.088 793.988 504.088C783.068 504.088 777.972 513.496 777.972 523.352ZM800.26 523.352C800.26 529.96 798.468 534.16 793.988 534.16C789.508 534.16 787.716 529.96 787.716 523.352C787.716 516.744 789.508 512.6 793.988 512.6C798.468 512.6 800.26 516.744 800.26 523.352ZM812.749 513.496C812.749 518.704 816.557 522.792 822.437 522.792C828.429 522.792 832.293 518.704 832.293 513.496C832.293 508.232 828.429 504.088 822.437 504.088C816.557 504.088 812.749 508.232 812.749 513.496ZM823.557 542L847.469 504.648H842.597L818.741 542H823.557ZM826.301 513.496C826.301 516.184 824.621 517.64 822.437 517.64C820.309 517.64 818.685 516.184 818.685 513.496C818.685 510.696 820.309 509.24 822.437 509.24C824.621 509.24 826.301 510.696 826.301 513.496ZM833.861 533.376C833.861 538.584 837.669 542.672 843.549 542.672C849.485 542.672 853.349 538.584 853.349 533.376C853.349 528.112 849.485 523.968 843.549 523.968C837.669 523.968 833.861 528.112 833.861 533.376ZM847.413 533.376C847.413 536.12 845.733 537.52 843.549 537.52C841.365 537.52 839.797 536.12 839.797 533.376C839.797 530.576 841.365 529.12 843.549 529.12C845.733 529.12 847.413 530.576 847.413 533.376Z" fill="white"/>
<path d="M719.142 591.7C720.062 592.78 721.202 593.24 722.622 593.24C725.002 593.24 726.862 591.88 726.862 588.98V579.66H725.202V588.96C725.202 590.62 724.162 591.76 722.522 591.76C721.362 591.76 720.582 591.14 720.002 590.44L719.142 591.7ZM737.934 593V583.34H736.434V590.44C735.874 591.22 734.754 591.9 733.574 591.9C732.274 591.9 731.414 591.4 731.414 589.7V583.34H729.914V590.16C729.914 592.26 730.974 593.24 732.994 593.24C734.434 593.24 735.694 592.48 736.434 591.64V593H737.934ZM748.95 593V586.22C748.95 584.12 747.89 583.1 745.87 583.1C744.43 583.1 743.11 583.94 742.43 584.74V583.34H740.93V593H742.43V585.94C742.99 585.16 744.11 584.44 745.29 584.44C746.59 584.44 747.45 584.98 747.45 586.68V593H748.95ZM752.685 581.72C753.245 581.72 753.705 581.26 753.705 580.7C753.705 580.14 753.245 579.7 752.685 579.7C752.145 579.7 751.685 580.14 751.685 580.7C751.685 581.26 752.145 581.72 752.685 581.72ZM753.445 593V583.34H751.945V593H753.445ZM760.658 593.24C763.598 593.24 765.438 590.96 765.438 588.16C765.438 585.36 763.598 583.1 760.658 583.1C757.718 583.1 755.878 585.36 755.878 588.16C755.878 590.96 757.718 593.24 760.658 593.24ZM760.658 591.9C758.598 591.9 757.438 590.14 757.438 588.16C757.438 586.2 758.598 584.44 760.658 584.44C762.718 584.44 763.858 586.2 763.858 588.16C763.858 590.14 762.718 591.9 760.658 591.9ZM769.383 593V586.16C769.823 585.38 771.083 584.62 772.003 584.62C772.243 584.62 772.423 584.64 772.603 584.68V583.14C771.283 583.14 770.163 583.88 769.383 584.9V583.34H767.883V593H769.383ZM784.261 593C788.401 593 791.101 590.14 791.101 586.34C791.101 582.56 788.401 579.66 784.261 579.66H779.701V593H784.261ZM781.361 581.14H784.261C787.561 581.14 789.381 583.46 789.381 586.34C789.381 589.2 787.501 591.52 784.261 591.52H781.361V581.14ZM793.085 588.16C793.085 591.18 795.145 593.24 798.005 593.24C799.585 593.24 800.885 592.72 801.845 591.76L801.125 590.78C800.365 591.56 799.245 592 798.145 592C796.065 592 794.785 590.48 794.665 588.66H802.485V588.28C802.485 585.38 800.765 583.1 797.845 583.1C795.085 583.1 793.085 585.36 793.085 588.16ZM797.825 584.34C800.025 584.34 800.985 586.12 801.005 587.56H794.665C794.745 586.08 795.765 584.34 797.825 584.34ZM809.134 593L813.154 583.34H811.514L808.314 591.26L805.094 583.34H803.474L807.494 593H809.134ZM814.159 588.16C814.159 591.18 816.219 593.24 819.079 593.24C820.659 593.24 821.959 592.72 822.919 591.76L822.199 590.78C821.439 591.56 820.319 592 819.219 592C817.139 592 815.859 590.48 815.739 588.66H823.559V588.28C823.559 585.38 821.839 583.1 818.919 583.1C816.159 583.1 814.159 585.36 814.159 588.16ZM818.899 584.34C821.099 584.34 822.059 586.12 822.079 587.56H815.739C815.819 586.08 816.839 584.34 818.899 584.34ZM827.488 593V579.66H825.988V593H827.488ZM834.7 593.24C837.64 593.24 839.48 590.96 839.48 588.16C839.48 585.36 837.64 583.1 834.7 583.1C831.76 583.1 829.92 585.36 829.92 588.16C829.92 590.96 831.76 593.24 834.7 593.24ZM834.7 591.9C832.64 591.9 831.48 590.14 831.48 588.16C831.48 586.2 832.64 584.44 834.7 584.44C836.76 584.44 837.9 586.2 837.9 588.16C837.9 590.14 836.76 591.9 834.7 591.9ZM843.426 591.54C844.206 592.62 845.366 593.24 846.686 593.24C849.226 593.24 850.986 591.28 850.986 588.16C850.986 585.02 849.226 583.1 846.686 583.1C845.326 583.1 844.126 583.8 843.426 584.78V583.34H841.926V596.68H843.426V591.54ZM849.406 588.16C849.406 590.3 848.246 591.9 846.306 591.9C845.126 591.9 843.946 591.18 843.426 590.34V585.98C843.946 585.14 845.126 584.44 846.306 584.44C848.246 584.44 849.406 586.02 849.406 588.16ZM852.85 588.16C852.85 591.18 854.91 593.24 857.77 593.24C859.35 593.24 860.65 592.72 861.61 591.76L860.89 590.78C860.13 591.56 859.01 592 857.91 592C855.83 592 854.55 590.48 854.43 588.66H862.25V588.28C862.25 585.38 860.53 583.1 857.61 583.1C854.85 583.1 852.85 585.36 852.85 588.16ZM857.59 584.34C859.79 584.34 860.75 586.12 860.77 587.56H854.43C854.51 586.08 855.53 584.34 857.59 584.34ZM866.18 593V586.16C866.62 585.38 867.88 584.62 868.8 584.62C869.04 584.62 869.22 584.64 869.4 584.68V583.14C868.08 583.14 866.96 583.88 866.18 584.9V583.34H864.68V593H866.18ZM870.441 591.72C871.421 592.76 872.761 593.24 874.341 593.24C876.841 593.24 878.141 591.94 878.141 590.32C878.141 588.18 876.201 587.7 874.521 587.32C873.261 587.02 872.161 586.72 872.161 585.78C872.161 584.92 872.981 584.32 874.301 584.32C875.541 584.32 876.601 584.84 877.181 585.54L877.881 584.5C877.101 583.72 875.941 583.1 874.301 583.1C872.001 583.1 870.701 584.38 870.701 585.88C870.701 587.88 872.561 588.32 874.201 588.7C875.501 589.02 876.681 589.36 876.681 590.42C876.681 591.36 875.881 592.02 874.401 592.02C873.081 592.02 871.861 591.38 871.221 590.64L870.441 591.72Z" fill="white"/>
<path opacity="0.2" d="M587.225 0.290463C634.652 -2.2684 681.442 12.1348 719.22 40.9222C756.998 69.7096 783.298 111.002 793.412 157.409C803.527 203.815 796.796 252.307 774.424 294.204C752.053 336.102 715.5 368.67 671.31 386.08C627.12 403.489 578.176 404.604 533.239 389.225C488.302 373.845 450.304 342.975 426.048 302.14C401.792 261.305 392.86 213.17 400.851 166.351C408.842 119.532 433.235 77.0845 469.662 46.6068L470.946 48.1407C434.882 78.3136 410.734 120.336 402.823 166.687C394.911 213.038 403.754 260.691 427.768 301.118C451.781 341.545 489.398 372.107 533.886 387.332C578.374 402.558 626.829 401.454 670.577 384.219C714.325 366.983 750.512 334.741 772.66 293.262C794.808 251.784 801.472 203.777 791.458 157.835C781.445 111.892 755.408 71.0125 718.008 42.513C680.608 14.0135 634.286 -0.245712 587.333 2.28756L587.225 0.290463Z" fill="white"/>
<path d="M398 200C398 169.529 404.962 139.462 418.355 112.092C431.748 84.7231 451.218 60.7757 475.277 42.0786L476.505 43.6578C452.685 62.168 433.411 85.8759 420.152 112.972C406.893 140.067 400 169.834 400 200H398Z" fill="white"/>
<path d="M586.372 0.338305C613.556 -1.24483 640.777 2.73974 666.367 12.0478C691.956 21.3559 715.376 35.7914 735.189 54.4697C755.003 73.1481 770.794 95.6757 781.595 120.672C792.395 145.668 797.978 172.607 798 199.837L796 199.839C795.978 172.881 790.451 146.212 779.759 121.465C769.066 96.7189 753.433 74.4166 733.818 55.925C714.202 37.4335 691.017 23.1423 665.683 13.9273C640.349 4.71234 613.4 0.76762 586.488 2.33492L586.372 0.338305Z" fill="white"/>
<path d="M254.194 679.823C231.857 655.681 215.82 626.402 207.502 594.581C199.184 562.76 198.842 529.379 206.506 497.394C214.17 465.41 229.605 435.809 251.441 411.214C273.278 386.619 300.844 367.789 331.696 356.391C362.549 344.994 395.736 341.382 428.318 345.874C460.899 350.367 491.871 362.825 518.488 382.146C545.105 401.467 566.546 427.054 580.912 456.641C595.278 486.228 602.126 518.901 600.849 551.766L598.851 551.689C600.115 519.152 593.336 486.805 579.113 457.515C564.89 428.224 543.664 402.892 517.313 383.765C490.962 364.637 460.3 352.303 428.044 347.856C395.788 343.408 362.933 346.984 332.389 358.268C301.845 369.551 274.555 388.192 252.937 412.541C231.318 436.891 216.039 466.195 208.451 497.86C200.863 529.525 201.202 562.573 209.437 594.075C217.672 625.578 233.549 654.564 255.662 678.465L254.194 679.823Z" fill="white"/>
<path d="M432.827 741.451C396.887 747.245 360.047 743.118 326.279 729.517L327.026 727.662C360.456 741.127 396.928 745.212 432.509 739.477L432.827 741.451Z" fill="white"/>
<path d="M1137.42 341.421C1109.39 369.449 1073.67 388.517 1034.78 396.203C995.899 403.89 955.607 399.849 919.023 384.593C882.439 369.337 851.214 343.555 829.31 310.519C807.407 277.483 795.813 238.684 796.002 199.047L798.002 199.057C797.815 238.297 809.293 276.709 830.977 309.414C852.661 342.119 883.575 367.644 919.793 382.747C956.011 397.85 995.9 401.851 1034.4 394.241C1072.89 386.632 1108.26 367.755 1136.01 340.007L1137.42 341.421Z" fill="white"/>
<path d="M913.51 380.026C941.205 399.367 963.55 425.407 978.461 455.717C993.372 486.028 1000.36 519.621 998.781 553.364L996.783 553.27C998.349 519.865 991.428 486.608 976.666 456.6C961.905 426.593 939.783 400.813 912.365 381.666L913.51 380.026Z" fill="white"/>
<path d="M964.449 656.368C940.715 691.314 906.524 717.848 866.78 732.165C827.035 746.481 783.778 747.845 743.21 736.061C702.643 724.277 666.848 699.95 640.959 666.569C615.07 633.187 600.416 592.465 599.097 550.241L601.096 550.179C602.402 591.98 616.909 632.295 642.54 665.343C668.17 698.391 703.606 722.474 743.768 734.141C783.93 745.807 826.755 744.456 866.102 730.283C905.449 716.11 939.297 689.841 962.795 655.244L964.449 656.368Z" fill="white"/>
<path d="M900.657 24.1885C935.5 5.29273 975.173 -2.82346 1014.64 0.870313C1054.1 4.56408 1091.58 19.9012 1122.31 44.9346C1153.04 69.968 1175.64 103.569 1187.24 141.471C1198.84 179.373 1198.92 219.867 1187.46 257.812L1185.55 257.234C1196.89 219.668 1196.82 179.579 1185.33 142.056C1173.85 104.533 1151.47 71.2683 1121.05 46.4853C1090.62 21.7022 1053.52 6.51844 1014.45 2.86161C975.381 -0.795222 936.105 7.23981 901.61 25.9466L900.657 24.1885Z" fill="white"/>
<path d="M145.74 193.24C149.212 196.656 154.196 198.672 160.804 198.672C170.492 198.672 176.596 193.576 176.596 185.512C176.596 178.008 170.94 173.416 164.556 173.416C161.252 173.416 158.34 174.648 156.212 176.44V168.768H174.02V160.648H146.916V182.544L153.58 184.168C155.652 182.264 158.004 181.368 160.972 181.368C164.836 181.368 166.796 183.272 166.796 185.904C166.796 188.312 164.78 190.496 160.692 190.496C157.108 190.496 153.468 189.208 150.892 186.8L145.74 193.24ZM180.303 193.24C183.775 196.656 188.759 198.672 195.367 198.672C205.055 198.672 211.159 193.576 211.159 185.512C211.159 178.008 205.503 173.416 199.119 173.416C195.815 173.416 192.903 174.648 190.775 176.44V168.768H208.583V160.648H181.479V182.544L188.143 184.168C190.215 182.264 192.567 181.368 195.535 181.368C199.399 181.368 201.359 183.272 201.359 185.904C201.359 188.312 199.343 190.496 195.255 190.496C191.671 190.496 188.031 189.208 185.454 186.8L180.303 193.24ZM213.913 169.496C213.913 174.704 217.721 178.792 223.601 178.792C229.593 178.792 233.457 174.704 233.457 169.496C233.457 164.232 229.593 160.088 223.601 160.088C217.721 160.088 213.913 164.232 213.913 169.496ZM224.721 198L248.633 160.648H243.761L219.905 198H224.721ZM227.465 169.496C227.465 172.184 225.785 173.64 223.601 173.64C221.473 173.64 219.849 172.184 219.849 169.496C219.849 166.696 221.473 165.24 223.601 165.24C225.785 165.24 227.465 166.696 227.465 169.496ZM235.025 189.376C235.025 194.584 238.833 198.672 244.713 198.672C250.649 198.672 254.513 194.584 254.513 189.376C254.513 184.112 250.649 179.968 244.713 179.968C238.833 179.968 235.025 184.112 235.025 189.376ZM248.577 189.376C248.577 192.12 246.897 193.52 244.713 193.52C242.529 193.52 240.961 192.12 240.961 189.376C240.961 186.576 242.529 185.12 244.713 185.12C246.897 185.12 248.577 186.576 248.577 189.376Z" fill="white"/>
<path d="M144.561 249V235.66H142.181L138.021 245.82L133.881 235.66H131.501V249H133.161V237.9L137.681 249H138.361L142.901 237.9V249H144.561ZM155.153 249V242.36C155.153 240.02 153.453 239.1 151.413 239.1C149.833 239.1 148.593 239.62 147.553 240.7L148.253 241.74C149.113 240.82 150.053 240.4 151.213 240.4C152.613 240.4 153.653 241.14 153.653 242.44V244.18C152.873 243.28 151.773 242.86 150.453 242.86C148.813 242.86 147.073 243.88 147.073 246.04C147.073 248.14 148.813 249.24 150.453 249.24C151.753 249.24 152.853 248.78 153.653 247.9V249H155.153ZM153.653 246.96C153.073 247.76 152.053 248.16 150.993 248.16C149.593 248.16 148.613 247.28 148.613 246.06C148.613 244.82 149.593 243.94 150.993 243.94C152.053 243.94 153.073 244.34 153.653 245.14V246.96ZM157.32 247.72C158.3 248.76 159.64 249.24 161.22 249.24C163.72 249.24 165.02 247.94 165.02 246.32C165.02 244.18 163.08 243.7 161.4 243.32C160.14 243.02 159.04 242.72 159.04 241.78C159.04 240.92 159.86 240.32 161.18 240.32C162.42 240.32 163.48 240.84 164.06 241.54L164.76 240.5C163.98 239.72 162.82 239.1 161.18 239.1C158.88 239.1 157.58 240.38 157.58 241.88C157.58 243.88 159.44 244.32 161.08 244.7C162.38 245.02 163.56 245.36 163.56 246.42C163.56 247.36 162.76 248.02 161.28 248.02C159.96 248.02 158.74 247.38 158.1 246.64L157.32 247.72ZM169.897 249.24C170.777 249.24 171.317 248.98 171.697 248.62L171.257 247.5C171.057 247.72 170.657 247.9 170.237 247.9C169.577 247.9 169.257 247.38 169.257 246.66V240.66H171.217V239.34H169.257V236.7H167.757V239.34H166.157V240.66H167.757V246.98C167.757 248.42 168.477 249.24 169.897 249.24ZM172.776 244.16C172.776 247.18 174.836 249.24 177.696 249.24C179.276 249.24 180.576 248.72 181.536 247.76L180.816 246.78C180.056 247.56 178.936 248 177.836 248C175.756 248 174.476 246.48 174.356 244.66H182.176V244.28C182.176 241.38 180.456 239.1 177.536 239.1C174.776 239.1 172.776 241.36 172.776 244.16ZM177.516 240.34C179.716 240.34 180.676 242.12 180.696 243.56H174.356C174.436 242.08 175.456 240.34 177.516 240.34ZM186.105 249V242.16C186.545 241.38 187.805 240.62 188.725 240.62C188.965 240.62 189.145 240.64 189.325 240.68V239.14C188.005 239.14 186.885 239.88 186.105 240.9V239.34H184.605V249H186.105ZM190.367 247.72C191.347 248.76 192.687 249.24 194.267 249.24C196.767 249.24 198.067 247.94 198.067 246.32C198.067 244.18 196.127 243.7 194.447 243.32C193.187 243.02 192.087 242.72 192.087 241.78C192.087 240.92 192.907 240.32 194.227 240.32C195.467 240.32 196.527 240.84 197.107 241.54L197.807 240.5C197.027 239.72 195.867 239.1 194.227 239.1C191.927 239.1 190.627 240.38 190.627 241.88C190.627 243.88 192.487 244.32 194.127 244.7C195.427 245.02 196.607 245.36 196.607 246.42C196.607 247.36 195.807 248.02 194.327 248.02C193.007 248.02 191.787 247.38 191.147 246.64L190.367 247.72ZM210.28 249C214.42 249 217.12 246.14 217.12 242.34C217.12 238.56 214.42 235.66 210.28 235.66H205.72V249H210.28ZM207.38 237.14H210.28C213.58 237.14 215.4 239.46 215.4 242.34C215.4 245.2 213.52 247.52 210.28 247.52H207.38V237.14ZM219.104 244.16C219.104 247.18 221.164 249.24 224.024 249.24C225.604 249.24 226.904 248.72 227.864 247.76L227.144 246.78C226.384 247.56 225.264 248 224.164 248C222.084 248 220.804 246.48 220.684 244.66H228.504V244.28C228.504 241.38 226.784 239.1 223.864 239.1C221.104 239.1 219.104 241.36 219.104 244.16ZM223.844 240.34C226.044 240.34 227.004 242.12 227.024 243.56H220.684C220.764 242.08 221.784 240.34 223.844 240.34ZM230.914 251.48C232.054 252.6 233.174 252.92 234.814 252.92C237.174 252.92 239.414 251.92 239.414 248.72V239.34H237.914V240.8C237.134 239.74 235.974 239.1 234.674 239.1C232.134 239.1 230.374 241.02 230.374 244.12C230.374 247.24 232.154 249.12 234.674 249.12C236.034 249.12 237.214 248.38 237.914 247.4V248.78C237.914 250.9 236.414 251.68 234.814 251.68C233.434 251.68 232.474 251.32 231.674 250.36L230.914 251.48ZM237.914 246.22C237.394 247.06 236.234 247.8 235.034 247.8C233.094 247.8 231.934 246.24 231.934 244.12C231.934 241.98 233.094 240.44 235.034 240.44C236.234 240.44 237.394 241.16 237.914 242V246.22ZM243.918 249V242.16C244.358 241.38 245.618 240.62 246.538 240.62C246.778 240.62 246.958 240.64 247.138 240.68V239.14C245.818 239.14 244.698 239.88 243.918 240.9V239.34H242.418V249H243.918ZM248.46 244.16C248.46 247.18 250.52 249.24 253.38 249.24C254.96 249.24 256.26 248.72 257.22 247.76L256.5 246.78C255.74 247.56 254.62 248 253.52 248C251.44 248 250.16 246.48 250.04 244.66H257.86V244.28C257.86 241.38 256.14 239.1 253.22 239.1C250.46 239.1 248.46 241.36 248.46 244.16ZM253.2 240.34C255.4 240.34 256.36 242.12 256.38 243.56H250.04C250.12 242.08 251.14 240.34 253.2 240.34ZM259.729 244.16C259.729 247.18 261.789 249.24 264.649 249.24C266.229 249.24 267.529 248.72 268.489 247.76L267.769 246.78C267.009 247.56 265.889 248 264.789 248C262.709 248 261.429 246.48 261.309 244.66H269.129V244.28C269.129 241.38 267.409 239.1 264.489 239.1C261.729 239.1 259.729 241.36 259.729 244.16ZM264.469 240.34C266.669 240.34 267.629 242.12 267.649 243.56H261.309C261.389 242.08 262.409 240.34 264.469 240.34Z" fill="white"/>
<path d="M550.172 198V160.648H541.828L528.78 173.528L534.268 179.296L540.54 172.968V198H550.172ZM555.003 179.352C555.003 189.208 560.099 198.672 571.019 198.672C581.939 198.672 587.035 189.208 587.035 179.352C587.035 169.496 581.939 160.088 571.019 160.088C560.099 160.088 555.003 169.496 555.003 179.352ZM577.291 179.352C577.291 185.96 575.499 190.16 571.019 190.16C566.539 190.16 564.747 185.96 564.747 179.352C564.747 172.744 566.539 168.6 571.019 168.6C575.499 168.6 577.291 172.744 577.291 179.352ZM589.948 179.352C589.948 189.208 595.044 198.672 605.964 198.672C616.884 198.672 621.98 189.208 621.98 179.352C621.98 169.496 616.884 160.088 605.964 160.088C595.044 160.088 589.948 169.496 589.948 179.352ZM612.236 179.352C612.236 185.96 610.444 190.16 605.964 190.16C601.484 190.16 599.692 185.96 599.692 179.352C599.692 172.744 601.484 168.6 605.964 168.6C610.444 168.6 612.236 172.744 612.236 179.352ZM624.726 169.496C624.726 174.704 628.534 178.792 634.414 178.792C640.406 178.792 644.27 174.704 644.27 169.496C644.27 164.232 640.406 160.088 634.414 160.088C628.534 160.088 624.726 164.232 624.726 169.496ZM635.534 198L659.446 160.648H654.574L630.718 198H635.534ZM638.278 169.496C638.278 172.184 636.598 173.64 634.414 173.64C632.286 173.64 630.662 172.184 630.662 169.496C630.662 166.696 632.286 165.24 634.414 165.24C636.598 165.24 638.278 166.696 638.278 169.496ZM645.838 189.376C645.838 194.584 649.646 198.672 655.526 198.672C661.462 198.672 665.326 194.584 665.326 189.376C665.326 184.112 661.462 179.968 655.526 179.968C649.646 179.968 645.838 184.112 645.838 189.376ZM659.39 189.376C659.39 192.12 657.71 193.52 655.526 193.52C653.342 193.52 651.774 192.12 651.774 189.376C651.774 186.576 653.342 185.12 655.526 185.12C657.71 185.12 659.39 186.576 659.39 189.376Z" fill="white"/>
<path d="M533.124 249V247.52H526.044V242.92H532.984V241.44H526.044V237.14H533.124V235.66H524.384V249H533.124ZM543.731 249V242.22C543.731 240.12 542.671 239.1 540.651 239.1C539.211 239.1 537.891 239.94 537.211 240.74V239.34H535.711V249H537.211V241.94C537.771 241.16 538.891 240.44 540.071 240.44C541.371 240.44 542.231 240.98 542.231 242.68V249H543.731ZM546.707 251.48C547.847 252.6 548.967 252.92 550.607 252.92C552.967 252.92 555.207 251.92 555.207 248.72V239.34H553.707V240.8C552.927 239.74 551.767 239.1 550.467 239.1C547.927 239.1 546.167 241.02 546.167 244.12C546.167 247.24 547.947 249.12 550.467 249.12C551.827 249.12 553.007 248.38 553.707 247.4V248.78C553.707 250.9 552.207 251.68 550.607 251.68C549.227 251.68 548.267 251.32 547.467 250.36L546.707 251.48ZM553.707 246.22C553.187 247.06 552.027 247.8 550.827 247.8C548.887 247.8 547.727 246.24 547.727 244.12C547.727 241.98 548.887 240.44 550.827 240.44C552.027 240.44 553.187 241.16 553.707 242V246.22ZM559.711 249V235.66H558.211V249H559.711ZM563.443 237.72C564.003 237.72 564.463 237.26 564.463 236.7C564.463 236.14 564.003 235.7 563.443 235.7C562.903 235.7 562.443 236.14 562.443 236.7C562.443 237.26 562.903 237.72 563.443 237.72ZM564.203 249V239.34H562.703V249H564.203ZM566.355 247.72C567.335 248.76 568.675 249.24 570.255 249.24C572.755 249.24 574.055 247.94 574.055 246.32C574.055 244.18 572.115 243.7 570.435 243.32C569.175 243.02 568.075 242.72 568.075 241.78C568.075 240.92 568.895 240.32 570.215 240.32C571.455 240.32 572.515 240.84 573.095 241.54L573.795 240.5C573.015 239.72 571.855 239.1 570.215 239.1C567.915 239.1 566.615 240.38 566.615 241.88C566.615 243.88 568.475 244.32 570.115 244.7C571.415 245.02 572.595 245.36 572.595 246.42C572.595 247.36 571.795 248.02 570.315 248.02C568.995 248.02 567.775 247.38 567.135 246.64L566.355 247.72ZM584.532 249V242.18C584.532 240.08 583.472 239.1 581.452 239.1C579.992 239.1 578.672 239.94 577.992 240.74V235.66H576.492V249H577.992V241.94C578.572 241.16 579.692 240.44 580.852 240.44C582.152 240.44 583.032 240.94 583.032 242.64V249H584.532ZM591.944 247.12C593.044 248.36 594.744 249.24 597.064 249.24C600.664 249.24 601.984 247.26 601.984 245.32C601.984 242.52 599.504 241.84 597.324 241.26C595.624 240.8 594.084 240.4 594.084 239.06C594.084 237.8 595.224 236.94 596.824 236.94C598.284 236.94 599.684 237.44 600.684 238.54L601.684 237.32C600.564 236.14 598.984 235.46 596.944 235.46C594.324 235.46 592.364 236.96 592.364 239.16C592.364 241.78 594.744 242.38 596.884 242.94C598.644 243.42 600.264 243.86 600.264 245.46C600.264 246.48 599.504 247.76 597.124 247.76C595.244 247.76 593.804 246.84 592.924 245.86L591.944 247.12ZM605.902 247.54C606.682 248.62 607.842 249.24 609.162 249.24C611.702 249.24 613.462 247.28 613.462 244.16C613.462 241.02 611.702 239.1 609.162 239.1C607.802 239.1 606.602 239.8 605.902 240.78V239.34H604.402V252.68H605.902V247.54ZM611.882 244.16C611.882 246.3 610.722 247.9 608.782 247.9C607.602 247.9 606.422 247.18 605.902 246.34V241.98C606.422 241.14 607.602 240.44 608.782 240.44C610.722 240.44 611.882 242.02 611.882 244.16ZM615.327 244.16C615.327 247.18 617.387 249.24 620.247 249.24C621.827 249.24 623.127 248.72 624.087 247.76L623.367 246.78C622.607 247.56 621.487 248 620.387 248C618.307 248 617.027 246.48 616.907 244.66H624.727V244.28C624.727 241.38 623.007 239.1 620.087 239.1C617.327 239.1 615.327 241.36 615.327 244.16ZM620.067 240.34C622.267 240.34 623.227 242.12 623.247 243.56H616.907C616.987 242.08 618.007 240.34 620.067 240.34ZM634.696 249V242.36C634.696 240.02 632.996 239.1 630.956 239.1C629.376 239.1 628.136 239.62 627.096 240.7L627.796 241.74C628.656 240.82 629.596 240.4 630.756 240.4C632.156 240.4 633.196 241.14 633.196 242.44V244.18C632.416 243.28 631.316 242.86 629.996 242.86C628.356 242.86 626.616 243.88 626.616 246.04C626.616 248.14 628.356 249.24 629.996 249.24C631.296 249.24 632.396 248.78 633.196 247.9V249H634.696ZM633.196 246.96C632.616 247.76 631.596 248.16 630.536 248.16C629.136 248.16 628.156 247.28 628.156 246.06C628.156 244.82 629.136 243.94 630.536 243.94C631.596 243.94 632.616 244.34 633.196 245.14V246.96ZM646.203 249L641.903 243.72L646.183 239.34H644.283L639.203 244.48V235.66H637.703V249H639.203V246.24L640.803 244.66L644.283 249H646.203ZM646.948 244.16C646.948 247.18 649.008 249.24 651.868 249.24C653.448 249.24 654.748 248.72 655.708 247.76L654.988 246.78C654.228 247.56 653.108 248 652.008 248C649.928 248 648.648 246.48 648.528 244.66H656.348V244.28C656.348 241.38 654.628 239.1 651.708 239.1C648.948 239.1 646.948 241.36 646.948 244.16ZM651.688 240.34C653.888 240.34 654.848 242.12 654.868 243.56H648.528C648.608 242.08 649.628 240.34 651.688 240.34ZM660.277 249V242.16C660.717 241.38 661.977 240.62 662.897 240.62C663.137 240.62 663.317 240.64 663.497 240.68V239.14C662.177 239.14 661.057 239.88 660.277 240.9V239.34H658.777V249H660.277ZM664.539 247.72C665.519 248.76 666.859 249.24 668.439 249.24C670.939 249.24 672.239 247.94 672.239 246.32C672.239 244.18 670.299 243.7 668.619 243.32C667.359 243.02 666.259 242.72 666.259 241.78C666.259 240.92 667.079 240.32 668.399 240.32C669.639 240.32 670.699 240.84 671.279 241.54L671.979 240.5C671.199 239.72 670.039 239.1 668.399 239.1C666.099 239.1 664.799 240.38 664.799 241.88C664.799 243.88 666.659 244.32 668.299 244.7C669.599 245.02 670.779 245.36 670.779 246.42C670.779 247.36 669.979 248.02 668.499 248.02C667.179 248.02 665.959 247.38 665.319 246.64L664.539 247.72Z" fill="white"/>
<path d="M941.74 193.24C945.212 196.656 950.196 198.672 956.804 198.672C966.492 198.672 972.596 193.576 972.596 185.512C972.596 178.008 966.94 173.416 960.556 173.416C957.252 173.416 954.34 174.648 952.212 176.44V168.768H970.02V160.648H942.916V182.544L949.58 184.168C951.652 182.264 954.004 181.368 956.972 181.368C960.836 181.368 962.796 183.272 962.796 185.904C962.796 188.312 960.78 190.496 956.692 190.496C953.108 190.496 949.468 189.208 946.892 186.8L941.74 193.24ZM975.519 179.352C975.519 189.208 980.615 198.672 991.535 198.672C1002.45 198.672 1007.55 189.208 1007.55 179.352C1007.55 169.496 1002.45 160.088 991.535 160.088C980.615 160.088 975.519 169.496 975.519 179.352ZM997.807 179.352C997.807 185.96 996.015 190.16 991.535 190.16C987.055 190.16 985.263 185.96 985.263 179.352C985.263 172.744 987.055 168.6 991.535 168.6C996.015 168.6 997.807 172.744 997.807 179.352ZM1010.3 169.496C1010.3 174.704 1014.1 178.792 1019.98 178.792C1025.98 178.792 1029.84 174.704 1029.84 169.496C1029.84 164.232 1025.98 160.088 1019.98 160.088C1014.1 160.088 1010.3 164.232 1010.3 169.496ZM1021.1 198L1045.02 160.648H1040.14L1016.29 198H1021.1ZM1023.85 169.496C1023.85 172.184 1022.17 173.64 1019.98 173.64C1017.86 173.64 1016.23 172.184 1016.23 169.496C1016.23 166.696 1017.86 165.24 1019.98 165.24C1022.17 165.24 1023.85 166.696 1023.85 169.496ZM1031.41 189.376C1031.41 194.584 1035.22 198.672 1041.1 198.672C1047.03 198.672 1050.9 194.584 1050.9 189.376C1050.9 184.112 1047.03 179.968 1041.1 179.968C1035.22 179.968 1031.41 184.112 1031.41 189.376ZM1044.96 189.376C1044.96 192.12 1043.28 193.52 1041.1 193.52C1038.91 193.52 1037.34 192.12 1037.34 189.376C1037.34 186.576 1038.91 185.12 1041.1 185.12C1043.28 185.12 1044.96 186.576 1044.96 189.376Z" fill="white"/>
<path d="M915.442 247.12C916.542 248.36 918.242 249.24 920.562 249.24C924.162 249.24 925.482 247.26 925.482 245.32C925.482 242.52 923.002 241.84 920.822 241.26C919.122 240.8 917.582 240.4 917.582 239.06C917.582 237.8 918.722 236.94 920.322 236.94C921.782 236.94 923.182 237.44 924.182 238.54L925.182 237.32C924.062 236.14 922.482 235.46 920.442 235.46C917.822 235.46 915.862 236.96 915.862 239.16C915.862 241.78 918.242 242.38 920.382 242.94C922.142 243.42 923.762 243.86 923.762 245.46C923.762 246.48 923.002 247.76 920.622 247.76C918.742 247.76 917.302 246.84 916.422 245.86L915.442 247.12ZM927.34 244.16C927.34 247.18 929.4 249.24 932.26 249.24C933.84 249.24 935.14 248.72 936.1 247.76L935.38 246.78C934.62 247.56 933.5 248 932.4 248C930.32 248 929.04 246.48 928.92 244.66H936.74V244.28C936.74 241.38 935.02 239.1 932.1 239.1C929.34 239.1 927.34 241.36 927.34 244.16ZM932.08 240.34C934.28 240.34 935.24 242.12 935.26 243.56H928.92C929 242.08 930.02 240.34 932.08 240.34ZM947.19 249V242.22C947.19 240.12 946.13 239.1 944.11 239.1C942.67 239.1 941.35 239.94 940.67 240.74V239.34H939.17V249H940.67V241.94C941.23 241.16 942.35 240.44 943.53 240.44C944.83 240.44 945.69 240.98 945.69 242.68V249H947.19ZM950.926 237.72C951.486 237.72 951.946 237.26 951.946 236.7C951.946 236.14 951.486 235.7 950.926 235.7C950.386 235.7 949.926 236.14 949.926 236.7C949.926 237.26 950.386 237.72 950.926 237.72ZM951.686 249V239.34H950.186V249H951.686ZM958.898 249.24C961.838 249.24 963.678 246.96 963.678 244.16C963.678 241.36 961.838 239.1 958.898 239.1C955.958 239.1 954.118 241.36 954.118 244.16C954.118 246.96 955.958 249.24 958.898 249.24ZM958.898 247.9C956.838 247.9 955.678 246.14 955.678 244.16C955.678 242.2 956.838 240.44 958.898 240.44C960.958 240.44 962.098 242.2 962.098 244.16C962.098 246.14 960.958 247.9 958.898 247.9ZM967.623 249V242.16C968.063 241.38 969.323 240.62 970.243 240.62C970.483 240.62 970.663 240.64 970.843 240.68V239.14C969.523 239.14 968.403 239.88 967.623 240.9V239.34H966.123V249H967.623ZM982.501 249C986.641 249 989.341 246.14 989.341 242.34C989.341 238.56 986.641 235.66 982.501 235.66H977.941V249H982.501ZM979.601 237.14H982.501C985.801 237.14 987.621 239.46 987.621 242.34C987.621 245.2 985.741 247.52 982.501 247.52H979.601V237.14ZM991.325 244.16C991.325 247.18 993.385 249.24 996.245 249.24C997.825 249.24 999.125 248.72 1000.08 247.76L999.365 246.78C998.605 247.56 997.485 248 996.385 248C994.305 248 993.025 246.48 992.905 244.66H1000.72V244.28C1000.72 241.38 999.005 239.1 996.085 239.1C993.325 239.1 991.325 241.36 991.325 244.16ZM996.065 240.34C998.265 240.34 999.225 242.12 999.245 243.56H992.905C992.985 242.08 994.005 240.34 996.065 240.34ZM1007.37 249L1011.39 239.34H1009.75L1006.55 247.26L1003.33 239.34H1001.71L1005.73 249H1007.37ZM1012.4 244.16C1012.4 247.18 1014.46 249.24 1017.32 249.24C1018.9 249.24 1020.2 248.72 1021.16 247.76L1020.44 246.78C1019.68 247.56 1018.56 248 1017.46 248C1015.38 248 1014.1 246.48 1013.98 244.66H1021.8V244.28C1021.8 241.38 1020.08 239.1 1017.16 239.1C1014.4 239.1 1012.4 241.36 1012.4 244.16ZM1017.14 240.34C1019.34 240.34 1020.3 242.12 1020.32 243.56H1013.98C1014.06 242.08 1015.08 240.34 1017.14 240.34ZM1025.73 249V235.66H1024.23V249H1025.73ZM1032.94 249.24C1035.88 249.24 1037.72 246.96 1037.72 244.16C1037.72 241.36 1035.88 239.1 1032.94 239.1C1030 239.1 1028.16 241.36 1028.16 244.16C1028.16 246.96 1030 249.24 1032.94 249.24ZM1032.94 247.9C1030.88 247.9 1029.72 246.14 1029.72 244.16C1029.72 242.2 1030.88 240.44 1032.94 240.44C1035 240.44 1036.14 242.2 1036.14 244.16C1036.14 246.14 1035 247.9 1032.94 247.9ZM1041.67 247.54C1042.45 248.62 1043.61 249.24 1044.93 249.24C1047.47 249.24 1049.23 247.28 1049.23 244.16C1049.23 241.02 1047.47 239.1 1044.93 239.1C1043.57 239.1 1042.37 239.8 1041.67 240.78V239.34H1040.17V252.68H1041.67V247.54ZM1047.65 244.16C1047.65 246.3 1046.49 247.9 1044.55 247.9C1043.37 247.9 1042.19 247.18 1041.67 246.34V241.98C1042.19 241.14 1043.37 240.44 1044.55 240.44C1046.49 240.44 1047.65 242.02 1047.65 244.16ZM1051.09 244.16C1051.09 247.18 1053.15 249.24 1056.01 249.24C1057.59 249.24 1058.89 248.72 1059.85 247.76L1059.13 246.78C1058.37 247.56 1057.25 248 1056.15 248C1054.07 248 1052.79 246.48 1052.67 244.66H1060.49V244.28C1060.49 241.38 1058.77 239.1 1055.85 239.1C1053.09 239.1 1051.09 241.36 1051.09 244.16ZM1055.83 240.34C1058.03 240.34 1058.99 242.12 1059.01 243.56H1052.67C1052.75 242.08 1053.77 240.34 1055.83 240.34ZM1064.42 249V242.16C1064.86 241.38 1066.12 240.62 1067.04 240.62C1067.28 240.62 1067.46 240.64 1067.64 240.68V239.14C1066.32 239.14 1065.2 239.88 1064.42 240.9V239.34H1062.92V249H1064.42ZM1068.68 247.72C1069.66 248.76 1071 249.24 1072.58 249.24C1075.08 249.24 1076.38 247.94 1076.38 246.32C1076.38 244.18 1074.44 243.7 1072.76 243.32C1071.5 243.02 1070.4 242.72 1070.4 241.78C1070.4 240.92 1071.22 240.32 1072.54 240.32C1073.78 240.32 1074.84 240.84 1075.42 241.54L1076.12 240.5C1075.34 239.72 1074.18 239.1 1072.54 239.1C1070.24 239.1 1068.94 240.38 1068.94 241.88C1068.94 243.88 1070.8 244.32 1072.44 244.7C1073.74 245.02 1074.92 245.36 1074.92 246.42C1074.92 247.36 1074.12 248.02 1072.64 248.02C1071.32 248.02 1070.1 247.38 1069.46 246.64L1068.68 247.72Z" fill="white"/>
</svg>
