<svg width="1225" height="843" viewBox="0 0 1225 843" fill="none" xmlns="http://www.w3.org/2000/svg">
<path d="M425 216C425 242.264 419.827 268.272 409.776 292.537C399.725 316.802 384.993 338.85 366.421 357.421C347.85 375.993 325.802 390.725 301.537 400.776C277.272 410.827 251.264 416 225 416C198.736 416 172.728 410.827 148.463 400.776C124.198 390.725 102.15 375.993 83.5786 357.421C65.0069 338.85 50.275 316.802 40.2241 292.537C30.1731 268.272 25 242.264 25 216H27C27 242.002 32.1214 267.749 42.0718 291.771C52.0223 315.794 66.6068 337.621 84.9928 356.007C103.379 374.393 125.206 388.978 149.229 398.928C173.251 408.879 198.998 414 225 414C251.002 414 276.749 408.879 300.771 398.928C324.794 388.978 346.621 374.393 365.007 356.007C383.393 337.621 397.978 315.794 407.928 291.771C417.879 267.749 423 242.002 423 216H425Z" fill="white"/>
<path opacity="0.2" d="M53.341 113.369C77.5855 72.8179 115.403 42.1593 160.091 26.8259C204.779 11.4926 253.453 12.4746 297.487 29.598C341.52 46.7214 378.07 78.8805 400.659 120.376C423.248 161.872 430.418 210.025 420.897 256.301C411.377 302.578 385.782 343.99 348.647 373.199C311.512 402.408 265.236 417.527 218.019 415.878C170.802 414.229 125.693 395.918 90.6867 364.189C55.6803 332.46 33.0365 289.363 26.7681 242.535L28.7504 242.27C34.9561 288.63 57.3735 331.296 92.0298 362.707C126.686 394.118 171.344 412.247 218.089 413.879C264.833 415.512 310.647 400.544 347.41 371.627C384.174 342.71 409.513 301.712 418.938 255.898C428.364 210.084 421.266 162.413 398.902 121.332C376.539 80.2517 340.355 48.4142 296.762 31.462C253.169 14.5099 204.982 13.5377 160.74 28.7177C116.499 43.8977 79.0596 74.2497 55.0576 114.395L53.341 113.369Z" fill="white"/>
<path d="M53.341 113.369C70.988 83.8526 95.9477 59.3855 125.81 42.3301C155.671 25.2747 189.426 16.2073 223.815 16.0035L223.827 18.0035C189.782 18.2052 156.365 27.1819 126.801 44.0668C97.2382 60.9516 72.5282 85.1741 55.0576 114.395L53.341 113.369Z" fill="white"/>
<path opacity="0.2" d="M1221 216C1221 171.906 1206.43 129.048 1179.55 94.0922C1152.67 59.1364 1115 34.0425 1072.38 22.7137C1029.77 11.3849 984.608 14.4562 943.92 31.45C903.232 48.4438 869.301 78.4074 847.404 116.68C825.507 154.953 816.872 199.389 822.841 243.077C828.811 286.765 849.051 327.256 880.413 358.251C911.775 389.246 952.501 409.008 996.256 414.463C1040.01 419.919 1084.34 410.761 1122.36 388.415L1121.34 386.691C1083.71 408.814 1039.82 417.88 996.504 412.479C953.186 407.078 912.867 387.514 881.819 356.828C850.77 326.143 830.733 286.057 824.823 242.806C818.913 199.555 827.462 155.563 849.14 117.673C870.818 79.7833 904.41 50.1194 944.691 33.2955C984.972 16.4717 1029.68 13.431 1071.87 24.6466C1114.06 35.8621 1151.36 60.7051 1177.97 95.3113C1204.57 129.918 1219 172.347 1219 216H1221Z" fill="white"/>
<path opacity="0.2" d="M625.903 566.244C624.41 614.021 605.856 659.683 573.6 694.96C541.345 730.236 497.521 752.794 450.069 758.546L449.828 756.561C496.806 750.866 540.191 728.534 572.124 693.61C604.057 658.686 622.426 613.481 623.903 566.182L625.903 566.244Z" fill="white"/>
<path opacity="0.2" d="M843.649 759.012C810.599 762.274 777.256 757.255 746.63 744.406C716.005 731.558 689.061 711.285 668.231 685.418C647.401 659.551 633.341 628.904 627.319 596.243C621.297 563.582 623.504 529.936 633.739 498.341C643.975 466.746 661.917 438.198 685.946 415.272C709.976 392.347 739.336 375.767 771.377 367.028C803.418 358.289 837.131 357.666 869.473 365.217C901.815 372.767 931.767 388.253 956.626 410.275L955.3 411.772C930.689 389.97 901.037 374.639 869.018 367.164C837 359.689 803.624 360.305 771.904 368.957C740.183 377.609 711.116 394.023 687.327 416.719C663.538 439.416 645.775 467.679 635.642 498.958C625.509 530.236 623.324 563.546 629.286 595.881C635.248 628.215 649.167 658.555 669.789 684.164C690.411 709.772 717.085 729.842 747.404 742.562C777.723 755.282 810.733 760.252 843.453 757.022L843.649 759.012Z" fill="white"/>
<path opacity="0.2" d="M940.17 397.174C966.66 416.075 988.137 441.154 1002.74 470.236C1017.34 499.318 1024.63 531.524 1023.96 564.059L1021.96 564.018C1022.62 531.808 1015.41 499.925 1000.95 471.134C986.496 442.343 965.233 417.514 939.008 398.802L940.17 397.174Z" fill="white"/>
<path d="M370.896 552.792C373.808 556.152 379.184 558.672 386.352 558.672C395.648 558.672 401.808 554.136 401.808 547.584C401.808 542.208 396.992 539.128 393.016 538.736C397.44 538.008 401.192 534.704 401.192 530.336C401.192 524.176 395.872 520.088 386.352 520.088C379.464 520.088 374.536 522.608 371.4 526.136L375.936 532.016C378.568 529.72 381.928 528.32 385.344 528.32C388.928 528.32 391.616 529.552 391.616 531.904C391.616 533.976 389.432 535.096 385.568 535.096C384.168 535.096 381.256 535.096 380.528 535.04V543.328C381.088 543.272 383.944 543.216 385.568 543.216C390.664 543.216 392.232 544.448 392.232 546.632C392.232 548.816 390.104 550.496 385.96 550.496C382.712 550.496 378.456 549.096 375.768 546.464L370.896 552.792ZM405.144 539.352C405.144 549.208 410.24 558.672 421.16 558.672C432.08 558.672 437.176 549.208 437.176 539.352C437.176 529.496 432.08 520.088 421.16 520.088C410.24 520.088 405.144 529.496 405.144 539.352ZM427.432 539.352C427.432 545.96 425.64 550.16 421.16 550.16C416.68 550.16 414.888 545.96 414.888 539.352C414.888 532.744 416.68 528.6 421.16 528.6C425.64 528.6 427.432 532.744 427.432 539.352ZM439.921 529.496C439.921 534.704 443.729 538.792 449.609 538.792C455.601 538.792 459.465 534.704 459.465 529.496C459.465 524.232 455.601 520.088 449.609 520.088C443.729 520.088 439.921 524.232 439.921 529.496ZM450.729 558L474.641 520.648H469.769L445.913 558H450.729ZM453.473 529.496C453.473 532.184 451.793 533.64 449.609 533.64C447.481 533.64 445.857 532.184 445.857 529.496C445.857 526.696 447.481 525.24 449.609 525.24C451.793 525.24 453.473 526.696 453.473 529.496ZM461.033 549.376C461.033 554.584 464.841 558.672 470.721 558.672C476.657 558.672 480.521 554.584 480.521 549.376C480.521 544.112 476.657 539.968 470.721 539.968C464.841 539.968 461.033 544.112 461.033 549.376ZM474.585 549.376C474.585 552.12 472.905 553.52 470.721 553.52C468.537 553.52 466.969 552.12 466.969 549.376C466.969 546.576 468.537 545.12 470.721 545.12C472.905 545.12 474.585 546.576 474.585 549.376Z" fill="white"/>
<path d="M410.903 609V595.66H408.523L404.363 605.82L400.223 595.66H397.843V609H399.503V597.9L404.023 609H404.703L409.243 597.9V609H410.903ZM414.695 597.72C415.255 597.72 415.715 597.26 415.715 596.7C415.715 596.14 415.255 595.7 414.695 595.7C414.155 595.7 413.695 596.14 413.695 596.7C413.695 597.26 414.155 597.72 414.695 597.72ZM415.455 609V599.34H413.955V609H415.455ZM426.947 609V595.66H425.447V600.8C424.667 599.74 423.487 599.1 422.187 599.1C419.647 599.1 417.887 601.1 417.887 604.18C417.887 607.32 419.667 609.24 422.187 609.24C423.547 609.24 424.727 608.54 425.447 607.56V609H426.947ZM425.447 606.38C424.907 607.22 423.747 607.9 422.547 607.9C420.607 607.9 419.447 606.32 419.447 604.18C419.447 602.04 420.607 600.44 422.547 600.44C423.747 600.44 424.907 601.16 425.447 602V606.38ZM438.451 609V595.66H436.951V600.8C436.171 599.74 434.991 599.1 433.691 599.1C431.151 599.1 429.391 601.1 429.391 604.18C429.391 607.32 431.171 609.24 433.691 609.24C435.051 609.24 436.231 608.54 436.951 607.56V609H438.451ZM436.951 606.38C436.411 607.22 435.251 607.9 434.051 607.9C432.111 607.9 430.951 606.32 430.951 604.18C430.951 602.04 432.111 600.44 434.051 600.44C435.251 600.44 436.411 601.16 436.951 602V606.38ZM442.955 609V595.66H441.455V609H442.955ZM445.387 604.16C445.387 607.18 447.447 609.24 450.307 609.24C451.887 609.24 453.187 608.72 454.147 607.76L453.427 606.78C452.667 607.56 451.547 608 450.447 608C448.367 608 447.087 606.48 446.967 604.66H454.787V604.28C454.787 601.38 453.067 599.1 450.147 599.1C447.387 599.1 445.387 601.36 445.387 604.16ZM450.127 600.34C452.327 600.34 453.287 602.12 453.307 603.56H446.967C447.047 602.08 448.067 600.34 450.127 600.34Z" fill="white"/>
<path d="M794.172 558V520.648H785.828L772.78 533.528L778.268 539.296L784.54 532.968V558H794.172ZM799.787 553.24C803.259 556.656 808.243 558.672 814.851 558.672C824.539 558.672 830.643 553.576 830.643 545.512C830.643 538.008 824.987 533.416 818.603 533.416C815.299 533.416 812.387 534.648 810.259 536.44V528.768H828.067V520.648H800.963V542.544L807.627 544.168C809.699 542.264 812.051 541.368 815.019 541.368C818.883 541.368 820.843 543.272 820.843 545.904C820.843 548.312 818.827 550.496 814.739 550.496C811.155 550.496 807.515 549.208 804.939 546.8L799.787 553.24ZM833.397 529.496C833.397 534.704 837.205 538.792 843.085 538.792C849.077 538.792 852.941 534.704 852.941 529.496C852.941 524.232 849.077 520.088 843.085 520.088C837.205 520.088 833.397 524.232 833.397 529.496ZM844.205 558L868.117 520.648H863.245L839.389 558H844.205ZM846.949 529.496C846.949 532.184 845.269 533.64 843.085 533.64C840.957 533.64 839.333 532.184 839.333 529.496C839.333 526.696 840.957 525.24 843.085 525.24C845.269 525.24 846.949 526.696 846.949 529.496ZM854.509 549.376C854.509 554.584 858.317 558.672 864.197 558.672C870.133 558.672 873.997 554.584 873.997 549.376C873.997 544.112 870.133 539.968 864.197 539.968C858.317 539.968 854.509 544.112 854.509 549.376ZM868.061 549.376C868.061 552.12 866.381 553.52 864.197 553.52C862.013 553.52 860.445 552.12 860.445 549.376C860.445 546.576 862.013 545.12 864.197 545.12C866.381 545.12 868.061 546.576 868.061 549.376Z" fill="white"/>
<path d="M792.54 607.7C793.46 608.78 794.6 609.24 796.02 609.24C798.4 609.24 800.26 607.88 800.26 604.98V595.66H798.6V604.96C798.6 606.62 797.56 607.76 795.92 607.76C794.76 607.76 793.98 607.14 793.4 606.44L792.54 607.7ZM811.333 609V599.34H809.833V606.44C809.273 607.22 808.153 607.9 806.973 607.9C805.673 607.9 804.813 607.4 804.813 605.7V599.34H803.313V606.16C803.313 608.26 804.373 609.24 806.393 609.24C807.833 609.24 809.093 608.48 809.833 607.64V609H811.333ZM822.348 609V602.22C822.348 600.12 821.288 599.1 819.268 599.1C817.828 599.1 816.508 599.94 815.828 600.74V599.34H814.328V609H815.828V601.94C816.388 601.16 817.508 600.44 818.688 600.44C819.988 600.44 820.848 600.98 820.848 602.68V609H822.348ZM826.084 597.72C826.644 597.72 827.104 597.26 827.104 596.7C827.104 596.14 826.644 595.7 826.084 595.7C825.544 595.7 825.084 596.14 825.084 596.7C825.084 597.26 825.544 597.72 826.084 597.72ZM826.844 609V599.34H825.344V609H826.844ZM834.056 609.24C836.996 609.24 838.836 606.96 838.836 604.16C838.836 601.36 836.996 599.1 834.056 599.1C831.116 599.1 829.276 601.36 829.276 604.16C829.276 606.96 831.116 609.24 834.056 609.24ZM834.056 607.9C831.996 607.9 830.836 606.14 830.836 604.16C830.836 602.2 831.996 600.44 834.056 600.44C836.116 600.44 837.256 602.2 837.256 604.16C837.256 606.14 836.116 607.9 834.056 607.9ZM842.781 609V602.16C843.221 601.38 844.481 600.62 845.401 600.62C845.641 600.62 845.821 600.64 846.001 600.68V599.14C844.681 599.14 843.561 599.88 842.781 600.9V599.34H841.281V609H842.781ZM847.043 607.72C848.023 608.76 849.363 609.24 850.943 609.24C853.443 609.24 854.743 607.94 854.743 606.32C854.743 604.18 852.803 603.7 851.123 603.32C849.863 603.02 848.763 602.72 848.763 601.78C848.763 600.92 849.583 600.32 850.903 600.32C852.143 600.32 853.203 600.84 853.783 601.54L854.483 600.5C853.703 599.72 852.543 599.1 850.903 599.1C848.603 599.1 847.303 600.38 847.303 601.88C847.303 603.88 849.163 604.32 850.803 604.7C852.103 605.02 853.283 605.36 853.283 606.42C853.283 607.36 852.483 608.02 851.003 608.02C849.683 608.02 848.463 607.38 847.823 606.64L847.043 607.72Z" fill="white"/>
<path opacity="0.2" d="M612.225 16.2905C659.652 13.7316 706.442 28.1348 744.22 56.9222C781.998 85.7096 808.298 127.002 818.412 173.409C828.527 219.815 821.796 268.307 799.424 310.204C777.053 352.102 740.5 384.67 696.31 402.08C652.12 419.489 603.176 420.604 558.239 405.225C513.302 389.845 475.304 358.975 451.048 318.14C426.792 277.305 417.86 229.17 425.851 182.351C433.842 135.532 458.235 93.0845 494.662 62.6068L495.946 64.1407C459.882 94.3136 435.734 136.336 427.823 182.687C419.911 229.038 428.754 276.691 452.768 317.118C476.781 357.545 514.398 388.107 558.886 403.332C603.374 418.558 651.829 417.454 695.577 400.219C739.325 382.983 775.512 350.741 797.66 309.262C819.808 267.784 826.472 219.777 816.458 173.835C806.445 127.892 780.408 87.0125 743.008 58.513C705.608 30.0135 659.286 15.7543 612.333 18.2876L612.225 16.2905Z" fill="white"/>
<path d="M423 216C423 185.529 429.962 155.462 443.355 128.092C456.748 100.723 476.218 76.7757 500.277 58.0786L501.505 59.6578C477.685 78.168 458.411 101.876 445.152 128.972C431.893 156.067 425 185.834 425 216H423Z" fill="white"/>
<path d="M611.372 16.3383C638.556 14.7552 665.777 18.7397 691.367 28.0478C716.956 37.3559 740.376 51.7914 760.189 70.4697C780.003 89.1481 795.794 111.676 806.595 136.672C817.395 161.668 822.978 188.607 823 215.837L821 215.839C820.978 188.881 815.451 162.212 804.759 137.465C794.066 112.719 778.433 90.4166 758.818 71.925C739.202 53.4335 716.017 39.1423 690.683 29.9273C665.349 20.7123 638.4 16.7676 611.488 18.3349L611.372 16.3383Z" fill="white"/>
<path d="M279.194 695.823C256.857 671.681 240.82 642.402 232.502 610.581C224.184 578.76 223.842 545.379 231.506 513.394C239.17 481.41 254.605 451.809 276.441 427.214C298.278 402.619 325.844 383.789 356.696 372.391C387.549 360.994 420.736 357.382 453.318 361.874C485.899 366.367 516.871 378.825 543.488 398.146C570.105 417.467 591.546 443.054 605.912 472.641C620.278 502.228 627.126 534.901 625.849 567.766L623.851 567.689C625.115 535.152 618.336 502.805 604.113 473.515C589.89 444.224 568.664 418.892 542.313 399.765C515.962 380.637 485.3 368.303 453.044 363.856C420.788 359.408 387.933 362.984 357.389 374.268C326.845 385.551 299.555 404.192 277.937 428.541C256.318 452.891 241.039 482.195 233.451 513.86C225.863 545.525 226.202 578.573 234.437 610.075C242.672 641.578 258.549 670.564 280.662 694.465L279.194 695.823Z" fill="white"/>
<path d="M457.827 757.451C421.887 763.245 385.047 759.118 351.279 745.517L352.026 743.662C385.456 757.127 421.928 761.212 457.509 755.477L457.827 757.451Z" fill="white"/>
<path d="M1162.42 357.421C1134.39 385.449 1098.67 404.517 1059.78 412.203C1020.9 419.89 980.607 415.849 944.023 400.593C907.439 385.337 876.214 359.555 854.31 326.519C832.407 293.483 820.813 254.684 821.002 215.047L823.002 215.057C822.815 254.297 834.293 292.709 855.977 325.414C877.661 358.119 908.575 383.644 944.793 398.747C981.011 413.85 1020.9 417.851 1059.4 410.241C1097.89 402.632 1133.26 383.755 1161.01 356.007L1162.42 357.421Z" fill="white"/>
<path d="M938.51 396.026C966.205 415.367 988.55 441.407 1003.46 471.717C1018.37 502.028 1025.36 535.621 1023.78 569.364L1021.78 569.27C1023.35 535.865 1016.43 502.608 1001.67 472.6C986.905 442.593 964.783 416.813 937.365 397.666L938.51 396.026Z" fill="white"/>
<path d="M989.449 672.368C965.715 707.314 931.524 733.848 891.78 748.165C852.035 762.481 808.778 763.845 768.21 752.061C727.643 740.277 691.848 715.95 665.959 682.569C640.07 649.187 625.416 608.465 624.097 566.241L626.096 566.179C627.402 607.98 641.909 648.295 667.54 681.343C693.17 714.391 728.606 738.474 768.768 750.141C808.93 761.807 851.755 760.456 891.102 746.283C930.449 732.11 964.297 705.841 987.795 671.244L989.449 672.368Z" fill="white"/>
<path d="M925.657 40.1885C960.5 21.2927 1000.17 13.1765 1039.64 16.8703C1079.1 20.5641 1116.58 35.9012 1147.31 60.9346C1178.04 85.968 1200.64 119.569 1212.24 157.471C1223.84 195.373 1223.92 235.867 1212.46 273.812L1210.55 273.234C1221.89 235.668 1221.82 195.579 1210.33 158.056C1198.85 120.533 1176.47 87.2683 1146.05 62.4853C1115.62 37.7022 1078.52 22.5184 1039.45 18.8616C1000.38 15.2048 961.105 23.2398 926.61 41.9466L925.657 40.1885Z" fill="white"/>
<path d="M172.248 211.032C175.048 213.272 179.192 214.616 183.56 214.616C194.872 214.616 202.04 207.168 202.04 195.296C202.04 184.544 196.888 176.032 185.072 176.032C176.392 176.032 170.176 181.464 170.176 189.136C170.176 197.088 176.448 201.288 183.168 201.288C186.92 201.288 190.448 199.44 192.296 196.976V197.424C192.296 202.52 188.712 206.44 183.56 206.44C180.536 206.44 178.464 205.656 176.392 203.976L172.248 211.032ZM192.296 190.872C190.672 192.496 188.376 193.392 186.024 193.392C183 193.392 179.976 192.048 179.976 188.688C179.976 186.504 181.936 184.208 185.52 184.208C190.224 184.208 192.072 187.792 192.296 190.872ZM235.315 214V205.6H220.923C230.947 199.104 235.035 194.232 235.035 188.52C235.035 181.016 228.707 176.088 219.915 176.088C214.707 176.088 208.771 177.936 204.795 182.304L210.115 188.688C212.803 186.168 215.939 184.6 219.915 184.6C222.827 184.6 225.235 185.944 225.235 188.52C225.235 192.216 222.211 194.792 206.027 206.496V214H235.315ZM238.866 185.496C238.866 190.704 242.674 194.792 248.554 194.792C254.546 194.792 258.41 190.704 258.41 185.496C258.41 180.232 254.546 176.088 248.554 176.088C242.674 176.088 238.866 180.232 238.866 185.496ZM249.674 214L273.586 176.648H268.714L244.858 214H249.674ZM252.418 185.496C252.418 188.184 250.738 189.64 248.554 189.64C246.426 189.64 244.802 188.184 244.802 185.496C244.802 182.696 246.426 181.24 248.554 181.24C250.738 181.24 252.418 182.696 252.418 185.496ZM259.978 205.376C259.978 210.584 263.786 214.672 269.666 214.672C275.602 214.672 279.466 210.584 279.466 205.376C279.466 200.112 275.602 195.968 269.666 195.968C263.786 195.968 259.978 200.112 259.978 205.376ZM273.53 205.376C273.53 208.12 271.85 209.52 269.666 209.52C267.482 209.52 265.914 208.12 265.914 205.376C265.914 202.576 267.482 201.12 269.666 201.12C271.85 201.12 273.53 202.576 273.53 205.376Z" fill="white"/>
<path d="M205.089 265V251.66H202.709L198.549 261.82L194.409 251.66H192.029V265H193.689V253.9L198.209 265H198.889L203.429 253.9V265H205.089ZM215.681 265V258.36C215.681 256.02 213.981 255.1 211.941 255.1C210.361 255.1 209.121 255.62 208.081 256.7L208.781 257.74C209.641 256.82 210.581 256.4 211.741 256.4C213.141 256.4 214.181 257.14 214.181 258.44V260.18C213.401 259.28 212.301 258.86 210.981 258.86C209.341 258.86 207.601 259.88 207.601 262.04C207.601 264.14 209.341 265.24 210.981 265.24C212.281 265.24 213.381 264.78 214.181 263.9V265H215.681ZM214.181 262.96C213.601 263.76 212.581 264.16 211.521 264.16C210.121 264.16 209.141 263.28 209.141 262.06C209.141 260.82 210.121 259.94 211.521 259.94C212.581 259.94 213.601 260.34 214.181 261.14V262.96ZM217.847 263.72C218.828 264.76 220.168 265.24 221.748 265.24C224.248 265.24 225.548 263.94 225.548 262.32C225.548 260.18 223.608 259.7 221.928 259.32C220.668 259.02 219.568 258.72 219.568 257.78C219.568 256.92 220.388 256.32 221.708 256.32C222.948 256.32 224.008 256.84 224.588 257.54L225.288 256.5C224.508 255.72 223.348 255.1 221.708 255.1C219.408 255.1 218.108 256.38 218.108 257.88C218.108 259.88 219.968 260.32 221.608 260.7C222.908 261.02 224.088 261.36 224.088 262.42C224.088 263.36 223.288 264.02 221.808 264.02C220.488 264.02 219.268 263.38 218.628 262.64L217.847 263.72ZM230.424 265.24C231.304 265.24 231.844 264.98 232.224 264.62L231.784 263.5C231.584 263.72 231.184 263.9 230.764 263.9C230.104 263.9 229.784 263.38 229.784 262.66V256.66H231.744V255.34H229.784V252.7H228.284V255.34H226.684V256.66H228.284V262.98C228.284 264.42 229.004 265.24 230.424 265.24ZM233.303 260.16C233.303 263.18 235.363 265.24 238.223 265.24C239.803 265.24 241.103 264.72 242.063 263.76L241.343 262.78C240.583 263.56 239.463 264 238.363 264C236.283 264 235.003 262.48 234.883 260.66H242.703V260.28C242.703 257.38 240.983 255.1 238.063 255.1C235.303 255.1 233.303 257.36 233.303 260.16ZM238.043 256.34C240.243 256.34 241.203 258.12 241.223 259.56H234.883C234.963 258.08 235.983 256.34 238.043 256.34ZM246.633 265V258.16C247.073 257.38 248.333 256.62 249.253 256.62C249.493 256.62 249.673 256.64 249.853 256.68V255.14C248.533 255.14 247.413 255.88 246.633 256.9V255.34H245.133V265H246.633ZM250.894 263.72C251.874 264.76 253.214 265.24 254.794 265.24C257.294 265.24 258.594 263.94 258.594 262.32C258.594 260.18 256.654 259.7 254.974 259.32C253.714 259.02 252.614 258.72 252.614 257.78C252.614 256.92 253.434 256.32 254.754 256.32C255.994 256.32 257.054 256.84 257.634 257.54L258.334 256.5C257.554 255.72 256.394 255.1 254.754 255.1C252.454 255.1 251.154 256.38 251.154 257.88C251.154 259.88 253.014 260.32 254.654 260.7C255.954 261.02 257.134 261.36 257.134 262.42C257.134 263.36 256.334 264.02 254.854 264.02C253.534 264.02 252.314 263.38 251.674 262.64L250.894 263.72Z" fill="white"/>
<path d="M595.284 214V207.168H599.82V198.712H595.284V176.648H581.9L567.732 199.664V207.168H585.596V214H595.284ZM585.596 198.712H577.084L585.596 185.048V198.712ZM603.248 209.24C606.72 212.656 611.704 214.672 618.312 214.672C628 214.672 634.104 209.576 634.104 201.512C634.104 194.008 628.448 189.416 622.064 189.416C618.76 189.416 615.848 190.648 613.72 192.44V184.768H631.528V176.648H604.424V198.544L611.088 200.168C613.16 198.264 615.512 197.368 618.48 197.368C622.344 197.368 624.304 199.272 624.304 201.904C624.304 204.312 622.288 206.496 618.2 206.496C614.616 206.496 610.976 205.208 608.4 202.8L603.248 209.24ZM636.858 185.496C636.858 190.704 640.666 194.792 646.546 194.792C652.538 194.792 656.402 190.704 656.402 185.496C656.402 180.232 652.538 176.088 646.546 176.088C640.666 176.088 636.858 180.232 636.858 185.496ZM647.666 214L671.578 176.648H666.706L642.85 214H647.666ZM650.41 185.496C650.41 188.184 648.73 189.64 646.546 189.64C644.418 189.64 642.794 188.184 642.794 185.496C642.794 182.696 644.418 181.24 646.546 181.24C648.73 181.24 650.41 182.696 650.41 185.496ZM657.97 205.376C657.97 210.584 661.778 214.672 667.658 214.672C673.594 214.672 677.458 210.584 677.458 205.376C677.458 200.112 673.594 195.968 667.658 195.968C661.778 195.968 657.97 200.112 657.97 205.376ZM671.522 205.376C671.522 208.12 669.842 209.52 667.658 209.52C665.474 209.52 663.906 208.12 663.906 205.376C663.906 202.576 665.474 201.12 667.658 201.12C669.842 201.12 671.522 202.576 671.522 205.376Z" fill="white"/>
<path d="M587.056 265C589.496 265 590.916 263.54 590.916 261.4C590.916 259.8 589.736 258.34 588.316 258.12C589.536 257.86 590.656 256.74 590.656 255.06C590.656 253.06 589.236 251.66 586.916 251.66H580.976V265H587.056ZM582.636 253.14H586.636C588.136 253.14 588.936 254.1 588.936 255.3C588.936 256.52 588.136 257.44 586.636 257.44H582.636V253.14ZM582.636 258.92H586.716C588.356 258.92 589.196 260 589.196 261.22C589.196 262.64 588.276 263.52 586.716 263.52H582.636V258.92ZM601.034 265V258.36C601.034 256.02 599.334 255.1 597.294 255.1C595.714 255.1 594.474 255.62 593.434 256.7L594.134 257.74C594.994 256.82 595.934 256.4 597.094 256.4C598.494 256.4 599.534 257.14 599.534 258.44V260.18C598.754 259.28 597.654 258.86 596.334 258.86C594.694 258.86 592.954 259.88 592.954 262.04C592.954 264.14 594.694 265.24 596.334 265.24C597.634 265.24 598.734 264.78 599.534 263.9V265H601.034ZM599.534 262.96C598.954 263.76 597.934 264.16 596.874 264.16C595.474 264.16 594.494 263.28 594.494 262.06C594.494 260.82 595.474 259.94 596.874 259.94C597.934 259.94 598.954 260.34 599.534 261.14V262.96ZM603.481 260.16C603.481 263.04 605.421 265.24 608.301 265.24C610.061 265.24 611.101 264.52 611.841 263.56L610.841 262.64C610.201 263.5 609.381 263.9 608.381 263.9C606.321 263.9 605.041 262.3 605.041 260.16C605.041 258.02 606.321 256.44 608.381 256.44C609.381 256.44 610.201 256.82 610.841 257.7L611.841 256.78C611.101 255.82 610.061 255.1 608.301 255.1C605.421 255.1 603.481 257.3 603.481 260.16ZM621.983 265V258.18C621.983 256.08 620.923 255.1 618.903 255.1C617.443 255.1 616.123 255.94 615.443 256.74V251.66H613.943V265H615.443V257.94C616.023 257.16 617.143 256.44 618.303 256.44C619.603 256.44 620.483 256.94 620.483 258.64V265H621.983ZM624.419 260.16C624.419 263.18 626.479 265.24 629.339 265.24C630.919 265.24 632.219 264.72 633.179 263.76L632.459 262.78C631.699 263.56 630.579 264 629.479 264C627.399 264 626.119 262.48 625.999 260.66H633.819V260.28C633.819 257.38 632.099 255.1 629.179 255.1C626.419 255.1 624.419 257.36 624.419 260.16ZM629.159 256.34C631.359 256.34 632.319 258.12 632.339 259.56H625.999C626.079 258.08 627.099 256.34 629.159 256.34ZM637.748 265V251.66H636.248V265H637.748ZM644.96 265.24C647.9 265.24 649.74 262.96 649.74 260.16C649.74 257.36 647.9 255.1 644.96 255.1C642.02 255.1 640.18 257.36 640.18 260.16C640.18 262.96 642.02 265.24 644.96 265.24ZM644.96 263.9C642.9 263.9 641.74 262.14 641.74 260.16C641.74 258.2 642.9 256.44 644.96 256.44C647.02 256.44 648.16 258.2 648.16 260.16C648.16 262.14 647.02 263.9 644.96 263.9ZM653.686 265V258.16C654.126 257.38 655.386 256.62 656.306 256.62C656.546 256.62 656.726 256.64 656.906 256.68V255.14C655.586 255.14 654.466 255.88 653.686 256.9V255.34H652.186V265H653.686ZM657.947 263.72C658.927 264.76 660.267 265.24 661.847 265.24C664.347 265.24 665.647 263.94 665.647 262.32C665.647 260.18 663.707 259.7 662.027 259.32C660.767 259.02 659.667 258.72 659.667 257.78C659.667 256.92 660.487 256.32 661.807 256.32C663.047 256.32 664.107 256.84 664.687 257.54L665.387 256.5C664.607 255.72 663.447 255.1 661.807 255.1C659.507 255.1 658.207 256.38 658.207 257.88C658.207 259.88 660.067 260.32 661.707 260.7C663.007 261.02 664.187 261.36 664.187 262.42C664.187 263.36 663.387 264.02 661.907 264.02C660.587 264.02 659.367 263.38 658.727 262.64L657.947 263.72Z" fill="white"/>
<path d="M967.24 209.24C970.712 212.656 975.696 214.672 982.304 214.672C991.992 214.672 998.096 209.576 998.096 201.512C998.096 194.008 992.44 189.416 986.056 189.416C982.752 189.416 979.84 190.648 977.712 192.44V184.768H995.52V176.648H968.416V198.544L975.08 200.168C977.152 198.264 979.504 197.368 982.472 197.368C986.336 197.368 988.296 199.272 988.296 201.904C988.296 204.312 986.28 206.496 982.192 206.496C978.608 206.496 974.968 205.208 972.392 202.8L967.24 209.24ZM1031.31 214V205.6H1016.92C1026.95 199.104 1031.03 194.232 1031.03 188.52C1031.03 181.016 1024.71 176.088 1015.91 176.088C1010.71 176.088 1004.77 177.936 1000.79 182.304L1006.11 188.688C1008.8 186.168 1011.94 184.6 1015.91 184.6C1018.83 184.6 1021.23 185.944 1021.23 188.52C1021.23 192.216 1018.21 194.792 1002.03 206.496V214H1031.31ZM1034.87 185.496C1034.87 190.704 1038.67 194.792 1044.55 194.792C1050.55 194.792 1054.41 190.704 1054.41 185.496C1054.41 180.232 1050.55 176.088 1044.55 176.088C1038.67 176.088 1034.87 180.232 1034.87 185.496ZM1045.67 214L1069.59 176.648H1064.71L1040.86 214H1045.67ZM1048.42 185.496C1048.42 188.184 1046.74 189.64 1044.55 189.64C1042.43 189.64 1040.8 188.184 1040.8 185.496C1040.8 182.696 1042.43 181.24 1044.55 181.24C1046.74 181.24 1048.42 182.696 1048.42 185.496ZM1055.98 205.376C1055.98 210.584 1059.79 214.672 1065.67 214.672C1071.6 214.672 1075.47 210.584 1075.47 205.376C1075.47 200.112 1071.6 195.968 1065.67 195.968C1059.79 195.968 1055.98 200.112 1055.98 205.376ZM1069.53 205.376C1069.53 208.12 1067.85 209.52 1065.67 209.52C1063.48 209.52 1061.91 208.12 1061.91 205.376C1061.91 202.576 1063.48 201.12 1065.67 201.12C1067.85 201.12 1069.53 202.576 1069.53 205.376Z" fill="white"/>
<path d="M988.84 263.12C989.94 264.36 991.64 265.24 993.96 265.24C997.56 265.24 998.88 263.26 998.88 261.32C998.88 258.52 996.4 257.84 994.22 257.26C992.52 256.8 990.98 256.4 990.98 255.06C990.98 253.8 992.12 252.94 993.72 252.94C995.18 252.94 996.58 253.44 997.58 254.54L998.58 253.32C997.46 252.14 995.88 251.46 993.84 251.46C991.22 251.46 989.26 252.96 989.26 255.16C989.26 257.78 991.64 258.38 993.78 258.94C995.54 259.42 997.16 259.86 997.16 261.46C997.16 262.48 996.4 263.76 994.02 263.76C992.14 263.76 990.7 262.84 989.82 261.86L988.84 263.12ZM1000.74 260.16C1000.74 263.18 1002.8 265.24 1005.66 265.24C1007.24 265.24 1008.54 264.72 1009.5 263.76L1008.78 262.78C1008.02 263.56 1006.9 264 1005.8 264C1003.72 264 1002.44 262.48 1002.32 260.66H1010.14V260.28C1010.14 257.38 1008.42 255.1 1005.5 255.1C1002.74 255.1 1000.74 257.36 1000.74 260.16ZM1005.48 256.34C1007.68 256.34 1008.64 258.12 1008.66 259.56H1002.32C1002.4 258.08 1003.42 256.34 1005.48 256.34ZM1020.59 265V258.22C1020.59 256.12 1019.53 255.1 1017.51 255.1C1016.07 255.1 1014.75 255.94 1014.07 256.74V255.34H1012.57V265H1014.07V257.94C1014.63 257.16 1015.75 256.44 1016.93 256.44C1018.23 256.44 1019.09 256.98 1019.09 258.68V265H1020.59ZM1024.32 253.72C1024.88 253.72 1025.34 253.26 1025.34 252.7C1025.34 252.14 1024.88 251.7 1024.32 251.7C1023.78 251.7 1023.32 252.14 1023.32 252.7C1023.32 253.26 1023.78 253.72 1024.32 253.72ZM1025.08 265V255.34H1023.58V265H1025.08ZM1032.3 265.24C1035.24 265.24 1037.08 262.96 1037.08 260.16C1037.08 257.36 1035.24 255.1 1032.3 255.1C1029.36 255.1 1027.52 257.36 1027.52 260.16C1027.52 262.96 1029.36 265.24 1032.3 265.24ZM1032.3 263.9C1030.24 263.9 1029.08 262.14 1029.08 260.16C1029.08 258.2 1030.24 256.44 1032.3 256.44C1034.36 256.44 1035.5 258.2 1035.5 260.16C1035.5 262.14 1034.36 263.9 1032.3 263.9ZM1041.02 265V258.16C1041.46 257.38 1042.72 256.62 1043.64 256.62C1043.88 256.62 1044.06 256.64 1044.24 256.68V255.14C1042.92 255.14 1041.8 255.88 1041.02 256.9V255.34H1039.52V265H1041.02ZM1045.28 263.72C1046.26 264.76 1047.6 265.24 1049.18 265.24C1051.68 265.24 1052.98 263.94 1052.98 262.32C1052.98 260.18 1051.04 259.7 1049.36 259.32C1048.1 259.02 1047 258.72 1047 257.78C1047 256.92 1047.82 256.32 1049.14 256.32C1050.38 256.32 1051.44 256.84 1052.02 257.54L1052.72 256.5C1051.94 255.72 1050.78 255.1 1049.14 255.1C1046.84 255.1 1045.54 256.38 1045.54 257.88C1045.54 259.88 1047.4 260.32 1049.04 260.7C1050.34 261.02 1051.52 261.36 1051.52 262.42C1051.52 263.36 1050.72 264.02 1049.24 264.02C1047.92 264.02 1046.7 263.38 1046.06 262.64L1045.28 263.72Z" fill="white"/>
<g clip-path="url(#clip0_4331_8896)">
<path d="M70 174.75L49 161.11L49 188.39L70 174.75Z" fill="#12E2B0"/>
<path d="M0 158.125L36.75 187.678L36.75 128.572L0 158.125Z" fill="white"/>
</g>
<rect x="550.5" y="1.25" width="36.25" height="36.25" transform="rotate(45 550.5 1.25)" fill="white"/>
<rect x="571.75" y="48.75" width="17.5" height="17.5" fill="#12E2B0"/>
<g clip-path="url(#clip1_4331_8896)">
<path d="M1155 315L1176 301.36V328.64L1155 315Z" fill="white"/>
<path d="M1184.75 314.125L1221.5 284.572V343.678L1184.75 314.125Z" fill="#12E2B0"/>
</g>
<circle cx="313.625" cy="724.123" r="20.125" fill="#12E2B0"/>
<circle cx="349.875" cy="697.875" r="7.875" fill="white"/>
<g clip-path="url(#clip2_4331_8896)">
<rect width="24.5" height="59.5" transform="matrix(0.945519 0.325568 -0.317189 0.948363 996 582.502)" fill="#12E2B0"/>
<rect width="24.5" height="24.5" transform="matrix(0.984808 -0.173648 0.168778 0.985654 1017 622.75)" fill="white"/>
</g>
<defs>
<clipPath id="clip0_4331_8896">
<rect width="70" height="70" fill="white" transform="matrix(-1 0 0 1 70 124)"/>
</clipPath>
<clipPath id="clip1_4331_8896">
<rect width="70" height="70" fill="white" transform="translate(1155 280)"/>
</clipPath>
<clipPath id="clip2_4331_8896">
<rect width="70" height="70" fill="white" transform="translate(975 579)"/>
</clipPath>
</defs>
</svg>
