<svg width="500" height="388" viewBox="0 0 500 388" fill="none" xmlns="http://www.w3.org/2000/svg">
<path d="M86.5802 61.6025C84.5882 53.084 78.6112 37.0492 84.588 37.0492C81.1016 22.0166 96.5413 21.0143 102.02 20.0121C107.498 19.0099 109.989 14.4998 109.491 18.5085C108.993 22.5173 104.51 22.0165 109.491 22.0165C125.429 18.5085 120.448 5.98151 126.923 15.5022C133.397 25.0229 126.923 31.2923 129.413 31.7198C132.885 32.3159 131.263 23.5194 134.394 29.0318C136.386 32.5394 134.394 43.5634 135.888 40.5568C136.592 39.1395 136.386 34.0423 137.88 44.5652C139.374 55.0881 126.425 68.6178 126.923 64.108C127.421 59.5982 125.429 47.5721 125.429 43.5634C125.429 39.5547 107.498 41.0579 102.518 37.5503C97.5374 34.0427 95.0471 38.5525 92.0588 42.0601C89.0704 45.5678 91.5607 64.1081 90.0665 62.6048C88.5724 61.1015 89.5685 60.6004 86.5802 61.6025Z" fill="black" stroke="black"/>
<path d="M133.808 66.2679C135.267 59.5944 127.973 57.0278 127 64.7281C128.945 60.1079 133.455 60.3822 132.835 66.2679C132.349 70.8881 126.207 76.7941 128.945 74.4817C130.89 72.9416 132.946 70.2118 133.808 66.2679Z" fill="black"/>
<path d="M83.2196 66.2679C81.5524 59.5944 89.8885 57.0278 91 64.7281C88.777 60.1079 83.6231 60.3822 84.3311 66.2679C84.8868 70.8881 91.9065 76.7941 88.7771 74.4817C86.554 72.9416 84.2049 70.2118 83.2196 66.2679Z" fill="black"/>
<path d="M123.9 81.5C128.917 71.5 127.914 58.5 127.914 49.5C127.894 47.5 128.917 41.5 124.402 41.5C115.872 41.5 101.321 34 96.8051 34C92.2893 34 89.7805 44.5 89.2788 47C88.777 49.5 88.777 58 90.784 74C92.791 90 103.83 96 108.847 96C113.865 96 118.882 91.5 123.9 81.5Z" fill="white" stroke="black"/>
<path d="M104 81.5714C107.316 83.2857 109.684 83.8571 113 81" stroke="black" stroke-linecap="round"/>
<path d="M106.397 61C106.397 65.949 104.818 70.8979 104.292 72.3826C103.766 73.8673 103.766 73.8673 105.87 74.8571C106.572 75.8469 109.027 76.8367 111.131 74.8571C111.657 74.3622 113.762 74.3622 112.709 72.3826" stroke="black" stroke-linecap="round" stroke-linejoin="round"/>
<path d="M114.8 63C116.2 63 117.6 60.4152 116.667 59.3813C115.219 58.7148 114.096 58.9133 112.907 60.0458C112.933 61.4491 113.867 63 114.8 63Z" fill="black"/>
<path d="M112 60.9322C112.467 60.4152 112.467 60.4657 112.907 60.0458M119 61.4491C118.533 60.4152 117.336 59.6895 116.667 59.3813M116.667 59.3813C117.6 60.4152 116.2 63 114.8 63C113.867 63 112.933 61.4491 112.907 60.0458M116.667 59.3813C115.219 58.7148 114.096 58.9133 112.907 60.0458" stroke="black" stroke-linecap="round" stroke-linejoin="round"/>
<path d="M111 57C114.273 54.4094 117.895 54.4095 121 56.5723" stroke="black" stroke-linecap="round" stroke-linejoin="round"/>
<path d="M94 57.4816C97.5 54.3709 103.5 56.9631 104 58" stroke="black" stroke-linecap="round" stroke-linejoin="round"/>
<path d="M99 62.9974C97.5837 63.0744 96.9204 61.4303 96.9617 59.869C98.5966 58.7941 100 58.8341 101 59.3545C101.687 60.7271 100.485 62.9167 99 62.9974Z" fill="black"/>
<path d="M96 60.9099C96.3176 60.4966 96.536 60.1489 96.9617 59.869M96.9617 59.869C96.9204 61.4303 97.5837 63.0744 99 62.9974C100.485 62.9167 101.687 60.7271 101 59.3545M96.9617 59.869C98.5966 58.7941 100 58.8341 101 59.3545M101 59.3545C101.667 59.5279 102.5 60.3953 103 60.9157" stroke="black" stroke-linecap="round" stroke-linejoin="round"/>
<path d="M222.039 89.4834C242.082 85.9603 240.077 80.4238 245.589 68.8477C244.587 74.3841 240.979 86.0609 234.566 88.4768C226.548 91.4967 224.043 92 220.535 92C217.028 92 210.514 92 208.009 82.9404C205.503 73.8808 204 69.351 204 65.8278C204 62.3046 205.002 54.7907 205.002 51.2318C205.002 47.7086 206.505 38.1457 206.505 36.1325C206.505 34.5219 206.338 32.1711 206.505 31.5C206.004 25.9636 214.506 16 228.537 16C242.567 16 247.945 17.3817 254.108 26.5695C257.079 31 256.504 43.9757 254.075 50C260.025 53.5 256.077 64 249.568 68C248.566 67 260.584 58 253.606 51.7351C250.099 49.2185 248.567 53.9901 248.066 55.5C246.826 59.2351 248.104 67.4726 245.589 65.8278C243.559 64.5 241.688 59.5323 245.589 48C251.071 31.7947 245.394 29.0328 241.556 27.5C234.045 24.5 232.542 32.3711 218.522 33C212.001 33.2925 215.016 22.5913 210.009 26.5695C207.564 28.5123 207.087 35.5074 207.015 37.1588C207.013 37.2754 207.01 37.3893 207.004 37.5C206.766 42.409 206.004 47.6954 206.004 51.7351C206.004 57.2715 204 64.8212 205.503 68.8477C209.011 80.9272 209.689 91.6542 222.039 89.4834Z" fill="black"/>
<path d="M218 75C219.783 75.9346 225.534 75.0732 226.89 73.586" stroke="black"/>
<path d="M225 47.9354C227.5 44.9164 231 43.9101 235 46.4259M209 46.929C211.5 44.4132 216 44.9163 217.831 46.4259C219.827 48.0721 220.5 50.4512 219.5 55.9861C218.5 61.521 214.5 66.5527 216.5 66.5527C218.5 66.5527 221 67.5591 221.5 66.5527" stroke="black" stroke-linecap="round" stroke-linejoin="round"/>
<path d="M232 57C230.4 57 230 54.4276 230 53.1414C231.397 52.8891 232.835 52.9456 234.196 53.5473C234.131 54.6982 233.6 57 232 57Z" fill="black"/>
<path d="M225 55.1868C226.419 54.329 228.174 53.4713 230 53.1414M236 54.7335C235.422 54.2097 234.817 53.8218 234.196 53.5473M230 53.1414C230 54.4276 230.4 57 232 57C233.6 57 234.131 54.6982 234.196 53.5473M230 53.1414C231.397 52.8891 232.835 52.9456 234.196 53.5473" stroke="black" stroke-linecap="round" stroke-linejoin="round"/>
<path d="M214.842 57C213.158 57 212.737 54.4376 212.737 53.1564C214.039 52.8596 215.345 52.9495 216.597 53.7366C216.714 54.8244 216.526 57 214.842 57Z" fill="black"/>
<path d="M208 55.4663C209.498 54.4963 211.114 53.5262 212.737 53.1564M218 54.955C217.542 54.4365 217.074 54.0361 216.597 53.7366M212.737 53.1564C212.737 54.4376 213.158 57 214.842 57C216.526 57 216.714 54.8244 216.597 53.7366M212.737 53.1564C214.039 52.8596 215.345 52.9495 216.597 53.7366" stroke="black" stroke-linecap="round" stroke-linejoin="round"/>
<path d="M348 51C354 51.5556 357 53.7778 358 56" stroke="black" stroke-linecap="round"/>
<path d="M320.478 69.3423C320.478 62.811 321.42 50.6007 322 46.5C323.022 39.2759 332.671 32.206 337 30.6567C339.455 29.7781 341.653 30.1224 342.5 30.1542C344.948 30.6567 345.448 32.6663 345.448 40.2025C345.448 47.7387 340.953 52.7628 339.455 54.27C337.957 55.7773 338.955 54.7725 338.456 61.8062C336.458 55.2749 330.965 54.27 330.965 59.7966C330.965 65.3231 336.958 71.352 340.953 72.3569C341.119 73.5292 341.452 74.3665 341.452 76.3762C341.452 78.3858 347.197 84.8684 350.442 87.4291C353.701 90.0015 356.201 91.2695 358.335 91.4441C359.072 91.4279 359.733 91.3673 360.328 91.2712C361.95 90.8362 363.406 89.6816 364.924 87.9316C375.412 73.8641 375.911 69.3424 376.91 59.7966C377.709 52.1599 375.245 43.8869 373.914 40.7049C371.417 34.676 366.506 30.4259 357 28.5C336.567 24.3602 330.965 33.329 330.965 31.5C330.965 18.4373 341.452 13.7421 344.948 13.0722C360.43 9.0529 369.419 17.0916 375.412 24.6277C378.413 28.4017 380.276 33.0535 381.405 37.9328C381.922 40.1697 382.285 42.4544 382.533 44.7242C382.717 46.4158 382.837 48.0992 382.91 49.7483C383.277 58.1325 382.403 65.6326 382.403 68.84V91.4484C379.906 86.4243 378.408 90.946 375.412 90.946C371.017 91.3479 369.419 86.4244 367.421 86.4244C365.649 86.4244 365.842 90.3792 360.328 91.2712C359.694 91.4411 359.034 91.5012 358.335 91.4441C358.204 91.447 358.069 91.4484 357.933 91.4484C353.937 91.4484 348.444 87.9316 341.452 78.3858C339.455 92.4533 331.464 95.4677 325.472 95.9701C319.479 96.4725 320.977 90.4436 318.48 92.4532C315.983 94.4629 315.483 92.4532 316.482 91.4484C317.481 90.4436 320.478 75.8737 320.478 69.3423Z" fill="black" stroke="black" stroke-linecap="round" stroke-linejoin="round"/>
<path d="M355.925 78.4864C357.13 79.1954 359.089 79.4877 360.157 79.6524C361.442 79.8503 362.798 79.5832 363.907 79.2183" stroke="black" stroke-linecap="round"/>
<path d="M352.242 62.0379C354.002 62.3165 355.073 60.3682 355.19 59.0126C354.073 58.349 351.934 57.7351 349.972 57.8121C349.744 59.2503 350.482 61.7593 352.242 62.0379Z" fill="black"/>
<path d="M357.409 61.6773C357.072 60.4673 356.306 59.6761 355.19 59.0126M345.735 58.6726C346.855 58.2716 349.19 57.8428 349.972 57.8121M355.19 59.0126C355.073 60.3682 354.002 62.3165 352.242 62.0379C350.482 61.7593 349.744 59.2503 349.972 57.8121M355.19 59.0126C354.073 58.349 351.934 57.7351 349.972 57.8121" stroke="black" stroke-linecap="round"/>
<path d="M368.5 62C370.405 62 370.667 60.1915 370.667 58.1325C368.893 57.7662 367.724 58.1748 366.5 59.1658C366.437 60.3833 366.942 62 368.5 62Z" fill="black"/>
<path d="M364 61.8742C364.457 61.096 365.583 59.9076 366.5 59.1658M374 60.0479C372.841 58.9369 371.719 58.35 370.667 58.1325M370.667 58.1325C370.667 60.1915 370.405 62 368.5 62C366.942 62 366.437 60.3833 366.5 59.1658M370.667 58.1325C368.893 57.7662 367.724 58.1748 366.5 59.1658" stroke="black" stroke-linecap="round"/>
<path d="M374 53.3854C368.5 51.9145 365 54.8563 363.5 58.7786C362.292 61.9378 362.26 65.0651 363 67.6038C364 71.0358 365.5 70.5455 364.5 72.0163C363.667 73.3238 361 73.4872 359 71.5261" stroke="black" stroke-linecap="round"/>
<path d="M64 216C61 218.549 54.5 218.549 52 216.637" stroke="black" stroke-linecap="round" stroke-linejoin="round"/>
<path d="M73.5722 186.739C74.564 180.28 73.5723 176.306 69.1093 169.848C67.7869 170.344 63.8528 171.537 58.6956 172.332C52.2491 173.325 33.4054 164.88 35.3889 171.338C37.3725 177.796 33.4054 192.7 32.4136 196.674C31.4218 200.649 29.9341 199.158 29.9341 197.668C29.9341 196.178 26.463 192.203 24.4794 194.19C21.5041 197.668 23.4876 203.133 24.4794 204.623C25.4713 206.113 29.9342 212.572 23.9836 205.617C21.0082 199.158 22 196.178 22.9918 194.19C24.2315 191.707 26.2875 192.7 25.9671 191.707C19.3996 171.338 23.9835 172.332 31.4218 162.893C38.8602 153.454 47.7861 160.409 64.6463 157.428C81.5064 154.447 76.5476 167.86 75.5558 172.332C74.564 176.803 78.5311 186.242 74.3679 194.687C74.6653 198.286 74.7791 202.249 74.0682 204.623C73.4807 206.585 70.597 214.062 70.1011 216.049C69.6052 218.036 67.6216 225.488 64.6463 227.972C61.671 230.456 55.2244 229.959 53.7368 229.959C52.2491 229.959 48.7779 227.972 47.2903 227.475C41.3396 226.073 36.3807 221.514 35.3889 220.024C34.5955 218.831 33.4054 212.075 34.3972 212.075C34.3972 223.501 43.0752 224.991 51.7533 228.469C54.2327 229.463 59.6874 229.463 63.1586 227.972C66.6298 226.482 67.1257 219.03 71.5887 208.597C76.0517 198.165 72.5805 193.197 73.5722 186.739Z" fill="black"/>
<path d="M65.2632 198C67.9158 198 68.062 195.487 67.8035 193.744C65.9659 192.321 64.3204 193.07 62.4211 194.882C62.2632 196.246 62.6105 198 65.2632 198Z" fill="black"/>
<path d="M61 196.359C61.4925 195.815 61.9641 195.318 62.4211 194.882M70 196.359C69.224 195.135 68.5 194.284 67.8035 193.744M67.8035 193.744C68.062 195.487 67.9158 198 65.2632 198C62.6105 198 62.2632 196.246 62.4211 194.882M67.8035 193.744C65.9659 192.321 64.3204 193.07 62.4211 194.882" stroke="black" stroke-linecap="round" stroke-linejoin="round"/>
<path d="M49 199C47 199 46.5 197.826 46 195.632C47.9942 193.986 49.9943 193.52 52 194.534C52 196.729 52 199 49 199Z" fill="black"/>
<path d="M44 197.826C44.6455 197.03 45.3171 196.195 46 195.632M54 196.729C53.5 195.632 53.0597 195.07 52 194.534M46 195.632C46.5 197.826 47 199 49 199C52 199 52 196.729 52 194.534M46 195.632C47.9942 193.986 49.9943 193.52 52 194.534" stroke="black" stroke-linecap="round" stroke-linejoin="round"/>
<path d="M43 188C47.5 186.021 54.5 187.505 55 188" stroke="black" stroke-linecap="round" stroke-linejoin="round"/>
<path d="M70 187.928C67.9862 186.464 60.4351 185.976 58.9249 192.32C57.8101 197.003 58.4216 198.176 59.9319 201.592C60.7733 203.495 63.959 209.4 59.9319 209.888C56.408 210.315 51.5806 209.595 55.4011 206.472" stroke="black" stroke-linecap="round" stroke-linejoin="round"/>
<path d="M143.446 178.583C143.446 165.654 151.437 158.691 159.928 157.199C164.629 156.373 169.812 155.888 172.913 157.2C174.911 155.21 188.596 153.221 193.391 173.113C199.384 197.978 180.019 191.877 192.392 201.459C205.877 211.902 206.391 228.171 205.877 227.319C204.379 224.832 203.88 226.821 203.38 229.308C202.942 231.489 202.029 228.331 198.885 225.827C196.388 223.837 194.889 223.837 195.888 225.827C196.388 226.821 196.57 229.41 194.889 227.319C192.892 224.832 188.896 228.81 186.399 222.345C183.901 215.881 165.921 215.383 166.92 218.367C167.919 221.351 166.421 224.335 165.921 226.324C165.422 228.313 154.933 230.302 151.937 229.308C148.94 228.313 148.94 226.821 148.94 225.329C148.94 223.837 144.445 222.843 145.444 224.335C146.443 225.827 148.94 233.286 146.942 230.302C144.944 227.318 135.455 227.816 133.457 222.843C131.459 217.87 136.453 206.929 139.95 202.951C143.446 198.972 143.446 191.513 143.446 178.583Z" fill="black"/>
<path d="M181.904 165.654C178.56 161.659 176.015 158.511 172.913 157.2M172.913 157.2C169.812 155.888 164.629 156.373 159.928 157.199C151.437 158.691 143.446 165.654 143.446 178.583C143.446 191.513 143.446 198.972 139.95 202.951C136.453 206.929 131.459 217.87 133.457 222.843C135.455 227.816 144.944 227.318 146.942 230.302C148.94 233.286 146.443 225.827 145.444 224.335C144.445 222.843 148.94 223.837 148.94 225.329C148.94 226.821 148.94 228.313 151.937 229.308C154.933 230.302 165.422 228.313 165.921 226.324C166.421 224.335 167.919 221.351 166.92 218.367C165.921 215.383 183.901 215.881 186.399 222.345C188.896 228.81 192.892 224.832 194.889 227.319C196.57 229.41 196.388 226.821 195.888 225.827C194.889 223.837 196.388 223.837 198.885 225.827C202.029 228.331 202.942 231.489 203.38 229.308C203.88 226.821 204.379 224.832 205.877 227.319C206.391 228.171 205.877 211.902 192.392 201.459C180.019 191.877 199.384 197.978 193.391 173.113C188.596 153.221 174.911 155.21 172.913 157.2Z" stroke="black"/>
<path d="M191.5 212.027C193.5 207.066 194 201.609 194 194.664C194 188.214 193.521 174.589 187.5 169.362C183.5 165.89 176.5 164.897 171.5 167.378C166.401 169.907 165 178.292 163.5 184.742C162.393 189.503 160.5 193.671 159 193.671C155 189.207 153 193.175 153 199.129C153 204.586 159 205.082 160 210.043C162 217.981 169.5 223.934 175 225.918C180.5 227.903 184.5 226.911 185.5 224.926L185.5 224.926C186.5 222.942 189.5 216.988 191.5 212.027Z" fill="white" stroke="black"/>
<path d="M184 215C183.667 215.667 182.5 217 180.5 217C178.5 217 177.333 215.667 177 215" stroke="black" stroke-linecap="round" stroke-linejoin="round"/>
<path d="M192 191.103C189.5 189.08 183.5 190.091 182.5 192.114C181.5 194.137 180 197.171 182.5 202.734C185 208.297 186.5 209.309 183 210.826C181.833 211.332 179.167 210.657 179 209.814" stroke="black" stroke-linecap="round" stroke-linejoin="round"/>
<path d="M186.5 199C188.1 199 188.167 196.342 188 195.013C186.831 194.925 185.808 195.293 184.996 195.918C184.83 196.945 184.9 199 186.5 199Z" fill="black"/>
<path d="M184 196.945C184.281 196.56 184.615 196.211 184.996 195.918M192 196.945C190.559 195.676 189.202 195.104 188 195.013M188 195.013C188.167 196.342 188.1 199 186.5 199C184.9 199 184.83 196.945 184.996 195.918M188 195.013C186.831 194.925 185.808 195.293 184.996 195.918" stroke="black" stroke-linecap="round" stroke-linejoin="round"/>
<path d="M169.04 198.357C167.847 198.226 167.214 196.48 167.046 195.623C168.407 194.831 169.976 194.435 170.97 194.544C170.948 195.925 171.028 198.574 169.04 198.357Z" fill="black"/>
<path d="M175.721 197.076C174.58 195.653 172.958 194.762 170.97 194.544M165.726 196.485C166.185 196.155 166.624 195.869 167.046 195.623M167.046 195.623C167.214 196.48 167.847 198.226 169.04 198.357C171.028 198.574 170.948 195.925 170.97 194.544M167.046 195.623C168.407 194.831 169.976 194.435 170.97 194.544" stroke="black" stroke-linecap="round" stroke-linejoin="round"/>
<path d="M177 191C174 189.667 167 189.667 165 191" stroke="black" stroke-linecap="round" stroke-linejoin="round"/>
<path d="M309.774 209.359L306.473 221.902C305.132 226.767 300.346 237 291.887 237C278.645 237 274.63 214.389 273.624 211.873C272.418 208.856 271.616 213.381 268.101 207.348C264.586 201.314 266.093 196.286 271.616 199.303C269.607 195.281 259.061 188.753 260.067 179.694C262.079 170.132 267.364 173.3 266.092 168.633C264.586 163.102 267.097 159.583 270.611 158.074C274.126 156.566 276.636 158.577 279.147 157.069C281.657 155.56 282.268 152.884 288.184 151.538C299.23 149.024 300.437 155.973 302.952 158.993C305.757 158.993 310.496 157.785 314.52 161.006C320.279 165.616 322.621 170.141 319.815 179.694C318.929 182.711 316.029 185.727 314.52 186.231C313.011 186.734 314.295 192.263 312.786 193.27C311.277 194.276 308.988 199.758 310.496 198.751C315.799 194.275 317.743 201.589 314.293 207.348C311.28 212.376 311.618 208.688 309.774 209.359Z" fill="black" stroke="black"/>
<path d="M294.288 182C290.74 183.507 288.205 187.031 281.616 183.012C281.447 183.514 281.616 186.046 279.589 188.575C276.471 192.465 273 192.022 273 194.032C273 196.041 273.507 210.612 276.041 220.661C278.068 228.7 283.475 233.765 285.671 235.105C289.219 238.12 294.795 236.951 296.822 235.611C305.945 229.582 306.452 220.425 306.959 218.415C307.466 216.405 308.479 210.795 308.986 205.771C309.238 203.271 309.493 196.62 310 189.586C304.932 188.582 304.932 185.54 301.89 187.058C298.241 187.862 295.301 185.035 294.288 182Z" fill="white" stroke="black" stroke-linecap="round" stroke-linejoin="round"/>
<path d="M296 223C296 223 293.465 223.863 291.765 223.982C289.898 224.113 287 223.491 287 223.491" stroke="black" stroke-linecap="round"/>
<path d="M298.235 207C299.294 207 299.824 205.534 300.138 204C299.035 203.993 297.727 204.157 296.413 204.657C296.844 205.438 297.388 207 298.235 207Z" fill="black"/>
<path d="M294 206.023C294.774 205.41 295.595 204.968 296.413 204.657M303 204.557C302.759 204.334 301.638 204.01 300.138 204M300.138 204C299.824 205.534 299.294 207 298.235 207C297.388 207 296.844 205.438 296.413 204.657M300.138 204C299.035 203.993 297.727 204.157 296.413 204.657" stroke="black" stroke-linecap="round"/>
<path d="M281.235 207.999C279.727 208.07 279.367 205.061 279.367 205.061C280.363 204.943 281.607 204.978 283.059 205.323C283.059 205.323 282.649 207.932 281.235 207.999Z" fill="black"/>
<path d="M277 205.821C277.434 205.523 278.243 205.195 279.367 205.061M286 206.365C284.946 205.873 283.962 205.538 283.059 205.323M279.367 205.061C279.367 205.061 279.727 208.07 281.235 207.999C282.649 207.932 283.059 205.323 283.059 205.323M279.367 205.061C280.363 204.943 281.607 204.978 283.059 205.323" stroke="black" stroke-linecap="round"/>
<path d="M295 199.219C297 197.741 300 196.263 302 197.741M278 197.741C280 196.263 284.781 196.871 287 200.696C289 204.144 289.5 213.01 288 214.488C286.5 215.966 285 218.428 294 217.936" stroke="black" stroke-linecap="round"/>
<path d="M310 211.635C310.387 209.766 310.658 207.158 310.658 203.347C310.658 198.489 315.694 198.862 314.919 204.842C314.515 207.956 313.518 210.32 310.658 212.995C310.489 213.153 312.593 209.342 310 211.635Z" fill="white"/>
<path d="M273.835 215.007C273.059 212.307 271.462 205.369 271.225 202.371C270.991 199.412 267.183 201.595 268.16 205.561C268.333 206.262 269.064 207.95 269.961 209.143C270.38 209.702 271.091 210.298 271.225 210.636C273.36 216.001 274.435 217.097 273.835 215.007Z" fill="white"/>
<path d="M374.023 196.355C373.431 177.812 384.317 167.493 392.323 162.875C395.754 159.989 402.153 153.279 405.476 153.063C423.205 151.908 442.076 166.916 444.364 183.656C446.651 200.396 442.076 214.827 441.505 224.062C441.341 226.706 441.505 228.681 440.361 226.372C439.423 224.479 439.217 224.063 435.786 224.64C427.808 225.982 424.92 217.713 423.205 217.136C420.492 216.223 411.195 210.786 403.761 213.672C396.326 216.558 401.638 222.33 398.042 224.639C395.754 226.948 386.604 230.412 385.461 230.412C384.317 230.412 383.745 231.567 382.601 230.99C381.457 230.412 381.458 232.721 380.886 232.144C380.314 231.566 379.17 229.257 379.17 232.144C379.17 235.03 378.598 235.03 377.454 228.68C376.311 222.33 374.595 214.249 374.023 196.355Z" fill="black" stroke="black"/>
<path d="M385 192.39C385 185.046 387.289 176.572 395.298 172.052C409.03 170.922 420.663 188.436 424.478 195.78C430.771 191.26 431.498 197.993 430.771 200.865C429.627 205.384 427.093 203.124 426.194 209.339C425.622 213.293 424.239 216.046 417.612 220.073C410.174 224.592 405.025 225.722 400.448 224.592C398.159 224.028 395.298 220.073 393.01 216.118C391.574 213.636 391.294 213.293 389.577 209.904C387.861 206.514 385 196.91 385 192.39Z" fill="white" stroke="black"/>
<path d="M405 191C407.316 188.296 413.684 186.96 416 188.964" stroke="black" stroke-linecap="round" stroke-linejoin="round"/>
<path d="M401 208.495C400.278 208.876 398.617 209.41 397.75 208.495C395.583 206.207 396.125 206.779 397.75 203.92C398.292 202.967 399.375 200.603 399.375 198.773C399.375 196.486 399.917 191.625 396.125 189.623C393.958 188.48 389.625 189.052 388 190.195" stroke="black" stroke-linecap="round" stroke-linejoin="round"/>
<path d="M398.949 197.151C399.861 196.694 401.608 196.961 402.367 197.151M398.949 197.151C398.38 196.388 396.899 194.748 395.532 194.29C393.823 193.718 388.696 192.001 383 195.435C384.139 198.296 387.165 202.391 389.266 203.446C391.544 204.59 394.962 204.59 396.671 202.301C398.38 200.012 398.949 197.724 398.949 197.151ZM402.367 197.151C404.646 194.862 406.947 193.469 409.203 193.146C413.19 192.574 417.747 193.718 422.304 196.007M402.367 197.151C402.367 197.724 402.481 198.181 402.937 200.012C403.392 201.844 404.076 203.827 406.354 204.59C407.77 205.064 410.114 205.391 413.759 204.018C416.583 202.954 419.475 200.449 421.165 198.044M422.304 196.007C422.047 196.652 421.657 197.344 421.165 198.044M422.304 196.007L428 193.718V194.863L421.165 198.044" stroke="black" stroke-linecap="round" stroke-linejoin="round"/>
<path d="M411.739 200.391C413.096 200.391 413.812 198.361 414 197.345C413.301 196.807 412.042 196.156 410.609 196.024C410.42 197.48 410.383 200.391 411.739 200.391Z" fill="black"/>
<path d="M394.217 201C395.348 201 395.913 198.563 395.913 197.345C394.783 196.736 394.176 196.571 392.522 196.664C392.522 198.109 393.087 201 394.217 201Z" fill="black"/>
<path d="M406.652 197.345C407.928 196.2 409.337 195.907 410.609 196.024M410.609 196.024C412.042 196.156 413.301 196.807 414 197.345C413.812 198.361 413.096 200.391 411.739 200.391C410.383 200.391 410.42 197.48 410.609 196.024ZM388 198.564C389.114 197.363 390.914 196.754 392.522 196.664M392.522 196.664C394.176 196.571 394.783 196.736 395.913 197.345C395.913 198.564 395.348 201 394.217 201C393.087 201 392.522 198.109 392.522 196.664Z" stroke="black" stroke-linecap="round" stroke-linejoin="round"/>
<path d="M402 215.707C403.2 216.414 406.8 215.707 408 215" stroke="black" stroke-linecap="round" stroke-linejoin="round"/>
<path d="M125.039 336.832C126.521 333.819 131.561 332.678 127.369 343.837C126.247 346.826 125.358 347.86 123.382 349.367C122.888 354.222 121.389 364.448 118.897 368.47C117.962 369.978 112.916 374 108.929 374C104.942 374 98.3622 371.991 96.8802 366.466C95.3981 360.941 93.4703 354.389 92.4823 348.361C91.7022 343.602 88.482 349.389 87 338.339C87.0001 330.303 90.4581 333.317 90.9521 335.326V329.298C89.4919 309.652 86.7989 309.264 89.4919 302.614C92.95 294.076 102.808 293.637 108.242 294.14C113.676 294.642 116.97 298.995 118.123 301.674C119.395 298.592 125.039 299.533 127.015 302.111C128.939 304.623 128.366 306.638 128.366 308.647C128.366 310.254 127.688 313.171 127.015 317.193C126.173 322.22 126.414 323.231 126.173 325.783C125.524 332.656 125.159 336.222 125.039 336.832Z" fill="black"/>
<path d="M118.123 301.674C119.395 298.592 125.039 299.533 127.015 302.111C128.939 304.623 128.366 306.638 128.366 308.647C128.366 310.254 127.688 313.171 127.015 317.193C126.173 322.22 126.414 323.231 126.173 325.783M118.123 301.674C118.123 302.678 118.123 301.674 117.629 304.185M118.123 301.674C116.97 298.995 113.676 294.642 108.242 294.14C102.808 293.637 92.95 294.076 89.4919 302.614C86.7989 309.264 89.4919 309.652 90.9521 329.298M117.629 304.185C117.135 306.696 116.146 321.764 123.557 324.778C124.742 325.18 125.795 325.615 126.173 325.783M117.629 304.185C117.534 305.19 112.872 312.67 107.932 314.679C102.992 316.688 97.8682 314.23 95.3981 313.728C92.9281 313.226 91.4461 313.728 90.9521 314.23C90.5569 314.632 90.7874 324.443 90.9521 329.298M126.173 325.783C125.524 332.656 125.159 336.222 125.039 336.832C126.521 333.819 131.561 332.678 127.369 343.837C126.247 346.826 125.358 347.86 123.382 349.367C122.888 354.222 121.389 364.448 118.897 368.47C117.962 369.978 112.916 374 108.929 374C104.942 374 98.3622 371.991 96.8802 366.466C95.3981 360.941 93.4703 354.389 92.4823 348.361C91.7022 343.602 88.482 349.389 87 338.339C87.0001 330.303 90.4581 333.317 90.9521 335.326V329.298" stroke="black"/>
<path d="M125.036 338.202C126.538 335.681 130.923 332.483 128.039 343.748C126.878 348.286 125.615 349.285 122.75 350.807C122.269 355.541 120.666 365.38 118.743 368.122C116.34 371.551 112.023 374 109.13 374C106.018 374 98.9513 371.825 97.5092 366.437C96.0672 361.049 94.4667 354.667 93.5054 348.79C93.3 347.534 91.8124 348.115 91.3448 347.782C90.0846 346.882 89.0518 346.565 88 338.706C88.0001 330.869 91.1334 335.061 91.5034 336.185L91.5033 330.134C91.3431 325.4 90.9603 315.616 91.3448 315.224C91.8255 314.735 93.2675 314.245 95.6709 314.735C98.0742 315.224 100.832 317.529 106.018 317.529C111.363 317.529 114.734 315.126 115.01 314.09C115.015 314.059 115.021 314.029 115.026 314C115.024 314.029 115.018 314.058 115.01 314.09C114.578 316.595 115.945 322.607 123.069 325.51C124.223 325.902 125.247 326.327 125.615 326.49C124.984 333.192 125.153 337.606 125.036 338.202Z" fill="white"/>
<path d="M104 359C105.6 360.829 111.602 359.728 112 359" stroke="black" stroke-linecap="round" stroke-linejoin="round"/>
<path d="M94 328.662C96.4545 327.171 105.291 326.178 106.764 332.14C108.236 338.102 104.509 348.006 105 349C105.393 349.795 107.273 351 108.5 351M111.182 329.656C112.164 328.662 116.582 325.681 121 327.669" stroke="black" stroke-linecap="round" stroke-linejoin="round"/>
<path d="M129.118 325.443C128.905 323.324 127.874 321.395 125.488 319.345C123.655 317.77 123.6 318.914 125.451 320.654C126.349 321.498 128.584 325.132 128.796 327.251C129.008 329.37 129.33 327.561 129.118 325.443Z" fill="white"/>
<path d="M127.118 325.443C126.905 323.324 125.874 321.395 123.488 319.345C121.655 317.77 121.6 318.914 123.451 320.654C124.349 321.498 126.584 325.132 126.796 327.251C127.008 329.37 127.33 327.561 127.118 325.443Z" fill="white"/>
<path d="M116.706 337C115.294 337 115.2 335.202 114.824 334.119C116.089 333.936 117.464 333.947 118.588 334.269C118.588 334.269 118.118 337 116.706 337Z" fill="#040404"/>
<path d="M112 334.964C112.698 334.586 113.719 334.279 114.824 334.119M120 334.964C119.615 334.651 119.131 334.424 118.588 334.269M114.824 334.119C115.2 335.202 115.294 337 116.706 337C118.118 337 118.588 334.269 118.588 334.269M114.824 334.119C116.089 333.936 117.464 333.947 118.588 334.269" stroke="black" stroke-linecap="round" stroke-linejoin="round"/>
<path d="M101 337C99 337 98.5 334.245 98.5 334.245C99.7758 333.897 101.539 333.941 102.5 334.245C102.5 334.245 102.159 337 101 337Z" fill="#040404"/>
<path d="M104 335.347C103.62 334.928 103 334.403 102.5 334.245M96 335.347C96.8451 334.682 97.6901 334.466 98.5 334.245M98.5 334.245C98.5 334.245 99 337 101 337C102.159 337 102.5 334.245 102.5 334.245M98.5 334.245C99.7758 333.897 101.539 333.941 102.5 334.245" stroke="black" stroke-linecap="round" stroke-linejoin="round"/>
<path d="M213 331.458C214.256 330.791 218.385 330.906 220 331.458" stroke="black"/>
<path d="M235 333C237.692 331.268 241.462 332.134 242 333" stroke="black"/>
<path d="M206.552 308.977C205.553 308.479 202.556 311.97 203.056 323.443C203.222 325.106 203.655 327.833 204.055 325.439C204.554 322.446 209.549 314.963 209.549 316.959C209.549 318.954 210.048 321.947 211.047 319.453C212.046 316.959 217.541 310.973 223.535 316.959C229.528 322.945 239.019 319.952 242.515 319.453C246.011 318.954 248.009 319.952 248.009 321.947C248.009 323.942 250.507 321.947 251.506 325.439C252.505 328.931 250.397 338.128 252.505 333.919C256.001 326.935 257 320.45 257 317.956C257 315.462 253.504 315.462 253.504 313.966C253.504 304.987 251.506 303.989 249.508 302.991C247.897 302.187 243.014 301.994 242.015 299.5C241.017 297.005 244.014 297.504 242.515 296.507C241.017 295.509 237.021 297.005 235.023 297.005C233.025 297.005 231.526 294.511 235.522 294.511C236.521 294.511 233.524 290.521 227.531 295.509C223.826 299.001 219.539 298.003 222.536 296.507C223.535 296.008 223.035 295.01 219.039 297.005C214.623 299.211 212.047 305.486 212.047 308.977C212.047 308.645 211.247 308.079 210.049 308.478C208.051 309.144 207.052 312.968 206.552 311.471C205.92 309.579 207.184 309.293 206.552 308.977Z" fill="black"/>
<path d="M254.764 305.418C250.807 306.365 246.098 318.7 240.491 320.556C237.552 321.529 234.395 324.291 236.922 323.975C248.647 322.51 250.075 308.396 255.274 305.906C256.293 305.418 258.842 304.441 254.764 305.418Z" fill="white"/>
<path d="M252.107 313.185C251.012 315.639 246.797 321.21 242.957 322.458C240.943 323.112 240.285 325.476 241.929 324.915C249.121 322.458 250.628 318.618 252.204 315.089C253.328 312.571 253.231 310.667 252.107 313.185Z" fill="white"/>
<path d="M258.919 340.375C259.691 336.402 254.733 335.968 252.64 338.906L252.117 341.354C253.163 338.906 256.721 338.319 256.303 341.844C255.78 346.251 250.389 349.292 250.024 350.658C249.5 352.617 257.873 345.761 258.919 340.375Z" fill="black"/>
<path d="M201.03 339.902C200.623 336.184 204.432 335.798 205.816 340.154C205.816 340.333 206 341.098 206 342.387C205.529 339.7 203.811 338.633 202.765 340.154C201.403 342.504 204.086 348.53 203.386 347.963C203.076 347.712 201.501 344.201 201.03 339.902Z" fill="black"/>
<path d="M232 373.055C248 361.541 250 356.535 253 338.513H252.5C251 343.519 250.5 351.529 246.5 358.037C243.498 362.92 234.833 370.385 231.5 372.554C226.5 375.558 221.5 374.056 216.5 368.549C210.139 362.324 208 357.035 207.5 354.532C207.167 351.195 206.5 345.221 206.5 344.02C206.5 342.518 206 337.512 205.5 335.009C205 332.505 205 332.005 204.5 328C204.5 328.167 204.4 328.901 204 330.503C204.5 332.005 205 336.01 205.5 339.013C206 342.017 206.5 350.527 207 356.034C207.409 360.54 219 372.054 221 373.556C223 375.057 228 376.059 232 373.055Z" fill="black"/>
<path d="M220 359C222.105 360.865 227.053 361.735 230 360.243" stroke="black" stroke-linecap="round" stroke-linejoin="round"/>
<path d="M249 335L253 337.727L252 341L249 339.364V335Z" fill="black"/>
<path d="M205 335.111L206.5 334L207 338.444L205.5 339L205 335.111Z" fill="black"/>
<path d="M206.5 333.71C215 332.691 220 332.691 224.5 334.219C224.5 335.324 224.471 336.756 224.314 338.291M206.5 333.71L205 334.728L205.5 338.291L206.821 337.782M206.5 333.71C206.5 334.798 206.585 336.23 206.821 337.782M224.314 338.291C223.822 343.121 222.07 348.982 216 348.982C211.716 348.982 209.296 345.916 207.972 342.364C207.411 340.858 207.046 339.266 206.821 337.782M224.314 338.291H230.5M230.5 338.291C230.5 337.782 230.5 336.357 230.5 334.728C236.9 332.691 245.5 334.219 249 335.237M230.5 338.291C231 344.4 232.5 350 239 350C244.396 350 247.725 345.439 248.7 339.229M249 335.237L253 337.782L252 340.837L248.7 339.229M249 335.237C249 336.62 248.899 337.959 248.7 339.229" stroke="black" stroke-linecap="round" stroke-linejoin="round"/>
<path d="M238.413 343C236.381 343 236.889 340.659 236.889 339.489C237.987 339.285 239.273 339.276 240.796 339.694C240.509 340.796 240.444 343 238.413 343Z" fill="black"/>
<path d="M217.079 342.517C215.08 342.517 215.386 340.25 215.556 339.132C216.746 338.942 218.062 338.952 219.294 339.196C219.233 340.303 219.079 342.517 217.079 342.517Z" fill="black"/>
<path d="M233.841 340.583C234.667 340.19 235.66 339.717 236.889 339.489M244 341.066C242.828 340.397 241.764 339.959 240.796 339.694M236.889 339.489C236.889 340.659 236.381 343 238.413 343C240.444 343 240.509 340.796 240.796 339.694M236.889 339.489C237.987 339.285 239.273 339.276 240.796 339.694M212 340.583C212.664 339.95 214.003 339.38 215.556 339.132M221.651 340.099C220.95 339.654 220.142 339.363 219.294 339.196M215.556 339.132C215.386 340.25 215.08 342.517 217.079 342.517C219.079 342.517 219.233 340.303 219.294 339.196M215.556 339.132C216.746 338.942 218.062 338.952 219.294 339.196" stroke="black" stroke-linecap="round" stroke-linejoin="round"/>
<path d="M221 350C221 352.222 223.357 355 225 355C226.643 355 229.5 353.333 231 351.111" stroke="black" stroke-linecap="round" stroke-linejoin="round"/>
<path d="M205.628 311.348C206.491 309.561 203.215 314.846 204.18 322.839C204.542 325.837 204.714 322.371 206.11 319.842C208.041 316.345 210.936 314.346 210.454 315.345C209.971 316.344 210.936 320.841 210.936 319.342C210.936 313.347 212.384 313.347 211.902 312.347C211.419 311.348 206.593 317.843 205.145 319.842C203.697 321.84 204.662 313.347 205.628 311.348Z" fill="white"/>
<path d="M322.459 308.831C334.467 294.794 355.481 291.786 366.988 307.829C387.001 311.338 370.991 348.939 385 370.497C379.997 372.001 364.487 375.009 360.484 363.478C356.481 351.947 358.483 356.961 339.971 361.974C321.459 366.988 316.456 369.996 316.456 367.489C319.457 335.403 310.452 322.869 322.459 308.831Z" fill="black" stroke="black"/>
<path d="M359.575 333.121C354.55 328.594 349.524 325.575 353.544 314.005C350.529 311.49 340.98 306.963 330.928 312.999C320.877 319.036 319.369 331.612 322.385 343.182C325.4 354.752 323.39 358.273 335.954 366.825C341.483 371.352 355.555 362.298 359.575 348.212C372.14 338.655 367.617 333.121 365.104 333.121C362.591 333.121 361.586 334.127 360.581 337.145C359.575 340.164 359.575 336.643 359.575 333.121V333.121Z" fill="white" stroke="black"/>
<path d="M330.027 339C331.534 339 332.036 338 332.621 336C331.082 335.189 329.164 334.947 327.471 335.009C327.471 338.5 329.023 339 330.027 339Z" fill="black"/>
<path d="M334 337C333.596 336.598 333.129 336.268 332.621 336M324 336C324.462 335.54 325.549 335.079 327.471 335.009M332.621 336C332.036 338 331.534 339 330.027 339C329.023 339 327.471 338.5 327.471 335.009M332.621 336C331.082 335.189 329.164 334.947 327.471 335.009" stroke="black" stroke-linecap="round" stroke-linejoin="round"/>
<path d="M335.615 337C336.692 341.138 336.692 346.31 334 349.931C334 350.621 334.646 352 337.231 352C338.954 352 340.462 351.31 341 350.966" stroke="black" stroke-linecap="round" stroke-linejoin="round"/>
<path d="M345 356C340.286 358.857 337.143 358.286 334 356.571" stroke="black" stroke-linecap="round" stroke-linejoin="round"/>
<path d="M347.286 338C349.381 338 350.06 335.496 350.137 334.244C348.244 333.818 346.49 333.993 345.007 334.434C344.893 335.623 345.19 338 347.286 338Z" fill="black"/>
<path d="M341 336.65C341.759 335.926 343.177 334.978 345.007 334.434M352 334.85C351.368 334.579 350.745 334.38 350.137 334.244M350.137 334.244C350.06 335.496 349.381 338 347.286 338C345.19 338 344.893 335.623 345.007 334.434M350.137 334.244C348.244 333.818 346.49 333.993 345.007 334.434" stroke="black" stroke-linecap="round" stroke-linejoin="round"/>
<path d="M340 330C342.105 328.851 347.053 326.653 350 327.047" stroke="black" stroke-linecap="round" stroke-linejoin="round"/>
<path d="M332 331C327.765 328.6 324.235 328 323 328" stroke="black" stroke-linecap="round" stroke-linejoin="round"/>
</svg>
