<svg width="24" height="24" viewBox="0 0 24 24" fill="none" xmlns="http://www.w3.org/2000/svg">
<path fill-rule="evenodd" clip-rule="evenodd" d="M6.05436 4.86082C7.62974 3.28543 9.76642 2.40039 11.9944 2.40039C14.2223 2.40039 16.359 3.28543 17.9344 4.86082C19.5097 6.43621 20.3948 8.57289 20.3948 10.8008C20.3948 13.0288 19.5097 15.1654 17.9344 16.7408L11.9944 22.6808L6.05436 16.7408C5.27425 15.9608 4.65544 15.0347 4.23324 14.0156C3.81105 12.9964 3.59375 11.904 3.59375 10.8008C3.59375 9.69764 3.81105 8.60527 4.23324 7.58608C4.65544 6.56689 5.27425 5.64084 6.05436 4.86082ZM11.9944 13.2008C12.6309 13.2008 13.2413 12.948 13.6914 12.4979C14.1415 12.0478 14.3944 11.4373 14.3944 10.8008C14.3944 10.1643 14.1415 9.55385 13.6914 9.10376C13.2413 8.65368 12.6309 8.40082 11.9944 8.40082C11.3578 8.40082 10.7474 8.65368 10.2973 9.10376C9.84721 9.55385 9.59436 10.1643 9.59436 10.8008C9.59436 11.4373 9.84721 12.0478 10.2973 12.4979C10.7474 12.948 11.3578 13.2008 11.9944 13.2008Z" fill="#12E2B0"/>
</svg>
