<svg width="408" height="286" viewBox="0 0 408 286" fill="none" xmlns="http://www.w3.org/2000/svg">
<path d="M367.733 267.161C367.076 269.643 365.686 271.42 364.664 272.493C362.248 276.034 360.164 285.716 354.967 285.093C338.132 276.414 323.668 264.733 309.097 252.667C304.747 248.972 300.394 245.282 296.038 241.586C292.292 238.819 288.542 236.045 284.796 233.278C280.191 230.089 275.595 226.891 270.993 223.692C266.446 220.524 261.905 217.358 257.367 214.181C254.225 211.548 247.116 208.912 245.59 205.466C245.228 203.634 246.514 201.796 247.194 200.146C245.679 199.387 244.232 198.473 242.78 197.605L242.778 197.611C237.238 194.259 232.206 190.726 226.476 187.372C222.88 184.271 227.986 177.707 230.807 175.267C236.207 173.454 248.492 185.152 254.29 187.592C258.238 180.222 262.24 184.204 267.504 187.606C275.227 193.049 284.52 198.088 292.255 203.96C293.236 204.659 294.216 205.357 295.204 206.052C303.009 211.25 311.382 215.571 318.961 221.064C330.669 229.492 342.15 238.148 354.117 246.239L354.024 246.181C354.32 246.389 354.926 246.816 355.226 247.031L355.129 246.966C359.183 248.798 361.655 251.251 362.967 252.786C364.377 254.45 369.503 260.455 367.733 267.161Z" fill="black"/>
<path d="M45.1278 185.963C21.9261 152.012 12.345 109.048 30.0442 70.6531C38.5817 52.0781 53.765 36.4404 70.7978 25.0827C87.8306 13.7251 107.681 7.31101 128.129 6.55819C147.959 6.3333 167.53 10.9344 185.149 19.9629C202.768 28.9915 217.903 42.1753 229.244 58.3728C252.678 93.2861 247.073 137.179 229.358 172.875C229.221 173.251 229.054 173.827 229.054 174.303C229.054 174.44 229.14 174.796 229.356 174.913C229.418 174.946 229.439 174.913 229.834 174.778C230.225 174.693 231.023 173.804 231.264 173.485C254.078 138.564 257.922 91.0168 234.157 55.7765C221.944 38.3192 201.786 24.8896 182.664 15.4328C163.541 5.97603 146.067 0.795049 124.715 1.65295C33.4323 7.30178 -15.6331 117.448 43.4211 187.329C44.1532 188.338 45.8305 187.007 45.1278 185.963Z" fill="black"/>
<path d="M40.3636 184.48C82.6062 253.821 197.715 246.143 233.207 177.494C234.031 175.889 231.67 173.924 230.6 175.389C209.802 202.62 185.419 223.636 149.432 226.313C105.931 229.679 70.4809 217.301 42.1329 183.113C41.2905 182.084 39.6793 183.403 40.3636 184.48Z" fill="black"/>
<path d="M71.9843 197.187C44.613 173.624 30.6888 139.906 37.0234 103.193C40.0667 85.4376 46.783 67.5584 58.6688 53.9959C70.5545 40.4333 87.1408 31.7225 104.324 26.3981C121.102 21.6644 138.753 21.0948 155.748 24.7384C172.743 28.382 188.571 36.1291 201.859 47.3088C229.646 71.6379 235.67 107.069 228.711 141.491C228.668 141.706 228.711 142.241 228.711 142.751C228.711 143.102 228.369 146.19 228.71 146.271C229.051 146.352 229.836 144.815 229.836 144.815C230.034 144.713 230.658 142.287 230.791 141.961C242.252 107.031 233.583 68.5064 205.442 43.975C191.127 31.9236 174 23.6882 155.632 20.0247C137.264 16.3612 118.243 17.387 100.316 23.0079C24.1255 48.7231 7.4038 153.652 73.3312 199.566C74.1806 200.256 72.8171 197.915 71.9843 197.187Z" fill="black"/>
<path d="M71.051 192.904C122.56 242.655 214.774 210.229 229.808 142.635C230.155 141.055 230.118 138.921 229.53 140.438C217.828 168.844 201.681 192.744 171.542 203.589C135.14 216.809 102.109 214.548 70.2906 191.803C69.342 191.116 70.227 192.138 71.051 192.904Z" fill="black"/>
<path d="M41.4006 186.516L43.0421 188.681C43.2438 188.948 43.6574 188.899 43.792 188.594C43.8455 188.473 43.8409 188.333 43.7795 188.216L42.5226 185.807C42.4838 185.733 42.4313 185.666 42.3679 185.611C41.7628 185.088 40.9172 185.878 41.4006 186.516Z" fill="black"/>
<path d="M192.68 19.6331L202.669 26.9306L191.896 20.8436C191.771 20.7728 191.669 20.6664 191.605 20.5379C191.267 19.8607 192.068 19.186 192.68 19.6331Z" fill="black"/>
<path d="M104.336 121.989C100.647 134.166 96.3646 147.158 92.2234 159.385L86.8746 154.859C102.836 139.821 121.01 122.133 137.763 108.28L124.93 136.735C119.551 149.57 115.085 158.401 105.783 169.42L105.377 165.752C105.419 159.897 106.919 156.714 106.919 150.654C108.355 144.586 110.449 138.362 113.145 132.142L122.522 140.097C117.029 144.383 111.287 147.68 105.775 151.771C96.9988 158.147 86.3379 165.582 77.4014 171.665C85.4369 155.499 93.9702 138.768 102.591 122.735L104.336 121.989Z" fill="black"/>
<path d="M75.8018 94.065C77.5315 89.3776 79.3636 84.696 81.2718 79.9994L83.2629 81.8974C76.656 87.422 69.12 93.9341 62.2305 98.9758L69.6078 85.8376C72.0153 80.9313 72.9461 79.9994 76.1907 75.7514L76.7559 75.8217C76.603 78.1157 76.1151 80.5621 75.3083 83.0811C74.6039 85.4261 73.6381 87.8174 72.4361 90.1929L68.9462 86.8577C71.1992 85.3046 73.5264 84.1457 75.7827 82.6698C79.3712 80.3736 83.7233 77.7065 87.3679 75.5291C83.8414 81.6797 80.1066 88.0401 76.3538 94.125L75.8018 94.065Z" fill="black"/>
<rect x="243.625" y="171.74" width="17.6633" height="28.6142" transform="rotate(30.3489 243.625 171.74)" fill="#1E1F21"/>
<path d="M241.581 176.542L241.943 176.48L243.291 176.246L243.31 176.243C243.119 176.101 242.928 175.959 242.737 175.819C242.513 175.654 242.272 175.717 242.175 175.837L242.17 175.843L242.164 175.849L242.058 175.973C241.898 176.162 241.739 176.352 241.581 176.542ZM241.789 177.356L241.172 177.037C240.399 177.98 239.658 178.929 238.994 179.912L238.994 179.912L238.991 179.917C238.042 181.286 237.158 182.699 236.267 184.123C234.853 186.444 233.516 188.787 232.35 191.24C234.217 189.213 235.915 187.076 237.544 184.9C237.685 184.705 237.827 184.511 237.969 184.317C238.821 183.152 239.662 182 240.431 180.803L240.431 180.803L240.438 180.793C241.124 179.778 241.739 178.715 242.329 177.634C242.149 177.542 241.969 177.449 241.789 177.356ZM243.8 176.918C243.744 177.023 243.688 177.128 243.632 177.233C244.808 177.834 245.994 178.44 247.156 179.086C246.191 178.406 245.247 177.697 244.312 176.994C244.18 176.895 244.048 176.796 243.917 176.697L243.8 176.918ZM255.127 183.874C254.264 183.414 253.403 182.945 252.55 182.461C253.346 183.009 254.133 183.57 254.912 184.136C254.959 184.079 255.005 184.022 255.052 183.965L255.053 183.964L255.127 183.874ZM255.401 185.677C255.292 185.597 255.183 185.516 255.074 185.436C254.249 186.443 253.431 187.449 252.64 188.457L249.658 192.518C249.293 193.032 248.924 193.532 248.56 194.027C247.933 194.878 247.315 195.716 246.741 196.588L246.741 196.588L246.734 196.597C246.129 197.47 245.544 198.357 244.972 199.248C245.28 199.426 245.587 199.605 245.893 199.785L246.853 200.35C247.455 199.501 248.044 198.649 248.609 197.791L248.609 197.791L248.612 197.787C249.199 196.919 249.747 196.04 250.298 195.156C250.627 194.627 250.958 194.097 251.298 193.566L253.949 189.293C254.595 188.204 255.203 187.091 255.808 185.976L255.401 185.677ZM243.175 200.303C243.326 200.061 243.479 199.819 243.632 199.576C241.9 198.589 240.142 197.629 238.376 196.701C236.783 195.881 235.189 195.07 233.567 194.293C234.948 195.391 236.365 196.448 237.781 197.505L237.829 197.541C237.83 197.541 237.83 197.542 237.831 197.542C239.439 198.725 241.08 199.881 242.732 201.013L243.175 200.303ZM242.91 201.135C243.395 201.467 243.881 201.796 244.368 202.124C244.857 202.445 245.436 202.318 245.687 201.975L245.734 201.905L245.738 201.898L245.743 201.891C246.088 201.417 246.431 200.943 246.77 200.467L245.716 200.649L243.667 201.004L242.91 201.135ZM256.168 185.184L256.191 185.272C256.252 185.159 256.313 185.047 256.375 184.934L256.424 184.83L256.429 184.819L256.434 184.809C256.479 184.726 256.462 184.577 256.295 184.492L256.295 184.492L256.29 184.489C256.175 184.429 256.06 184.369 255.946 184.308L256.168 185.184Z" fill="black" stroke="black" stroke-width="0.953808"/>
<path d="M246.826 179.315L245.276 178.345L235.358 193.021L236.908 193.991L246.826 179.315Z" fill="black" stroke="black" stroke-width="0.953808"/>
<path d="M235.735 194.76C235.64 194.65 235.543 194.542 235.444 194.435C235.41 194.477 235.376 194.519 235.342 194.56L235.291 194.622C235.438 194.67 235.586 194.716 235.735 194.76ZM247.817 178.951C247.586 178.838 247.35 178.731 247.111 178.626L247.127 179.039L247.183 180.482L247.186 180.563C247.29 180.393 247.393 180.223 247.497 180.053C247.558 179.953 247.62 179.852 247.681 179.751L247.748 179.63L247.754 179.62L247.759 179.611C247.875 179.422 247.909 179.245 247.897 179.121C247.886 179.003 247.841 178.964 247.817 178.951ZM246.801 181.193L246.391 180.873C246.285 180.79 246.18 180.706 246.077 180.621C244.491 182.756 242.94 184.891 241.576 187.125L241.575 187.127C240.35 189.118 239.179 191.121 238.126 193.199C239.673 191.424 241.105 189.575 242.5 187.703C244.056 185.614 245.44 183.414 246.801 181.193ZM235.271 192.882C235.308 192.918 235.344 192.955 235.381 192.991C236.098 192.075 236.79 191.137 237.453 190.191L237.453 190.191L237.46 190.181C238.384 188.93 239.178 187.569 239.901 186.169C240.16 185.667 240.424 185.16 240.697 184.656C240.332 185.095 239.963 185.527 239.595 185.954C238.569 187.165 237.596 188.418 236.771 189.733L236.771 189.733L236.766 189.74C236.156 190.677 235.567 191.641 235.001 192.616L235.271 192.882ZM234.452 193.576C234.411 193.649 234.369 193.723 234.328 193.796L234.23 193.988L234.23 193.988L234.225 193.997C234.169 194.1 234.165 194.18 234.172 194.218C234.172 194.222 234.173 194.225 234.174 194.228C234.277 194.266 234.379 194.303 234.481 194.34L234.48 194.297L234.452 193.576ZM246.552 178.389C246.466 178.354 246.379 178.319 246.292 178.284L245.954 178.69C245.865 178.797 245.776 178.904 245.687 179.012C245.767 179.085 245.847 179.157 245.927 179.228C245.954 179.192 245.98 179.156 246.007 179.12C246.089 179.011 246.17 178.902 246.251 178.793L246.552 178.389ZM245.102 178.021C245.088 178.046 245.075 178.07 245.062 178.095L245.405 177.963L245.445 177.947C245.444 177.947 245.444 177.947 245.443 177.947C245.418 177.937 245.392 177.926 245.366 177.916L245.353 177.911L245.34 177.905L245.259 177.868C245.253 177.869 245.246 177.872 245.237 177.877C245.195 177.898 245.142 177.944 245.104 178.016L245.104 178.016L245.102 178.021ZM245.27 177.865C245.271 177.865 245.272 177.864 245.272 177.864C245.272 177.864 245.271 177.864 245.27 177.865Z" stroke="black" stroke-width="0.953808"/>
<path d="M250.17 182.947C248.13 184.888 246.366 187.008 244.688 189.185C243.101 191.272 241.751 193.511 240.438 195.786L241.181 196.342C241.403 196.509 241.624 196.68 241.843 196.853C243.514 194.724 245.131 192.59 246.489 190.314C247.868 187.93 249.152 185.524 250.17 182.947ZM240.41 196.83L240.238 196.134C240.027 196.501 239.817 196.869 239.607 197.237L239.522 197.396L239.518 197.404L239.514 197.412C239.365 197.669 239.459 198.045 239.792 198.214L239.811 198.223L239.83 198.235C240.178 198.414 240.529 198.585 240.884 198.752L240.809 198.45L240.41 196.83ZM241.664 198.616L241.375 198.982C241.469 199.025 241.563 199.068 241.657 199.112L242.022 198.715C242.107 198.622 242.191 198.529 242.276 198.436C242.181 198.358 242.086 198.28 241.991 198.202C241.885 198.336 241.779 198.47 241.674 198.604L241.664 198.616ZM242.464 199.485L242.464 199.485C242.597 199.547 242.73 199.609 242.864 199.673L242.871 199.676L242.878 199.68L243.059 199.772C243.128 199.8 243.194 199.799 243.24 199.785C243.285 199.771 243.306 199.749 243.318 199.724L243.318 199.724L243.321 199.717C243.388 199.575 243.457 199.434 243.526 199.294L242.464 199.485ZM243.819 198.458L243.911 198.532C244.261 197.863 244.634 197.204 245.033 196.562C244.593 197.162 244.127 197.747 243.642 198.316C243.701 198.363 243.76 198.411 243.819 198.458ZM248.014 191.136C247.435 192.433 246.835 193.775 246.078 195.017C246.949 193.854 247.975 192.786 248.969 191.755C250.074 190.609 251.038 189.356 251.825 188.017L251.83 188.01L251.835 188.002C252.453 187.036 253.023 186.028 253.545 184.992L253.052 184.578C252.929 184.474 252.807 184.369 252.686 184.263C251.878 185.18 251.11 186.121 250.417 187.093L250.412 187.101L250.406 187.108C249.454 188.343 248.655 189.699 248.014 191.136ZM253.845 184.107L253.89 184.289C253.961 184.141 254.031 183.992 254.099 183.842L254.19 183.638L254.19 183.638L254.193 183.63C254.238 183.534 254.202 183.393 254.058 183.328L254.055 183.327C253.905 183.259 253.754 183.192 253.603 183.126L253.845 184.107ZM252.736 182.789L252.754 182.77C252.595 182.707 252.435 182.645 252.274 182.584C252.389 182.696 252.505 182.806 252.621 182.915C252.66 182.873 252.698 182.831 252.736 182.789Z" fill="black" stroke="black" stroke-width="0.953808"/>
<path d="M229.443 174.436L230.736 173.401L232.071 171.038L233.113 168.656L233.77 164.697L231.429 171.387L230.682 172.5L229.64 173.597" stroke="black" stroke-width="0.953808"/>
</svg>
